M48
; DRILL file {KiCad 9.0.1} date 2025-05-10T22:07:28+1200
; FORMAT={-:-/ absolute / metric / decimal}
; #@! TF.CreationDate,2025-05-10T22:07:28+12:00
; #@! TF.GenerationSoftware,Kicad,Pcbnew,9.0.1
; #@! TF.FileFunction,NonPlated,1,2,NPTH
FMAT,2
METRIC
; #@! TA.AperFunction,NonPlated,NPTH,ComponentDrill
T1C0.600
; #@! TA.AperFunction,NonPlated,NPTH,ComponentDrill
T2C0.650
; #@! TA.AperFunction,NonPlated,NPTH,ComponentDrill
T3C1.700
; #@! TA.AperFunction,NonPlated,NPTH,ComponentDrill
T4C3.000
; #@! TA.AperFunction,NonPlated,NPTH,ComponentDrill
T5C3.200
; #@! TA.AperFunction,NonPlated,NPTH,ComponentDrill
T6C4.000
%
G90
G05
T1
X67.831Y-175.26
X68.631Y-175.26
X69.431Y-175.26
X70.231Y-175.26
X71.031Y-175.26
X71.831Y-175.26
X118.415Y-91.288
X119.215Y-91.288
X120.015Y-91.288
X120.815Y-91.288
X121.615Y-91.288
X122.415Y-91.288
X153.518Y-189.992
X154.318Y-189.992
X155.118Y-189.992
X155.918Y-189.992
X156.718Y-189.992
X157.518Y-189.992
X176.988Y-91.288
X177.788Y-91.288
X178.588Y-91.288
X179.388Y-91.288
X180.188Y-91.288
X180.988Y-91.288
X227.616Y-91.288
X228.416Y-91.288
X229.216Y-91.288
X230.016Y-91.288
X230.816Y-91.288
X231.616Y-91.288
X250.927Y-189.992
X251.727Y-189.992
X252.527Y-189.992
X253.327Y-189.992
X254.127Y-189.992
X254.927Y-189.992
X285.814Y-91.288
X286.614Y-91.288
X287.414Y-91.288
X288.214Y-91.288
X289.014Y-91.288
X289.814Y-91.288
X336.639Y-175.26
X337.439Y-175.26
X338.239Y-175.26
X339.039Y-175.26
X339.839Y-175.26
X340.639Y-175.26
T2
X176.81Y-97.6
X182.59Y-97.6
X225.666Y-97.6
X231.446Y-97.6
T3
X64.97Y-108.2
X64.97Y-127.25
X64.97Y-146.3
X64.97Y-165.35
X75.13Y-108.2
X75.13Y-127.25
X75.13Y-146.3
X75.13Y-165.35
X84.02Y-106.75
X84.02Y-125.8
X84.02Y-144.85
X84.02Y-163.9
X94.18Y-106.75
X94.18Y-125.8
X94.18Y-144.85
X94.18Y-163.9
X103.07Y-101.9
X103.07Y-120.95
X103.07Y-140.0
X103.07Y-159.05
X112.42Y-178.1
X113.23Y-101.9
X113.23Y-120.95
X113.23Y-140.0
X113.23Y-159.05
X122.12Y-100.5
X122.12Y-119.55
X122.12Y-138.6
X122.12Y-157.65
X122.58Y-178.1
X131.47Y-178.1
X132.28Y-100.5
X132.28Y-119.55
X132.28Y-138.6
X132.28Y-157.65
X141.17Y-101.9
X141.17Y-120.95
X141.17Y-140.0
X141.17Y-159.05
X141.63Y-178.1
X150.52Y-180.5
X151.33Y-101.9
X151.33Y-120.95
X151.33Y-140.0
X151.33Y-159.05
X160.22Y-104.3
X160.22Y-123.35
X160.22Y-142.4
X160.22Y-161.45
X160.68Y-180.5
X170.38Y-104.3
X170.38Y-123.35
X170.38Y-142.4
X170.38Y-161.45
X178.26Y-185.699
X179.27Y-151.85
X183.34Y-176.901
X189.43Y-151.85
X218.826Y-151.85
X224.916Y-176.901
X228.986Y-151.85
X229.996Y-185.699
X237.876Y-104.3
X237.876Y-123.35
X237.876Y-142.4
X237.876Y-161.45
X247.576Y-180.5
X248.036Y-104.3
X248.036Y-123.35
X248.036Y-142.4
X248.036Y-161.45
X256.926Y-101.9
X256.926Y-120.95
X256.926Y-140.0
X256.926Y-159.05
X257.736Y-180.5
X266.626Y-178.1
X267.086Y-101.9
X267.086Y-120.95
X267.086Y-140.0
X267.086Y-159.05
X275.976Y-100.5
X275.976Y-119.55
X275.976Y-138.6
X275.976Y-157.65
X276.786Y-178.1
X285.676Y-178.1
X286.136Y-100.5
X286.136Y-119.55
X286.136Y-138.6
X286.136Y-157.65
X295.026Y-101.9
X295.026Y-120.95
X295.026Y-140.0
X295.026Y-159.05
X295.836Y-178.1
X305.186Y-101.9
X305.186Y-120.95
X305.186Y-140.0
X305.186Y-159.05
X314.076Y-106.75
X314.076Y-125.8
X314.076Y-144.85
X314.076Y-163.9
X324.236Y-106.75
X324.236Y-125.8
X324.236Y-144.85
X324.236Y-163.9
X333.126Y-108.2
X333.126Y-127.25
X333.126Y-146.3
X333.126Y-165.35
X343.286Y-108.2
X343.286Y-127.25
X343.286Y-146.3
X343.286Y-165.35
T4
X66.24Y-105.66
X66.24Y-124.71
X66.24Y-143.76
X66.24Y-162.81
X72.59Y-103.12
X72.59Y-122.17
X72.59Y-141.22
X72.59Y-160.27
X85.29Y-104.21
X85.29Y-123.26
X85.29Y-142.31
X85.29Y-161.36
X91.64Y-101.67
X91.64Y-120.72
X91.64Y-139.77
X91.64Y-158.82
X104.34Y-99.36
X104.34Y-118.41
X104.34Y-137.46
X104.34Y-156.51
X110.69Y-96.82
X110.69Y-115.87
X110.69Y-134.92
X110.69Y-153.97
X113.69Y-175.56
X120.04Y-173.02
X123.39Y-97.96
X123.39Y-117.01
X123.39Y-136.06
X123.39Y-155.11
X129.74Y-95.42
X129.74Y-114.47
X129.74Y-133.52
X129.74Y-152.57
X132.74Y-175.56
X139.09Y-173.02
X142.44Y-99.36
X142.44Y-118.41
X142.44Y-137.46
X142.44Y-156.51
X148.79Y-96.82
X148.79Y-115.87
X148.79Y-134.92
X148.79Y-153.97
X151.79Y-177.96
X158.14Y-175.42
X161.49Y-101.76
X161.49Y-120.81
X161.49Y-139.86
X161.49Y-158.91
X167.84Y-99.22
X167.84Y-118.27
X167.84Y-137.32
X167.84Y-156.37
X176.695Y-183.33
X177.671Y-176.56
X180.54Y-149.31
X186.89Y-146.77
X220.096Y-149.31
X226.446Y-146.77
X227.751Y-176.73
X233.125Y-180.96
X239.146Y-101.76
X239.146Y-120.81
X239.146Y-139.86
X239.146Y-158.91
X245.496Y-99.22
X245.496Y-118.27
X245.496Y-137.32
X245.496Y-156.37
X248.846Y-177.96
X255.196Y-175.42
X258.196Y-99.36
X258.196Y-118.41
X258.196Y-137.46
X258.196Y-156.51
X264.546Y-96.82
X264.546Y-115.87
X264.546Y-134.92
X264.546Y-153.97
X267.896Y-175.56
X274.246Y-173.02
X277.246Y-97.96
X277.246Y-117.01
X277.246Y-136.06
X277.246Y-155.11
X283.596Y-95.42
X283.596Y-114.47
X283.596Y-133.52
X283.596Y-152.57
X286.946Y-175.56
X293.296Y-173.02
X296.296Y-99.36
X296.296Y-118.41
X296.296Y-137.46
X296.296Y-156.51
X302.646Y-96.82
X302.646Y-115.87
X302.646Y-134.92
X302.646Y-153.97
X315.346Y-104.21
X315.346Y-123.26
X315.346Y-142.31
X315.346Y-161.36
X321.696Y-101.67
X321.696Y-120.72
X321.696Y-139.77
X321.696Y-158.82
X334.396Y-105.66
X334.396Y-124.71
X334.396Y-143.76
X334.396Y-162.81
X340.746Y-103.12
X340.746Y-122.17
X340.746Y-141.22
X340.746Y-160.27
T5
X188.585Y-95.95
X200.015Y-95.95
X208.241Y-95.95
X219.671Y-95.95
T6
X70.05Y-108.2
X70.05Y-127.25
X70.05Y-146.3
X70.05Y-165.35
X89.1Y-106.75
X89.1Y-125.8
X89.1Y-144.85
X89.1Y-163.9
X108.15Y-101.9
X108.15Y-120.95
X108.15Y-140.0
X108.15Y-159.05
X117.5Y-178.1
X127.2Y-100.5
X127.2Y-119.55
X127.2Y-138.6
X127.2Y-157.65
X136.55Y-178.1
X146.25Y-101.9
X146.25Y-120.95
X146.25Y-140.0
X146.25Y-159.05
X155.6Y-180.5
X165.3Y-104.3
X165.3Y-123.35
X165.3Y-142.4
X165.3Y-161.45
X180.8Y-181.3
X184.35Y-151.85
X223.906Y-151.85
X227.456Y-181.3
X242.956Y-104.3
X242.956Y-123.35
X242.956Y-142.4
X242.956Y-161.45
X252.656Y-180.5
X262.006Y-101.9
X262.006Y-120.95
X262.006Y-140.0
X262.006Y-159.05
X271.706Y-178.1
X281.056Y-100.5
X281.056Y-119.55
X281.056Y-138.6
X281.056Y-157.65
X290.756Y-178.1
X300.106Y-101.9
X300.106Y-120.95
X300.106Y-140.0
X300.106Y-159.05
X319.156Y-106.75
X319.156Y-125.8
X319.156Y-144.85
X319.156Y-163.9
X338.206Y-108.2
X338.206Y-127.25
X338.206Y-146.3
X338.206Y-165.35
M30
