G04 #@! TF.GenerationSoftware,KiCad,Pcbnew,9.0.2*
G04 #@! TF.CreationDate,2025-05-27T22:59:10+12:00*
G04 #@! TF.ProjectId,Koca58,4b6f6361-3538-42e6-9b69-6361645f7063,v1.0.3*
G04 #@! TF.SameCoordinates,Original*
G04 #@! TF.FileFunction,Profile,NP*
%FSLAX46Y46*%
G04 Gerber Fmt 4.6, Leading zero omitted, Abs format (unit mm)*
G04 Created by KiCad (PCBNEW 9.0.2) date 2025-05-27 22:59:10*
%MOMM*%
%LPD*%
G01*
G04 APERTURE LIST*
G04 #@! TA.AperFunction,Profile*
%ADD10C,0.153000*%
G04 #@! TD*
%ADD11C,0.153000*%
G04 #@! TA.AperFunction,Profile*
%ADD12C,0.601000*%
G04 #@! TD*
G04 APERTURE END LIST*
D10*
X336194400Y-178952554D02*
G75*
G02*
X335194400Y-179952500I-999900J-46D01*
G01*
X283343600Y-85010000D02*
X234054400Y-85010000D01*
X104100000Y-181000000D02*
X104100000Y-203000000D01*
X341122000Y-178952554D02*
X341122000Y-175085536D01*
X240712495Y-189854892D02*
X250444000Y-189854892D01*
X232054400Y-87010000D02*
G75*
G02*
X234054400Y-85010000I2000000J0D01*
G01*
D11*
X202469478Y-92480008D02*
X202469443Y-92470755D01*
X202469329Y-92461511D01*
X202469135Y-92452278D01*
X202468861Y-92443054D01*
X202468507Y-92433841D01*
X202468074Y-92424638D01*
X202467561Y-92415447D01*
X202466970Y-92406267D01*
X202466298Y-92397099D01*
X202465548Y-92387944D01*
X202464718Y-92378801D01*
X202463810Y-92369671D01*
X202462822Y-92360554D01*
X202461756Y-92351451D01*
X202460611Y-92342363D01*
X202459387Y-92333289D01*
X202458085Y-92324230D01*
X202456704Y-92315186D01*
X202455244Y-92306158D01*
X202453707Y-92297147D01*
X202452091Y-92288152D01*
X202450397Y-92279174D01*
X202448625Y-92270214D01*
X202446775Y-92261272D01*
X202444847Y-92252349D01*
X202442842Y-92243444D01*
X202440759Y-92234559D01*
X202438599Y-92225694D01*
X202436362Y-92216849D01*
X202434047Y-92208025D01*
X202431655Y-92199222D01*
X202429187Y-92190442D01*
X202426642Y-92181683D01*
X202424020Y-92172948D01*
X202421322Y-92164236D01*
X202418547Y-92155547D01*
X202415696Y-92146884D01*
X202412770Y-92138245D01*
X202409768Y-92129632D01*
X202406690Y-92121044D01*
X202403537Y-92112484D01*
X202400308Y-92103950D01*
X202397005Y-92095444D01*
X202393627Y-92086966D01*
X202390174Y-92078518D01*
X202386647Y-92070098D01*
X202383046Y-92061709D01*
X202379371Y-92053350D01*
X202375622Y-92045022D01*
X202371800Y-92036726D01*
X202367905Y-92028462D01*
X202363936Y-92020231D01*
X202359896Y-92012034D01*
X202355783Y-92003870D01*
X202351597Y-91995741D01*
X202347341Y-91987648D01*
X202343012Y-91979590D01*
X202338613Y-91971569D01*
X202334142Y-91963585D01*
X202329602Y-91955639D01*
X202324991Y-91947731D01*
X202320310Y-91939862D01*
X202315559Y-91932033D01*
X202310740Y-91924243D01*
X202305851Y-91916495D01*
X202300895Y-91908788D01*
X202295870Y-91901123D01*
X202290778Y-91893500D01*
X202285618Y-91885921D01*
X202280391Y-91878386D01*
X202275098Y-91870896D01*
X202269739Y-91863450D01*
X202264315Y-91856050D01*
X202258825Y-91848697D01*
X202253270Y-91841390D01*
X202247652Y-91834132D01*
X202241969Y-91826921D01*
X202236223Y-91819759D01*
X202230414Y-91812647D01*
X202224543Y-91805584D01*
X202218610Y-91798573D01*
X202212615Y-91791612D01*
X202206560Y-91784703D01*
X202200444Y-91777847D01*
X202194268Y-91771044D01*
X202188032Y-91764294D01*
X202181738Y-91757599D01*
X202175386Y-91750958D01*
X202168975Y-91744372D01*
X202162508Y-91737843D01*
X202159253Y-91734599D01*
X202155984Y-91731369D01*
X202152700Y-91728154D01*
X202149403Y-91724953D01*
X202146092Y-91721767D01*
X202142767Y-91718595D01*
X202139429Y-91715437D01*
X202136076Y-91712294D01*
X202132710Y-91709166D01*
X202129331Y-91706052D01*
X202125938Y-91702953D01*
X202122531Y-91699869D01*
X202119112Y-91696800D01*
X202115678Y-91693746D01*
X202112232Y-91690707D01*
X202108773Y-91687683D01*
X202105301Y-91684674D01*
X202101815Y-91681680D01*
X202098317Y-91678702D01*
X202094806Y-91675739D01*
X202091283Y-91672792D01*
X202087746Y-91669860D01*
X202084197Y-91666943D01*
X202080636Y-91664042D01*
X202077062Y-91661157D01*
X202073475Y-91658288D01*
X202069877Y-91655434D01*
X202066266Y-91652596D01*
X202062643Y-91649775D01*
X202059008Y-91646969D01*
X202055361Y-91644179D01*
X202051702Y-91641405D01*
X202048032Y-91638647D01*
X202044349Y-91635906D01*
X202040655Y-91633181D01*
X202036949Y-91630472D01*
X202033232Y-91627779D01*
X202029503Y-91625103D01*
X202025764Y-91622443D01*
X202022012Y-91619800D01*
X202018250Y-91617174D01*
X202014475Y-91614563D01*
X202010691Y-91611970D01*
X202006895Y-91609393D01*
X202003089Y-91606834D01*
X201999271Y-91604291D01*
X201995443Y-91601765D01*
X201991603Y-91599255D01*
X201987754Y-91596764D01*
X201983894Y-91594288D01*
X201980024Y-91591830D01*
X201976142Y-91589389D01*
X201972252Y-91586966D01*
X201968350Y-91584559D01*
X201964439Y-91582170D01*
X201960517Y-91579797D01*
X201956586Y-91577443D01*
X201952644Y-91575105D01*
X201948693Y-91572786D01*
X201944731Y-91570483D01*
X201940761Y-91568199D01*
X201936780Y-91565931D01*
X201932791Y-91563682D01*
X201928791Y-91561450D01*
X201924783Y-91559236D01*
X201920765Y-91557039D01*
X201916738Y-91554860D01*
X201912701Y-91552699D01*
X201908657Y-91550556D01*
X201904602Y-91548431D01*
X201900539Y-91546324D01*
X201896466Y-91544234D01*
X201892386Y-91542163D01*
X201888296Y-91540109D01*
X201884199Y-91538075D01*
X201880092Y-91536057D01*
X201875977Y-91534058D01*
X201871853Y-91532077D01*
X201867722Y-91530115D01*
X201863581Y-91528170D01*
X201859434Y-91526245D01*
X201855277Y-91524337D01*
X201851114Y-91522448D01*
X201846941Y-91520576D01*
X201842762Y-91518724D01*
X201838573Y-91516890D01*
X201834378Y-91515074D01*
X201830174Y-91513277D01*
X201825964Y-91511498D01*
X201821745Y-91509738D01*
X201817521Y-91507997D01*
X201813287Y-91506274D01*
X201809047Y-91504570D01*
X201804799Y-91502884D01*
X201800545Y-91501217D01*
X201796282Y-91499569D01*
X201792015Y-91497940D01*
X201787738Y-91496329D01*
X201783456Y-91494738D01*
X201779166Y-91493164D01*
X201774871Y-91491611D01*
X201770567Y-91490075D01*
X201766259Y-91488559D01*
X201761942Y-91487061D01*
X201757621Y-91485583D01*
X201753291Y-91484124D01*
X201748958Y-91482683D01*
X201744615Y-91481262D01*
X201740269Y-91479860D01*
X201735914Y-91478476D01*
X201731556Y-91477112D01*
X201727189Y-91475767D01*
X201722819Y-91474441D01*
X201718441Y-91473134D01*
X201714059Y-91471846D01*
X201709669Y-91470578D01*
X201705275Y-91469329D01*
X201700874Y-91468098D01*
X201696470Y-91466888D01*
X201692057Y-91465696D01*
X201687642Y-91464524D01*
X201683219Y-91463370D01*
X201678793Y-91462237D01*
X201674360Y-91461122D01*
X201669923Y-91460028D01*
X201665479Y-91458952D01*
X201661033Y-91457896D01*
X201656579Y-91456858D01*
X201652123Y-91455841D01*
X201647659Y-91454843D01*
X201643193Y-91453865D01*
X201638720Y-91452905D01*
X201634244Y-91451966D01*
X201629762Y-91451045D01*
X201625277Y-91450145D01*
X201620786Y-91449264D01*
X201616292Y-91448402D01*
X201611792Y-91447560D01*
X201607289Y-91446737D01*
X201602780Y-91445934D01*
X201598269Y-91445151D01*
X201593752Y-91444387D01*
X201589233Y-91443643D01*
X201584707Y-91442918D01*
X201580180Y-91442214D01*
X201575646Y-91441528D01*
X201571111Y-91440863D01*
X201566570Y-91440217D01*
X201562027Y-91439591D01*
X201557478Y-91438984D01*
X201552927Y-91438397D01*
X201548371Y-91437830D01*
X201543814Y-91437283D01*
X201539250Y-91436755D01*
X201534686Y-91436247D01*
X201530115Y-91435759D01*
X201525544Y-91435290D01*
X201520967Y-91434842D01*
X201516388Y-91434413D01*
X201511805Y-91434004D01*
X201507220Y-91433615D01*
X201502630Y-91433245D01*
X201498039Y-91432896D01*
X201493443Y-91432566D01*
X201488846Y-91432257D01*
X201484244Y-91431967D01*
X201479641Y-91431697D01*
X201475033Y-91431446D01*
X201470425Y-91431216D01*
X201465811Y-91431006D01*
X201461197Y-91430816D01*
X201456578Y-91430645D01*
X201451958Y-91430494D01*
X201447334Y-91430364D01*
X201442709Y-91430253D01*
X201438080Y-91430163D01*
X201433450Y-91430092D01*
X201428816Y-91430041D01*
X201420000Y-91430000D01*
D10*
X73339200Y-180000000D02*
X103100000Y-180000000D01*
X348000000Y-79000000D02*
G75*
G02*
X350000000Y-81000000I0J-2000000D01*
G01*
X174530000Y-85000000D02*
G75*
G02*
X176530000Y-87000000I0J-2000000D01*
G01*
X153060400Y-204000000D02*
G75*
G02*
X152060400Y-205000000I-1000000J0D01*
G01*
X153060400Y-204000000D02*
X153060400Y-189854892D01*
X67310000Y-179000000D02*
G75*
G02*
X66310000Y-180000000I-1000000J0D01*
G01*
X115957600Y-85000000D02*
G75*
G02*
X117957600Y-87000000I0J-2000000D01*
G01*
X299812345Y-189807446D02*
X255422400Y-189807446D01*
X350000000Y-83000000D02*
G75*
G02*
X348000000Y-85000000I-2000000J0D01*
G01*
X62000000Y-210000000D02*
G75*
G02*
X60000000Y-208000000I0J2000000D01*
G01*
X285343600Y-91440000D02*
X285343600Y-87010000D01*
X103100000Y-180000000D02*
G75*
G02*
X104100000Y-181000000I0J-1000000D01*
G01*
X302300000Y-204952554D02*
X256422400Y-204952554D01*
X250444000Y-204000008D02*
X250444000Y-189854892D01*
X122885200Y-87000000D02*
G75*
G02*
X124889083Y-84999996I2003900J-3900D01*
G01*
X290271200Y-87000000D02*
G75*
G02*
X292271200Y-85000000I2000000J0D01*
G01*
X304300000Y-180952554D02*
G75*
G02*
X305300000Y-179952600I1000000J-46D01*
G01*
X62000000Y-85000000D02*
G75*
G02*
X60000000Y-83000000I0J2000000D01*
G01*
X336194400Y-175085000D02*
X304812000Y-175085000D01*
X346400000Y-179952554D02*
G75*
G02*
X348400046Y-181952554I-1700J-2001746D01*
G01*
X124889083Y-85000000D02*
X174530000Y-85000000D01*
X225177600Y-85000000D02*
G75*
G02*
X227177600Y-87000000I0J-2000000D01*
G01*
X202469478Y-92480008D02*
X202469478Y-142935448D01*
X62000000Y-210000000D02*
X346400000Y-210000000D01*
D11*
X181960706Y-197467703D02*
X181958668Y-197471146D01*
X181956618Y-197474569D01*
X181954560Y-197477969D01*
X181952490Y-197481348D01*
X181950412Y-197484704D01*
X181948322Y-197488039D01*
X181946223Y-197491351D01*
X181944113Y-197494644D01*
X181941995Y-197497913D01*
X181939865Y-197501162D01*
X181937727Y-197504388D01*
X181935578Y-197507594D01*
X181933420Y-197510777D01*
X181931252Y-197513941D01*
X181929074Y-197517082D01*
X181926886Y-197520203D01*
X181924690Y-197523301D01*
X181922483Y-197526380D01*
X181920267Y-197529437D01*
X181918041Y-197532474D01*
X181915807Y-197535488D01*
X181913562Y-197538483D01*
X181911309Y-197541456D01*
X181909045Y-197544409D01*
X181906773Y-197547341D01*
X181904490Y-197550253D01*
X181902200Y-197553143D01*
X181899899Y-197556014D01*
X181897590Y-197558863D01*
X181895271Y-197561693D01*
X181892943Y-197564502D01*
X181890606Y-197567291D01*
X181888260Y-197570059D01*
X181885905Y-197572808D01*
X181883541Y-197575535D01*
X181881167Y-197578244D01*
X181878786Y-197580931D01*
X181876394Y-197583600D01*
X181873994Y-197586247D01*
X181871585Y-197588875D01*
X181869167Y-197591483D01*
X181866740Y-197594072D01*
X181864305Y-197596639D01*
X181861860Y-197599189D01*
X181859407Y-197601717D01*
X181856944Y-197604227D01*
X181854474Y-197606716D01*
X181851994Y-197609187D01*
X181849506Y-197611637D01*
X181847008Y-197614069D01*
X181844503Y-197616480D01*
X181841988Y-197618873D01*
X181839465Y-197621246D01*
X181836933Y-197623600D01*
X181834393Y-197625934D01*
X181831844Y-197628250D01*
X181829286Y-197630545D01*
X181826719Y-197632823D01*
X181824145Y-197635080D01*
X181821561Y-197637319D01*
X181818969Y-197639539D01*
X181816368Y-197641740D01*
X181813759Y-197643922D01*
X181811141Y-197646085D01*
X181808515Y-197648229D01*
X181805880Y-197650354D01*
X181803237Y-197652460D01*
X181800585Y-197654548D01*
X181797925Y-197656617D01*
X181795256Y-197658667D01*
X181792578Y-197660698D01*
X181789892Y-197662711D01*
X181787198Y-197664705D01*
X181784495Y-197666681D01*
X181781784Y-197668638D01*
X181779064Y-197670577D01*
X181776336Y-197672496D01*
X181773599Y-197674398D01*
X181770854Y-197676281D01*
X181768100Y-197678146D01*
X181765338Y-197679992D01*
X181762567Y-197681820D01*
X181759788Y-197683629D01*
X181757001Y-197685420D01*
X181754205Y-197687193D01*
X181751400Y-197688948D01*
X181748587Y-197690684D01*
X181745766Y-197692402D01*
X181742936Y-197694102D01*
X181740097Y-197695783D01*
X181737250Y-197697446D01*
X181734395Y-197699091D01*
X181731531Y-197700718D01*
X181728659Y-197702327D01*
X181725777Y-197703918D01*
X181722888Y-197705490D01*
X181717084Y-197708581D01*
X181711245Y-197711599D01*
X181705372Y-197714545D01*
X181699465Y-197717419D01*
X181693524Y-197720220D01*
X181687548Y-197722949D01*
X181681537Y-197725606D01*
X181675492Y-197728191D01*
X181669412Y-197730704D01*
X181663298Y-197733145D01*
X181657149Y-197735513D01*
X181650964Y-197737810D01*
X181644745Y-197740033D01*
X181638491Y-197742185D01*
X181632201Y-197744264D01*
X181625875Y-197746271D01*
X181619515Y-197748204D01*
X181613118Y-197750066D01*
X181606686Y-197751854D01*
X181600218Y-197753569D01*
X181593715Y-197755211D01*
X181587175Y-197756779D01*
X181580599Y-197758274D01*
X181573986Y-197759695D01*
X181567337Y-197761042D01*
X181560652Y-197762315D01*
X181553930Y-197763513D01*
X181547171Y-197764636D01*
X181540375Y-197765685D01*
X181533543Y-197766658D01*
X181526673Y-197767556D01*
X181519766Y-197768378D01*
X181512822Y-197769123D01*
X181505840Y-197769793D01*
X181498821Y-197770385D01*
X181491764Y-197770900D01*
X181484670Y-197771338D01*
X181477538Y-197771698D01*
X181470368Y-197771979D01*
X181463161Y-197772182D01*
X181455915Y-197772306D01*
X181448631Y-197772351D01*
X181441309Y-197772315D01*
X181433950Y-197772200D01*
X181426552Y-197772003D01*
X181419115Y-197771726D01*
X181411641Y-197771367D01*
X181404128Y-197770926D01*
X181396577Y-197770403D01*
X181388988Y-197769796D01*
X181381360Y-197769107D01*
X181373694Y-197768333D01*
X181365990Y-197767475D01*
X181358248Y-197766532D01*
X181350467Y-197765504D01*
X181342648Y-197764390D01*
X181334791Y-197763190D01*
X181326896Y-197761903D01*
X181318963Y-197760528D01*
X181310992Y-197759066D01*
X181302983Y-197757515D01*
X181294936Y-197755875D01*
X181286851Y-197754146D01*
X181278729Y-197752327D01*
X181270569Y-197750418D01*
X181262372Y-197748417D01*
X181254138Y-197746325D01*
X181245867Y-197744141D01*
X181237558Y-197741864D01*
X181229213Y-197739494D01*
X181220831Y-197737030D01*
X181212413Y-197734472D01*
X181203959Y-197731820D01*
X181195469Y-197729072D01*
X181186942Y-197726228D01*
X181178380Y-197723288D01*
X181169783Y-197720251D01*
X181161151Y-197717117D01*
X181152484Y-197713885D01*
X181143782Y-197710554D01*
X181135046Y-197707125D01*
X181126275Y-197703596D01*
X181117471Y-197699967D01*
X181108634Y-197696237D01*
X181099763Y-197692407D01*
X181090860Y-197688475D01*
X181081924Y-197684441D01*
X181072956Y-197680305D01*
X181063956Y-197676065D01*
X181054924Y-197671723D01*
X181045862Y-197667276D01*
X181036769Y-197662725D01*
X181027645Y-197658070D01*
X181018492Y-197653309D01*
X181009309Y-197648442D01*
X181000097Y-197643469D01*
X180990856Y-197638390D01*
X180981587Y-197633204D01*
X180972290Y-197627910D01*
X180962966Y-197622509D01*
X180953615Y-197616999D01*
X180950245Y-197614991D01*
D10*
X348400000Y-181952554D02*
X348400000Y-208000000D01*
X283343600Y-85010000D02*
G75*
G02*
X285343600Y-87010000I0J-2000000D01*
G01*
X60000000Y-81000000D02*
X60000000Y-83000000D01*
X342122000Y-179952554D02*
X346400000Y-179952554D01*
X227177600Y-91430000D02*
X227177600Y-87000000D01*
D11*
X346810735Y-175085898D02*
X346816583Y-175085910D01*
X346822424Y-175085903D01*
X346828262Y-175085875D01*
X346834094Y-175085828D01*
X346839923Y-175085761D01*
X346845745Y-175085673D01*
X346851564Y-175085566D01*
X346857376Y-175085439D01*
X346863185Y-175085292D01*
X346868988Y-175085125D01*
X346874787Y-175084938D01*
X346880579Y-175084732D01*
X346886368Y-175084505D01*
X346892150Y-175084259D01*
X346903701Y-175083708D01*
X346915231Y-175083077D01*
X346926739Y-175082367D01*
X346938226Y-175081579D01*
X346949692Y-175080712D01*
X346961136Y-175079767D01*
X346972557Y-175078743D01*
X346983956Y-175077641D01*
X346995332Y-175076461D01*
X347006685Y-175075203D01*
X347018015Y-175073868D01*
X347029320Y-175072454D01*
X347040602Y-175070963D01*
X347051860Y-175069395D01*
X347063093Y-175067749D01*
X347074302Y-175066027D01*
X347085485Y-175064227D01*
X347096643Y-175062350D01*
X347107774Y-175060397D01*
X347118880Y-175058367D01*
X347129960Y-175056261D01*
X347141013Y-175054079D01*
X347152038Y-175051820D01*
X347163037Y-175049485D01*
X347174007Y-175047075D01*
X347184950Y-175044589D01*
X347195865Y-175042027D01*
X347206751Y-175039390D01*
X347217608Y-175036678D01*
X347228435Y-175033890D01*
X347239233Y-175031028D01*
X347250001Y-175028091D01*
X347260739Y-175025079D01*
X347271446Y-175021993D01*
X347282123Y-175018833D01*
X347292768Y-175015599D01*
X347303381Y-175012290D01*
X347313962Y-175008908D01*
X347324511Y-175005453D01*
X347335028Y-175001924D01*
X347345511Y-174998321D01*
X347355961Y-174994646D01*
X347366377Y-174990898D01*
X347376760Y-174987077D01*
X347387107Y-174983183D01*
X347397420Y-174979218D01*
X347407698Y-174975180D01*
X347417940Y-174971070D01*
X347428147Y-174966888D01*
X347438317Y-174962635D01*
X347448451Y-174958311D01*
X347458547Y-174953915D01*
X347468607Y-174949449D01*
X347478628Y-174944911D01*
X347488612Y-174940303D01*
X347498557Y-174935625D01*
X347508463Y-174930877D01*
X347518330Y-174926059D01*
X347528158Y-174921171D01*
X347537946Y-174916214D01*
X347547693Y-174911187D01*
X347557400Y-174906092D01*
X347567066Y-174900928D01*
X347576690Y-174895695D01*
X347586272Y-174890394D01*
X347595813Y-174885025D01*
X347605310Y-174879588D01*
X347614765Y-174874083D01*
X347624177Y-174868512D01*
X347633545Y-174862873D01*
X347642868Y-174857167D01*
X347652148Y-174851395D01*
X347661382Y-174845556D01*
X347670571Y-174839652D01*
X347679715Y-174833681D01*
X347688813Y-174827646D01*
X347697864Y-174821545D01*
X347706869Y-174815379D01*
X347715827Y-174809148D01*
X347724737Y-174802853D01*
X347733599Y-174796494D01*
X347742413Y-174790071D01*
X347751179Y-174783584D01*
X347759895Y-174777034D01*
X347768562Y-174770422D01*
X347777180Y-174763746D01*
X347785747Y-174757008D01*
X347794264Y-174750208D01*
X347802730Y-174743347D01*
X347811145Y-174736424D01*
X347819508Y-174729439D01*
X347827819Y-174722394D01*
X347836078Y-174715289D01*
X347844285Y-174708123D01*
X347852438Y-174700897D01*
X347860538Y-174693612D01*
X347868584Y-174686267D01*
X347876576Y-174678864D01*
X347884514Y-174671402D01*
X347892397Y-174663882D01*
X347900224Y-174656303D01*
X347907996Y-174648668D01*
X347915712Y-174640975D01*
X347919549Y-174637107D01*
X347923372Y-174633225D01*
X347927181Y-174629329D01*
X347930975Y-174625418D01*
X347934756Y-174621494D01*
X347938522Y-174617556D01*
X347942274Y-174613603D01*
X347946011Y-174609637D01*
X347949734Y-174605657D01*
X347953443Y-174601663D01*
X347957137Y-174597655D01*
X347960816Y-174593634D01*
X347964481Y-174589599D01*
X347968131Y-174585550D01*
X347971767Y-174581487D01*
X347975388Y-174577411D01*
X347978994Y-174573322D01*
X347982586Y-174569218D01*
X347986163Y-174565102D01*
X347989724Y-174560972D01*
X347993271Y-174556829D01*
X347996803Y-174552672D01*
X348000320Y-174548503D01*
X348003822Y-174544319D01*
X348007309Y-174540123D01*
X348010781Y-174535914D01*
X348014237Y-174531692D01*
X348017679Y-174527456D01*
X348021105Y-174523208D01*
X348024516Y-174518946D01*
X348027912Y-174514672D01*
X348031292Y-174510385D01*
X348034657Y-174506085D01*
X348038007Y-174501772D01*
X348041341Y-174497447D01*
X348044660Y-174493109D01*
X348047963Y-174488758D01*
X348051250Y-174484395D01*
X348054522Y-174480019D01*
X348057778Y-174475631D01*
X348061019Y-174471230D01*
X348064244Y-174466817D01*
X348067453Y-174462392D01*
X348070646Y-174457954D01*
X348073824Y-174453504D01*
X348076985Y-174449042D01*
X348080131Y-174444568D01*
X348083261Y-174440081D01*
X348086374Y-174435583D01*
X348089472Y-174431072D01*
X348092554Y-174426550D01*
X348095620Y-174422015D01*
X348098669Y-174417469D01*
X348101703Y-174412910D01*
X348104720Y-174408341D01*
X348107721Y-174403759D01*
X348110705Y-174399166D01*
X348113674Y-174394561D01*
X348116626Y-174389944D01*
X348119562Y-174385316D01*
X348122481Y-174380677D01*
X348125384Y-174376025D01*
X348128270Y-174371363D01*
X348131140Y-174366689D01*
X348133993Y-174362004D01*
X348136830Y-174357307D01*
X348139650Y-174352600D01*
X348142454Y-174347881D01*
X348145241Y-174343151D01*
X348148011Y-174338410D01*
X348150765Y-174333658D01*
X348153502Y-174328895D01*
X348156221Y-174324121D01*
X348158925Y-174319336D01*
X348161611Y-174314541D01*
X348164280Y-174309734D01*
X348166933Y-174304917D01*
X348169568Y-174300089D01*
X348172187Y-174295251D01*
X348174788Y-174290401D01*
X348177373Y-174285542D01*
X348179940Y-174280671D01*
X348182490Y-174275791D01*
X348185024Y-174270899D01*
X348187540Y-174265998D01*
X348190039Y-174261086D01*
X348192520Y-174256164D01*
X348194985Y-174251232D01*
X348197431Y-174246290D01*
X348199861Y-174241337D01*
X348202274Y-174236374D01*
X348204669Y-174231401D01*
X348207046Y-174226419D01*
X348209407Y-174221426D01*
X348211749Y-174216423D01*
X348214075Y-174211410D01*
X348216382Y-174206389D01*
X348218673Y-174201356D01*
X348220945Y-174196315D01*
X348223201Y-174191263D01*
X348225438Y-174186202D01*
X348227658Y-174181131D01*
X348229860Y-174176051D01*
X348232045Y-174170961D01*
X348234211Y-174165863D01*
X348236360Y-174160754D01*
X348238492Y-174155636D01*
X348240605Y-174150509D01*
X348242701Y-174145373D01*
X348244779Y-174140226D01*
X348246838Y-174135072D01*
X348248880Y-174129908D01*
X348250904Y-174124735D01*
X348252911Y-174119553D01*
X348254898Y-174114362D01*
X348256869Y-174109162D01*
X348258821Y-174103953D01*
X348260755Y-174098735D01*
X348262671Y-174093509D01*
X348264569Y-174088273D01*
X348266448Y-174083030D01*
X348268310Y-174077776D01*
X348270153Y-174072516D01*
X348271979Y-174067245D01*
X348273785Y-174061967D01*
X348275574Y-174056680D01*
X348277345Y-174051385D01*
X348279097Y-174046080D01*
X348280831Y-174040769D01*
X348282546Y-174035448D01*
X348284243Y-174030119D01*
X348285922Y-174024782D01*
X348287582Y-174019437D01*
X348289225Y-174014083D01*
X348290848Y-174008722D01*
X348292453Y-174003352D01*
X348294040Y-173997975D01*
X348295608Y-173992589D01*
X348297157Y-173987196D01*
X348298688Y-173981794D01*
X348300200Y-173976386D01*
X348301694Y-173970968D01*
X348303169Y-173965544D01*
X348304626Y-173960111D01*
X348306064Y-173954671D01*
X348307483Y-173949223D01*
X348308883Y-173943768D01*
X348310265Y-173938305D01*
X348311628Y-173932835D01*
X348312972Y-173927356D01*
X348314298Y-173921872D01*
X348315605Y-173916378D01*
X348316892Y-173910879D01*
X348318161Y-173905371D01*
X348319411Y-173899857D01*
X348320643Y-173894334D01*
X348321855Y-173888806D01*
X348323048Y-173883269D01*
X348324223Y-173877726D01*
X348325378Y-173872175D01*
X348326515Y-173866619D01*
X348327632Y-173861054D01*
X348328731Y-173855483D01*
X348329810Y-173849904D01*
X348330870Y-173844320D01*
X348331912Y-173838727D01*
X348332934Y-173833129D01*
X348333937Y-173827523D01*
X348334921Y-173821912D01*
X348335886Y-173816292D01*
X348336831Y-173810668D01*
X348337758Y-173805035D01*
X348338665Y-173799397D01*
X348339553Y-173793751D01*
X348340422Y-173788101D01*
X348341271Y-173782442D01*
X348342102Y-173776778D01*
X348342913Y-173771107D01*
X348343704Y-173765431D01*
X348344476Y-173759747D01*
X348345229Y-173754058D01*
X348345963Y-173748361D01*
X348346677Y-173742660D01*
X348347372Y-173736952D01*
X348348047Y-173731238D01*
X348348703Y-173725517D01*
X348349339Y-173719792D01*
X348349956Y-173714059D01*
X348350554Y-173708322D01*
X348351132Y-173702577D01*
X348351690Y-173696828D01*
X348352229Y-173691071D01*
X348352748Y-173685310D01*
X348353248Y-173679542D01*
X348353728Y-173673770D01*
X348354189Y-173667991D01*
X348354630Y-173662207D01*
X348355051Y-173656416D01*
X348355453Y-173650622D01*
X348355835Y-173644820D01*
X348356197Y-173639014D01*
X348356539Y-173633201D01*
X348356862Y-173627384D01*
X348357165Y-173621561D01*
X348357448Y-173615733D01*
X348357712Y-173609898D01*
X348357956Y-173604060D01*
X348358179Y-173598215D01*
X348358383Y-173592366D01*
X348358568Y-173586511D01*
X348358732Y-173580652D01*
X348358876Y-173574786D01*
X348359001Y-173568917D01*
X348359106Y-173563041D01*
X348359190Y-173557161D01*
X348359255Y-173551275D01*
X348359300Y-173545386D01*
X348359325Y-173539490D01*
X348359330Y-173535887D01*
X226295632Y-197467703D02*
X226297670Y-197471146D01*
X226299720Y-197474569D01*
X226301778Y-197477968D01*
X226303848Y-197481348D01*
X226305926Y-197484703D01*
X226308016Y-197488039D01*
X226310115Y-197491351D01*
X226312225Y-197494643D01*
X226314343Y-197497912D01*
X226316473Y-197501161D01*
X226318611Y-197504387D01*
X226320760Y-197507593D01*
X226322918Y-197510776D01*
X226325087Y-197513940D01*
X226327264Y-197517081D01*
X226329452Y-197520202D01*
X226331648Y-197523300D01*
X226333855Y-197526379D01*
X226336071Y-197529435D01*
X226338297Y-197532472D01*
X226340531Y-197535486D01*
X226342776Y-197538481D01*
X226345030Y-197541454D01*
X226347294Y-197544408D01*
X226349565Y-197547339D01*
X226351848Y-197550251D01*
X226354138Y-197553141D01*
X226356439Y-197556012D01*
X226358748Y-197558861D01*
X226361068Y-197561691D01*
X226363395Y-197564500D01*
X226365733Y-197567289D01*
X226368078Y-197570057D01*
X226370434Y-197572805D01*
X226372797Y-197575533D01*
X226375171Y-197578241D01*
X226377553Y-197580928D01*
X226379945Y-197583597D01*
X226382344Y-197586244D01*
X226384754Y-197588872D01*
X226387171Y-197591480D01*
X226389599Y-197594069D01*
X226392034Y-197596636D01*
X226394479Y-197599186D01*
X226396932Y-197601714D01*
X226399394Y-197604224D01*
X226401865Y-197606713D01*
X226404345Y-197609184D01*
X226406833Y-197611634D01*
X226409330Y-197614065D01*
X226411836Y-197616477D01*
X226414351Y-197618870D01*
X226416873Y-197621242D01*
X226419406Y-197623596D01*
X226421946Y-197625930D01*
X226424495Y-197628246D01*
X226427053Y-197630542D01*
X226429619Y-197632819D01*
X226432194Y-197635076D01*
X226434778Y-197637315D01*
X226437370Y-197639535D01*
X226439971Y-197641736D01*
X226442580Y-197643917D01*
X226445198Y-197646081D01*
X226447824Y-197648224D01*
X226450459Y-197650350D01*
X226453102Y-197652456D01*
X226455754Y-197654544D01*
X226458414Y-197656612D01*
X226461084Y-197658663D01*
X226463761Y-197660694D01*
X226466447Y-197662707D01*
X226469141Y-197664701D01*
X226471844Y-197666676D01*
X226474555Y-197668633D01*
X226477275Y-197670572D01*
X226480003Y-197672492D01*
X226482740Y-197674393D01*
X226485485Y-197676276D01*
X226488239Y-197678141D01*
X226491001Y-197679987D01*
X226493772Y-197681815D01*
X226496551Y-197683624D01*
X226499339Y-197685415D01*
X226502135Y-197687188D01*
X226504939Y-197688942D01*
X226507752Y-197690679D01*
X226510574Y-197692396D01*
X226513404Y-197694096D01*
X226516242Y-197695778D01*
X226519089Y-197697441D01*
X226521945Y-197699086D01*
X226524809Y-197700713D01*
X226527681Y-197702322D01*
X226530562Y-197703912D01*
X226533452Y-197705485D01*
X226539256Y-197708575D01*
X226545095Y-197711593D01*
X226550968Y-197714539D01*
X226556875Y-197717413D01*
X226562817Y-197720214D01*
X226568793Y-197722943D01*
X226574803Y-197725600D01*
X226580848Y-197728185D01*
X226586928Y-197730698D01*
X226593043Y-197733138D01*
X226599192Y-197735507D01*
X226605376Y-197737803D01*
X226611596Y-197740027D01*
X226617850Y-197742178D01*
X226624140Y-197744257D01*
X226630466Y-197746264D01*
X226636826Y-197748197D01*
X226643223Y-197750058D01*
X226649655Y-197751846D01*
X226656123Y-197753561D01*
X226662627Y-197755203D01*
X226669167Y-197756772D01*
X226675743Y-197758266D01*
X226682356Y-197759687D01*
X226689004Y-197761034D01*
X226695690Y-197762307D01*
X226702412Y-197763505D01*
X226709171Y-197764628D01*
X226715967Y-197765677D01*
X226722799Y-197766650D01*
X226729669Y-197767548D01*
X226736576Y-197768369D01*
X226743521Y-197769115D01*
X226750502Y-197769784D01*
X226757521Y-197770376D01*
X226764578Y-197770891D01*
X226771673Y-197771329D01*
X226778805Y-197771689D01*
X226785975Y-197771970D01*
X226793182Y-197772173D01*
X226800428Y-197772297D01*
X226807712Y-197772341D01*
X226815034Y-197772306D01*
X226822394Y-197772190D01*
X226829792Y-197771994D01*
X226837228Y-197771716D01*
X226844703Y-197771357D01*
X226852216Y-197770916D01*
X226859767Y-197770393D01*
X226867356Y-197769786D01*
X226874984Y-197769097D01*
X226882650Y-197768323D01*
X226890354Y-197767465D01*
X226898096Y-197766522D01*
X226905877Y-197765494D01*
X226913696Y-197764380D01*
X226921553Y-197763179D01*
X226929448Y-197761892D01*
X226937382Y-197760517D01*
X226945353Y-197759055D01*
X226953362Y-197757504D01*
X226961409Y-197755864D01*
X226969494Y-197754135D01*
X226977616Y-197752316D01*
X226985776Y-197750406D01*
X226993973Y-197748406D01*
X227002207Y-197746313D01*
X227010479Y-197744129D01*
X227018787Y-197741852D01*
X227027132Y-197739482D01*
X227035514Y-197737018D01*
X227043932Y-197734460D01*
X227052387Y-197731808D01*
X227060877Y-197729060D01*
X227069403Y-197726216D01*
X227077965Y-197723276D01*
X227086563Y-197720239D01*
X227095195Y-197717104D01*
X227103862Y-197713872D01*
X227112564Y-197710541D01*
X227121300Y-197707111D01*
X227130071Y-197703582D01*
X227138875Y-197699953D01*
X227147712Y-197696224D01*
X227156583Y-197692393D01*
X227165486Y-197688461D01*
X227174422Y-197684427D01*
X227183391Y-197680291D01*
X227192391Y-197676051D01*
X227201422Y-197671709D01*
X227210485Y-197667262D01*
X227219578Y-197662711D01*
X227228702Y-197658055D01*
X227237855Y-197653294D01*
X227247038Y-197648428D01*
X227256250Y-197643455D01*
X227265491Y-197638375D01*
X227274760Y-197633189D01*
X227284057Y-197627895D01*
X227293381Y-197622494D01*
X227302732Y-197616984D01*
X227306093Y-197614981D01*
D10*
X285343600Y-91440000D02*
X232054400Y-91440000D01*
X60000000Y-81000000D02*
G75*
G02*
X62000000Y-79000000I2000000J0D01*
G01*
X158988000Y-205000000D02*
G75*
G02*
X157988000Y-204000000I0J1000000D01*
G01*
X158988000Y-205000000D02*
X249446553Y-205000000D01*
D11*
X59940000Y-173632971D02*
X59940129Y-173644080D01*
X59940337Y-173655178D01*
X59940626Y-173666264D01*
X59940994Y-173677338D01*
X59941441Y-173688400D01*
X59941968Y-173699449D01*
X59942574Y-173710486D01*
X59943260Y-173721509D01*
X59944025Y-173732519D01*
X59944869Y-173743514D01*
X59945792Y-173754496D01*
X59946794Y-173765463D01*
X59947875Y-173776416D01*
X59949034Y-173787353D01*
X59950273Y-173798275D01*
X59951590Y-173809181D01*
X59952986Y-173820071D01*
X59954460Y-173830945D01*
X59956012Y-173841802D01*
X59957643Y-173852641D01*
X59959352Y-173863463D01*
X59961139Y-173874268D01*
X59963004Y-173885054D01*
X59964947Y-173895822D01*
X59966968Y-173906570D01*
X59969067Y-173917300D01*
X59971243Y-173928010D01*
X59973496Y-173938700D01*
X59975827Y-173949369D01*
X59978236Y-173960018D01*
X59980721Y-173970645D01*
X59983284Y-173981252D01*
X59985923Y-173991836D01*
X59988639Y-174002398D01*
X59991432Y-174012937D01*
X59994302Y-174023453D01*
X59997248Y-174033946D01*
X60000271Y-174044415D01*
X60003369Y-174054859D01*
X60006544Y-174065279D01*
X60009794Y-174075674D01*
X60013121Y-174086043D01*
X60016523Y-174096387D01*
X60020000Y-174106704D01*
X60023553Y-174116994D01*
X60027181Y-174127257D01*
X60030884Y-174137493D01*
X60034662Y-174147701D01*
X60038515Y-174157880D01*
X60042442Y-174168030D01*
X60046444Y-174178151D01*
X60050520Y-174188242D01*
X60054670Y-174198303D01*
X60058894Y-174208334D01*
X60063191Y-174218333D01*
X60067562Y-174228301D01*
X60072006Y-174238237D01*
X60076524Y-174248140D01*
X60081114Y-174258011D01*
X60085777Y-174267848D01*
X60090512Y-174277652D01*
X60095320Y-174287422D01*
X60100200Y-174297156D01*
X60105152Y-174306856D01*
X60110175Y-174316520D01*
X60115270Y-174326148D01*
X60120436Y-174335740D01*
X60125672Y-174345295D01*
X60130980Y-174354812D01*
X60136358Y-174364292D01*
X60141806Y-174373733D01*
X60147324Y-174383135D01*
X60152912Y-174392498D01*
X60158569Y-174401822D01*
X60164296Y-174411105D01*
X60170091Y-174420348D01*
X60175955Y-174429549D01*
X60181888Y-174438709D01*
X60187888Y-174447827D01*
X60193957Y-174456903D01*
X60200092Y-174465935D01*
X60206295Y-174474925D01*
X60212565Y-174483870D01*
X60218902Y-174492771D01*
X60225305Y-174501627D01*
X60231773Y-174510438D01*
X60238308Y-174519204D01*
X60244908Y-174527923D01*
X60251573Y-174536595D01*
X60258302Y-174545221D01*
X60265097Y-174553799D01*
X60271955Y-174562329D01*
X60278877Y-174570811D01*
X60285862Y-174579243D01*
X60292910Y-174587627D01*
X60300021Y-174595961D01*
X60307194Y-174604244D01*
X60314430Y-174612477D01*
X60321727Y-174620659D01*
X60329085Y-174628790D01*
X60336504Y-174636868D01*
X60343984Y-174644894D01*
X60347746Y-174648888D01*
X60351524Y-174652868D01*
X60355316Y-174656834D01*
X60359123Y-174660788D01*
X60362946Y-174664728D01*
X60366783Y-174668654D01*
X60370634Y-174672567D01*
X60374501Y-174676467D01*
X60378382Y-174680353D01*
X60382277Y-174684225D01*
X60386188Y-174688083D01*
X60390112Y-174691928D01*
X60394052Y-174695759D01*
X60398005Y-174699576D01*
X60401973Y-174703379D01*
X60405956Y-174707168D01*
X60409952Y-174710943D01*
X60413963Y-174714704D01*
X60417988Y-174718450D01*
X60422028Y-174722183D01*
X60426081Y-174725901D01*
X60430148Y-174729606D01*
X60434229Y-174733295D01*
X60438325Y-174736971D01*
X60442434Y-174740632D01*
X60446557Y-174744279D01*
X60450693Y-174747910D01*
X60454844Y-174751528D01*
X60459008Y-174755131D01*
X60463185Y-174758719D01*
X60467377Y-174762292D01*
X60471582Y-174765851D01*
X60475800Y-174769395D01*
X60480031Y-174772924D01*
X60484276Y-174776438D01*
X60488535Y-174779937D01*
X60492806Y-174783421D01*
X60497091Y-174786891D01*
X60501389Y-174790345D01*
X60505700Y-174793784D01*
X60510024Y-174797207D01*
X60514362Y-174800616D01*
X60518712Y-174804009D01*
X60523075Y-174807387D01*
X60527450Y-174810749D01*
X60531839Y-174814097D01*
X60536240Y-174817428D01*
X60540655Y-174820745D01*
X60545081Y-174824045D01*
X60549521Y-174827331D01*
X60553972Y-174830600D01*
X60558437Y-174833854D01*
X60562913Y-174837092D01*
X60567403Y-174840315D01*
X60571904Y-174843521D01*
X60576418Y-174846712D01*
X60580943Y-174849887D01*
X60585482Y-174853046D01*
X60590032Y-174856189D01*
X60594594Y-174859317D01*
X60599168Y-174862427D01*
X60603755Y-174865523D01*
X60608352Y-174868601D01*
X60612963Y-174871664D01*
X60617584Y-174874710D01*
X60622218Y-174877741D01*
X60626862Y-174880755D01*
X60631519Y-174883753D01*
X60636187Y-174886734D01*
X60640868Y-174889699D01*
X60645558Y-174892648D01*
X60650262Y-174895580D01*
X60654975Y-174898495D01*
X60659701Y-174901395D01*
X60664437Y-174904277D01*
X60669186Y-174907143D01*
X60673944Y-174909992D01*
X60678715Y-174912825D01*
X60683495Y-174915641D01*
X60688288Y-174918440D01*
X60693090Y-174921222D01*
X60697905Y-174923988D01*
X60702729Y-174926736D01*
X60707565Y-174929468D01*
X60712411Y-174932183D01*
X60717268Y-174934881D01*
X60722135Y-174937562D01*
X60727014Y-174940226D01*
X60731902Y-174942872D01*
X60736802Y-174945503D01*
X60741711Y-174948115D01*
X60746631Y-174950711D01*
X60751561Y-174953289D01*
X60756502Y-174955850D01*
X60761452Y-174958393D01*
X60766413Y-174960920D01*
X60771383Y-174963429D01*
X60776365Y-174965921D01*
X60781355Y-174968395D01*
X60786357Y-174970853D01*
X60791367Y-174973292D01*
X60796388Y-174975714D01*
X60801417Y-174978119D01*
X60806458Y-174980506D01*
X60811507Y-174982875D01*
X60816567Y-174985228D01*
X60821635Y-174987562D01*
X60826715Y-174989879D01*
X60831802Y-174992177D01*
X60836900Y-174994459D01*
X60842006Y-174996722D01*
X60847123Y-174998968D01*
X60852247Y-175001196D01*
X60857383Y-175003407D01*
X60862526Y-175005599D01*
X60867679Y-175007773D01*
X60872840Y-175009930D01*
X60878012Y-175012069D01*
X60883191Y-175014189D01*
X60888381Y-175016292D01*
X60893578Y-175018377D01*
X60898785Y-175020444D01*
X60903999Y-175022492D01*
X60909224Y-175024523D01*
X60914456Y-175026535D01*
X60919698Y-175028530D01*
X60924947Y-175030506D01*
X60930206Y-175032464D01*
X60935472Y-175034404D01*
X60940749Y-175036326D01*
X60946031Y-175038229D01*
X60951324Y-175040114D01*
X60956624Y-175041981D01*
X60961933Y-175043829D01*
X60967249Y-175045659D01*
X60972575Y-175047471D01*
X60977907Y-175049264D01*
X60983249Y-175051040D01*
X60988597Y-175052796D01*
X60993954Y-175054534D01*
X60999318Y-175056254D01*
X61004692Y-175057955D01*
X61010072Y-175059637D01*
X61015461Y-175061302D01*
X61020856Y-175062947D01*
X61026260Y-175064574D01*
X61031671Y-175066182D01*
X61037091Y-175067772D01*
X61042516Y-175069343D01*
X61047951Y-175070895D01*
X61053391Y-175072429D01*
X61058841Y-175073944D01*
X61064296Y-175075440D01*
X61069760Y-175076917D01*
X61075230Y-175078376D01*
X61080709Y-175079816D01*
X61086193Y-175081237D01*
X61091686Y-175082639D01*
X61097185Y-175084022D01*
X61102692Y-175085387D01*
X61108204Y-175086733D01*
X61113725Y-175088059D01*
X61119252Y-175089367D01*
X61124787Y-175090656D01*
X61130327Y-175091926D01*
X61135875Y-175093177D01*
X61141429Y-175094409D01*
X61146991Y-175095622D01*
X61152558Y-175096815D01*
X61158133Y-175097990D01*
X61163713Y-175099146D01*
X61169301Y-175100283D01*
X61174894Y-175101400D01*
X61180496Y-175102499D01*
X61186102Y-175103578D01*
X61191716Y-175104638D01*
X61197335Y-175105679D01*
X61202961Y-175106701D01*
X61208592Y-175107703D01*
X61214232Y-175108687D01*
X61219875Y-175109650D01*
X61225527Y-175110595D01*
X61231182Y-175111521D01*
X61236846Y-175112427D01*
X61242514Y-175113314D01*
X61248189Y-175114182D01*
X61253869Y-175115030D01*
X61259557Y-175115859D01*
X61265248Y-175116668D01*
X61270947Y-175117458D01*
X61276650Y-175118229D01*
X61282361Y-175118980D01*
X61288075Y-175119712D01*
X61293797Y-175120424D01*
X61299523Y-175121117D01*
X61305256Y-175121791D01*
X61310993Y-175122444D01*
X61316737Y-175123079D01*
X61322485Y-175123694D01*
X61328240Y-175124289D01*
X61333999Y-175124865D01*
X61339765Y-175125421D01*
X61345534Y-175125957D01*
X61351311Y-175126474D01*
X61357091Y-175126972D01*
X61362878Y-175127449D01*
X61368668Y-175127907D01*
X61374465Y-175128346D01*
X61380266Y-175128764D01*
X61386074Y-175129163D01*
X61391884Y-175129542D01*
X61397702Y-175129902D01*
X61403523Y-175130241D01*
X61409350Y-175130561D01*
X61415181Y-175130862D01*
X61421018Y-175131142D01*
X61426859Y-175131403D01*
X61432706Y-175131643D01*
X61438556Y-175131864D01*
X61444412Y-175132065D01*
X61450272Y-175132246D01*
X61456138Y-175132408D01*
X61462006Y-175132549D01*
X61467881Y-175132671D01*
X61473759Y-175132772D01*
X61479644Y-175132854D01*
X61485531Y-175132915D01*
X61491424Y-175132957D01*
X61500000Y-175132982D01*
D10*
X342122000Y-179952554D02*
G75*
G02*
X341121946Y-178952554I0J1000054D01*
G01*
X227306093Y-197614981D02*
X240712495Y-189854892D01*
X292271200Y-85000000D02*
X348000000Y-85000000D01*
X335194400Y-179952554D02*
X305300000Y-179952554D01*
D11*
X59940000Y-97780000D02*
X59940055Y-97772465D01*
X59940190Y-97764931D01*
X59940405Y-97757396D01*
X59940700Y-97749862D01*
X59941075Y-97742328D01*
X59941530Y-97734792D01*
X59942066Y-97727255D01*
X59942682Y-97719716D01*
X59943378Y-97712175D01*
X59944155Y-97704632D01*
X59945012Y-97697085D01*
X59945951Y-97689535D01*
X59946971Y-97681982D01*
X59948071Y-97674424D01*
X59949254Y-97666861D01*
X59950518Y-97659294D01*
X59951864Y-97651721D01*
X59953293Y-97644142D01*
X59954804Y-97636557D01*
X59956398Y-97628966D01*
X59958075Y-97621367D01*
X59959836Y-97613762D01*
X59961681Y-97606148D01*
X59963610Y-97598526D01*
X59965624Y-97590896D01*
X59967723Y-97583257D01*
X59969907Y-97575608D01*
X59972178Y-97567950D01*
X59974535Y-97560282D01*
X59976979Y-97552604D01*
X59979510Y-97544914D01*
X59982129Y-97537214D01*
X59984837Y-97529502D01*
X59987634Y-97521779D01*
X59990520Y-97514043D01*
X59993496Y-97506294D01*
X59996564Y-97498533D01*
X59999722Y-97490759D01*
X60002972Y-97482971D01*
X60006315Y-97475169D01*
X60009751Y-97467353D01*
X60013281Y-97459523D01*
X60016905Y-97451677D01*
X60020625Y-97443817D01*
X60024441Y-97435941D01*
X60028353Y-97428049D01*
X60032362Y-97420141D01*
X60036470Y-97412217D01*
X60040676Y-97404276D01*
X60044982Y-97396318D01*
X60049389Y-97388343D01*
X60053896Y-97380350D01*
X60058506Y-97372339D01*
X60063218Y-97364310D01*
X60068035Y-97356263D01*
X60072955Y-97348197D01*
X60077981Y-97340112D01*
X60083113Y-97332008D01*
X60088353Y-97323885D01*
X60093700Y-97315741D01*
X60099157Y-97307578D01*
X60104723Y-97299395D01*
X60110400Y-97291191D01*
X60116188Y-97282966D01*
X60122090Y-97274721D01*
X60128105Y-97266454D01*
X60134234Y-97258166D01*
X60140480Y-97249856D01*
X60146841Y-97241525D01*
X60153321Y-97233171D01*
X60159919Y-97224795D01*
X60166637Y-97216397D01*
X60173475Y-97207976D01*
X60180435Y-97199532D01*
X60187518Y-97191065D01*
X60194725Y-97182575D01*
X60202057Y-97174061D01*
X60209515Y-97165524D01*
X60217101Y-97156963D01*
X60224814Y-97148377D01*
X60232657Y-97139768D01*
X60240631Y-97131134D01*
X60248736Y-97122476D01*
X60256974Y-97113793D01*
X60265346Y-97105085D01*
X60273853Y-97096353D01*
X60282496Y-97087595D01*
X60291277Y-97078811D01*
X60300197Y-97070003D01*
X60309257Y-97061168D01*
X60318457Y-97052308D01*
X60327801Y-97043423D01*
X60337287Y-97034511D01*
X60346919Y-97025573D01*
X60356697Y-97016608D01*
X60366622Y-97007618D01*
X60376695Y-96998600D01*
X60386919Y-96989556D01*
X60397293Y-96980486D01*
X60407820Y-96971388D01*
X60418501Y-96962264D01*
X60429337Y-96953112D01*
X60440329Y-96943934D01*
X60451479Y-96934728D01*
X60462788Y-96925494D01*
X60474257Y-96916233D01*
X60485888Y-96906945D01*
X60497681Y-96897629D01*
X60509640Y-96888285D01*
X60521764Y-96878914D01*
X60534055Y-96869514D01*
X60546514Y-96860086D01*
X60559143Y-96850631D01*
X60571944Y-96841147D01*
X60584917Y-96831635D01*
X60598064Y-96822095D01*
X60611387Y-96812526D01*
X60624887Y-96802929D01*
X60638565Y-96793304D01*
X60652422Y-96783650D01*
X60666461Y-96773967D01*
X60680683Y-96764256D01*
X60695088Y-96754516D01*
X60709679Y-96744748D01*
X60724458Y-96734950D01*
X60739424Y-96725124D01*
X60754581Y-96715269D01*
X60769928Y-96705385D01*
X60785469Y-96695472D01*
X60801205Y-96685530D01*
X60817136Y-96675559D01*
X60833264Y-96665559D01*
X60849592Y-96655530D01*
X60866119Y-96645472D01*
X60882849Y-96635385D01*
X60899783Y-96625268D01*
X60916921Y-96615123D01*
X60934266Y-96604948D01*
X60951819Y-96594744D01*
X60969581Y-96584511D01*
X60987555Y-96574249D01*
X61005742Y-96563957D01*
X61024143Y-96553636D01*
X61042760Y-96543286D01*
X61061594Y-96532907D01*
X61080647Y-96522498D01*
X61099921Y-96512060D01*
X61119418Y-96501593D01*
X61139138Y-96491097D01*
X61159084Y-96480571D01*
X61179256Y-96470016D01*
X61199657Y-96459432D01*
X61220289Y-96448819D01*
X61241152Y-96438176D01*
X61262249Y-96427505D01*
X61283581Y-96416804D01*
X61305150Y-96406074D01*
X61326958Y-96395314D01*
X61349005Y-96384526D01*
X61371294Y-96373709D01*
X61393826Y-96362862D01*
X61416604Y-96351987D01*
X61439628Y-96341082D01*
X61462900Y-96330149D01*
X61486423Y-96319187D01*
X61510197Y-96308195D01*
X61534224Y-96297175D01*
X61558507Y-96286126D01*
X61583046Y-96275048D01*
X61607843Y-96263942D01*
X61632901Y-96252806D01*
X61658220Y-96241643D01*
X61683803Y-96230450D01*
X61709651Y-96219229D01*
X61735766Y-96207979D01*
X61762149Y-96196701D01*
X61788803Y-96185394D01*
X61815728Y-96174059D01*
X61842928Y-96162696D01*
X61870403Y-96151305D01*
X61898155Y-96139885D01*
X61926185Y-96128437D01*
X61954497Y-96116961D01*
X61983091Y-96105457D01*
X62011968Y-96093925D01*
X62041132Y-96082366D01*
X62070583Y-96070778D01*
X62100324Y-96059163D01*
X62130355Y-96047520D01*
X62160679Y-96035849D01*
X62191298Y-96024151D01*
X62222213Y-96012426D01*
X62253426Y-96000673D01*
X62284938Y-95988893D01*
X62316753Y-95977085D01*
X62348870Y-95965251D01*
X62381293Y-95953389D01*
X62414022Y-95941501D01*
X62447060Y-95929585D01*
X62480408Y-95917643D01*
X62514068Y-95905675D01*
X62548043Y-95893679D01*
X62582332Y-95881657D01*
X62616939Y-95869609D01*
X62651866Y-95857534D01*
X62687113Y-95845434D01*
X62722683Y-95833307D01*
X62758577Y-95821154D01*
X62794798Y-95808975D01*
X62831347Y-95796770D01*
X62868225Y-95784540D01*
X62905435Y-95772284D01*
X62942979Y-95760003D01*
X62980857Y-95747696D01*
X63019073Y-95735364D01*
X63057627Y-95723007D01*
X63096521Y-95710625D01*
X63135758Y-95698218D01*
X63175339Y-95685786D01*
X63215266Y-95673330D01*
X63255540Y-95660849D01*
X63296164Y-95648343D01*
X63337139Y-95635814D01*
X63378466Y-95623260D01*
X63420149Y-95610682D01*
X63462187Y-95598080D01*
X63504584Y-95585454D01*
X63547341Y-95572805D01*
X63590460Y-95560132D01*
X63633943Y-95547436D01*
X63677790Y-95534717D01*
X63722005Y-95521974D01*
X63766589Y-95509209D01*
X63811543Y-95496421D01*
X63856870Y-95483610D01*
X63902571Y-95470776D01*
X63948648Y-95457920D01*
X63995102Y-95445042D01*
X64041936Y-95432142D01*
X64089151Y-95419220D01*
X64136749Y-95406276D01*
X64184732Y-95393311D01*
X64233101Y-95380324D01*
X64281858Y-95367315D01*
X64331005Y-95354286D01*
X64380544Y-95341236D01*
X64430477Y-95328164D01*
X64480804Y-95315072D01*
X64531529Y-95301960D01*
X64582652Y-95288827D01*
X64634175Y-95275675D01*
X64686100Y-95262502D01*
X64738429Y-95249309D01*
X64791164Y-95236097D01*
X64844306Y-95222865D01*
X64897857Y-95209614D01*
X64951818Y-95196344D01*
X65006192Y-95183055D01*
X65060979Y-95169747D01*
X65116182Y-95156420D01*
X65171803Y-95143076D01*
X65227843Y-95129713D01*
X65284303Y-95116332D01*
X65341186Y-95102933D01*
X65398493Y-95089517D01*
X65456226Y-95076083D01*
X65514386Y-95062632D01*
X65572975Y-95049164D01*
X65631995Y-95035679D01*
X65691447Y-95022177D01*
X65751333Y-95008659D01*
X65811655Y-94995125D01*
X65872413Y-94981575D01*
X65933611Y-94968008D01*
X65995249Y-94954427D01*
X66057329Y-94940830D01*
X66119853Y-94927217D01*
X66182822Y-94913590D01*
X66246238Y-94899948D01*
X66310102Y-94886291D01*
X66374416Y-94872621D01*
X66439182Y-94858936D01*
X66504400Y-94845237D01*
X66570074Y-94831524D01*
X66636203Y-94817798D01*
X66702790Y-94804059D01*
X66769837Y-94790306D01*
X66837344Y-94776541D01*
X66905313Y-94762764D01*
X66973746Y-94748974D01*
X67042644Y-94735172D01*
X67112009Y-94721358D01*
X67181842Y-94707533D01*
X67252145Y-94693696D01*
X67322919Y-94679849D01*
X67394165Y-94665990D01*
X67465886Y-94652121D01*
X67538082Y-94638241D01*
X67610754Y-94624351D01*
X67683905Y-94610452D01*
X67757536Y-94596542D01*
X67831647Y-94582624D01*
X67906241Y-94568696D01*
X67981319Y-94554759D01*
X68056882Y-94540814D01*
X68132931Y-94526860D01*
X68209468Y-94512898D01*
X68286494Y-94498929D01*
X68364011Y-94484951D01*
X68442020Y-94470967D01*
X68520521Y-94456975D01*
X68599517Y-94442977D01*
X68679008Y-94428972D01*
X68758997Y-94414961D01*
X68839483Y-94400944D01*
X68920469Y-94386921D01*
X69001955Y-94372893D01*
X69083944Y-94358860D01*
X69166435Y-94344822D01*
X69249430Y-94330779D01*
X69332931Y-94316732D01*
X69416938Y-94302681D01*
X69501452Y-94288626D01*
X69586476Y-94274568D01*
X69672009Y-94260507D01*
X69758053Y-94246443D01*
X69844610Y-94232376D01*
X69931679Y-94218307D01*
X70019263Y-94204236D01*
X70107362Y-94190163D01*
X70195978Y-94176089D01*
X70285111Y-94162014D01*
X70374762Y-94147938D01*
X70464932Y-94133861D01*
X70555623Y-94119784D01*
X70646835Y-94105708D01*
X70738569Y-94091632D01*
X70830827Y-94077556D01*
X70923608Y-94063482D01*
X71016915Y-94049409D01*
X71110747Y-94035337D01*
X71205106Y-94021268D01*
X71299993Y-94007201D01*
X71395408Y-93993136D01*
X71491353Y-93979074D01*
X71587827Y-93965016D01*
X71684833Y-93950961D01*
X71782370Y-93936910D01*
X71880439Y-93922863D01*
X71979042Y-93908821D01*
X72078178Y-93894783D01*
X72177849Y-93880751D01*
X72278055Y-93866724D01*
X72378798Y-93852703D01*
X72480076Y-93838688D01*
X72581893Y-93824680D01*
X72684246Y-93810678D01*
X72787139Y-93796684D01*
X72890570Y-93782697D01*
X72994541Y-93768718D01*
X73099053Y-93754747D01*
X73204105Y-93740784D01*
X73309698Y-93726831D01*
X73415832Y-93712886D01*
X73522509Y-93698951D01*
X73629729Y-93685026D01*
X73737492Y-93671111D01*
X73845798Y-93657207D01*
X73954648Y-93643314D01*
X74064042Y-93629431D01*
X74173981Y-93615561D01*
X74284465Y-93601702D01*
X74395495Y-93587856D01*
X74507070Y-93574022D01*
X74619190Y-93560201D01*
X74731857Y-93546394D01*
X74845071Y-93532600D01*
X74958831Y-93518820D01*
X75073137Y-93505055D01*
X75187991Y-93491305D01*
X75303392Y-93477569D01*
X75419341Y-93463849D01*
X75535836Y-93450145D01*
X75652880Y-93436457D01*
X75770471Y-93422786D01*
X75888609Y-93409132D01*
X76007296Y-93395495D01*
X76126530Y-93381875D01*
X76246312Y-93368274D01*
X76366641Y-93354691D01*
X76487519Y-93341126D01*
X76608944Y-93327581D01*
X76730916Y-93314055D01*
X76853436Y-93300549D01*
X76976504Y-93287064D01*
X77100118Y-93273599D01*
X77224280Y-93260154D01*
X77348988Y-93246731D01*
X77474243Y-93233330D01*
X77600044Y-93219951D01*
X77726391Y-93206595D01*
X77853285Y-93193261D01*
X77980723Y-93179950D01*
X78108707Y-93166663D01*
X78237236Y-93153400D01*
X78366310Y-93140161D01*
X78495927Y-93126946D01*
X78626089Y-93113757D01*
X78756793Y-93100593D01*
X78888041Y-93087455D01*
X79019830Y-93074343D01*
X79152162Y-93061258D01*
X79285035Y-93048199D01*
X79418449Y-93035168D01*
X79552403Y-93022165D01*
X79686897Y-93009189D01*
X79821930Y-92996242D01*
X79957501Y-92983324D01*
X80093611Y-92970435D01*
X80230257Y-92957576D01*
X80367440Y-92944746D01*
X80505158Y-92931947D01*
X80643412Y-92919178D01*
X80782199Y-92906441D01*
X80921521Y-92893735D01*
X81061375Y-92881060D01*
X81201760Y-92868418D01*
X81342677Y-92855809D01*
X81484124Y-92843232D01*
X81626100Y-92830689D01*
X81768604Y-92818179D01*
X81911636Y-92805704D01*
X82055194Y-92793263D01*
X82199278Y-92780856D01*
X82343886Y-92768485D01*
X82489017Y-92756150D01*
X82634671Y-92743850D01*
X82780847Y-92731587D01*
X82927542Y-92719360D01*
X83074757Y-92707171D01*
X83222489Y-92695019D01*
X83370739Y-92682905D01*
X83519504Y-92670829D01*
X83668784Y-92658791D01*
X83818577Y-92646792D01*
X83968882Y-92634833D01*
X84119698Y-92622914D01*
X84271023Y-92611034D01*
X84422857Y-92599195D01*
X84575197Y-92587396D01*
X84728043Y-92575639D01*
X84881394Y-92563923D01*
X85035247Y-92552249D01*
X85189601Y-92540618D01*
X85344456Y-92529029D01*
X85499809Y-92517483D01*
X85655659Y-92505980D01*
X85812005Y-92494521D01*
X85968844Y-92483106D01*
X86126177Y-92471735D01*
X86284000Y-92460409D01*
X86442313Y-92449129D01*
X86601114Y-92437894D01*
X86760402Y-92426704D01*
X86920173Y-92415561D01*
X87080428Y-92404464D01*
X87241165Y-92393415D01*
X87402381Y-92382412D01*
X87564075Y-92371458D01*
X87726245Y-92360551D01*
X87888890Y-92349692D01*
X88052008Y-92338883D01*
X88215596Y-92328122D01*
X88379654Y-92317410D01*
X88544180Y-92306749D01*
X88709171Y-92296137D01*
X88874626Y-92285576D01*
X89040542Y-92275065D01*
X89206919Y-92264605D01*
X89373754Y-92254197D01*
X89541045Y-92243841D01*
X89708790Y-92233537D01*
X89876988Y-92223285D01*
X90045636Y-92213086D01*
X90214732Y-92202940D01*
X90384275Y-92192847D01*
X90554262Y-92182808D01*
X90724692Y-92172824D01*
X90895562Y-92162893D01*
X91066870Y-92153018D01*
X91238614Y-92143197D01*
X91410792Y-92133432D01*
X91583402Y-92123722D01*
X91756442Y-92114069D01*
X91929910Y-92104471D01*
X92103803Y-92094931D01*
X92278120Y-92085447D01*
X92452857Y-92076021D01*
X92628014Y-92066652D01*
X92803588Y-92057341D01*
X92979576Y-92048088D01*
X93155976Y-92038894D01*
X93332786Y-92029758D01*
X93510004Y-92020682D01*
X93687628Y-92011665D01*
X93865655Y-92002708D01*
X94044083Y-91993810D01*
X94222909Y-91984973D01*
X94402131Y-91976197D01*
X94581748Y-91967481D01*
X94761755Y-91958826D01*
X94942153Y-91950233D01*
X95122936Y-91941702D01*
X95304105Y-91933233D01*
X95485655Y-91924826D01*
X95667585Y-91916481D01*
X95849892Y-91908200D01*
X96032573Y-91899981D01*
X96215627Y-91891826D01*
X96399051Y-91883734D01*
X96582842Y-91875707D01*
X96766998Y-91867743D01*
X96951516Y-91859845D01*
X97136394Y-91852010D01*
X97321629Y-91844241D01*
X97507220Y-91836537D01*
X97693162Y-91828899D01*
X97879455Y-91821326D01*
X98066094Y-91813819D01*
X98253079Y-91806379D01*
X98440405Y-91799005D01*
X98628071Y-91791698D01*
X98816074Y-91784457D01*
X99004411Y-91777284D01*
X99193080Y-91770179D01*
X99382079Y-91763141D01*
X99571404Y-91756171D01*
X99666192Y-91752712D01*
X99761053Y-91749270D01*
X99856002Y-91745844D01*
X99951023Y-91742436D01*
X100046132Y-91739045D01*
X100141312Y-91735672D01*
X100236579Y-91732315D01*
X100331917Y-91728976D01*
X100427341Y-91725654D01*
X100522836Y-91722349D01*
X100618416Y-91719062D01*
X100714066Y-91715792D01*
X100809799Y-91712539D01*
X100905603Y-91709304D01*
X101001490Y-91706086D01*
X101097447Y-91702886D01*
X101193485Y-91699703D01*
X101289593Y-91696538D01*
X101385781Y-91693390D01*
X101482039Y-91690260D01*
X101578376Y-91687147D01*
X101674783Y-91684053D01*
X101771268Y-91680975D01*
X101867822Y-91677916D01*
X101964453Y-91674874D01*
X102061152Y-91671849D01*
X102157929Y-91668843D01*
X102254773Y-91665854D01*
X102351692Y-91662883D01*
X102448680Y-91659930D01*
X102545742Y-91656995D01*
X102642871Y-91654078D01*
X102740074Y-91651178D01*
X102837344Y-91648297D01*
X102934686Y-91645433D01*
X103032095Y-91642588D01*
X103129576Y-91639760D01*
X103227123Y-91636951D01*
X103324740Y-91634159D01*
X103422424Y-91631386D01*
X103520176Y-91628631D01*
X103617995Y-91625893D01*
X103715882Y-91623174D01*
X103813834Y-91620473D01*
X103911854Y-91617791D01*
X104009939Y-91615126D01*
X104108090Y-91612480D01*
X104206305Y-91609852D01*
X104304587Y-91607242D01*
X104402932Y-91604651D01*
X104501342Y-91602077D01*
X104599816Y-91599523D01*
X104698353Y-91596986D01*
X104796954Y-91594468D01*
X104895617Y-91591969D01*
X104994343Y-91589487D01*
X105093131Y-91587025D01*
X105191982Y-91584580D01*
X105290892Y-91582154D01*
X105389866Y-91579747D01*
X105488899Y-91577358D01*
X105587994Y-91574988D01*
X105687147Y-91572637D01*
X105786363Y-91570304D01*
X105885635Y-91567989D01*
X105984969Y-91565693D01*
X106084359Y-91563416D01*
X106183811Y-91561158D01*
X106283317Y-91558918D01*
X106382885Y-91556697D01*
X106482507Y-91554495D01*
X106582189Y-91552311D01*
X106681924Y-91550146D01*
X106781720Y-91548000D01*
X106881567Y-91545873D01*
X106981475Y-91543765D01*
X107081434Y-91541675D01*
X107181452Y-91539604D01*
X107281520Y-91537553D01*
X107381648Y-91535520D01*
X107481824Y-91533506D01*
X107582059Y-91531511D01*
X107682342Y-91529535D01*
X107782684Y-91527577D01*
X107883073Y-91525639D01*
X107983520Y-91523720D01*
X108084013Y-91521820D01*
X108184564Y-91519939D01*
X108285159Y-91518077D01*
X108385812Y-91516234D01*
X108486509Y-91514410D01*
X108587264Y-91512605D01*
X108688060Y-91510820D01*
X108788915Y-91509053D01*
X108889810Y-91507306D01*
X108990763Y-91505577D01*
X109091755Y-91503868D01*
X109192805Y-91502178D01*
X109293894Y-91500508D01*
X109395039Y-91498856D01*
X109496222Y-91497224D01*
X109597461Y-91495611D01*
X109698738Y-91494018D01*
X109800070Y-91492443D01*
X109901439Y-91490888D01*
X110002863Y-91489352D01*
X110104322Y-91487836D01*
X110205836Y-91486339D01*
X110307384Y-91484861D01*
X110408987Y-91483403D01*
X110510623Y-91481964D01*
X110612313Y-91480544D01*
X110714036Y-91479144D01*
X110815812Y-91477763D01*
X110917620Y-91476402D01*
X111019481Y-91475060D01*
X111121372Y-91473737D01*
X111223317Y-91472434D01*
X111325291Y-91471151D01*
X111427318Y-91469887D01*
X111529373Y-91468643D01*
X111631480Y-91467418D01*
X111733615Y-91466212D01*
X111835802Y-91465026D01*
X111938016Y-91463860D01*
X112040281Y-91462713D01*
X112142571Y-91461586D01*
X112244913Y-91460478D01*
X112347279Y-91459391D01*
X112449696Y-91458322D01*
X112552137Y-91457273D01*
X112654628Y-91456244D01*
X112757141Y-91455235D01*
X112859706Y-91454245D01*
X112962291Y-91453275D01*
X113064926Y-91452324D01*
X113167582Y-91451394D01*
X113270288Y-91450482D01*
X113373013Y-91449591D01*
X113475787Y-91448719D01*
X113578580Y-91447868D01*
X113681422Y-91447035D01*
X113784281Y-91446223D01*
X113887189Y-91445430D01*
X113990113Y-91444657D01*
X114093086Y-91443904D01*
X114196074Y-91443171D01*
X114299111Y-91442457D01*
X114402161Y-91441763D01*
X114505260Y-91441089D01*
X114608372Y-91440435D01*
X114711531Y-91439800D01*
X114814703Y-91439186D01*
X114917922Y-91438591D01*
X115021153Y-91438016D01*
X115124430Y-91437461D01*
X115227718Y-91436926D01*
X115331052Y-91436410D01*
X115434396Y-91435915D01*
X115537786Y-91435439D01*
X115641185Y-91434984D01*
X115744630Y-91434548D01*
X115848082Y-91434132D01*
X115951579Y-91433736D01*
X116055084Y-91433360D01*
X116158633Y-91433004D01*
X116262188Y-91432667D01*
X116365788Y-91432351D01*
X116469393Y-91432055D01*
X116573042Y-91431778D01*
X116676696Y-91431522D01*
X116780393Y-91431285D01*
X116884093Y-91431069D01*
X116987837Y-91430872D01*
X117091583Y-91430695D01*
X117195372Y-91430538D01*
X117299163Y-91430402D01*
X117402997Y-91430285D01*
X117506830Y-91430188D01*
X117610707Y-91430111D01*
X117714583Y-91430055D01*
X117818501Y-91430018D01*
X117957600Y-91430000D01*
D10*
X122885200Y-91430000D02*
X122885200Y-87000000D01*
X350000000Y-83000000D02*
X350000000Y-81000000D01*
X181960706Y-197467703D02*
X195413676Y-174575490D01*
X115957600Y-85000000D02*
X62000000Y-85000000D01*
D11*
X205786860Y-142935448D02*
X205787909Y-143018809D01*
X205789037Y-143102160D01*
X205790246Y-143185500D01*
X205791534Y-143268829D01*
X205792901Y-143352146D01*
X205794349Y-143435452D01*
X205795876Y-143518747D01*
X205797484Y-143602030D01*
X205799170Y-143685302D01*
X205800937Y-143768561D01*
X205802783Y-143851809D01*
X205804709Y-143935044D01*
X205806715Y-144018268D01*
X205808800Y-144101478D01*
X205810965Y-144184677D01*
X205813210Y-144267862D01*
X205815534Y-144351035D01*
X205817938Y-144434195D01*
X205820421Y-144517341D01*
X205822984Y-144600475D01*
X205825627Y-144683595D01*
X205828349Y-144766701D01*
X205831150Y-144849794D01*
X205834031Y-144932872D01*
X205836992Y-145015937D01*
X205840032Y-145098988D01*
X205843152Y-145182024D01*
X205846351Y-145265046D01*
X205849629Y-145348054D01*
X205852987Y-145431046D01*
X205856424Y-145514024D01*
X205859941Y-145596986D01*
X205863537Y-145679934D01*
X205867212Y-145762866D01*
X205870967Y-145845782D01*
X205874801Y-145928683D01*
X205878714Y-146011568D01*
X205882706Y-146094436D01*
X205886778Y-146177289D01*
X205890929Y-146260125D01*
X205895159Y-146342945D01*
X205899469Y-146425748D01*
X205903857Y-146508535D01*
X205908325Y-146591304D01*
X205912872Y-146674056D01*
X205917498Y-146756791D01*
X205922203Y-146839508D01*
X205926987Y-146922208D01*
X205931850Y-147004890D01*
X205936792Y-147087553D01*
X205941813Y-147170199D01*
X205946913Y-147252826D01*
X205952092Y-147335435D01*
X205957350Y-147418025D01*
X205962687Y-147500596D01*
X205968103Y-147583148D01*
X205973597Y-147665680D01*
X205979171Y-147748194D01*
X205984823Y-147830687D01*
X205990554Y-147913161D01*
X205996363Y-147995615D01*
X206002251Y-148078048D01*
X206008218Y-148160462D01*
X206014264Y-148242855D01*
X206020388Y-148325227D01*
X206026591Y-148407578D01*
X206032873Y-148489908D01*
X206039233Y-148572216D01*
X206045671Y-148654503D01*
X206052188Y-148736769D01*
X206058784Y-148819013D01*
X206065457Y-148901234D01*
X206072210Y-148983433D01*
X206079040Y-149065610D01*
X206085949Y-149147764D01*
X206092936Y-149229895D01*
X206100002Y-149312003D01*
X206107145Y-149394088D01*
X206114367Y-149476150D01*
X206121667Y-149558187D01*
X206129045Y-149640201D01*
X206136502Y-149722191D01*
X206144036Y-149804156D01*
X206151648Y-149886097D01*
X206159338Y-149968013D01*
X206167106Y-150049904D01*
X206174953Y-150131770D01*
X206182876Y-150213610D01*
X206190878Y-150295425D01*
X206198958Y-150377214D01*
X206207115Y-150458977D01*
X206215350Y-150540714D01*
X206223663Y-150622424D01*
X206232053Y-150704108D01*
X206240521Y-150785764D01*
X206249066Y-150867394D01*
X206257689Y-150948996D01*
X206266389Y-151030570D01*
X206275167Y-151112117D01*
X206284022Y-151193636D01*
X206292955Y-151275126D01*
X206301964Y-151356587D01*
X206311051Y-151438020D01*
X206320215Y-151519424D01*
X206329457Y-151600799D01*
X206338775Y-151682144D01*
X206348170Y-151763459D01*
X206357643Y-151844745D01*
X206367192Y-151926000D01*
X206376818Y-152007224D01*
X206386521Y-152088418D01*
X206396301Y-152169581D01*
X206406158Y-152250713D01*
X206416091Y-152331813D01*
X206426101Y-152412882D01*
X206436188Y-152493918D01*
X206446351Y-152574923D01*
X206456590Y-152655895D01*
X206466906Y-152736834D01*
X206477298Y-152817740D01*
X206487767Y-152898613D01*
X206498312Y-152979452D01*
X206508933Y-153060257D01*
X206519630Y-153141029D01*
X206530403Y-153221766D01*
X206541252Y-153302468D01*
X206552177Y-153383135D01*
X206563179Y-153463768D01*
X206574255Y-153544365D01*
X206585408Y-153624926D01*
X206596636Y-153705451D01*
X206607940Y-153785940D01*
X206619320Y-153866392D01*
X206630775Y-153946808D01*
X206642306Y-154027186D01*
X206653912Y-154107527D01*
X206665593Y-154187830D01*
X206677349Y-154268095D01*
X206689181Y-154348322D01*
X206701087Y-154428511D01*
X206713069Y-154508660D01*
X206725126Y-154588771D01*
X206737257Y-154668841D01*
X206749464Y-154748873D01*
X206761745Y-154828864D01*
X206774101Y-154908814D01*
X206786531Y-154988724D01*
X206799036Y-155068593D01*
X206811615Y-155148421D01*
X206824269Y-155228207D01*
X206836996Y-155307951D01*
X206849798Y-155387652D01*
X206862675Y-155467312D01*
X206875625Y-155546928D01*
X206888649Y-155626501D01*
X206901747Y-155706031D01*
X206914919Y-155785516D01*
X206928164Y-155864958D01*
X206941483Y-155944355D01*
X206954875Y-156023707D01*
X206968341Y-156103014D01*
X206981881Y-156182276D01*
X206995493Y-156261491D01*
X207009179Y-156340661D01*
X207022938Y-156419783D01*
X207036769Y-156498859D01*
X207050674Y-156577888D01*
X207064651Y-156656869D01*
X207078701Y-156735803D01*
X207092824Y-156814687D01*
X207107019Y-156893524D01*
X207121286Y-156972311D01*
X207135626Y-157051049D01*
X207150038Y-157129737D01*
X207164522Y-157208375D01*
X207179078Y-157286963D01*
X207193705Y-157365500D01*
X207208405Y-157443986D01*
X207223176Y-157522420D01*
X207238019Y-157600802D01*
X207252933Y-157679132D01*
X207267918Y-157757410D01*
X207282975Y-157835634D01*
X207298103Y-157913805D01*
X207313302Y-157991922D01*
X207328571Y-158069985D01*
X207343912Y-158147993D01*
X207359323Y-158225946D01*
X207374804Y-158303844D01*
X207390356Y-158381686D01*
X207405978Y-158459472D01*
X207421670Y-158537201D01*
X207437433Y-158614873D01*
X207453265Y-158692488D01*
X207469167Y-158770045D01*
X207485138Y-158847544D01*
X207501180Y-158924984D01*
X207517290Y-159002365D01*
X207533470Y-159079687D01*
X207549719Y-159156949D01*
X207566036Y-159234150D01*
X207582423Y-159311291D01*
X207598878Y-159388370D01*
X207615402Y-159465388D01*
X207631995Y-159542344D01*
X207648655Y-159619238D01*
X207665384Y-159696068D01*
X207682181Y-159772836D01*
X207699045Y-159849539D01*
X207715977Y-159926178D01*
X207732977Y-160002753D01*
X207750044Y-160079262D01*
X207767179Y-160155706D01*
X207784380Y-160232084D01*
X207801649Y-160308395D01*
X207818984Y-160384639D01*
X207836386Y-160460816D01*
X207853854Y-160536924D01*
X207871388Y-160612965D01*
X207888989Y-160688936D01*
X207906656Y-160764839D01*
X207924388Y-160840671D01*
X207942186Y-160916433D01*
X207960049Y-160992125D01*
X207977978Y-161067745D01*
X207995972Y-161143293D01*
X208014031Y-161218769D01*
X208032154Y-161294172D01*
X208050342Y-161369502D01*
X208068595Y-161444759D01*
X208086912Y-161519941D01*
X208105292Y-161595048D01*
X208123737Y-161670080D01*
X208142245Y-161745036D01*
X208160817Y-161819916D01*
X208179452Y-161894719D01*
X208198150Y-161969444D01*
X208216910Y-162044092D01*
X208235734Y-162118661D01*
X208254620Y-162193152D01*
X208273568Y-162267563D01*
X208292579Y-162341893D01*
X208311651Y-162416144D01*
X208330785Y-162490313D01*
X208349980Y-162564400D01*
X208369237Y-162638406D01*
X208388554Y-162712328D01*
X208407933Y-162786168D01*
X208427372Y-162859923D01*
X208446871Y-162933594D01*
X208466431Y-163007180D01*
X208486050Y-163080680D01*
X208505729Y-163154094D01*
X208525468Y-163227421D01*
X208545266Y-163300661D01*
X208565122Y-163373814D01*
X208585038Y-163446877D01*
X208605012Y-163519852D01*
X208625045Y-163592737D01*
X208645135Y-163665531D01*
X208665283Y-163738235D01*
X208685489Y-163810847D01*
X208705752Y-163883368D01*
X208726072Y-163955795D01*
X208746449Y-164028129D01*
X208766883Y-164100370D01*
X208787373Y-164172515D01*
X208807919Y-164244566D01*
X208828520Y-164316521D01*
X208849177Y-164388379D01*
X208869890Y-164460141D01*
X208890657Y-164531804D01*
X208911479Y-164603370D01*
X208932355Y-164674836D01*
X208953286Y-164746203D01*
X208974270Y-164817469D01*
X208995308Y-164888635D01*
X209016399Y-164959699D01*
X209037544Y-165030660D01*
X209058741Y-165101519D01*
X209079990Y-165172274D01*
X209101291Y-165242925D01*
X209122644Y-165313471D01*
X209144049Y-165383912D01*
X209165505Y-165454246D01*
X209187012Y-165524473D01*
X209208569Y-165594592D01*
X209230177Y-165664603D01*
X209251835Y-165734505D01*
X209273542Y-165804298D01*
X209295298Y-165873979D01*
X209317104Y-165943550D01*
X209338958Y-166013009D01*
X209360860Y-166082355D01*
X209382811Y-166151588D01*
X209404809Y-166220707D01*
X209426854Y-166289711D01*
X209448947Y-166358599D01*
X209471086Y-166427372D01*
X209493271Y-166496027D01*
X209515502Y-166564565D01*
X209537779Y-166632984D01*
X209560101Y-166701284D01*
X209582468Y-166769464D01*
X209604879Y-166837523D01*
X209627335Y-166905461D01*
X209649834Y-166973277D01*
X209672376Y-167040970D01*
X209694962Y-167108539D01*
X209717590Y-167175984D01*
X209740260Y-167243303D01*
X209762972Y-167310496D01*
X209785726Y-167377562D01*
X209808521Y-167444501D01*
X209831356Y-167511311D01*
X209854232Y-167577992D01*
X209877147Y-167644543D01*
X209900102Y-167710964D01*
X209923096Y-167777252D01*
X209946128Y-167843409D01*
X209969199Y-167909432D01*
X209992308Y-167975321D01*
X210015454Y-168041075D01*
X210038636Y-168106693D01*
X210061856Y-168172175D01*
X210085111Y-168237520D01*
X210108402Y-168302726D01*
X210131728Y-168367793D01*
X210155089Y-168432721D01*
X210178484Y-168497508D01*
X210201913Y-168562154D01*
X210225375Y-168626657D01*
X210248871Y-168691017D01*
X210272398Y-168755232D01*
X210295958Y-168819303D01*
X210319549Y-168883229D01*
X210331358Y-168915141D01*
X210343171Y-168947007D01*
X210354996Y-168978846D01*
X210366824Y-169010638D01*
X210378664Y-169042403D01*
X210390507Y-169074121D01*
X210402361Y-169105811D01*
X210414219Y-169137455D01*
X210426088Y-169169070D01*
X210437961Y-169200638D01*
X210449844Y-169232178D01*
X210461731Y-169263671D01*
X210473628Y-169295134D01*
X210485529Y-169326551D01*
X210497440Y-169357939D01*
X210509355Y-169389279D01*
X210521280Y-169420590D01*
X210533208Y-169451853D01*
X210545146Y-169483087D01*
X210557087Y-169514273D01*
X210569039Y-169545429D01*
X210580993Y-169576537D01*
X210592957Y-169607615D01*
X210604924Y-169638646D01*
X210616901Y-169669645D01*
X210628880Y-169700596D01*
X210640869Y-169731517D01*
X210652861Y-169762389D01*
X210664862Y-169793230D01*
X210676865Y-169824023D01*
X210688878Y-169854784D01*
X210700894Y-169885497D01*
X210712918Y-169916178D01*
X210724945Y-169946810D01*
X210736980Y-169977411D01*
X210749018Y-170007962D01*
X210761064Y-170038481D01*
X210773113Y-170068951D01*
X210785170Y-170099388D01*
X210797230Y-170129777D01*
X210809297Y-170160131D01*
X210821367Y-170190438D01*
X210833445Y-170220710D01*
X210845524Y-170250933D01*
X210857612Y-170281123D01*
X210869701Y-170311263D01*
X210881799Y-170341369D01*
X210893897Y-170371425D01*
X210906004Y-170401447D01*
X210918112Y-170431419D01*
X210930228Y-170461357D01*
X210942345Y-170491245D01*
X210954469Y-170521097D01*
X210966594Y-170550900D01*
X210978727Y-170580667D01*
X210990861Y-170610384D01*
X211003002Y-170640066D01*
X211015144Y-170669697D01*
X211027292Y-170699292D01*
X211039442Y-170728837D01*
X211051598Y-170758345D01*
X211063756Y-170787803D01*
X211075919Y-170817224D01*
X211088083Y-170846595D01*
X211100254Y-170875928D01*
X211112425Y-170905212D01*
X211124602Y-170934457D01*
X211136780Y-170963651D01*
X211148963Y-170992808D01*
X211161147Y-171021914D01*
X211173337Y-171050981D01*
X211185527Y-171079998D01*
X211197722Y-171108976D01*
X211209917Y-171137903D01*
X211222118Y-171166791D01*
X211234319Y-171195628D01*
X211246525Y-171224425D01*
X211258731Y-171253171D01*
X211270941Y-171281877D01*
X211283152Y-171310533D01*
X211295367Y-171339147D01*
X211307582Y-171367711D01*
X211319801Y-171396234D01*
X211332020Y-171424706D01*
X211344243Y-171453136D01*
X211356466Y-171481516D01*
X211368693Y-171509853D01*
X211380919Y-171538139D01*
X211393149Y-171566384D01*
X211405379Y-171594577D01*
X211417611Y-171622727D01*
X211429844Y-171650826D01*
X211442079Y-171678882D01*
X211454314Y-171706887D01*
X211466551Y-171734848D01*
X211478788Y-171762758D01*
X211491028Y-171790624D01*
X211503266Y-171818439D01*
X211515507Y-171846209D01*
X211527747Y-171873928D01*
X211539990Y-171901602D01*
X211552231Y-171929224D01*
X211564474Y-171956802D01*
X211576716Y-171984328D01*
X211588960Y-172011808D01*
X211601203Y-172039237D01*
X211613447Y-172066620D01*
X211625690Y-172093951D01*
X211637934Y-172121236D01*
X211650176Y-172148469D01*
X211662420Y-172175655D01*
X211674662Y-172202789D01*
X211686905Y-172229877D01*
X211699146Y-172256912D01*
X211711387Y-172283900D01*
X211723627Y-172310835D01*
X211735867Y-172337724D01*
X211748105Y-172364559D01*
X211760344Y-172391347D01*
X211772580Y-172418082D01*
X211784816Y-172444769D01*
X211797050Y-172471403D01*
X211809284Y-172497989D01*
X211821516Y-172524522D01*
X211833746Y-172551005D01*
X211845975Y-172577436D01*
X211858202Y-172603818D01*
X211870427Y-172630147D01*
X211882651Y-172656425D01*
X211894873Y-172682651D01*
X211907093Y-172708827D01*
X211919310Y-172734950D01*
X211931526Y-172761022D01*
X211943739Y-172787041D01*
X211955950Y-172813009D01*
X211968158Y-172838924D01*
X211980364Y-172864787D01*
X211992567Y-172890598D01*
X212004768Y-172916356D01*
X212016965Y-172942062D01*
X212029160Y-172967715D01*
X212041352Y-172993314D01*
X212053541Y-173018862D01*
X212065726Y-173044355D01*
X212077909Y-173069796D01*
X212090087Y-173095184D01*
X212102263Y-173120518D01*
X212114435Y-173145798D01*
X212126603Y-173171025D01*
X212138768Y-173196199D01*
X212150928Y-173221318D01*
X212163085Y-173246383D01*
X212175238Y-173271395D01*
X212187386Y-173296352D01*
X212199531Y-173321255D01*
X212211671Y-173346103D01*
X212223807Y-173370897D01*
X212235938Y-173395637D01*
X212248064Y-173420321D01*
X212260187Y-173444951D01*
X212272304Y-173469526D01*
X212284416Y-173494046D01*
X212296523Y-173518510D01*
X212308626Y-173542920D01*
X212320723Y-173567273D01*
X212332815Y-173591573D01*
X212344902Y-173615815D01*
X212356983Y-173640003D01*
X212369058Y-173664134D01*
X212381129Y-173688210D01*
X212393193Y-173712229D01*
X212405252Y-173736193D01*
X212417304Y-173760100D01*
X212429351Y-173783952D01*
X212441391Y-173807745D01*
X212453426Y-173831485D01*
X212465453Y-173855165D01*
X212477476Y-173878791D01*
X212489490Y-173902358D01*
X212501499Y-173925870D01*
X212513500Y-173949323D01*
X212525496Y-173972721D01*
X212537484Y-173996059D01*
X212549466Y-174019343D01*
X212561439Y-174042566D01*
X212573407Y-174065735D01*
X212585366Y-174088843D01*
X212597319Y-174111897D01*
X212609263Y-174134890D01*
X212621201Y-174157828D01*
X212633130Y-174180705D01*
X212645053Y-174203527D01*
X212656966Y-174226287D01*
X212668873Y-174248993D01*
X212680770Y-174271636D01*
X212692661Y-174294225D01*
X212704542Y-174316752D01*
X212716416Y-174339223D01*
X212728280Y-174361632D01*
X212740137Y-174383987D01*
X212751984Y-174406278D01*
X212763824Y-174428514D01*
X212775653Y-174450687D01*
X212787476Y-174472805D01*
X212799287Y-174494860D01*
X212811091Y-174516859D01*
X212822884Y-174538795D01*
X212834669Y-174560676D01*
X212842662Y-174575490D01*
D10*
X106100000Y-205000000D02*
G75*
G02*
X104100000Y-203000000I0J2000000D01*
G01*
D11*
X107087649Y-178632962D02*
X107087619Y-178616062D01*
X107087509Y-178599172D01*
X107087318Y-178582290D01*
X107087049Y-178565418D01*
X107086699Y-178548556D01*
X107086269Y-178531704D01*
X107085760Y-178514862D01*
X107085172Y-178498030D01*
X107084503Y-178481209D01*
X107083755Y-178464398D01*
X107082928Y-178447598D01*
X107082021Y-178430809D01*
X107081034Y-178414031D01*
X107079968Y-178397265D01*
X107078823Y-178380510D01*
X107077599Y-178363768D01*
X107076295Y-178347037D01*
X107074912Y-178330318D01*
X107073449Y-178313612D01*
X107071908Y-178296919D01*
X107070288Y-178280238D01*
X107068588Y-178263571D01*
X107066810Y-178246917D01*
X107064952Y-178230276D01*
X107063016Y-178213649D01*
X107061001Y-178197036D01*
X107058907Y-178180437D01*
X107056734Y-178163853D01*
X107054482Y-178147283D01*
X107052152Y-178130728D01*
X107049743Y-178114189D01*
X107047256Y-178097664D01*
X107044690Y-178081155D01*
X107042046Y-178064662D01*
X107039323Y-178048185D01*
X107036522Y-178031724D01*
X107033643Y-178015279D01*
X107030686Y-177998851D01*
X107027650Y-177982441D01*
X107024536Y-177966047D01*
X107021344Y-177949671D01*
X107018074Y-177933312D01*
X107014726Y-177916972D01*
X107011301Y-177900650D01*
X107007797Y-177884346D01*
X107004216Y-177868061D01*
X107000557Y-177851795D01*
X106996820Y-177835548D01*
X106993006Y-177819321D01*
X106989114Y-177803113D01*
X106985145Y-177786926D01*
X106981099Y-177770758D01*
X106976975Y-177754612D01*
X106972775Y-177738486D01*
X106968497Y-177722381D01*
X106964141Y-177706298D01*
X106959709Y-177690236D01*
X106955201Y-177674196D01*
X106950615Y-177658178D01*
X106945952Y-177642183D01*
X106941213Y-177626211D01*
X106936398Y-177610261D01*
X106931506Y-177594335D01*
X106926537Y-177578433D01*
X106921492Y-177562554D01*
X106916371Y-177546700D01*
X106911174Y-177530870D01*
X106905901Y-177515065D01*
X106900552Y-177499285D01*
X106895127Y-177483530D01*
X106889626Y-177467801D01*
X106884050Y-177452098D01*
X106878398Y-177436422D01*
X106872671Y-177420771D01*
X106866868Y-177405148D01*
X106860991Y-177389552D01*
X106855038Y-177373983D01*
X106849010Y-177358442D01*
X106842907Y-177342929D01*
X106836730Y-177327445D01*
X106830478Y-177311989D01*
X106824151Y-177296563D01*
X106817750Y-177281165D01*
X106811275Y-177265798D01*
X106804725Y-177250460D01*
X106798102Y-177235153D01*
X106791405Y-177219876D01*
X106784634Y-177204630D01*
X106777789Y-177189415D01*
X106770871Y-177174232D01*
X106763879Y-177159081D01*
X106756814Y-177143962D01*
X106749677Y-177128876D01*
X106742466Y-177113823D01*
X106735183Y-177098802D01*
X106727826Y-177083815D01*
X106720398Y-177068863D01*
X106712897Y-177053944D01*
X106705324Y-177039060D01*
X106697679Y-177024210D01*
X106689962Y-177009396D01*
X106682174Y-176994618D01*
X106674314Y-176979875D01*
X106666383Y-176965168D01*
X106658380Y-176950498D01*
X106650307Y-176935865D01*
X106642162Y-176921269D01*
X106633947Y-176906711D01*
X106625662Y-176892190D01*
X106617306Y-176877708D01*
X106608881Y-176863264D01*
X106600385Y-176848859D01*
X106591820Y-176834493D01*
X106583185Y-176820167D01*
X106574481Y-176805881D01*
X106565707Y-176791635D01*
X106556865Y-176777430D01*
X106547954Y-176763265D01*
X106538975Y-176749142D01*
X106529927Y-176735061D01*
X106520811Y-176721021D01*
X106511627Y-176707024D01*
X106502375Y-176693069D01*
X106493056Y-176679158D01*
X106483670Y-176665289D01*
X106474217Y-176651465D01*
X106464697Y-176637684D01*
X106455110Y-176623948D01*
X106445457Y-176610256D01*
X106435738Y-176596609D01*
X106425953Y-176583008D01*
X106416103Y-176569453D01*
X106406187Y-176555943D01*
X106396205Y-176542480D01*
X106386159Y-176529064D01*
X106376048Y-176515694D01*
X106365873Y-176502372D01*
X106355634Y-176489098D01*
X106345330Y-176475872D01*
X106334963Y-176462694D01*
X106324533Y-176449565D01*
X106314039Y-176436486D01*
X106303482Y-176423455D01*
X106292863Y-176410474D01*
X106282182Y-176397544D01*
X106271438Y-176384664D01*
X106260632Y-176371834D01*
X106249765Y-176359056D01*
X106238837Y-176346329D01*
X106227847Y-176333653D01*
X106216797Y-176321030D01*
X106205686Y-176308459D01*
X106194515Y-176295941D01*
X106183284Y-176283476D01*
X106171994Y-176271064D01*
X106160644Y-176258705D01*
X106149235Y-176246401D01*
X106137768Y-176234151D01*
X106126242Y-176221956D01*
X106114658Y-176209815D01*
X106103016Y-176197730D01*
X106091316Y-176185701D01*
X106079559Y-176173727D01*
X106067745Y-176161809D01*
X106061817Y-176155872D01*
X106055875Y-176149948D01*
X106049918Y-176144039D01*
X106043948Y-176138144D01*
X106037963Y-176132263D01*
X106031965Y-176126396D01*
X106025952Y-176120544D01*
X106019926Y-176114706D01*
X106013886Y-176108883D01*
X106007832Y-176103074D01*
X106001764Y-176097280D01*
X105995683Y-176091500D01*
X105989587Y-176085735D01*
X105983479Y-176079984D01*
X105977356Y-176074248D01*
X105971220Y-176068526D01*
X105965070Y-176062820D01*
X105958907Y-176057128D01*
X105952731Y-176051451D01*
X105946540Y-176045788D01*
X105940337Y-176040141D01*
X105934120Y-176034508D01*
X105927890Y-176028891D01*
X105921647Y-176023288D01*
X105915390Y-176017701D01*
X105909121Y-176012128D01*
X105902838Y-176006570D01*
X105896542Y-176001028D01*
X105890233Y-175995501D01*
X105883910Y-175989989D01*
X105877575Y-175984492D01*
X105871227Y-175979010D01*
X105864866Y-175973544D01*
X105858492Y-175968093D01*
X105852106Y-175962657D01*
X105845706Y-175957237D01*
X105839294Y-175951832D01*
X105832869Y-175946442D01*
X105826432Y-175941069D01*
X105819982Y-175935710D01*
X105813519Y-175930367D01*
X105807044Y-175925040D01*
X105800556Y-175919729D01*
X105794056Y-175914432D01*
X105787543Y-175909152D01*
X105781018Y-175903888D01*
X105774481Y-175898639D01*
X105767931Y-175893406D01*
X105761370Y-175888189D01*
X105754795Y-175882987D01*
X105748209Y-175877802D01*
X105741611Y-175872632D01*
X105735001Y-175867479D01*
X105728378Y-175862341D01*
X105721744Y-175857220D01*
X105715097Y-175852114D01*
X105708439Y-175847025D01*
X105701769Y-175841951D01*
X105695087Y-175836894D01*
X105688393Y-175831853D01*
X105681688Y-175826828D01*
X105674970Y-175821819D01*
X105668242Y-175816827D01*
X105661501Y-175811851D01*
X105654749Y-175806891D01*
X105647985Y-175801947D01*
X105641210Y-175797021D01*
X105634424Y-175792110D01*
X105627626Y-175787216D01*
X105620816Y-175782338D01*
X105613996Y-175777477D01*
X105607164Y-175772632D01*
X105600321Y-175767804D01*
X105593466Y-175762992D01*
X105586601Y-175758198D01*
X105579724Y-175753419D01*
X105572837Y-175748658D01*
X105565938Y-175743912D01*
X105559029Y-175739185D01*
X105552108Y-175734473D01*
X105545177Y-175729778D01*
X105538234Y-175725100D01*
X105531281Y-175720440D01*
X105524317Y-175715795D01*
X105517343Y-175711168D01*
X105510357Y-175706558D01*
X105503362Y-175701965D01*
X105496354Y-175697388D01*
X105489338Y-175692829D01*
X105482310Y-175688286D01*
X105475272Y-175683761D01*
X105468223Y-175679252D01*
X105461165Y-175674762D01*
X105454095Y-175670287D01*
X105447016Y-175665831D01*
X105439926Y-175661391D01*
X105432826Y-175656969D01*
X105425716Y-175652563D01*
X105418596Y-175648176D01*
X105411465Y-175643805D01*
X105404325Y-175639452D01*
X105397174Y-175635115D01*
X105390014Y-175630797D01*
X105382843Y-175626495D01*
X105375664Y-175622212D01*
X105368473Y-175617945D01*
X105361274Y-175613696D01*
X105354064Y-175609464D01*
X105346845Y-175605251D01*
X105339616Y-175601054D01*
X105332378Y-175596875D01*
X105325129Y-175592714D01*
X105317872Y-175588570D01*
X105310604Y-175584444D01*
X105303328Y-175580335D01*
X105296042Y-175576244D01*
X105288747Y-175572171D01*
X105281442Y-175568116D01*
X105274128Y-175564078D01*
X105266804Y-175560058D01*
X105259473Y-175556056D01*
X105252130Y-175552071D01*
X105244781Y-175548105D01*
X105237420Y-175544156D01*
X105230052Y-175540226D01*
X105222674Y-175536312D01*
X105215288Y-175532417D01*
X105207891Y-175528540D01*
X105200487Y-175524681D01*
X105193073Y-175520839D01*
X105185652Y-175517016D01*
X105178220Y-175513211D01*
X105170782Y-175509424D01*
X105163333Y-175505654D01*
X105155877Y-175501904D01*
X105148411Y-175498170D01*
X105140938Y-175494456D01*
X105133454Y-175490758D01*
X105125964Y-175487080D01*
X105118464Y-175483419D01*
X105110957Y-175479777D01*
X105103441Y-175476153D01*
X105095917Y-175472547D01*
X105088384Y-175468959D01*
X105080844Y-175465390D01*
X105073294Y-175461838D01*
X105065738Y-175458306D01*
X105058172Y-175454791D01*
X105050600Y-175451295D01*
X105043018Y-175447817D01*
X105035430Y-175444358D01*
X105027832Y-175440916D01*
X105020228Y-175437494D01*
X105012615Y-175434089D01*
X105004995Y-175430703D01*
X104997366Y-175427336D01*
X104989731Y-175423987D01*
X104982086Y-175420656D01*
X104974436Y-175417344D01*
X104966776Y-175414050D01*
X104959111Y-175410776D01*
X104951436Y-175407519D01*
X104943755Y-175404281D01*
X104936065Y-175401062D01*
X104928370Y-175397861D01*
X104920665Y-175394679D01*
X104912955Y-175391516D01*
X104905236Y-175388371D01*
X104897512Y-175385245D01*
X104889778Y-175382137D01*
X104882039Y-175379048D01*
X104874291Y-175375978D01*
X104866538Y-175372927D01*
X104858776Y-175369894D01*
X104851008Y-175366880D01*
X104843232Y-175363885D01*
X104835451Y-175360909D01*
X104827661Y-175357951D01*
X104819866Y-175355012D01*
X104812063Y-175352092D01*
X104804254Y-175349191D01*
X104796437Y-175346308D01*
X104788615Y-175343445D01*
X104780785Y-175340600D01*
X104772949Y-175337775D01*
X104765105Y-175334967D01*
X104757257Y-175332180D01*
X104749400Y-175329410D01*
X104741539Y-175326661D01*
X104733669Y-175323929D01*
X104725795Y-175321217D01*
X104717912Y-175318524D01*
X104710025Y-175315850D01*
X104702130Y-175313194D01*
X104694231Y-175310558D01*
X104686323Y-175307941D01*
X104678411Y-175305343D01*
X104670491Y-175302763D01*
X104662567Y-175300204D01*
X104654635Y-175297662D01*
X104646698Y-175295141D01*
X104638754Y-175292637D01*
X104630806Y-175290154D01*
X104622850Y-175287689D01*
X104614890Y-175285244D01*
X104606922Y-175282817D01*
X104598950Y-175280410D01*
X104590970Y-175278022D01*
X104582987Y-175275653D01*
X104574996Y-175273303D01*
X104567001Y-175270973D01*
X104558999Y-175268661D01*
X104550993Y-175266369D01*
X104542979Y-175264096D01*
X104534962Y-175261843D01*
X104526937Y-175259608D01*
X104518910Y-175257393D01*
X104510874Y-175255196D01*
X104502835Y-175253020D01*
X104494789Y-175250862D01*
X104486739Y-175248724D01*
X104478682Y-175246605D01*
X104470622Y-175244506D01*
X104462554Y-175242425D01*
X104454484Y-175240365D01*
X104446406Y-175238323D01*
X104438325Y-175236301D01*
X104430236Y-175234298D01*
X104422145Y-175232315D01*
X104414047Y-175230350D01*
X104405946Y-175228406D01*
X104397838Y-175226480D01*
X104389727Y-175224574D01*
X104381609Y-175222687D01*
X104373488Y-175220821D01*
X104365360Y-175218972D01*
X104357229Y-175217144D01*
X104349092Y-175215335D01*
X104340952Y-175213546D01*
X104332805Y-175211776D01*
X104324656Y-175210026D01*
X104316499Y-175208294D01*
X104308341Y-175206583D01*
X104300175Y-175204891D01*
X104292008Y-175203218D01*
X104283833Y-175201565D01*
X104275656Y-175199931D01*
X104267473Y-175198317D01*
X104259287Y-175196723D01*
X104251095Y-175195148D01*
X104242901Y-175193592D01*
X104234699Y-175192056D01*
X104226496Y-175190540D01*
X104218287Y-175189043D01*
X104210075Y-175187566D01*
X104201857Y-175186108D01*
X104193637Y-175184670D01*
X104185411Y-175183251D01*
X104177183Y-175181853D01*
X104168948Y-175180473D01*
X104160711Y-175179114D01*
X104152469Y-175177774D01*
X104144224Y-175176453D01*
X104135973Y-175175152D01*
X104127721Y-175173871D01*
X104119462Y-175172610D01*
X104111202Y-175171368D01*
X104102936Y-175170145D01*
X104094668Y-175168943D01*
X104086394Y-175167760D01*
X104078119Y-175166597D01*
X104069837Y-175165453D01*
X104061554Y-175164330D01*
X104053265Y-175163225D01*
X104044975Y-175162141D01*
X104036679Y-175161076D01*
X104028381Y-175160031D01*
X104020078Y-175159006D01*
X104011773Y-175158000D01*
X104003463Y-175157014D01*
X103995151Y-175156048D01*
X103986834Y-175155102D01*
X103978515Y-175154175D01*
X103970191Y-175153268D01*
X103961865Y-175152381D01*
X103953534Y-175151514D01*
X103945202Y-175150666D01*
X103936864Y-175149839D01*
X103928526Y-175149031D01*
X103920182Y-175148242D01*
X103911837Y-175147474D01*
X103903486Y-175146725D01*
X103895134Y-175145997D01*
X103886777Y-175145288D01*
X103878420Y-175144599D01*
X103870056Y-175143929D01*
X103861692Y-175143280D01*
X103853323Y-175142650D01*
X103844953Y-175142040D01*
X103836578Y-175141450D01*
X103828202Y-175140880D01*
X103819820Y-175140330D01*
X103811439Y-175139800D01*
X103803052Y-175139289D01*
X103794664Y-175138799D01*
X103786271Y-175138328D01*
X103777878Y-175137877D01*
X103769479Y-175137446D01*
X103761081Y-175137035D01*
X103752677Y-175136644D01*
X103744272Y-175136272D01*
X103735863Y-175135921D01*
X103727453Y-175135590D01*
X103719039Y-175135278D01*
X103710624Y-175134987D01*
X103702204Y-175134715D01*
X103693784Y-175134463D01*
X103685359Y-175134231D01*
X103676933Y-175134020D01*
X103668503Y-175133828D01*
X103660073Y-175133656D01*
X103651638Y-175133504D01*
X103643203Y-175133372D01*
X103634763Y-175133260D01*
X103626323Y-175133168D01*
X103617878Y-175133096D01*
X103609434Y-175133044D01*
X103600984Y-175133012D01*
X103591696Y-175133000D01*
D10*
X336194400Y-178952554D02*
X336194400Y-175085000D01*
X304300000Y-202952554D02*
G75*
G02*
X302300000Y-204952600I-2000000J-46D01*
G01*
X60000000Y-182000000D02*
G75*
G02*
X62000000Y-180000000I2001750J-1750D01*
G01*
X62000000Y-79000000D02*
X348000000Y-79000000D01*
X66310000Y-180000000D02*
X62000000Y-180000000D01*
D11*
X107087649Y-188377280D02*
X107087684Y-188388044D01*
X107087798Y-188398802D01*
X107087993Y-188409553D01*
X107088267Y-188420298D01*
X107088621Y-188431037D01*
X107089055Y-188441768D01*
X107089569Y-188452492D01*
X107090162Y-188463208D01*
X107090834Y-188473916D01*
X107091587Y-188484616D01*
X107092418Y-188495307D01*
X107093329Y-188505990D01*
X107094320Y-188516663D01*
X107095390Y-188527326D01*
X107096539Y-188537980D01*
X107097768Y-188548623D01*
X107099076Y-188559256D01*
X107100463Y-188569878D01*
X107101929Y-188580488D01*
X107103474Y-188591087D01*
X107105098Y-188601674D01*
X107106801Y-188612248D01*
X107108583Y-188622810D01*
X107110444Y-188633359D01*
X107112383Y-188643894D01*
X107114402Y-188654415D01*
X107116499Y-188664922D01*
X107118674Y-188675414D01*
X107120928Y-188685891D01*
X107123261Y-188696352D01*
X107125671Y-188706798D01*
X107128161Y-188717227D01*
X107130728Y-188727640D01*
X107133373Y-188738036D01*
X107136096Y-188748413D01*
X107138898Y-188758773D01*
X107141777Y-188769115D01*
X107144734Y-188779437D01*
X107147768Y-188789741D01*
X107150880Y-188800024D01*
X107154069Y-188810287D01*
X107157336Y-188820530D01*
X107160679Y-188830751D01*
X107164100Y-188840951D01*
X107167598Y-188851128D01*
X107171172Y-188861283D01*
X107174823Y-188871415D01*
X107178551Y-188881524D01*
X107182355Y-188891608D01*
X107186235Y-188901668D01*
X107190191Y-188911703D01*
X107194223Y-188921712D01*
X107198331Y-188931695D01*
X107202514Y-188941652D01*
X107206772Y-188951581D01*
X107211106Y-188961483D01*
X107215515Y-188971357D01*
X107219998Y-188981203D01*
X107224556Y-188991019D01*
X107229189Y-189000806D01*
X107233896Y-189010562D01*
X107238676Y-189020288D01*
X107243531Y-189029982D01*
X107248458Y-189039645D01*
X107253460Y-189049275D01*
X107258534Y-189058873D01*
X107263681Y-189068437D01*
X107268900Y-189077967D01*
X107274192Y-189087462D01*
X107279556Y-189096923D01*
X107284991Y-189106348D01*
X107290498Y-189115737D01*
X107296076Y-189125089D01*
X107301725Y-189134403D01*
X107307445Y-189143680D01*
X107313235Y-189152919D01*
X107319095Y-189162119D01*
X107325024Y-189171279D01*
X107331023Y-189180399D01*
X107337091Y-189189478D01*
X107343228Y-189198517D01*
X107349433Y-189207513D01*
X107355705Y-189216467D01*
X107362046Y-189225379D01*
X107368454Y-189234247D01*
X107374928Y-189243071D01*
X107381470Y-189251850D01*
X107388077Y-189260585D01*
X107394750Y-189269274D01*
X107401489Y-189277916D01*
X107408292Y-189286512D01*
X107415161Y-189295061D01*
X107422093Y-189303562D01*
X107429089Y-189312014D01*
X107436149Y-189320418D01*
X107443271Y-189328772D01*
X107450456Y-189337076D01*
X107457703Y-189345329D01*
X107465011Y-189353532D01*
X107472381Y-189361683D01*
X107479812Y-189369781D01*
X107487302Y-189377828D01*
X107494853Y-189385820D01*
X107502463Y-189393760D01*
X107510131Y-189401645D01*
X107517859Y-189409475D01*
X107521744Y-189413370D01*
X107525644Y-189417250D01*
X107529558Y-189421117D01*
X107533486Y-189424970D01*
X107537429Y-189428809D01*
X107541386Y-189432633D01*
X107545357Y-189436444D01*
X107549342Y-189440240D01*
X107553341Y-189444022D01*
X107557354Y-189447789D01*
X107561380Y-189451542D01*
X107565421Y-189455281D01*
X107569475Y-189459005D01*
X107573543Y-189462714D01*
X107577625Y-189466409D01*
X107581720Y-189470089D01*
X107585828Y-189473755D01*
X107589951Y-189477405D01*
X107594086Y-189481041D01*
X107598235Y-189484661D01*
X107602397Y-189488267D01*
X107606572Y-189491858D01*
X107610760Y-189495433D01*
X107614961Y-189498993D01*
X107619175Y-189502538D01*
X107623403Y-189506068D01*
X107627642Y-189509583D01*
X107631895Y-189513082D01*
X107636161Y-189516565D01*
X107640439Y-189520033D01*
X107644729Y-189523486D01*
X107649033Y-189526923D01*
X107653348Y-189530344D01*
X107657676Y-189533750D01*
X107662016Y-189537139D01*
X107666369Y-189540513D01*
X107670733Y-189543871D01*
X107675111Y-189547214D01*
X107679499Y-189550539D01*
X107683900Y-189553850D01*
X107688313Y-189557144D01*
X107692738Y-189560422D01*
X107697173Y-189563683D01*
X107701622Y-189566929D01*
X107706081Y-189570158D01*
X107710553Y-189573371D01*
X107715035Y-189576567D01*
X107719530Y-189579748D01*
X107724035Y-189582911D01*
X107728552Y-189586059D01*
X107733080Y-189589189D01*
X107737619Y-189592303D01*
X107742169Y-189595400D01*
X107746731Y-189598481D01*
X107751303Y-189601545D01*
X107755887Y-189604592D01*
X107760480Y-189607622D01*
X107765085Y-189610636D01*
X107769700Y-189613632D01*
X107774327Y-189616612D01*
X107778963Y-189619574D01*
X107783611Y-189622520D01*
X107788268Y-189625448D01*
X107792936Y-189628359D01*
X107797614Y-189631253D01*
X107802303Y-189634130D01*
X107807000Y-189636989D01*
X107811710Y-189639832D01*
X107816428Y-189642656D01*
X107821157Y-189645464D01*
X107825894Y-189648254D01*
X107830643Y-189651027D01*
X107835401Y-189653782D01*
X107840169Y-189656520D01*
X107844945Y-189659240D01*
X107849733Y-189661943D01*
X107854528Y-189664627D01*
X107859335Y-189667295D01*
X107864149Y-189669944D01*
X107868974Y-189672576D01*
X107873806Y-189675190D01*
X107878650Y-189677786D01*
X107883500Y-189680364D01*
X107888362Y-189682925D01*
X107893230Y-189685467D01*
X107898110Y-189687992D01*
X107902996Y-189690498D01*
X107907893Y-189692987D01*
X107912796Y-189695458D01*
X107917710Y-189697910D01*
X107922631Y-189700344D01*
X107927562Y-189702761D01*
X107932500Y-189705159D01*
X107937448Y-189707539D01*
X107942402Y-189709900D01*
X107947367Y-189712244D01*
X107952337Y-189714569D01*
X107957318Y-189716876D01*
X107962304Y-189719164D01*
X107967301Y-189721434D01*
X107972304Y-189723685D01*
X107977316Y-189725919D01*
X107982334Y-189728133D01*
X107987362Y-189730330D01*
X107992395Y-189732508D01*
X107997438Y-189734667D01*
X108002487Y-189736808D01*
X108007545Y-189738930D01*
X108012608Y-189741033D01*
X108017681Y-189743118D01*
X108022758Y-189745184D01*
X108027846Y-189747232D01*
X108032938Y-189749261D01*
X108038039Y-189751271D01*
X108043145Y-189753262D01*
X108048261Y-189755235D01*
X108053381Y-189757188D01*
X108058510Y-189759124D01*
X108063643Y-189761039D01*
X108068786Y-189762937D01*
X108073933Y-189764815D01*
X108079089Y-189766675D01*
X108084249Y-189768515D01*
X108089418Y-189770337D01*
X108094591Y-189772139D01*
X108099772Y-189773923D01*
X108104958Y-189775688D01*
X108110152Y-189777434D01*
X108115350Y-189779160D01*
X108120557Y-189780868D01*
X108125767Y-189782556D01*
X108130985Y-189784226D01*
X108136207Y-189785875D01*
X108141438Y-189787507D01*
X108146672Y-189789118D01*
X108151914Y-189790712D01*
X108157159Y-189792285D01*
X108162412Y-189793840D01*
X108167669Y-189795374D01*
X108172934Y-189796891D01*
X108178201Y-189798387D01*
X108183477Y-189799865D01*
X108188755Y-189801323D01*
X108194042Y-189802762D01*
X108199331Y-189804181D01*
X108204628Y-189805582D01*
X108209927Y-189806962D01*
X108215234Y-189808324D01*
X108220544Y-189809666D01*
X108225861Y-189810989D01*
X108231181Y-189812292D01*
X108236508Y-189813577D01*
X108241837Y-189814841D01*
X108247174Y-189816086D01*
X108252513Y-189817312D01*
X108257859Y-189818518D01*
X108263208Y-189819705D01*
X108268563Y-189820872D01*
X108273921Y-189822020D01*
X108279286Y-189823149D01*
X108284652Y-189824257D01*
X108290026Y-189825347D01*
X108295401Y-189826416D01*
X108300783Y-189827466D01*
X108306167Y-189828497D01*
X108311558Y-189829508D01*
X108316950Y-189830499D01*
X108322349Y-189831471D01*
X108327750Y-189832423D01*
X108333157Y-189833356D01*
X108338565Y-189834269D01*
X108343980Y-189835162D01*
X108349397Y-189836036D01*
X108354819Y-189836890D01*
X108360243Y-189837724D01*
X108365674Y-189838539D01*
X108371105Y-189839334D01*
X108376543Y-189840109D01*
X108381982Y-189840865D01*
X108387427Y-189841601D01*
X108392872Y-189842317D01*
X108398324Y-189843013D01*
X108403777Y-189843690D01*
X108409236Y-189844347D01*
X108414695Y-189844984D01*
X108420161Y-189845601D01*
X108425627Y-189846199D01*
X108431099Y-189846777D01*
X108436572Y-189847335D01*
X108442050Y-189847873D01*
X108447529Y-189848391D01*
X108453014Y-189848890D01*
X108458499Y-189849369D01*
X108463989Y-189849828D01*
X108469480Y-189850267D01*
X108474977Y-189850686D01*
X108480473Y-189851085D01*
X108485976Y-189851465D01*
X108491478Y-189851824D01*
X108496986Y-189852164D01*
X108502494Y-189852484D01*
X108508007Y-189852784D01*
X108513520Y-189853064D01*
X108519038Y-189853324D01*
X108524557Y-189853564D01*
X108530080Y-189853785D01*
X108535604Y-189853985D01*
X108541132Y-189854165D01*
X108546660Y-189854326D01*
X108552194Y-189854466D01*
X108557727Y-189854587D01*
X108563265Y-189854687D01*
X108568802Y-189854768D01*
X108574345Y-189854828D01*
X108579887Y-189854869D01*
X108585434Y-189854889D01*
X108587655Y-189854892D01*
D10*
X290271200Y-91430000D02*
X290271200Y-87000000D01*
X59940000Y-173632971D02*
X59940000Y-97780000D01*
X157988000Y-189854892D02*
X167543843Y-189854892D01*
D11*
X205786860Y-92480008D02*
X205786905Y-92470750D01*
X205787031Y-92461501D01*
X205787236Y-92452261D01*
X205787520Y-92443032D01*
X205787884Y-92433813D01*
X205788328Y-92424606D01*
X205788851Y-92415409D01*
X205789454Y-92406223D01*
X205790136Y-92397050D01*
X205790897Y-92387889D01*
X205791737Y-92378740D01*
X205792656Y-92369604D01*
X205793654Y-92360482D01*
X205794731Y-92351374D01*
X205795887Y-92342279D01*
X205797121Y-92333200D01*
X205798434Y-92324135D01*
X205799826Y-92315086D01*
X205801296Y-92306052D01*
X205802844Y-92297035D01*
X205804471Y-92288035D01*
X205806175Y-92279051D01*
X205807958Y-92270085D01*
X205809818Y-92261138D01*
X205811756Y-92252209D01*
X205813772Y-92243298D01*
X205815865Y-92234407D01*
X205818036Y-92225537D01*
X205820284Y-92216686D01*
X205822609Y-92207857D01*
X205825012Y-92199048D01*
X205827491Y-92190262D01*
X205830046Y-92181498D01*
X205832679Y-92172757D01*
X205835388Y-92164039D01*
X205838173Y-92155346D01*
X205841034Y-92146677D01*
X205843971Y-92138032D01*
X205846983Y-92129414D01*
X205850072Y-92120821D01*
X205853235Y-92112255D01*
X205856474Y-92103716D01*
X205859788Y-92095205D01*
X205863176Y-92086723D01*
X205866639Y-92078269D01*
X205870177Y-92069844D01*
X205873788Y-92061450D01*
X205877474Y-92053086D01*
X205881233Y-92044753D01*
X205885065Y-92036453D01*
X205888970Y-92028184D01*
X205892949Y-92019949D01*
X205897000Y-92011747D01*
X205901123Y-92003579D01*
X205905318Y-91995446D01*
X205909585Y-91987348D01*
X205913923Y-91979286D01*
X205918333Y-91971261D01*
X205922813Y-91963273D01*
X205927363Y-91955323D01*
X205931984Y-91947411D01*
X205936675Y-91939538D01*
X205941435Y-91931705D01*
X205946264Y-91923912D01*
X205951162Y-91916160D01*
X205956128Y-91908450D01*
X205961162Y-91900781D01*
X205966264Y-91893156D01*
X205971433Y-91885574D01*
X205976669Y-91878036D01*
X205981971Y-91870542D01*
X205987339Y-91863094D01*
X205992772Y-91855692D01*
X205998271Y-91848336D01*
X206003834Y-91841027D01*
X206009462Y-91833766D01*
X206015153Y-91826553D01*
X206020908Y-91819389D01*
X206026725Y-91812275D01*
X206032605Y-91805211D01*
X206038546Y-91798197D01*
X206044549Y-91791235D01*
X206050612Y-91784325D01*
X206056736Y-91777468D01*
X206062920Y-91770663D01*
X206069163Y-91763913D01*
X206075465Y-91757216D01*
X206081825Y-91750575D01*
X206088242Y-91743988D01*
X206094717Y-91737458D01*
X206097976Y-91734214D01*
X206101248Y-91730985D01*
X206104535Y-91727769D01*
X206107836Y-91724568D01*
X206111150Y-91721382D01*
X206114478Y-91718209D01*
X206117820Y-91715052D01*
X206121176Y-91711909D01*
X206124545Y-91708780D01*
X206127928Y-91705667D01*
X206131324Y-91702568D01*
X206134734Y-91699484D01*
X206138157Y-91696415D01*
X206141593Y-91693361D01*
X206145042Y-91690323D01*
X206148504Y-91687299D01*
X206151980Y-91684291D01*
X206155468Y-91681297D01*
X206158969Y-91678320D01*
X206162483Y-91675357D01*
X206166009Y-91672410D01*
X206169549Y-91669478D01*
X206173100Y-91666563D01*
X206176664Y-91663662D01*
X206180241Y-91660778D01*
X206183830Y-91657909D01*
X206187431Y-91655056D01*
X206191044Y-91652219D01*
X206194670Y-91649398D01*
X206198307Y-91646592D01*
X206201956Y-91643804D01*
X206205618Y-91641030D01*
X206209291Y-91638274D01*
X206212976Y-91635533D01*
X206216672Y-91632809D01*
X206220380Y-91630101D01*
X206224099Y-91627409D01*
X206227830Y-91624734D01*
X206231572Y-91622075D01*
X206235326Y-91619433D01*
X206239090Y-91616808D01*
X206242866Y-91614199D01*
X206246653Y-91611607D01*
X206250451Y-91609031D01*
X206254259Y-91606473D01*
X206258078Y-91603931D01*
X206261908Y-91601406D01*
X206265749Y-91598898D01*
X206269600Y-91596408D01*
X206273462Y-91593934D01*
X206277333Y-91591477D01*
X206281216Y-91589037D01*
X206285108Y-91586615D01*
X206289012Y-91584210D01*
X206292924Y-91581823D01*
X206296847Y-91579452D01*
X206300780Y-91577099D01*
X206304723Y-91574763D01*
X206308675Y-91572445D01*
X206312637Y-91570144D01*
X206316609Y-91567861D01*
X206320590Y-91565595D01*
X206324581Y-91563348D01*
X206328581Y-91561117D01*
X206332590Y-91558905D01*
X206336610Y-91556710D01*
X206340637Y-91554534D01*
X206344674Y-91552374D01*
X206348720Y-91550233D01*
X206352775Y-91548110D01*
X206356838Y-91546005D01*
X206360911Y-91543917D01*
X206364992Y-91541848D01*
X206369083Y-91539796D01*
X206373180Y-91537764D01*
X206377288Y-91535748D01*
X206381402Y-91533752D01*
X206385527Y-91531773D01*
X206389658Y-91529813D01*
X206393799Y-91527870D01*
X206397946Y-91525947D01*
X206402103Y-91524041D01*
X206406266Y-91522154D01*
X206410439Y-91520285D01*
X206414618Y-91518435D01*
X206418807Y-91516603D01*
X206423001Y-91514790D01*
X206427205Y-91512995D01*
X206431414Y-91511219D01*
X206435633Y-91509461D01*
X206439857Y-91507722D01*
X206444091Y-91506002D01*
X206448329Y-91504300D01*
X206452577Y-91502617D01*
X206456830Y-91500953D01*
X206461092Y-91499307D01*
X206465359Y-91497681D01*
X206469635Y-91496072D01*
X206473916Y-91494483D01*
X206478205Y-91492913D01*
X206482499Y-91491362D01*
X206486802Y-91489829D01*
X206491109Y-91488316D01*
X206495424Y-91486821D01*
X206499744Y-91485345D01*
X206504073Y-91483888D01*
X206508405Y-91482451D01*
X206512746Y-91481032D01*
X206517091Y-91479633D01*
X206521444Y-91478252D01*
X206525801Y-91476891D01*
X206530166Y-91475548D01*
X206534535Y-91474225D01*
X206538912Y-91472921D01*
X206543292Y-91471636D01*
X206547680Y-91470370D01*
X206552072Y-91469124D01*
X206556471Y-91467897D01*
X206560873Y-91466689D01*
X206565284Y-91465500D01*
X206569697Y-91464331D01*
X206574118Y-91463181D01*
X206578542Y-91462051D01*
X206582973Y-91460939D01*
X206587407Y-91459847D01*
X206591849Y-91458774D01*
X206596293Y-91457721D01*
X206600744Y-91456687D01*
X206605198Y-91455673D01*
X206609659Y-91454678D01*
X206614123Y-91453703D01*
X206618593Y-91452746D01*
X206623066Y-91451810D01*
X206627546Y-91450893D01*
X206632027Y-91449996D01*
X206636516Y-91449117D01*
X206641007Y-91448259D01*
X206645504Y-91447420D01*
X206650004Y-91446601D01*
X206654510Y-91445801D01*
X206659018Y-91445021D01*
X206663532Y-91444260D01*
X206668048Y-91443519D01*
X206672571Y-91442798D01*
X206677095Y-91442096D01*
X206681625Y-91441414D01*
X206686157Y-91440752D01*
X206690695Y-91440109D01*
X206695234Y-91439486D01*
X206699779Y-91438883D01*
X206704326Y-91438300D01*
X206708879Y-91437736D01*
X206713433Y-91437192D01*
X206717992Y-91436667D01*
X206722553Y-91436163D01*
X206727120Y-91435678D01*
X206731687Y-91435213D01*
X206736261Y-91434767D01*
X206740835Y-91434342D01*
X206745415Y-91433936D01*
X206749995Y-91433551D01*
X206754581Y-91433185D01*
X206759168Y-91432838D01*
X206763760Y-91432512D01*
X206768352Y-91432206D01*
X206772950Y-91431919D01*
X206777549Y-91431653D01*
X206782152Y-91431406D01*
X206786756Y-91431179D01*
X206791366Y-91430972D01*
X206795975Y-91430785D01*
X206800590Y-91430618D01*
X206805205Y-91430471D01*
X206809824Y-91430344D01*
X206814444Y-91430236D01*
X206819069Y-91430149D01*
X206823694Y-91430082D01*
X206828323Y-91430035D01*
X206836338Y-91430000D01*
D10*
X60000000Y-182000000D02*
X60000000Y-208000000D01*
X348400000Y-208000000D02*
G75*
G02*
X346400000Y-210000000I-2000000J0D01*
G01*
X256422400Y-204952554D02*
G75*
G02*
X255422346Y-203952554I0J1000054D01*
G01*
D11*
X202469478Y-142935448D02*
X202468428Y-143018812D01*
X202467298Y-143102166D01*
X202466088Y-143185508D01*
X202464799Y-143268840D01*
X202463429Y-143352160D01*
X202461980Y-143435469D01*
X202460451Y-143518767D01*
X202458843Y-143602053D01*
X202457155Y-143685327D01*
X202455387Y-143768590D01*
X202453539Y-143851840D01*
X202451611Y-143935078D01*
X202449604Y-144018304D01*
X202447518Y-144101518D01*
X202445351Y-144184719D01*
X202443105Y-144267907D01*
X202440780Y-144351083D01*
X202438374Y-144434246D01*
X202435890Y-144517395D01*
X202433325Y-144600531D01*
X202430681Y-144683654D01*
X202427958Y-144766763D01*
X202425155Y-144849859D01*
X202422272Y-144932940D01*
X202419310Y-145016008D01*
X202416269Y-145099061D01*
X202413148Y-145182101D01*
X202409947Y-145265125D01*
X202406667Y-145348136D01*
X202403308Y-145431131D01*
X202399869Y-145514111D01*
X202396351Y-145597077D01*
X202392754Y-145680027D01*
X202389077Y-145762962D01*
X202385321Y-145845881D01*
X202381486Y-145928785D01*
X202377571Y-146011672D01*
X202373577Y-146094544D01*
X202369504Y-146177400D01*
X202365351Y-146260239D01*
X202361120Y-146343062D01*
X202356809Y-146425868D01*
X202352419Y-146508657D01*
X202347950Y-146591429D01*
X202343401Y-146674184D01*
X202338774Y-146756922D01*
X202334068Y-146839642D01*
X202329282Y-146922344D01*
X202324418Y-147005029D01*
X202319474Y-147087695D01*
X202314451Y-147170344D01*
X202309350Y-147252974D01*
X202304170Y-147335585D01*
X202298910Y-147418178D01*
X202293572Y-147500752D01*
X202288155Y-147583307D01*
X202282659Y-147665842D01*
X202277084Y-147748358D01*
X202271431Y-147830855D01*
X202265698Y-147913332D01*
X202259887Y-147995788D01*
X202253997Y-148078225D01*
X202248029Y-148160641D01*
X202241982Y-148243037D01*
X202235856Y-148325412D01*
X202229652Y-148407766D01*
X202223369Y-148490098D01*
X202217008Y-148572410D01*
X202210568Y-148654700D01*
X202204049Y-148736968D01*
X202197452Y-148819215D01*
X202190777Y-148901439D01*
X202184023Y-148983641D01*
X202177191Y-149065821D01*
X202170281Y-149147978D01*
X202163293Y-149230112D01*
X202156226Y-149312223D01*
X202149081Y-149394311D01*
X202141857Y-149476375D01*
X202134556Y-149558415D01*
X202127176Y-149640432D01*
X202119719Y-149722425D01*
X202112183Y-149804393D01*
X202104569Y-149886336D01*
X202096878Y-149968255D01*
X202089108Y-150050149D01*
X202081261Y-150132018D01*
X202073335Y-150213861D01*
X202065332Y-150295679D01*
X202057251Y-150377471D01*
X202049092Y-150459237D01*
X202040856Y-150540977D01*
X202032542Y-150622690D01*
X202024150Y-150704376D01*
X202015681Y-150786036D01*
X202007134Y-150867668D01*
X201998510Y-150949273D01*
X201989808Y-151030851D01*
X201981029Y-151112400D01*
X201972172Y-151193921D01*
X201963239Y-151275415D01*
X201954227Y-151356879D01*
X201945139Y-151438315D01*
X201935974Y-151519722D01*
X201926731Y-151601099D01*
X201917411Y-151682447D01*
X201908014Y-151763765D01*
X201898541Y-151845054D01*
X201888990Y-151926312D01*
X201879362Y-152007539D01*
X201869658Y-152088736D01*
X201859876Y-152169902D01*
X201850018Y-152251037D01*
X201840084Y-152332140D01*
X201830072Y-152413211D01*
X201819984Y-152494251D01*
X201809820Y-152575258D01*
X201799579Y-152656233D01*
X201789262Y-152737174D01*
X201778868Y-152818083D01*
X201768398Y-152898959D01*
X201757852Y-152979801D01*
X201747229Y-153060609D01*
X201736531Y-153141384D01*
X201725756Y-153222124D01*
X201714905Y-153302829D01*
X201703979Y-153383499D01*
X201692976Y-153464134D01*
X201681898Y-153544734D01*
X201670744Y-153625298D01*
X201659514Y-153705826D01*
X201648209Y-153786318D01*
X201636828Y-153866773D01*
X201625371Y-153947192D01*
X201613839Y-154027573D01*
X201602232Y-154107917D01*
X201590549Y-154188223D01*
X201578792Y-154268491D01*
X201566959Y-154348721D01*
X201555051Y-154428912D01*
X201543067Y-154509064D01*
X201531009Y-154589178D01*
X201518876Y-154669251D01*
X201506669Y-154749285D01*
X201494386Y-154829279D01*
X201482029Y-154909233D01*
X201469597Y-154989145D01*
X201457091Y-155069017D01*
X201444510Y-155148848D01*
X201431855Y-155228636D01*
X201419126Y-155308383D01*
X201406323Y-155388088D01*
X201393445Y-155467750D01*
X201380494Y-155547369D01*
X201367468Y-155626945D01*
X201354369Y-155706478D01*
X201341196Y-155785966D01*
X201327949Y-155865411D01*
X201314628Y-155944811D01*
X201301234Y-156024166D01*
X201287767Y-156103475D01*
X201274226Y-156182740D01*
X201260613Y-156261958D01*
X201246925Y-156341130D01*
X201233165Y-156420256D01*
X201219332Y-156499335D01*
X201205426Y-156578366D01*
X201191448Y-156657350D01*
X201177396Y-156736286D01*
X201163272Y-156815174D01*
X201149076Y-156894013D01*
X201134807Y-156972803D01*
X201120466Y-157051544D01*
X201106053Y-157130235D01*
X201091567Y-157208876D01*
X201077010Y-157287467D01*
X201062381Y-157366007D01*
X201047680Y-157444495D01*
X201032907Y-157522932D01*
X201018063Y-157601317D01*
X201003148Y-157679650D01*
X200988161Y-157757930D01*
X200973103Y-157836157D01*
X200957974Y-157914331D01*
X200942774Y-157992451D01*
X200927503Y-158070516D01*
X200912161Y-158148527D01*
X200896748Y-158226483D01*
X200881266Y-158304384D01*
X200865712Y-158382229D01*
X200850089Y-158460017D01*
X200834395Y-158537749D01*
X200818632Y-158615424D01*
X200802798Y-158693042D01*
X200786895Y-158770602D01*
X200770922Y-158848103D01*
X200754879Y-158925546D01*
X200738767Y-159002930D01*
X200722586Y-159080255D01*
X200706336Y-159157519D01*
X200690017Y-159234723D01*
X200673629Y-159311867D01*
X200657172Y-159388949D01*
X200640647Y-159465970D01*
X200624053Y-159542929D01*
X200607391Y-159619825D01*
X200590661Y-159696658D01*
X200573863Y-159773428D01*
X200556997Y-159850134D01*
X200540064Y-159926776D01*
X200523063Y-160003353D01*
X200505994Y-160079865D01*
X200488858Y-160156312D01*
X200471656Y-160232692D01*
X200454386Y-160309006D01*
X200437049Y-160385253D01*
X200419646Y-160461432D01*
X200402177Y-160537544D01*
X200384641Y-160613587D01*
X200367039Y-160689561D01*
X200349371Y-160765466D01*
X200331637Y-160841301D01*
X200313838Y-160917066D01*
X200295973Y-160992760D01*
X200278043Y-161068382D01*
X200260048Y-161143933D01*
X200241988Y-161219412D01*
X200223863Y-161294818D01*
X200205673Y-161370151D01*
X200187420Y-161445410D01*
X200169102Y-161520594D01*
X200150720Y-161595704D01*
X200132274Y-161670738D01*
X200113764Y-161745697D01*
X200095191Y-161820580D01*
X200076555Y-161895385D01*
X200057856Y-161970113D01*
X200039094Y-162044764D01*
X200020269Y-162119336D01*
X200001381Y-162193829D01*
X199982432Y-162268242D01*
X199963420Y-162342575D01*
X199944347Y-162416828D01*
X199925211Y-162491000D01*
X199906015Y-162565090D01*
X199886757Y-162639098D01*
X199867438Y-162713023D01*
X199848058Y-162786864D01*
X199828618Y-162860622D01*
X199809117Y-162934296D01*
X199789557Y-163007884D01*
X199769936Y-163081387D01*
X199750256Y-163154803D01*
X199730516Y-163228133D01*
X199710717Y-163301376D01*
X199690859Y-163374530D01*
X199670942Y-163447596D01*
X199650966Y-163520573D01*
X199630933Y-163593461D01*
X199610841Y-163666258D01*
X199590691Y-163738964D01*
X199570484Y-163811579D01*
X199550220Y-163884101D01*
X199529899Y-163956531D01*
X199509520Y-164028868D01*
X199489086Y-164101110D01*
X199468594Y-164173258D01*
X199448047Y-164245311D01*
X199427445Y-164317268D01*
X199406786Y-164389129D01*
X199386073Y-164460893D01*
X199365304Y-164532559D01*
X199344481Y-164604126D01*
X199323603Y-164675595D01*
X199302672Y-164746964D01*
X199281686Y-164818233D01*
X199260647Y-164889400D01*
X199239555Y-164960467D01*
X199218409Y-165031431D01*
X199197211Y-165102291D01*
X199175961Y-165173049D01*
X199154658Y-165243702D01*
X199133304Y-165314250D01*
X199111898Y-165384693D01*
X199090441Y-165455029D01*
X199068933Y-165525258D01*
X199047374Y-165595380D01*
X199025765Y-165665393D01*
X199004107Y-165735297D01*
X198982398Y-165805091D01*
X198960641Y-165874775D01*
X198938834Y-165944348D01*
X198916979Y-166013809D01*
X198895075Y-166083157D01*
X198873124Y-166152392D01*
X198851124Y-166221513D01*
X198829078Y-166290519D01*
X198806984Y-166359409D01*
X198784844Y-166428184D01*
X198762658Y-166496841D01*
X198740426Y-166565381D01*
X198718148Y-166633802D01*
X198695825Y-166702104D01*
X198673457Y-166770286D01*
X198651044Y-166838347D01*
X198628588Y-166906287D01*
X198606088Y-166974105D01*
X198583544Y-167041799D01*
X198560958Y-167109370D01*
X198538328Y-167176816D01*
X198515657Y-167244138D01*
X198492944Y-167311332D01*
X198470189Y-167378401D01*
X198447394Y-167445341D01*
X198424557Y-167512153D01*
X198401681Y-167578836D01*
X198378764Y-167645389D01*
X198355808Y-167711811D01*
X198332814Y-167778101D01*
X198309780Y-167844259D01*
X198286708Y-167910283D01*
X198263599Y-167976174D01*
X198240452Y-168041930D01*
X198217268Y-168107550D01*
X198194048Y-168173033D01*
X198170792Y-168238379D01*
X198147500Y-168303587D01*
X198124173Y-168368656D01*
X198100811Y-168433585D01*
X198077415Y-168498374D01*
X198053985Y-168563020D01*
X198030522Y-168627525D01*
X198007026Y-168691886D01*
X197983497Y-168756104D01*
X197959937Y-168820176D01*
X197936345Y-168884102D01*
X197924535Y-168916016D01*
X197912722Y-168947882D01*
X197900897Y-168979722D01*
X197889068Y-169011515D01*
X197877228Y-169043280D01*
X197865385Y-169074999D01*
X197853530Y-169106690D01*
X197841671Y-169138334D01*
X197829802Y-169169949D01*
X197817929Y-169201518D01*
X197806045Y-169233059D01*
X197794158Y-169264552D01*
X197782260Y-169296016D01*
X197770359Y-169327434D01*
X197758448Y-169358822D01*
X197746533Y-169390163D01*
X197734607Y-169421474D01*
X197722679Y-169452738D01*
X197710740Y-169483972D01*
X197698799Y-169515159D01*
X197686847Y-169546316D01*
X197674892Y-169577424D01*
X197662928Y-169608503D01*
X197650960Y-169639534D01*
X197638983Y-169670534D01*
X197627004Y-169701486D01*
X197615014Y-169732407D01*
X197603022Y-169763279D01*
X197591021Y-169794121D01*
X197579017Y-169824914D01*
X197567004Y-169855676D01*
X197554988Y-169886389D01*
X197542963Y-169917071D01*
X197530936Y-169947703D01*
X197518900Y-169978304D01*
X197506862Y-170008856D01*
X197494815Y-170039375D01*
X197482766Y-170069846D01*
X197470709Y-170100283D01*
X197458649Y-170130672D01*
X197446581Y-170161028D01*
X197434511Y-170191334D01*
X197422433Y-170221607D01*
X197410353Y-170251831D01*
X197398265Y-170282020D01*
X197386176Y-170312161D01*
X197374078Y-170342267D01*
X197361979Y-170372324D01*
X197349872Y-170402346D01*
X197337764Y-170432319D01*
X197325648Y-170462257D01*
X197313531Y-170492145D01*
X197301406Y-170521998D01*
X197289280Y-170551801D01*
X197277147Y-170581568D01*
X197265013Y-170611286D01*
X197252872Y-170640968D01*
X197240730Y-170670599D01*
X197228581Y-170700194D01*
X197216431Y-170729740D01*
X197204274Y-170759248D01*
X197192117Y-170788707D01*
X197179953Y-170818128D01*
X197167789Y-170847499D01*
X197155618Y-170876833D01*
X197143447Y-170906116D01*
X197131269Y-170935361D01*
X197119091Y-170964556D01*
X197106908Y-170993713D01*
X197094723Y-171022819D01*
X197082534Y-171051887D01*
X197070344Y-171080904D01*
X197058148Y-171109882D01*
X197045952Y-171138809D01*
X197033751Y-171167697D01*
X197021550Y-171196534D01*
X197009344Y-171225331D01*
X196997138Y-171254078D01*
X196984927Y-171282784D01*
X196972717Y-171311440D01*
X196960501Y-171340055D01*
X196948286Y-171368618D01*
X196936067Y-171397141D01*
X196923847Y-171425613D01*
X196911624Y-171454044D01*
X196899401Y-171482423D01*
X196887174Y-171510761D01*
X196874948Y-171539047D01*
X196862718Y-171567292D01*
X196850488Y-171595484D01*
X196838255Y-171623635D01*
X196826023Y-171651734D01*
X196813787Y-171679790D01*
X196801552Y-171707795D01*
X196789315Y-171735756D01*
X196777078Y-171763666D01*
X196764838Y-171791532D01*
X196752599Y-171819347D01*
X196740358Y-171847117D01*
X196728118Y-171874836D01*
X196715875Y-171902510D01*
X196703634Y-171930132D01*
X196691390Y-171957710D01*
X196679148Y-171985236D01*
X196666904Y-172012716D01*
X196654662Y-172040145D01*
X196642417Y-172067528D01*
X196630175Y-172094858D01*
X196617931Y-172122143D01*
X196605688Y-172149376D01*
X196593444Y-172176562D01*
X196581202Y-172203696D01*
X196568959Y-172230784D01*
X196556718Y-172257819D01*
X196544477Y-172284807D01*
X196532237Y-172311742D01*
X196519996Y-172338630D01*
X196507758Y-172365465D01*
X196495520Y-172392253D01*
X196483283Y-172418988D01*
X196471047Y-172445674D01*
X196458813Y-172472308D01*
X196446579Y-172498894D01*
X196434348Y-172525426D01*
X196422117Y-172551910D01*
X196409889Y-172578341D01*
X196397661Y-172604722D01*
X196385436Y-172631050D01*
X196373212Y-172657329D01*
X196360991Y-172683555D01*
X196348770Y-172709730D01*
X196336553Y-172735852D01*
X196324337Y-172761924D01*
X196312124Y-172787943D01*
X196299913Y-172813911D01*
X196287705Y-172839825D01*
X196275499Y-172865688D01*
X196263296Y-172891498D01*
X196251096Y-172917256D01*
X196238898Y-172942961D01*
X196226703Y-172968614D01*
X196214512Y-172994213D01*
X196202323Y-173019760D01*
X196190138Y-173045254D01*
X196177955Y-173070694D01*
X196165777Y-173096081D01*
X196153601Y-173121415D01*
X196141429Y-173146695D01*
X196129261Y-173171921D01*
X196117097Y-173197094D01*
X196104936Y-173222213D01*
X196092780Y-173247278D01*
X196080627Y-173272288D01*
X196068479Y-173297245D01*
X196056334Y-173322147D01*
X196044194Y-173346996D01*
X196032059Y-173371789D01*
X196019928Y-173396528D01*
X196007801Y-173421211D01*
X195995679Y-173445841D01*
X195983562Y-173470415D01*
X195971450Y-173494935D01*
X195959343Y-173519398D01*
X195947240Y-173543807D01*
X195935144Y-173568160D01*
X195923052Y-173592459D01*
X195910965Y-173616700D01*
X195898884Y-173640888D01*
X195886809Y-173665018D01*
X195874739Y-173689094D01*
X195862675Y-173713112D01*
X195850616Y-173737075D01*
X195838564Y-173760981D01*
X195826517Y-173784832D01*
X195814478Y-173808625D01*
X195802443Y-173832363D01*
X195790416Y-173856043D01*
X195778394Y-173879668D01*
X195766380Y-173903234D01*
X195754371Y-173926746D01*
X195742370Y-173950197D01*
X195730374Y-173973595D01*
X195718387Y-173996932D01*
X195706406Y-174020215D01*
X195694432Y-174043438D01*
X195682465Y-174066606D01*
X195670506Y-174089713D01*
X195658554Y-174112766D01*
X195646610Y-174135758D01*
X195634672Y-174158695D01*
X195622744Y-174181571D01*
X195610821Y-174204392D01*
X195598908Y-174227151D01*
X195587001Y-174249856D01*
X195575105Y-174272499D01*
X195563214Y-174295086D01*
X195551334Y-174317612D01*
X195539460Y-174340083D01*
X195527596Y-174362491D01*
X195515739Y-174384844D01*
X195503893Y-174407134D01*
X195492053Y-174429369D01*
X195480225Y-174451541D01*
X195468403Y-174473658D01*
X195456592Y-174495712D01*
X195444788Y-174517710D01*
X195432996Y-174539645D01*
X195421211Y-174561524D01*
X195413676Y-174575490D01*
D10*
X205786860Y-142935448D02*
X205786860Y-92480008D01*
X181457600Y-91430000D02*
X201420000Y-91430000D01*
X108587655Y-189854892D02*
X153060400Y-189854892D01*
X348359330Y-97780000D02*
X348359330Y-173535887D01*
X176530000Y-91430000D02*
X122885200Y-91430000D01*
X301312351Y-188329834D02*
X301312351Y-178585516D01*
X107087649Y-188377280D02*
X107087649Y-178632962D01*
X304300000Y-180952554D02*
X304300000Y-202952554D01*
X227177600Y-91430000D02*
X206836338Y-91430000D01*
X72339200Y-179000000D02*
X72339200Y-175133000D01*
X341122000Y-175085536D02*
X346810735Y-175085898D01*
X181457600Y-87000000D02*
G75*
G02*
X183457600Y-85000000I2000000J0D01*
G01*
X72339200Y-175133000D02*
X103591696Y-175133000D01*
X255422400Y-203952554D02*
X255422400Y-189807446D01*
X167543843Y-189854892D02*
X180950245Y-197614991D01*
X181457600Y-91430000D02*
X181457600Y-87000000D01*
X73339200Y-180000000D02*
G75*
G02*
X72339200Y-179000000I0J1000000D01*
G01*
X67310000Y-175132982D02*
X61500000Y-175132982D01*
X232054400Y-91440000D02*
X232054400Y-87010000D01*
X250444000Y-204000008D02*
G75*
G02*
X249446553Y-205000003I-997400J-2592D01*
G01*
X106100000Y-205000000D02*
X152060400Y-205000000D01*
X157988000Y-204000000D02*
X157988000Y-189854892D01*
D11*
X301312351Y-178585516D02*
X301312381Y-178568616D01*
X301312491Y-178551726D01*
X301312682Y-178534845D01*
X301312951Y-178517973D01*
X301313301Y-178501112D01*
X301313730Y-178484261D01*
X301314240Y-178467419D01*
X301314828Y-178450589D01*
X301315497Y-178433768D01*
X301316245Y-178416959D01*
X301317072Y-178400161D01*
X301317979Y-178383373D01*
X301318966Y-178366597D01*
X301320031Y-178349833D01*
X301321177Y-178333081D01*
X301322401Y-178316340D01*
X301323705Y-178299612D01*
X301325088Y-178282896D01*
X301326550Y-178266192D01*
X301328091Y-178249502D01*
X301329711Y-178232824D01*
X301331411Y-178216160D01*
X301333189Y-178199509D01*
X301335046Y-178182871D01*
X301336983Y-178166248D01*
X301338998Y-178149639D01*
X301341091Y-178133043D01*
X301343264Y-178116463D01*
X301345515Y-178099897D01*
X301347845Y-178083346D01*
X301350253Y-178066811D01*
X301352740Y-178050290D01*
X301355306Y-178033786D01*
X301357950Y-178017297D01*
X301360672Y-178000824D01*
X301363473Y-177984368D01*
X301366352Y-177967929D01*
X301369309Y-177951506D01*
X301372344Y-177935100D01*
X301375458Y-177918712D01*
X301378649Y-177902341D01*
X301381919Y-177885988D01*
X301385266Y-177869653D01*
X301388691Y-177853336D01*
X301392194Y-177837038D01*
X301395775Y-177820759D01*
X301399433Y-177804499D01*
X301403169Y-177788258D01*
X301406983Y-177772037D01*
X301410874Y-177755835D01*
X301414842Y-177739654D01*
X301418888Y-177723493D01*
X301423011Y-177707353D01*
X301427211Y-177691233D01*
X301431488Y-177675135D01*
X301435842Y-177659058D01*
X301440273Y-177643003D01*
X301444782Y-177626970D01*
X301449366Y-177610959D01*
X301454028Y-177594971D01*
X301458766Y-177579006D01*
X301463581Y-177563063D01*
X301468472Y-177547144D01*
X301473440Y-177531249D01*
X301478484Y-177515378D01*
X301483604Y-177499531D01*
X301488800Y-177483708D01*
X301494072Y-177467910D01*
X301499420Y-177452138D01*
X301504844Y-177436391D01*
X301510344Y-177420669D01*
X301515919Y-177404974D01*
X301521570Y-177389305D01*
X301527296Y-177373662D01*
X301533097Y-177358047D01*
X301538974Y-177342458D01*
X301544926Y-177326897D01*
X301550952Y-177311364D01*
X301557054Y-177295859D01*
X301563230Y-177280383D01*
X301569481Y-177264935D01*
X301575807Y-177249516D01*
X301582206Y-177234127D01*
X301588680Y-177218767D01*
X301595229Y-177203437D01*
X301601851Y-177188138D01*
X301608547Y-177172869D01*
X301615317Y-177157631D01*
X301622160Y-177142424D01*
X301629077Y-177127249D01*
X301636068Y-177112106D01*
X301643131Y-177096995D01*
X301650268Y-177081917D01*
X301657477Y-177066871D01*
X301664759Y-177051859D01*
X301672114Y-177036880D01*
X301679542Y-177021935D01*
X301687041Y-177007025D01*
X301694613Y-176992148D01*
X301702257Y-176977307D01*
X301709972Y-176962501D01*
X301717760Y-176947730D01*
X301725619Y-176932995D01*
X301733549Y-176918296D01*
X301741550Y-176903634D01*
X301749623Y-176889009D01*
X301757766Y-176874420D01*
X301765980Y-176859869D01*
X301774264Y-176845356D01*
X301782619Y-176830882D01*
X301791044Y-176816445D01*
X301799538Y-176802048D01*
X301808103Y-176787690D01*
X301816737Y-176773371D01*
X301825440Y-176759092D01*
X301834213Y-176744854D01*
X301843054Y-176730655D01*
X301851964Y-176716498D01*
X301860943Y-176702382D01*
X301869990Y-176688308D01*
X301879106Y-176674275D01*
X301888289Y-176660285D01*
X301897540Y-176646337D01*
X301906858Y-176632432D01*
X301916244Y-176618570D01*
X301925697Y-176604752D01*
X301935217Y-176590978D01*
X301944803Y-176577248D01*
X301954456Y-176563563D01*
X301964175Y-176549923D01*
X301973960Y-176536328D01*
X301983811Y-176522778D01*
X301993727Y-176509275D01*
X302003708Y-176495817D01*
X302013754Y-176482407D01*
X302023866Y-176469043D01*
X302034041Y-176455727D01*
X302044281Y-176442458D01*
X302054585Y-176429238D01*
X302064953Y-176416065D01*
X302075384Y-176402942D01*
X302085878Y-176389867D01*
X302096436Y-176376841D01*
X302107056Y-176363866D01*
X302117739Y-176350940D01*
X302128483Y-176338064D01*
X302139290Y-176325239D01*
X302150159Y-176312465D01*
X302161089Y-176299742D01*
X302172080Y-176287071D01*
X302183132Y-176274452D01*
X302194244Y-176261885D01*
X302205417Y-176249370D01*
X302216650Y-176236909D01*
X302227942Y-176224501D01*
X302239294Y-176212146D01*
X302250705Y-176199845D01*
X302262175Y-176187598D01*
X302273704Y-176175406D01*
X302285291Y-176163268D01*
X302296936Y-176151186D01*
X302308638Y-176139159D01*
X302320398Y-176127187D01*
X302332216Y-176115272D01*
X302338145Y-176109335D01*
X302344089Y-176103413D01*
X302350048Y-176097505D01*
X302356020Y-176091610D01*
X302362006Y-176085731D01*
X302368007Y-176079865D01*
X302374021Y-176074014D01*
X302380049Y-176068177D01*
X302386091Y-176062354D01*
X302392147Y-176056546D01*
X302398217Y-176050753D01*
X302404301Y-176044973D01*
X302410398Y-176039209D01*
X302416509Y-176033459D01*
X302422634Y-176027723D01*
X302428772Y-176022002D01*
X302434924Y-176016296D01*
X302441090Y-176010605D01*
X302447268Y-176004928D01*
X302453461Y-175999266D01*
X302459667Y-175993619D01*
X302465886Y-175987987D01*
X302472119Y-175982370D01*
X302478365Y-175976767D01*
X302484624Y-175971180D01*
X302490896Y-175965607D01*
X302497182Y-175960050D01*
X302503481Y-175954508D01*
X302509793Y-175948980D01*
X302516118Y-175943468D01*
X302522455Y-175937971D01*
X302528807Y-175932490D01*
X302535170Y-175927023D01*
X302541547Y-175921572D01*
X302547937Y-175916136D01*
X302554340Y-175910716D01*
X302560755Y-175905311D01*
X302567183Y-175899921D01*
X302573624Y-175894547D01*
X302580077Y-175889188D01*
X302586543Y-175883845D01*
X302593022Y-175878517D01*
X302599513Y-175873205D01*
X302606017Y-175867908D01*
X302612533Y-175862628D01*
X302619062Y-175857362D01*
X302625602Y-175852113D01*
X302632156Y-175846879D01*
X302638721Y-175841661D01*
X302645299Y-175836459D01*
X302651889Y-175831273D01*
X302658491Y-175826102D01*
X302665106Y-175820948D01*
X302671732Y-175815809D01*
X302678370Y-175810687D01*
X302685021Y-175805580D01*
X302691683Y-175800490D01*
X302698358Y-175795415D01*
X302705044Y-175790357D01*
X302711742Y-175785314D01*
X302718452Y-175780289D01*
X302725174Y-175775278D01*
X302731907Y-175770285D01*
X302738652Y-175765307D01*
X302745409Y-175760346D01*
X302752177Y-175755401D01*
X302758957Y-175750473D01*
X302765748Y-175745561D01*
X302772551Y-175740665D01*
X302779365Y-175735786D01*
X302786190Y-175730923D01*
X302793027Y-175726077D01*
X302799875Y-175721247D01*
X302806735Y-175716433D01*
X302813605Y-175711637D01*
X302820487Y-175706857D01*
X302827380Y-175702093D01*
X302834284Y-175697346D01*
X302841199Y-175692616D01*
X302848125Y-175687903D01*
X302855062Y-175683206D01*
X302862010Y-175678526D01*
X302868968Y-175673863D01*
X302875938Y-175669217D01*
X302882918Y-175664588D01*
X302889910Y-175659975D01*
X302896911Y-175655379D01*
X302903924Y-175650800D01*
X302910947Y-175646239D01*
X302917981Y-175641694D01*
X302925024Y-175637166D01*
X302932080Y-175632655D01*
X302939144Y-175628162D01*
X302946220Y-175623685D01*
X302953306Y-175619226D01*
X302960402Y-175614784D01*
X302967508Y-175610359D01*
X302974625Y-175605951D01*
X302981752Y-175601560D01*
X302988889Y-175597186D01*
X302996036Y-175592831D01*
X303003194Y-175588491D01*
X303010360Y-175584170D01*
X303017538Y-175579866D01*
X303024725Y-175575579D01*
X303031922Y-175571309D01*
X303039129Y-175567058D01*
X303046346Y-175562823D01*
X303053572Y-175558606D01*
X303060809Y-175554406D01*
X303068054Y-175550224D01*
X303075310Y-175546059D01*
X303082575Y-175541912D01*
X303089850Y-175537783D01*
X303097133Y-175533671D01*
X303104428Y-175529577D01*
X303111730Y-175525500D01*
X303119043Y-175521441D01*
X303126365Y-175517400D01*
X303133696Y-175513376D01*
X303141036Y-175509371D01*
X303148387Y-175505382D01*
X303155745Y-175501413D01*
X303163113Y-175497460D01*
X303170490Y-175493526D01*
X303177877Y-175489608D01*
X303185271Y-175485710D01*
X303192676Y-175481829D01*
X303200088Y-175477966D01*
X303207511Y-175474120D01*
X303214941Y-175470293D01*
X303222381Y-175466484D01*
X303229829Y-175462693D01*
X303237287Y-175458919D01*
X303244752Y-175455164D01*
X303252227Y-175451427D01*
X303259709Y-175447708D01*
X303267202Y-175444007D01*
X303274701Y-175440324D01*
X303282210Y-175436659D01*
X303289727Y-175433013D01*
X303297253Y-175429384D01*
X303304786Y-175425774D01*
X303312329Y-175422181D01*
X303319878Y-175418608D01*
X303327438Y-175415052D01*
X303335004Y-175411515D01*
X303342580Y-175407995D01*
X303350162Y-175404495D01*
X303357754Y-175401012D01*
X303365352Y-175397548D01*
X303372960Y-175394102D01*
X303380575Y-175390675D01*
X303388198Y-175387265D01*
X303395829Y-175383875D01*
X303403468Y-175380502D01*
X303411114Y-175377149D01*
X303418769Y-175373813D01*
X303426430Y-175370497D01*
X303434101Y-175367198D01*
X303441777Y-175363918D01*
X303449463Y-175360656D01*
X303457155Y-175357414D01*
X303464856Y-175354189D01*
X303472562Y-175350984D01*
X303480278Y-175347796D01*
X303487999Y-175344628D01*
X303495730Y-175341477D01*
X303503466Y-175338346D01*
X303511211Y-175335233D01*
X303518962Y-175332139D01*
X303526722Y-175329064D01*
X303534486Y-175326007D01*
X303542260Y-175322969D01*
X303550040Y-175319950D01*
X303557828Y-175316949D01*
X303565621Y-175313967D01*
X303573423Y-175311004D01*
X303581230Y-175308060D01*
X303589046Y-175305134D01*
X303596867Y-175302228D01*
X303604697Y-175299339D01*
X303612531Y-175296470D01*
X303620374Y-175293620D01*
X303628222Y-175290789D01*
X303636079Y-175287976D01*
X303643940Y-175285182D01*
X303651810Y-175282407D01*
X303659684Y-175279652D01*
X303667567Y-175276914D01*
X303675454Y-175274197D01*
X303683350Y-175271497D01*
X303691250Y-175268817D01*
X303699159Y-175266156D01*
X303707072Y-175263514D01*
X303714993Y-175260890D01*
X303722919Y-175258287D01*
X303730852Y-175255701D01*
X303738790Y-175253135D01*
X303746737Y-175250588D01*
X303754687Y-175248060D01*
X303762645Y-175245551D01*
X303770607Y-175243061D01*
X303778578Y-175240590D01*
X303786552Y-175238139D01*
X303794534Y-175235706D01*
X303802520Y-175233292D01*
X303810514Y-175230898D01*
X303818512Y-175228523D01*
X303826518Y-175226166D01*
X303834527Y-175223830D01*
X303842545Y-175221512D01*
X303850565Y-175219213D01*
X303858594Y-175216934D01*
X303866626Y-175214674D01*
X303874666Y-175212433D01*
X303882709Y-175210211D01*
X303890760Y-175208008D01*
X303898814Y-175205826D01*
X303906876Y-175203661D01*
X303914941Y-175201517D01*
X303923014Y-175199391D01*
X303931089Y-175197285D01*
X303939173Y-175195198D01*
X303947259Y-175193131D01*
X303955353Y-175191082D01*
X303963450Y-175189054D01*
X303971554Y-175187044D01*
X303979661Y-175185054D01*
X303987776Y-175183083D01*
X303995893Y-175181131D01*
X304004018Y-175179199D01*
X304012145Y-175177286D01*
X304020280Y-175175393D01*
X304028417Y-175173519D01*
X304036562Y-175171664D01*
X304044709Y-175169829D01*
X304052863Y-175168013D01*
X304061020Y-175166217D01*
X304069184Y-175164440D01*
X304077350Y-175162683D01*
X304085523Y-175160944D01*
X304093699Y-175159226D01*
X304101882Y-175157527D01*
X304110067Y-175155847D01*
X304118259Y-175154187D01*
X304126453Y-175152547D01*
X304134654Y-175150925D01*
X304142858Y-175149324D01*
X304151068Y-175147741D01*
X304159280Y-175146179D01*
X304167499Y-175144636D01*
X304175720Y-175143112D01*
X304183948Y-175141608D01*
X304192177Y-175140124D01*
X304200413Y-175138659D01*
X304208652Y-175137214D01*
X304216896Y-175135788D01*
X304225143Y-175134382D01*
X304233396Y-175132995D01*
X304241651Y-175131629D01*
X304249913Y-175130281D01*
X304258176Y-175128954D01*
X304266445Y-175127645D01*
X304274717Y-175126357D01*
X304282994Y-175125088D01*
X304291273Y-175123839D01*
X304299559Y-175122609D01*
X304307846Y-175121400D01*
X304316139Y-175120209D01*
X304324434Y-175119039D01*
X304332735Y-175117888D01*
X304341037Y-175116757D01*
X304349346Y-175115645D01*
X304357656Y-175114553D01*
X304365972Y-175113481D01*
X304374289Y-175112428D01*
X304382612Y-175111396D01*
X304390937Y-175110383D01*
X304399267Y-175109389D01*
X304407599Y-175108416D01*
X304415937Y-175107462D01*
X304424276Y-175106528D01*
X304432620Y-175105613D01*
X304440966Y-175104719D01*
X304449318Y-175103844D01*
X304457670Y-175102989D01*
X304466028Y-175102154D01*
X304474388Y-175101338D01*
X304482753Y-175100542D01*
X304491119Y-175099766D01*
X304499490Y-175099010D01*
X304507863Y-175098274D01*
X304516241Y-175097557D01*
X304524620Y-175096861D01*
X304533004Y-175096184D01*
X304541389Y-175095527D01*
X304549780Y-175094889D01*
X304558172Y-175094272D01*
X304566569Y-175093674D01*
X304574966Y-175093097D01*
X304583369Y-175092539D01*
X304591772Y-175092001D01*
X304600181Y-175091482D01*
X304608591Y-175090984D01*
X304617006Y-175090506D01*
X304625421Y-175090047D01*
X304633841Y-175089609D01*
X304642262Y-175089190D01*
X304650689Y-175088791D01*
X304659115Y-175088412D01*
X304667547Y-175088053D01*
X304675979Y-175087714D01*
X304684416Y-175087395D01*
X304692854Y-175087095D01*
X304701296Y-175086816D01*
X304709739Y-175086557D01*
X304718187Y-175086317D01*
X304726635Y-175086098D01*
X304735088Y-175085898D01*
X304743542Y-175085718D01*
X304752000Y-175085559D01*
X304760458Y-175085419D01*
X304768921Y-175085299D01*
X304777384Y-175085200D01*
X304785852Y-175085120D01*
X304794320Y-175085060D01*
X304802793Y-175085021D01*
X304812000Y-175085000D01*
D10*
X67310000Y-179000000D02*
X67310000Y-175132982D01*
X117957600Y-91430000D02*
X117957600Y-87000000D01*
X225177600Y-85000000D02*
X183457600Y-85000000D01*
D11*
X301312351Y-188329834D02*
X301312316Y-188340598D01*
X301312202Y-188351356D01*
X301312007Y-188362107D01*
X301311733Y-188372852D01*
X301311379Y-188383591D01*
X301310945Y-188394322D01*
X301310431Y-188405046D01*
X301309838Y-188415762D01*
X301309166Y-188426470D01*
X301308413Y-188437170D01*
X301307582Y-188447861D01*
X301306671Y-188458544D01*
X301305680Y-188469217D01*
X301304610Y-188479880D01*
X301303461Y-188490534D01*
X301302232Y-188501177D01*
X301300924Y-188511810D01*
X301299537Y-188522432D01*
X301298071Y-188533042D01*
X301296526Y-188543641D01*
X301294902Y-188554228D01*
X301293199Y-188564802D01*
X301291417Y-188575364D01*
X301289556Y-188585913D01*
X301287617Y-188596448D01*
X301285598Y-188606969D01*
X301283501Y-188617476D01*
X301281326Y-188627968D01*
X301279072Y-188638445D01*
X301276739Y-188648906D01*
X301274329Y-188659352D01*
X301271839Y-188669781D01*
X301269272Y-188680194D01*
X301266627Y-188690590D01*
X301263904Y-188700967D01*
X301261102Y-188711327D01*
X301258223Y-188721669D01*
X301255266Y-188731991D01*
X301252232Y-188742295D01*
X301249120Y-188752578D01*
X301245931Y-188762841D01*
X301242664Y-188773084D01*
X301239321Y-188783305D01*
X301235900Y-188793505D01*
X301232402Y-188803682D01*
X301228828Y-188813837D01*
X301225177Y-188823969D01*
X301221449Y-188834078D01*
X301217645Y-188844162D01*
X301213765Y-188854222D01*
X301209809Y-188864257D01*
X301205777Y-188874266D01*
X301201669Y-188884249D01*
X301197486Y-188894206D01*
X301193228Y-188904135D01*
X301188894Y-188914037D01*
X301184485Y-188923911D01*
X301180002Y-188933757D01*
X301175444Y-188943573D01*
X301170811Y-188953360D01*
X301166104Y-188963116D01*
X301161324Y-188972842D01*
X301156469Y-188982536D01*
X301151542Y-188992199D01*
X301146540Y-189001829D01*
X301141466Y-189011427D01*
X301136319Y-189020991D01*
X301131100Y-189030521D01*
X301125808Y-189040016D01*
X301120444Y-189049477D01*
X301115009Y-189058902D01*
X301109502Y-189068291D01*
X301103924Y-189077643D01*
X301098275Y-189086957D01*
X301092555Y-189096234D01*
X301086765Y-189105473D01*
X301080905Y-189114673D01*
X301074976Y-189123833D01*
X301068977Y-189132953D01*
X301062909Y-189142032D01*
X301056772Y-189151071D01*
X301050567Y-189160067D01*
X301044295Y-189169021D01*
X301037954Y-189177933D01*
X301031546Y-189186801D01*
X301025072Y-189195625D01*
X301018530Y-189204404D01*
X301011923Y-189213139D01*
X301005250Y-189221828D01*
X300998511Y-189230470D01*
X300991708Y-189239066D01*
X300984839Y-189247615D01*
X300977907Y-189256116D01*
X300970911Y-189264568D01*
X300963851Y-189272972D01*
X300956729Y-189281326D01*
X300949544Y-189289630D01*
X300942297Y-189297883D01*
X300934989Y-189306086D01*
X300927619Y-189314237D01*
X300920188Y-189322335D01*
X300912698Y-189330382D01*
X300905147Y-189338374D01*
X300897537Y-189346314D01*
X300889869Y-189354199D01*
X300882141Y-189362029D01*
X300878256Y-189365924D01*
X300874356Y-189369804D01*
X300870442Y-189373671D01*
X300866514Y-189377524D01*
X300862571Y-189381363D01*
X300858614Y-189385187D01*
X300854643Y-189388998D01*
X300850658Y-189392794D01*
X300846659Y-189396576D01*
X300842646Y-189400343D01*
X300838620Y-189404096D01*
X300834579Y-189407835D01*
X300830525Y-189411559D01*
X300826457Y-189415268D01*
X300822375Y-189418963D01*
X300818280Y-189422643D01*
X300814172Y-189426309D01*
X300810049Y-189429959D01*
X300805914Y-189433595D01*
X300801765Y-189437215D01*
X300797603Y-189440821D01*
X300793428Y-189444412D01*
X300789240Y-189447987D01*
X300785039Y-189451547D01*
X300780825Y-189455092D01*
X300776597Y-189458622D01*
X300772358Y-189462137D01*
X300768105Y-189465636D01*
X300763839Y-189469119D01*
X300759561Y-189472587D01*
X300755271Y-189476040D01*
X300750967Y-189479477D01*
X300746652Y-189482898D01*
X300742324Y-189486304D01*
X300737984Y-189489693D01*
X300733631Y-189493067D01*
X300729267Y-189496425D01*
X300724889Y-189499768D01*
X300720501Y-189503093D01*
X300716100Y-189506404D01*
X300711687Y-189509698D01*
X300707262Y-189512976D01*
X300702827Y-189516237D01*
X300698378Y-189519483D01*
X300693919Y-189522712D01*
X300689447Y-189525925D01*
X300684965Y-189529121D01*
X300680470Y-189532302D01*
X300675965Y-189535465D01*
X300671448Y-189538613D01*
X300666920Y-189541743D01*
X300662381Y-189544857D01*
X300657831Y-189547954D01*
X300653269Y-189551035D01*
X300648697Y-189554099D01*
X300644113Y-189557146D01*
X300639520Y-189560176D01*
X300634915Y-189563190D01*
X300630300Y-189566186D01*
X300625673Y-189569166D01*
X300621037Y-189572128D01*
X300616389Y-189575074D01*
X300611732Y-189578002D01*
X300607064Y-189580913D01*
X300602386Y-189583807D01*
X300597697Y-189586684D01*
X300593000Y-189589543D01*
X300588290Y-189592386D01*
X300583572Y-189595210D01*
X300578843Y-189598018D01*
X300574106Y-189600808D01*
X300569357Y-189603581D01*
X300564599Y-189606336D01*
X300559831Y-189609074D01*
X300555055Y-189611794D01*
X300550267Y-189614497D01*
X300545472Y-189617181D01*
X300540665Y-189619849D01*
X300535851Y-189622498D01*
X300531026Y-189625130D01*
X300526194Y-189627744D01*
X300521350Y-189630340D01*
X300516500Y-189632918D01*
X300511638Y-189635479D01*
X300506770Y-189638021D01*
X300501890Y-189640546D01*
X300497004Y-189643052D01*
X300492107Y-189645541D01*
X300487204Y-189648012D01*
X300482290Y-189650464D01*
X300477369Y-189652898D01*
X300472438Y-189655315D01*
X300467500Y-189657713D01*
X300462552Y-189660093D01*
X300457598Y-189662454D01*
X300452633Y-189664798D01*
X300447663Y-189667123D01*
X300442682Y-189669430D01*
X300437696Y-189671718D01*
X300432699Y-189673988D01*
X300427696Y-189676239D01*
X300422684Y-189678473D01*
X300417666Y-189680687D01*
X300412638Y-189682884D01*
X300407605Y-189685062D01*
X300402562Y-189687221D01*
X300397513Y-189689362D01*
X300392455Y-189691484D01*
X300387392Y-189693587D01*
X300382319Y-189695672D01*
X300377242Y-189697738D01*
X300372154Y-189699786D01*
X300367062Y-189701815D01*
X300361961Y-189703825D01*
X300356855Y-189705816D01*
X300351739Y-189707789D01*
X300346619Y-189709742D01*
X300341490Y-189711678D01*
X300336357Y-189713593D01*
X300331214Y-189715491D01*
X300326067Y-189717369D01*
X300320911Y-189719229D01*
X300315751Y-189721069D01*
X300310582Y-189722891D01*
X300305409Y-189724693D01*
X300300228Y-189726477D01*
X300295042Y-189728242D01*
X300289848Y-189729988D01*
X300284650Y-189731714D01*
X300279443Y-189733422D01*
X300274233Y-189735110D01*
X300269015Y-189736780D01*
X300263793Y-189738429D01*
X300258562Y-189740061D01*
X300253328Y-189741672D01*
X300248086Y-189743266D01*
X300242841Y-189744839D01*
X300237588Y-189746394D01*
X300232331Y-189747928D01*
X300227066Y-189749445D01*
X300221799Y-189750941D01*
X300216523Y-189752419D01*
X300211245Y-189753877D01*
X300205958Y-189755316D01*
X300200669Y-189756735D01*
X300195372Y-189758136D01*
X300190073Y-189759516D01*
X300184766Y-189760878D01*
X300179456Y-189762220D01*
X300174139Y-189763543D01*
X300168819Y-189764846D01*
X300163492Y-189766131D01*
X300158163Y-189767395D01*
X300152826Y-189768640D01*
X300147487Y-189769866D01*
X300142141Y-189771072D01*
X300136792Y-189772259D01*
X300131437Y-189773426D01*
X300126079Y-189774574D01*
X300120714Y-189775703D01*
X300115348Y-189776811D01*
X300109974Y-189777901D01*
X300104599Y-189778970D01*
X300099217Y-189780020D01*
X300093833Y-189781051D01*
X300088442Y-189782062D01*
X300083050Y-189783053D01*
X300077651Y-189784025D01*
X300072250Y-189784977D01*
X300066843Y-189785910D01*
X300061435Y-189786823D01*
X300056020Y-189787716D01*
X300050603Y-189788590D01*
X300045181Y-189789444D01*
X300039757Y-189790278D01*
X300034326Y-189791093D01*
X300028895Y-189791888D01*
X300023457Y-189792663D01*
X300018018Y-189793419D01*
X300012573Y-189794155D01*
X300007128Y-189794871D01*
X300001676Y-189795567D01*
X299996223Y-189796244D01*
X299990764Y-189796901D01*
X299985305Y-189797538D01*
X299979839Y-189798155D01*
X299974373Y-189798753D01*
X299968901Y-189799331D01*
X299963428Y-189799889D01*
X299957950Y-189800427D01*
X299952471Y-189800945D01*
X299946986Y-189801444D01*
X299941501Y-189801923D01*
X299936011Y-189802382D01*
X299930520Y-189802821D01*
X299925023Y-189803240D01*
X299919527Y-189803639D01*
X299914024Y-189804019D01*
X299908522Y-189804378D01*
X299903014Y-189804718D01*
X299897506Y-189805038D01*
X299891993Y-189805338D01*
X299886480Y-189805618D01*
X299880962Y-189805878D01*
X299875443Y-189806118D01*
X299869920Y-189806339D01*
X299864396Y-189806539D01*
X299858868Y-189806719D01*
X299853340Y-189806880D01*
X299847806Y-189807020D01*
X299842273Y-189807141D01*
X299836735Y-189807241D01*
X299831198Y-189807322D01*
X299825655Y-189807382D01*
X299820113Y-189807423D01*
X299814566Y-189807443D01*
X299812345Y-189807446D01*
D10*
X176530000Y-91430000D02*
X176530000Y-87000000D01*
D11*
X348359330Y-97780000D02*
X348359183Y-97772459D01*
X348358955Y-97764919D01*
X348358648Y-97757379D01*
X348358260Y-97749838D01*
X348357793Y-97742296D01*
X348357245Y-97734752D01*
X348356616Y-97727207D01*
X348355908Y-97719659D01*
X348355118Y-97712109D01*
X348354248Y-97704556D01*
X348353297Y-97696999D01*
X348352265Y-97689439D01*
X348351151Y-97681874D01*
X348349956Y-97674305D01*
X348348680Y-97666730D01*
X348347321Y-97659150D01*
X348345879Y-97651564D01*
X348344355Y-97643972D01*
X348342748Y-97636374D01*
X348341058Y-97628768D01*
X348339285Y-97621155D01*
X348337427Y-97613534D01*
X348335485Y-97605904D01*
X348333458Y-97598267D01*
X348331345Y-97590620D01*
X348329148Y-97582964D01*
X348326864Y-97575298D01*
X348324494Y-97567622D01*
X348322036Y-97559936D01*
X348319491Y-97552239D01*
X348316859Y-97544531D01*
X348314137Y-97536811D01*
X348311327Y-97529079D01*
X348308427Y-97521335D01*
X348305437Y-97513579D01*
X348302356Y-97505810D01*
X348299183Y-97498027D01*
X348295919Y-97490231D01*
X348292562Y-97482421D01*
X348289112Y-97474597D01*
X348285568Y-97466758D01*
X348281929Y-97458904D01*
X348278195Y-97451035D01*
X348274365Y-97443151D01*
X348270438Y-97435250D01*
X348266414Y-97427334D01*
X348262291Y-97419401D01*
X348258070Y-97411451D01*
X348253749Y-97403485D01*
X348249327Y-97395501D01*
X348244805Y-97387499D01*
X348240180Y-97379480D01*
X348235452Y-97371442D01*
X348230620Y-97363386D01*
X348225684Y-97355312D01*
X348220642Y-97347218D01*
X348215494Y-97339105D01*
X348210239Y-97330973D01*
X348204876Y-97322820D01*
X348199404Y-97314648D01*
X348193821Y-97306456D01*
X348188128Y-97298243D01*
X348182323Y-97290009D01*
X348176405Y-97281755D01*
X348170374Y-97273479D01*
X348164228Y-97265182D01*
X348157966Y-97256863D01*
X348151587Y-97248522D01*
X348145091Y-97240159D01*
X348138475Y-97231774D01*
X348131741Y-97223367D01*
X348124885Y-97214936D01*
X348117907Y-97206483D01*
X348110807Y-97198007D01*
X348103582Y-97189507D01*
X348096233Y-97180984D01*
X348088757Y-97172437D01*
X348081154Y-97163867D01*
X348073422Y-97155272D01*
X348065562Y-97146654D01*
X348057570Y-97138010D01*
X348049447Y-97129343D01*
X348041190Y-97120650D01*
X348032800Y-97111933D01*
X348024274Y-97103191D01*
X348015612Y-97094423D01*
X348006812Y-97085631D01*
X347997874Y-97076813D01*
X347988795Y-97067969D01*
X347979575Y-97059099D01*
X347970213Y-97050204D01*
X347960707Y-97041282D01*
X347951056Y-97032335D01*
X347941259Y-97023361D01*
X347931315Y-97014360D01*
X347921221Y-97005334D01*
X347910978Y-96996280D01*
X347900584Y-96987200D01*
X347890037Y-96978093D01*
X347879336Y-96968959D01*
X347868480Y-96959797D01*
X347857468Y-96950609D01*
X347846298Y-96941393D01*
X347834969Y-96932150D01*
X347823479Y-96922880D01*
X347811828Y-96913582D01*
X347800013Y-96904256D01*
X347788034Y-96894902D01*
X347775890Y-96885521D01*
X347763578Y-96876112D01*
X347751097Y-96866675D01*
X347738447Y-96857209D01*
X347725625Y-96847716D01*
X347712631Y-96838194D01*
X347699462Y-96828644D01*
X347686118Y-96819066D01*
X347672597Y-96809459D01*
X347658898Y-96799824D01*
X347645018Y-96790160D01*
X347630958Y-96780468D01*
X347616714Y-96770747D01*
X347602287Y-96760997D01*
X347587674Y-96751219D01*
X347572874Y-96741412D01*
X347557885Y-96731576D01*
X347542707Y-96721711D01*
X347527336Y-96711817D01*
X347511773Y-96701894D01*
X347496016Y-96691943D01*
X347480062Y-96681962D01*
X347463911Y-96671952D01*
X347447561Y-96661914D01*
X347431011Y-96651846D01*
X347414258Y-96641749D01*
X347397302Y-96631622D01*
X347380141Y-96621467D01*
X347362773Y-96611283D01*
X347345197Y-96601069D01*
X347327412Y-96590826D01*
X347309415Y-96580554D01*
X347291205Y-96570252D01*
X347272781Y-96559922D01*
X347254141Y-96549562D01*
X347235283Y-96539173D01*
X347216206Y-96528754D01*
X347196909Y-96518307D01*
X347177389Y-96507830D01*
X347157646Y-96497324D01*
X347137677Y-96486788D01*
X347117480Y-96476224D01*
X347097056Y-96465630D01*
X347076400Y-96455007D01*
X347055513Y-96444354D01*
X347034393Y-96433673D01*
X347013037Y-96422962D01*
X346991444Y-96412223D01*
X346969613Y-96401454D01*
X346947542Y-96390656D01*
X346925229Y-96379829D01*
X346902673Y-96368973D01*
X346879871Y-96358087D01*
X346856823Y-96347173D01*
X346833527Y-96336230D01*
X346809981Y-96325258D01*
X346786182Y-96314257D01*
X346762131Y-96303227D01*
X346737825Y-96292168D01*
X346713261Y-96281081D01*
X346688440Y-96269965D01*
X346663358Y-96258820D01*
X346638015Y-96247646D01*
X346612408Y-96236444D01*
X346586536Y-96225213D01*
X346560397Y-96213954D01*
X346533989Y-96202666D01*
X346507311Y-96191350D01*
X346480361Y-96180005D01*
X346453138Y-96168632D01*
X346425639Y-96157231D01*
X346397863Y-96145802D01*
X346369808Y-96134344D01*
X346341472Y-96122859D01*
X346312855Y-96111345D01*
X346283953Y-96099804D01*
X346254765Y-96088234D01*
X346225290Y-96076637D01*
X346195525Y-96065012D01*
X346165470Y-96053360D01*
X346135122Y-96041679D01*
X346104479Y-96029972D01*
X346073540Y-96018237D01*
X346042303Y-96006474D01*
X346010766Y-95994685D01*
X345978928Y-95982868D01*
X345946787Y-95971024D01*
X345914341Y-95959152D01*
X345881588Y-95947254D01*
X345848526Y-95935330D01*
X345815154Y-95923378D01*
X345781470Y-95911400D01*
X345747472Y-95899395D01*
X345713159Y-95887363D01*
X345678528Y-95875306D01*
X345643579Y-95863221D01*
X345608308Y-95851111D01*
X345572715Y-95838975D01*
X345536797Y-95826812D01*
X345500553Y-95814624D01*
X345463981Y-95802410D01*
X345427079Y-95790170D01*
X345389846Y-95777905D01*
X345352280Y-95765614D01*
X345314378Y-95753298D01*
X345276140Y-95740957D01*
X345237563Y-95728590D01*
X345198646Y-95716199D01*
X345159386Y-95703782D01*
X345119783Y-95691341D01*
X345079834Y-95678875D01*
X345039537Y-95666385D01*
X344998891Y-95653870D01*
X344957894Y-95641331D01*
X344916544Y-95628767D01*
X344874840Y-95616180D01*
X344832779Y-95603569D01*
X344790360Y-95590934D01*
X344747581Y-95578275D01*
X344704441Y-95565593D01*
X344660937Y-95552888D01*
X344617068Y-95540159D01*
X344572831Y-95527407D01*
X344528226Y-95514632D01*
X344483251Y-95501835D01*
X344437903Y-95489015D01*
X344392182Y-95476172D01*
X344346084Y-95463307D01*
X344299609Y-95450419D01*
X344252754Y-95437510D01*
X344205519Y-95424579D01*
X344157901Y-95411625D01*
X344109898Y-95398651D01*
X344061508Y-95385654D01*
X344012731Y-95372637D01*
X343963564Y-95359598D01*
X343914006Y-95346539D01*
X343864054Y-95333458D01*
X343813707Y-95320357D01*
X343762963Y-95307235D01*
X343711821Y-95294094D01*
X343660279Y-95280931D01*
X343608335Y-95267749D01*
X343555987Y-95254548D01*
X343503234Y-95241326D01*
X343450074Y-95228085D01*
X343396505Y-95214825D01*
X343342525Y-95201545D01*
X343288134Y-95188247D01*
X343233329Y-95174930D01*
X343178108Y-95161595D01*
X343122470Y-95148241D01*
X343066413Y-95134869D01*
X343009935Y-95121478D01*
X342953036Y-95108071D01*
X342895712Y-95094645D01*
X342837963Y-95081202D01*
X342779786Y-95067742D01*
X342721181Y-95054265D01*
X342662146Y-95040771D01*
X342602678Y-95027260D01*
X342542776Y-95013733D01*
X342482439Y-95000189D01*
X342421665Y-94986630D01*
X342360452Y-94973055D01*
X342298799Y-94959464D01*
X342236705Y-94945858D01*
X342174167Y-94932236D01*
X342111183Y-94918600D01*
X342047754Y-94904949D01*
X341983876Y-94891283D01*
X341919548Y-94877603D01*
X341854769Y-94863909D01*
X341789537Y-94850201D01*
X341723851Y-94836480D01*
X341657709Y-94822744D01*
X341591109Y-94808996D01*
X341524051Y-94795235D01*
X341456532Y-94781461D01*
X341388550Y-94767674D01*
X341320106Y-94753875D01*
X341251196Y-94740064D01*
X341181820Y-94726241D01*
X341111976Y-94712407D01*
X341041663Y-94698561D01*
X340970878Y-94684705D01*
X340899622Y-94670837D01*
X340827891Y-94656958D01*
X340755686Y-94643070D01*
X340683003Y-94629171D01*
X340609843Y-94615262D01*
X340536204Y-94601344D01*
X340462083Y-94587416D01*
X340387481Y-94573479D01*
X340312395Y-94559533D01*
X340236824Y-94545579D01*
X340160767Y-94531616D01*
X340084222Y-94517645D01*
X340007189Y-94503667D01*
X339929665Y-94489681D01*
X339851650Y-94475687D01*
X339773142Y-94461686D01*
X339694139Y-94447679D01*
X339614642Y-94433665D01*
X339534648Y-94419645D01*
X339454156Y-94405619D01*
X339373165Y-94391587D01*
X339291674Y-94377550D01*
X339209681Y-94363507D01*
X339127185Y-94349460D01*
X339044186Y-94335408D01*
X338960681Y-94321352D01*
X338876671Y-94307292D01*
X338792153Y-94293228D01*
X338707126Y-94279161D01*
X338621590Y-94265091D01*
X338535543Y-94251017D01*
X338448984Y-94236941D01*
X338361913Y-94222863D01*
X338274327Y-94208783D01*
X338186226Y-94194701D01*
X338097610Y-94180618D01*
X338008476Y-94166533D01*
X337918824Y-94152448D01*
X337828653Y-94138362D01*
X337737963Y-94124277D01*
X337646751Y-94110191D01*
X337555017Y-94096105D01*
X337462760Y-94082021D01*
X337369980Y-94067937D01*
X337276674Y-94053855D01*
X337182844Y-94039774D01*
X337088486Y-94025695D01*
X336993602Y-94011619D01*
X336898189Y-93997545D01*
X336802247Y-93983474D01*
X336705775Y-93969406D01*
X336608773Y-93955342D01*
X336511240Y-93941282D01*
X336413174Y-93927225D01*
X336314575Y-93913174D01*
X336215443Y-93899127D01*
X336115777Y-93885085D01*
X336015575Y-93871049D01*
X335914838Y-93857018D01*
X335813565Y-93842994D01*
X335711754Y-93828976D01*
X335609406Y-93814965D01*
X335506520Y-93800961D01*
X335403095Y-93786965D01*
X335299131Y-93772976D01*
X335194626Y-93758996D01*
X335089582Y-93745024D01*
X334983996Y-93731061D01*
X334877869Y-93717107D01*
X334771200Y-93703162D01*
X334663989Y-93689227D01*
X334556235Y-93675303D01*
X334447937Y-93661389D01*
X334339096Y-93647486D01*
X334229711Y-93633594D01*
X334119782Y-93619714D01*
X334009308Y-93605845D01*
X333898288Y-93591989D01*
X333786724Y-93578145D01*
X333674614Y-93564315D01*
X333561957Y-93550498D01*
X333448755Y-93536694D01*
X333335006Y-93522904D01*
X333220711Y-93509129D01*
X333105869Y-93495369D01*
X332990480Y-93481624D01*
X332874544Y-93467894D01*
X332758061Y-93454180D01*
X332641030Y-93440482D01*
X332523452Y-93426800D01*
X332405326Y-93413136D01*
X332286653Y-93399489D01*
X332167433Y-93385859D01*
X332047664Y-93372247D01*
X331927349Y-93358654D01*
X331806485Y-93345080D01*
X331685075Y-93331524D01*
X331563117Y-93317988D01*
X331440611Y-93304472D01*
X331317559Y-93290976D01*
X331193959Y-93277500D01*
X331069813Y-93264046D01*
X330945120Y-93250612D01*
X330819881Y-93237201D01*
X330694096Y-93223811D01*
X330567764Y-93210444D01*
X330440887Y-93197099D01*
X330313464Y-93183778D01*
X330185497Y-93170480D01*
X330056985Y-93157206D01*
X329927928Y-93143956D01*
X329798327Y-93130731D01*
X329668183Y-93117531D01*
X329537495Y-93104357D01*
X329406265Y-93091208D01*
X329274493Y-93078085D01*
X329142179Y-93064989D01*
X329009323Y-93051919D01*
X328875927Y-93038877D01*
X328741991Y-93025862D01*
X328607515Y-93012876D01*
X328472500Y-92999918D01*
X328336946Y-92986988D01*
X328200855Y-92974088D01*
X328064227Y-92961217D01*
X327927063Y-92948376D01*
X327789363Y-92935566D01*
X327651128Y-92922786D01*
X327512358Y-92910037D01*
X327373056Y-92897319D01*
X327233221Y-92884633D01*
X327092853Y-92871979D01*
X326951955Y-92859358D01*
X326810527Y-92846770D01*
X326668570Y-92834215D01*
X326526084Y-92821693D01*
X326383071Y-92809206D01*
X326239532Y-92796753D01*
X326095467Y-92784335D01*
X325950877Y-92771952D01*
X325805765Y-92759604D01*
X325660129Y-92747292D01*
X325513973Y-92735017D01*
X325367296Y-92722778D01*
X325220099Y-92710577D01*
X325072385Y-92698412D01*
X324924154Y-92686286D01*
X324775407Y-92674197D01*
X324626146Y-92662147D01*
X324476371Y-92650136D01*
X324326084Y-92638164D01*
X324175286Y-92626232D01*
X324023979Y-92614340D01*
X323872163Y-92602488D01*
X323719840Y-92590677D01*
X323567011Y-92578906D01*
X323413679Y-92567178D01*
X323259843Y-92555491D01*
X323105505Y-92543846D01*
X322950668Y-92532244D01*
X322795331Y-92520685D01*
X322639498Y-92509169D01*
X322483168Y-92497697D01*
X322326345Y-92486268D01*
X322169028Y-92474884D01*
X322011220Y-92463545D01*
X321852923Y-92452251D01*
X321694137Y-92441002D01*
X321534865Y-92429799D01*
X321375108Y-92418642D01*
X321214868Y-92407532D01*
X321054146Y-92396469D01*
X320892944Y-92385452D01*
X320731263Y-92374484D01*
X320569107Y-92363563D01*
X320406475Y-92352690D01*
X320243370Y-92341866D01*
X320079794Y-92331091D01*
X319915748Y-92320366D01*
X319751234Y-92309689D01*
X319586255Y-92299063D01*
X319420811Y-92288488D01*
X319254905Y-92277963D01*
X319088539Y-92267488D01*
X318921714Y-92257066D01*
X318754433Y-92246695D01*
X318586697Y-92236376D01*
X318418508Y-92226109D01*
X318249868Y-92215895D01*
X318080780Y-92205734D01*
X317911245Y-92195626D01*
X317741265Y-92185572D01*
X317570842Y-92175573D01*
X317399978Y-92165627D01*
X317228676Y-92155736D01*
X317056937Y-92145900D01*
X316884763Y-92136119D01*
X316712157Y-92126394D01*
X316539121Y-92116725D01*
X316365656Y-92107112D01*
X316191766Y-92097556D01*
X316017451Y-92088056D01*
X315842715Y-92078614D01*
X315667559Y-92069229D01*
X315491986Y-92059902D01*
X315315997Y-92050634D01*
X315139596Y-92041423D01*
X314962784Y-92032271D01*
X314785564Y-92023179D01*
X314607938Y-92014145D01*
X314429908Y-92005172D01*
X314251476Y-91996258D01*
X314072645Y-91987404D01*
X313893417Y-91978611D01*
X313713795Y-91969879D01*
X313533780Y-91961208D01*
X313353375Y-91952598D01*
X313172583Y-91944049D01*
X312991406Y-91935563D01*
X312809846Y-91927139D01*
X312627906Y-91918777D01*
X312445588Y-91910479D01*
X312262894Y-91902243D01*
X312079828Y-91894070D01*
X311896391Y-91885962D01*
X311712585Y-91877917D01*
X311528414Y-91869936D01*
X311343880Y-91862019D01*
X311158985Y-91854167D01*
X310973732Y-91846381D01*
X310788124Y-91838659D01*
X310602162Y-91831002D01*
X310415849Y-91823412D01*
X310229188Y-91815887D01*
X310042182Y-91808429D01*
X309854833Y-91801037D01*
X309667143Y-91793711D01*
X309479115Y-91786453D01*
X309290752Y-91779261D01*
X309102056Y-91772137D01*
X308913030Y-91765081D01*
X308723677Y-91758093D01*
X308628874Y-91754624D01*
X308533998Y-91751173D01*
X308439034Y-91747738D01*
X308343998Y-91744321D01*
X308248873Y-91740920D01*
X308153677Y-91737537D01*
X308058394Y-91734171D01*
X307963039Y-91730823D01*
X307867599Y-91727491D01*
X307772087Y-91724177D01*
X307676490Y-91720880D01*
X307580823Y-91717601D01*
X307485072Y-91714339D01*
X307389250Y-91711094D01*
X307293345Y-91707867D01*
X307197370Y-91704657D01*
X307101313Y-91701465D01*
X307005186Y-91698290D01*
X306908978Y-91695133D01*
X306812701Y-91691993D01*
X306716344Y-91688871D01*
X306619917Y-91685766D01*
X306523412Y-91682679D01*
X306426838Y-91679610D01*
X306330185Y-91676558D01*
X306233465Y-91673524D01*
X306136667Y-91670508D01*
X306039801Y-91667510D01*
X305942860Y-91664529D01*
X305845850Y-91661566D01*
X305748765Y-91658621D01*
X305651613Y-91655694D01*
X305554387Y-91652785D01*
X305457094Y-91649894D01*
X305359728Y-91647021D01*
X305262295Y-91644165D01*
X305164790Y-91641328D01*
X305067219Y-91638508D01*
X304969576Y-91635707D01*
X304871868Y-91632924D01*
X304774090Y-91630158D01*
X304676245Y-91627411D01*
X304578332Y-91624682D01*
X304480354Y-91621971D01*
X304382307Y-91619279D01*
X304284196Y-91616604D01*
X304186017Y-91613948D01*
X304087774Y-91611310D01*
X303989465Y-91608690D01*
X303891091Y-91606089D01*
X303792653Y-91603505D01*
X303694151Y-91600941D01*
X303595584Y-91598394D01*
X303496954Y-91595866D01*
X303398261Y-91593356D01*
X303299505Y-91590865D01*
X303200687Y-91588392D01*
X303101806Y-91585938D01*
X303002864Y-91583502D01*
X302903859Y-91581084D01*
X302804795Y-91578685D01*
X302705667Y-91576305D01*
X302606482Y-91573943D01*
X302507234Y-91571600D01*
X302407929Y-91569275D01*
X302308562Y-91566969D01*
X302209138Y-91564682D01*
X302109653Y-91562413D01*
X302010112Y-91560163D01*
X301910510Y-91557931D01*
X301810853Y-91555719D01*
X301711136Y-91553525D01*
X301611365Y-91551350D01*
X301511534Y-91549193D01*
X301411650Y-91547056D01*
X301311706Y-91544937D01*
X301211711Y-91542837D01*
X301111655Y-91540756D01*
X301011550Y-91538694D01*
X300911384Y-91536650D01*
X300811170Y-91534626D01*
X300710896Y-91532621D01*
X300610574Y-91530634D01*
X300510193Y-91528666D01*
X300409765Y-91526718D01*
X300309278Y-91524788D01*
X300208745Y-91522877D01*
X300108153Y-91520986D01*
X300007517Y-91519113D01*
X299906822Y-91517260D01*
X299806084Y-91515425D01*
X299705287Y-91513610D01*
X299604448Y-91511814D01*
X299503551Y-91510036D01*
X299402613Y-91508278D01*
X299301617Y-91506540D01*
X299200580Y-91504820D01*
X299099487Y-91503119D01*
X298998354Y-91501438D01*
X298897164Y-91499776D01*
X298795935Y-91498133D01*
X298694650Y-91496509D01*
X298593328Y-91494905D01*
X298491949Y-91493320D01*
X298390534Y-91491754D01*
X298289063Y-91490208D01*
X298187557Y-91488681D01*
X298085995Y-91487173D01*
X297984399Y-91485684D01*
X297882747Y-91484215D01*
X297781063Y-91482765D01*
X297679323Y-91481335D01*
X297577551Y-91479924D01*
X297475724Y-91478532D01*
X297373866Y-91477160D01*
X297271954Y-91475808D01*
X297170012Y-91474474D01*
X297068016Y-91473161D01*
X296965990Y-91471866D01*
X296863911Y-91470591D01*
X296761803Y-91469336D01*
X296659643Y-91468100D01*
X296557454Y-91466884D01*
X296455214Y-91465687D01*
X296352946Y-91464510D01*
X296250627Y-91463352D01*
X296148282Y-91462214D01*
X296045885Y-91461096D01*
X295943463Y-91459997D01*
X295840989Y-91458917D01*
X295738492Y-91457858D01*
X295635944Y-91456818D01*
X295533373Y-91455797D01*
X295430752Y-91454797D01*
X295328108Y-91453815D01*
X295225414Y-91452854D01*
X295122700Y-91451912D01*
X295019935Y-91450990D01*
X294917151Y-91450088D01*
X294814316Y-91449205D01*
X294711463Y-91448342D01*
X294608560Y-91447499D01*
X294505640Y-91446675D01*
X294402670Y-91445872D01*
X294299684Y-91445088D01*
X294196649Y-91444323D01*
X294093598Y-91443579D01*
X293990498Y-91442854D01*
X293887384Y-91442149D01*
X293784222Y-91441464D01*
X293681045Y-91440799D01*
X293577821Y-91440153D01*
X293474584Y-91439528D01*
X293371299Y-91438922D01*
X293268002Y-91438336D01*
X293164659Y-91437770D01*
X293061304Y-91437223D01*
X292957902Y-91436697D01*
X292854491Y-91436190D01*
X292751033Y-91435703D01*
X292647565Y-91435237D01*
X292544052Y-91434790D01*
X292440531Y-91434363D01*
X292336963Y-91433955D01*
X292233389Y-91433568D01*
X292129769Y-91433201D01*
X292026143Y-91432853D01*
X291922471Y-91432526D01*
X291818795Y-91432218D01*
X291715073Y-91431931D01*
X291611347Y-91431663D01*
X291507577Y-91431415D01*
X291403803Y-91431187D01*
X291299985Y-91430980D01*
X291196165Y-91430792D01*
X291092301Y-91430624D01*
X290988435Y-91430476D01*
X290884526Y-91430348D01*
X290780616Y-91430240D01*
X290676663Y-91430152D01*
X290572710Y-91430084D01*
X290468715Y-91430036D01*
X290271200Y-91430000D01*
D10*
X212842662Y-174575490D02*
X226295632Y-197467703D01*
D12*
X347721700Y-81788000D02*
G75*
G02*
X347120700Y-81788000I-300500J0D01*
G01*
X347120700Y-81788000D02*
G75*
G02*
X347721700Y-81788000I300500J0D01*
G01*
X62632100Y-207822800D02*
G75*
G02*
X62031100Y-207822800I-300500J0D01*
G01*
X62031100Y-207822800D02*
G75*
G02*
X62632100Y-207822800I300500J0D01*
G01*
X62632100Y-81686400D02*
G75*
G02*
X62031100Y-81686400I-300500J0D01*
G01*
X62031100Y-81686400D02*
G75*
G02*
X62632100Y-81686400I300500J0D01*
G01*
X346299300Y-208076800D02*
G75*
G02*
X345698300Y-208076800I-300500J0D01*
G01*
X345698300Y-208076800D02*
G75*
G02*
X346299300Y-208076800I300500J0D01*
G01*
M02*
