G04 #@! TF.GenerationSoftware,KiCad,Pcbnew,9.0.2*
G04 #@! TF.CreationDate,2025-05-27T22:59:10+12:00*
G04 #@! TF.ProjectId,Koca58,4b6f6361-3538-42e6-9b69-6361645f7063,v1.0.3*
G04 #@! TF.SameCoordinates,Original*
G04 #@! TF.FileFunction,Soldermask,Top*
G04 #@! TF.FilePolarity,Negative*
%FSLAX46Y46*%
G04 Gerber Fmt 4.6, Leading zero omitted, Abs format (unit mm)*
G04 Created by KiCad (PCBNEW 9.0.2) date 2025-05-27 22:59:10*
%MOMM*%
%LPD*%
G01*
G04 APERTURE LIST*
G04 Aperture macros list*
%AMRoundRect*
0 Rectangle with rounded corners*
0 $1 Rounding radius*
0 $2 $3 $4 $5 $6 $7 $8 $9 X,Y pos of 4 corners*
0 Add a 4 corners polygon primitive as box body*
4,1,4,$2,$3,$4,$5,$6,$7,$8,$9,$2,$3,0*
0 Add four circle primitives for the rounded corners*
1,1,$1+$1,$2,$3*
1,1,$1+$1,$4,$5*
1,1,$1+$1,$6,$7*
1,1,$1+$1,$8,$9*
0 Add four rect primitives between the rounded corners*
20,1,$1+$1,$2,$3,$4,$5,0*
20,1,$1+$1,$4,$5,$6,$7,0*
20,1,$1+$1,$6,$7,$8,$9,0*
20,1,$1+$1,$8,$9,$2,$3,0*%
G04 Aperture macros list end*
%ADD10C,0.100000*%
%ADD11RoundRect,0.135000X-0.185000X0.135000X-0.185000X-0.135000X0.185000X-0.135000X0.185000X0.135000X0*%
%ADD12RoundRect,0.200000X-0.275000X0.200000X-0.275000X-0.200000X0.275000X-0.200000X0.275000X0.200000X0*%
%ADD13R,1.400000X1.200000*%
%ADD14C,5.000000*%
%ADD15R,1.000000X1.500000*%
%ADD16RoundRect,0.140000X-0.140000X-0.170000X0.140000X-0.170000X0.140000X0.170000X-0.140000X0.170000X0*%
%ADD17C,2.000000*%
%ADD18RoundRect,0.150000X0.150000X-0.512500X0.150000X0.512500X-0.150000X0.512500X-0.150000X-0.512500X0*%
%ADD19C,3.200000*%
%ADD20R,1.500000X1.500000*%
%ADD21C,1.500000*%
%ADD22RoundRect,0.200000X-0.200000X-0.275000X0.200000X-0.275000X0.200000X0.275000X-0.200000X0.275000X0*%
%ADD23RoundRect,0.075000X0.075000X-0.700000X0.075000X0.700000X-0.075000X0.700000X-0.075000X-0.700000X0*%
%ADD24RoundRect,0.075000X0.700000X-0.075000X0.700000X0.075000X-0.700000X0.075000X-0.700000X-0.075000X0*%
%ADD25C,4.400000*%
%ADD26RoundRect,0.200000X0.200000X0.275000X-0.200000X0.275000X-0.200000X-0.275000X0.200000X-0.275000X0*%
%ADD27C,0.600000*%
%ADD28RoundRect,0.140000X0.140000X0.170000X-0.140000X0.170000X-0.140000X-0.170000X0.140000X-0.170000X0*%
%ADD29C,1.000000*%
%ADD30RoundRect,0.140000X-0.170000X0.140000X-0.170000X-0.140000X0.170000X-0.140000X0.170000X0.140000X0*%
%ADD31C,0.650000*%
%ADD32R,0.600000X1.450000*%
%ADD33R,0.300000X1.450000*%
%ADD34O,1.000000X2.100000*%
%ADD35O,1.000000X1.600000*%
%ADD36RoundRect,0.225000X-0.225000X-0.250000X0.225000X-0.250000X0.225000X0.250000X-0.225000X0.250000X0*%
%ADD37RoundRect,0.140000X0.170000X-0.140000X0.170000X0.140000X-0.170000X0.140000X-0.170000X-0.140000X0*%
%ADD38RoundRect,0.135000X0.185000X-0.135000X0.185000X0.135000X-0.185000X0.135000X-0.185000X-0.135000X0*%
%ADD39RoundRect,0.225000X0.250000X-0.225000X0.250000X0.225000X-0.250000X0.225000X-0.250000X-0.225000X0*%
%ADD40R,1.700000X1.700000*%
%ADD41C,1.700000*%
%ADD42RoundRect,0.150000X-0.150000X0.512500X-0.150000X-0.512500X0.150000X-0.512500X0.150000X0.512500X0*%
%ADD43RoundRect,0.135000X-0.135000X-0.185000X0.135000X-0.185000X0.135000X0.185000X-0.135000X0.185000X0*%
%ADD44RoundRect,0.135000X0.135000X0.185000X-0.135000X0.185000X-0.135000X-0.185000X0.135000X-0.185000X0*%
%ADD45RoundRect,0.218750X-0.218750X-0.256250X0.218750X-0.256250X0.218750X0.256250X-0.218750X0.256250X0*%
%ADD46RoundRect,0.218750X0.218750X0.256250X-0.218750X0.256250X-0.218750X-0.256250X0.218750X-0.256250X0*%
%ADD47C,3.000000*%
%ADD48C,4.000000*%
%ADD49C,0.800000*%
G04 APERTURE END LIST*
G36*
X223225000Y-138200000D02*
G01*
X222925000Y-138200000D01*
X222925000Y-136700000D01*
X223225000Y-136700000D01*
X223225000Y-138200000D01*
G37*
D10*
X348071200Y-81788000D02*
G75*
G02*
X346771200Y-81788000I-650000J0D01*
G01*
X346771200Y-81788000D02*
G75*
G02*
X348071200Y-81788000I650000J0D01*
G01*
X62981600Y-207822800D02*
G75*
G02*
X61681600Y-207822800I-650000J0D01*
G01*
X61681600Y-207822800D02*
G75*
G02*
X62981600Y-207822800I650000J0D01*
G01*
G36*
X184750000Y-136625000D02*
G01*
X185050000Y-136625000D01*
X185050000Y-138125000D01*
X184750000Y-138125000D01*
X184750000Y-136625000D01*
G37*
X62981600Y-81686400D02*
G75*
G02*
X61681600Y-81686400I-650000J0D01*
G01*
X61681600Y-81686400D02*
G75*
G02*
X62981600Y-81686400I650000J0D01*
G01*
X346648800Y-208076800D02*
G75*
G02*
X345348800Y-208076800I-650000J0D01*
G01*
X345348800Y-208076800D02*
G75*
G02*
X346648800Y-208076800I650000J0D01*
G01*
D11*
X211125000Y-108790000D03*
X211125000Y-109810000D03*
D12*
X197725000Y-108775001D03*
X197725000Y-110425001D03*
D13*
X188119000Y-128650000D03*
X190319000Y-128650000D03*
X190319000Y-126950000D03*
X188119000Y-126950000D03*
D14*
X80000000Y-116150000D03*
D15*
X223725000Y-137450000D03*
X222425000Y-137450000D03*
D16*
X222151000Y-125552200D03*
X223111000Y-125552200D03*
D17*
X342747600Y-206603600D03*
D18*
X199250000Y-111762501D03*
X200200000Y-111762501D03*
X201150000Y-111762501D03*
X201150000Y-109487501D03*
X200200000Y-109487501D03*
X199250000Y-109487501D03*
D16*
X194690000Y-128670000D03*
X195650000Y-128670000D03*
D14*
X227056000Y-166950000D03*
D19*
X219671000Y-95950000D03*
X208241000Y-95950000D03*
D20*
X218401000Y-102300000D03*
D21*
X217131000Y-104840000D03*
X215861000Y-102300000D03*
X214591000Y-104840000D03*
X213321000Y-102300000D03*
X212051000Y-104840000D03*
X210781000Y-102300000D03*
X209511000Y-104840000D03*
D22*
X193075000Y-127400000D03*
X194725000Y-127400000D03*
D23*
X186769000Y-122450000D03*
X187269000Y-122450000D03*
X187769000Y-122450000D03*
X188269000Y-122450000D03*
X188769000Y-122450000D03*
X189269000Y-122450000D03*
X189769000Y-122450000D03*
X190269000Y-122450000D03*
X190769000Y-122450000D03*
X191269000Y-122450000D03*
X191769000Y-122450000D03*
X192269000Y-122450000D03*
X192769000Y-122450000D03*
X193269000Y-122450000D03*
X193769000Y-122450000D03*
X194269000Y-122450000D03*
D24*
X196194000Y-120525000D03*
X196194000Y-120025000D03*
X196194000Y-119525000D03*
X196194000Y-119025000D03*
X196194000Y-118525000D03*
X196194000Y-118025000D03*
X196194000Y-117525000D03*
X196194000Y-117025000D03*
X196194000Y-116525000D03*
X196194000Y-116025000D03*
X196194000Y-115525000D03*
X196194000Y-115025000D03*
X196194000Y-114525000D03*
X196194000Y-114025000D03*
X196194000Y-113525000D03*
X196194000Y-113025000D03*
D23*
X194269000Y-111100000D03*
X193769000Y-111100000D03*
X193269000Y-111100000D03*
X192769000Y-111100000D03*
X192269000Y-111100000D03*
X191769000Y-111100000D03*
X191269000Y-111100000D03*
X190769000Y-111100000D03*
X190269000Y-111100000D03*
X189769000Y-111100000D03*
X189269000Y-111100000D03*
X188769000Y-111100000D03*
X188269000Y-111100000D03*
X187769000Y-111100000D03*
X187269000Y-111100000D03*
X186769000Y-111100000D03*
D24*
X184844000Y-113025000D03*
X184844000Y-113525000D03*
X184844000Y-114025000D03*
X184844000Y-114525000D03*
X184844000Y-115025000D03*
X184844000Y-115525000D03*
X184844000Y-116025000D03*
X184844000Y-116525000D03*
X184844000Y-117025000D03*
X184844000Y-117525000D03*
X184844000Y-118025000D03*
X184844000Y-118525000D03*
X184844000Y-119025000D03*
X184844000Y-119525000D03*
X184844000Y-120025000D03*
X184844000Y-120525000D03*
D25*
X177800000Y-138800000D03*
D14*
X181200000Y-166950000D03*
D26*
X211950000Y-107400000D03*
X210300000Y-107400000D03*
D11*
X199250000Y-107065001D03*
X199250000Y-108085001D03*
D27*
X122414800Y-91287600D03*
X121614800Y-91287600D03*
X120814800Y-91287600D03*
X120014800Y-91287600D03*
X119214800Y-91287600D03*
X118414800Y-91287600D03*
D28*
X220670000Y-125525000D03*
X219710000Y-125525000D03*
D29*
X214020400Y-115925600D03*
D17*
X65735200Y-82346800D03*
D30*
X229489000Y-119662000D03*
X229489000Y-120622000D03*
D14*
X155800000Y-150450000D03*
D16*
X226420000Y-128400000D03*
X227380000Y-128400000D03*
D28*
X186780000Y-124000000D03*
X185820000Y-124000000D03*
D31*
X231446000Y-97600000D03*
X225666000Y-97600000D03*
D32*
X231806000Y-99045000D03*
X231006000Y-99045000D03*
D33*
X229806000Y-99045000D03*
X228806000Y-99045000D03*
X228306000Y-99045000D03*
X227306000Y-99045000D03*
D32*
X226106000Y-99045000D03*
X225306000Y-99045000D03*
X225306000Y-99045000D03*
X226106000Y-99045000D03*
D33*
X226806000Y-99045000D03*
X227806000Y-99045000D03*
X229306000Y-99045000D03*
X230306000Y-99045000D03*
D32*
X231006000Y-99045000D03*
X231806000Y-99045000D03*
D34*
X232876000Y-98130000D03*
D35*
X232876000Y-93950000D03*
D34*
X224236000Y-98130000D03*
D35*
X224236000Y-93950000D03*
D14*
X328256000Y-116150000D03*
X80000000Y-154150000D03*
D27*
X180987600Y-91287600D03*
X180187600Y-91287600D03*
X179387600Y-91287600D03*
X178587600Y-91287600D03*
X177787600Y-91287600D03*
X176987600Y-91287600D03*
D18*
X209175000Y-113525000D03*
X210125000Y-113525000D03*
X211075000Y-113525000D03*
X211075000Y-111250000D03*
X210125000Y-111250000D03*
X209175000Y-111250000D03*
D14*
X252456000Y-150450000D03*
D16*
X218220000Y-109550000D03*
X219180000Y-109550000D03*
D11*
X210000000Y-119490000D03*
X210000000Y-120510000D03*
D36*
X217525000Y-108300000D03*
X219075000Y-108300000D03*
D25*
X230456000Y-138800000D03*
D37*
X214925000Y-120755000D03*
X214925000Y-119795000D03*
D22*
X224675000Y-127100000D03*
X226325000Y-127100000D03*
D30*
X197800000Y-112720000D03*
X197800000Y-113680000D03*
D27*
X250926800Y-189992000D03*
X251726800Y-189992000D03*
X252526800Y-189992000D03*
X253326800Y-189992000D03*
X254126800Y-189992000D03*
X254926800Y-189992000D03*
D38*
X179940000Y-106810000D03*
X179940000Y-105790000D03*
D14*
X252456000Y-112450000D03*
D39*
X182000000Y-121075000D03*
X182000000Y-119525000D03*
D11*
X223980000Y-104350000D03*
X223980000Y-105370000D03*
D40*
X223766000Y-133800000D03*
D41*
X221226000Y-133800000D03*
X218686000Y-133800000D03*
X216146000Y-133800000D03*
D28*
X224635000Y-124079000D03*
X223675000Y-124079000D03*
D27*
X289813600Y-91287600D03*
X289013600Y-91287600D03*
X288213600Y-91287600D03*
X287413600Y-91287600D03*
X286613600Y-91287600D03*
X285813600Y-91287600D03*
D31*
X182590000Y-97600000D03*
X176810000Y-97600000D03*
D32*
X182950000Y-99045000D03*
X182150000Y-99045000D03*
D33*
X180950000Y-99045000D03*
X179950000Y-99045000D03*
X179450000Y-99045000D03*
X178450000Y-99045000D03*
D32*
X177250000Y-99045000D03*
X176450000Y-99045000D03*
X176450000Y-99045000D03*
X177250000Y-99045000D03*
D33*
X177950000Y-99045000D03*
X178950000Y-99045000D03*
X180450000Y-99045000D03*
X181450000Y-99045000D03*
D32*
X182150000Y-99045000D03*
X182950000Y-99045000D03*
D34*
X184020000Y-98130000D03*
D35*
X184020000Y-93950000D03*
D34*
X175380000Y-98130000D03*
D35*
X175380000Y-93950000D03*
D11*
X201175000Y-107065001D03*
X201175000Y-108085001D03*
D42*
X180575000Y-101262500D03*
X179625000Y-101262500D03*
X178675000Y-101262500D03*
X178675000Y-103537500D03*
X179625000Y-103537500D03*
X180575000Y-103537500D03*
D16*
X186520000Y-109500000D03*
X187480000Y-109500000D03*
D37*
X183300000Y-120780000D03*
X183300000Y-119820000D03*
D43*
X176782000Y-122631200D03*
X177802000Y-122631200D03*
D23*
X218425000Y-122450000D03*
X218925000Y-122450000D03*
X219425000Y-122450000D03*
X219925000Y-122450000D03*
X220425000Y-122450000D03*
X220925000Y-122450000D03*
X221425000Y-122450000D03*
X221925000Y-122450000D03*
X222425000Y-122450000D03*
X222925000Y-122450000D03*
X223425000Y-122450000D03*
X223925000Y-122450000D03*
X224425000Y-122450000D03*
X224925000Y-122450000D03*
X225425000Y-122450000D03*
X225925000Y-122450000D03*
D24*
X227850000Y-120525000D03*
X227850000Y-120025000D03*
X227850000Y-119525000D03*
X227850000Y-119025000D03*
X227850000Y-118525000D03*
X227850000Y-118025000D03*
X227850000Y-117525000D03*
X227850000Y-117025000D03*
X227850000Y-116525000D03*
X227850000Y-116025000D03*
X227850000Y-115525000D03*
X227850000Y-115025000D03*
X227850000Y-114525000D03*
X227850000Y-114025000D03*
X227850000Y-113525000D03*
X227850000Y-113025000D03*
D23*
X225925000Y-111100000D03*
X225425000Y-111100000D03*
X224925000Y-111100000D03*
X224425000Y-111100000D03*
X223925000Y-111100000D03*
X223425000Y-111100000D03*
X222925000Y-111100000D03*
X222425000Y-111100000D03*
X221925000Y-111100000D03*
X221425000Y-111100000D03*
X220925000Y-111100000D03*
X220425000Y-111100000D03*
X219925000Y-111100000D03*
X219425000Y-111100000D03*
X218925000Y-111100000D03*
X218425000Y-111100000D03*
D24*
X216500000Y-113025000D03*
X216500000Y-113525000D03*
X216500000Y-114025000D03*
X216500000Y-114525000D03*
X216500000Y-115025000D03*
X216500000Y-115525000D03*
X216500000Y-116025000D03*
X216500000Y-116525000D03*
X216500000Y-117025000D03*
X216500000Y-117525000D03*
X216500000Y-118025000D03*
X216500000Y-118525000D03*
X216500000Y-119025000D03*
X216500000Y-119525000D03*
X216500000Y-120025000D03*
X216500000Y-120525000D03*
D43*
X176782000Y-121615200D03*
X177802000Y-121615200D03*
D44*
X182577200Y-122986800D03*
X181557200Y-122986800D03*
D28*
X193110000Y-128670000D03*
X192150000Y-128670000D03*
D44*
X217810000Y-136950000D03*
X216790000Y-136950000D03*
D15*
X184250000Y-137375000D03*
X185550000Y-137375000D03*
D25*
X208956000Y-138800000D03*
D27*
X67831200Y-175260000D03*
X68631200Y-175260000D03*
X69431200Y-175260000D03*
X70231200Y-175260000D03*
X71031200Y-175260000D03*
X71831200Y-175260000D03*
D17*
X344119200Y-82448400D03*
D29*
X181051200Y-115443000D03*
D45*
X219057500Y-136950000D03*
X220632500Y-136950000D03*
D28*
X188580000Y-125300000D03*
X187620000Y-125300000D03*
D30*
X197800000Y-119320000D03*
X197800000Y-120280000D03*
D44*
X213610000Y-125200000D03*
X212590000Y-125200000D03*
D14*
X155800000Y-112450000D03*
D43*
X190165000Y-136825000D03*
X191185000Y-136825000D03*
D11*
X209150000Y-108790000D03*
X209150000Y-109810000D03*
D30*
X229425000Y-112820000D03*
X229425000Y-113780000D03*
D17*
X65684400Y-205689200D03*
D28*
X218105000Y-124025000D03*
X217145000Y-124025000D03*
D27*
X336639200Y-175260000D03*
X337439200Y-175260000D03*
X338239200Y-175260000D03*
X339039200Y-175260000D03*
X339839200Y-175260000D03*
X340639200Y-175260000D03*
D13*
X219775000Y-128650000D03*
X221975000Y-128650000D03*
X221975000Y-126950000D03*
X219775000Y-126950000D03*
D27*
X153518000Y-189992000D03*
X154318000Y-189992000D03*
X155118000Y-189992000D03*
X155918000Y-189992000D03*
X156718000Y-189992000D03*
X157518000Y-189992000D03*
D14*
X328256000Y-154150000D03*
D28*
X224680000Y-128400000D03*
X223720000Y-128400000D03*
D25*
X199300000Y-138800000D03*
D42*
X229475000Y-101362500D03*
X228525000Y-101362500D03*
X227575000Y-101362500D03*
X227575000Y-103637500D03*
X228525000Y-103637500D03*
X229475000Y-103637500D03*
D19*
X200015000Y-95950000D03*
X188585000Y-95950000D03*
D20*
X198745000Y-102300000D03*
D21*
X197475000Y-104840000D03*
X196205000Y-102300000D03*
X194935000Y-104840000D03*
X193665000Y-102300000D03*
X192395000Y-104840000D03*
X191125000Y-102300000D03*
X189855000Y-104840000D03*
D46*
X188912500Y-136850000D03*
X187337500Y-136850000D03*
D28*
X192980000Y-124000000D03*
X192020000Y-124000000D03*
D16*
X190440000Y-125300000D03*
X191400000Y-125300000D03*
D40*
X192110000Y-133800000D03*
D41*
X189570000Y-133800000D03*
X187030000Y-133800000D03*
X184490000Y-133800000D03*
D27*
X231616000Y-91288400D03*
X230816000Y-91288400D03*
X230016000Y-91288400D03*
X229216000Y-91288400D03*
X228416000Y-91288400D03*
X227616000Y-91288400D03*
D11*
X211000000Y-119490000D03*
X211000000Y-120510000D03*
D41*
X305186000Y-101900000D03*
D47*
X302646000Y-96820000D03*
D48*
X300106000Y-101900000D03*
D47*
X296296000Y-99360000D03*
D41*
X295026000Y-101900000D03*
X276786000Y-178100000D03*
D47*
X274246000Y-173020000D03*
D48*
X271706000Y-178100000D03*
D47*
X267896000Y-175560000D03*
D41*
X266626000Y-178100000D03*
X228986000Y-151850000D03*
D47*
X226446000Y-146770000D03*
D48*
X223906000Y-151850000D03*
D47*
X220096000Y-149310000D03*
D41*
X218826000Y-151850000D03*
X94180000Y-144850000D03*
D47*
X91640000Y-139770000D03*
D48*
X89100000Y-144850000D03*
D47*
X85290000Y-142310000D03*
D41*
X84020000Y-144850000D03*
X132280000Y-119550000D03*
D47*
X129740000Y-114470000D03*
D48*
X127200000Y-119550000D03*
D47*
X123390000Y-117010000D03*
D41*
X122120000Y-119550000D03*
X132280000Y-138600000D03*
D47*
X129740000Y-133520000D03*
D48*
X127200000Y-138600000D03*
D47*
X123390000Y-136060000D03*
D41*
X122120000Y-138600000D03*
X170380000Y-142400000D03*
D47*
X167840000Y-137320000D03*
D48*
X165300000Y-142400000D03*
D47*
X161490000Y-139860000D03*
D41*
X160220000Y-142400000D03*
X94180000Y-106750000D03*
D47*
X91640000Y-101670000D03*
D48*
X89100000Y-106750000D03*
D47*
X85290000Y-104210000D03*
D41*
X84020000Y-106750000D03*
X75130000Y-146300000D03*
D47*
X72590000Y-141220000D03*
D48*
X70050000Y-146300000D03*
D47*
X66240000Y-143760000D03*
D41*
X64970000Y-146300000D03*
X151330000Y-120950000D03*
D47*
X148790000Y-115870000D03*
D48*
X146250000Y-120950000D03*
D47*
X142440000Y-118410000D03*
D41*
X141170000Y-120950000D03*
X267086000Y-101900000D03*
D47*
X264546000Y-96820000D03*
D48*
X262006000Y-101900000D03*
D47*
X258196000Y-99360000D03*
D41*
X256926000Y-101900000D03*
X267086000Y-159050000D03*
D47*
X264546000Y-153970000D03*
D48*
X262006000Y-159050000D03*
D47*
X258196000Y-156510000D03*
D41*
X256926000Y-159050000D03*
X132280000Y-157650000D03*
D47*
X129740000Y-152570000D03*
D48*
X127200000Y-157650000D03*
D47*
X123390000Y-155110000D03*
D41*
X122120000Y-157650000D03*
X113230000Y-120950000D03*
D47*
X110690000Y-115870000D03*
D48*
X108150000Y-120950000D03*
D47*
X104340000Y-118410000D03*
D41*
X103070000Y-120950000D03*
X305186000Y-120950000D03*
D47*
X302646000Y-115870000D03*
D48*
X300106000Y-120950000D03*
D47*
X296296000Y-118410000D03*
D41*
X295026000Y-120950000D03*
X170380000Y-123350000D03*
D47*
X167840000Y-118270000D03*
D48*
X165300000Y-123350000D03*
D47*
X161490000Y-120810000D03*
D41*
X160220000Y-123350000D03*
X286136000Y-100500000D03*
D47*
X283596000Y-95420000D03*
D48*
X281056000Y-100500000D03*
D47*
X277246000Y-97960000D03*
D41*
X275976000Y-100500000D03*
X122580000Y-178100000D03*
D47*
X120040000Y-173020000D03*
D48*
X117500000Y-178100000D03*
D47*
X113690000Y-175560000D03*
D41*
X112420000Y-178100000D03*
X189430000Y-151850000D03*
D47*
X186890000Y-146770000D03*
D48*
X184350000Y-151850000D03*
D47*
X180540000Y-149310000D03*
D41*
X179270000Y-151850000D03*
X324236000Y-144850000D03*
D47*
X321696000Y-139770000D03*
D48*
X319156000Y-144850000D03*
D47*
X315346000Y-142310000D03*
D41*
X314076000Y-144850000D03*
X343286000Y-146300000D03*
D47*
X340746000Y-141220000D03*
D48*
X338206000Y-146300000D03*
D47*
X334396000Y-143760000D03*
D41*
X333126000Y-146300000D03*
X248036000Y-104300000D03*
D47*
X245496000Y-99220000D03*
D48*
X242956000Y-104300000D03*
D47*
X239146000Y-101760000D03*
D41*
X237876000Y-104300000D03*
X132280000Y-100500000D03*
D47*
X129740000Y-95420000D03*
D48*
X127200000Y-100500000D03*
D47*
X123390000Y-97960000D03*
D41*
X122120000Y-100500000D03*
X286136000Y-157650000D03*
D47*
X283596000Y-152570000D03*
D48*
X281056000Y-157650000D03*
D47*
X277246000Y-155110000D03*
D41*
X275976000Y-157650000D03*
X257736000Y-180500000D03*
D47*
X255196000Y-175420000D03*
D48*
X252656000Y-180500000D03*
D47*
X248846000Y-177960000D03*
D41*
X247576000Y-180500000D03*
X248036000Y-123350000D03*
D47*
X245496000Y-118270000D03*
D48*
X242956000Y-123350000D03*
D47*
X239146000Y-120810000D03*
D41*
X237876000Y-123350000D03*
X151330000Y-140000000D03*
D47*
X148790000Y-134920000D03*
D48*
X146250000Y-140000000D03*
D47*
X142440000Y-137460000D03*
D41*
X141170000Y-140000000D03*
X324236000Y-106750000D03*
D47*
X321696000Y-101670000D03*
D48*
X319156000Y-106750000D03*
D47*
X315346000Y-104210000D03*
D41*
X314076000Y-106750000D03*
X94180000Y-163900000D03*
D47*
X91640000Y-158820000D03*
D48*
X89100000Y-163900000D03*
D47*
X85290000Y-161360000D03*
D41*
X84020000Y-163900000D03*
X141630000Y-178100000D03*
D47*
X139090000Y-173020000D03*
D48*
X136550000Y-178100000D03*
D47*
X132740000Y-175560000D03*
D41*
X131470000Y-178100000D03*
X113230000Y-140000000D03*
D47*
X110690000Y-134920000D03*
D48*
X108150000Y-140000000D03*
D47*
X104340000Y-137460000D03*
D41*
X103070000Y-140000000D03*
X248036000Y-142400000D03*
D47*
X245496000Y-137320000D03*
D48*
X242956000Y-142400000D03*
D47*
X239146000Y-139860000D03*
D41*
X237876000Y-142400000D03*
X229996000Y-185699409D03*
D47*
X233125409Y-180959705D03*
D48*
X227456000Y-181300000D03*
D47*
X227750705Y-176730443D03*
D41*
X224916000Y-176900591D03*
X295836000Y-178100000D03*
D47*
X293296000Y-173020000D03*
D48*
X290756000Y-178100000D03*
D47*
X286946000Y-175560000D03*
D41*
X285676000Y-178100000D03*
X286136000Y-138600000D03*
D47*
X283596000Y-133520000D03*
D48*
X281056000Y-138600000D03*
D47*
X277246000Y-136060000D03*
D41*
X275976000Y-138600000D03*
X267086000Y-140000000D03*
D47*
X264546000Y-134920000D03*
D48*
X262006000Y-140000000D03*
D47*
X258196000Y-137460000D03*
D41*
X256926000Y-140000000D03*
X343286000Y-108200000D03*
D47*
X340746000Y-103120000D03*
D48*
X338206000Y-108200000D03*
D47*
X334396000Y-105660000D03*
D41*
X333126000Y-108200000D03*
X305186000Y-159050000D03*
D47*
X302646000Y-153970000D03*
D48*
X300106000Y-159050000D03*
D47*
X296296000Y-156510000D03*
D41*
X295026000Y-159050000D03*
X113230000Y-101900000D03*
D47*
X110690000Y-96820000D03*
D48*
X108150000Y-101900000D03*
D47*
X104340000Y-99360000D03*
D41*
X103070000Y-101900000D03*
X286136000Y-119550000D03*
D47*
X283596000Y-114470000D03*
D48*
X281056000Y-119550000D03*
D47*
X277246000Y-117010000D03*
D41*
X275976000Y-119550000D03*
X183340000Y-176900591D03*
D47*
X177670591Y-176560295D03*
D48*
X180800000Y-181300000D03*
D47*
X176695295Y-183329557D03*
D41*
X178260000Y-185699409D03*
X75130000Y-165350000D03*
D47*
X72590000Y-160270000D03*
D48*
X70050000Y-165350000D03*
D47*
X66240000Y-162810000D03*
D41*
X64970000Y-165350000D03*
X343286000Y-127250000D03*
D47*
X340746000Y-122170000D03*
D48*
X338206000Y-127250000D03*
D47*
X334396000Y-124710000D03*
D41*
X333126000Y-127250000D03*
X75130000Y-127250000D03*
D47*
X72590000Y-122170000D03*
D48*
X70050000Y-127250000D03*
D47*
X66240000Y-124710000D03*
D41*
X64970000Y-127250000D03*
X151330000Y-101900000D03*
D47*
X148790000Y-96820000D03*
D48*
X146250000Y-101900000D03*
D47*
X142440000Y-99360000D03*
D41*
X141170000Y-101900000D03*
X324236000Y-125800000D03*
D47*
X321696000Y-120720000D03*
D48*
X319156000Y-125800000D03*
D47*
X315346000Y-123260000D03*
D41*
X314076000Y-125800000D03*
X324236000Y-163900000D03*
D47*
X321696000Y-158820000D03*
D48*
X319156000Y-163900000D03*
D47*
X315346000Y-161360000D03*
D41*
X314076000Y-163900000D03*
X170380000Y-161450000D03*
D47*
X167840000Y-156370000D03*
D48*
X165300000Y-161450000D03*
D47*
X161490000Y-158910000D03*
D41*
X160220000Y-161450000D03*
X170380000Y-104300000D03*
D47*
X167840000Y-99220000D03*
D48*
X165300000Y-104300000D03*
D47*
X161490000Y-101760000D03*
D41*
X160220000Y-104300000D03*
X248036000Y-161450000D03*
D47*
X245496000Y-156370000D03*
D48*
X242956000Y-161450000D03*
D47*
X239146000Y-158910000D03*
D41*
X237876000Y-161450000D03*
X75130000Y-108200000D03*
D47*
X72590000Y-103120000D03*
D48*
X70050000Y-108200000D03*
D47*
X66240000Y-105660000D03*
D41*
X64970000Y-108200000D03*
X151330000Y-159050000D03*
D47*
X148790000Y-153970000D03*
D48*
X146250000Y-159050000D03*
D47*
X142440000Y-156510000D03*
D41*
X141170000Y-159050000D03*
X267086000Y-120950000D03*
D47*
X264546000Y-115870000D03*
D48*
X262006000Y-120950000D03*
D47*
X258196000Y-118410000D03*
D41*
X256926000Y-120950000D03*
X94180000Y-125800000D03*
D47*
X91640000Y-120720000D03*
D48*
X89100000Y-125800000D03*
D47*
X85290000Y-123260000D03*
D41*
X84020000Y-125800000D03*
X160680000Y-180500000D03*
D47*
X158140000Y-175420000D03*
D48*
X155600000Y-180500000D03*
D47*
X151790000Y-177960000D03*
D41*
X150520000Y-180500000D03*
X305186000Y-140000000D03*
D47*
X302646000Y-134920000D03*
D48*
X300106000Y-140000000D03*
D47*
X296296000Y-137460000D03*
D41*
X295026000Y-140000000D03*
X343286000Y-165350000D03*
D47*
X340746000Y-160270000D03*
D48*
X338206000Y-165350000D03*
D47*
X334396000Y-162810000D03*
D41*
X333126000Y-165350000D03*
X113230000Y-159050000D03*
D47*
X110690000Y-153970000D03*
D48*
X108150000Y-159050000D03*
D47*
X104340000Y-156510000D03*
D41*
X103070000Y-159050000D03*
D27*
X175615600Y-117348000D03*
D49*
X178816000Y-116535200D03*
X198330000Y-148850000D03*
D27*
X187830000Y-98670000D03*
X197231000Y-163449000D03*
X184890000Y-102750000D03*
X183080000Y-103950000D03*
X198622351Y-113832351D03*
X64109600Y-135686800D03*
X198312500Y-120787500D03*
X192125600Y-119735600D03*
D49*
X180860000Y-119550000D03*
D27*
X200075000Y-93225000D03*
X172720000Y-151180800D03*
X180720000Y-107540000D03*
X178206400Y-193192400D03*
X191330000Y-124000000D03*
X169418000Y-144526000D03*
X200870000Y-99010000D03*
X187502800Y-164642800D03*
D49*
X177770000Y-102380000D03*
D27*
X186385200Y-126034800D03*
X170180000Y-133654800D03*
X172516800Y-112547400D03*
X168300400Y-125323600D03*
X89560400Y-95148400D03*
X180850000Y-140850000D03*
X184979000Y-124002800D03*
X192150000Y-127890000D03*
X190650000Y-94680000D03*
X176470000Y-102130000D03*
D49*
X199870000Y-113090000D03*
D27*
X133096000Y-188671200D03*
X147523200Y-110845600D03*
X175780000Y-116440000D03*
X109880400Y-110845600D03*
X109677200Y-130606800D03*
D49*
X145542000Y-143865600D03*
D27*
X177925000Y-120150000D03*
X150012400Y-130149600D03*
X182650000Y-155690000D03*
X174375000Y-127050000D03*
X195975000Y-110625000D03*
D49*
X104140000Y-144475200D03*
D27*
X190770000Y-95760000D03*
D49*
X126847600Y-149758400D03*
D27*
X176525000Y-104550000D03*
X186525000Y-107525000D03*
X104698800Y-170688000D03*
X188400000Y-93000000D03*
X192060000Y-125300000D03*
X180410000Y-123140000D03*
X200710800Y-134112000D03*
X187960000Y-119278400D03*
X63804800Y-171704000D03*
X201750000Y-121800000D03*
X189100000Y-144530000D03*
X178511200Y-128320800D03*
X195650000Y-107950000D03*
X192278000Y-116332000D03*
X186537600Y-128727200D03*
X168503600Y-129184400D03*
X201200000Y-114600000D03*
X179950000Y-93900000D03*
X187960000Y-116128800D03*
X127050800Y-92456000D03*
X168605200Y-93319600D03*
X151536400Y-150672800D03*
X183140000Y-101450000D03*
D49*
X131064000Y-124714000D03*
D27*
X167700000Y-167050000D03*
X192040000Y-96410000D03*
X195681600Y-125526800D03*
D49*
X90373200Y-131622800D03*
D27*
X169062400Y-106070400D03*
X145491200Y-167843200D03*
X197250000Y-99875000D03*
X183074000Y-128905000D03*
X188350000Y-113500000D03*
X190804800Y-113893600D03*
X193357955Y-121065918D03*
X195834000Y-122377200D03*
X177749200Y-123675000D03*
X186334400Y-117000000D03*
X182168800Y-116450000D03*
X215036400Y-116941600D03*
X212394800Y-118262400D03*
X76450000Y-105000000D03*
X181135711Y-110125000D03*
X189344000Y-109664634D03*
X181866279Y-109775000D03*
X189700716Y-108948562D03*
X95500000Y-103500000D03*
X190239205Y-108356925D03*
X182612638Y-109425000D03*
X114500000Y-98650000D03*
X183349429Y-109075278D03*
X190550000Y-107400000D03*
X133550000Y-97350000D03*
X184068671Y-108725000D03*
X191150000Y-106800000D03*
X152650000Y-98800000D03*
X192050000Y-106860000D03*
X171650000Y-101050000D03*
X185572400Y-108150000D03*
X199600000Y-115450000D03*
X76450000Y-123900000D03*
X183235600Y-114025000D03*
X95450000Y-118950000D03*
X194027039Y-108933513D03*
X182770225Y-112875000D03*
X194700000Y-109650000D03*
X114500000Y-117650000D03*
X182214011Y-113450000D03*
X133550000Y-116200000D03*
X183489600Y-112525000D03*
X193344000Y-109350000D03*
X184550000Y-111500000D03*
X152600000Y-117650000D03*
X192844000Y-108550000D03*
X183550000Y-111100000D03*
X171650000Y-116300000D03*
X192344000Y-107700000D03*
X198476053Y-118786012D03*
X76400000Y-143050000D03*
X201220685Y-119084063D03*
X200838683Y-118381156D03*
X198625000Y-118000000D03*
X95450000Y-141450000D03*
X198051167Y-117378429D03*
X114500000Y-136700000D03*
X200516992Y-117648681D03*
X198625000Y-116816133D03*
X133550000Y-135300000D03*
X200145905Y-116939950D03*
X152600000Y-136500000D03*
X198268413Y-116100000D03*
X199775000Y-116231125D03*
X171650000Y-139050000D03*
X76454000Y-158496000D03*
X148132800Y-147825000D03*
X153670000Y-140462000D03*
X154200785Y-141151998D03*
X95504000Y-156845000D03*
X148691600Y-148437600D03*
X114554000Y-152273000D03*
X148107400Y-149047200D03*
X153570998Y-141726998D03*
X133604000Y-150876000D03*
X194758000Y-119989413D03*
X154051000Y-142367000D03*
X197485000Y-122809000D03*
X148656959Y-149628568D03*
X154619000Y-142996998D03*
X197358000Y-121860000D03*
X194831025Y-119112975D03*
X153350000Y-148175000D03*
X171577000Y-154432000D03*
X155194000Y-143637000D03*
X183515000Y-129755000D03*
X124079000Y-170942000D03*
X191135000Y-141732000D03*
X192024000Y-142367000D03*
X143129000Y-171069000D03*
X184404000Y-129755000D03*
X162179000Y-173482000D03*
X182499000Y-129755000D03*
X187706000Y-172720000D03*
X181610000Y-129755000D03*
X180721000Y-129667000D03*
X249809000Y-101092000D03*
D49*
X180850000Y-121100000D03*
D27*
X182175000Y-125175000D03*
X185216800Y-125272800D03*
X179984400Y-135839200D03*
X194767200Y-113284000D03*
X198625000Y-119657821D03*
X179000000Y-106575000D03*
D49*
X177350000Y-110925000D03*
D27*
X269113000Y-98679000D03*
X229450000Y-112050000D03*
D49*
X211850000Y-115700000D03*
X230632000Y-119700000D03*
D27*
X225600000Y-130079000D03*
D49*
X230886000Y-124968000D03*
X217525600Y-111125000D03*
D27*
X214900000Y-126100000D03*
X214200000Y-121800000D03*
X223020000Y-104470000D03*
X287909000Y-97155000D03*
X307213000Y-98679000D03*
X326644000Y-103505000D03*
X177950000Y-100320000D03*
X181325000Y-100275000D03*
X345313000Y-104775000D03*
X249301000Y-116459000D03*
X256006600Y-111252000D03*
X248564400Y-110786000D03*
X268478000Y-114046000D03*
X249301000Y-110436000D03*
X255447800Y-110642400D03*
X287401000Y-112649000D03*
X250063000Y-110086000D03*
X306451000Y-114046000D03*
X254863600Y-110086000D03*
X325501000Y-118491000D03*
X344551000Y-120015000D03*
X249301000Y-135001000D03*
X268605000Y-132715000D03*
X287528000Y-131318000D03*
X306451000Y-132842000D03*
X325501000Y-137033000D03*
X344551000Y-138938000D03*
X249301000Y-154432000D03*
X268351000Y-152019000D03*
X287401000Y-150749000D03*
X306451000Y-152019000D03*
X324993000Y-155956000D03*
X344678000Y-157607000D03*
X230124000Y-143256000D03*
X229743000Y-188468000D03*
X216027000Y-131445000D03*
X258826000Y-173101000D03*
X217816733Y-119063094D03*
X218694000Y-118999000D03*
X216662000Y-130937000D03*
X277876000Y-170434000D03*
X217297000Y-130429000D03*
X219710000Y-118872000D03*
X296799000Y-170688000D03*
X219805117Y-113601744D03*
X222278278Y-113763794D03*
X220957000Y-119657000D03*
X219762500Y-119962500D03*
X213100000Y-124275000D03*
X208800000Y-144900000D03*
X213100000Y-126100000D03*
X209075000Y-120875000D03*
X317703200Y-95250000D03*
X260756400Y-112217200D03*
X223710000Y-127620000D03*
X230370000Y-128790000D03*
X269875000Y-148725000D03*
X343154000Y-97790000D03*
X220975000Y-141225000D03*
D49*
X280873200Y-105613200D03*
D27*
X216154000Y-112166400D03*
X223875600Y-119811800D03*
X227838000Y-121666000D03*
X214360000Y-119230000D03*
X207450000Y-99675000D03*
X206875000Y-109025000D03*
X215452001Y-124561172D03*
X236575600Y-105918000D03*
X223830000Y-125550000D03*
X232613200Y-121564400D03*
X208100000Y-119025000D03*
D49*
X208340000Y-112390000D03*
D27*
X217200000Y-100400000D03*
X230136000Y-121010000D03*
X346964000Y-127355600D03*
X219710000Y-124680000D03*
D49*
X219075000Y-107061000D03*
D27*
X219506800Y-163728400D03*
X232765600Y-151231600D03*
X241858800Y-117805200D03*
X225958400Y-116586000D03*
X232765600Y-111912400D03*
X221980000Y-129670000D03*
X247802400Y-170332400D03*
X225350000Y-101300000D03*
X220890000Y-104330000D03*
X211380000Y-96880000D03*
X215138000Y-130175000D03*
X222410000Y-115750000D03*
X239776000Y-125476000D03*
X211790000Y-96290000D03*
X234560000Y-117200000D03*
X252095000Y-105308400D03*
X220600000Y-129900000D03*
X216140000Y-145090000D03*
D49*
X226710000Y-102480000D03*
D27*
X214475000Y-113200000D03*
X238252000Y-112268000D03*
X301955200Y-168198800D03*
D49*
X323240400Y-132791200D03*
D27*
X210230000Y-94630000D03*
X211074000Y-164211000D03*
X219875000Y-92925000D03*
X228010000Y-125470000D03*
X219900000Y-116620000D03*
X228450000Y-93625000D03*
X208025000Y-115925000D03*
X215075000Y-96775000D03*
X233324400Y-191211200D03*
X213360000Y-128143000D03*
D49*
X306374800Y-147421600D03*
D27*
X282041600Y-92151200D03*
X237075000Y-132125000D03*
X208050000Y-93150000D03*
X231860000Y-105960000D03*
X230124000Y-113800000D03*
X232050000Y-104500000D03*
X232120000Y-101310000D03*
X241808000Y-92811600D03*
X277977600Y-187045600D03*
X222850000Y-124070000D03*
X209375000Y-129175000D03*
X299008800Y-130302000D03*
X260045200Y-129590800D03*
X242115230Y-165437851D03*
X314147200Y-115722400D03*
X346710000Y-165252400D03*
D49*
X282295600Y-163271200D03*
X209980000Y-148790000D03*
D27*
X214075000Y-110225000D03*
X188225000Y-121160000D03*
X184251600Y-121412000D03*
X187133622Y-117035327D03*
X183438800Y-115620800D03*
D49*
X179620000Y-104900000D03*
X196925000Y-97500000D03*
X188210000Y-100450000D03*
X219832107Y-99867893D03*
X228510000Y-105090000D03*
D27*
X230210000Y-100360000D03*
X226800000Y-100400000D03*
M02*
