G04 #@! TF.GenerationSoftware,KiCad,Pcbnew,9.0.1*
G04 #@! TF.CreationDate,2025-05-18T12:40:25+12:00*
G04 #@! TF.ProjectId,Koca58,4b6f6361-3538-42e6-9b69-6361645f7063,v1.0.2*
G04 #@! TF.SameCoordinates,Original*
G04 #@! TF.FileFunction,Paste,Bot*
G04 #@! TF.FilePolarity,Positive*
%FSLAX46Y46*%
G04 Gerber Fmt 4.6, Leading zero omitted, Abs format (unit mm)*
G04 Created by KiCad (PCBNEW 9.0.1) date 2025-05-18 12:40:25*
%MOMM*%
%LPD*%
G01*
G04 APERTURE LIST*
G04 Aperture macros list*
%AMRoundRect*
0 Rectangle with rounded corners*
0 $1 Rounding radius*
0 $2 $3 $4 $5 $6 $7 $8 $9 X,Y pos of 4 corners*
0 Add a 4 corners polygon primitive as box body*
4,1,4,$2,$3,$4,$5,$6,$7,$8,$9,$2,$3,0*
0 Add four circle primitives for the rounded corners*
1,1,$1+$1,$2,$3*
1,1,$1+$1,$4,$5*
1,1,$1+$1,$6,$7*
1,1,$1+$1,$8,$9*
0 Add four rect primitives between the rounded corners*
20,1,$1+$1,$2,$3,$4,$5,0*
20,1,$1+$1,$4,$5,$6,$7,0*
20,1,$1+$1,$6,$7,$8,$9,0*
20,1,$1+$1,$8,$9,$2,$3,0*%
%AMFreePoly0*
4,1,9,3.862500,-0.866500,0.737500,-0.866500,0.737500,-0.450000,-0.737500,-0.450000,-0.737500,0.450000,0.737500,0.450000,0.737500,0.866500,3.862500,0.866500,3.862500,-0.866500,3.862500,-0.866500,$1*%
G04 Aperture macros list end*
%ADD10RoundRect,0.250000X1.250000X1.000000X-1.250000X1.000000X-1.250000X-1.000000X1.250000X-1.000000X0*%
%ADD11RoundRect,0.135000X-0.185000X0.135000X-0.185000X-0.135000X0.185000X-0.135000X0.185000X0.135000X0*%
%ADD12RoundRect,0.218750X-0.256250X0.218750X-0.256250X-0.218750X0.256250X-0.218750X0.256250X0.218750X0*%
%ADD13C,1.800000*%
%ADD14RoundRect,0.225000X0.225000X0.250000X-0.225000X0.250000X-0.225000X-0.250000X0.225000X-0.250000X0*%
%ADD15RoundRect,0.250000X1.491025X-0.582532X0.241025X1.582532X-1.491025X0.582532X-0.241025X-1.582532X0*%
%ADD16RoundRect,0.225000X-0.225000X0.425000X-0.225000X-0.425000X0.225000X-0.425000X0.225000X0.425000X0*%
%ADD17FreePoly0,270.000000*%
%ADD18R,1.500000X1.500000*%
%ADD19RoundRect,0.250000X-0.241025X1.582532X-1.491025X-0.582532X0.241025X-1.582532X1.491025X0.582532X0*%
G04 APERTURE END LIST*
D10*
X292486000Y-99360000D03*
X306456000Y-96820000D03*
X264086000Y-175560000D03*
X278056000Y-173020000D03*
X216286000Y-149310000D03*
X230256000Y-146770000D03*
X81480000Y-142310000D03*
X95450000Y-139770000D03*
X119580000Y-117010000D03*
X133550000Y-114470000D03*
X119580000Y-136060000D03*
X133550000Y-133520000D03*
X157680000Y-139860000D03*
X171650000Y-137320000D03*
X81480000Y-104210000D03*
X95450000Y-101670000D03*
X62430000Y-143760000D03*
X76400000Y-141220000D03*
X138630000Y-118410000D03*
X152600000Y-115870000D03*
X254386000Y-99360000D03*
X268356000Y-96820000D03*
X254386000Y-156510000D03*
X268356000Y-153970000D03*
D11*
X226806000Y-98535000D03*
X226806000Y-99555000D03*
D12*
X216600000Y-94662500D03*
X216600000Y-96237500D03*
D10*
X119580000Y-155110000D03*
X133550000Y-152570000D03*
X100530000Y-118410000D03*
X114500000Y-115870000D03*
X292486000Y-118410000D03*
X306456000Y-115870000D03*
X157680000Y-120810000D03*
X171650000Y-118270000D03*
X273436000Y-97960000D03*
X287406000Y-95420000D03*
D11*
X180950000Y-98535000D03*
X180950000Y-99555000D03*
D10*
X109880000Y-175560000D03*
X123850000Y-173020000D03*
D13*
X218480000Y-113150000D03*
X221020000Y-113150000D03*
X223560000Y-113150000D03*
X226100000Y-113150000D03*
D10*
X176730000Y-149310000D03*
X190700000Y-146770000D03*
X311536000Y-142310000D03*
X325506000Y-139770000D03*
X330586000Y-143760000D03*
X344556000Y-141220000D03*
X235336000Y-101760000D03*
X249306000Y-99220000D03*
D14*
X213250000Y-99725000D03*
X211700000Y-99725000D03*
D10*
X119580000Y-97960000D03*
X133550000Y-95420000D03*
D13*
X186820000Y-114400000D03*
X189360000Y-114400000D03*
X191900000Y-114400000D03*
X194440000Y-114400000D03*
D10*
X273436000Y-155110000D03*
X287406000Y-152570000D03*
X245036000Y-177960000D03*
X259006000Y-175420000D03*
X235336000Y-120810000D03*
X249306000Y-118270000D03*
X138630000Y-137460000D03*
X152600000Y-134920000D03*
X311536000Y-104210000D03*
X325506000Y-101670000D03*
X81480000Y-161360000D03*
X95450000Y-158820000D03*
X128930000Y-175560000D03*
X142900000Y-173020000D03*
X100530000Y-137460000D03*
X114500000Y-134920000D03*
X235336000Y-139860000D03*
X249306000Y-137320000D03*
D12*
X196925000Y-94700000D03*
X196925000Y-96275000D03*
D14*
X214150000Y-92975000D03*
X212600000Y-92975000D03*
D15*
X225845705Y-173430886D03*
X235030409Y-184259261D03*
D10*
X283136000Y-175560000D03*
X297106000Y-173020000D03*
X273436000Y-136060000D03*
X287406000Y-133520000D03*
X254386000Y-137460000D03*
X268356000Y-134920000D03*
D16*
X211762500Y-94725000D03*
D17*
X213262500Y-94812500D03*
D16*
X214762500Y-94725000D03*
D10*
X330586000Y-105660000D03*
X344556000Y-103120000D03*
D11*
X177950000Y-98535000D03*
X177950000Y-99555000D03*
D18*
X198300000Y-152700000D03*
X198300000Y-144900000D03*
D10*
X292486000Y-156510000D03*
X306456000Y-153970000D03*
X100530000Y-99360000D03*
X114500000Y-96820000D03*
X273436000Y-117010000D03*
X287406000Y-114470000D03*
D19*
X174790295Y-186629114D03*
X179575591Y-173260739D03*
D10*
X62430000Y-162810000D03*
X76400000Y-160270000D03*
X330586000Y-124710000D03*
X344556000Y-122170000D03*
X62430000Y-124710000D03*
X76400000Y-122170000D03*
X138630000Y-99360000D03*
X152600000Y-96820000D03*
X311536000Y-123260000D03*
X325506000Y-120720000D03*
D14*
X193600000Y-99700000D03*
X192050000Y-99700000D03*
D10*
X311536000Y-161360000D03*
X325506000Y-158820000D03*
X157680000Y-158910000D03*
X171650000Y-156370000D03*
X157680000Y-101760000D03*
X171650000Y-99220000D03*
X235336000Y-158910000D03*
X249306000Y-156370000D03*
X62430000Y-105660000D03*
X76400000Y-103120000D03*
D18*
X209956000Y-152700000D03*
X209956000Y-144900000D03*
D10*
X138630000Y-156510000D03*
X152600000Y-153970000D03*
X254386000Y-118410000D03*
X268356000Y-115870000D03*
X81480000Y-123260000D03*
X95450000Y-120720000D03*
X147980000Y-177960000D03*
X161950000Y-175420000D03*
D14*
X194250000Y-92950000D03*
X192700000Y-92950000D03*
D11*
X229806000Y-98535000D03*
X229806000Y-99555000D03*
D10*
X292486000Y-137460000D03*
X306456000Y-134920000D03*
D16*
X192100000Y-94675000D03*
D17*
X193600000Y-94762500D03*
D16*
X195100000Y-94675000D03*
D10*
X330586000Y-162810000D03*
X344556000Y-160270000D03*
X100530000Y-156510000D03*
X114500000Y-153970000D03*
M02*
