M48
; DRILL file KiCad 10.0.5 date 2026-08-27T21:42:00
; FORMAT={-:-/ absolute / metric / decimal}
; #@! TF.CreationDate,2026-08-27T21:42:00+12:00
; #@! TF.GenerationSoftware,Kicad,Pcbnew,10.0.5
; #@! TF.FileFunction,Plated,1,2,PTH
FMAT,2
METRIC
; #@! TA.AperFunction,Plated,PTH,ViaDrill
T1C0.300
; #@! TA.AperFunction,Plated,PTH,ViaDrill
T2C0.400
; #@! TA.AperFunction,Plated,PTH,ViaDrill
T3C0.500
; #@! TA.AperFunction,Plated,PTH,ComponentDrill
T4C0.600
; #@! TA.AperFunction,Plated,PTH,ComponentDrill
T5C0.760
; #@! TA.AperFunction,Plated,PTH,ComponentDrill
T6C1.000
; #@! TA.AperFunction,Plated,PTH,ComponentDrill
T7C2.200
; #@! TA.AperFunction,Plated,PTH,ComponentDrill
T8C4.650
%
G90
G05
T1
X76.4Y-104.85
X76.4Y-123.8
X76.4Y-142.85
X76.4Y-158.6
X79.908Y-147.708
X80.692Y-148.492
X95.45Y-103.35
X95.45Y-122.35
X95.45Y-141.4
X95.5Y-147.945
X95.5Y-149.055
X95.5Y-157.2
X99.158Y-146.008
X100.767Y-147.617
X114.5Y-98.7
X114.5Y-117.5
X114.5Y-136.525
X114.5Y-145.385
X114.5Y-146.805
X114.5Y-152.3
X116.7Y-143.345
X116.7Y-146.805
X123.85Y-171.375
X133.55Y-97.25
X133.55Y-116.1
X133.55Y-135.15
X133.6Y-145.385
X133.6Y-147.115
X133.6Y-150.9
X135.6Y-143.345
X135.6Y-147.115
X142.9Y-171.35
X149.95Y-103.915
X149.95Y-105.955
X151.95Y-105.955
X151.95Y-103.915
X152.6Y-114.2
X152.6Y-136.5
X152.6Y-145.385
X152.6Y-147.425
X152.6Y-152.3
X152.75Y-105.955
X152.75Y-103.915
X153.55Y-103.915
X153.55Y-105.955
X154.434Y-103.466
X154.45Y-96.85
X154.8Y-143.345
X154.8Y-147.425
X155.0Y-102.9
X155.877Y-104.908
X156.442Y-104.342
X156.686Y-96.836
X159.285Y-95.035
X161.075Y-96.825
X161.687Y-94.205
X161.7Y-93.405
X161.75Y-92.295
X161.95Y-173.725
X162.87Y-95.03
X163.75Y-94.15
X171.6Y-146.6
X171.6Y-148.95
X171.6Y-154.7
X171.65Y-95.03
X171.65Y-116.55
X171.65Y-138.95
X172.608Y-142.208
X172.9Y-93.45
X173.8Y-93.45
X174.95Y-100.8
X175.962Y-145.562
X176.575Y-119.25
X177.095Y-102.621
X178.2Y-172.425
X178.223Y-101.627
X180.615Y-137.575
X181.75Y-123.35
X182.119Y-112.375
X182.4Y-139.795
X182.4Y-145.465
X182.655Y-137.575
X182.7Y-127.6
X182.76Y-115.08
X182.77Y-113.47
X182.95Y-104.5
X183.1Y-140.22
X183.1Y-146.025
X183.4Y-125.55
X183.419Y-112.374
X183.45Y-108.9
X183.8Y-140.62
X183.802Y-145.465
X184.55Y-140.945
X184.602Y-145.465
X186.95Y-129.3
X187.081Y-126.863
X187.425Y-124.0
X188.896Y-139.996
X190.5Y-92.7
X190.625Y-124.475
X190.7Y-145.175
X191.056Y-93.394
X191.175Y-136.7
X192.05Y-125.605
X192.05Y-122.735
X192.092Y-143.192
X192.85Y-125.605
X192.85Y-122.735
X194.45Y-113.7
X194.55Y-120.45
X194.606Y-112.501
X194.61Y-110.735
X195.53Y-124.465
X197.005Y-125.05
X199.125Y-144.825
X201.525Y-125.05
X210.157Y-129.968
X210.825Y-144.85
X211.38Y-128.745
X211.4Y-119.35
X212.8Y-155.85
X213.91Y-130.725
X213.91Y-156.65
X213.91Y-157.45
X214.55Y-125.25
X215.02Y-155.85
X215.02Y-156.65
X215.33Y-157.446
X215.43Y-130.725
X216.18Y-137.45
X217.4Y-123.4
X217.775Y-112.35
X217.775Y-121.15
X217.95Y-127.75
X218.925Y-125.7
X219.075Y-112.375
X219.075Y-121.15
X219.2Y-108.9
X222.2Y-129.45
X222.341Y-126.969
X223.075Y-124.075
X225.5Y-103.05
X227.8Y-122.825
X227.8Y-124.555
X228.65Y-122.825
X228.65Y-124.555
X229.137Y-95.95
X229.15Y-97.35
X229.4Y-114.4
X230.125Y-120.575
X230.25Y-145.05
X235.4Y-96.6
X236.525Y-183.425
X249.3Y-116.625
X249.3Y-135.55
X249.3Y-154.65
X249.5Y-100.9
X259.0Y-173.75
X268.35Y-107.525
X268.35Y-108.635
X268.35Y-114.3
X268.35Y-152.275
X268.375Y-133.225
X268.55Y-98.5
X278.05Y-171.325
X287.4Y-112.75
X287.4Y-150.925
X287.425Y-131.775
X287.65Y-97.05
X297.125Y-171.325
X306.4Y-114.1
X306.45Y-133.275
X306.45Y-152.2
X306.55Y-98.4
X325.5Y-118.9
X325.5Y-138.1
X325.525Y-157.05
X325.9Y-103.45
X344.5Y-120.35
X344.55Y-158.45
X344.575Y-139.55
X344.8Y-104.9
T2
X177.8Y-112.7
X212.801Y-112.301
X227.488Y-103.175
T3
X172.54Y-109.7
X173.0Y-103.9
X174.575Y-121.625
X176.3Y-100.35
X176.705Y-121.625
X177.0Y-120.05
X179.86Y-130.92
X181.868Y-103.325
X182.855Y-130.87
X183.347Y-100.353
X184.045Y-106.671
X188.2Y-130.87
X190.6Y-106.66
X190.625Y-125.805
X191.575Y-127.575
X195.54Y-122.225
X201.58Y-112.1
X208.445Y-112.388
X212.65Y-120.05
X214.65Y-106.9
X225.156Y-100.3
X225.625Y-127.0
X227.045Y-127.5
X229.405Y-127.525
X231.724Y-124.755
X231.725Y-119.78
X231.725Y-122.315
X231.775Y-114.155
X231.956Y-100.3
X232.179Y-108.921
X232.5Y-103.787
X235.75Y-109.525
X235.775Y-114.155
T5
X189.855Y-104.84
X191.125Y-102.3
X192.395Y-104.84
X193.665Y-102.3
X194.935Y-104.84
X196.205Y-102.3
X197.475Y-104.84
X198.745Y-102.3
X209.511Y-104.84
X210.781Y-102.3
X212.051Y-104.84
X213.321Y-102.3
X214.591Y-104.84
X215.861Y-102.3
X217.131Y-104.84
X218.401Y-102.3
T6
X184.49Y-133.8
X187.03Y-133.8
X189.57Y-133.8
X192.11Y-133.8
X216.146Y-133.8
X218.686Y-133.8
X221.226Y-133.8
X223.766Y-133.8
T7
X177.8Y-138.8
X199.3Y-138.8
X208.956Y-138.8
X230.456Y-138.8
T8
X80.0Y-116.15
X80.0Y-154.15
X155.8Y-112.45
X155.8Y-150.45
X181.2Y-166.95
X227.056Y-166.95
X252.456Y-112.45
X252.456Y-150.45
X328.256Y-116.15
X328.256Y-154.15
T4
G00X175.38Y-94.25
M15
G01X175.38Y-93.65
M16
G05
G00X175.38Y-98.68
M15
G01X175.38Y-97.58
M16
G05
G00X184.02Y-94.25
M15
G01X184.02Y-93.65
M16
G05
G00X184.02Y-98.68
M15
G01X184.02Y-97.58
M16
G05
G00X224.236Y-94.25
M15
G01X224.236Y-93.65
M16
G05
G00X224.236Y-98.68
M15
G01X224.236Y-97.58
M16
G05
G00X232.876Y-94.25
M15
G01X232.876Y-93.65
M16
G05
G00X232.876Y-98.68
M15
G01X232.876Y-97.58
M16
G05
M30
