G04 #@! TF.GenerationSoftware,KiCad,Pcbnew,10.0.5*
G04 #@! TF.CreationDate,2026-08-27T21:42:02+12:00*
G04 #@! TF.ProjectId,Koca58,4b6f6361-3538-42e6-9b69-6361645f7063,v1.1.0*
G04 #@! TF.SameCoordinates,Original*
G04 #@! TF.FileFunction,Paste,Top*
G04 #@! TF.FilePolarity,Positive*
%FSLAX46Y46*%
G04 Gerber Fmt 4.6, Leading zero omitted, Abs format (unit mm)*
G04 Created by KiCad (PCBNEW 10.0.5) date 2026-08-27 21:42:02*
%MOMM*%
%LPD*%
G01*
G04 APERTURE LIST*
G04 Aperture macros list*
%AMRoundRect*
0 Rectangle with rounded corners*
0 $1 Rounding radius*
0 $2 $3 $4 $5 $6 $7 $8 $9 X,Y pos of 4 corners*
0 Add a 4 corners polygon primitive as box body*
4,1,4,$2,$3,$4,$5,$6,$7,$8,$9,$2,$3,0*
0 Add four circle primitives for the rounded corners*
1,1,$1+$1,$2,$3*
1,1,$1+$1,$4,$5*
1,1,$1+$1,$6,$7*
1,1,$1+$1,$8,$9*
0 Add four rect primitives between the rounded corners*
20,1,$1+$1,$2,$3,$4,$5,0*
20,1,$1+$1,$4,$5,$6,$7,0*
20,1,$1+$1,$6,$7,$8,$9,0*
20,1,$1+$1,$8,$9,$2,$3,0*%
G04 Aperture macros list end*
%ADD10RoundRect,0.135000X-0.185000X0.135000X-0.185000X-0.135000X0.185000X-0.135000X0.185000X0.135000X0*%
%ADD11RoundRect,0.200000X-0.200000X-0.275000X0.200000X-0.275000X0.200000X0.275000X-0.200000X0.275000X0*%
%ADD12R,1.400000X1.200000*%
%ADD13RoundRect,0.140000X-0.140000X-0.170000X0.140000X-0.170000X0.140000X0.170000X-0.140000X0.170000X0*%
%ADD14RoundRect,0.150000X0.150000X-0.512500X0.150000X0.512500X-0.150000X0.512500X-0.150000X-0.512500X0*%
%ADD15RoundRect,0.075000X0.075000X-0.700000X0.075000X0.700000X-0.075000X0.700000X-0.075000X-0.700000X0*%
%ADD16RoundRect,0.075000X0.700000X-0.075000X0.700000X0.075000X-0.700000X0.075000X-0.700000X-0.075000X0*%
%ADD17RoundRect,0.135000X0.185000X-0.135000X0.185000X0.135000X-0.185000X0.135000X-0.185000X-0.135000X0*%
%ADD18C,0.800000*%
%ADD19RoundRect,0.200000X0.200000X0.275000X-0.200000X0.275000X-0.200000X-0.275000X0.200000X-0.275000X0*%
%ADD20RoundRect,0.140000X0.140000X0.170000X-0.140000X0.170000X-0.140000X-0.170000X0.140000X-0.170000X0*%
%ADD21RoundRect,0.140000X-0.170000X0.140000X-0.170000X-0.140000X0.170000X-0.140000X0.170000X0.140000X0*%
%ADD22R,0.600000X1.450000*%
%ADD23R,0.300000X1.450000*%
%ADD24RoundRect,0.225000X0.250000X-0.225000X0.250000X0.225000X-0.250000X0.225000X-0.250000X-0.225000X0*%
%ADD25RoundRect,0.135000X-0.135000X-0.185000X0.135000X-0.185000X0.135000X0.185000X-0.135000X0.185000X0*%
%ADD26RoundRect,0.140000X0.170000X-0.140000X0.170000X0.140000X-0.170000X0.140000X-0.170000X-0.140000X0*%
%ADD27RoundRect,0.150000X-0.150000X0.512500X-0.150000X-0.512500X0.150000X-0.512500X0.150000X0.512500X0*%
%ADD28RoundRect,0.225000X0.225000X0.250000X-0.225000X0.250000X-0.225000X-0.250000X0.225000X-0.250000X0*%
%ADD29RoundRect,0.135000X0.135000X0.185000X-0.135000X0.185000X-0.135000X-0.185000X0.135000X-0.185000X0*%
%ADD30RoundRect,0.218750X-0.218750X-0.256250X0.218750X-0.256250X0.218750X0.256250X-0.218750X0.256250X0*%
%ADD31RoundRect,0.218750X0.218750X0.256250X-0.218750X0.256250X-0.218750X-0.256250X0.218750X-0.256250X0*%
G04 APERTURE END LIST*
D10*
X211125000Y-108790000D03*
X211125000Y-109810000D03*
D11*
X198275000Y-107300000D03*
X199925000Y-107300000D03*
D12*
X183700000Y-129300000D03*
X185900000Y-129300000D03*
X185900000Y-127600000D03*
X183700000Y-127600000D03*
D13*
X221170000Y-126352200D03*
X222130000Y-126352200D03*
D14*
X198950000Y-113237500D03*
X199900000Y-113237500D03*
X200850000Y-113237500D03*
X200850000Y-110962500D03*
X199900000Y-110962500D03*
X198950000Y-110962500D03*
D15*
X182769000Y-122450000D03*
X183269000Y-122450000D03*
X183769000Y-122450000D03*
X184269000Y-122450000D03*
X184769000Y-122450000D03*
X185269000Y-122450000D03*
X185769000Y-122450000D03*
X186269000Y-122450000D03*
X186769000Y-122450000D03*
X187269000Y-122450000D03*
X187769000Y-122450000D03*
X188269000Y-122450000D03*
X188769000Y-122450000D03*
X189269000Y-122450000D03*
X189769000Y-122450000D03*
X190269000Y-122450000D03*
D16*
X192194000Y-120525000D03*
X192194000Y-120025000D03*
X192194000Y-119525000D03*
X192194000Y-119025000D03*
X192194000Y-118525000D03*
X192194000Y-118025000D03*
X192194000Y-117525000D03*
X192194000Y-117025000D03*
X192194000Y-116525000D03*
X192194000Y-116025000D03*
X192194000Y-115525000D03*
X192194000Y-115025000D03*
X192194000Y-114525000D03*
X192194000Y-114025000D03*
X192194000Y-113525000D03*
X192194000Y-113025000D03*
D15*
X190269000Y-111100000D03*
X189769000Y-111100000D03*
X189269000Y-111100000D03*
X188769000Y-111100000D03*
X188269000Y-111100000D03*
X187769000Y-111100000D03*
X187269000Y-111100000D03*
X186769000Y-111100000D03*
X186269000Y-111100000D03*
X185769000Y-111100000D03*
X185269000Y-111100000D03*
X184769000Y-111100000D03*
X184269000Y-111100000D03*
X183769000Y-111100000D03*
X183269000Y-111100000D03*
X182769000Y-111100000D03*
D16*
X180844000Y-113025000D03*
X180844000Y-113525000D03*
X180844000Y-114025000D03*
X180844000Y-114525000D03*
X180844000Y-115025000D03*
X180844000Y-115525000D03*
X180844000Y-116025000D03*
X180844000Y-116525000D03*
X180844000Y-117025000D03*
X180844000Y-117525000D03*
X180844000Y-118025000D03*
X180844000Y-118525000D03*
X180844000Y-119025000D03*
X180844000Y-119525000D03*
X180844000Y-120025000D03*
X180844000Y-120525000D03*
D17*
X226150000Y-103060000D03*
X226150000Y-102040000D03*
X182950000Y-103860000D03*
X182950000Y-102840000D03*
D18*
X213702962Y-112297038D03*
X214600987Y-111399013D03*
X215499013Y-110500987D03*
X216397038Y-109602962D03*
D19*
X211775000Y-107400000D03*
X210125000Y-107400000D03*
D10*
X198700000Y-108540000D03*
X198700000Y-109560000D03*
D13*
X221520000Y-124070000D03*
X222480000Y-124070000D03*
D20*
X219880000Y-126325000D03*
X218920000Y-126325000D03*
D21*
X229489000Y-119595000D03*
X229489000Y-120555000D03*
D20*
X182730000Y-124000000D03*
X181770000Y-124000000D03*
D22*
X231806000Y-99045000D03*
X231006000Y-99045000D03*
D23*
X229806000Y-99045000D03*
X228806000Y-99045000D03*
X228306000Y-99045000D03*
X227306000Y-99045000D03*
D22*
X226106000Y-99045000D03*
X225306000Y-99045000D03*
X225306000Y-99045000D03*
X226106000Y-99045000D03*
D23*
X226806000Y-99045000D03*
X227806000Y-99045000D03*
X229306000Y-99045000D03*
X230306000Y-99045000D03*
D22*
X231006000Y-99045000D03*
X231806000Y-99045000D03*
D14*
X209175000Y-113525000D03*
X210125000Y-113525000D03*
X211075000Y-113525000D03*
X211075000Y-111250000D03*
X210125000Y-111250000D03*
X209175000Y-111250000D03*
D18*
X178705924Y-112694076D03*
X179603949Y-111796051D03*
X180501975Y-110898025D03*
X181400000Y-110000000D03*
D24*
X213650000Y-121625000D03*
X213650000Y-120075000D03*
D13*
X218220000Y-109550000D03*
X219180000Y-109550000D03*
D25*
X211390000Y-118700000D03*
X212410000Y-118700000D03*
D26*
X214925000Y-120755000D03*
X214925000Y-119795000D03*
D21*
X193800000Y-112720000D03*
X193800000Y-113680000D03*
D17*
X181420000Y-108950000D03*
X181420000Y-107930000D03*
D10*
X224000000Y-104730000D03*
X224000000Y-105750000D03*
D20*
X224635000Y-124079000D03*
X223675000Y-124079000D03*
D22*
X182950000Y-99045000D03*
X182150000Y-99045000D03*
D23*
X180950000Y-99045000D03*
X179950000Y-99045000D03*
X179450000Y-99045000D03*
X178450000Y-99045000D03*
D22*
X177250000Y-99045000D03*
X176450000Y-99045000D03*
X176450000Y-99045000D03*
X177250000Y-99045000D03*
D23*
X177950000Y-99045000D03*
X178950000Y-99045000D03*
X180450000Y-99045000D03*
X181450000Y-99045000D03*
D22*
X182150000Y-99045000D03*
X182950000Y-99045000D03*
D27*
X234800000Y-105500000D03*
X233850000Y-105500000D03*
X232900000Y-105500000D03*
X232900000Y-107775000D03*
X234800000Y-107775000D03*
D10*
X201400000Y-108564999D03*
X201400000Y-109584999D03*
D27*
X181137500Y-102187500D03*
X180187500Y-102187500D03*
X179237500Y-102187500D03*
X179237500Y-104462500D03*
X180187500Y-104462500D03*
X181137500Y-104462500D03*
D25*
X174940000Y-101450000D03*
X175960000Y-101450000D03*
D13*
X182520000Y-109550000D03*
X183480000Y-109550000D03*
D26*
X179300000Y-120780000D03*
X179300000Y-119820000D03*
D25*
X176565000Y-118600000D03*
X177585000Y-118600000D03*
D28*
X175075000Y-109700000D03*
X173525000Y-109700000D03*
D15*
X218425000Y-122450000D03*
X218925000Y-122450000D03*
X219425000Y-122450000D03*
X219925000Y-122450000D03*
X220425000Y-122450000D03*
X220925000Y-122450000D03*
X221425000Y-122450000D03*
X221925000Y-122450000D03*
X222425000Y-122450000D03*
X222925000Y-122450000D03*
X223425000Y-122450000D03*
X223925000Y-122450000D03*
X224425000Y-122450000D03*
X224925000Y-122450000D03*
X225425000Y-122450000D03*
X225925000Y-122450000D03*
D16*
X227850000Y-120525000D03*
X227850000Y-120025000D03*
X227850000Y-119525000D03*
X227850000Y-119025000D03*
X227850000Y-118525000D03*
X227850000Y-118025000D03*
X227850000Y-117525000D03*
X227850000Y-117025000D03*
X227850000Y-116525000D03*
X227850000Y-116025000D03*
X227850000Y-115525000D03*
X227850000Y-115025000D03*
X227850000Y-114525000D03*
X227850000Y-114025000D03*
X227850000Y-113525000D03*
X227850000Y-113025000D03*
D15*
X225925000Y-111100000D03*
X225425000Y-111100000D03*
X224925000Y-111100000D03*
X224425000Y-111100000D03*
X223925000Y-111100000D03*
X223425000Y-111100000D03*
X222925000Y-111100000D03*
X222425000Y-111100000D03*
X221925000Y-111100000D03*
X221425000Y-111100000D03*
X220925000Y-111100000D03*
X220425000Y-111100000D03*
X219925000Y-111100000D03*
X219425000Y-111100000D03*
X218925000Y-111100000D03*
X218425000Y-111100000D03*
D16*
X216500000Y-113025000D03*
X216500000Y-113525000D03*
X216500000Y-114025000D03*
X216500000Y-114525000D03*
X216500000Y-115025000D03*
X216500000Y-115525000D03*
X216500000Y-116025000D03*
X216500000Y-116525000D03*
X216500000Y-117025000D03*
X216500000Y-117525000D03*
X216500000Y-118025000D03*
X216500000Y-118525000D03*
X216500000Y-119025000D03*
X216500000Y-119525000D03*
X216500000Y-120025000D03*
X216500000Y-120525000D03*
D10*
X179075000Y-124590000D03*
X179075000Y-125610000D03*
D13*
X190620000Y-126750000D03*
X191580000Y-126750000D03*
D29*
X217815000Y-137450000D03*
X216795000Y-137450000D03*
D24*
X178000000Y-121625000D03*
X178000000Y-120075000D03*
D30*
X219062500Y-137450000D03*
X220637500Y-137450000D03*
D20*
X184361000Y-126200000D03*
X183401000Y-126200000D03*
D21*
X193900000Y-119470000D03*
X193900000Y-120430000D03*
D10*
X213900000Y-124240000D03*
X213900000Y-125260000D03*
D27*
X175250000Y-105662500D03*
X174300000Y-105662500D03*
X173350000Y-105662500D03*
X173350000Y-107937500D03*
X175250000Y-107937500D03*
D25*
X190152500Y-137350000D03*
X191172500Y-137350000D03*
D10*
X209150000Y-108790000D03*
X209150000Y-109810000D03*
D21*
X229400000Y-112820000D03*
X229400000Y-113780000D03*
D28*
X235075000Y-103787500D03*
X233525000Y-103787500D03*
D20*
X218355000Y-124025000D03*
X217395000Y-124025000D03*
D12*
X218975000Y-129450000D03*
X221175000Y-129450000D03*
X221175000Y-127750000D03*
X218975000Y-127750000D03*
D13*
X185870000Y-124000000D03*
X186830000Y-124000000D03*
D21*
X225650000Y-125220000D03*
X225650000Y-126180000D03*
D27*
X229952684Y-102037500D03*
X229002684Y-102037500D03*
X228052684Y-102037500D03*
X228052684Y-104312500D03*
X229002684Y-104312500D03*
X229952684Y-104312500D03*
D31*
X188900000Y-137375000D03*
X187325000Y-137375000D03*
D28*
X234650000Y-109537500D03*
X233100000Y-109537500D03*
X175575000Y-103900000D03*
X174025000Y-103900000D03*
D20*
X188980000Y-124000000D03*
X188020000Y-124000000D03*
D29*
X235410000Y-95950000D03*
X234390000Y-95950000D03*
D13*
X185901000Y-126200000D03*
X186861000Y-126200000D03*
M02*
