G04 #@! TF.GenerationSoftware,KiCad,Pcbnew,9.0.1*
G04 #@! TF.CreationDate,2025-05-10T22:07:30+12:00*
G04 #@! TF.ProjectId,Koca58,4b6f6361-3538-42e6-9b69-6361645f7063,v1.0.0*
G04 #@! TF.SameCoordinates,Original*
G04 #@! TF.FileFunction,Soldermask,Bot*
G04 #@! TF.FilePolarity,Negative*
%FSLAX46Y46*%
G04 Gerber Fmt 4.6, Leading zero omitted, Abs format (unit mm)*
G04 Created by KiCad (PCBNEW 9.0.1) date 2025-05-10 22:07:30*
%MOMM*%
%LPD*%
G01*
G04 APERTURE LIST*
G04 Aperture macros list*
%AMRoundRect*
0 Rectangle with rounded corners*
0 $1 Rounding radius*
0 $2 $3 $4 $5 $6 $7 $8 $9 X,Y pos of 4 corners*
0 Add a 4 corners polygon primitive as box body*
4,1,4,$2,$3,$4,$5,$6,$7,$8,$9,$2,$3,0*
0 Add four circle primitives for the rounded corners*
1,1,$1+$1,$2,$3*
1,1,$1+$1,$4,$5*
1,1,$1+$1,$6,$7*
1,1,$1+$1,$8,$9*
0 Add four rect primitives between the rounded corners*
20,1,$1+$1,$2,$3,$4,$5,0*
20,1,$1+$1,$4,$5,$6,$7,0*
20,1,$1+$1,$6,$7,$8,$9,0*
20,1,$1+$1,$8,$9,$2,$3,0*%
%AMFreePoly0*
4,1,9,3.862500,-0.866500,0.737500,-0.866500,0.737500,-0.450000,-0.737500,-0.450000,-0.737500,0.450000,0.737500,0.450000,0.737500,0.866500,3.862500,0.866500,3.862500,-0.866500,3.862500,-0.866500,$1*%
G04 Aperture macros list end*
%ADD10C,1.700000*%
%ADD11C,3.000000*%
%ADD12C,4.000000*%
%ADD13RoundRect,0.250000X1.250000X1.000000X-1.250000X1.000000X-1.250000X-1.000000X1.250000X-1.000000X0*%
%ADD14RoundRect,0.250000X1.491025X-0.582532X0.241025X1.582532X-1.491025X0.582532X-0.241025X-1.582532X0*%
%ADD15RoundRect,0.250000X-0.241025X1.582532X-1.491025X-0.582532X0.241025X-1.582532X1.491025X0.582532X0*%
%ADD16C,3.200000*%
%ADD17R,1.500000X1.500000*%
%ADD18C,1.500000*%
%ADD19C,0.650000*%
%ADD20O,1.000000X2.100000*%
%ADD21O,1.000000X1.600000*%
%ADD22C,5.000000*%
%ADD23C,4.400000*%
%ADD24C,0.600000*%
%ADD25R,1.700000X1.700000*%
%ADD26RoundRect,0.218750X-0.256250X0.218750X-0.256250X-0.218750X0.256250X-0.218750X0.256250X0.218750X0*%
%ADD27C,1.800000*%
%ADD28RoundRect,0.135000X-0.185000X0.135000X-0.185000X-0.135000X0.185000X-0.135000X0.185000X0.135000X0*%
%ADD29R,1.000000X1.500000*%
%ADD30RoundRect,0.225000X0.225000X0.250000X-0.225000X0.250000X-0.225000X-0.250000X0.225000X-0.250000X0*%
%ADD31RoundRect,0.225000X-0.225000X0.425000X-0.225000X-0.425000X0.225000X-0.425000X0.225000X0.425000X0*%
%ADD32FreePoly0,270.000000*%
%ADD33C,0.800000*%
G04 APERTURE END LIST*
G36*
X210650000Y-121550000D02*
G01*
X210350000Y-121550000D01*
X210350000Y-123050000D01*
X210650000Y-123050000D01*
X210650000Y-121550000D01*
G37*
G36*
X177100000Y-126325000D02*
G01*
X177400000Y-126325000D01*
X177400000Y-124825000D01*
X177100000Y-124825000D01*
X177100000Y-126325000D01*
G37*
D10*
X305186000Y-101900000D03*
D11*
X302646000Y-96820000D03*
D12*
X300106000Y-101900000D03*
D11*
X296296000Y-99360000D03*
D10*
X295026000Y-101900000D03*
D13*
X292486000Y-99360000D03*
X306456000Y-96820000D03*
D10*
X276786000Y-178100000D03*
D11*
X274246000Y-173020000D03*
D12*
X271706000Y-178100000D03*
D11*
X267896000Y-175560000D03*
D10*
X266626000Y-178100000D03*
D13*
X264086000Y-175560000D03*
X278056000Y-173020000D03*
D10*
X228986000Y-151850000D03*
D11*
X226446000Y-146770000D03*
D12*
X223906000Y-151850000D03*
D11*
X220096000Y-149310000D03*
D10*
X218826000Y-151850000D03*
D13*
X216286000Y-149310000D03*
X230256000Y-146770000D03*
D10*
X94180000Y-144850000D03*
D11*
X91640000Y-139770000D03*
D12*
X89100000Y-144850000D03*
D11*
X85290000Y-142310000D03*
D10*
X84020000Y-144850000D03*
D13*
X81480000Y-142310000D03*
X95450000Y-139770000D03*
D10*
X132280000Y-119550000D03*
D11*
X129740000Y-114470000D03*
D12*
X127200000Y-119550000D03*
D11*
X123390000Y-117010000D03*
D10*
X122120000Y-119550000D03*
D13*
X119580000Y-117010000D03*
X133550000Y-114470000D03*
D10*
X132280000Y-138600000D03*
D11*
X129740000Y-133520000D03*
D12*
X127200000Y-138600000D03*
D11*
X123390000Y-136060000D03*
D10*
X122120000Y-138600000D03*
D13*
X119580000Y-136060000D03*
X133550000Y-133520000D03*
D10*
X170380000Y-142400000D03*
D11*
X167840000Y-137320000D03*
D12*
X165300000Y-142400000D03*
D11*
X161490000Y-139860000D03*
D10*
X160220000Y-142400000D03*
D13*
X157680000Y-139860000D03*
X171650000Y-137320000D03*
D10*
X94180000Y-106750000D03*
D11*
X91640000Y-101670000D03*
D12*
X89100000Y-106750000D03*
D11*
X85290000Y-104210000D03*
D10*
X84020000Y-106750000D03*
D13*
X81480000Y-104210000D03*
X95450000Y-101670000D03*
D10*
X75130000Y-146300000D03*
D11*
X72590000Y-141220000D03*
D12*
X70050000Y-146300000D03*
D11*
X66240000Y-143760000D03*
D10*
X64970000Y-146300000D03*
D13*
X62430000Y-143760000D03*
X76400000Y-141220000D03*
D10*
X151330000Y-120950000D03*
D11*
X148790000Y-115870000D03*
D12*
X146250000Y-120950000D03*
D11*
X142440000Y-118410000D03*
D10*
X141170000Y-120950000D03*
D13*
X138630000Y-118410000D03*
X152600000Y-115870000D03*
D10*
X267086000Y-101900000D03*
D11*
X264546000Y-96820000D03*
D12*
X262006000Y-101900000D03*
D11*
X258196000Y-99360000D03*
D10*
X256926000Y-101900000D03*
D13*
X254386000Y-99360000D03*
X268356000Y-96820000D03*
D10*
X267086000Y-159050000D03*
D11*
X264546000Y-153970000D03*
D12*
X262006000Y-159050000D03*
D11*
X258196000Y-156510000D03*
D10*
X256926000Y-159050000D03*
D13*
X254386000Y-156510000D03*
X268356000Y-153970000D03*
D10*
X132280000Y-157650000D03*
D11*
X129740000Y-152570000D03*
D12*
X127200000Y-157650000D03*
D11*
X123390000Y-155110000D03*
D10*
X122120000Y-157650000D03*
D13*
X119580000Y-155110000D03*
X133550000Y-152570000D03*
D10*
X113230000Y-120950000D03*
D11*
X110690000Y-115870000D03*
D12*
X108150000Y-120950000D03*
D11*
X104340000Y-118410000D03*
D10*
X103070000Y-120950000D03*
D13*
X100530000Y-118410000D03*
X114500000Y-115870000D03*
D10*
X305186000Y-120950000D03*
D11*
X302646000Y-115870000D03*
D12*
X300106000Y-120950000D03*
D11*
X296296000Y-118410000D03*
D10*
X295026000Y-120950000D03*
D13*
X292486000Y-118410000D03*
X306456000Y-115870000D03*
D10*
X170380000Y-123350000D03*
D11*
X167840000Y-118270000D03*
D12*
X165300000Y-123350000D03*
D11*
X161490000Y-120810000D03*
D10*
X160220000Y-123350000D03*
D13*
X157680000Y-120810000D03*
X171650000Y-118270000D03*
D10*
X286136000Y-100500000D03*
D11*
X283596000Y-95420000D03*
D12*
X281056000Y-100500000D03*
D11*
X277246000Y-97960000D03*
D10*
X275976000Y-100500000D03*
D13*
X273436000Y-97960000D03*
X287406000Y-95420000D03*
D10*
X122580000Y-178100000D03*
D11*
X120040000Y-173020000D03*
D12*
X117500000Y-178100000D03*
D11*
X113690000Y-175560000D03*
D10*
X112420000Y-178100000D03*
D13*
X109880000Y-175560000D03*
X123850000Y-173020000D03*
D10*
X189430000Y-151850000D03*
D11*
X186890000Y-146770000D03*
D12*
X184350000Y-151850000D03*
D11*
X180540000Y-149310000D03*
D10*
X179270000Y-151850000D03*
D13*
X176730000Y-149310000D03*
X190700000Y-146770000D03*
D10*
X324236000Y-144850000D03*
D11*
X321696000Y-139770000D03*
D12*
X319156000Y-144850000D03*
D11*
X315346000Y-142310000D03*
D10*
X314076000Y-144850000D03*
D13*
X311536000Y-142310000D03*
X325506000Y-139770000D03*
D10*
X343286000Y-146300000D03*
D11*
X340746000Y-141220000D03*
D12*
X338206000Y-146300000D03*
D11*
X334396000Y-143760000D03*
D10*
X333126000Y-146300000D03*
D13*
X330586000Y-143760000D03*
X344556000Y-141220000D03*
D10*
X248036000Y-104300000D03*
D11*
X245496000Y-99220000D03*
D12*
X242956000Y-104300000D03*
D11*
X239146000Y-101760000D03*
D10*
X237876000Y-104300000D03*
D13*
X235336000Y-101760000D03*
X249306000Y-99220000D03*
D10*
X132280000Y-100500000D03*
D11*
X129740000Y-95420000D03*
D12*
X127200000Y-100500000D03*
D11*
X123390000Y-97960000D03*
D10*
X122120000Y-100500000D03*
D13*
X119580000Y-97960000D03*
X133550000Y-95420000D03*
D10*
X286136000Y-157650000D03*
D11*
X283596000Y-152570000D03*
D12*
X281056000Y-157650000D03*
D11*
X277246000Y-155110000D03*
D10*
X275976000Y-157650000D03*
D13*
X273436000Y-155110000D03*
X287406000Y-152570000D03*
D10*
X257736000Y-180500000D03*
D11*
X255196000Y-175420000D03*
D12*
X252656000Y-180500000D03*
D11*
X248846000Y-177960000D03*
D10*
X247576000Y-180500000D03*
D13*
X245036000Y-177960000D03*
X259006000Y-175420000D03*
D10*
X248036000Y-123350000D03*
D11*
X245496000Y-118270000D03*
D12*
X242956000Y-123350000D03*
D11*
X239146000Y-120810000D03*
D10*
X237876000Y-123350000D03*
D13*
X235336000Y-120810000D03*
X249306000Y-118270000D03*
D10*
X151330000Y-140000000D03*
D11*
X148790000Y-134920000D03*
D12*
X146250000Y-140000000D03*
D11*
X142440000Y-137460000D03*
D10*
X141170000Y-140000000D03*
D13*
X138630000Y-137460000D03*
X152600000Y-134920000D03*
D10*
X324236000Y-106750000D03*
D11*
X321696000Y-101670000D03*
D12*
X319156000Y-106750000D03*
D11*
X315346000Y-104210000D03*
D10*
X314076000Y-106750000D03*
D13*
X311536000Y-104210000D03*
X325506000Y-101670000D03*
D10*
X94180000Y-163900000D03*
D11*
X91640000Y-158820000D03*
D12*
X89100000Y-163900000D03*
D11*
X85290000Y-161360000D03*
D10*
X84020000Y-163900000D03*
D13*
X81480000Y-161360000D03*
X95450000Y-158820000D03*
D10*
X141630000Y-178100000D03*
D11*
X139090000Y-173020000D03*
D12*
X136550000Y-178100000D03*
D11*
X132740000Y-175560000D03*
D10*
X131470000Y-178100000D03*
D13*
X128930000Y-175560000D03*
X142900000Y-173020000D03*
D10*
X113230000Y-140000000D03*
D11*
X110690000Y-134920000D03*
D12*
X108150000Y-140000000D03*
D11*
X104340000Y-137460000D03*
D10*
X103070000Y-140000000D03*
D13*
X100530000Y-137460000D03*
X114500000Y-134920000D03*
D10*
X248036000Y-142400000D03*
D11*
X245496000Y-137320000D03*
D12*
X242956000Y-142400000D03*
D11*
X239146000Y-139860000D03*
D10*
X237876000Y-142400000D03*
D13*
X235336000Y-139860000D03*
X249306000Y-137320000D03*
D10*
X229996000Y-185699409D03*
D11*
X233125409Y-180959705D03*
D12*
X227456000Y-181300000D03*
D11*
X227750705Y-176730443D03*
D10*
X224916000Y-176900591D03*
D14*
X225845705Y-173430886D03*
X235030409Y-184259261D03*
D10*
X295836000Y-178100000D03*
D11*
X293296000Y-173020000D03*
D12*
X290756000Y-178100000D03*
D11*
X286946000Y-175560000D03*
D10*
X285676000Y-178100000D03*
D13*
X283136000Y-175560000D03*
X297106000Y-173020000D03*
D10*
X286136000Y-138600000D03*
D11*
X283596000Y-133520000D03*
D12*
X281056000Y-138600000D03*
D11*
X277246000Y-136060000D03*
D10*
X275976000Y-138600000D03*
D13*
X273436000Y-136060000D03*
X287406000Y-133520000D03*
D10*
X267086000Y-140000000D03*
D11*
X264546000Y-134920000D03*
D12*
X262006000Y-140000000D03*
D11*
X258196000Y-137460000D03*
D10*
X256926000Y-140000000D03*
D13*
X254386000Y-137460000D03*
X268356000Y-134920000D03*
D10*
X343286000Y-108200000D03*
D11*
X340746000Y-103120000D03*
D12*
X338206000Y-108200000D03*
D11*
X334396000Y-105660000D03*
D10*
X333126000Y-108200000D03*
D13*
X330586000Y-105660000D03*
X344556000Y-103120000D03*
D10*
X305186000Y-159050000D03*
D11*
X302646000Y-153970000D03*
D12*
X300106000Y-159050000D03*
D11*
X296296000Y-156510000D03*
D10*
X295026000Y-159050000D03*
D13*
X292486000Y-156510000D03*
X306456000Y-153970000D03*
D10*
X113230000Y-101900000D03*
D11*
X110690000Y-96820000D03*
D12*
X108150000Y-101900000D03*
D11*
X104340000Y-99360000D03*
D10*
X103070000Y-101900000D03*
D13*
X100530000Y-99360000D03*
X114500000Y-96820000D03*
D10*
X286136000Y-119550000D03*
D11*
X283596000Y-114470000D03*
D12*
X281056000Y-119550000D03*
D11*
X277246000Y-117010000D03*
D10*
X275976000Y-119550000D03*
D13*
X273436000Y-117010000D03*
X287406000Y-114470000D03*
D10*
X183340000Y-176900591D03*
D11*
X177670591Y-176560295D03*
D12*
X180800000Y-181300000D03*
D11*
X176695295Y-183329557D03*
D10*
X178260000Y-185699409D03*
D15*
X174790295Y-186629114D03*
X179575591Y-173260739D03*
D10*
X75130000Y-165350000D03*
D11*
X72590000Y-160270000D03*
D12*
X70050000Y-165350000D03*
D11*
X66240000Y-162810000D03*
D10*
X64970000Y-165350000D03*
D13*
X62430000Y-162810000D03*
X76400000Y-160270000D03*
D10*
X343286000Y-127250000D03*
D11*
X340746000Y-122170000D03*
D12*
X338206000Y-127250000D03*
D11*
X334396000Y-124710000D03*
D10*
X333126000Y-127250000D03*
D13*
X330586000Y-124710000D03*
X344556000Y-122170000D03*
D10*
X75130000Y-127250000D03*
D11*
X72590000Y-122170000D03*
D12*
X70050000Y-127250000D03*
D11*
X66240000Y-124710000D03*
D10*
X64970000Y-127250000D03*
D13*
X62430000Y-124710000D03*
X76400000Y-122170000D03*
D10*
X151330000Y-101900000D03*
D11*
X148790000Y-96820000D03*
D12*
X146250000Y-101900000D03*
D11*
X142440000Y-99360000D03*
D10*
X141170000Y-101900000D03*
D13*
X138630000Y-99360000D03*
X152600000Y-96820000D03*
D10*
X324236000Y-125800000D03*
D11*
X321696000Y-120720000D03*
D12*
X319156000Y-125800000D03*
D11*
X315346000Y-123260000D03*
D10*
X314076000Y-125800000D03*
D13*
X311536000Y-123260000D03*
X325506000Y-120720000D03*
D10*
X324236000Y-163900000D03*
D11*
X321696000Y-158820000D03*
D12*
X319156000Y-163900000D03*
D11*
X315346000Y-161360000D03*
D10*
X314076000Y-163900000D03*
D13*
X311536000Y-161360000D03*
X325506000Y-158820000D03*
D10*
X170380000Y-161450000D03*
D11*
X167840000Y-156370000D03*
D12*
X165300000Y-161450000D03*
D11*
X161490000Y-158910000D03*
D10*
X160220000Y-161450000D03*
D13*
X157680000Y-158910000D03*
X171650000Y-156370000D03*
D10*
X170380000Y-104300000D03*
D11*
X167840000Y-99220000D03*
D12*
X165300000Y-104300000D03*
D11*
X161490000Y-101760000D03*
D10*
X160220000Y-104300000D03*
D13*
X157680000Y-101760000D03*
X171650000Y-99220000D03*
D10*
X248036000Y-161450000D03*
D11*
X245496000Y-156370000D03*
D12*
X242956000Y-161450000D03*
D11*
X239146000Y-158910000D03*
D10*
X237876000Y-161450000D03*
D13*
X235336000Y-158910000D03*
X249306000Y-156370000D03*
D10*
X75130000Y-108200000D03*
D11*
X72590000Y-103120000D03*
D12*
X70050000Y-108200000D03*
D11*
X66240000Y-105660000D03*
D10*
X64970000Y-108200000D03*
D13*
X62430000Y-105660000D03*
X76400000Y-103120000D03*
D10*
X151330000Y-159050000D03*
D11*
X148790000Y-153970000D03*
D12*
X146250000Y-159050000D03*
D11*
X142440000Y-156510000D03*
D10*
X141170000Y-159050000D03*
D13*
X138630000Y-156510000D03*
X152600000Y-153970000D03*
D10*
X267086000Y-120950000D03*
D11*
X264546000Y-115870000D03*
D12*
X262006000Y-120950000D03*
D11*
X258196000Y-118410000D03*
D10*
X256926000Y-120950000D03*
D13*
X254386000Y-118410000D03*
X268356000Y-115870000D03*
D10*
X94180000Y-125800000D03*
D11*
X91640000Y-120720000D03*
D12*
X89100000Y-125800000D03*
D11*
X85290000Y-123260000D03*
D10*
X84020000Y-125800000D03*
D13*
X81480000Y-123260000D03*
X95450000Y-120720000D03*
D10*
X160680000Y-180500000D03*
D11*
X158140000Y-175420000D03*
D12*
X155600000Y-180500000D03*
D11*
X151790000Y-177960000D03*
D10*
X150520000Y-180500000D03*
D13*
X147980000Y-177960000D03*
X161950000Y-175420000D03*
D10*
X305186000Y-140000000D03*
D11*
X302646000Y-134920000D03*
D12*
X300106000Y-140000000D03*
D11*
X296296000Y-137460000D03*
D10*
X295026000Y-140000000D03*
D13*
X292486000Y-137460000D03*
X306456000Y-134920000D03*
D10*
X343286000Y-165350000D03*
D11*
X340746000Y-160270000D03*
D12*
X338206000Y-165350000D03*
D11*
X334396000Y-162810000D03*
D10*
X333126000Y-165350000D03*
D13*
X330586000Y-162810000D03*
X344556000Y-160270000D03*
D10*
X113230000Y-159050000D03*
D11*
X110690000Y-153970000D03*
D12*
X108150000Y-159050000D03*
D11*
X104340000Y-156510000D03*
D10*
X103070000Y-159050000D03*
D13*
X100530000Y-156510000D03*
X114500000Y-153970000D03*
D16*
X219671000Y-95950000D03*
X208241000Y-95950000D03*
D17*
X218401000Y-102300000D03*
D18*
X217131000Y-104840000D03*
X215861000Y-102300000D03*
X214591000Y-104840000D03*
X213321000Y-102300000D03*
X212051000Y-104840000D03*
X210781000Y-102300000D03*
X209511000Y-104840000D03*
D19*
X231446000Y-97600000D03*
X225666000Y-97600000D03*
D20*
X232876000Y-98130000D03*
D21*
X232876000Y-93950000D03*
D20*
X224236000Y-98130000D03*
D21*
X224236000Y-93950000D03*
D19*
X182590000Y-97600000D03*
X176810000Y-97600000D03*
D20*
X184020000Y-98130000D03*
D21*
X184020000Y-93950000D03*
D20*
X175380000Y-98130000D03*
D21*
X175380000Y-93950000D03*
D16*
X200015000Y-95950000D03*
X188585000Y-95950000D03*
D17*
X198745000Y-102300000D03*
D18*
X197475000Y-104840000D03*
X196205000Y-102300000D03*
X194935000Y-104840000D03*
X193665000Y-102300000D03*
X192395000Y-104840000D03*
X191125000Y-102300000D03*
X189855000Y-104840000D03*
D22*
X80000000Y-116150000D03*
X227056000Y-166950000D03*
D23*
X177800000Y-138800000D03*
D22*
X181200000Y-166950000D03*
D24*
X122414800Y-91287600D03*
X121614800Y-91287600D03*
X120814800Y-91287600D03*
X120014800Y-91287600D03*
X119214800Y-91287600D03*
X118414800Y-91287600D03*
D22*
X155800000Y-150450000D03*
X328256000Y-116150000D03*
X80000000Y-154150000D03*
D24*
X180987600Y-91287600D03*
X180187600Y-91287600D03*
X179387600Y-91287600D03*
X178587600Y-91287600D03*
X177787600Y-91287600D03*
X176987600Y-91287600D03*
D22*
X252456000Y-150450000D03*
D23*
X230456000Y-138800000D03*
D24*
X250926800Y-189992000D03*
X251726800Y-189992000D03*
X252526800Y-189992000D03*
X253326800Y-189992000D03*
X254126800Y-189992000D03*
X254926800Y-189992000D03*
D22*
X252456000Y-112450000D03*
D25*
X223766000Y-133800000D03*
D10*
X221226000Y-133800000D03*
X218686000Y-133800000D03*
X216146000Y-133800000D03*
D24*
X289813600Y-91287600D03*
X289013600Y-91287600D03*
X288213600Y-91287600D03*
X287413600Y-91287600D03*
X286613600Y-91287600D03*
X285813600Y-91287600D03*
D23*
X208956000Y-138800000D03*
D24*
X67831200Y-175260000D03*
X68631200Y-175260000D03*
X69431200Y-175260000D03*
X70231200Y-175260000D03*
X71031200Y-175260000D03*
X71831200Y-175260000D03*
D22*
X155800000Y-112450000D03*
D24*
X336639200Y-175260000D03*
X337439200Y-175260000D03*
X338239200Y-175260000D03*
X339039200Y-175260000D03*
X339839200Y-175260000D03*
X340639200Y-175260000D03*
X153518000Y-189992000D03*
X154318000Y-189992000D03*
X155118000Y-189992000D03*
X155918000Y-189992000D03*
X156718000Y-189992000D03*
X157518000Y-189992000D03*
D22*
X328256000Y-154150000D03*
D23*
X199300000Y-138800000D03*
D25*
X192110000Y-133800000D03*
D10*
X189570000Y-133800000D03*
X187030000Y-133800000D03*
X184490000Y-133800000D03*
D24*
X231616000Y-91288400D03*
X230816000Y-91288400D03*
X230016000Y-91288400D03*
X229216000Y-91288400D03*
X228416000Y-91288400D03*
X227616000Y-91288400D03*
D26*
X216600000Y-94662500D03*
X216600000Y-96237500D03*
D27*
X218480000Y-113150000D03*
X221020000Y-113150000D03*
X223560000Y-113150000D03*
X226100000Y-113150000D03*
D28*
X199425000Y-104865000D03*
X199425000Y-105885000D03*
D29*
X211150000Y-122300000D03*
X209850000Y-122300000D03*
D30*
X213250000Y-99725000D03*
X211700000Y-99725000D03*
D27*
X186820000Y-114400000D03*
X189360000Y-114400000D03*
X191900000Y-114400000D03*
X194440000Y-114400000D03*
D26*
X196925000Y-94700000D03*
X196925000Y-96275000D03*
D30*
X214150000Y-92975000D03*
X212600000Y-92975000D03*
D31*
X211762500Y-94725000D03*
D32*
X213262500Y-94812500D03*
D31*
X214762500Y-94725000D03*
D28*
X201250000Y-102165000D03*
X201250000Y-103185000D03*
D17*
X198300000Y-152700000D03*
X198300000Y-144900000D03*
D30*
X193600000Y-99700000D03*
X192050000Y-99700000D03*
D17*
X209956000Y-152700000D03*
X209956000Y-144900000D03*
D29*
X176600000Y-125575000D03*
X177900000Y-125575000D03*
D30*
X194250000Y-92950000D03*
X192700000Y-92950000D03*
D31*
X192100000Y-94675000D03*
D32*
X193600000Y-94762500D03*
D31*
X195100000Y-94675000D03*
D24*
X175615600Y-117348000D03*
D33*
X178816000Y-116535200D03*
D24*
X187375000Y-98400000D03*
X197231000Y-163449000D03*
X187625000Y-100900000D03*
X184050000Y-101900000D03*
X198500000Y-113650000D03*
X64109600Y-135686800D03*
X198312500Y-120787500D03*
X192125600Y-119735600D03*
D33*
X180644800Y-119024400D03*
D24*
X200075000Y-93225000D03*
X172720000Y-151180800D03*
X180050000Y-107550000D03*
X178206400Y-193192400D03*
X169418000Y-144526000D03*
X187502800Y-164642800D03*
X186385200Y-126034800D03*
X170180000Y-133654800D03*
X185600000Y-105350000D03*
X172516800Y-112547400D03*
X168300400Y-125323600D03*
X89560400Y-95148400D03*
X180850000Y-140850000D03*
X184979000Y-124002800D03*
X133096000Y-188671200D03*
X190906400Y-123952000D03*
X147523200Y-110845600D03*
X109880400Y-110845600D03*
X109677200Y-130606800D03*
D33*
X145542000Y-143865600D03*
D24*
X177925000Y-120150000D03*
X150012400Y-130149600D03*
X174375000Y-127050000D03*
X195975000Y-110625000D03*
D33*
X104140000Y-144475200D03*
D24*
X192000000Y-127100000D03*
D33*
X126847600Y-149758400D03*
D24*
X176525000Y-104550000D03*
X186525000Y-107525000D03*
X104698800Y-170688000D03*
D33*
X178075000Y-102400000D03*
D24*
X188400000Y-93000000D03*
X200710800Y-134112000D03*
X187960000Y-119278400D03*
X63804800Y-171704000D03*
X201750000Y-121800000D03*
X178511200Y-128320800D03*
X195650000Y-107950000D03*
X192278000Y-116332000D03*
X186537600Y-128727200D03*
X168503600Y-129184400D03*
X201200000Y-114600000D03*
X179950000Y-93900000D03*
X187960000Y-116128800D03*
X180492400Y-122936000D03*
X127050800Y-92456000D03*
X168605200Y-93319600D03*
X151536400Y-150672800D03*
D33*
X131064000Y-124714000D03*
D24*
X167700000Y-167050000D03*
X195681600Y-125526800D03*
D33*
X90373200Y-131622800D03*
D24*
X169062400Y-106070400D03*
X145491200Y-167843200D03*
X197250000Y-99875000D03*
D33*
X198750481Y-110281637D03*
D24*
X183074000Y-128905000D03*
X197825000Y-111400000D03*
X201225000Y-112500000D03*
X188350000Y-113500000D03*
X190804800Y-113893600D03*
X193357955Y-121065918D03*
X195834000Y-122377200D03*
X177749200Y-123675000D03*
X186334400Y-117000000D03*
X182168800Y-116450000D03*
X215036400Y-116941600D03*
X212394800Y-118262400D03*
X76450000Y-105000000D03*
X181135711Y-110125000D03*
X189344000Y-109664634D03*
X181866279Y-109775000D03*
X189700716Y-108948562D03*
X95500000Y-103500000D03*
X190239205Y-108356925D03*
X182612638Y-109425000D03*
X114500000Y-98650000D03*
X183349429Y-109075278D03*
X190550000Y-107400000D03*
X133550000Y-97350000D03*
X184068671Y-108725000D03*
X191150000Y-106800000D03*
X152650000Y-98800000D03*
X192050000Y-106860000D03*
X171650000Y-101050000D03*
X185572400Y-108150000D03*
X199600000Y-115450000D03*
X76450000Y-123900000D03*
X183235600Y-114025000D03*
X95450000Y-118950000D03*
X194027039Y-108933513D03*
X182770225Y-112875000D03*
X194700000Y-109650000D03*
X114500000Y-117650000D03*
X182214011Y-113450000D03*
X133550000Y-116200000D03*
X183489600Y-112525000D03*
X193344000Y-109350000D03*
X184550000Y-111500000D03*
X152600000Y-117650000D03*
X192844000Y-108550000D03*
X183550000Y-111100000D03*
X171650000Y-116300000D03*
X192344000Y-107700000D03*
X198476053Y-118786012D03*
X76400000Y-143050000D03*
X201220685Y-119084063D03*
X200838683Y-118381156D03*
X198625000Y-118000000D03*
X95450000Y-141450000D03*
X198051167Y-117378429D03*
X114500000Y-136700000D03*
X200516992Y-117648681D03*
X198625000Y-116816133D03*
X133550000Y-135300000D03*
X200145905Y-116939950D03*
X152600000Y-136500000D03*
X198268413Y-116100000D03*
X199775000Y-116231125D03*
X171650000Y-139050000D03*
X76454000Y-158496000D03*
X148132800Y-147825000D03*
X153670000Y-140462000D03*
X154200785Y-141151998D03*
X95504000Y-156845000D03*
X148691600Y-148437600D03*
X114554000Y-152273000D03*
X148107400Y-149047200D03*
X153570998Y-141726998D03*
X133604000Y-150876000D03*
X194758000Y-119989413D03*
X154051000Y-142367000D03*
X197485000Y-122809000D03*
X148656959Y-149628568D03*
X154619000Y-142996998D03*
X197358000Y-121860000D03*
X194831025Y-119112975D03*
X153350000Y-148175000D03*
X171577000Y-154432000D03*
X155194000Y-143637000D03*
X183515000Y-129755000D03*
X124079000Y-170942000D03*
X191135000Y-141732000D03*
X192024000Y-142367000D03*
X143129000Y-171069000D03*
X184404000Y-129755000D03*
X162179000Y-173482000D03*
X182499000Y-129755000D03*
X187706000Y-172720000D03*
X181610000Y-129755000D03*
X180721000Y-129667000D03*
X249809000Y-101092000D03*
D33*
X180850000Y-121100000D03*
X179000000Y-106575000D03*
D24*
X185216800Y-125272800D03*
X179984400Y-135839200D03*
X194767200Y-113284000D03*
X182168800Y-125069600D03*
X198625000Y-119657821D03*
D33*
X177350000Y-110925000D03*
D24*
X269113000Y-98679000D03*
D33*
X211850000Y-115700000D03*
X230632000Y-119700000D03*
D24*
X225600000Y-130079000D03*
D33*
X230387500Y-111837500D03*
X230886000Y-124968000D03*
X217525600Y-111125000D03*
D24*
X214900000Y-126100000D03*
D33*
X223500000Y-104950000D03*
D24*
X214200000Y-121800000D03*
X287909000Y-97155000D03*
X307213000Y-98679000D03*
X326644000Y-103505000D03*
X186225000Y-99150000D03*
X181375000Y-100270002D03*
X345313000Y-104775000D03*
X249301000Y-116459000D03*
X256006600Y-111252000D03*
X248564400Y-110786000D03*
X268478000Y-114046000D03*
X249301000Y-110436000D03*
X255447800Y-110642400D03*
X287401000Y-112649000D03*
X250063000Y-110086000D03*
X306451000Y-114046000D03*
X254863600Y-110086000D03*
X325501000Y-118491000D03*
X344551000Y-120015000D03*
X249301000Y-135001000D03*
X268605000Y-132715000D03*
X287528000Y-131318000D03*
X306451000Y-132842000D03*
X325501000Y-137033000D03*
X344551000Y-138938000D03*
X249301000Y-154432000D03*
X268351000Y-152019000D03*
X287401000Y-150749000D03*
X306451000Y-152019000D03*
X324993000Y-155956000D03*
X344678000Y-157607000D03*
X230124000Y-143256000D03*
X229743000Y-188468000D03*
X216027000Y-131445000D03*
X258826000Y-173101000D03*
X217816733Y-119063094D03*
X218694000Y-118999000D03*
X216662000Y-130937000D03*
X277876000Y-170434000D03*
X217297000Y-130429000D03*
X219710000Y-118872000D03*
X296799000Y-170688000D03*
X219805117Y-113601744D03*
X222278278Y-113763794D03*
X220957000Y-119657000D03*
X219762500Y-119962500D03*
X213100000Y-124275000D03*
X208800000Y-144900000D03*
X213100000Y-126100000D03*
X209075000Y-120875000D03*
X317703200Y-95250000D03*
X260756400Y-112217200D03*
X269875000Y-148725000D03*
X343154000Y-97790000D03*
X220975000Y-141225000D03*
D33*
X280873200Y-105613200D03*
D24*
X216154000Y-112166400D03*
X223875600Y-119811800D03*
X227838000Y-121666000D03*
X206875000Y-109025000D03*
X215265000Y-124968000D03*
X236575600Y-105918000D03*
X232613200Y-121564400D03*
D33*
X208610414Y-112387500D03*
D24*
X208100000Y-119025000D03*
X217200000Y-100400000D03*
X346964000Y-127355600D03*
D33*
X219075000Y-107061000D03*
D24*
X219506800Y-163728400D03*
X232765600Y-151231600D03*
X241858800Y-117805200D03*
X225958400Y-116586000D03*
X232765600Y-111912400D03*
X247802400Y-170332400D03*
X225350000Y-101300000D03*
X221025000Y-105175000D03*
X215138000Y-130175000D03*
X239776000Y-125476000D03*
X214225000Y-119800000D03*
X223400000Y-127100000D03*
X222504000Y-124079000D03*
X252095000Y-105308400D03*
X220600000Y-129900000D03*
D33*
X226943543Y-102452865D03*
D24*
X214475000Y-113200000D03*
X223025000Y-102875000D03*
X238252000Y-112268000D03*
X301955200Y-168198800D03*
D33*
X323240400Y-132791200D03*
D24*
X211074000Y-164211000D03*
X212750000Y-116300000D03*
X219875000Y-92925000D03*
X220726000Y-116535200D03*
X228450000Y-93625000D03*
X208025000Y-115925000D03*
X215075000Y-96775000D03*
X233324400Y-191211200D03*
X213360000Y-128143000D03*
X230136000Y-120650000D03*
D33*
X306374800Y-147421600D03*
D24*
X282041600Y-92151200D03*
X237075000Y-132125000D03*
X208050000Y-93150000D03*
X230124000Y-113800000D03*
X232050000Y-104500000D03*
X241808000Y-92811600D03*
X277977600Y-187045600D03*
X209375000Y-129175000D03*
X299008800Y-130302000D03*
X260045200Y-129590800D03*
X242115230Y-165437851D03*
X314147200Y-115722400D03*
X346710000Y-165252400D03*
D33*
X282295600Y-163271200D03*
D24*
X214075000Y-110225000D03*
X188225000Y-121160000D03*
X184251600Y-121412000D03*
X187133622Y-117035327D03*
X183438800Y-115620800D03*
D33*
X196925000Y-97500000D03*
X181625000Y-104625000D03*
X179625000Y-104625000D03*
X216625000Y-97200000D03*
X228500000Y-104725000D03*
X226475000Y-104600000D03*
D24*
X230256000Y-100270002D03*
X235100000Y-99200000D03*
X200100000Y-105925000D03*
X201225000Y-103900000D03*
M02*
