G04 #@! TF.GenerationSoftware,KiCad,Pcbnew,10.0.5*
G04 #@! TF.CreationDate,2026-08-27T21:42:02+12:00*
G04 #@! TF.ProjectId,Koca58,4b6f6361-3538-42e6-9b69-6361645f7063,v1.1.0*
G04 #@! TF.SameCoordinates,Original*
G04 #@! TF.FileFunction,Soldermask,Bot*
G04 #@! TF.FilePolarity,Negative*
%FSLAX46Y46*%
G04 Gerber Fmt 4.6, Leading zero omitted, Abs format (unit mm)*
G04 Created by KiCad (PCBNEW 10.0.5) date 2026-08-27 21:42:02*
%MOMM*%
%LPD*%
G01*
G04 APERTURE LIST*
G04 Aperture macros list*
%AMRoundRect*
0 Rectangle with rounded corners*
0 $1 Rounding radius*
0 $2 $3 $4 $5 $6 $7 $8 $9 X,Y pos of 4 corners*
0 Add a 4 corners polygon primitive as box body*
4,1,4,$2,$3,$4,$5,$6,$7,$8,$9,$2,$3,0*
0 Add four circle primitives for the rounded corners*
1,1,$1+$1,$2,$3*
1,1,$1+$1,$4,$5*
1,1,$1+$1,$6,$7*
1,1,$1+$1,$8,$9*
0 Add four rect primitives between the rounded corners*
20,1,$1+$1,$2,$3,$4,$5,0*
20,1,$1+$1,$4,$5,$6,$7,0*
20,1,$1+$1,$6,$7,$8,$9,0*
20,1,$1+$1,$8,$9,$2,$3,0*%
G04 Aperture macros list end*
%ADD10C,5.000000*%
%ADD11C,3.200000*%
%ADD12R,1.500000X1.500000*%
%ADD13C,1.500000*%
%ADD14C,4.400000*%
%ADD15C,0.600000*%
%ADD16C,0.650000*%
%ADD17O,1.000000X2.100000*%
%ADD18O,1.000000X1.600000*%
%ADD19R,1.700000X1.700000*%
%ADD20C,1.700000*%
%ADD21C,3.000000*%
%ADD22C,4.000000*%
%ADD23RoundRect,0.250000X1.250000X1.000000X-1.250000X1.000000X-1.250000X-1.000000X1.250000X-1.000000X0*%
%ADD24RoundRect,0.250000X1.491025X-0.582532X0.241025X1.582532X-1.491025X0.582532X-0.241025X-1.582532X0*%
%ADD25R,1.000000X1.500000*%
%ADD26RoundRect,0.250000X-0.241025X1.582532X-1.491025X-0.582532X0.241025X-1.582532X1.491025X0.582532X0*%
%ADD27C,1.000000*%
%ADD28C,0.800000*%
G04 APERTURE END LIST*
D10*
X80000000Y-116150000D03*
X227056000Y-166950000D03*
D11*
X219671000Y-95950000D03*
X208241000Y-95950000D03*
D12*
X218401000Y-102300000D03*
D13*
X217131000Y-104840000D03*
X215861000Y-102300000D03*
X214591000Y-104840000D03*
X213321000Y-102300000D03*
X212051000Y-104840000D03*
X210781000Y-102300000D03*
X209511000Y-104840000D03*
D14*
X177800000Y-138800000D03*
D10*
X181200000Y-166950000D03*
D15*
X122414800Y-91287600D03*
X121614800Y-91287600D03*
X120814800Y-91287600D03*
X120014800Y-91287600D03*
X119214800Y-91287600D03*
X118414800Y-91287600D03*
D10*
X155800000Y-150450000D03*
D16*
X231446000Y-97600000D03*
X225666000Y-97600000D03*
D17*
X232876000Y-98130000D03*
D18*
X232876000Y-93950000D03*
D17*
X224236000Y-98130000D03*
D18*
X224236000Y-93950000D03*
D10*
X328256000Y-116150000D03*
X80000000Y-154150000D03*
D15*
X180987600Y-91287600D03*
X180187600Y-91287600D03*
X179387600Y-91287600D03*
X178587600Y-91287600D03*
X177787600Y-91287600D03*
X176987600Y-91287600D03*
D10*
X252456000Y-150450000D03*
D14*
X230456000Y-138800000D03*
D15*
X250926800Y-189992000D03*
X251726800Y-189992000D03*
X252526800Y-189992000D03*
X253326800Y-189992000D03*
X254126800Y-189992000D03*
X254926800Y-189992000D03*
D10*
X252456000Y-112450000D03*
D19*
X223766000Y-133800000D03*
D20*
X221226000Y-133800000D03*
X218686000Y-133800000D03*
X216146000Y-133800000D03*
D15*
X289813600Y-91287600D03*
X289013600Y-91287600D03*
X288213600Y-91287600D03*
X287413600Y-91287600D03*
X286613600Y-91287600D03*
X285813600Y-91287600D03*
D16*
X182590000Y-97600000D03*
X176810000Y-97600000D03*
D17*
X184020000Y-98130000D03*
D18*
X184020000Y-93950000D03*
D17*
X175380000Y-98130000D03*
D18*
X175380000Y-93950000D03*
D14*
X208956000Y-138800000D03*
D15*
X67831200Y-175260000D03*
X68631200Y-175260000D03*
X69431200Y-175260000D03*
X70231200Y-175260000D03*
X71031200Y-175260000D03*
X71831200Y-175260000D03*
D10*
X155800000Y-112450000D03*
D15*
X336639200Y-175260000D03*
X337439200Y-175260000D03*
X338239200Y-175260000D03*
X339039200Y-175260000D03*
X339839200Y-175260000D03*
X340639200Y-175260000D03*
X153518000Y-189992000D03*
X154318000Y-189992000D03*
X155118000Y-189992000D03*
X155918000Y-189992000D03*
X156718000Y-189992000D03*
X157518000Y-189992000D03*
D10*
X328256000Y-154150000D03*
D14*
X199300000Y-138800000D03*
D11*
X200015000Y-95950000D03*
X188585000Y-95950000D03*
D12*
X198745000Y-102300000D03*
D13*
X197475000Y-104840000D03*
X196205000Y-102300000D03*
X194935000Y-104840000D03*
X193665000Y-102300000D03*
X192395000Y-104840000D03*
X191125000Y-102300000D03*
X189855000Y-104840000D03*
D19*
X192110000Y-133800000D03*
D20*
X189570000Y-133800000D03*
X187030000Y-133800000D03*
X184490000Y-133800000D03*
D15*
X231616000Y-91288400D03*
X230816000Y-91288400D03*
X230016000Y-91288400D03*
X229216000Y-91288400D03*
X228416000Y-91288400D03*
X227616000Y-91288400D03*
D20*
X305186000Y-101900000D03*
D21*
X302646000Y-96820000D03*
D22*
X300106000Y-101900000D03*
D21*
X296296000Y-99360000D03*
D20*
X295026000Y-101900000D03*
D23*
X292486000Y-99360000D03*
X306456000Y-96820000D03*
D20*
X276786000Y-178100000D03*
D21*
X274246000Y-173020000D03*
D22*
X271706000Y-178100000D03*
D21*
X267896000Y-175560000D03*
D20*
X266626000Y-178100000D03*
D23*
X264086000Y-175560000D03*
X278056000Y-173020000D03*
D20*
X228986000Y-151850000D03*
D21*
X226446000Y-146770000D03*
D22*
X223906000Y-151850000D03*
D21*
X220096000Y-149310000D03*
D20*
X218826000Y-151850000D03*
D23*
X216286000Y-149310000D03*
X230256000Y-146770000D03*
D20*
X94180000Y-144850000D03*
D21*
X91640000Y-139770000D03*
D22*
X89100000Y-144850000D03*
D21*
X85290000Y-142310000D03*
D20*
X84020000Y-144850000D03*
D23*
X81480000Y-142310000D03*
X95450000Y-139770000D03*
D20*
X132280000Y-119550000D03*
D21*
X129740000Y-114470000D03*
D22*
X127200000Y-119550000D03*
D21*
X123390000Y-117010000D03*
D20*
X122120000Y-119550000D03*
D23*
X119580000Y-117010000D03*
X133550000Y-114470000D03*
D20*
X132280000Y-138600000D03*
D21*
X129740000Y-133520000D03*
D22*
X127200000Y-138600000D03*
D21*
X123390000Y-136060000D03*
D20*
X122120000Y-138600000D03*
D23*
X119580000Y-136060000D03*
X133550000Y-133520000D03*
D20*
X170380000Y-142400000D03*
D21*
X167840000Y-137320000D03*
D22*
X165300000Y-142400000D03*
D21*
X161490000Y-139860000D03*
D20*
X160220000Y-142400000D03*
D23*
X157680000Y-139860000D03*
X171650000Y-137320000D03*
D20*
X94180000Y-106750000D03*
D21*
X91640000Y-101670000D03*
D22*
X89100000Y-106750000D03*
D21*
X85290000Y-104210000D03*
D20*
X84020000Y-106750000D03*
D23*
X81480000Y-104210000D03*
X95450000Y-101670000D03*
D20*
X75130000Y-146300000D03*
D21*
X72590000Y-141220000D03*
D22*
X70050000Y-146300000D03*
D21*
X66240000Y-143760000D03*
D20*
X64970000Y-146300000D03*
D23*
X62430000Y-143760000D03*
X76400000Y-141220000D03*
D20*
X151330000Y-120950000D03*
D21*
X148790000Y-115870000D03*
D22*
X146250000Y-120950000D03*
D21*
X142440000Y-118410000D03*
D20*
X141170000Y-120950000D03*
D23*
X138630000Y-118410000D03*
X152600000Y-115870000D03*
D20*
X267086000Y-101900000D03*
D21*
X264546000Y-96820000D03*
D22*
X262006000Y-101900000D03*
D21*
X258196000Y-99360000D03*
D20*
X256926000Y-101900000D03*
D23*
X254386000Y-99360000D03*
X268356000Y-96820000D03*
D20*
X267086000Y-159050000D03*
D21*
X264546000Y-153970000D03*
D22*
X262006000Y-159050000D03*
D21*
X258196000Y-156510000D03*
D20*
X256926000Y-159050000D03*
D23*
X254386000Y-156510000D03*
X268356000Y-153970000D03*
D20*
X132280000Y-157650000D03*
D21*
X129740000Y-152570000D03*
D22*
X127200000Y-157650000D03*
D21*
X123390000Y-155110000D03*
D20*
X122120000Y-157650000D03*
D23*
X119580000Y-155110000D03*
X133550000Y-152570000D03*
D20*
X113230000Y-120950000D03*
D21*
X110690000Y-115870000D03*
D22*
X108150000Y-120950000D03*
D21*
X104340000Y-118410000D03*
D20*
X103070000Y-120950000D03*
D23*
X100530000Y-118410000D03*
X114500000Y-115870000D03*
D20*
X305186000Y-120950000D03*
D21*
X302646000Y-115870000D03*
D22*
X300106000Y-120950000D03*
D21*
X296296000Y-118410000D03*
D20*
X295026000Y-120950000D03*
D23*
X292486000Y-118410000D03*
X306456000Y-115870000D03*
D20*
X170380000Y-123350000D03*
D21*
X167840000Y-118270000D03*
D22*
X165300000Y-123350000D03*
D21*
X161490000Y-120810000D03*
D20*
X160220000Y-123350000D03*
D23*
X157680000Y-120810000D03*
X171650000Y-118270000D03*
D20*
X286136000Y-100500000D03*
D21*
X283596000Y-95420000D03*
D22*
X281056000Y-100500000D03*
D21*
X277246000Y-97960000D03*
D20*
X275976000Y-100500000D03*
D23*
X273436000Y-97960000D03*
X287406000Y-95420000D03*
D20*
X122580000Y-178100000D03*
D21*
X120040000Y-173020000D03*
D22*
X117500000Y-178100000D03*
D21*
X113690000Y-175560000D03*
D20*
X112420000Y-178100000D03*
D23*
X109880000Y-175560000D03*
X123850000Y-173020000D03*
D20*
X189430000Y-151850000D03*
D21*
X186890000Y-146770000D03*
D22*
X184350000Y-151850000D03*
D21*
X180540000Y-149310000D03*
D20*
X179270000Y-151850000D03*
D23*
X176730000Y-149310000D03*
X190700000Y-146770000D03*
D20*
X324236000Y-144850000D03*
D21*
X321696000Y-139770000D03*
D22*
X319156000Y-144850000D03*
D21*
X315346000Y-142310000D03*
D20*
X314076000Y-144850000D03*
D23*
X311536000Y-142310000D03*
X325506000Y-139770000D03*
D20*
X343286000Y-146300000D03*
D21*
X340746000Y-141220000D03*
D22*
X338206000Y-146300000D03*
D21*
X334396000Y-143760000D03*
D20*
X333126000Y-146300000D03*
D23*
X330586000Y-143760000D03*
X344556000Y-141220000D03*
D20*
X248036000Y-104300000D03*
D21*
X245496000Y-99220000D03*
D22*
X242956000Y-104300000D03*
D21*
X239146000Y-101760000D03*
D20*
X237876000Y-104300000D03*
D23*
X235336000Y-101760000D03*
X249306000Y-99220000D03*
D20*
X132280000Y-100500000D03*
D21*
X129740000Y-95420000D03*
D22*
X127200000Y-100500000D03*
D21*
X123390000Y-97960000D03*
D20*
X122120000Y-100500000D03*
D23*
X119580000Y-97960000D03*
X133550000Y-95420000D03*
D20*
X286136000Y-157650000D03*
D21*
X283596000Y-152570000D03*
D22*
X281056000Y-157650000D03*
D21*
X277246000Y-155110000D03*
D20*
X275976000Y-157650000D03*
D23*
X273436000Y-155110000D03*
X287406000Y-152570000D03*
D20*
X257736000Y-180500000D03*
D21*
X255196000Y-175420000D03*
D22*
X252656000Y-180500000D03*
D21*
X248846000Y-177960000D03*
D20*
X247576000Y-180500000D03*
D23*
X245036000Y-177960000D03*
X259006000Y-175420000D03*
D20*
X248036000Y-123350000D03*
D21*
X245496000Y-118270000D03*
D22*
X242956000Y-123350000D03*
D21*
X239146000Y-120810000D03*
D20*
X237876000Y-123350000D03*
D23*
X235336000Y-120810000D03*
X249306000Y-118270000D03*
D20*
X151330000Y-140000000D03*
D21*
X148790000Y-134920000D03*
D22*
X146250000Y-140000000D03*
D21*
X142440000Y-137460000D03*
D20*
X141170000Y-140000000D03*
D23*
X138630000Y-137460000D03*
X152600000Y-134920000D03*
D20*
X324236000Y-106750000D03*
D21*
X321696000Y-101670000D03*
D22*
X319156000Y-106750000D03*
D21*
X315346000Y-104210000D03*
D20*
X314076000Y-106750000D03*
D23*
X311536000Y-104210000D03*
X325506000Y-101670000D03*
D20*
X94180000Y-163900000D03*
D21*
X91640000Y-158820000D03*
D22*
X89100000Y-163900000D03*
D21*
X85290000Y-161360000D03*
D20*
X84020000Y-163900000D03*
D23*
X81480000Y-161360000D03*
X95450000Y-158820000D03*
D20*
X141630000Y-178100000D03*
D21*
X139090000Y-173020000D03*
D22*
X136550000Y-178100000D03*
D21*
X132740000Y-175560000D03*
D20*
X131470000Y-178100000D03*
D23*
X128930000Y-175560000D03*
X142900000Y-173020000D03*
D20*
X113230000Y-140000000D03*
D21*
X110690000Y-134920000D03*
D22*
X108150000Y-140000000D03*
D21*
X104340000Y-137460000D03*
D20*
X103070000Y-140000000D03*
D23*
X100530000Y-137460000D03*
X114500000Y-134920000D03*
D20*
X248036000Y-142400000D03*
D21*
X245496000Y-137320000D03*
D22*
X242956000Y-142400000D03*
D21*
X239146000Y-139860000D03*
D20*
X237876000Y-142400000D03*
D23*
X235336000Y-139860000D03*
X249306000Y-137320000D03*
D20*
X229996000Y-185699409D03*
D21*
X233125409Y-180959705D03*
D22*
X227456000Y-181300000D03*
D21*
X227750705Y-176730443D03*
D20*
X224916000Y-176900591D03*
D24*
X225845705Y-173430886D03*
X235030409Y-184259261D03*
D20*
X295836000Y-178100000D03*
D21*
X293296000Y-173020000D03*
D22*
X290756000Y-178100000D03*
D21*
X286946000Y-175560000D03*
D20*
X285676000Y-178100000D03*
D23*
X283136000Y-175560000D03*
X297106000Y-173020000D03*
D20*
X286136000Y-138600000D03*
D21*
X283596000Y-133520000D03*
D22*
X281056000Y-138600000D03*
D21*
X277246000Y-136060000D03*
D20*
X275976000Y-138600000D03*
D23*
X273436000Y-136060000D03*
X287406000Y-133520000D03*
D20*
X267086000Y-140000000D03*
D21*
X264546000Y-134920000D03*
D22*
X262006000Y-140000000D03*
D21*
X258196000Y-137460000D03*
D20*
X256926000Y-140000000D03*
D23*
X254386000Y-137460000D03*
X268356000Y-134920000D03*
D20*
X343286000Y-108200000D03*
D21*
X340746000Y-103120000D03*
D22*
X338206000Y-108200000D03*
D21*
X334396000Y-105660000D03*
D20*
X333126000Y-108200000D03*
D23*
X330586000Y-105660000D03*
X344556000Y-103120000D03*
D25*
X198300000Y-152750000D03*
X198300000Y-144850000D03*
D20*
X305186000Y-159050000D03*
D21*
X302646000Y-153970000D03*
D22*
X300106000Y-159050000D03*
D21*
X296296000Y-156510000D03*
D20*
X295026000Y-159050000D03*
D23*
X292486000Y-156510000D03*
X306456000Y-153970000D03*
D20*
X113230000Y-101900000D03*
D21*
X110690000Y-96820000D03*
D22*
X108150000Y-101900000D03*
D21*
X104340000Y-99360000D03*
D20*
X103070000Y-101900000D03*
D23*
X100530000Y-99360000D03*
X114500000Y-96820000D03*
D20*
X286136000Y-119550000D03*
D21*
X283596000Y-114470000D03*
D22*
X281056000Y-119550000D03*
D21*
X277246000Y-117010000D03*
D20*
X275976000Y-119550000D03*
D23*
X273436000Y-117010000D03*
X287406000Y-114470000D03*
D20*
X183340000Y-176900591D03*
D21*
X177670591Y-176560295D03*
D22*
X180800000Y-181300000D03*
D21*
X176695295Y-183329557D03*
D20*
X178260000Y-185699409D03*
D26*
X174790295Y-186629114D03*
X179575591Y-173260739D03*
D20*
X75130000Y-165350000D03*
D21*
X72590000Y-160270000D03*
D22*
X70050000Y-165350000D03*
D21*
X66240000Y-162810000D03*
D20*
X64970000Y-165350000D03*
D23*
X62430000Y-162810000D03*
X76400000Y-160270000D03*
D20*
X343286000Y-127250000D03*
D21*
X340746000Y-122170000D03*
D22*
X338206000Y-127250000D03*
D21*
X334396000Y-124710000D03*
D20*
X333126000Y-127250000D03*
D23*
X330586000Y-124710000D03*
X344556000Y-122170000D03*
D20*
X75130000Y-127250000D03*
D21*
X72590000Y-122170000D03*
D22*
X70050000Y-127250000D03*
D21*
X66240000Y-124710000D03*
D20*
X64970000Y-127250000D03*
D23*
X62430000Y-124710000D03*
X76400000Y-122170000D03*
D20*
X151330000Y-101900000D03*
D21*
X148790000Y-96820000D03*
D22*
X146250000Y-101900000D03*
D21*
X142440000Y-99360000D03*
D20*
X141170000Y-101900000D03*
D23*
X138630000Y-99360000D03*
X152600000Y-96820000D03*
D20*
X324236000Y-125800000D03*
D21*
X321696000Y-120720000D03*
D22*
X319156000Y-125800000D03*
D21*
X315346000Y-123260000D03*
D20*
X314076000Y-125800000D03*
D23*
X311536000Y-123260000D03*
X325506000Y-120720000D03*
D20*
X324236000Y-163900000D03*
D21*
X321696000Y-158820000D03*
D22*
X319156000Y-163900000D03*
D21*
X315346000Y-161360000D03*
D20*
X314076000Y-163900000D03*
D23*
X311536000Y-161360000D03*
X325506000Y-158820000D03*
D20*
X170380000Y-161450000D03*
D21*
X167840000Y-156370000D03*
D22*
X165300000Y-161450000D03*
D21*
X161490000Y-158910000D03*
D20*
X160220000Y-161450000D03*
D23*
X157680000Y-158910000D03*
X171650000Y-156370000D03*
D20*
X170380000Y-104300000D03*
D21*
X167840000Y-99220000D03*
D22*
X165300000Y-104300000D03*
D21*
X161490000Y-101760000D03*
D20*
X160220000Y-104300000D03*
D23*
X157680000Y-101760000D03*
X171650000Y-99220000D03*
D20*
X248036000Y-161450000D03*
D21*
X245496000Y-156370000D03*
D22*
X242956000Y-161450000D03*
D21*
X239146000Y-158910000D03*
D20*
X237876000Y-161450000D03*
D23*
X235336000Y-158910000D03*
X249306000Y-156370000D03*
D20*
X75130000Y-108200000D03*
D21*
X72590000Y-103120000D03*
D22*
X70050000Y-108200000D03*
D21*
X66240000Y-105660000D03*
D20*
X64970000Y-108200000D03*
D23*
X62430000Y-105660000D03*
X76400000Y-103120000D03*
D25*
X209956000Y-152750000D03*
X209956000Y-144850000D03*
D20*
X151330000Y-159050000D03*
D21*
X148790000Y-153970000D03*
D22*
X146250000Y-159050000D03*
D21*
X142440000Y-156510000D03*
D20*
X141170000Y-159050000D03*
D23*
X138630000Y-156510000D03*
X152600000Y-153970000D03*
D20*
X267086000Y-120950000D03*
D21*
X264546000Y-115870000D03*
D22*
X262006000Y-120950000D03*
D21*
X258196000Y-118410000D03*
D20*
X256926000Y-120950000D03*
D23*
X254386000Y-118410000D03*
X268356000Y-115870000D03*
D20*
X94180000Y-125800000D03*
D21*
X91640000Y-120720000D03*
D22*
X89100000Y-125800000D03*
D21*
X85290000Y-123260000D03*
D20*
X84020000Y-125800000D03*
D23*
X81480000Y-123260000D03*
X95450000Y-120720000D03*
D20*
X160680000Y-180500000D03*
D21*
X158140000Y-175420000D03*
D22*
X155600000Y-180500000D03*
D21*
X151790000Y-177960000D03*
D20*
X150520000Y-180500000D03*
D23*
X147980000Y-177960000D03*
X161950000Y-175420000D03*
D20*
X305186000Y-140000000D03*
D21*
X302646000Y-134920000D03*
D22*
X300106000Y-140000000D03*
D21*
X296296000Y-137460000D03*
D20*
X295026000Y-140000000D03*
D23*
X292486000Y-137460000D03*
X306456000Y-134920000D03*
D20*
X343286000Y-165350000D03*
D21*
X340746000Y-160270000D03*
D22*
X338206000Y-165350000D03*
D21*
X334396000Y-162810000D03*
D20*
X333126000Y-165350000D03*
D23*
X330586000Y-162810000D03*
X344556000Y-160270000D03*
D20*
X113230000Y-159050000D03*
D21*
X110690000Y-153970000D03*
D22*
X108150000Y-159050000D03*
D21*
X104340000Y-156510000D03*
D20*
X103070000Y-159050000D03*
D23*
X100530000Y-156510000D03*
X114500000Y-153970000D03*
D27*
X190600099Y-106659901D03*
X184045001Y-106670887D03*
D15*
X187425000Y-124000000D03*
X183400000Y-125550000D03*
X181750000Y-123350000D03*
D27*
X183346752Y-100353248D03*
X173000000Y-103900000D03*
D15*
X182950000Y-104500000D03*
X194450000Y-113700000D03*
D27*
X181867725Y-103325000D03*
D15*
X194550000Y-120450000D03*
D27*
X176300000Y-100350000D03*
X177000000Y-120050000D03*
X191575000Y-127575000D03*
D28*
X177800000Y-112700000D03*
D15*
X176575000Y-119250000D03*
X187080763Y-126862639D03*
X191175000Y-136700000D03*
X182700000Y-127600000D03*
X174950000Y-100800000D03*
D27*
X201580225Y-112100000D03*
D15*
X183450000Y-108900000D03*
D27*
X172540000Y-109700000D03*
D15*
X186950000Y-129300000D03*
D27*
X231725000Y-119780000D03*
X231775000Y-114155000D03*
X231724048Y-124755000D03*
X235750000Y-109525000D03*
X231725000Y-122315000D03*
X227045000Y-127500000D03*
X235775000Y-114155000D03*
X229405000Y-127525000D03*
D15*
X229400000Y-114400000D03*
X217950000Y-127750000D03*
X217400000Y-123400000D03*
D27*
X225625000Y-127000000D03*
D15*
X211400000Y-119350000D03*
X222341003Y-126968776D03*
X230125000Y-120575000D03*
D28*
X227488098Y-103174999D03*
D27*
X225156000Y-100300000D03*
X232179313Y-108921053D03*
D15*
X218925000Y-125700000D03*
D27*
X212650000Y-120050000D03*
D15*
X235400000Y-96600000D03*
X214550000Y-125250000D03*
X216180000Y-137450000D03*
X222200000Y-129450000D03*
X225500000Y-103050000D03*
D27*
X232500000Y-103787500D03*
X208444776Y-112387501D03*
D28*
X212801041Y-112301041D03*
D27*
X231956000Y-100300000D03*
D15*
X219200000Y-108900000D03*
X223075000Y-124075000D03*
D27*
X214650000Y-106900000D03*
D15*
X182760000Y-115080000D03*
D27*
X176705000Y-121625000D03*
X182855000Y-130870000D03*
X179860000Y-130919772D03*
X195540000Y-122225000D03*
D15*
X190625000Y-124475000D03*
D27*
X188200000Y-130870000D03*
D15*
X195530000Y-124465000D03*
D27*
X174575000Y-121625000D03*
X190625000Y-125805000D03*
D15*
X182770000Y-113470000D03*
X142900000Y-171350000D03*
X183100000Y-146025000D03*
X183100000Y-140220000D03*
X182400000Y-145465000D03*
X123850000Y-171375000D03*
X182400000Y-139795000D03*
X199125000Y-144825000D03*
X197005000Y-125050000D03*
X201525000Y-125050000D03*
X76400000Y-158600000D03*
X95500000Y-147945000D03*
X95500000Y-149055000D03*
X95500000Y-157200000D03*
X114500000Y-152300000D03*
X114500000Y-145385000D03*
X114500000Y-146805000D03*
X133600000Y-150900000D03*
X133600000Y-145385000D03*
X133600000Y-147115000D03*
X152600000Y-152300000D03*
X152600000Y-147425000D03*
X152600000Y-145385000D03*
X171600000Y-154700000D03*
X171600000Y-148950000D03*
X171600000Y-146600000D03*
X80692445Y-148492445D03*
X76400000Y-142850000D03*
X79907555Y-147707555D03*
X100767445Y-147617445D03*
X99157555Y-146007555D03*
X95450000Y-141400000D03*
X114500000Y-136525000D03*
X116700000Y-143345000D03*
X116700000Y-146805000D03*
X135600000Y-143345000D03*
X133550000Y-135150000D03*
X135600000Y-147115000D03*
X154800000Y-147425000D03*
X152600000Y-136500000D03*
X154800000Y-143345000D03*
X175961701Y-145561702D03*
X172607555Y-142207555D03*
X171650000Y-138950000D03*
X153550000Y-105955000D03*
X172900000Y-93450000D03*
X194610000Y-110735000D03*
X163749947Y-94149945D03*
X194605670Y-112500558D03*
X153550000Y-103915000D03*
X76400000Y-123800000D03*
X161686817Y-94204891D03*
X190500000Y-92700000D03*
X192850000Y-125605000D03*
X192850112Y-122735000D03*
X192050109Y-122735000D03*
X192050000Y-125605000D03*
X159285055Y-95035055D03*
X114500000Y-117500000D03*
X191055851Y-93394149D03*
X162869891Y-95030001D03*
X151949994Y-105955000D03*
X173800000Y-93450000D03*
X151949997Y-103915000D03*
X95450000Y-122350000D03*
X152749997Y-105955000D03*
X161750000Y-92295000D03*
X152750000Y-103915000D03*
X161700000Y-93405000D03*
X149950000Y-105955000D03*
X149950000Y-103915000D03*
X133550000Y-116100000D03*
X154434259Y-103465633D03*
X155876758Y-104908132D03*
X152600000Y-114200000D03*
X154999946Y-102899946D03*
X156442445Y-104342445D03*
X171650000Y-116550000D03*
X171650000Y-95030000D03*
X154450000Y-96850000D03*
X161074946Y-96824946D03*
X156685963Y-96835963D03*
X133550000Y-97250000D03*
X114500000Y-98700000D03*
X95450000Y-103350000D03*
X76400000Y-104850000D03*
X183419000Y-112374322D03*
X182119000Y-112375000D03*
X180615000Y-137575000D03*
X190700000Y-145175000D03*
X192092445Y-143192445D03*
X182655000Y-137575000D03*
X188896322Y-139996322D03*
X184550000Y-140945000D03*
X178200000Y-172425000D03*
X184601952Y-145465000D03*
X183801949Y-145465000D03*
X183800000Y-140620000D03*
X161950000Y-173725000D03*
X215430000Y-130725000D03*
X210156649Y-129968351D03*
X211379945Y-128745055D03*
X210825000Y-144850000D03*
X213910000Y-130725000D03*
X229137428Y-95950000D03*
X229150000Y-97350000D03*
X228650000Y-124555000D03*
X228650000Y-122825000D03*
X227800000Y-122825000D03*
X227800000Y-124555000D03*
X177094669Y-102620515D03*
X178222739Y-101627261D03*
X236525000Y-183425000D03*
X230250000Y-145050000D03*
X219075000Y-121150000D03*
X217775000Y-121150000D03*
X249300000Y-154650000D03*
X268350000Y-152275000D03*
X287400000Y-150925000D03*
X306450000Y-152200000D03*
X325525000Y-157050000D03*
X344550000Y-158450000D03*
X249300000Y-135550000D03*
X268375000Y-133225000D03*
X287425000Y-131775000D03*
X306450000Y-133275000D03*
X325500000Y-138100000D03*
X344575000Y-139550000D03*
X249300000Y-116625000D03*
X287400000Y-112750000D03*
X268350000Y-108635000D03*
X268350000Y-107525000D03*
X268350000Y-114300000D03*
X306400000Y-114100000D03*
X325500000Y-118900000D03*
X344500000Y-120350000D03*
X344800000Y-104900000D03*
X325900000Y-103450000D03*
X306550000Y-98400000D03*
X287650000Y-97050000D03*
X268550000Y-98500000D03*
X249500000Y-100900000D03*
X219075000Y-112375000D03*
X217775000Y-112350000D03*
X215020000Y-155849997D03*
X297125000Y-171325000D03*
X212800000Y-155850000D03*
X215330000Y-157446025D03*
X278050000Y-171325000D03*
X213910000Y-157450000D03*
X213910000Y-156650000D03*
X259000000Y-173750000D03*
X215020000Y-156650000D03*
M02*
