G04 #@! TF.GenerationSoftware,KiCad,Pcbnew,10.0.5*
G04 #@! TF.CreationDate,2026-08-27T21:42:02+12:00*
G04 #@! TF.ProjectId,Koca58,4b6f6361-3538-42e6-9b69-6361645f7063,v1.1.0*
G04 #@! TF.SameCoordinates,Original*
G04 #@! TF.FileFunction,Soldermask,Top*
G04 #@! TF.FilePolarity,Negative*
%FSLAX46Y46*%
G04 Gerber Fmt 4.6, Leading zero omitted, Abs format (unit mm)*
G04 Created by KiCad (PCBNEW 10.0.5) date 2026-08-27 21:42:02*
%MOMM*%
%LPD*%
G01*
G04 APERTURE LIST*
G04 Aperture macros list*
%AMRoundRect*
0 Rectangle with rounded corners*
0 $1 Rounding radius*
0 $2 $3 $4 $5 $6 $7 $8 $9 X,Y pos of 4 corners*
0 Add a 4 corners polygon primitive as box body*
4,1,4,$2,$3,$4,$5,$6,$7,$8,$9,$2,$3,0*
0 Add four circle primitives for the rounded corners*
1,1,$1+$1,$2,$3*
1,1,$1+$1,$4,$5*
1,1,$1+$1,$6,$7*
1,1,$1+$1,$8,$9*
0 Add four rect primitives between the rounded corners*
20,1,$1+$1,$2,$3,$4,$5,0*
20,1,$1+$1,$4,$5,$6,$7,0*
20,1,$1+$1,$6,$7,$8,$9,0*
20,1,$1+$1,$8,$9,$2,$3,0*%
G04 Aperture macros list end*
%ADD10C,0.100000*%
%ADD11RoundRect,0.135000X-0.185000X0.135000X-0.185000X-0.135000X0.185000X-0.135000X0.185000X0.135000X0*%
%ADD12RoundRect,0.200000X-0.200000X-0.275000X0.200000X-0.275000X0.200000X0.275000X-0.200000X0.275000X0*%
%ADD13R,1.400000X1.200000*%
%ADD14C,5.000000*%
%ADD15R,1.000000X1.500000*%
%ADD16RoundRect,0.140000X-0.140000X-0.170000X0.140000X-0.170000X0.140000X0.170000X-0.140000X0.170000X0*%
%ADD17C,2.000000*%
%ADD18RoundRect,0.150000X0.150000X-0.512500X0.150000X0.512500X-0.150000X0.512500X-0.150000X-0.512500X0*%
%ADD19C,3.200000*%
%ADD20R,1.500000X1.500000*%
%ADD21C,1.500000*%
%ADD22RoundRect,0.075000X0.075000X-0.700000X0.075000X0.700000X-0.075000X0.700000X-0.075000X-0.700000X0*%
%ADD23RoundRect,0.075000X0.700000X-0.075000X0.700000X0.075000X-0.700000X0.075000X-0.700000X-0.075000X0*%
%ADD24RoundRect,0.135000X0.185000X-0.135000X0.185000X0.135000X-0.185000X0.135000X-0.185000X-0.135000X0*%
%ADD25C,4.400000*%
%ADD26C,0.800000*%
%ADD27RoundRect,0.200000X0.200000X0.275000X-0.200000X0.275000X-0.200000X-0.275000X0.200000X-0.275000X0*%
%ADD28C,0.600000*%
%ADD29RoundRect,0.140000X0.140000X0.170000X-0.140000X0.170000X-0.140000X-0.170000X0.140000X-0.170000X0*%
%ADD30RoundRect,0.140000X-0.170000X0.140000X-0.170000X-0.140000X0.170000X-0.140000X0.170000X0.140000X0*%
%ADD31C,0.650000*%
%ADD32R,0.600000X1.450000*%
%ADD33R,0.300000X1.450000*%
%ADD34O,1.000000X2.100000*%
%ADD35O,1.000000X1.600000*%
%ADD36RoundRect,0.225000X0.250000X-0.225000X0.250000X0.225000X-0.250000X0.225000X-0.250000X-0.225000X0*%
%ADD37RoundRect,0.135000X-0.135000X-0.185000X0.135000X-0.185000X0.135000X0.185000X-0.135000X0.185000X0*%
%ADD38RoundRect,0.140000X0.170000X-0.140000X0.170000X0.140000X-0.170000X0.140000X-0.170000X-0.140000X0*%
%ADD39R,1.700000X1.700000*%
%ADD40C,1.700000*%
%ADD41RoundRect,0.150000X-0.150000X0.512500X-0.150000X-0.512500X0.150000X-0.512500X0.150000X0.512500X0*%
%ADD42RoundRect,0.225000X0.225000X0.250000X-0.225000X0.250000X-0.225000X-0.250000X0.225000X-0.250000X0*%
%ADD43RoundRect,0.135000X0.135000X0.185000X-0.135000X0.185000X-0.135000X-0.185000X0.135000X-0.185000X0*%
%ADD44RoundRect,0.218750X-0.218750X-0.256250X0.218750X-0.256250X0.218750X0.256250X-0.218750X0.256250X0*%
%ADD45RoundRect,0.218750X0.218750X0.256250X-0.218750X0.256250X-0.218750X-0.256250X0.218750X-0.256250X0*%
%ADD46C,3.000000*%
%ADD47C,4.000000*%
%ADD48C,1.000000*%
G04 APERTURE END LIST*
G36*
X222925000Y-136700000D02*
G01*
X223225000Y-136700000D01*
X223225000Y-138200000D01*
X222925000Y-138200000D01*
X222925000Y-136700000D01*
G37*
D10*
X348071200Y-81788000D02*
G75*
G02*
X346771200Y-81788000I-650000J0D01*
G01*
X346771200Y-81788000D02*
G75*
G02*
X348071200Y-81788000I650000J0D01*
G01*
X62981600Y-207822800D02*
G75*
G02*
X61681600Y-207822800I-650000J0D01*
G01*
X61681600Y-207822800D02*
G75*
G02*
X62981600Y-207822800I650000J0D01*
G01*
G36*
X184750000Y-136625000D02*
G01*
X185050000Y-136625000D01*
X185050000Y-138125000D01*
X184750000Y-138125000D01*
X184750000Y-136625000D01*
G37*
X62981600Y-81686400D02*
G75*
G02*
X61681600Y-81686400I-650000J0D01*
G01*
X61681600Y-81686400D02*
G75*
G02*
X62981600Y-81686400I650000J0D01*
G01*
X346648800Y-208076800D02*
G75*
G02*
X345348800Y-208076800I-650000J0D01*
G01*
X345348800Y-208076800D02*
G75*
G02*
X346648800Y-208076800I650000J0D01*
G01*
D11*
X211125000Y-108790000D03*
X211125000Y-109810000D03*
D12*
X198275000Y-107300000D03*
X199925000Y-107300000D03*
D13*
X183700000Y-129300000D03*
X185900000Y-129300000D03*
X185900000Y-127600000D03*
X183700000Y-127600000D03*
D14*
X80000000Y-116150000D03*
D15*
X223725000Y-137450000D03*
X222425000Y-137450000D03*
D16*
X221170000Y-126352200D03*
X222130000Y-126352200D03*
D17*
X342747600Y-206603600D03*
D18*
X198950000Y-113237500D03*
X199900000Y-113237500D03*
X200850000Y-113237500D03*
X200850000Y-110962500D03*
X199900000Y-110962500D03*
X198950000Y-110962500D03*
D14*
X227056000Y-166950000D03*
D19*
X219671000Y-95950000D03*
X208241000Y-95950000D03*
D20*
X218401000Y-102300000D03*
D21*
X217131000Y-104840000D03*
X215861000Y-102300000D03*
X214591000Y-104840000D03*
X213321000Y-102300000D03*
X212051000Y-104840000D03*
X210781000Y-102300000D03*
X209511000Y-104840000D03*
D22*
X182769000Y-122450000D03*
X183269000Y-122450000D03*
X183769000Y-122450000D03*
X184269000Y-122450000D03*
X184769000Y-122450000D03*
X185269000Y-122450000D03*
X185769000Y-122450000D03*
X186269000Y-122450000D03*
X186769000Y-122450000D03*
X187269000Y-122450000D03*
X187769000Y-122450000D03*
X188269000Y-122450000D03*
X188769000Y-122450000D03*
X189269000Y-122450000D03*
X189769000Y-122450000D03*
X190269000Y-122450000D03*
D23*
X192194000Y-120525000D03*
X192194000Y-120025000D03*
X192194000Y-119525000D03*
X192194000Y-119025000D03*
X192194000Y-118525000D03*
X192194000Y-118025000D03*
X192194000Y-117525000D03*
X192194000Y-117025000D03*
X192194000Y-116525000D03*
X192194000Y-116025000D03*
X192194000Y-115525000D03*
X192194000Y-115025000D03*
X192194000Y-114525000D03*
X192194000Y-114025000D03*
X192194000Y-113525000D03*
X192194000Y-113025000D03*
D22*
X190269000Y-111100000D03*
X189769000Y-111100000D03*
X189269000Y-111100000D03*
X188769000Y-111100000D03*
X188269000Y-111100000D03*
X187769000Y-111100000D03*
X187269000Y-111100000D03*
X186769000Y-111100000D03*
X186269000Y-111100000D03*
X185769000Y-111100000D03*
X185269000Y-111100000D03*
X184769000Y-111100000D03*
X184269000Y-111100000D03*
X183769000Y-111100000D03*
X183269000Y-111100000D03*
X182769000Y-111100000D03*
D23*
X180844000Y-113025000D03*
X180844000Y-113525000D03*
X180844000Y-114025000D03*
X180844000Y-114525000D03*
X180844000Y-115025000D03*
X180844000Y-115525000D03*
X180844000Y-116025000D03*
X180844000Y-116525000D03*
X180844000Y-117025000D03*
X180844000Y-117525000D03*
X180844000Y-118025000D03*
X180844000Y-118525000D03*
X180844000Y-119025000D03*
X180844000Y-119525000D03*
X180844000Y-120025000D03*
X180844000Y-120525000D03*
D24*
X226150000Y-103060000D03*
X226150000Y-102040000D03*
D25*
X177800000Y-138800000D03*
D24*
X182950000Y-103860000D03*
X182950000Y-102840000D03*
D14*
X181200000Y-166950000D03*
D26*
X213702962Y-112297038D03*
X214600987Y-111399013D03*
X215499013Y-110500987D03*
X216397038Y-109602962D03*
D27*
X211775000Y-107400000D03*
X210125000Y-107400000D03*
D11*
X198700000Y-108540000D03*
X198700000Y-109560000D03*
D16*
X221520000Y-124070000D03*
X222480000Y-124070000D03*
D28*
X122414800Y-91287600D03*
X121614800Y-91287600D03*
X120814800Y-91287600D03*
X120014800Y-91287600D03*
X119214800Y-91287600D03*
X118414800Y-91287600D03*
D29*
X219880000Y-126325000D03*
X218920000Y-126325000D03*
D17*
X65735200Y-82346800D03*
D30*
X229489000Y-119595000D03*
X229489000Y-120555000D03*
D14*
X155800000Y-150450000D03*
D29*
X182730000Y-124000000D03*
X181770000Y-124000000D03*
D31*
X231446000Y-97600000D03*
X225666000Y-97600000D03*
D32*
X231806000Y-99045000D03*
X231006000Y-99045000D03*
D33*
X229806000Y-99045000D03*
X228806000Y-99045000D03*
X228306000Y-99045000D03*
X227306000Y-99045000D03*
D32*
X226106000Y-99045000D03*
X225306000Y-99045000D03*
X225306000Y-99045000D03*
X226106000Y-99045000D03*
D33*
X226806000Y-99045000D03*
X227806000Y-99045000D03*
X229306000Y-99045000D03*
X230306000Y-99045000D03*
D32*
X231006000Y-99045000D03*
X231806000Y-99045000D03*
D34*
X232876000Y-98130000D03*
D35*
X232876000Y-93950000D03*
D34*
X224236000Y-98130000D03*
D35*
X224236000Y-93950000D03*
D14*
X328256000Y-116150000D03*
X80000000Y-154150000D03*
D28*
X180987600Y-91287600D03*
X180187600Y-91287600D03*
X179387600Y-91287600D03*
X178587600Y-91287600D03*
X177787600Y-91287600D03*
X176987600Y-91287600D03*
D18*
X209175000Y-113525000D03*
X210125000Y-113525000D03*
X211075000Y-113525000D03*
X211075000Y-111250000D03*
X210125000Y-111250000D03*
X209175000Y-111250000D03*
D14*
X252456000Y-150450000D03*
D26*
X178705924Y-112694076D03*
X179603949Y-111796051D03*
X180501975Y-110898025D03*
X181400000Y-110000000D03*
D36*
X213650000Y-121625000D03*
X213650000Y-120075000D03*
D16*
X218220000Y-109550000D03*
X219180000Y-109550000D03*
D37*
X211390000Y-118700000D03*
X212410000Y-118700000D03*
D25*
X230456000Y-138800000D03*
D38*
X214925000Y-120755000D03*
X214925000Y-119795000D03*
D30*
X193800000Y-112720000D03*
X193800000Y-113680000D03*
D28*
X250926800Y-189992000D03*
X251726800Y-189992000D03*
X252526800Y-189992000D03*
X253326800Y-189992000D03*
X254126800Y-189992000D03*
X254926800Y-189992000D03*
D24*
X181420000Y-108950000D03*
X181420000Y-107930000D03*
D14*
X252456000Y-112450000D03*
D11*
X224000000Y-104730000D03*
X224000000Y-105750000D03*
D39*
X223766000Y-133800000D03*
D40*
X221226000Y-133800000D03*
X218686000Y-133800000D03*
X216146000Y-133800000D03*
D29*
X224635000Y-124079000D03*
X223675000Y-124079000D03*
D28*
X289813600Y-91287600D03*
X289013600Y-91287600D03*
X288213600Y-91287600D03*
X287413600Y-91287600D03*
X286613600Y-91287600D03*
X285813600Y-91287600D03*
D31*
X182590000Y-97600000D03*
X176810000Y-97600000D03*
D32*
X182950000Y-99045000D03*
X182150000Y-99045000D03*
D33*
X180950000Y-99045000D03*
X179950000Y-99045000D03*
X179450000Y-99045000D03*
X178450000Y-99045000D03*
D32*
X177250000Y-99045000D03*
X176450000Y-99045000D03*
X176450000Y-99045000D03*
X177250000Y-99045000D03*
D33*
X177950000Y-99045000D03*
X178950000Y-99045000D03*
X180450000Y-99045000D03*
X181450000Y-99045000D03*
D32*
X182150000Y-99045000D03*
X182950000Y-99045000D03*
D34*
X184020000Y-98130000D03*
D35*
X184020000Y-93950000D03*
D34*
X175380000Y-98130000D03*
D35*
X175380000Y-93950000D03*
D41*
X234800000Y-105500000D03*
X233850000Y-105500000D03*
X232900000Y-105500000D03*
X232900000Y-107775000D03*
X234800000Y-107775000D03*
D11*
X201400000Y-108564999D03*
X201400000Y-109584999D03*
D41*
X181137500Y-102187500D03*
X180187500Y-102187500D03*
X179237500Y-102187500D03*
X179237500Y-104462500D03*
X180187500Y-104462500D03*
X181137500Y-104462500D03*
D37*
X174940000Y-101450000D03*
X175960000Y-101450000D03*
D16*
X182520000Y-109550000D03*
X183480000Y-109550000D03*
D38*
X179300000Y-120780000D03*
X179300000Y-119820000D03*
D37*
X176565000Y-118600000D03*
X177585000Y-118600000D03*
D42*
X175075000Y-109700000D03*
X173525000Y-109700000D03*
D22*
X218425000Y-122450000D03*
X218925000Y-122450000D03*
X219425000Y-122450000D03*
X219925000Y-122450000D03*
X220425000Y-122450000D03*
X220925000Y-122450000D03*
X221425000Y-122450000D03*
X221925000Y-122450000D03*
X222425000Y-122450000D03*
X222925000Y-122450000D03*
X223425000Y-122450000D03*
X223925000Y-122450000D03*
X224425000Y-122450000D03*
X224925000Y-122450000D03*
X225425000Y-122450000D03*
X225925000Y-122450000D03*
D23*
X227850000Y-120525000D03*
X227850000Y-120025000D03*
X227850000Y-119525000D03*
X227850000Y-119025000D03*
X227850000Y-118525000D03*
X227850000Y-118025000D03*
X227850000Y-117525000D03*
X227850000Y-117025000D03*
X227850000Y-116525000D03*
X227850000Y-116025000D03*
X227850000Y-115525000D03*
X227850000Y-115025000D03*
X227850000Y-114525000D03*
X227850000Y-114025000D03*
X227850000Y-113525000D03*
X227850000Y-113025000D03*
D22*
X225925000Y-111100000D03*
X225425000Y-111100000D03*
X224925000Y-111100000D03*
X224425000Y-111100000D03*
X223925000Y-111100000D03*
X223425000Y-111100000D03*
X222925000Y-111100000D03*
X222425000Y-111100000D03*
X221925000Y-111100000D03*
X221425000Y-111100000D03*
X220925000Y-111100000D03*
X220425000Y-111100000D03*
X219925000Y-111100000D03*
X219425000Y-111100000D03*
X218925000Y-111100000D03*
X218425000Y-111100000D03*
D23*
X216500000Y-113025000D03*
X216500000Y-113525000D03*
X216500000Y-114025000D03*
X216500000Y-114525000D03*
X216500000Y-115025000D03*
X216500000Y-115525000D03*
X216500000Y-116025000D03*
X216500000Y-116525000D03*
X216500000Y-117025000D03*
X216500000Y-117525000D03*
X216500000Y-118025000D03*
X216500000Y-118525000D03*
X216500000Y-119025000D03*
X216500000Y-119525000D03*
X216500000Y-120025000D03*
X216500000Y-120525000D03*
D11*
X179075000Y-124590000D03*
X179075000Y-125610000D03*
D16*
X190620000Y-126750000D03*
X191580000Y-126750000D03*
D43*
X217815000Y-137450000D03*
X216795000Y-137450000D03*
D15*
X184250000Y-137375000D03*
X185550000Y-137375000D03*
D25*
X208956000Y-138800000D03*
D36*
X178000000Y-121625000D03*
X178000000Y-120075000D03*
D28*
X67831200Y-175260000D03*
X68631200Y-175260000D03*
X69431200Y-175260000D03*
X70231200Y-175260000D03*
X71031200Y-175260000D03*
X71831200Y-175260000D03*
D17*
X344119200Y-82448400D03*
D44*
X219062500Y-137450000D03*
X220637500Y-137450000D03*
D29*
X184361000Y-126200000D03*
X183401000Y-126200000D03*
D30*
X193900000Y-119470000D03*
X193900000Y-120430000D03*
D11*
X213900000Y-124240000D03*
X213900000Y-125260000D03*
D41*
X175250000Y-105662500D03*
X174300000Y-105662500D03*
X173350000Y-105662500D03*
X173350000Y-107937500D03*
X175250000Y-107937500D03*
D14*
X155800000Y-112450000D03*
D37*
X190152500Y-137350000D03*
X191172500Y-137350000D03*
D11*
X209150000Y-108790000D03*
X209150000Y-109810000D03*
D30*
X229400000Y-112820000D03*
X229400000Y-113780000D03*
D42*
X235075000Y-103787500D03*
X233525000Y-103787500D03*
D17*
X65684400Y-205689200D03*
D29*
X218355000Y-124025000D03*
X217395000Y-124025000D03*
D28*
X336639200Y-175260000D03*
X337439200Y-175260000D03*
X338239200Y-175260000D03*
X339039200Y-175260000D03*
X339839200Y-175260000D03*
X340639200Y-175260000D03*
D13*
X218975000Y-129450000D03*
X221175000Y-129450000D03*
X221175000Y-127750000D03*
X218975000Y-127750000D03*
D16*
X185870000Y-124000000D03*
X186830000Y-124000000D03*
D28*
X153518000Y-189992000D03*
X154318000Y-189992000D03*
X155118000Y-189992000D03*
X155918000Y-189992000D03*
X156718000Y-189992000D03*
X157518000Y-189992000D03*
D14*
X328256000Y-154150000D03*
D30*
X225650000Y-125220000D03*
X225650000Y-126180000D03*
D25*
X199300000Y-138800000D03*
D41*
X229952684Y-102037500D03*
X229002684Y-102037500D03*
X228052684Y-102037500D03*
X228052684Y-104312500D03*
X229002684Y-104312500D03*
X229952684Y-104312500D03*
D19*
X200015000Y-95950000D03*
X188585000Y-95950000D03*
D20*
X198745000Y-102300000D03*
D21*
X197475000Y-104840000D03*
X196205000Y-102300000D03*
X194935000Y-104840000D03*
X193665000Y-102300000D03*
X192395000Y-104840000D03*
X191125000Y-102300000D03*
X189855000Y-104840000D03*
D45*
X188900000Y-137375000D03*
X187325000Y-137375000D03*
D42*
X234650000Y-109537500D03*
X233100000Y-109537500D03*
X175575000Y-103900000D03*
X174025000Y-103900000D03*
D29*
X188980000Y-124000000D03*
X188020000Y-124000000D03*
D43*
X235410000Y-95950000D03*
X234390000Y-95950000D03*
D16*
X185901000Y-126200000D03*
X186861000Y-126200000D03*
D39*
X192110000Y-133800000D03*
D40*
X189570000Y-133800000D03*
X187030000Y-133800000D03*
X184490000Y-133800000D03*
D28*
X231616000Y-91288400D03*
X230816000Y-91288400D03*
X230016000Y-91288400D03*
X229216000Y-91288400D03*
X228416000Y-91288400D03*
X227616000Y-91288400D03*
D40*
X305186000Y-101900000D03*
D46*
X302646000Y-96820000D03*
D47*
X300106000Y-101900000D03*
D46*
X296296000Y-99360000D03*
D40*
X295026000Y-101900000D03*
X276786000Y-178100000D03*
D46*
X274246000Y-173020000D03*
D47*
X271706000Y-178100000D03*
D46*
X267896000Y-175560000D03*
D40*
X266626000Y-178100000D03*
X228986000Y-151850000D03*
D46*
X226446000Y-146770000D03*
D47*
X223906000Y-151850000D03*
D46*
X220096000Y-149310000D03*
D40*
X218826000Y-151850000D03*
X94180000Y-144850000D03*
D46*
X91640000Y-139770000D03*
D47*
X89100000Y-144850000D03*
D46*
X85290000Y-142310000D03*
D40*
X84020000Y-144850000D03*
X132280000Y-119550000D03*
D46*
X129740000Y-114470000D03*
D47*
X127200000Y-119550000D03*
D46*
X123390000Y-117010000D03*
D40*
X122120000Y-119550000D03*
X132280000Y-138600000D03*
D46*
X129740000Y-133520000D03*
D47*
X127200000Y-138600000D03*
D46*
X123390000Y-136060000D03*
D40*
X122120000Y-138600000D03*
X170380000Y-142400000D03*
D46*
X167840000Y-137320000D03*
D47*
X165300000Y-142400000D03*
D46*
X161490000Y-139860000D03*
D40*
X160220000Y-142400000D03*
X94180000Y-106750000D03*
D46*
X91640000Y-101670000D03*
D47*
X89100000Y-106750000D03*
D46*
X85290000Y-104210000D03*
D40*
X84020000Y-106750000D03*
X75130000Y-146300000D03*
D46*
X72590000Y-141220000D03*
D47*
X70050000Y-146300000D03*
D46*
X66240000Y-143760000D03*
D40*
X64970000Y-146300000D03*
X151330000Y-120950000D03*
D46*
X148790000Y-115870000D03*
D47*
X146250000Y-120950000D03*
D46*
X142440000Y-118410000D03*
D40*
X141170000Y-120950000D03*
X267086000Y-101900000D03*
D46*
X264546000Y-96820000D03*
D47*
X262006000Y-101900000D03*
D46*
X258196000Y-99360000D03*
D40*
X256926000Y-101900000D03*
X267086000Y-159050000D03*
D46*
X264546000Y-153970000D03*
D47*
X262006000Y-159050000D03*
D46*
X258196000Y-156510000D03*
D40*
X256926000Y-159050000D03*
X132280000Y-157650000D03*
D46*
X129740000Y-152570000D03*
D47*
X127200000Y-157650000D03*
D46*
X123390000Y-155110000D03*
D40*
X122120000Y-157650000D03*
X113230000Y-120950000D03*
D46*
X110690000Y-115870000D03*
D47*
X108150000Y-120950000D03*
D46*
X104340000Y-118410000D03*
D40*
X103070000Y-120950000D03*
X305186000Y-120950000D03*
D46*
X302646000Y-115870000D03*
D47*
X300106000Y-120950000D03*
D46*
X296296000Y-118410000D03*
D40*
X295026000Y-120950000D03*
X170380000Y-123350000D03*
D46*
X167840000Y-118270000D03*
D47*
X165300000Y-123350000D03*
D46*
X161490000Y-120810000D03*
D40*
X160220000Y-123350000D03*
X286136000Y-100500000D03*
D46*
X283596000Y-95420000D03*
D47*
X281056000Y-100500000D03*
D46*
X277246000Y-97960000D03*
D40*
X275976000Y-100500000D03*
X122580000Y-178100000D03*
D46*
X120040000Y-173020000D03*
D47*
X117500000Y-178100000D03*
D46*
X113690000Y-175560000D03*
D40*
X112420000Y-178100000D03*
X189430000Y-151850000D03*
D46*
X186890000Y-146770000D03*
D47*
X184350000Y-151850000D03*
D46*
X180540000Y-149310000D03*
D40*
X179270000Y-151850000D03*
X324236000Y-144850000D03*
D46*
X321696000Y-139770000D03*
D47*
X319156000Y-144850000D03*
D46*
X315346000Y-142310000D03*
D40*
X314076000Y-144850000D03*
X343286000Y-146300000D03*
D46*
X340746000Y-141220000D03*
D47*
X338206000Y-146300000D03*
D46*
X334396000Y-143760000D03*
D40*
X333126000Y-146300000D03*
X248036000Y-104300000D03*
D46*
X245496000Y-99220000D03*
D47*
X242956000Y-104300000D03*
D46*
X239146000Y-101760000D03*
D40*
X237876000Y-104300000D03*
X132280000Y-100500000D03*
D46*
X129740000Y-95420000D03*
D47*
X127200000Y-100500000D03*
D46*
X123390000Y-97960000D03*
D40*
X122120000Y-100500000D03*
X286136000Y-157650000D03*
D46*
X283596000Y-152570000D03*
D47*
X281056000Y-157650000D03*
D46*
X277246000Y-155110000D03*
D40*
X275976000Y-157650000D03*
X257736000Y-180500000D03*
D46*
X255196000Y-175420000D03*
D47*
X252656000Y-180500000D03*
D46*
X248846000Y-177960000D03*
D40*
X247576000Y-180500000D03*
X248036000Y-123350000D03*
D46*
X245496000Y-118270000D03*
D47*
X242956000Y-123350000D03*
D46*
X239146000Y-120810000D03*
D40*
X237876000Y-123350000D03*
X151330000Y-140000000D03*
D46*
X148790000Y-134920000D03*
D47*
X146250000Y-140000000D03*
D46*
X142440000Y-137460000D03*
D40*
X141170000Y-140000000D03*
X324236000Y-106750000D03*
D46*
X321696000Y-101670000D03*
D47*
X319156000Y-106750000D03*
D46*
X315346000Y-104210000D03*
D40*
X314076000Y-106750000D03*
X94180000Y-163900000D03*
D46*
X91640000Y-158820000D03*
D47*
X89100000Y-163900000D03*
D46*
X85290000Y-161360000D03*
D40*
X84020000Y-163900000D03*
X141630000Y-178100000D03*
D46*
X139090000Y-173020000D03*
D47*
X136550000Y-178100000D03*
D46*
X132740000Y-175560000D03*
D40*
X131470000Y-178100000D03*
X113230000Y-140000000D03*
D46*
X110690000Y-134920000D03*
D47*
X108150000Y-140000000D03*
D46*
X104340000Y-137460000D03*
D40*
X103070000Y-140000000D03*
X248036000Y-142400000D03*
D46*
X245496000Y-137320000D03*
D47*
X242956000Y-142400000D03*
D46*
X239146000Y-139860000D03*
D40*
X237876000Y-142400000D03*
X229996000Y-185699409D03*
D46*
X233125409Y-180959705D03*
D47*
X227456000Y-181300000D03*
D46*
X227750705Y-176730443D03*
D40*
X224916000Y-176900591D03*
X295836000Y-178100000D03*
D46*
X293296000Y-173020000D03*
D47*
X290756000Y-178100000D03*
D46*
X286946000Y-175560000D03*
D40*
X285676000Y-178100000D03*
X286136000Y-138600000D03*
D46*
X283596000Y-133520000D03*
D47*
X281056000Y-138600000D03*
D46*
X277246000Y-136060000D03*
D40*
X275976000Y-138600000D03*
X267086000Y-140000000D03*
D46*
X264546000Y-134920000D03*
D47*
X262006000Y-140000000D03*
D46*
X258196000Y-137460000D03*
D40*
X256926000Y-140000000D03*
X343286000Y-108200000D03*
D46*
X340746000Y-103120000D03*
D47*
X338206000Y-108200000D03*
D46*
X334396000Y-105660000D03*
D40*
X333126000Y-108200000D03*
X305186000Y-159050000D03*
D46*
X302646000Y-153970000D03*
D47*
X300106000Y-159050000D03*
D46*
X296296000Y-156510000D03*
D40*
X295026000Y-159050000D03*
X113230000Y-101900000D03*
D46*
X110690000Y-96820000D03*
D47*
X108150000Y-101900000D03*
D46*
X104340000Y-99360000D03*
D40*
X103070000Y-101900000D03*
X286136000Y-119550000D03*
D46*
X283596000Y-114470000D03*
D47*
X281056000Y-119550000D03*
D46*
X277246000Y-117010000D03*
D40*
X275976000Y-119550000D03*
X183340000Y-176900591D03*
D46*
X177670591Y-176560295D03*
D47*
X180800000Y-181300000D03*
D46*
X176695295Y-183329557D03*
D40*
X178260000Y-185699409D03*
X75130000Y-165350000D03*
D46*
X72590000Y-160270000D03*
D47*
X70050000Y-165350000D03*
D46*
X66240000Y-162810000D03*
D40*
X64970000Y-165350000D03*
X343286000Y-127250000D03*
D46*
X340746000Y-122170000D03*
D47*
X338206000Y-127250000D03*
D46*
X334396000Y-124710000D03*
D40*
X333126000Y-127250000D03*
X75130000Y-127250000D03*
D46*
X72590000Y-122170000D03*
D47*
X70050000Y-127250000D03*
D46*
X66240000Y-124710000D03*
D40*
X64970000Y-127250000D03*
X151330000Y-101900000D03*
D46*
X148790000Y-96820000D03*
D47*
X146250000Y-101900000D03*
D46*
X142440000Y-99360000D03*
D40*
X141170000Y-101900000D03*
X324236000Y-125800000D03*
D46*
X321696000Y-120720000D03*
D47*
X319156000Y-125800000D03*
D46*
X315346000Y-123260000D03*
D40*
X314076000Y-125800000D03*
X324236000Y-163900000D03*
D46*
X321696000Y-158820000D03*
D47*
X319156000Y-163900000D03*
D46*
X315346000Y-161360000D03*
D40*
X314076000Y-163900000D03*
X170380000Y-161450000D03*
D46*
X167840000Y-156370000D03*
D47*
X165300000Y-161450000D03*
D46*
X161490000Y-158910000D03*
D40*
X160220000Y-161450000D03*
X170380000Y-104300000D03*
D46*
X167840000Y-99220000D03*
D47*
X165300000Y-104300000D03*
D46*
X161490000Y-101760000D03*
D40*
X160220000Y-104300000D03*
X248036000Y-161450000D03*
D46*
X245496000Y-156370000D03*
D47*
X242956000Y-161450000D03*
D46*
X239146000Y-158910000D03*
D40*
X237876000Y-161450000D03*
X75130000Y-108200000D03*
D46*
X72590000Y-103120000D03*
D47*
X70050000Y-108200000D03*
D46*
X66240000Y-105660000D03*
D40*
X64970000Y-108200000D03*
X151330000Y-159050000D03*
D46*
X148790000Y-153970000D03*
D47*
X146250000Y-159050000D03*
D46*
X142440000Y-156510000D03*
D40*
X141170000Y-159050000D03*
X267086000Y-120950000D03*
D46*
X264546000Y-115870000D03*
D47*
X262006000Y-120950000D03*
D46*
X258196000Y-118410000D03*
D40*
X256926000Y-120950000D03*
X94180000Y-125800000D03*
D46*
X91640000Y-120720000D03*
D47*
X89100000Y-125800000D03*
D46*
X85290000Y-123260000D03*
D40*
X84020000Y-125800000D03*
X160680000Y-180500000D03*
D46*
X158140000Y-175420000D03*
D47*
X155600000Y-180500000D03*
D46*
X151790000Y-177960000D03*
D40*
X150520000Y-180500000D03*
X305186000Y-140000000D03*
D46*
X302646000Y-134920000D03*
D47*
X300106000Y-140000000D03*
D46*
X296296000Y-137460000D03*
D40*
X295026000Y-140000000D03*
X343286000Y-165350000D03*
D46*
X340746000Y-160270000D03*
D47*
X338206000Y-165350000D03*
D46*
X334396000Y-162810000D03*
D40*
X333126000Y-165350000D03*
X113230000Y-159050000D03*
D46*
X110690000Y-153970000D03*
D47*
X108150000Y-159050000D03*
D46*
X104340000Y-156510000D03*
D40*
X103070000Y-159050000D03*
D48*
X190600099Y-106659901D03*
X184045001Y-106670887D03*
D28*
X187425000Y-124000000D03*
X183400000Y-125550000D03*
X181750000Y-123350000D03*
D48*
X183346752Y-100353248D03*
X173000000Y-103900000D03*
D28*
X182950000Y-104500000D03*
X194450000Y-113700000D03*
D48*
X181867725Y-103325000D03*
D28*
X194550000Y-120450000D03*
D48*
X176300000Y-100350000D03*
X177000000Y-120050000D03*
X191575000Y-127575000D03*
D26*
X177800000Y-112700000D03*
D28*
X176575000Y-119250000D03*
X187080763Y-126862639D03*
X191175000Y-136700000D03*
X182700000Y-127600000D03*
X174950000Y-100800000D03*
D48*
X201580225Y-112100000D03*
D28*
X183450000Y-108900000D03*
D48*
X172540000Y-109700000D03*
D28*
X186950000Y-129300000D03*
D48*
X231725000Y-119780000D03*
X231775000Y-114155000D03*
X231724048Y-124755000D03*
X235750000Y-109525000D03*
X231725000Y-122315000D03*
X227045000Y-127500000D03*
X235775000Y-114155000D03*
X229405000Y-127525000D03*
D28*
X229400000Y-114400000D03*
X217950000Y-127750000D03*
X217400000Y-123400000D03*
D48*
X225625000Y-127000000D03*
D28*
X211400000Y-119350000D03*
X222341003Y-126968776D03*
X230125000Y-120575000D03*
D26*
X227488098Y-103174999D03*
D48*
X225156000Y-100300000D03*
X232179313Y-108921053D03*
D28*
X218925000Y-125700000D03*
D48*
X212650000Y-120050000D03*
D28*
X235400000Y-96600000D03*
X214550000Y-125250000D03*
X216180000Y-137450000D03*
X222200000Y-129450000D03*
X225500000Y-103050000D03*
D48*
X232500000Y-103787500D03*
X208444776Y-112387501D03*
D26*
X212801041Y-112301041D03*
D48*
X231956000Y-100300000D03*
D28*
X219200000Y-108900000D03*
X223075000Y-124075000D03*
D48*
X214650000Y-106900000D03*
D28*
X182760000Y-115080000D03*
D48*
X176705000Y-121625000D03*
X182855000Y-130870000D03*
X179860000Y-130919772D03*
X195540000Y-122225000D03*
D28*
X190625000Y-124475000D03*
D48*
X188200000Y-130870000D03*
D28*
X195530000Y-124465000D03*
D48*
X174575000Y-121625000D03*
X190625000Y-125805000D03*
D28*
X182770000Y-113470000D03*
X142900000Y-171350000D03*
X183100000Y-146025000D03*
X183100000Y-140220000D03*
X182400000Y-145465000D03*
X123850000Y-171375000D03*
X182400000Y-139795000D03*
X199125000Y-144825000D03*
X197005000Y-125050000D03*
X201525000Y-125050000D03*
X76400000Y-158600000D03*
X95500000Y-147945000D03*
X95500000Y-149055000D03*
X95500000Y-157200000D03*
X114500000Y-152300000D03*
X114500000Y-145385000D03*
X114500000Y-146805000D03*
X133600000Y-150900000D03*
X133600000Y-145385000D03*
X133600000Y-147115000D03*
X152600000Y-152300000D03*
X152600000Y-147425000D03*
X152600000Y-145385000D03*
X171600000Y-154700000D03*
X171600000Y-148950000D03*
X171600000Y-146600000D03*
X80692445Y-148492445D03*
X76400000Y-142850000D03*
X79907555Y-147707555D03*
X100767445Y-147617445D03*
X99157555Y-146007555D03*
X95450000Y-141400000D03*
X114500000Y-136525000D03*
X116700000Y-143345000D03*
X116700000Y-146805000D03*
X135600000Y-143345000D03*
X133550000Y-135150000D03*
X135600000Y-147115000D03*
X154800000Y-147425000D03*
X152600000Y-136500000D03*
X154800000Y-143345000D03*
X175961701Y-145561702D03*
X172607555Y-142207555D03*
X171650000Y-138950000D03*
X153550000Y-105955000D03*
X172900000Y-93450000D03*
X194610000Y-110735000D03*
X163749947Y-94149945D03*
X194605670Y-112500558D03*
X153550000Y-103915000D03*
X76400000Y-123800000D03*
X161686817Y-94204891D03*
X190500000Y-92700000D03*
X192850000Y-125605000D03*
X192850112Y-122735000D03*
X192050109Y-122735000D03*
X192050000Y-125605000D03*
X159285055Y-95035055D03*
X114500000Y-117500000D03*
X191055851Y-93394149D03*
X162869891Y-95030001D03*
X151949994Y-105955000D03*
X173800000Y-93450000D03*
X151949997Y-103915000D03*
X95450000Y-122350000D03*
X152749997Y-105955000D03*
X161750000Y-92295000D03*
X152750000Y-103915000D03*
X161700000Y-93405000D03*
X149950000Y-105955000D03*
X149950000Y-103915000D03*
X133550000Y-116100000D03*
X154434259Y-103465633D03*
X155876758Y-104908132D03*
X152600000Y-114200000D03*
X154999946Y-102899946D03*
X156442445Y-104342445D03*
X171650000Y-116550000D03*
X171650000Y-95030000D03*
X154450000Y-96850000D03*
X161074946Y-96824946D03*
X156685963Y-96835963D03*
X133550000Y-97250000D03*
X114500000Y-98700000D03*
X95450000Y-103350000D03*
X76400000Y-104850000D03*
X183419000Y-112374322D03*
X182119000Y-112375000D03*
X180615000Y-137575000D03*
X190700000Y-145175000D03*
X192092445Y-143192445D03*
X182655000Y-137575000D03*
X188896322Y-139996322D03*
X184550000Y-140945000D03*
X178200000Y-172425000D03*
X184601952Y-145465000D03*
X183801949Y-145465000D03*
X183800000Y-140620000D03*
X161950000Y-173725000D03*
X215430000Y-130725000D03*
X210156649Y-129968351D03*
X211379945Y-128745055D03*
X210825000Y-144850000D03*
X213910000Y-130725000D03*
X229137428Y-95950000D03*
X229150000Y-97350000D03*
X228650000Y-124555000D03*
X228650000Y-122825000D03*
X227800000Y-122825000D03*
X227800000Y-124555000D03*
X177094669Y-102620515D03*
X178222739Y-101627261D03*
X236525000Y-183425000D03*
X230250000Y-145050000D03*
X219075000Y-121150000D03*
X217775000Y-121150000D03*
X249300000Y-154650000D03*
X268350000Y-152275000D03*
X287400000Y-150925000D03*
X306450000Y-152200000D03*
X325525000Y-157050000D03*
X344550000Y-158450000D03*
X249300000Y-135550000D03*
X268375000Y-133225000D03*
X287425000Y-131775000D03*
X306450000Y-133275000D03*
X325500000Y-138100000D03*
X344575000Y-139550000D03*
X249300000Y-116625000D03*
X287400000Y-112750000D03*
X268350000Y-108635000D03*
X268350000Y-107525000D03*
X268350000Y-114300000D03*
X306400000Y-114100000D03*
X325500000Y-118900000D03*
X344500000Y-120350000D03*
X344800000Y-104900000D03*
X325900000Y-103450000D03*
X306550000Y-98400000D03*
X287650000Y-97050000D03*
X268550000Y-98500000D03*
X249500000Y-100900000D03*
X219075000Y-112375000D03*
X217775000Y-112350000D03*
X215020000Y-155849997D03*
X297125000Y-171325000D03*
X212800000Y-155850000D03*
X215330000Y-157446025D03*
X278050000Y-171325000D03*
X213910000Y-157450000D03*
X213910000Y-156650000D03*
X259000000Y-173750000D03*
X215020000Y-156650000D03*
M02*
