G04 #@! TF.GenerationSoftware,KiCad,Pcbnew,9.0.0*
G04 #@! TF.CreationDate,2025-03-07T21:40:24+13:00*
G04 #@! TF.ProjectId,Koca,4b6f6361-2e6b-4696-9361-645f70636258,3*
G04 #@! TF.SameCoordinates,Original*
G04 #@! TF.FileFunction,Legend,Bot*
G04 #@! TF.FilePolarity,Positive*
%FSLAX46Y46*%
G04 Gerber Fmt 4.6, Leading zero omitted, Abs format (unit mm)*
G04 Created by KiCad (PCBNEW 9.0.0) date 2025-03-07 21:40:24*
%MOMM*%
%LPD*%
G01*
G04 APERTURE LIST*
G04 Aperture macros list*
%AMRoundRect*
0 Rectangle with rounded corners*
0 $1 Rounding radius*
0 $2 $3 $4 $5 $6 $7 $8 $9 X,Y pos of 4 corners*
0 Add a 4 corners polygon primitive as box body*
4,1,4,$2,$3,$4,$5,$6,$7,$8,$9,$2,$3,0*
0 Add four circle primitives for the rounded corners*
1,1,$1+$1,$2,$3*
1,1,$1+$1,$4,$5*
1,1,$1+$1,$6,$7*
1,1,$1+$1,$8,$9*
0 Add four rect primitives between the rounded corners*
20,1,$1+$1,$2,$3,$4,$5,0*
20,1,$1+$1,$4,$5,$6,$7,0*
20,1,$1+$1,$6,$7,$8,$9,0*
20,1,$1+$1,$8,$9,$2,$3,0*%
G04 Aperture macros list end*
%ADD10C,0.153000*%
%ADD11C,0.100000*%
%ADD12C,0.120000*%
%ADD13C,5.000000*%
%ADD14C,4.400000*%
%ADD15C,0.800000*%
%ADD16O,1.600000X2.000000*%
%ADD17C,0.600000*%
%ADD18C,0.650000*%
%ADD19O,1.000000X2.100000*%
%ADD20O,1.000000X1.600000*%
%ADD21R,1.700000X1.700000*%
%ADD22O,1.700000X1.700000*%
%ADD23C,1.700000*%
%ADD24C,3.000000*%
%ADD25C,4.000000*%
%ADD26RoundRect,0.250000X1.250000X1.000000X-1.250000X1.000000X-1.250000X-1.000000X1.250000X-1.000000X0*%
%ADD27RoundRect,0.250000X-0.241025X1.582532X-1.491025X-0.582532X0.241025X-1.582532X1.491025X0.582532X0*%
%ADD28RoundRect,0.250000X1.491025X-0.582532X0.241025X1.582532X-1.491025X0.582532X-0.241025X-1.582532X0*%
%ADD29R,1.500000X1.000000*%
%ADD30C,1.800000*%
%ADD31R,1.000000X1.500000*%
%ADD32R,1.500000X1.500000*%
G04 APERTURE END LIST*
D10*
G36*
X179014026Y-127790000D02*
G01*
X178643021Y-127790000D01*
X178585988Y-127787260D01*
X178533593Y-127779043D01*
X178485834Y-127765347D01*
X178435975Y-127742445D01*
X178392428Y-127712086D01*
X178365831Y-127686201D01*
X178336168Y-127645053D01*
X178315341Y-127598178D01*
X178303350Y-127545576D01*
X178300104Y-127495931D01*
X178300290Y-127483214D01*
X178300974Y-127476636D01*
X178531158Y-127476636D01*
X178537189Y-127514376D01*
X178562665Y-127556992D01*
X178568868Y-127563234D01*
X178613481Y-127586154D01*
X178664026Y-127591919D01*
X178792742Y-127591919D01*
X178792742Y-127367948D01*
X178668178Y-127367948D01*
X178659065Y-127368071D01*
X178608014Y-127374871D01*
X178562665Y-127399455D01*
X178542265Y-127427393D01*
X178531158Y-127476636D01*
X178300974Y-127476636D01*
X178305732Y-127430876D01*
X178320616Y-127382104D01*
X178347731Y-127339860D01*
X178372766Y-127315543D01*
X178414898Y-127287252D01*
X178462526Y-127268785D01*
X178462526Y-127261702D01*
X178442834Y-127254232D01*
X178399022Y-127225715D01*
X178363852Y-127188918D01*
X178358321Y-127181623D01*
X178334280Y-127135021D01*
X178321791Y-127083138D01*
X178320836Y-127068750D01*
X178546545Y-127068750D01*
X178551745Y-127103764D01*
X178578052Y-127147397D01*
X178582130Y-127151389D01*
X178628039Y-127174928D01*
X178676727Y-127180369D01*
X178792742Y-127180369D01*
X178792742Y-126972030D01*
X178680879Y-126972030D01*
X178672265Y-126972130D01*
X178623534Y-126977665D01*
X178578785Y-126997676D01*
X178559139Y-127019692D01*
X178546545Y-127068750D01*
X178320836Y-127068750D01*
X178318178Y-127028695D01*
X178318262Y-127020848D01*
X178323567Y-126969344D01*
X178339733Y-126917808D01*
X178366676Y-126874089D01*
X178404396Y-126838185D01*
X178421409Y-126826705D01*
X178468052Y-126804311D01*
X178515771Y-126790008D01*
X178570634Y-126780222D01*
X178621810Y-126775518D01*
X178677948Y-126773949D01*
X179014026Y-126773949D01*
X179014026Y-127790000D01*
G37*
G36*
X177863182Y-126758841D02*
G01*
X177920825Y-126764734D01*
X177973483Y-126777174D01*
X178021155Y-126796161D01*
X178063843Y-126821696D01*
X178101546Y-126853778D01*
X178134263Y-126892407D01*
X178140199Y-126900891D01*
X178167050Y-126946858D01*
X178189190Y-126998740D01*
X178206620Y-127056538D01*
X178217172Y-127107035D01*
X178224709Y-127161318D01*
X178229232Y-127219387D01*
X178230739Y-127281242D01*
X178230646Y-127296986D01*
X178228420Y-127357652D01*
X178223224Y-127414616D01*
X178215059Y-127467878D01*
X178203925Y-127517439D01*
X178185832Y-127574183D01*
X178163100Y-127625144D01*
X178135729Y-127670321D01*
X178123406Y-127686706D01*
X178088959Y-127723044D01*
X178049313Y-127752775D01*
X178004466Y-127775900D01*
X177954420Y-127792417D01*
X177899175Y-127802328D01*
X177838729Y-127805631D01*
X177813637Y-127805097D01*
X177754680Y-127799086D01*
X177701114Y-127786397D01*
X177652938Y-127767029D01*
X177610152Y-127740983D01*
X177572758Y-127708258D01*
X177540753Y-127668855D01*
X177534968Y-127660197D01*
X177508796Y-127613606D01*
X177487216Y-127561517D01*
X177470228Y-127503930D01*
X177459943Y-127453902D01*
X177452597Y-127400356D01*
X177448189Y-127343291D01*
X177446720Y-127282707D01*
X177446749Y-127277822D01*
X177697313Y-127277822D01*
X177697434Y-127297660D01*
X177699251Y-127353064D01*
X177704128Y-127409910D01*
X177713337Y-127464601D01*
X177728332Y-127513028D01*
X177749506Y-127548684D01*
X177789761Y-127578074D01*
X177838729Y-127586789D01*
X177879121Y-127581129D01*
X177921436Y-127555970D01*
X177948639Y-127515226D01*
X177957715Y-127490562D01*
X177969038Y-127441847D01*
X177975715Y-127389880D01*
X177979038Y-127338397D01*
X177980146Y-127280509D01*
X177980021Y-127260508D01*
X177978146Y-127204855D01*
X177973116Y-127148174D01*
X177963617Y-127094273D01*
X177948150Y-127047501D01*
X177929221Y-127016727D01*
X177890295Y-126987051D01*
X177838729Y-126977159D01*
X177797155Y-126982936D01*
X177754285Y-127008610D01*
X177727599Y-127050188D01*
X177718874Y-127075001D01*
X177707990Y-127122987D01*
X177701572Y-127173340D01*
X177698378Y-127222713D01*
X177697313Y-127277822D01*
X177446749Y-127277822D01*
X177446812Y-127267141D01*
X177449027Y-127207105D01*
X177454196Y-127150634D01*
X177462319Y-127097726D01*
X177473396Y-127048384D01*
X177491396Y-126991718D01*
X177514011Y-126940621D01*
X177541242Y-126895094D01*
X177559918Y-126870650D01*
X177595280Y-126835254D01*
X177635938Y-126806537D01*
X177681891Y-126784497D01*
X177733139Y-126769137D01*
X177789682Y-126760455D01*
X177838729Y-126758318D01*
X177863182Y-126758841D01*
G37*
G36*
X177023964Y-126758841D02*
G01*
X177081607Y-126764734D01*
X177134264Y-126777174D01*
X177181937Y-126796161D01*
X177224625Y-126821696D01*
X177262327Y-126853778D01*
X177295045Y-126892407D01*
X177300980Y-126900891D01*
X177327832Y-126946858D01*
X177349972Y-126998740D01*
X177367402Y-127056538D01*
X177377954Y-127107035D01*
X177385491Y-127161318D01*
X177390013Y-127219387D01*
X177391521Y-127281242D01*
X177391428Y-127296986D01*
X177389201Y-127357652D01*
X177384005Y-127414616D01*
X177375840Y-127467878D01*
X177364706Y-127517439D01*
X177346613Y-127574183D01*
X177323881Y-127625144D01*
X177296510Y-127670321D01*
X177284187Y-127686706D01*
X177249741Y-127723044D01*
X177210094Y-127752775D01*
X177165248Y-127775900D01*
X177115202Y-127792417D01*
X177059956Y-127802328D01*
X176999511Y-127805631D01*
X176974419Y-127805097D01*
X176915462Y-127799086D01*
X176861895Y-127786397D01*
X176813719Y-127767029D01*
X176770934Y-127740983D01*
X176733539Y-127708258D01*
X176701535Y-127668855D01*
X176695749Y-127660197D01*
X176669578Y-127613606D01*
X176647998Y-127561517D01*
X176631010Y-127503930D01*
X176620725Y-127453902D01*
X176613378Y-127400356D01*
X176608970Y-127343291D01*
X176607501Y-127282707D01*
X176607530Y-127277822D01*
X176858094Y-127277822D01*
X176858216Y-127297660D01*
X176860033Y-127353064D01*
X176864910Y-127409910D01*
X176874119Y-127464601D01*
X176889113Y-127513028D01*
X176910288Y-127548684D01*
X176950542Y-127578074D01*
X176999511Y-127586789D01*
X177039903Y-127581129D01*
X177082218Y-127555970D01*
X177109420Y-127515226D01*
X177118497Y-127490562D01*
X177129820Y-127441847D01*
X177136497Y-127389880D01*
X177139820Y-127338397D01*
X177140928Y-127280509D01*
X177140803Y-127260508D01*
X177138928Y-127204855D01*
X177133897Y-127148174D01*
X177124398Y-127094273D01*
X177108932Y-127047501D01*
X177090003Y-127016727D01*
X177051077Y-126987051D01*
X176999511Y-126977159D01*
X176957936Y-126982936D01*
X176915066Y-127008610D01*
X176888380Y-127050188D01*
X176879655Y-127075001D01*
X176868771Y-127122987D01*
X176862353Y-127173340D01*
X176859159Y-127222713D01*
X176858094Y-127277822D01*
X176607530Y-127277822D01*
X176607593Y-127267141D01*
X176609809Y-127207105D01*
X176614978Y-127150634D01*
X176623101Y-127097726D01*
X176634178Y-127048384D01*
X176652178Y-126991718D01*
X176674793Y-126940621D01*
X176702023Y-126895094D01*
X176720699Y-126870650D01*
X176756062Y-126835254D01*
X176796720Y-126806537D01*
X176842673Y-126784497D01*
X176893921Y-126769137D01*
X176950464Y-126760455D01*
X176999511Y-126758318D01*
X177023964Y-126758841D01*
G37*
G36*
X176283635Y-127790000D02*
G01*
X176283635Y-126992791D01*
X176552302Y-126992791D01*
X176552302Y-126773949D01*
X175768283Y-126773949D01*
X175768283Y-126992791D01*
X176038660Y-126992791D01*
X176038660Y-127790000D01*
X176283635Y-127790000D01*
G37*
G36*
X175369144Y-126760394D02*
G01*
X175422634Y-126768828D01*
X175470829Y-126783750D01*
X175521674Y-126810219D01*
X175564893Y-126846031D01*
X175600488Y-126891186D01*
X175605702Y-126899599D01*
X175629290Y-126945385D01*
X175648740Y-126997372D01*
X175664052Y-127055561D01*
X175673322Y-127106577D01*
X175679943Y-127161563D01*
X175683916Y-127220517D01*
X175685240Y-127283440D01*
X175685153Y-127299020D01*
X175683052Y-127359082D01*
X175678150Y-127415535D01*
X175670447Y-127468377D01*
X175659942Y-127517609D01*
X175642873Y-127574073D01*
X175621426Y-127624895D01*
X175595603Y-127670076D01*
X175571728Y-127701847D01*
X175530421Y-127741560D01*
X175482519Y-127771742D01*
X175428022Y-127792393D01*
X175377571Y-127802322D01*
X175322540Y-127805631D01*
X175305280Y-127805372D01*
X175248570Y-127800395D01*
X175197609Y-127789084D01*
X175146410Y-127768399D01*
X175102721Y-127739441D01*
X175092922Y-127730937D01*
X175057407Y-127692911D01*
X175027785Y-127648474D01*
X175006699Y-127604332D01*
X174990125Y-127555282D01*
X174988096Y-127547889D01*
X174975699Y-127494145D01*
X174967585Y-127445307D01*
X174961789Y-127393910D01*
X174958311Y-127339954D01*
X174957167Y-127284173D01*
X175174284Y-127284173D01*
X175174555Y-127314098D01*
X175176718Y-127369402D01*
X175181978Y-127426261D01*
X175190182Y-127474869D01*
X175205059Y-127525240D01*
X175229755Y-127565941D01*
X175273810Y-127594884D01*
X175322540Y-127602421D01*
X175361386Y-127597584D01*
X175406559Y-127573112D01*
X175176971Y-127185010D01*
X175174874Y-127234771D01*
X175174284Y-127284173D01*
X174957167Y-127284173D01*
X174957152Y-127283440D01*
X174957241Y-127267590D01*
X174959359Y-127206549D01*
X174964301Y-127149278D01*
X174972067Y-127095777D01*
X174982657Y-127046047D01*
X174999866Y-126989186D01*
X175000409Y-126987906D01*
X175242672Y-126987906D01*
X175468108Y-127374787D01*
X175470212Y-127335292D01*
X175471039Y-127284173D01*
X175470762Y-127254783D01*
X175468547Y-127200189D01*
X175463162Y-127143550D01*
X175454762Y-127094508D01*
X175439532Y-127042616D01*
X175414569Y-126999855D01*
X175374932Y-126971110D01*
X175322540Y-126961528D01*
X175288410Y-126965237D01*
X175242672Y-126987906D01*
X175000409Y-126987906D01*
X175021488Y-126938217D01*
X175047522Y-126893140D01*
X175078064Y-126854299D01*
X175120792Y-126816381D01*
X175170148Y-126787942D01*
X175216342Y-126771484D01*
X175267139Y-126761609D01*
X175322540Y-126758318D01*
X175369144Y-126760394D01*
G37*
G36*
X200235626Y-154999400D02*
G01*
X200006038Y-154999400D01*
X200006038Y-154639874D01*
X199908096Y-154639874D01*
X199747140Y-154999400D01*
X199486533Y-154999400D01*
X199707817Y-154568067D01*
X199698527Y-154561649D01*
X199656400Y-154527526D01*
X199621476Y-154490017D01*
X199593756Y-154449120D01*
X199586859Y-154436088D01*
X199568770Y-154388957D01*
X199558218Y-154336149D01*
X199556418Y-154305261D01*
X199786219Y-154305261D01*
X199786571Y-154318465D01*
X199796233Y-154367543D01*
X199826275Y-154409797D01*
X199828779Y-154411766D01*
X199873124Y-154434763D01*
X199922018Y-154441793D01*
X200006038Y-154441793D01*
X200006038Y-154181430D01*
X199914935Y-154181430D01*
X199910862Y-154181462D01*
X199860853Y-154188675D01*
X199817726Y-154214403D01*
X199793142Y-154256468D01*
X199786219Y-154305261D01*
X199556418Y-154305261D01*
X199555165Y-154283768D01*
X199557354Y-154239268D01*
X199565757Y-154190495D01*
X199583527Y-154139976D01*
X199609876Y-154096328D01*
X199644803Y-154059553D01*
X199662457Y-154045935D01*
X199710247Y-154019367D01*
X199758559Y-154002400D01*
X199813654Y-153990791D01*
X199864748Y-153985210D01*
X199920553Y-153983349D01*
X200235626Y-153983349D01*
X200235626Y-154999400D01*
G37*
G36*
X199096493Y-154203908D02*
G01*
X199148170Y-154210885D01*
X199195506Y-154223228D01*
X199246580Y-154245124D01*
X199291402Y-154274748D01*
X199329973Y-154312100D01*
X199357204Y-154348301D01*
X199383788Y-154396638D01*
X199403726Y-154450317D01*
X199415265Y-154499128D01*
X199422188Y-154551649D01*
X199424495Y-154607878D01*
X199421949Y-154666083D01*
X199414311Y-154720101D01*
X199401580Y-154769934D01*
X199383757Y-154815580D01*
X199355647Y-154864830D01*
X199320204Y-154908053D01*
X199313586Y-154914634D01*
X199269714Y-154949737D01*
X199218698Y-154977317D01*
X199170727Y-154994555D01*
X199117795Y-155006569D01*
X199059902Y-155013360D01*
X199010015Y-155015031D01*
X198974293Y-155014065D01*
X198923236Y-155009772D01*
X198872995Y-155002819D01*
X198826222Y-154993135D01*
X198776038Y-154977744D01*
X198727182Y-154957390D01*
X198727182Y-154756134D01*
X198751585Y-154769207D01*
X198799386Y-154789145D01*
X198846373Y-154802540D01*
X198870418Y-154807437D01*
X198922222Y-154814572D01*
X198973623Y-154816950D01*
X198985216Y-154816823D01*
X199034149Y-154813112D01*
X199082311Y-154802960D01*
X199127740Y-154784466D01*
X199145223Y-154773451D01*
X199180405Y-154734235D01*
X199194907Y-154686769D01*
X198697873Y-154686769D01*
X198697873Y-154578813D01*
X198698680Y-154546930D01*
X198701827Y-154514822D01*
X198920378Y-154514822D01*
X199190511Y-154514822D01*
X199189254Y-154503688D01*
X199176806Y-154456445D01*
X199151432Y-154414438D01*
X199147100Y-154409558D01*
X199103853Y-154381851D01*
X199053491Y-154374138D01*
X199049744Y-154374175D01*
X198999330Y-154383663D01*
X198957503Y-154412240D01*
X198951118Y-154419616D01*
X198928205Y-154463451D01*
X198920378Y-154514822D01*
X198701827Y-154514822D01*
X198703613Y-154496595D01*
X198715451Y-154440822D01*
X198733746Y-154390098D01*
X198758499Y-154344422D01*
X198789708Y-154303796D01*
X198807577Y-154285638D01*
X198847488Y-154254680D01*
X198892963Y-154230866D01*
X198944002Y-154214197D01*
X199000605Y-154204671D01*
X199052025Y-154202191D01*
X199096493Y-154203908D01*
G37*
G36*
X198272890Y-155015031D02*
G01*
X198323620Y-155013485D01*
X198374694Y-155008849D01*
X198408934Y-155004040D01*
X198459881Y-154994263D01*
X198510142Y-154981051D01*
X198543267Y-154970335D01*
X198543267Y-154748318D01*
X198496303Y-154768148D01*
X198450054Y-154784592D01*
X198400007Y-154798768D01*
X198395500Y-154799853D01*
X198347033Y-154809587D01*
X198296595Y-154815598D01*
X198260434Y-154816950D01*
X198210856Y-154813248D01*
X198181299Y-154806448D01*
X198147239Y-154771300D01*
X198147105Y-154767857D01*
X198170797Y-154730000D01*
X198216363Y-154708888D01*
X198236010Y-154701912D01*
X198283589Y-154684517D01*
X198331753Y-154665275D01*
X198377716Y-154643736D01*
X198422236Y-154618227D01*
X198462775Y-154588298D01*
X198479520Y-154572707D01*
X198509733Y-154529877D01*
X198525179Y-154481987D01*
X198529101Y-154436664D01*
X198524952Y-154387380D01*
X198510050Y-154338325D01*
X198480329Y-154292408D01*
X198442395Y-154259832D01*
X198394920Y-154234614D01*
X198346618Y-154218459D01*
X198292004Y-154207820D01*
X198240170Y-154203091D01*
X198203037Y-154202191D01*
X198150395Y-154204183D01*
X198097616Y-154210159D01*
X198062353Y-154216357D01*
X198012763Y-154228324D01*
X197966127Y-154243360D01*
X197918013Y-154262355D01*
X197913121Y-154264473D01*
X197990301Y-154453517D01*
X198035302Y-154432565D01*
X198082773Y-154416403D01*
X198099478Y-154412240D01*
X198150219Y-154403264D01*
X198195954Y-154400272D01*
X198245442Y-154404795D01*
X198265319Y-154410774D01*
X198291209Y-154445212D01*
X198275089Y-154473300D01*
X198230797Y-154494084D01*
X198221844Y-154497236D01*
X198175092Y-154514125D01*
X198129480Y-154531969D01*
X198121704Y-154535094D01*
X198075472Y-154553657D01*
X198028052Y-154576264D01*
X198002758Y-154590537D01*
X197963367Y-154619850D01*
X197931439Y-154659169D01*
X197913487Y-154704659D01*
X197907597Y-154753379D01*
X197907503Y-154761018D01*
X197911890Y-154810103D01*
X197926682Y-154859173D01*
X197944628Y-154892910D01*
X197978585Y-154932569D01*
X198020454Y-154962647D01*
X198062353Y-154982791D01*
X198111495Y-154998376D01*
X198161793Y-155007947D01*
X198210914Y-155013016D01*
X198264803Y-155015000D01*
X198272890Y-155015031D01*
G37*
G36*
X197418056Y-154203908D02*
G01*
X197469733Y-154210885D01*
X197517070Y-154223228D01*
X197568143Y-154245124D01*
X197612965Y-154274748D01*
X197651537Y-154312100D01*
X197678767Y-154348301D01*
X197705351Y-154396638D01*
X197725290Y-154450317D01*
X197736828Y-154499128D01*
X197743751Y-154551649D01*
X197746059Y-154607878D01*
X197743512Y-154666083D01*
X197735874Y-154720101D01*
X197723143Y-154769934D01*
X197705320Y-154815580D01*
X197677210Y-154864830D01*
X197641767Y-154908053D01*
X197635149Y-154914634D01*
X197591277Y-154949737D01*
X197540261Y-154977317D01*
X197492290Y-154994555D01*
X197439358Y-155006569D01*
X197381465Y-155013360D01*
X197331579Y-155015031D01*
X197295856Y-155014065D01*
X197244800Y-155009772D01*
X197194558Y-155002819D01*
X197147785Y-154993135D01*
X197097601Y-154977744D01*
X197048745Y-154957390D01*
X197048745Y-154756134D01*
X197073149Y-154769207D01*
X197120950Y-154789145D01*
X197167936Y-154802540D01*
X197191981Y-154807437D01*
X197243785Y-154814572D01*
X197295186Y-154816950D01*
X197306779Y-154816823D01*
X197355713Y-154813112D01*
X197403874Y-154802960D01*
X197449304Y-154784466D01*
X197466786Y-154773451D01*
X197501968Y-154734235D01*
X197516470Y-154686769D01*
X197019436Y-154686769D01*
X197019436Y-154578813D01*
X197020243Y-154546930D01*
X197023390Y-154514822D01*
X197241941Y-154514822D01*
X197512074Y-154514822D01*
X197510817Y-154503688D01*
X197498369Y-154456445D01*
X197472995Y-154414438D01*
X197468663Y-154409558D01*
X197425416Y-154381851D01*
X197375054Y-154374138D01*
X197371307Y-154374175D01*
X197320893Y-154383663D01*
X197279066Y-154412240D01*
X197272681Y-154419616D01*
X197249769Y-154463451D01*
X197241941Y-154514822D01*
X197023390Y-154514822D01*
X197025176Y-154496595D01*
X197037014Y-154440822D01*
X197055309Y-154390098D01*
X197080062Y-154344422D01*
X197111271Y-154303796D01*
X197129140Y-154285638D01*
X197169051Y-154254680D01*
X197214526Y-154230866D01*
X197265565Y-154214197D01*
X197322168Y-154204671D01*
X197373588Y-154202191D01*
X197418056Y-154203908D01*
G37*
G36*
X196444733Y-155015031D02*
G01*
X196497123Y-155012909D01*
X196549055Y-155005450D01*
X196598056Y-154990862D01*
X196619122Y-154981081D01*
X196661712Y-154950845D01*
X196693860Y-154911060D01*
X196709492Y-154879232D01*
X196724510Y-154828718D01*
X196732753Y-154776435D01*
X196735767Y-154724200D01*
X196735870Y-154711926D01*
X196735870Y-154415903D01*
X196929066Y-154415903D01*
X196929066Y-154297446D01*
X196710713Y-154221486D01*
X196672856Y-154045875D01*
X196490895Y-154045875D01*
X196490895Y-154217822D01*
X196223693Y-154217822D01*
X196223693Y-154415903D01*
X196490895Y-154415903D01*
X196490895Y-154675289D01*
X196486874Y-154724456D01*
X196469890Y-154767613D01*
X196431242Y-154799625D01*
X196421041Y-154803028D01*
X196373414Y-154810111D01*
X196324216Y-154806831D01*
X196305514Y-154803761D01*
X196256952Y-154791053D01*
X196220762Y-154778848D01*
X196220762Y-154975952D01*
X196269521Y-154991043D01*
X196319236Y-155002878D01*
X196336289Y-155005994D01*
X196387000Y-155012481D01*
X196437926Y-155014996D01*
X196444733Y-155015031D01*
G37*
G36*
X233553802Y-96615000D02*
G01*
X233553802Y-95598949D01*
X233308827Y-95598949D01*
X233308827Y-96396158D01*
X232902895Y-96396158D01*
X232902895Y-96615000D01*
X233553802Y-96615000D01*
G37*
G36*
X232735589Y-96615000D02*
G01*
X232735589Y-95598949D01*
X232063676Y-95598949D01*
X232063676Y-95817791D01*
X232496231Y-95817791D01*
X232496231Y-95989738D01*
X232081750Y-95989738D01*
X232081750Y-96208579D01*
X232496231Y-96208579D01*
X232496231Y-96396158D01*
X232063676Y-96396158D01*
X232063676Y-96615000D01*
X232735589Y-96615000D01*
G37*
G36*
X231924458Y-96615000D02*
G01*
X231641625Y-96615000D01*
X231597107Y-96613527D01*
X231546251Y-96607871D01*
X231490457Y-96595911D01*
X231438473Y-96578178D01*
X231390299Y-96554672D01*
X231364604Y-96538632D01*
X231323219Y-96506246D01*
X231286392Y-96468367D01*
X231254123Y-96424995D01*
X231226412Y-96376130D01*
X231212788Y-96345733D01*
X231195758Y-96296975D01*
X231182815Y-96244422D01*
X231173959Y-96188073D01*
X231169701Y-96138217D01*
X231168540Y-96095251D01*
X231416189Y-96095251D01*
X231417044Y-96133566D01*
X231421531Y-96186575D01*
X231431629Y-96241646D01*
X231446963Y-96289424D01*
X231470899Y-96335097D01*
X231493393Y-96362904D01*
X231534895Y-96393826D01*
X231585708Y-96411805D01*
X231638694Y-96416919D01*
X231691939Y-96416919D01*
X231691939Y-95797030D01*
X231623307Y-95797030D01*
X231598226Y-95798195D01*
X231542603Y-95811301D01*
X231497094Y-95838967D01*
X231461698Y-95881196D01*
X231440663Y-95925463D01*
X231426100Y-95979050D01*
X231418009Y-96041955D01*
X231416189Y-96095251D01*
X231168540Y-96095251D01*
X231168282Y-96085725D01*
X231170145Y-96028359D01*
X231175732Y-95974473D01*
X231185043Y-95924067D01*
X231201921Y-95865954D01*
X231224618Y-95813280D01*
X231253136Y-95766044D01*
X231287473Y-95724246D01*
X231318721Y-95694879D01*
X231362031Y-95663678D01*
X231410064Y-95638594D01*
X231462819Y-95619628D01*
X231520297Y-95606780D01*
X231569680Y-95600907D01*
X231622085Y-95598949D01*
X231924458Y-95598949D01*
X231924458Y-96615000D01*
G37*
G36*
X194382992Y-112882284D02*
G01*
X194382992Y-112632179D01*
X194611359Y-112632179D01*
X194611359Y-112444601D01*
X194382992Y-112444601D01*
X194382992Y-112194496D01*
X194196879Y-112194496D01*
X194196879Y-112444601D01*
X193967291Y-112444601D01*
X193967291Y-112632179D01*
X194196879Y-112632179D01*
X194196879Y-112882284D01*
X194382992Y-112882284D01*
G37*
G36*
X192974932Y-113038600D02*
G01*
X192692099Y-113038600D01*
X192647581Y-113037127D01*
X192596725Y-113031471D01*
X192540931Y-113019511D01*
X192488947Y-113001778D01*
X192440773Y-112978272D01*
X192415078Y-112962232D01*
X192373693Y-112929846D01*
X192336866Y-112891967D01*
X192304597Y-112848595D01*
X192276886Y-112799730D01*
X192263262Y-112769333D01*
X192246232Y-112720575D01*
X192233289Y-112668022D01*
X192224433Y-112611673D01*
X192220175Y-112561817D01*
X192219014Y-112518851D01*
X192466663Y-112518851D01*
X192467518Y-112557166D01*
X192472005Y-112610175D01*
X192482103Y-112665246D01*
X192497437Y-112713024D01*
X192521373Y-112758697D01*
X192543867Y-112786504D01*
X192585369Y-112817426D01*
X192636182Y-112835405D01*
X192689168Y-112840519D01*
X192742413Y-112840519D01*
X192742413Y-112220630D01*
X192673781Y-112220630D01*
X192648700Y-112221795D01*
X192593077Y-112234901D01*
X192547568Y-112262567D01*
X192512172Y-112304796D01*
X192491137Y-112349063D01*
X192476574Y-112402650D01*
X192468483Y-112465555D01*
X192466663Y-112518851D01*
X192219014Y-112518851D01*
X192218756Y-112509325D01*
X192220619Y-112451959D01*
X192226206Y-112398073D01*
X192235517Y-112347667D01*
X192252395Y-112289554D01*
X192275092Y-112236880D01*
X192303610Y-112189644D01*
X192337947Y-112147846D01*
X192369195Y-112118479D01*
X192412505Y-112087278D01*
X192460538Y-112062194D01*
X192513293Y-112043228D01*
X192570771Y-112030380D01*
X192620154Y-112024507D01*
X192672559Y-112022549D01*
X192974932Y-112022549D01*
X192974932Y-113038600D01*
G37*
G36*
X192093704Y-113038600D02*
G01*
X192093704Y-112861768D01*
X191890738Y-112839053D01*
X191890738Y-112227469D01*
X192093704Y-112204754D01*
X192093704Y-112022549D01*
X191449635Y-112022549D01*
X191449635Y-112204754D01*
X191654067Y-112227469D01*
X191654067Y-112839053D01*
X191449635Y-112861768D01*
X191449635Y-113038600D01*
X192093704Y-113038600D01*
G37*
G36*
X190956782Y-112007441D02*
G01*
X191014425Y-112013334D01*
X191067082Y-112025774D01*
X191114755Y-112044761D01*
X191157443Y-112070296D01*
X191195145Y-112102378D01*
X191227863Y-112141007D01*
X191233798Y-112149491D01*
X191260650Y-112195458D01*
X191282790Y-112247340D01*
X191300220Y-112305138D01*
X191310772Y-112355635D01*
X191318309Y-112409918D01*
X191322831Y-112467987D01*
X191324339Y-112529842D01*
X191324246Y-112545586D01*
X191322019Y-112606252D01*
X191316823Y-112663216D01*
X191308658Y-112716478D01*
X191297524Y-112766039D01*
X191279432Y-112822783D01*
X191256700Y-112873744D01*
X191229328Y-112918921D01*
X191217006Y-112935306D01*
X191182559Y-112971644D01*
X191142912Y-113001375D01*
X191098066Y-113024500D01*
X191048020Y-113041017D01*
X190992774Y-113050928D01*
X190932329Y-113054231D01*
X190907237Y-113053697D01*
X190848280Y-113047686D01*
X190794714Y-113034997D01*
X190746538Y-113015629D01*
X190703752Y-112989583D01*
X190666357Y-112956858D01*
X190634353Y-112917455D01*
X190628568Y-112908797D01*
X190602396Y-112862206D01*
X190580816Y-112810117D01*
X190563828Y-112752530D01*
X190553543Y-112702502D01*
X190546196Y-112648956D01*
X190541789Y-112591891D01*
X190540319Y-112531307D01*
X190540348Y-112526422D01*
X190790913Y-112526422D01*
X190791034Y-112546260D01*
X190792851Y-112601664D01*
X190797728Y-112658510D01*
X190806937Y-112713201D01*
X190821931Y-112761628D01*
X190843106Y-112797284D01*
X190883360Y-112826674D01*
X190932329Y-112835389D01*
X190972721Y-112829729D01*
X191015036Y-112804570D01*
X191042238Y-112763826D01*
X191051315Y-112739162D01*
X191062638Y-112690447D01*
X191069315Y-112638480D01*
X191072638Y-112586997D01*
X191073746Y-112529109D01*
X191073621Y-112509108D01*
X191071746Y-112453455D01*
X191066715Y-112396774D01*
X191057217Y-112342873D01*
X191041750Y-112296101D01*
X191022821Y-112265327D01*
X190983895Y-112235651D01*
X190932329Y-112225759D01*
X190890755Y-112231536D01*
X190847884Y-112257210D01*
X190821199Y-112298788D01*
X190812474Y-112323601D01*
X190801590Y-112371587D01*
X190795171Y-112421940D01*
X190791977Y-112471313D01*
X190790913Y-112526422D01*
X190540348Y-112526422D01*
X190540412Y-112515741D01*
X190542627Y-112455705D01*
X190547796Y-112399234D01*
X190555919Y-112346326D01*
X190566996Y-112296984D01*
X190584996Y-112240318D01*
X190607611Y-112189221D01*
X190634841Y-112143694D01*
X190653517Y-112119250D01*
X190688880Y-112083854D01*
X190729538Y-112055137D01*
X190775491Y-112033097D01*
X190826739Y-112017737D01*
X190883282Y-112009055D01*
X190932329Y-112006918D01*
X190956782Y-112007441D01*
G37*
G36*
X189207730Y-113054231D02*
G01*
X189257084Y-113052024D01*
X189310690Y-113043871D01*
X189360020Y-113029711D01*
X189405071Y-113009544D01*
X189434632Y-112991461D01*
X189477283Y-112956824D01*
X189514377Y-112915684D01*
X189542277Y-112874353D01*
X189565922Y-112828042D01*
X189571896Y-112813896D01*
X189589883Y-112761638D01*
X189601784Y-112713776D01*
X189610440Y-112663081D01*
X189615849Y-112609551D01*
X189618013Y-112553189D01*
X189618058Y-112543519D01*
X189616657Y-112491625D01*
X189612453Y-112442187D01*
X189603709Y-112386105D01*
X189590929Y-112333560D01*
X189574114Y-112284553D01*
X189560661Y-112253847D01*
X189537437Y-112210860D01*
X189506045Y-112165721D01*
X189470024Y-112125982D01*
X189429376Y-112091643D01*
X189397507Y-112070421D01*
X189349263Y-112045677D01*
X189297069Y-112027011D01*
X189249187Y-112015848D01*
X189198402Y-112009150D01*
X189144716Y-112006918D01*
X189095714Y-112008875D01*
X189043250Y-112015415D01*
X189015267Y-112020840D01*
X188966770Y-112033479D01*
X188916898Y-112050515D01*
X188882887Y-112064315D01*
X188948833Y-112278760D01*
X188995004Y-112255862D01*
X189041927Y-112239834D01*
X189048240Y-112238216D01*
X189096478Y-112228873D01*
X189140564Y-112225759D01*
X189191225Y-112229552D01*
X189238798Y-112242484D01*
X189277828Y-112264594D01*
X189313871Y-112301310D01*
X189338555Y-112344718D01*
X189349147Y-112374259D01*
X189361106Y-112426413D01*
X189367670Y-112479536D01*
X189370070Y-112531996D01*
X189370152Y-112544252D01*
X189368409Y-112599745D01*
X189363179Y-112648986D01*
X189352673Y-112698534D01*
X189334854Y-112744742D01*
X189320571Y-112767978D01*
X189284039Y-112803527D01*
X189236727Y-112825910D01*
X189184928Y-112834797D01*
X189165721Y-112835389D01*
X189114630Y-112832117D01*
X189063338Y-112823218D01*
X189042622Y-112818292D01*
X188993999Y-112803100D01*
X188948879Y-112783167D01*
X188920745Y-112767246D01*
X188920745Y-112996590D01*
X188967064Y-113015061D01*
X189015345Y-113029837D01*
X189060940Y-113040065D01*
X189111675Y-113048130D01*
X189162121Y-113052848D01*
X189207730Y-113054231D01*
G37*
G36*
X188729747Y-113038600D02*
G01*
X188729747Y-112022549D01*
X188484772Y-112022549D01*
X188484772Y-112819758D01*
X188078840Y-112819758D01*
X188078840Y-113038600D01*
X188729747Y-113038600D01*
G37*
G36*
X187939622Y-113038600D02*
G01*
X187939622Y-112022549D01*
X187701485Y-112022549D01*
X187701485Y-112489297D01*
X187681094Y-112443792D01*
X187672908Y-112427015D01*
X187650514Y-112383464D01*
X187642866Y-112369130D01*
X187453822Y-112022549D01*
X187190529Y-112022549D01*
X187466279Y-112479528D01*
X187193460Y-113038600D01*
X187466279Y-113038600D01*
X187635783Y-112667595D01*
X187701485Y-112727190D01*
X187701485Y-113038600D01*
X187939622Y-113038600D01*
G37*
G36*
X186107067Y-112757232D02*
G01*
X186107067Y-112538390D01*
X185687214Y-112538390D01*
X185687214Y-112757232D01*
X186107067Y-112757232D01*
G37*
G36*
X223919951Y-135758632D02*
G01*
X223919951Y-135539790D01*
X223500097Y-135539790D01*
X223500097Y-135758632D01*
X223919951Y-135758632D01*
G37*
G36*
X221286036Y-135883684D02*
G01*
X221286036Y-135633579D01*
X221514403Y-135633579D01*
X221514403Y-135446001D01*
X221286036Y-135446001D01*
X221286036Y-135195896D01*
X221099923Y-135195896D01*
X221099923Y-135446001D01*
X220870334Y-135446001D01*
X220870334Y-135633579D01*
X221099923Y-135633579D01*
X221099923Y-135883684D01*
X221286036Y-135883684D01*
G37*
G36*
X219548981Y-136055631D02*
G01*
X219601901Y-136053899D01*
X219652858Y-136048704D01*
X219697480Y-136040976D01*
X219747005Y-136028501D01*
X219794633Y-136012701D01*
X219844741Y-135992656D01*
X219849888Y-135990418D01*
X219849888Y-135748862D01*
X219801888Y-135774671D01*
X219755435Y-135795496D01*
X219705632Y-135812789D01*
X219686245Y-135817983D01*
X219634367Y-135828690D01*
X219584855Y-135834953D01*
X219541898Y-135836789D01*
X219493138Y-135833704D01*
X219445422Y-135820669D01*
X219413033Y-135781374D01*
X219410251Y-135757411D01*
X219424117Y-135709696D01*
X219431256Y-135701479D01*
X219472680Y-135671230D01*
X219495003Y-135658981D01*
X219540119Y-135635153D01*
X219583476Y-135611453D01*
X219603447Y-135600362D01*
X219648360Y-135573100D01*
X219692199Y-135543607D01*
X219730209Y-135514633D01*
X219767452Y-135478723D01*
X219796230Y-135438863D01*
X219806657Y-135419134D01*
X219822945Y-135371327D01*
X219830610Y-135320185D01*
X219831814Y-135287243D01*
X219828062Y-135232429D01*
X219816807Y-135183178D01*
X219794757Y-135133704D01*
X219762906Y-135091496D01*
X219753412Y-135082079D01*
X219707464Y-135049808D01*
X219656189Y-135029135D01*
X219604017Y-135017034D01*
X219554741Y-135010911D01*
X219500195Y-135008390D01*
X219488653Y-135008318D01*
X219438995Y-135009646D01*
X219386451Y-135014315D01*
X219337423Y-135022345D01*
X219306692Y-135029567D01*
X219258301Y-135044064D01*
X219208598Y-135062821D01*
X219162588Y-135084521D01*
X219239525Y-135287487D01*
X219286889Y-135264567D01*
X219335952Y-135246713D01*
X219361402Y-135240104D01*
X219409474Y-135231255D01*
X219459147Y-135227210D01*
X219464961Y-135227159D01*
X219514462Y-135231778D01*
X219548981Y-135243524D01*
X219579206Y-135284282D01*
X219581221Y-135305073D01*
X219566566Y-135350013D01*
X219527187Y-135382911D01*
X219510390Y-135393244D01*
X219467447Y-135417507D01*
X219424130Y-135441228D01*
X219392177Y-135458457D01*
X219346290Y-135483542D01*
X219303150Y-135510069D01*
X219275917Y-135528555D01*
X219236122Y-135561938D01*
X219203261Y-135600963D01*
X219190432Y-135620879D01*
X219170786Y-135666056D01*
X219160742Y-135715072D01*
X219158192Y-135760586D01*
X219161698Y-135809372D01*
X219173237Y-135859880D01*
X219176510Y-135869762D01*
X219199372Y-135916685D01*
X219230975Y-135956315D01*
X219239036Y-135964284D01*
X219279997Y-135995437D01*
X219327109Y-136019257D01*
X219358715Y-136030963D01*
X219409725Y-136043971D01*
X219462200Y-136051560D01*
X219514068Y-136055029D01*
X219548981Y-136055631D01*
G37*
G36*
X218628429Y-136055631D02*
G01*
X218677783Y-136053424D01*
X218731389Y-136045271D01*
X218780719Y-136031111D01*
X218825770Y-136010944D01*
X218855331Y-135992861D01*
X218897982Y-135958224D01*
X218935076Y-135917084D01*
X218962976Y-135875753D01*
X218986621Y-135829442D01*
X218992595Y-135815296D01*
X219010582Y-135763038D01*
X219022483Y-135715176D01*
X219031139Y-135664481D01*
X219036548Y-135610951D01*
X219038712Y-135554589D01*
X219038757Y-135544919D01*
X219037356Y-135493025D01*
X219033152Y-135443587D01*
X219024408Y-135387505D01*
X219011628Y-135334960D01*
X218994813Y-135285953D01*
X218981360Y-135255247D01*
X218958136Y-135212260D01*
X218926744Y-135167121D01*
X218890723Y-135127382D01*
X218850075Y-135093043D01*
X218818206Y-135071821D01*
X218769962Y-135047077D01*
X218717768Y-135028411D01*
X218669886Y-135017248D01*
X218619101Y-135010550D01*
X218565415Y-135008318D01*
X218516413Y-135010275D01*
X218463949Y-135016815D01*
X218435966Y-135022240D01*
X218387469Y-135034879D01*
X218337597Y-135051915D01*
X218303586Y-135065715D01*
X218369532Y-135280160D01*
X218415703Y-135257262D01*
X218462626Y-135241234D01*
X218468939Y-135239616D01*
X218517177Y-135230273D01*
X218561263Y-135227159D01*
X218611924Y-135230952D01*
X218659497Y-135243884D01*
X218698527Y-135265994D01*
X218734570Y-135302710D01*
X218759254Y-135346118D01*
X218769846Y-135375659D01*
X218781805Y-135427813D01*
X218788369Y-135480936D01*
X218790769Y-135533396D01*
X218790851Y-135545652D01*
X218789108Y-135601145D01*
X218783878Y-135650386D01*
X218773372Y-135699934D01*
X218755553Y-135746142D01*
X218741270Y-135769378D01*
X218704738Y-135804927D01*
X218657426Y-135827310D01*
X218605627Y-135836197D01*
X218586420Y-135836789D01*
X218535329Y-135833517D01*
X218484037Y-135824618D01*
X218463321Y-135819692D01*
X218414698Y-135804500D01*
X218369578Y-135784567D01*
X218341444Y-135768646D01*
X218341444Y-135997990D01*
X218387763Y-136016461D01*
X218436044Y-136031237D01*
X218481639Y-136041465D01*
X218532374Y-136049530D01*
X218582820Y-136054248D01*
X218628429Y-136055631D01*
G37*
G36*
X218150446Y-136040000D02*
G01*
X218150446Y-135023949D01*
X217905471Y-135023949D01*
X217905471Y-135821158D01*
X217499539Y-135821158D01*
X217499539Y-136040000D01*
X218150446Y-136040000D01*
G37*
G36*
X216192107Y-136055631D02*
G01*
X216245027Y-136053899D01*
X216295985Y-136048704D01*
X216340607Y-136040976D01*
X216390132Y-136028501D01*
X216437759Y-136012701D01*
X216487867Y-135992656D01*
X216493014Y-135990418D01*
X216493014Y-135748862D01*
X216445015Y-135774671D01*
X216398561Y-135795496D01*
X216348758Y-135812789D01*
X216329371Y-135817983D01*
X216277493Y-135828690D01*
X216227981Y-135834953D01*
X216185024Y-135836789D01*
X216136264Y-135833704D01*
X216088548Y-135820669D01*
X216056159Y-135781374D01*
X216053377Y-135757411D01*
X216067244Y-135709696D01*
X216074382Y-135701479D01*
X216115806Y-135671230D01*
X216138129Y-135658981D01*
X216183245Y-135635153D01*
X216226602Y-135611453D01*
X216246573Y-135600362D01*
X216291486Y-135573100D01*
X216335326Y-135543607D01*
X216373335Y-135514633D01*
X216410578Y-135478723D01*
X216439356Y-135438863D01*
X216449783Y-135419134D01*
X216466071Y-135371327D01*
X216473736Y-135320185D01*
X216474940Y-135287243D01*
X216471189Y-135232429D01*
X216459934Y-135183178D01*
X216437883Y-135133704D01*
X216406032Y-135091496D01*
X216396538Y-135082079D01*
X216350590Y-135049808D01*
X216299316Y-135029135D01*
X216247143Y-135017034D01*
X216197868Y-135010911D01*
X216143321Y-135008390D01*
X216131779Y-135008318D01*
X216082121Y-135009646D01*
X216029577Y-135014315D01*
X215980550Y-135022345D01*
X215949818Y-135029567D01*
X215901427Y-135044064D01*
X215851724Y-135062821D01*
X215805715Y-135084521D01*
X215882651Y-135287487D01*
X215930015Y-135264567D01*
X215979078Y-135246713D01*
X216004528Y-135240104D01*
X216052600Y-135231255D01*
X216102273Y-135227210D01*
X216108087Y-135227159D01*
X216157589Y-135231778D01*
X216192107Y-135243524D01*
X216222332Y-135284282D01*
X216224347Y-135305073D01*
X216209692Y-135350013D01*
X216170313Y-135382911D01*
X216153517Y-135393244D01*
X216110574Y-135417507D01*
X216067256Y-135441228D01*
X216035303Y-135458457D01*
X215989416Y-135483542D01*
X215946277Y-135510069D01*
X215919043Y-135528555D01*
X215879249Y-135561938D01*
X215846387Y-135600963D01*
X215833558Y-135620879D01*
X215813912Y-135666056D01*
X215803869Y-135715072D01*
X215801318Y-135760586D01*
X215804825Y-135809372D01*
X215816363Y-135859880D01*
X215819637Y-135869762D01*
X215842499Y-135916685D01*
X215874101Y-135956315D01*
X215882163Y-135964284D01*
X215923124Y-135995437D01*
X215970236Y-136019257D01*
X216001842Y-136030963D01*
X216052851Y-136043971D01*
X216105327Y-136051560D01*
X216157194Y-136055029D01*
X216192107Y-136055631D01*
G37*
G36*
X215681884Y-136040000D02*
G01*
X215399050Y-136040000D01*
X215354532Y-136038527D01*
X215303676Y-136032871D01*
X215247882Y-136020911D01*
X215195898Y-136003178D01*
X215147725Y-135979672D01*
X215122029Y-135963632D01*
X215080644Y-135931246D01*
X215043817Y-135893367D01*
X215011548Y-135849995D01*
X214983838Y-135801130D01*
X214970213Y-135770733D01*
X214953183Y-135721975D01*
X214940240Y-135669422D01*
X214931385Y-135613073D01*
X214927127Y-135563217D01*
X214925966Y-135520251D01*
X215173614Y-135520251D01*
X215174469Y-135558566D01*
X215178957Y-135611575D01*
X215189055Y-135666646D01*
X215204389Y-135714424D01*
X215228325Y-135760097D01*
X215250819Y-135787904D01*
X215292320Y-135818826D01*
X215343134Y-135836805D01*
X215396120Y-135841919D01*
X215449364Y-135841919D01*
X215449364Y-135222030D01*
X215380732Y-135222030D01*
X215355652Y-135223195D01*
X215300029Y-135236301D01*
X215254520Y-135263967D01*
X215219124Y-135306196D01*
X215198088Y-135350463D01*
X215183525Y-135404050D01*
X215175435Y-135466955D01*
X215173614Y-135520251D01*
X214925966Y-135520251D01*
X214925708Y-135510725D01*
X214927570Y-135453359D01*
X214933157Y-135399473D01*
X214942469Y-135349067D01*
X214959347Y-135290954D01*
X214982044Y-135238280D01*
X215010561Y-135191044D01*
X215044898Y-135149246D01*
X215076146Y-135119879D01*
X215119456Y-135088678D01*
X215167489Y-135063594D01*
X215220245Y-135044628D01*
X215277723Y-135031780D01*
X215327106Y-135025907D01*
X215379511Y-135023949D01*
X215681884Y-135023949D01*
X215681884Y-136040000D01*
G37*
G36*
X214891514Y-136040000D02*
G01*
X214653621Y-136040000D01*
X214608681Y-135831660D01*
X214351249Y-135831660D01*
X214309239Y-136040000D01*
X214065484Y-136040000D01*
X214166894Y-135633579D01*
X214391793Y-135633579D01*
X214565450Y-135633579D01*
X214523440Y-135442337D01*
X214515866Y-135408477D01*
X214505854Y-135360272D01*
X214498087Y-135320848D01*
X214488513Y-135271123D01*
X214483600Y-135244886D01*
X214475812Y-135195896D01*
X214471325Y-135221130D01*
X214462623Y-135271123D01*
X214455551Y-135309705D01*
X214445771Y-135360272D01*
X214439153Y-135392993D01*
X214429651Y-135442337D01*
X214391793Y-135633579D01*
X214166894Y-135633579D01*
X214319009Y-135023949D01*
X214639699Y-135023949D01*
X214891514Y-136040000D01*
G37*
G36*
X226539392Y-115117484D02*
G01*
X226539392Y-114867379D01*
X226767759Y-114867379D01*
X226767759Y-114679801D01*
X226539392Y-114679801D01*
X226539392Y-114429696D01*
X226353279Y-114429696D01*
X226353279Y-114679801D01*
X226123691Y-114679801D01*
X226123691Y-114867379D01*
X226353279Y-114867379D01*
X226353279Y-115117484D01*
X226539392Y-115117484D01*
G37*
G36*
X225131332Y-115273800D02*
G01*
X224848499Y-115273800D01*
X224803981Y-115272327D01*
X224753125Y-115266671D01*
X224697331Y-115254711D01*
X224645347Y-115236978D01*
X224597173Y-115213472D01*
X224571478Y-115197432D01*
X224530093Y-115165046D01*
X224493266Y-115127167D01*
X224460997Y-115083795D01*
X224433286Y-115034930D01*
X224419662Y-115004533D01*
X224402632Y-114955775D01*
X224389689Y-114903222D01*
X224380833Y-114846873D01*
X224376575Y-114797017D01*
X224375414Y-114754051D01*
X224623063Y-114754051D01*
X224623918Y-114792366D01*
X224628405Y-114845375D01*
X224638503Y-114900446D01*
X224653837Y-114948224D01*
X224677773Y-114993897D01*
X224700267Y-115021704D01*
X224741769Y-115052626D01*
X224792582Y-115070605D01*
X224845568Y-115075719D01*
X224898813Y-115075719D01*
X224898813Y-114455830D01*
X224830181Y-114455830D01*
X224805100Y-114456995D01*
X224749477Y-114470101D01*
X224703968Y-114497767D01*
X224668572Y-114539996D01*
X224647537Y-114584263D01*
X224632974Y-114637850D01*
X224624883Y-114700755D01*
X224623063Y-114754051D01*
X224375414Y-114754051D01*
X224375156Y-114744525D01*
X224377019Y-114687159D01*
X224382606Y-114633273D01*
X224391917Y-114582867D01*
X224408795Y-114524754D01*
X224431492Y-114472080D01*
X224460010Y-114424844D01*
X224494347Y-114383046D01*
X224525595Y-114353679D01*
X224568905Y-114322478D01*
X224616938Y-114297394D01*
X224669693Y-114278428D01*
X224727171Y-114265580D01*
X224776554Y-114259707D01*
X224828959Y-114257749D01*
X225131332Y-114257749D01*
X225131332Y-115273800D01*
G37*
G36*
X224250104Y-115273800D02*
G01*
X224250104Y-115096968D01*
X224047138Y-115074253D01*
X224047138Y-114462669D01*
X224250104Y-114439954D01*
X224250104Y-114257749D01*
X223606035Y-114257749D01*
X223606035Y-114439954D01*
X223810467Y-114462669D01*
X223810467Y-115074253D01*
X223606035Y-115096968D01*
X223606035Y-115273800D01*
X224250104Y-115273800D01*
G37*
G36*
X223113182Y-114242641D02*
G01*
X223170825Y-114248534D01*
X223223482Y-114260974D01*
X223271155Y-114279961D01*
X223313843Y-114305496D01*
X223351545Y-114337578D01*
X223384263Y-114376207D01*
X223390198Y-114384691D01*
X223417050Y-114430658D01*
X223439190Y-114482540D01*
X223456620Y-114540338D01*
X223467172Y-114590835D01*
X223474709Y-114645118D01*
X223479231Y-114703187D01*
X223480739Y-114765042D01*
X223480646Y-114780786D01*
X223478419Y-114841452D01*
X223473223Y-114898416D01*
X223465058Y-114951678D01*
X223453924Y-115001239D01*
X223435832Y-115057983D01*
X223413100Y-115108944D01*
X223385728Y-115154121D01*
X223373406Y-115170506D01*
X223338959Y-115206844D01*
X223299312Y-115236575D01*
X223254466Y-115259700D01*
X223204420Y-115276217D01*
X223149174Y-115286128D01*
X223088729Y-115289431D01*
X223063637Y-115288897D01*
X223004680Y-115282886D01*
X222951114Y-115270197D01*
X222902938Y-115250829D01*
X222860152Y-115224783D01*
X222822757Y-115192058D01*
X222790753Y-115152655D01*
X222784968Y-115143997D01*
X222758796Y-115097406D01*
X222737216Y-115045317D01*
X222720228Y-114987730D01*
X222709943Y-114937702D01*
X222702596Y-114884156D01*
X222698189Y-114827091D01*
X222696719Y-114766507D01*
X222696748Y-114761622D01*
X222947313Y-114761622D01*
X222947434Y-114781460D01*
X222949251Y-114836864D01*
X222954128Y-114893710D01*
X222963337Y-114948401D01*
X222978331Y-114996828D01*
X222999506Y-115032484D01*
X223039760Y-115061874D01*
X223088729Y-115070589D01*
X223129121Y-115064929D01*
X223171436Y-115039770D01*
X223198638Y-114999026D01*
X223207715Y-114974362D01*
X223219038Y-114925647D01*
X223225715Y-114873680D01*
X223229038Y-114822197D01*
X223230146Y-114764309D01*
X223230021Y-114744308D01*
X223228146Y-114688655D01*
X223223115Y-114631974D01*
X223213617Y-114578073D01*
X223198150Y-114531301D01*
X223179221Y-114500527D01*
X223140295Y-114470851D01*
X223088729Y-114460959D01*
X223047155Y-114466736D01*
X223004284Y-114492410D01*
X222977599Y-114533988D01*
X222968874Y-114558801D01*
X222957990Y-114606787D01*
X222951571Y-114657140D01*
X222948377Y-114706513D01*
X222947313Y-114761622D01*
X222696748Y-114761622D01*
X222696812Y-114750941D01*
X222699027Y-114690905D01*
X222704196Y-114634434D01*
X222712319Y-114581526D01*
X222723396Y-114532184D01*
X222741396Y-114475518D01*
X222764011Y-114424421D01*
X222791241Y-114378894D01*
X222809917Y-114354450D01*
X222845280Y-114319054D01*
X222885938Y-114290337D01*
X222931891Y-114268297D01*
X222983139Y-114252937D01*
X223039682Y-114244255D01*
X223088729Y-114242118D01*
X223113182Y-114242641D01*
G37*
G36*
X221364130Y-115289431D02*
G01*
X221413484Y-115287224D01*
X221467090Y-115279071D01*
X221516420Y-115264911D01*
X221561471Y-115244744D01*
X221591032Y-115226661D01*
X221633683Y-115192024D01*
X221670777Y-115150884D01*
X221698677Y-115109553D01*
X221722322Y-115063242D01*
X221728296Y-115049096D01*
X221746283Y-114996838D01*
X221758184Y-114948976D01*
X221766840Y-114898281D01*
X221772249Y-114844751D01*
X221774413Y-114788389D01*
X221774458Y-114778719D01*
X221773057Y-114726825D01*
X221768853Y-114677387D01*
X221760109Y-114621305D01*
X221747329Y-114568760D01*
X221730514Y-114519753D01*
X221717061Y-114489047D01*
X221693837Y-114446060D01*
X221662445Y-114400921D01*
X221626424Y-114361182D01*
X221585776Y-114326843D01*
X221553907Y-114305621D01*
X221505663Y-114280877D01*
X221453469Y-114262211D01*
X221405587Y-114251048D01*
X221354802Y-114244350D01*
X221301116Y-114242118D01*
X221252114Y-114244075D01*
X221199650Y-114250615D01*
X221171667Y-114256040D01*
X221123170Y-114268679D01*
X221073298Y-114285715D01*
X221039287Y-114299515D01*
X221105233Y-114513960D01*
X221151404Y-114491062D01*
X221198327Y-114475034D01*
X221204640Y-114473416D01*
X221252878Y-114464073D01*
X221296964Y-114460959D01*
X221347625Y-114464752D01*
X221395198Y-114477684D01*
X221434228Y-114499794D01*
X221470271Y-114536510D01*
X221494955Y-114579918D01*
X221505547Y-114609459D01*
X221517506Y-114661613D01*
X221524070Y-114714736D01*
X221526470Y-114767196D01*
X221526552Y-114779452D01*
X221524809Y-114834945D01*
X221519579Y-114884186D01*
X221509073Y-114933734D01*
X221491254Y-114979942D01*
X221476971Y-115003178D01*
X221440439Y-115038727D01*
X221393127Y-115061110D01*
X221341328Y-115069997D01*
X221322121Y-115070589D01*
X221271030Y-115067317D01*
X221219738Y-115058418D01*
X221199022Y-115053492D01*
X221150399Y-115038300D01*
X221105279Y-115018367D01*
X221077145Y-115002446D01*
X221077145Y-115231790D01*
X221123464Y-115250261D01*
X221171745Y-115265037D01*
X221217340Y-115275265D01*
X221268075Y-115283330D01*
X221318521Y-115288048D01*
X221364130Y-115289431D01*
G37*
G36*
X220886147Y-115273800D02*
G01*
X220886147Y-114257749D01*
X220641172Y-114257749D01*
X220641172Y-115054958D01*
X220235240Y-115054958D01*
X220235240Y-115273800D01*
X220886147Y-115273800D01*
G37*
G36*
X220096022Y-115273800D02*
G01*
X220096022Y-114257749D01*
X219857885Y-114257749D01*
X219857885Y-114724497D01*
X219837494Y-114678992D01*
X219829308Y-114662215D01*
X219806914Y-114618664D01*
X219799266Y-114604330D01*
X219610222Y-114257749D01*
X219346929Y-114257749D01*
X219622679Y-114714728D01*
X219349860Y-115273800D01*
X219622679Y-115273800D01*
X219792183Y-114902795D01*
X219857885Y-114962390D01*
X219857885Y-115273800D01*
X220096022Y-115273800D01*
G37*
G36*
X218263467Y-114992432D02*
G01*
X218263467Y-114773590D01*
X217843614Y-114773590D01*
X217843614Y-114992432D01*
X218263467Y-114992432D01*
G37*
G36*
X212326026Y-124519400D02*
G01*
X211955021Y-124519400D01*
X211897988Y-124516660D01*
X211845593Y-124508443D01*
X211797834Y-124494747D01*
X211747975Y-124471845D01*
X211704428Y-124441486D01*
X211677831Y-124415601D01*
X211648168Y-124374453D01*
X211627341Y-124327578D01*
X211615350Y-124274976D01*
X211612104Y-124225331D01*
X211612290Y-124212614D01*
X211612974Y-124206036D01*
X211843158Y-124206036D01*
X211849189Y-124243776D01*
X211874665Y-124286392D01*
X211880868Y-124292634D01*
X211925481Y-124315554D01*
X211976026Y-124321319D01*
X212104742Y-124321319D01*
X212104742Y-124097348D01*
X211980178Y-124097348D01*
X211971065Y-124097471D01*
X211920014Y-124104271D01*
X211874665Y-124128855D01*
X211854265Y-124156793D01*
X211843158Y-124206036D01*
X211612974Y-124206036D01*
X211617732Y-124160276D01*
X211632616Y-124111504D01*
X211659731Y-124069260D01*
X211684766Y-124044943D01*
X211726898Y-124016652D01*
X211774526Y-123998185D01*
X211774526Y-123991102D01*
X211754834Y-123983632D01*
X211711022Y-123955115D01*
X211675852Y-123918318D01*
X211670321Y-123911023D01*
X211646280Y-123864421D01*
X211633791Y-123812538D01*
X211632836Y-123798150D01*
X211858545Y-123798150D01*
X211863745Y-123833164D01*
X211890052Y-123876797D01*
X211894130Y-123880789D01*
X211940039Y-123904328D01*
X211988727Y-123909769D01*
X212104742Y-123909769D01*
X212104742Y-123701430D01*
X211992879Y-123701430D01*
X211984265Y-123701530D01*
X211935534Y-123707065D01*
X211890785Y-123727076D01*
X211871139Y-123749092D01*
X211858545Y-123798150D01*
X211632836Y-123798150D01*
X211630178Y-123758095D01*
X211630262Y-123750248D01*
X211635567Y-123698744D01*
X211651733Y-123647208D01*
X211678676Y-123603489D01*
X211716396Y-123567585D01*
X211733409Y-123556105D01*
X211780052Y-123533711D01*
X211827771Y-123519408D01*
X211882634Y-123509622D01*
X211933810Y-123504918D01*
X211989948Y-123503349D01*
X212326026Y-123503349D01*
X212326026Y-124519400D01*
G37*
G36*
X211175182Y-123488241D02*
G01*
X211232825Y-123494134D01*
X211285483Y-123506574D01*
X211333155Y-123525561D01*
X211375843Y-123551096D01*
X211413546Y-123583178D01*
X211446263Y-123621807D01*
X211452199Y-123630291D01*
X211479050Y-123676258D01*
X211501190Y-123728140D01*
X211518620Y-123785938D01*
X211529172Y-123836435D01*
X211536709Y-123890718D01*
X211541232Y-123948787D01*
X211542739Y-124010642D01*
X211542646Y-124026386D01*
X211540420Y-124087052D01*
X211535224Y-124144016D01*
X211527059Y-124197278D01*
X211515925Y-124246839D01*
X211497832Y-124303583D01*
X211475100Y-124354544D01*
X211447729Y-124399721D01*
X211435406Y-124416106D01*
X211400959Y-124452444D01*
X211361313Y-124482175D01*
X211316466Y-124505300D01*
X211266420Y-124521817D01*
X211211175Y-124531728D01*
X211150729Y-124535031D01*
X211125637Y-124534497D01*
X211066680Y-124528486D01*
X211013114Y-124515797D01*
X210964938Y-124496429D01*
X210922152Y-124470383D01*
X210884758Y-124437658D01*
X210852753Y-124398255D01*
X210846968Y-124389597D01*
X210820796Y-124343006D01*
X210799216Y-124290917D01*
X210782228Y-124233330D01*
X210771943Y-124183302D01*
X210764597Y-124129756D01*
X210760189Y-124072691D01*
X210758720Y-124012107D01*
X210758749Y-124007222D01*
X211009313Y-124007222D01*
X211009434Y-124027060D01*
X211011251Y-124082464D01*
X211016128Y-124139310D01*
X211025337Y-124194001D01*
X211040332Y-124242428D01*
X211061506Y-124278084D01*
X211101761Y-124307474D01*
X211150729Y-124316189D01*
X211191121Y-124310529D01*
X211233436Y-124285370D01*
X211260639Y-124244626D01*
X211269715Y-124219962D01*
X211281038Y-124171247D01*
X211287715Y-124119280D01*
X211291038Y-124067797D01*
X211292146Y-124009909D01*
X211292021Y-123989908D01*
X211290146Y-123934255D01*
X211285116Y-123877574D01*
X211275617Y-123823673D01*
X211260150Y-123776901D01*
X211241221Y-123746127D01*
X211202295Y-123716451D01*
X211150729Y-123706559D01*
X211109155Y-123712336D01*
X211066285Y-123738010D01*
X211039599Y-123779588D01*
X211030874Y-123804401D01*
X211019990Y-123852387D01*
X211013572Y-123902740D01*
X211010378Y-123952113D01*
X211009313Y-124007222D01*
X210758749Y-124007222D01*
X210758812Y-123996541D01*
X210761027Y-123936505D01*
X210766196Y-123880034D01*
X210774319Y-123827126D01*
X210785396Y-123777784D01*
X210803396Y-123721118D01*
X210826011Y-123670021D01*
X210853242Y-123624494D01*
X210871918Y-123600050D01*
X210907280Y-123564654D01*
X210947938Y-123535937D01*
X210993891Y-123513897D01*
X211045139Y-123498537D01*
X211101682Y-123489855D01*
X211150729Y-123487718D01*
X211175182Y-123488241D01*
G37*
G36*
X210335964Y-123488241D02*
G01*
X210393607Y-123494134D01*
X210446264Y-123506574D01*
X210493937Y-123525561D01*
X210536625Y-123551096D01*
X210574327Y-123583178D01*
X210607045Y-123621807D01*
X210612980Y-123630291D01*
X210639832Y-123676258D01*
X210661972Y-123728140D01*
X210679402Y-123785938D01*
X210689954Y-123836435D01*
X210697491Y-123890718D01*
X210702013Y-123948787D01*
X210703521Y-124010642D01*
X210703428Y-124026386D01*
X210701201Y-124087052D01*
X210696005Y-124144016D01*
X210687840Y-124197278D01*
X210676706Y-124246839D01*
X210658613Y-124303583D01*
X210635881Y-124354544D01*
X210608510Y-124399721D01*
X210596187Y-124416106D01*
X210561741Y-124452444D01*
X210522094Y-124482175D01*
X210477248Y-124505300D01*
X210427202Y-124521817D01*
X210371956Y-124531728D01*
X210311511Y-124535031D01*
X210286419Y-124534497D01*
X210227462Y-124528486D01*
X210173895Y-124515797D01*
X210125719Y-124496429D01*
X210082934Y-124470383D01*
X210045539Y-124437658D01*
X210013535Y-124398255D01*
X210007749Y-124389597D01*
X209981578Y-124343006D01*
X209959998Y-124290917D01*
X209943010Y-124233330D01*
X209932725Y-124183302D01*
X209925378Y-124129756D01*
X209920970Y-124072691D01*
X209919501Y-124012107D01*
X209919530Y-124007222D01*
X210170094Y-124007222D01*
X210170216Y-124027060D01*
X210172033Y-124082464D01*
X210176910Y-124139310D01*
X210186119Y-124194001D01*
X210201113Y-124242428D01*
X210222288Y-124278084D01*
X210262542Y-124307474D01*
X210311511Y-124316189D01*
X210351903Y-124310529D01*
X210394218Y-124285370D01*
X210421420Y-124244626D01*
X210430497Y-124219962D01*
X210441820Y-124171247D01*
X210448497Y-124119280D01*
X210451820Y-124067797D01*
X210452928Y-124009909D01*
X210452803Y-123989908D01*
X210450928Y-123934255D01*
X210445897Y-123877574D01*
X210436398Y-123823673D01*
X210420932Y-123776901D01*
X210402003Y-123746127D01*
X210363077Y-123716451D01*
X210311511Y-123706559D01*
X210269936Y-123712336D01*
X210227066Y-123738010D01*
X210200380Y-123779588D01*
X210191655Y-123804401D01*
X210180771Y-123852387D01*
X210174353Y-123902740D01*
X210171159Y-123952113D01*
X210170094Y-124007222D01*
X209919530Y-124007222D01*
X209919593Y-123996541D01*
X209921809Y-123936505D01*
X209926978Y-123880034D01*
X209935101Y-123827126D01*
X209946178Y-123777784D01*
X209964178Y-123721118D01*
X209986793Y-123670021D01*
X210014023Y-123624494D01*
X210032699Y-123600050D01*
X210068062Y-123564654D01*
X210108720Y-123535937D01*
X210154673Y-123513897D01*
X210205921Y-123498537D01*
X210262464Y-123489855D01*
X210311511Y-123487718D01*
X210335964Y-123488241D01*
G37*
G36*
X209595635Y-124519400D02*
G01*
X209595635Y-123722191D01*
X209864302Y-123722191D01*
X209864302Y-123503349D01*
X209080283Y-123503349D01*
X209080283Y-123722191D01*
X209350660Y-123722191D01*
X209350660Y-124519400D01*
X209595635Y-124519400D01*
G37*
G36*
X208681144Y-123489794D02*
G01*
X208734634Y-123498228D01*
X208782829Y-123513150D01*
X208833674Y-123539619D01*
X208876893Y-123575431D01*
X208912488Y-123620586D01*
X208917702Y-123628999D01*
X208941290Y-123674785D01*
X208960740Y-123726772D01*
X208976052Y-123784961D01*
X208985322Y-123835977D01*
X208991943Y-123890963D01*
X208995916Y-123949917D01*
X208997240Y-124012840D01*
X208997153Y-124028420D01*
X208995052Y-124088482D01*
X208990150Y-124144935D01*
X208982447Y-124197777D01*
X208971942Y-124247009D01*
X208954873Y-124303473D01*
X208933426Y-124354295D01*
X208907603Y-124399476D01*
X208883728Y-124431247D01*
X208842421Y-124470960D01*
X208794519Y-124501142D01*
X208740022Y-124521793D01*
X208689571Y-124531722D01*
X208634540Y-124535031D01*
X208617280Y-124534772D01*
X208560570Y-124529795D01*
X208509609Y-124518484D01*
X208458410Y-124497799D01*
X208414721Y-124468841D01*
X208404922Y-124460337D01*
X208369407Y-124422311D01*
X208339785Y-124377874D01*
X208318699Y-124333732D01*
X208302125Y-124284682D01*
X208300096Y-124277289D01*
X208287699Y-124223545D01*
X208279585Y-124174707D01*
X208273789Y-124123310D01*
X208270311Y-124069354D01*
X208269167Y-124013573D01*
X208486284Y-124013573D01*
X208486555Y-124043498D01*
X208488718Y-124098802D01*
X208493978Y-124155661D01*
X208502182Y-124204269D01*
X208517059Y-124254640D01*
X208541755Y-124295341D01*
X208585810Y-124324284D01*
X208634540Y-124331821D01*
X208673386Y-124326984D01*
X208718559Y-124302512D01*
X208488971Y-123914410D01*
X208486874Y-123964171D01*
X208486284Y-124013573D01*
X208269167Y-124013573D01*
X208269152Y-124012840D01*
X208269241Y-123996990D01*
X208271359Y-123935949D01*
X208276301Y-123878678D01*
X208284067Y-123825177D01*
X208294657Y-123775447D01*
X208311866Y-123718586D01*
X208312409Y-123717306D01*
X208554672Y-123717306D01*
X208780108Y-124104187D01*
X208782212Y-124064692D01*
X208783039Y-124013573D01*
X208782762Y-123984183D01*
X208780547Y-123929589D01*
X208775162Y-123872950D01*
X208766762Y-123823908D01*
X208751532Y-123772016D01*
X208726569Y-123729255D01*
X208686932Y-123700510D01*
X208634540Y-123690928D01*
X208600410Y-123694637D01*
X208554672Y-123717306D01*
X208312409Y-123717306D01*
X208333488Y-123667617D01*
X208359522Y-123622540D01*
X208390064Y-123583699D01*
X208432792Y-123545781D01*
X208482148Y-123517342D01*
X208528342Y-123500884D01*
X208579139Y-123491009D01*
X208634540Y-123487718D01*
X208681144Y-123489794D01*
G37*
G36*
X192409951Y-135678632D02*
G01*
X192409951Y-135459790D01*
X191990097Y-135459790D01*
X191990097Y-135678632D01*
X192409951Y-135678632D01*
G37*
G36*
X189776036Y-135803684D02*
G01*
X189776036Y-135553579D01*
X190004403Y-135553579D01*
X190004403Y-135366001D01*
X189776036Y-135366001D01*
X189776036Y-135115896D01*
X189589923Y-135115896D01*
X189589923Y-135366001D01*
X189360334Y-135366001D01*
X189360334Y-135553579D01*
X189589923Y-135553579D01*
X189589923Y-135803684D01*
X189776036Y-135803684D01*
G37*
G36*
X188038981Y-135975631D02*
G01*
X188091901Y-135973899D01*
X188142858Y-135968704D01*
X188187480Y-135960976D01*
X188237005Y-135948501D01*
X188284633Y-135932701D01*
X188334741Y-135912656D01*
X188339888Y-135910418D01*
X188339888Y-135668862D01*
X188291888Y-135694671D01*
X188245435Y-135715496D01*
X188195632Y-135732789D01*
X188176245Y-135737983D01*
X188124367Y-135748690D01*
X188074855Y-135754953D01*
X188031898Y-135756789D01*
X187983138Y-135753704D01*
X187935422Y-135740669D01*
X187903033Y-135701374D01*
X187900251Y-135677411D01*
X187914117Y-135629696D01*
X187921256Y-135621479D01*
X187962680Y-135591230D01*
X187985003Y-135578981D01*
X188030119Y-135555153D01*
X188073476Y-135531453D01*
X188093447Y-135520362D01*
X188138360Y-135493100D01*
X188182199Y-135463607D01*
X188220209Y-135434633D01*
X188257452Y-135398723D01*
X188286230Y-135358863D01*
X188296657Y-135339134D01*
X188312945Y-135291327D01*
X188320610Y-135240185D01*
X188321814Y-135207243D01*
X188318062Y-135152429D01*
X188306807Y-135103178D01*
X188284757Y-135053704D01*
X188252906Y-135011496D01*
X188243412Y-135002079D01*
X188197464Y-134969808D01*
X188146189Y-134949135D01*
X188094017Y-134937034D01*
X188044741Y-134930911D01*
X187990195Y-134928390D01*
X187978653Y-134928318D01*
X187928995Y-134929646D01*
X187876451Y-134934315D01*
X187827423Y-134942345D01*
X187796692Y-134949567D01*
X187748301Y-134964064D01*
X187698598Y-134982821D01*
X187652588Y-135004521D01*
X187729525Y-135207487D01*
X187776889Y-135184567D01*
X187825952Y-135166713D01*
X187851402Y-135160104D01*
X187899474Y-135151255D01*
X187949147Y-135147210D01*
X187954961Y-135147159D01*
X188004462Y-135151778D01*
X188038981Y-135163524D01*
X188069206Y-135204282D01*
X188071221Y-135225073D01*
X188056566Y-135270013D01*
X188017187Y-135302911D01*
X188000390Y-135313244D01*
X187957447Y-135337507D01*
X187914130Y-135361228D01*
X187882177Y-135378457D01*
X187836290Y-135403542D01*
X187793150Y-135430069D01*
X187765917Y-135448555D01*
X187726122Y-135481938D01*
X187693261Y-135520963D01*
X187680432Y-135540879D01*
X187660786Y-135586056D01*
X187650742Y-135635072D01*
X187648192Y-135680586D01*
X187651698Y-135729372D01*
X187663237Y-135779880D01*
X187666510Y-135789762D01*
X187689372Y-135836685D01*
X187720975Y-135876315D01*
X187729036Y-135884284D01*
X187769997Y-135915437D01*
X187817109Y-135939257D01*
X187848715Y-135950963D01*
X187899725Y-135963971D01*
X187952200Y-135971560D01*
X188004068Y-135975029D01*
X188038981Y-135975631D01*
G37*
G36*
X187118429Y-135975631D02*
G01*
X187167783Y-135973424D01*
X187221389Y-135965271D01*
X187270719Y-135951111D01*
X187315770Y-135930944D01*
X187345331Y-135912861D01*
X187387982Y-135878224D01*
X187425076Y-135837084D01*
X187452976Y-135795753D01*
X187476621Y-135749442D01*
X187482595Y-135735296D01*
X187500582Y-135683038D01*
X187512483Y-135635176D01*
X187521139Y-135584481D01*
X187526548Y-135530951D01*
X187528712Y-135474589D01*
X187528757Y-135464919D01*
X187527356Y-135413025D01*
X187523152Y-135363587D01*
X187514408Y-135307505D01*
X187501628Y-135254960D01*
X187484813Y-135205953D01*
X187471360Y-135175247D01*
X187448136Y-135132260D01*
X187416744Y-135087121D01*
X187380723Y-135047382D01*
X187340075Y-135013043D01*
X187308206Y-134991821D01*
X187259962Y-134967077D01*
X187207768Y-134948411D01*
X187159886Y-134937248D01*
X187109101Y-134930550D01*
X187055415Y-134928318D01*
X187006413Y-134930275D01*
X186953949Y-134936815D01*
X186925966Y-134942240D01*
X186877469Y-134954879D01*
X186827597Y-134971915D01*
X186793586Y-134985715D01*
X186859532Y-135200160D01*
X186905703Y-135177262D01*
X186952626Y-135161234D01*
X186958939Y-135159616D01*
X187007177Y-135150273D01*
X187051263Y-135147159D01*
X187101924Y-135150952D01*
X187149497Y-135163884D01*
X187188527Y-135185994D01*
X187224570Y-135222710D01*
X187249254Y-135266118D01*
X187259846Y-135295659D01*
X187271805Y-135347813D01*
X187278369Y-135400936D01*
X187280769Y-135453396D01*
X187280851Y-135465652D01*
X187279108Y-135521145D01*
X187273878Y-135570386D01*
X187263372Y-135619934D01*
X187245553Y-135666142D01*
X187231270Y-135689378D01*
X187194738Y-135724927D01*
X187147426Y-135747310D01*
X187095627Y-135756197D01*
X187076420Y-135756789D01*
X187025329Y-135753517D01*
X186974037Y-135744618D01*
X186953321Y-135739692D01*
X186904698Y-135724500D01*
X186859578Y-135704567D01*
X186831444Y-135688646D01*
X186831444Y-135917990D01*
X186877763Y-135936461D01*
X186926044Y-135951237D01*
X186971639Y-135961465D01*
X187022374Y-135969530D01*
X187072820Y-135974248D01*
X187118429Y-135975631D01*
G37*
G36*
X186640446Y-135960000D02*
G01*
X186640446Y-134943949D01*
X186395471Y-134943949D01*
X186395471Y-135741158D01*
X185989539Y-135741158D01*
X185989539Y-135960000D01*
X186640446Y-135960000D01*
G37*
G36*
X184682107Y-135975631D02*
G01*
X184735027Y-135973899D01*
X184785985Y-135968704D01*
X184830607Y-135960976D01*
X184880132Y-135948501D01*
X184927759Y-135932701D01*
X184977867Y-135912656D01*
X184983014Y-135910418D01*
X184983014Y-135668862D01*
X184935015Y-135694671D01*
X184888561Y-135715496D01*
X184838758Y-135732789D01*
X184819371Y-135737983D01*
X184767493Y-135748690D01*
X184717981Y-135754953D01*
X184675024Y-135756789D01*
X184626264Y-135753704D01*
X184578548Y-135740669D01*
X184546159Y-135701374D01*
X184543377Y-135677411D01*
X184557244Y-135629696D01*
X184564382Y-135621479D01*
X184605806Y-135591230D01*
X184628129Y-135578981D01*
X184673245Y-135555153D01*
X184716602Y-135531453D01*
X184736573Y-135520362D01*
X184781486Y-135493100D01*
X184825326Y-135463607D01*
X184863335Y-135434633D01*
X184900578Y-135398723D01*
X184929356Y-135358863D01*
X184939783Y-135339134D01*
X184956071Y-135291327D01*
X184963736Y-135240185D01*
X184964940Y-135207243D01*
X184961189Y-135152429D01*
X184949934Y-135103178D01*
X184927883Y-135053704D01*
X184896032Y-135011496D01*
X184886538Y-135002079D01*
X184840590Y-134969808D01*
X184789316Y-134949135D01*
X184737143Y-134937034D01*
X184687868Y-134930911D01*
X184633321Y-134928390D01*
X184621779Y-134928318D01*
X184572121Y-134929646D01*
X184519577Y-134934315D01*
X184470550Y-134942345D01*
X184439818Y-134949567D01*
X184391427Y-134964064D01*
X184341724Y-134982821D01*
X184295715Y-135004521D01*
X184372651Y-135207487D01*
X184420015Y-135184567D01*
X184469078Y-135166713D01*
X184494528Y-135160104D01*
X184542600Y-135151255D01*
X184592273Y-135147210D01*
X184598087Y-135147159D01*
X184647589Y-135151778D01*
X184682107Y-135163524D01*
X184712332Y-135204282D01*
X184714347Y-135225073D01*
X184699692Y-135270013D01*
X184660313Y-135302911D01*
X184643517Y-135313244D01*
X184600574Y-135337507D01*
X184557256Y-135361228D01*
X184525303Y-135378457D01*
X184479416Y-135403542D01*
X184436277Y-135430069D01*
X184409043Y-135448555D01*
X184369249Y-135481938D01*
X184336387Y-135520963D01*
X184323558Y-135540879D01*
X184303912Y-135586056D01*
X184293869Y-135635072D01*
X184291318Y-135680586D01*
X184294825Y-135729372D01*
X184306363Y-135779880D01*
X184309637Y-135789762D01*
X184332499Y-135836685D01*
X184364101Y-135876315D01*
X184372163Y-135884284D01*
X184413124Y-135915437D01*
X184460236Y-135939257D01*
X184491842Y-135950963D01*
X184542851Y-135963971D01*
X184595327Y-135971560D01*
X184647194Y-135975029D01*
X184682107Y-135975631D01*
G37*
G36*
X184171884Y-135960000D02*
G01*
X183889050Y-135960000D01*
X183844532Y-135958527D01*
X183793676Y-135952871D01*
X183737882Y-135940911D01*
X183685898Y-135923178D01*
X183637725Y-135899672D01*
X183612029Y-135883632D01*
X183570644Y-135851246D01*
X183533817Y-135813367D01*
X183501548Y-135769995D01*
X183473838Y-135721130D01*
X183460213Y-135690733D01*
X183443183Y-135641975D01*
X183430240Y-135589422D01*
X183421385Y-135533073D01*
X183417127Y-135483217D01*
X183415966Y-135440251D01*
X183663614Y-135440251D01*
X183664469Y-135478566D01*
X183668957Y-135531575D01*
X183679055Y-135586646D01*
X183694389Y-135634424D01*
X183718325Y-135680097D01*
X183740819Y-135707904D01*
X183782320Y-135738826D01*
X183833134Y-135756805D01*
X183886120Y-135761919D01*
X183939364Y-135761919D01*
X183939364Y-135142030D01*
X183870732Y-135142030D01*
X183845652Y-135143195D01*
X183790029Y-135156301D01*
X183744520Y-135183967D01*
X183709124Y-135226196D01*
X183688088Y-135270463D01*
X183673525Y-135324050D01*
X183665435Y-135386955D01*
X183663614Y-135440251D01*
X183415966Y-135440251D01*
X183415708Y-135430725D01*
X183417570Y-135373359D01*
X183423157Y-135319473D01*
X183432469Y-135269067D01*
X183449347Y-135210954D01*
X183472044Y-135158280D01*
X183500561Y-135111044D01*
X183534898Y-135069246D01*
X183566146Y-135039879D01*
X183609456Y-135008678D01*
X183657489Y-134983594D01*
X183710245Y-134964628D01*
X183767723Y-134951780D01*
X183817106Y-134945907D01*
X183869511Y-134943949D01*
X184171884Y-134943949D01*
X184171884Y-135960000D01*
G37*
G36*
X183381514Y-135960000D02*
G01*
X183143621Y-135960000D01*
X183098681Y-135751660D01*
X182841249Y-135751660D01*
X182799239Y-135960000D01*
X182555484Y-135960000D01*
X182656894Y-135553579D01*
X182881793Y-135553579D01*
X183055450Y-135553579D01*
X183013440Y-135362337D01*
X183005866Y-135328477D01*
X182995854Y-135280272D01*
X182988087Y-135240848D01*
X182978513Y-135191123D01*
X182973600Y-135164886D01*
X182965812Y-135115896D01*
X182961325Y-135141130D01*
X182952623Y-135191123D01*
X182945551Y-135229705D01*
X182935771Y-135280272D01*
X182929153Y-135312993D01*
X182919651Y-135362337D01*
X182881793Y-135553579D01*
X182656894Y-135553579D01*
X182809009Y-134943949D01*
X183129699Y-134943949D01*
X183381514Y-135960000D01*
G37*
G36*
X121769503Y-189065000D02*
G01*
X121769503Y-188048949D01*
X121524528Y-188048949D01*
X121524528Y-188846158D01*
X121118596Y-188846158D01*
X121118596Y-189065000D01*
X121769503Y-189065000D01*
G37*
G36*
X120597137Y-188220896D02*
G01*
X120647106Y-188216448D01*
X120697649Y-188196680D01*
X120732541Y-188155537D01*
X120744028Y-188102162D01*
X120744172Y-188094378D01*
X120734982Y-188040309D01*
X120702675Y-187997947D01*
X120654429Y-187976705D01*
X120597137Y-187970792D01*
X120546980Y-187975291D01*
X120499835Y-187993570D01*
X120487961Y-188002787D01*
X120460518Y-188044572D01*
X120452790Y-188094378D01*
X120460357Y-188143791D01*
X120487228Y-188186946D01*
X120531802Y-188212409D01*
X120583306Y-188220598D01*
X120597137Y-188220896D01*
G37*
G36*
X120979377Y-189065000D02*
G01*
X120979377Y-188892076D01*
X120719015Y-188870094D01*
X120719015Y-188489319D01*
X120919049Y-188469780D01*
X120919049Y-188283422D01*
X120473795Y-188283422D01*
X120473795Y-188870094D01*
X120251290Y-188892076D01*
X120251290Y-189065000D01*
X120979377Y-189065000D01*
G37*
G36*
X120140159Y-189065000D02*
G01*
X120140159Y-188892320D01*
X119879796Y-188866919D01*
X119879796Y-188187191D01*
X120085449Y-188168872D01*
X120085449Y-187986423D01*
X119634576Y-187986423D01*
X119634576Y-188866919D01*
X119412071Y-188892320D01*
X119412071Y-189065000D01*
X120140159Y-189065000D01*
G37*
G36*
X119181994Y-189408893D02*
G01*
X119232111Y-189406143D01*
X119233774Y-189405963D01*
X119282367Y-189398776D01*
X119289705Y-189397414D01*
X119289705Y-189202508D01*
X119239436Y-189209831D01*
X119215456Y-189210812D01*
X119163350Y-189205296D01*
X119114104Y-189185482D01*
X119075850Y-189151257D01*
X119048586Y-189102622D01*
X119045951Y-189095530D01*
X119029343Y-189048147D01*
X119342950Y-188283422D01*
X119079657Y-188283422D01*
X118949475Y-188691552D01*
X118935983Y-188738564D01*
X118933599Y-188747728D01*
X118922743Y-188796646D01*
X118918701Y-188819291D01*
X118914548Y-188819291D01*
X118906334Y-188770580D01*
X118901359Y-188744309D01*
X118890778Y-188695706D01*
X118889391Y-188690331D01*
X118781436Y-188283422D01*
X118530843Y-188283422D01*
X118826377Y-189140959D01*
X118844520Y-189187937D01*
X118869182Y-189237166D01*
X118897608Y-189280387D01*
X118929797Y-189317602D01*
X118955093Y-189340505D01*
X119000781Y-189370425D01*
X119046795Y-189389593D01*
X119098441Y-189402215D01*
X119147194Y-189407825D01*
X119181994Y-189408893D01*
G37*
G36*
X118166188Y-189080631D02*
G01*
X118215997Y-189079101D01*
X118265343Y-189074513D01*
X118309803Y-189067686D01*
X118361300Y-189056340D01*
X118409912Y-189041354D01*
X118440717Y-189029340D01*
X118440717Y-188813674D01*
X118393260Y-188832594D01*
X118346234Y-188848772D01*
X118317375Y-188857637D01*
X118265420Y-188869693D01*
X118215018Y-188875856D01*
X118171806Y-188877421D01*
X118121442Y-188872612D01*
X118073364Y-188854848D01*
X118056279Y-188843227D01*
X118025600Y-188804072D01*
X118013912Y-188755132D01*
X118013537Y-188743087D01*
X118021858Y-188694468D01*
X118049242Y-188653996D01*
X118057012Y-188647344D01*
X118102252Y-188623802D01*
X118152490Y-188614117D01*
X118181576Y-188612906D01*
X118232075Y-188615956D01*
X118260710Y-188619989D01*
X118308712Y-188630294D01*
X118338380Y-188639528D01*
X118425330Y-188587260D01*
X118391624Y-188048949D01*
X117816188Y-188048949D01*
X117816188Y-188267791D01*
X118150801Y-188267791D01*
X118162036Y-188420198D01*
X118112657Y-188411119D01*
X118063123Y-188405823D01*
X118044555Y-188405300D01*
X117993911Y-188408331D01*
X117940860Y-188419529D01*
X117894308Y-188438978D01*
X117849062Y-188471310D01*
X117829622Y-188491517D01*
X117800976Y-188531937D01*
X117779366Y-188577757D01*
X117764792Y-188628976D01*
X117757253Y-188685595D01*
X117756105Y-188720373D01*
X117758824Y-188774296D01*
X117766981Y-188823866D01*
X117783948Y-188877604D01*
X117808747Y-188925074D01*
X117841376Y-188966276D01*
X117867479Y-188990261D01*
X117911841Y-189020973D01*
X117961578Y-189045330D01*
X118016690Y-189063334D01*
X118066723Y-189073483D01*
X118120488Y-189079219D01*
X118166188Y-189080631D01*
G37*
G36*
X117294810Y-188034306D02*
G01*
X117345697Y-188039495D01*
X117399271Y-188051171D01*
X117446603Y-188068901D01*
X117493055Y-188096577D01*
X117498254Y-188100588D01*
X117533906Y-188136835D01*
X117558994Y-188180471D01*
X117573519Y-188231495D01*
X117577563Y-188282201D01*
X117573890Y-188331408D01*
X117561364Y-188381072D01*
X117539950Y-188426060D01*
X117510604Y-188467187D01*
X117474619Y-188505600D01*
X117436146Y-188538168D01*
X117451087Y-188546827D01*
X117492200Y-188574506D01*
X117531355Y-188608252D01*
X117563641Y-188645146D01*
X117569231Y-188652965D01*
X117593529Y-188700435D01*
X117606152Y-188750152D01*
X117609803Y-188800240D01*
X117609470Y-188816152D01*
X117603060Y-188868569D01*
X117588493Y-188915889D01*
X117561855Y-188963730D01*
X117524562Y-189004916D01*
X117519135Y-189009574D01*
X117476401Y-189038041D01*
X117425369Y-189059262D01*
X117375022Y-189071684D01*
X117318579Y-189078783D01*
X117266886Y-189080631D01*
X117255859Y-189080556D01*
X117203308Y-189077943D01*
X117145929Y-189069881D01*
X117094749Y-189056442D01*
X117042876Y-189033971D01*
X116999440Y-189004183D01*
X116988586Y-188994456D01*
X116956110Y-188957723D01*
X116929499Y-188910618D01*
X116914092Y-188858049D01*
X116909803Y-188807568D01*
X116910192Y-188793401D01*
X117142322Y-188793401D01*
X117146305Y-188820727D01*
X117176028Y-188859591D01*
X117211101Y-188876071D01*
X117259803Y-188882550D01*
X117273881Y-188882180D01*
X117325994Y-188871352D01*
X117364709Y-188837758D01*
X117376063Y-188787784D01*
X117370863Y-188755341D01*
X117344555Y-188713290D01*
X117310056Y-188681599D01*
X117269573Y-188652473D01*
X117263505Y-188656640D01*
X117223167Y-188684897D01*
X117181645Y-188715244D01*
X117154764Y-188744629D01*
X117142322Y-188793401D01*
X116910192Y-188793401D01*
X116910284Y-188790041D01*
X116917497Y-188740912D01*
X116935662Y-188692397D01*
X116964514Y-188650275D01*
X116986278Y-188627271D01*
X117023948Y-188594086D01*
X117067645Y-188562485D01*
X117111548Y-188535725D01*
X117095590Y-188527725D01*
X117051865Y-188501688D01*
X117010577Y-188469178D01*
X116976970Y-188432899D01*
X116974040Y-188429042D01*
X116947947Y-188383211D01*
X116933994Y-188336137D01*
X116931279Y-188305648D01*
X117166014Y-188305648D01*
X117167632Y-188322501D01*
X117191904Y-188365732D01*
X117217643Y-188387511D01*
X117259803Y-188414825D01*
X117282033Y-188399817D01*
X117320864Y-188366465D01*
X117330908Y-188353505D01*
X117343823Y-188305648D01*
X117343226Y-188295443D01*
X117319398Y-188251671D01*
X117302430Y-188240980D01*
X117254186Y-188231399D01*
X117240291Y-188232240D01*
X117194102Y-188248984D01*
X117181813Y-188259029D01*
X117166014Y-188305648D01*
X116931279Y-188305648D01*
X116929343Y-188283911D01*
X116929429Y-188276231D01*
X116934899Y-188225781D01*
X116951569Y-188175223D01*
X116979351Y-188132236D01*
X117018247Y-188096821D01*
X117053776Y-188075240D01*
X117100761Y-188055705D01*
X117153706Y-188042248D01*
X117203832Y-188035550D01*
X117258338Y-188033318D01*
X117294810Y-188034306D01*
G37*
G36*
X115944067Y-189065000D02*
G01*
X115944067Y-188048949D01*
X115705930Y-188048949D01*
X115705930Y-188515697D01*
X115685539Y-188470192D01*
X115677354Y-188453415D01*
X115654960Y-188409864D01*
X115647312Y-188395530D01*
X115458268Y-188048949D01*
X115194974Y-188048949D01*
X115470724Y-188505928D01*
X115197905Y-189065000D01*
X115470724Y-189065000D01*
X115640229Y-188693995D01*
X115705930Y-188753590D01*
X115705930Y-189065000D01*
X115944067Y-189065000D01*
G37*
G36*
X114756975Y-188267841D02*
G01*
X114808857Y-188271027D01*
X114863170Y-188280736D01*
X114912171Y-188296917D01*
X114955860Y-188319570D01*
X114980422Y-188336688D01*
X115019553Y-188372217D01*
X115052155Y-188413813D01*
X115078226Y-188461475D01*
X115080720Y-188467134D01*
X115097825Y-188514238D01*
X115109862Y-188564610D01*
X115116830Y-188618248D01*
X115118770Y-188667861D01*
X115118601Y-188682986D01*
X115115351Y-188734195D01*
X115107963Y-188782716D01*
X115094453Y-188834877D01*
X115075539Y-188883527D01*
X115054485Y-188922454D01*
X115025443Y-188962049D01*
X114986421Y-189000351D01*
X114946091Y-189028852D01*
X114935158Y-189035122D01*
X114888317Y-189056157D01*
X114836499Y-189070720D01*
X114787076Y-189078153D01*
X114733844Y-189080631D01*
X114726099Y-189080583D01*
X114674187Y-189077532D01*
X114619782Y-189068236D01*
X114570628Y-189052742D01*
X114526726Y-189031050D01*
X114501883Y-189014519D01*
X114462365Y-188979926D01*
X114429532Y-188939111D01*
X114403383Y-188892076D01*
X114400889Y-188886461D01*
X114383784Y-188839551D01*
X114371747Y-188789100D01*
X114364779Y-188735107D01*
X114362839Y-188684958D01*
X114362943Y-188675676D01*
X114599266Y-188675676D01*
X114601932Y-188724412D01*
X114612432Y-188776789D01*
X114632971Y-188824909D01*
X114649646Y-188847369D01*
X114690845Y-188874444D01*
X114740682Y-188882550D01*
X114766603Y-188880567D01*
X114813337Y-188862660D01*
X114847172Y-188826130D01*
X114849246Y-188822567D01*
X114868995Y-188774081D01*
X114878212Y-188725595D01*
X114880878Y-188675676D01*
X114878328Y-188628145D01*
X114868284Y-188576033D01*
X114848638Y-188526688D01*
X114832452Y-188502991D01*
X114791355Y-188474424D01*
X114740682Y-188465872D01*
X114714347Y-188467907D01*
X114667008Y-188486279D01*
X114632971Y-188523757D01*
X114628890Y-188531106D01*
X114611148Y-188576637D01*
X114601932Y-188625543D01*
X114599266Y-188675676D01*
X114362943Y-188675676D01*
X114363016Y-188669124D01*
X114366432Y-188615809D01*
X114374196Y-188565767D01*
X114388393Y-188512583D01*
X114408268Y-188463674D01*
X114433578Y-188419450D01*
X114464077Y-188380570D01*
X114499767Y-188347032D01*
X114540648Y-188318838D01*
X114546101Y-188315697D01*
X114592202Y-188294162D01*
X114642699Y-188279007D01*
X114697593Y-188270234D01*
X114749231Y-188267791D01*
X114756975Y-188267841D01*
G37*
G36*
X113863851Y-189080631D02*
G01*
X113920161Y-189078156D01*
X113971857Y-189070733D01*
X114027799Y-189055291D01*
X114077095Y-189032722D01*
X114119745Y-189003027D01*
X114144486Y-188979270D01*
X114176110Y-188937914D01*
X114201192Y-188890049D01*
X114219731Y-188835676D01*
X114230181Y-188785392D01*
X114236088Y-188730589D01*
X114237542Y-188683492D01*
X114235602Y-188629278D01*
X114229782Y-188578406D01*
X114218379Y-188524359D01*
X114201908Y-188474679D01*
X114196998Y-188462941D01*
X114173963Y-188419038D01*
X114141443Y-188375925D01*
X114101929Y-188339457D01*
X114071701Y-188318838D01*
X114026226Y-188296505D01*
X113974554Y-188280553D01*
X113924256Y-188271829D01*
X113869213Y-188267990D01*
X113852615Y-188267791D01*
X113800077Y-188269920D01*
X113747606Y-188276309D01*
X113712664Y-188282934D01*
X113665309Y-188295111D01*
X113615558Y-188312805D01*
X113579552Y-188329096D01*
X113652336Y-188511545D01*
X113700776Y-188492342D01*
X113749548Y-188477008D01*
X113757361Y-188475153D01*
X113806419Y-188467177D01*
X113834297Y-188465872D01*
X113890491Y-188472999D01*
X113935059Y-188494380D01*
X113972360Y-188537339D01*
X113991737Y-188589603D01*
X113999004Y-188644045D01*
X113999650Y-188668593D01*
X113996581Y-188722815D01*
X113985794Y-188773597D01*
X113962063Y-188820970D01*
X113950557Y-188834190D01*
X113910234Y-188863659D01*
X113862904Y-188879528D01*
X113827458Y-188882550D01*
X113775930Y-188878068D01*
X113728052Y-188868384D01*
X113679984Y-188851997D01*
X113635184Y-188828212D01*
X113608861Y-188810498D01*
X113608861Y-189021769D01*
X113654691Y-189042480D01*
X113701689Y-189058451D01*
X113733669Y-189066465D01*
X113782086Y-189075097D01*
X113830985Y-189079746D01*
X113863851Y-189080631D01*
G37*
G36*
X113062959Y-188267860D02*
G01*
X113114804Y-188270298D01*
X113165694Y-188276218D01*
X113215630Y-188285621D01*
X113225503Y-188287931D01*
X113274294Y-188301947D01*
X113322131Y-188320065D01*
X113369015Y-188342285D01*
X113294765Y-188515209D01*
X113276828Y-188506995D01*
X113230193Y-188489492D01*
X113179971Y-188476863D01*
X113128898Y-188468974D01*
X113077633Y-188465872D01*
X113029308Y-188469459D01*
X112981157Y-188487609D01*
X112965701Y-188503142D01*
X112951848Y-188552090D01*
X112951848Y-188580422D01*
X113112804Y-188580422D01*
X113124260Y-188580527D01*
X113173737Y-188583596D01*
X113224722Y-188591992D01*
X113275958Y-188607288D01*
X113309343Y-188622447D01*
X113352265Y-188651653D01*
X113386600Y-188688621D01*
X113409266Y-188730199D01*
X113422524Y-188780377D01*
X113426412Y-188833457D01*
X113424145Y-188872833D01*
X113414070Y-188921033D01*
X113393101Y-188969382D01*
X113361932Y-189011510D01*
X113357835Y-189015763D01*
X113314953Y-189047961D01*
X113267753Y-189067401D01*
X113219441Y-189077324D01*
X113164583Y-189080631D01*
X113148681Y-189080109D01*
X113099615Y-189074036D01*
X113062256Y-189064151D01*
X113017061Y-189043995D01*
X113006085Y-189037637D01*
X112966286Y-189006045D01*
X112933530Y-188968768D01*
X112927912Y-188968768D01*
X112901290Y-189065000D01*
X112719329Y-189065000D01*
X112719329Y-188757742D01*
X112951848Y-188757742D01*
X112952028Y-188765581D01*
X112964876Y-188816099D01*
X112998010Y-188852020D01*
X113006777Y-188857476D01*
X113053960Y-188876706D01*
X113103034Y-188882550D01*
X113135821Y-188879931D01*
X113183588Y-188856288D01*
X113199510Y-188808056D01*
X113193705Y-188775873D01*
X113158233Y-188740401D01*
X113134923Y-188731959D01*
X113085649Y-188723386D01*
X113032936Y-188721106D01*
X112951848Y-188721106D01*
X112951848Y-188757742D01*
X112719329Y-188757742D01*
X112719329Y-188531085D01*
X112719407Y-188522921D01*
X112724366Y-188469383D01*
X112739479Y-188415924D01*
X112764666Y-188370709D01*
X112799929Y-188333736D01*
X112845846Y-188304885D01*
X112895441Y-188286402D01*
X112944946Y-188275583D01*
X113000908Y-188269401D01*
X113052476Y-188267791D01*
X113062959Y-188267860D01*
G37*
G36*
X111521073Y-189065000D02*
G01*
X111789985Y-188283422D01*
X111530843Y-188283422D01*
X111414828Y-188732585D01*
X111402381Y-188779990D01*
X111398708Y-188795355D01*
X111388476Y-188844509D01*
X111386740Y-188853485D01*
X111382588Y-188853485D01*
X111372415Y-188805400D01*
X111369887Y-188795355D01*
X111358017Y-188747368D01*
X111354500Y-188732585D01*
X111237019Y-188283422D01*
X110977877Y-188283422D01*
X111256558Y-189065000D01*
X111521073Y-189065000D01*
G37*
G36*
X110606384Y-189080631D02*
G01*
X110658631Y-189078535D01*
X110708720Y-189072879D01*
X110738763Y-189067930D01*
X110790741Y-189056596D01*
X110838629Y-189042706D01*
X110877982Y-189028852D01*
X110877982Y-188816849D01*
X110831923Y-188836448D01*
X110784421Y-188852930D01*
X110739985Y-188865209D01*
X110688213Y-188875776D01*
X110637243Y-188881720D01*
X110612001Y-188882550D01*
X110562747Y-188878798D01*
X110513499Y-188863170D01*
X110494521Y-188850799D01*
X110463838Y-188810583D01*
X110455197Y-188764337D01*
X110467013Y-188716938D01*
X110476202Y-188704497D01*
X110519630Y-188678029D01*
X110548987Y-188669815D01*
X110597991Y-188662540D01*
X110650286Y-188659282D01*
X110694555Y-188658579D01*
X110750487Y-188658579D01*
X110750487Y-188460498D01*
X110693090Y-188460498D01*
X110640587Y-188459061D01*
X110589914Y-188453897D01*
X110540569Y-188442162D01*
X110515281Y-188430457D01*
X110480044Y-188394765D01*
X110466380Y-188344475D01*
X110466188Y-188336667D01*
X110473943Y-188286720D01*
X110497207Y-188254602D01*
X110542259Y-188234662D01*
X110575609Y-188231399D01*
X110627205Y-188236589D01*
X110674456Y-188249645D01*
X110681366Y-188252159D01*
X110727655Y-188271981D01*
X110772789Y-188297369D01*
X110781262Y-188302962D01*
X110880668Y-188129061D01*
X110837959Y-188103115D01*
X110791959Y-188080842D01*
X110742666Y-188062242D01*
X110732413Y-188058963D01*
X110684757Y-188046566D01*
X110634937Y-188038226D01*
X110582954Y-188033944D01*
X110553139Y-188033318D01*
X110499770Y-188035585D01*
X110451038Y-188042385D01*
X110400044Y-188056049D01*
X110355361Y-188075885D01*
X110322085Y-188097798D01*
X110285968Y-188133686D01*
X110260170Y-188177116D01*
X110244691Y-188228086D01*
X110239612Y-188278871D01*
X110239531Y-188286598D01*
X110243069Y-188336904D01*
X110254886Y-188385046D01*
X110264688Y-188408230D01*
X110291385Y-188451819D01*
X110326724Y-188489913D01*
X110329168Y-188492006D01*
X110369346Y-188521987D01*
X110411722Y-188545495D01*
X110411722Y-188549647D01*
X110362310Y-188562577D01*
X110316654Y-188582591D01*
X110310850Y-188585795D01*
X110269268Y-188616875D01*
X110238602Y-188654996D01*
X110236844Y-188657847D01*
X110216684Y-188706193D01*
X110209195Y-188757036D01*
X110208756Y-188774351D01*
X110212736Y-188823503D01*
X110226494Y-188874174D01*
X110250079Y-188920694D01*
X110259070Y-188933841D01*
X110294285Y-188974084D01*
X110332423Y-189005245D01*
X110376666Y-189031615D01*
X110398289Y-189041796D01*
X110444634Y-189058787D01*
X110494765Y-189070922D01*
X110548681Y-189078204D01*
X110598964Y-189080593D01*
X110606384Y-189080631D01*
G37*
G36*
X298769503Y-189065000D02*
G01*
X298769503Y-188048949D01*
X298524528Y-188048949D01*
X298524528Y-188846158D01*
X298118596Y-188846158D01*
X298118596Y-189065000D01*
X298769503Y-189065000D01*
G37*
G36*
X297597137Y-188220896D02*
G01*
X297647106Y-188216448D01*
X297697649Y-188196680D01*
X297732541Y-188155537D01*
X297744028Y-188102162D01*
X297744172Y-188094378D01*
X297734982Y-188040309D01*
X297702675Y-187997947D01*
X297654429Y-187976705D01*
X297597137Y-187970792D01*
X297546980Y-187975291D01*
X297499835Y-187993570D01*
X297487961Y-188002787D01*
X297460518Y-188044572D01*
X297452790Y-188094378D01*
X297460357Y-188143791D01*
X297487228Y-188186946D01*
X297531802Y-188212409D01*
X297583306Y-188220598D01*
X297597137Y-188220896D01*
G37*
G36*
X297979377Y-189065000D02*
G01*
X297979377Y-188892076D01*
X297719015Y-188870094D01*
X297719015Y-188489319D01*
X297919049Y-188469780D01*
X297919049Y-188283422D01*
X297473795Y-188283422D01*
X297473795Y-188870094D01*
X297251290Y-188892076D01*
X297251290Y-189065000D01*
X297979377Y-189065000D01*
G37*
G36*
X297140159Y-189065000D02*
G01*
X297140159Y-188892320D01*
X296879796Y-188866919D01*
X296879796Y-188187191D01*
X297085449Y-188168872D01*
X297085449Y-187986423D01*
X296634576Y-187986423D01*
X296634576Y-188866919D01*
X296412071Y-188892320D01*
X296412071Y-189065000D01*
X297140159Y-189065000D01*
G37*
G36*
X296181994Y-189408893D02*
G01*
X296232111Y-189406143D01*
X296233774Y-189405963D01*
X296282367Y-189398776D01*
X296289705Y-189397414D01*
X296289705Y-189202508D01*
X296239436Y-189209831D01*
X296215456Y-189210812D01*
X296163350Y-189205296D01*
X296114104Y-189185482D01*
X296075850Y-189151257D01*
X296048586Y-189102622D01*
X296045951Y-189095530D01*
X296029343Y-189048147D01*
X296342950Y-188283422D01*
X296079657Y-188283422D01*
X295949475Y-188691552D01*
X295935983Y-188738564D01*
X295933599Y-188747728D01*
X295922743Y-188796646D01*
X295918701Y-188819291D01*
X295914548Y-188819291D01*
X295906334Y-188770580D01*
X295901359Y-188744309D01*
X295890778Y-188695706D01*
X295889391Y-188690331D01*
X295781436Y-188283422D01*
X295530843Y-188283422D01*
X295826377Y-189140959D01*
X295844520Y-189187937D01*
X295869182Y-189237166D01*
X295897608Y-189280387D01*
X295929797Y-189317602D01*
X295955093Y-189340505D01*
X296000781Y-189370425D01*
X296046795Y-189389593D01*
X296098441Y-189402215D01*
X296147194Y-189407825D01*
X296181994Y-189408893D01*
G37*
G36*
X295166188Y-189080631D02*
G01*
X295215997Y-189079101D01*
X295265343Y-189074513D01*
X295309803Y-189067686D01*
X295361300Y-189056340D01*
X295409912Y-189041354D01*
X295440717Y-189029340D01*
X295440717Y-188813674D01*
X295393260Y-188832594D01*
X295346234Y-188848772D01*
X295317375Y-188857637D01*
X295265420Y-188869693D01*
X295215018Y-188875856D01*
X295171806Y-188877421D01*
X295121442Y-188872612D01*
X295073364Y-188854848D01*
X295056279Y-188843227D01*
X295025600Y-188804072D01*
X295013912Y-188755132D01*
X295013537Y-188743087D01*
X295021858Y-188694468D01*
X295049242Y-188653996D01*
X295057012Y-188647344D01*
X295102252Y-188623802D01*
X295152490Y-188614117D01*
X295181576Y-188612906D01*
X295232075Y-188615956D01*
X295260710Y-188619989D01*
X295308712Y-188630294D01*
X295338380Y-188639528D01*
X295425330Y-188587260D01*
X295391624Y-188048949D01*
X294816188Y-188048949D01*
X294816188Y-188267791D01*
X295150801Y-188267791D01*
X295162036Y-188420198D01*
X295112657Y-188411119D01*
X295063123Y-188405823D01*
X295044555Y-188405300D01*
X294993911Y-188408331D01*
X294940860Y-188419529D01*
X294894308Y-188438978D01*
X294849062Y-188471310D01*
X294829622Y-188491517D01*
X294800976Y-188531937D01*
X294779366Y-188577757D01*
X294764792Y-188628976D01*
X294757253Y-188685595D01*
X294756105Y-188720373D01*
X294758824Y-188774296D01*
X294766981Y-188823866D01*
X294783948Y-188877604D01*
X294808747Y-188925074D01*
X294841376Y-188966276D01*
X294867479Y-188990261D01*
X294911841Y-189020973D01*
X294961578Y-189045330D01*
X295016690Y-189063334D01*
X295066723Y-189073483D01*
X295120488Y-189079219D01*
X295166188Y-189080631D01*
G37*
G36*
X294294810Y-188034306D02*
G01*
X294345697Y-188039495D01*
X294399271Y-188051171D01*
X294446603Y-188068901D01*
X294493055Y-188096577D01*
X294498254Y-188100588D01*
X294533906Y-188136835D01*
X294558994Y-188180471D01*
X294573519Y-188231495D01*
X294577563Y-188282201D01*
X294573890Y-188331408D01*
X294561364Y-188381072D01*
X294539950Y-188426060D01*
X294510604Y-188467187D01*
X294474619Y-188505600D01*
X294436146Y-188538168D01*
X294451087Y-188546827D01*
X294492200Y-188574506D01*
X294531355Y-188608252D01*
X294563641Y-188645146D01*
X294569231Y-188652965D01*
X294593529Y-188700435D01*
X294606152Y-188750152D01*
X294609803Y-188800240D01*
X294609470Y-188816152D01*
X294603060Y-188868569D01*
X294588493Y-188915889D01*
X294561855Y-188963730D01*
X294524562Y-189004916D01*
X294519135Y-189009574D01*
X294476401Y-189038041D01*
X294425369Y-189059262D01*
X294375022Y-189071684D01*
X294318579Y-189078783D01*
X294266886Y-189080631D01*
X294255859Y-189080556D01*
X294203308Y-189077943D01*
X294145929Y-189069881D01*
X294094749Y-189056442D01*
X294042876Y-189033971D01*
X293999440Y-189004183D01*
X293988586Y-188994456D01*
X293956110Y-188957723D01*
X293929499Y-188910618D01*
X293914092Y-188858049D01*
X293909803Y-188807568D01*
X293910192Y-188793401D01*
X294142322Y-188793401D01*
X294146305Y-188820727D01*
X294176028Y-188859591D01*
X294211101Y-188876071D01*
X294259803Y-188882550D01*
X294273881Y-188882180D01*
X294325994Y-188871352D01*
X294364709Y-188837758D01*
X294376063Y-188787784D01*
X294370863Y-188755341D01*
X294344555Y-188713290D01*
X294310056Y-188681599D01*
X294269573Y-188652473D01*
X294263505Y-188656640D01*
X294223167Y-188684897D01*
X294181645Y-188715244D01*
X294154764Y-188744629D01*
X294142322Y-188793401D01*
X293910192Y-188793401D01*
X293910284Y-188790041D01*
X293917497Y-188740912D01*
X293935662Y-188692397D01*
X293964514Y-188650275D01*
X293986278Y-188627271D01*
X294023948Y-188594086D01*
X294067645Y-188562485D01*
X294111548Y-188535725D01*
X294095590Y-188527725D01*
X294051865Y-188501688D01*
X294010577Y-188469178D01*
X293976970Y-188432899D01*
X293974040Y-188429042D01*
X293947947Y-188383211D01*
X293933994Y-188336137D01*
X293931279Y-188305648D01*
X294166014Y-188305648D01*
X294167632Y-188322501D01*
X294191904Y-188365732D01*
X294217643Y-188387511D01*
X294259803Y-188414825D01*
X294282033Y-188399817D01*
X294320864Y-188366465D01*
X294330908Y-188353505D01*
X294343823Y-188305648D01*
X294343226Y-188295443D01*
X294319398Y-188251671D01*
X294302430Y-188240980D01*
X294254186Y-188231399D01*
X294240291Y-188232240D01*
X294194102Y-188248984D01*
X294181813Y-188259029D01*
X294166014Y-188305648D01*
X293931279Y-188305648D01*
X293929343Y-188283911D01*
X293929429Y-188276231D01*
X293934899Y-188225781D01*
X293951569Y-188175223D01*
X293979351Y-188132236D01*
X294018247Y-188096821D01*
X294053776Y-188075240D01*
X294100761Y-188055705D01*
X294153706Y-188042248D01*
X294203832Y-188035550D01*
X294258338Y-188033318D01*
X294294810Y-188034306D01*
G37*
G36*
X292944067Y-189065000D02*
G01*
X292944067Y-188048949D01*
X292705930Y-188048949D01*
X292705930Y-188515697D01*
X292685539Y-188470192D01*
X292677354Y-188453415D01*
X292654960Y-188409864D01*
X292647312Y-188395530D01*
X292458268Y-188048949D01*
X292194974Y-188048949D01*
X292470724Y-188505928D01*
X292197905Y-189065000D01*
X292470724Y-189065000D01*
X292640229Y-188693995D01*
X292705930Y-188753590D01*
X292705930Y-189065000D01*
X292944067Y-189065000D01*
G37*
G36*
X291756975Y-188267841D02*
G01*
X291808857Y-188271027D01*
X291863170Y-188280736D01*
X291912171Y-188296917D01*
X291955860Y-188319570D01*
X291980422Y-188336688D01*
X292019553Y-188372217D01*
X292052155Y-188413813D01*
X292078226Y-188461475D01*
X292080720Y-188467134D01*
X292097825Y-188514238D01*
X292109862Y-188564610D01*
X292116830Y-188618248D01*
X292118770Y-188667861D01*
X292118601Y-188682986D01*
X292115351Y-188734195D01*
X292107963Y-188782716D01*
X292094453Y-188834877D01*
X292075539Y-188883527D01*
X292054485Y-188922454D01*
X292025443Y-188962049D01*
X291986421Y-189000351D01*
X291946091Y-189028852D01*
X291935158Y-189035122D01*
X291888317Y-189056157D01*
X291836499Y-189070720D01*
X291787076Y-189078153D01*
X291733844Y-189080631D01*
X291726099Y-189080583D01*
X291674187Y-189077532D01*
X291619782Y-189068236D01*
X291570628Y-189052742D01*
X291526726Y-189031050D01*
X291501883Y-189014519D01*
X291462365Y-188979926D01*
X291429532Y-188939111D01*
X291403383Y-188892076D01*
X291400889Y-188886461D01*
X291383784Y-188839551D01*
X291371747Y-188789100D01*
X291364779Y-188735107D01*
X291362839Y-188684958D01*
X291362943Y-188675676D01*
X291599266Y-188675676D01*
X291601932Y-188724412D01*
X291612432Y-188776789D01*
X291632971Y-188824909D01*
X291649646Y-188847369D01*
X291690845Y-188874444D01*
X291740682Y-188882550D01*
X291766603Y-188880567D01*
X291813337Y-188862660D01*
X291847172Y-188826130D01*
X291849246Y-188822567D01*
X291868995Y-188774081D01*
X291878212Y-188725595D01*
X291880878Y-188675676D01*
X291878328Y-188628145D01*
X291868284Y-188576033D01*
X291848638Y-188526688D01*
X291832452Y-188502991D01*
X291791355Y-188474424D01*
X291740682Y-188465872D01*
X291714347Y-188467907D01*
X291667008Y-188486279D01*
X291632971Y-188523757D01*
X291628890Y-188531106D01*
X291611148Y-188576637D01*
X291601932Y-188625543D01*
X291599266Y-188675676D01*
X291362943Y-188675676D01*
X291363016Y-188669124D01*
X291366432Y-188615809D01*
X291374196Y-188565767D01*
X291388393Y-188512583D01*
X291408268Y-188463674D01*
X291433578Y-188419450D01*
X291464077Y-188380570D01*
X291499767Y-188347032D01*
X291540648Y-188318838D01*
X291546101Y-188315697D01*
X291592202Y-188294162D01*
X291642699Y-188279007D01*
X291697593Y-188270234D01*
X291749231Y-188267791D01*
X291756975Y-188267841D01*
G37*
G36*
X290863851Y-189080631D02*
G01*
X290920161Y-189078156D01*
X290971857Y-189070733D01*
X291027799Y-189055291D01*
X291077095Y-189032722D01*
X291119745Y-189003027D01*
X291144486Y-188979270D01*
X291176110Y-188937914D01*
X291201192Y-188890049D01*
X291219731Y-188835676D01*
X291230181Y-188785392D01*
X291236088Y-188730589D01*
X291237542Y-188683492D01*
X291235602Y-188629278D01*
X291229782Y-188578406D01*
X291218379Y-188524359D01*
X291201908Y-188474679D01*
X291196998Y-188462941D01*
X291173963Y-188419038D01*
X291141443Y-188375925D01*
X291101929Y-188339457D01*
X291071701Y-188318838D01*
X291026226Y-188296505D01*
X290974554Y-188280553D01*
X290924256Y-188271829D01*
X290869213Y-188267990D01*
X290852615Y-188267791D01*
X290800077Y-188269920D01*
X290747606Y-188276309D01*
X290712664Y-188282934D01*
X290665309Y-188295111D01*
X290615558Y-188312805D01*
X290579552Y-188329096D01*
X290652336Y-188511545D01*
X290700776Y-188492342D01*
X290749548Y-188477008D01*
X290757361Y-188475153D01*
X290806419Y-188467177D01*
X290834297Y-188465872D01*
X290890491Y-188472999D01*
X290935059Y-188494380D01*
X290972360Y-188537339D01*
X290991737Y-188589603D01*
X290999004Y-188644045D01*
X290999650Y-188668593D01*
X290996581Y-188722815D01*
X290985794Y-188773597D01*
X290962063Y-188820970D01*
X290950557Y-188834190D01*
X290910234Y-188863659D01*
X290862904Y-188879528D01*
X290827458Y-188882550D01*
X290775930Y-188878068D01*
X290728052Y-188868384D01*
X290679984Y-188851997D01*
X290635184Y-188828212D01*
X290608861Y-188810498D01*
X290608861Y-189021769D01*
X290654691Y-189042480D01*
X290701689Y-189058451D01*
X290733669Y-189066465D01*
X290782086Y-189075097D01*
X290830985Y-189079746D01*
X290863851Y-189080631D01*
G37*
G36*
X290062959Y-188267860D02*
G01*
X290114804Y-188270298D01*
X290165694Y-188276218D01*
X290215630Y-188285621D01*
X290225503Y-188287931D01*
X290274294Y-188301947D01*
X290322131Y-188320065D01*
X290369015Y-188342285D01*
X290294765Y-188515209D01*
X290276828Y-188506995D01*
X290230193Y-188489492D01*
X290179971Y-188476863D01*
X290128898Y-188468974D01*
X290077633Y-188465872D01*
X290029308Y-188469459D01*
X289981157Y-188487609D01*
X289965701Y-188503142D01*
X289951848Y-188552090D01*
X289951848Y-188580422D01*
X290112804Y-188580422D01*
X290124260Y-188580527D01*
X290173737Y-188583596D01*
X290224722Y-188591992D01*
X290275958Y-188607288D01*
X290309343Y-188622447D01*
X290352265Y-188651653D01*
X290386600Y-188688621D01*
X290409266Y-188730199D01*
X290422524Y-188780377D01*
X290426412Y-188833457D01*
X290424145Y-188872833D01*
X290414070Y-188921033D01*
X290393101Y-188969382D01*
X290361932Y-189011510D01*
X290357835Y-189015763D01*
X290314953Y-189047961D01*
X290267753Y-189067401D01*
X290219441Y-189077324D01*
X290164583Y-189080631D01*
X290148681Y-189080109D01*
X290099615Y-189074036D01*
X290062256Y-189064151D01*
X290017061Y-189043995D01*
X290006085Y-189037637D01*
X289966286Y-189006045D01*
X289933530Y-188968768D01*
X289927912Y-188968768D01*
X289901290Y-189065000D01*
X289719329Y-189065000D01*
X289719329Y-188757742D01*
X289951848Y-188757742D01*
X289952028Y-188765581D01*
X289964876Y-188816099D01*
X289998010Y-188852020D01*
X290006777Y-188857476D01*
X290053960Y-188876706D01*
X290103034Y-188882550D01*
X290135821Y-188879931D01*
X290183588Y-188856288D01*
X290199510Y-188808056D01*
X290193705Y-188775873D01*
X290158233Y-188740401D01*
X290134923Y-188731959D01*
X290085649Y-188723386D01*
X290032936Y-188721106D01*
X289951848Y-188721106D01*
X289951848Y-188757742D01*
X289719329Y-188757742D01*
X289719329Y-188531085D01*
X289719407Y-188522921D01*
X289724366Y-188469383D01*
X289739479Y-188415924D01*
X289764666Y-188370709D01*
X289799929Y-188333736D01*
X289845846Y-188304885D01*
X289895441Y-188286402D01*
X289944946Y-188275583D01*
X290000908Y-188269401D01*
X290052476Y-188267791D01*
X290062959Y-188267860D01*
G37*
G36*
X288521073Y-189065000D02*
G01*
X288789985Y-188283422D01*
X288530843Y-188283422D01*
X288414828Y-188732585D01*
X288402381Y-188779990D01*
X288398708Y-188795355D01*
X288388476Y-188844509D01*
X288386740Y-188853485D01*
X288382588Y-188853485D01*
X288372415Y-188805400D01*
X288369887Y-188795355D01*
X288358017Y-188747368D01*
X288354500Y-188732585D01*
X288237019Y-188283422D01*
X287977877Y-188283422D01*
X288256558Y-189065000D01*
X288521073Y-189065000D01*
G37*
G36*
X287606384Y-189080631D02*
G01*
X287658631Y-189078535D01*
X287708720Y-189072879D01*
X287738763Y-189067930D01*
X287790741Y-189056596D01*
X287838629Y-189042706D01*
X287877982Y-189028852D01*
X287877982Y-188816849D01*
X287831923Y-188836448D01*
X287784421Y-188852930D01*
X287739985Y-188865209D01*
X287688213Y-188875776D01*
X287637243Y-188881720D01*
X287612001Y-188882550D01*
X287562747Y-188878798D01*
X287513499Y-188863170D01*
X287494521Y-188850799D01*
X287463838Y-188810583D01*
X287455197Y-188764337D01*
X287467013Y-188716938D01*
X287476202Y-188704497D01*
X287519630Y-188678029D01*
X287548987Y-188669815D01*
X287597991Y-188662540D01*
X287650286Y-188659282D01*
X287694555Y-188658579D01*
X287750487Y-188658579D01*
X287750487Y-188460498D01*
X287693090Y-188460498D01*
X287640587Y-188459061D01*
X287589914Y-188453897D01*
X287540569Y-188442162D01*
X287515281Y-188430457D01*
X287480044Y-188394765D01*
X287466380Y-188344475D01*
X287466188Y-188336667D01*
X287473943Y-188286720D01*
X287497207Y-188254602D01*
X287542259Y-188234662D01*
X287575609Y-188231399D01*
X287627205Y-188236589D01*
X287674456Y-188249645D01*
X287681366Y-188252159D01*
X287727655Y-188271981D01*
X287772789Y-188297369D01*
X287781262Y-188302962D01*
X287880668Y-188129061D01*
X287837959Y-188103115D01*
X287791959Y-188080842D01*
X287742666Y-188062242D01*
X287732413Y-188058963D01*
X287684757Y-188046566D01*
X287634937Y-188038226D01*
X287582954Y-188033944D01*
X287553139Y-188033318D01*
X287499770Y-188035585D01*
X287451038Y-188042385D01*
X287400044Y-188056049D01*
X287355361Y-188075885D01*
X287322085Y-188097798D01*
X287285968Y-188133686D01*
X287260170Y-188177116D01*
X287244691Y-188228086D01*
X287239612Y-188278871D01*
X287239531Y-188286598D01*
X287243069Y-188336904D01*
X287254886Y-188385046D01*
X287264688Y-188408230D01*
X287291385Y-188451819D01*
X287326724Y-188489913D01*
X287329168Y-188492006D01*
X287369346Y-188521987D01*
X287411722Y-188545495D01*
X287411722Y-188549647D01*
X287362310Y-188562577D01*
X287316654Y-188582591D01*
X287310850Y-188585795D01*
X287269268Y-188616875D01*
X287238602Y-188654996D01*
X287236844Y-188657847D01*
X287216684Y-188706193D01*
X287209195Y-188757036D01*
X287208756Y-188774351D01*
X287212736Y-188823503D01*
X287226494Y-188874174D01*
X287250079Y-188920694D01*
X287259070Y-188933841D01*
X287294285Y-188974084D01*
X287332423Y-189005245D01*
X287376666Y-189031615D01*
X287398289Y-189041796D01*
X287444634Y-189058787D01*
X287494765Y-189070922D01*
X287548681Y-189078204D01*
X287598964Y-189080593D01*
X287606384Y-189080631D01*
G37*
G36*
X211919626Y-154948600D02*
G01*
X211690038Y-154948600D01*
X211690038Y-154589074D01*
X211592096Y-154589074D01*
X211431140Y-154948600D01*
X211170533Y-154948600D01*
X211391817Y-154517267D01*
X211382527Y-154510849D01*
X211340400Y-154476726D01*
X211305476Y-154439217D01*
X211277756Y-154398320D01*
X211270859Y-154385288D01*
X211252770Y-154338157D01*
X211242218Y-154285349D01*
X211240418Y-154254461D01*
X211470219Y-154254461D01*
X211470571Y-154267665D01*
X211480233Y-154316743D01*
X211510275Y-154358997D01*
X211512779Y-154360966D01*
X211557124Y-154383963D01*
X211606018Y-154390993D01*
X211690038Y-154390993D01*
X211690038Y-154130630D01*
X211598935Y-154130630D01*
X211594862Y-154130662D01*
X211544853Y-154137875D01*
X211501726Y-154163603D01*
X211477142Y-154205668D01*
X211470219Y-154254461D01*
X211240418Y-154254461D01*
X211239165Y-154232968D01*
X211241354Y-154188468D01*
X211249757Y-154139695D01*
X211267527Y-154089176D01*
X211293876Y-154045528D01*
X211328803Y-154008753D01*
X211346457Y-153995135D01*
X211394247Y-153968567D01*
X211442559Y-153951600D01*
X211497654Y-153939991D01*
X211548748Y-153934410D01*
X211604553Y-153932549D01*
X211919626Y-153932549D01*
X211919626Y-154948600D01*
G37*
G36*
X210780493Y-154153108D02*
G01*
X210832170Y-154160085D01*
X210879506Y-154172428D01*
X210930580Y-154194324D01*
X210975402Y-154223948D01*
X211013973Y-154261300D01*
X211041204Y-154297501D01*
X211067788Y-154345838D01*
X211087726Y-154399517D01*
X211099265Y-154448328D01*
X211106188Y-154500849D01*
X211108495Y-154557078D01*
X211105949Y-154615283D01*
X211098311Y-154669301D01*
X211085580Y-154719134D01*
X211067757Y-154764780D01*
X211039647Y-154814030D01*
X211004204Y-154857253D01*
X210997586Y-154863834D01*
X210953714Y-154898937D01*
X210902698Y-154926517D01*
X210854727Y-154943755D01*
X210801795Y-154955769D01*
X210743902Y-154962560D01*
X210694015Y-154964231D01*
X210658293Y-154963265D01*
X210607236Y-154958972D01*
X210556995Y-154952019D01*
X210510222Y-154942335D01*
X210460038Y-154926944D01*
X210411182Y-154906590D01*
X210411182Y-154705334D01*
X210435585Y-154718407D01*
X210483386Y-154738345D01*
X210530373Y-154751740D01*
X210554418Y-154756637D01*
X210606222Y-154763772D01*
X210657623Y-154766150D01*
X210669216Y-154766023D01*
X210718149Y-154762312D01*
X210766311Y-154752160D01*
X210811740Y-154733666D01*
X210829223Y-154722651D01*
X210864405Y-154683435D01*
X210878907Y-154635969D01*
X210381873Y-154635969D01*
X210381873Y-154528013D01*
X210382680Y-154496130D01*
X210385827Y-154464022D01*
X210604378Y-154464022D01*
X210874511Y-154464022D01*
X210873254Y-154452888D01*
X210860806Y-154405645D01*
X210835432Y-154363638D01*
X210831100Y-154358758D01*
X210787853Y-154331051D01*
X210737491Y-154323338D01*
X210733744Y-154323375D01*
X210683330Y-154332863D01*
X210641503Y-154361440D01*
X210635118Y-154368816D01*
X210612205Y-154412651D01*
X210604378Y-154464022D01*
X210385827Y-154464022D01*
X210387613Y-154445795D01*
X210399451Y-154390022D01*
X210417746Y-154339298D01*
X210442499Y-154293622D01*
X210473708Y-154252996D01*
X210491577Y-154234838D01*
X210531488Y-154203880D01*
X210576963Y-154180066D01*
X210628002Y-154163397D01*
X210684605Y-154153871D01*
X210736025Y-154151391D01*
X210780493Y-154153108D01*
G37*
G36*
X209956890Y-154964231D02*
G01*
X210007620Y-154962685D01*
X210058694Y-154958049D01*
X210092934Y-154953240D01*
X210143881Y-154943463D01*
X210194142Y-154930251D01*
X210227267Y-154919535D01*
X210227267Y-154697518D01*
X210180303Y-154717348D01*
X210134054Y-154733792D01*
X210084007Y-154747968D01*
X210079500Y-154749053D01*
X210031033Y-154758787D01*
X209980595Y-154764798D01*
X209944434Y-154766150D01*
X209894856Y-154762448D01*
X209865299Y-154755648D01*
X209831239Y-154720500D01*
X209831105Y-154717057D01*
X209854797Y-154679200D01*
X209900363Y-154658088D01*
X209920010Y-154651112D01*
X209967589Y-154633717D01*
X210015753Y-154614475D01*
X210061716Y-154592936D01*
X210106236Y-154567427D01*
X210146775Y-154537498D01*
X210163520Y-154521907D01*
X210193733Y-154479077D01*
X210209179Y-154431187D01*
X210213101Y-154385864D01*
X210208952Y-154336580D01*
X210194050Y-154287525D01*
X210164329Y-154241608D01*
X210126395Y-154209032D01*
X210078920Y-154183814D01*
X210030618Y-154167659D01*
X209976004Y-154157020D01*
X209924170Y-154152291D01*
X209887037Y-154151391D01*
X209834395Y-154153383D01*
X209781616Y-154159359D01*
X209746353Y-154165557D01*
X209696763Y-154177524D01*
X209650127Y-154192560D01*
X209602013Y-154211555D01*
X209597121Y-154213673D01*
X209674301Y-154402717D01*
X209719302Y-154381765D01*
X209766773Y-154365603D01*
X209783478Y-154361440D01*
X209834219Y-154352464D01*
X209879954Y-154349472D01*
X209929442Y-154353995D01*
X209949319Y-154359974D01*
X209975209Y-154394412D01*
X209959089Y-154422500D01*
X209914797Y-154443284D01*
X209905844Y-154446436D01*
X209859092Y-154463325D01*
X209813480Y-154481169D01*
X209805704Y-154484294D01*
X209759472Y-154502857D01*
X209712052Y-154525464D01*
X209686758Y-154539737D01*
X209647367Y-154569050D01*
X209615439Y-154608369D01*
X209597487Y-154653859D01*
X209591597Y-154702579D01*
X209591503Y-154710218D01*
X209595890Y-154759303D01*
X209610682Y-154808373D01*
X209628628Y-154842110D01*
X209662585Y-154881769D01*
X209704454Y-154911847D01*
X209746353Y-154931991D01*
X209795495Y-154947576D01*
X209845793Y-154957147D01*
X209894914Y-154962216D01*
X209948803Y-154964200D01*
X209956890Y-154964231D01*
G37*
G36*
X209102056Y-154153108D02*
G01*
X209153733Y-154160085D01*
X209201070Y-154172428D01*
X209252143Y-154194324D01*
X209296965Y-154223948D01*
X209335537Y-154261300D01*
X209362767Y-154297501D01*
X209389351Y-154345838D01*
X209409290Y-154399517D01*
X209420828Y-154448328D01*
X209427751Y-154500849D01*
X209430059Y-154557078D01*
X209427512Y-154615283D01*
X209419874Y-154669301D01*
X209407143Y-154719134D01*
X209389320Y-154764780D01*
X209361210Y-154814030D01*
X209325767Y-154857253D01*
X209319149Y-154863834D01*
X209275277Y-154898937D01*
X209224261Y-154926517D01*
X209176290Y-154943755D01*
X209123358Y-154955769D01*
X209065465Y-154962560D01*
X209015579Y-154964231D01*
X208979856Y-154963265D01*
X208928800Y-154958972D01*
X208878558Y-154952019D01*
X208831785Y-154942335D01*
X208781601Y-154926944D01*
X208732745Y-154906590D01*
X208732745Y-154705334D01*
X208757149Y-154718407D01*
X208804950Y-154738345D01*
X208851936Y-154751740D01*
X208875981Y-154756637D01*
X208927785Y-154763772D01*
X208979186Y-154766150D01*
X208990779Y-154766023D01*
X209039713Y-154762312D01*
X209087874Y-154752160D01*
X209133304Y-154733666D01*
X209150786Y-154722651D01*
X209185968Y-154683435D01*
X209200470Y-154635969D01*
X208703436Y-154635969D01*
X208703436Y-154528013D01*
X208704243Y-154496130D01*
X208707390Y-154464022D01*
X208925941Y-154464022D01*
X209196074Y-154464022D01*
X209194817Y-154452888D01*
X209182369Y-154405645D01*
X209156995Y-154363638D01*
X209152663Y-154358758D01*
X209109416Y-154331051D01*
X209059054Y-154323338D01*
X209055307Y-154323375D01*
X209004893Y-154332863D01*
X208963066Y-154361440D01*
X208956681Y-154368816D01*
X208933769Y-154412651D01*
X208925941Y-154464022D01*
X208707390Y-154464022D01*
X208709176Y-154445795D01*
X208721014Y-154390022D01*
X208739309Y-154339298D01*
X208764062Y-154293622D01*
X208795271Y-154252996D01*
X208813140Y-154234838D01*
X208853051Y-154203880D01*
X208898526Y-154180066D01*
X208949565Y-154163397D01*
X209006168Y-154153871D01*
X209057588Y-154151391D01*
X209102056Y-154153108D01*
G37*
G36*
X208128733Y-154964231D02*
G01*
X208181123Y-154962109D01*
X208233055Y-154954650D01*
X208282056Y-154940062D01*
X208303122Y-154930281D01*
X208345712Y-154900045D01*
X208377860Y-154860260D01*
X208393492Y-154828432D01*
X208408510Y-154777918D01*
X208416753Y-154725635D01*
X208419767Y-154673400D01*
X208419870Y-154661126D01*
X208419870Y-154365103D01*
X208613066Y-154365103D01*
X208613066Y-154246646D01*
X208394713Y-154170686D01*
X208356856Y-153995075D01*
X208174895Y-153995075D01*
X208174895Y-154167022D01*
X207907693Y-154167022D01*
X207907693Y-154365103D01*
X208174895Y-154365103D01*
X208174895Y-154624489D01*
X208170874Y-154673656D01*
X208153890Y-154716813D01*
X208115242Y-154748825D01*
X208105041Y-154752228D01*
X208057414Y-154759311D01*
X208008216Y-154756031D01*
X207989514Y-154752961D01*
X207940952Y-154740253D01*
X207904762Y-154728048D01*
X207904762Y-154925152D01*
X207953521Y-154940243D01*
X208003236Y-154952078D01*
X208020289Y-154955194D01*
X208071000Y-154961681D01*
X208121926Y-154964196D01*
X208128733Y-154964231D01*
G37*
G36*
X178253802Y-101015000D02*
G01*
X178253802Y-99998949D01*
X178008827Y-99998949D01*
X178008827Y-100796158D01*
X177602895Y-100796158D01*
X177602895Y-101015000D01*
X178253802Y-101015000D01*
G37*
G36*
X177435589Y-101015000D02*
G01*
X177435589Y-99998949D01*
X176763676Y-99998949D01*
X176763676Y-100217791D01*
X177196231Y-100217791D01*
X177196231Y-100389738D01*
X176781750Y-100389738D01*
X176781750Y-100608579D01*
X177196231Y-100608579D01*
X177196231Y-100796158D01*
X176763676Y-100796158D01*
X176763676Y-101015000D01*
X177435589Y-101015000D01*
G37*
G36*
X176624458Y-101015000D02*
G01*
X176341625Y-101015000D01*
X176297107Y-101013527D01*
X176246251Y-101007871D01*
X176190457Y-100995911D01*
X176138473Y-100978178D01*
X176090299Y-100954672D01*
X176064604Y-100938632D01*
X176023219Y-100906246D01*
X175986392Y-100868367D01*
X175954123Y-100824995D01*
X175926412Y-100776130D01*
X175912788Y-100745733D01*
X175895758Y-100696975D01*
X175882815Y-100644422D01*
X175873959Y-100588073D01*
X175869701Y-100538217D01*
X175868540Y-100495251D01*
X176116189Y-100495251D01*
X176117044Y-100533566D01*
X176121531Y-100586575D01*
X176131629Y-100641646D01*
X176146963Y-100689424D01*
X176170899Y-100735097D01*
X176193393Y-100762904D01*
X176234895Y-100793826D01*
X176285708Y-100811805D01*
X176338694Y-100816919D01*
X176391939Y-100816919D01*
X176391939Y-100197030D01*
X176323307Y-100197030D01*
X176298226Y-100198195D01*
X176242603Y-100211301D01*
X176197094Y-100238967D01*
X176161698Y-100281196D01*
X176140663Y-100325463D01*
X176126100Y-100379050D01*
X176118009Y-100441955D01*
X176116189Y-100495251D01*
X175868540Y-100495251D01*
X175868282Y-100485725D01*
X175870145Y-100428359D01*
X175875732Y-100374473D01*
X175885043Y-100324067D01*
X175901921Y-100265954D01*
X175924618Y-100213280D01*
X175953136Y-100166044D01*
X175987473Y-100124246D01*
X176018721Y-100094879D01*
X176062031Y-100063678D01*
X176110064Y-100038594D01*
X176162819Y-100019628D01*
X176220297Y-100006780D01*
X176269680Y-100000907D01*
X176322085Y-99998949D01*
X176624458Y-99998949D01*
X176624458Y-101015000D01*
G37*
G36*
X199198839Y-143828982D02*
G01*
X199276008Y-143825405D01*
X199347277Y-143815000D01*
X199418106Y-143796497D01*
X199499807Y-143766029D01*
X199499807Y-143530823D01*
X199412984Y-143574387D01*
X199336042Y-143600127D01*
X199259971Y-143614474D01*
X199191817Y-143618995D01*
X199133874Y-143614463D01*
X199095219Y-143602936D01*
X199076113Y-143589213D01*
X199064493Y-143569192D01*
X199060231Y-143540593D01*
X199065733Y-143508633D01*
X199081236Y-143485333D01*
X199105608Y-143466031D01*
X199144922Y-143443323D01*
X199253427Y-143385193D01*
X199325251Y-143340736D01*
X199380128Y-143300502D01*
X199425279Y-143255608D01*
X199456454Y-143206041D01*
X199474881Y-143149092D01*
X199481611Y-143075799D01*
X199476217Y-143011457D01*
X199460988Y-142957362D01*
X199436697Y-142911616D01*
X199403209Y-142872833D01*
X199362556Y-142843786D01*
X199307576Y-142821015D01*
X199234474Y-142805703D01*
X199138633Y-142799987D01*
X199039469Y-142805360D01*
X198956611Y-142820321D01*
X198879438Y-142844018D01*
X198812447Y-142872772D01*
X198889444Y-143067372D01*
X198953672Y-143039681D01*
X199011199Y-143023286D01*
X199067424Y-143014172D01*
X199114819Y-143011379D01*
X199163693Y-143015800D01*
X199198839Y-143027500D01*
X199216306Y-143040944D01*
X199227055Y-143060492D01*
X199231018Y-143088377D01*
X199227306Y-143112167D01*
X199216363Y-143132524D01*
X199197488Y-143150705D01*
X199160370Y-143175205D01*
X199042035Y-143239624D01*
X198980840Y-143273421D01*
X198925836Y-143308928D01*
X198877738Y-143350382D01*
X198840473Y-143399909D01*
X198823242Y-143437200D01*
X198812202Y-143482569D01*
X198808233Y-143537784D01*
X198812803Y-143592862D01*
X198826429Y-143645617D01*
X198850729Y-143694232D01*
X198888711Y-143738735D01*
X198919971Y-143763308D01*
X198959402Y-143785320D01*
X199008451Y-143804497D01*
X199059445Y-143817394D01*
X199122214Y-143825891D01*
X199198839Y-143828982D01*
G37*
G36*
X198687211Y-143815000D02*
G01*
X198737586Y-142815375D01*
X198537429Y-142815375D01*
X198524118Y-143024019D01*
X198515753Y-143152124D01*
X198511539Y-143234007D01*
X198510807Y-143305387D01*
X198511539Y-143448208D01*
X198513615Y-143617590D01*
X198506593Y-143617590D01*
X198498228Y-143539249D01*
X198485650Y-143439110D01*
X198471606Y-143339703D01*
X198460432Y-143261973D01*
X198428191Y-143042215D01*
X198221012Y-143042215D01*
X198192986Y-143263377D01*
X198183949Y-143341840D01*
X198172713Y-143441247D01*
X198160807Y-143540654D01*
X198151037Y-143618995D01*
X198144015Y-143618995D01*
X198145419Y-143437034D01*
X198146824Y-143290000D01*
X198146152Y-143222100D01*
X198144015Y-143159818D01*
X198139802Y-143084225D01*
X198132108Y-142975720D01*
X198121606Y-142815375D01*
X197911618Y-142815375D01*
X197967611Y-143815000D01*
X198265831Y-143815000D01*
X198289584Y-143614781D01*
X198300819Y-143514703D01*
X198314130Y-143395024D01*
X198324633Y-143295617D01*
X198328785Y-143295617D01*
X198337944Y-143395024D01*
X198350522Y-143514703D01*
X198361025Y-143614781D01*
X198380625Y-143815000D01*
X198687211Y-143815000D01*
G37*
G36*
X197738816Y-143815000D02*
G01*
X197383198Y-143025423D01*
X197849397Y-143025423D01*
X197849397Y-142815375D01*
X197121370Y-142815375D01*
X197121370Y-142976392D01*
X197475583Y-143815000D01*
X197738816Y-143815000D01*
G37*
G36*
X211268448Y-143753982D02*
G01*
X211345617Y-143750405D01*
X211416886Y-143740000D01*
X211487715Y-143721497D01*
X211569416Y-143691029D01*
X211569416Y-143455823D01*
X211482593Y-143499387D01*
X211405651Y-143525127D01*
X211329580Y-143539474D01*
X211261426Y-143543995D01*
X211203483Y-143539463D01*
X211164828Y-143527936D01*
X211145722Y-143514213D01*
X211134102Y-143494192D01*
X211129840Y-143465593D01*
X211135342Y-143433633D01*
X211150845Y-143410333D01*
X211175217Y-143391031D01*
X211214531Y-143368323D01*
X211323036Y-143310193D01*
X211394860Y-143265736D01*
X211449737Y-143225502D01*
X211494888Y-143180608D01*
X211526063Y-143131041D01*
X211544490Y-143074092D01*
X211551220Y-143000799D01*
X211545826Y-142936457D01*
X211530597Y-142882362D01*
X211506306Y-142836616D01*
X211472818Y-142797833D01*
X211432165Y-142768786D01*
X211377185Y-142746015D01*
X211304083Y-142730703D01*
X211208242Y-142724987D01*
X211109078Y-142730360D01*
X211026220Y-142745321D01*
X210949047Y-142769018D01*
X210882056Y-142797772D01*
X210959053Y-142992372D01*
X211023281Y-142964681D01*
X211080808Y-142948286D01*
X211137033Y-142939172D01*
X211184428Y-142936379D01*
X211233302Y-142940800D01*
X211268448Y-142952500D01*
X211285915Y-142965944D01*
X211296664Y-142985492D01*
X211300627Y-143013377D01*
X211296915Y-143037167D01*
X211285972Y-143057524D01*
X211267097Y-143075705D01*
X211229979Y-143100205D01*
X211111644Y-143164624D01*
X211050449Y-143198421D01*
X210995445Y-143233928D01*
X210947347Y-143275382D01*
X210910082Y-143324909D01*
X210892851Y-143362200D01*
X210881811Y-143407569D01*
X210877842Y-143462784D01*
X210882412Y-143517862D01*
X210896038Y-143570617D01*
X210920338Y-143619232D01*
X210958320Y-143663735D01*
X210989580Y-143688308D01*
X211029011Y-143710320D01*
X211078060Y-143729497D01*
X211129054Y-143742394D01*
X211191823Y-143750891D01*
X211268448Y-143753982D01*
G37*
G36*
X210756820Y-143740000D02*
G01*
X210807195Y-142740375D01*
X210607038Y-142740375D01*
X210593727Y-142949019D01*
X210585362Y-143077124D01*
X210581148Y-143159007D01*
X210580416Y-143230387D01*
X210581148Y-143373208D01*
X210583224Y-143542590D01*
X210576202Y-143542590D01*
X210567837Y-143464249D01*
X210555259Y-143364110D01*
X210541215Y-143264703D01*
X210530041Y-143186973D01*
X210497800Y-142967215D01*
X210290621Y-142967215D01*
X210262595Y-143188377D01*
X210253558Y-143266840D01*
X210242322Y-143366247D01*
X210230416Y-143465654D01*
X210220646Y-143543995D01*
X210213624Y-143543995D01*
X210215028Y-143362034D01*
X210216433Y-143215000D01*
X210215761Y-143147100D01*
X210213624Y-143084818D01*
X210209411Y-143009225D01*
X210201717Y-142900720D01*
X210191215Y-142740375D01*
X209981227Y-142740375D01*
X210037220Y-143740000D01*
X210335440Y-143740000D01*
X210359193Y-143539781D01*
X210370428Y-143439703D01*
X210383739Y-143320024D01*
X210394242Y-143220617D01*
X210398394Y-143220617D01*
X210407553Y-143320024D01*
X210420131Y-143439703D01*
X210430634Y-143539781D01*
X210450234Y-143740000D01*
X210756820Y-143740000D01*
G37*
G36*
X209616572Y-143752578D02*
G01*
X209680229Y-143749521D01*
X209748891Y-143740000D01*
X209817845Y-143724055D01*
X209888170Y-143700799D01*
X209888170Y-143492215D01*
X209821000Y-143519614D01*
X209750295Y-143540514D01*
X209679836Y-143553930D01*
X209622190Y-143557978D01*
X209570694Y-143553880D01*
X209532525Y-143542950D01*
X209504587Y-143526531D01*
X209482931Y-143503138D01*
X209469937Y-143474929D01*
X209465386Y-143440375D01*
X209470847Y-143406723D01*
X209486391Y-143380901D01*
X209512567Y-143362024D01*
X209559236Y-143346646D01*
X209616255Y-143338646D01*
X209704805Y-143335411D01*
X209760798Y-143335411D01*
X209760798Y-143136598D01*
X209703401Y-143136598D01*
X209616488Y-143132596D01*
X209560103Y-143122659D01*
X209525653Y-143109303D01*
X209498263Y-143087590D01*
X209482236Y-143060011D01*
X209476621Y-143024612D01*
X209480565Y-142990660D01*
X209491067Y-142966842D01*
X209507396Y-142950423D01*
X209541156Y-142935005D01*
X209585798Y-142929419D01*
X209636454Y-142933805D01*
X209691494Y-142947615D01*
X209744875Y-142968216D01*
X209791572Y-142992372D01*
X209890979Y-142822990D01*
X209821765Y-142783267D01*
X209742602Y-142752281D01*
X209657698Y-142733040D01*
X209563388Y-142726392D01*
X209488238Y-142730913D01*
X209426043Y-142743482D01*
X209374688Y-142762959D01*
X209332396Y-142788735D01*
X209296759Y-142822882D01*
X209271281Y-142863702D01*
X209255408Y-142912537D01*
X209249781Y-142971428D01*
X209256438Y-143036734D01*
X209274999Y-143089031D01*
X209304035Y-143134225D01*
X209339418Y-143170242D01*
X209379976Y-143199477D01*
X209421972Y-143222021D01*
X209421972Y-143226174D01*
X209369205Y-143240120D01*
X209321222Y-143261894D01*
X209279603Y-143292660D01*
X209247033Y-143333335D01*
X209232005Y-143364846D01*
X209222433Y-143402858D01*
X209219006Y-143448801D01*
X209224746Y-143506856D01*
X209241529Y-143559166D01*
X209269442Y-143607009D01*
X209306508Y-143648643D01*
X209352512Y-143684303D01*
X209408722Y-143714110D01*
X209469159Y-143734913D01*
X209537990Y-143747989D01*
X209616572Y-143752578D01*
G37*
G36*
X208969207Y-143740000D02*
G01*
X208613589Y-142950423D01*
X209079788Y-142950423D01*
X209079788Y-142740375D01*
X208351761Y-142740375D01*
X208351761Y-142901392D01*
X208705974Y-143740000D01*
X208969207Y-143740000D01*
G37*
D11*
X85290000Y-120720000D02*
X85290000Y-119450000D01*
X89735000Y-119450000D02*
X85290000Y-119450000D01*
X104340000Y-115870000D02*
X104340000Y-114600000D01*
X108785000Y-114600000D02*
X104340000Y-114600000D01*
X66240000Y-103120000D02*
X66240000Y-101850000D01*
X70685000Y-101850000D02*
X66240000Y-101850000D01*
X123390000Y-95420000D02*
X123390000Y-94150000D01*
X127835000Y-94150000D02*
X123390000Y-94150000D01*
X142440000Y-96820000D02*
X142440000Y-95550000D01*
X146885000Y-95550000D02*
X142440000Y-95550000D01*
X104340000Y-96820000D02*
X104340000Y-95550000D01*
X108785000Y-95550000D02*
X104340000Y-95550000D01*
X123390000Y-114470000D02*
X123390000Y-113200000D01*
X127835000Y-113200000D02*
X123390000Y-113200000D01*
X161490000Y-99220000D02*
X161490000Y-97950000D01*
X165935000Y-97950000D02*
X161490000Y-97950000D01*
X180540000Y-146770000D02*
X180540000Y-145500000D01*
X184985000Y-145500000D02*
X180540000Y-145500000D01*
X66240000Y-122170000D02*
X66240000Y-120900000D01*
X70685000Y-120900000D02*
X66240000Y-120900000D01*
X142440000Y-153970000D02*
X142440000Y-152700000D01*
X146885000Y-152700000D02*
X142440000Y-152700000D01*
X66240000Y-141220000D02*
X66240000Y-139950000D01*
X70685000Y-139950000D02*
X66240000Y-139950000D01*
X161490000Y-137320000D02*
X161490000Y-136050000D01*
X165935000Y-136050000D02*
X161490000Y-136050000D01*
X104340000Y-153970000D02*
X104340000Y-152700000D01*
X108785000Y-152700000D02*
X104340000Y-152700000D01*
X142440000Y-134920000D02*
X142440000Y-133650000D01*
X146885000Y-133650000D02*
X142440000Y-133650000D01*
X66240000Y-160270000D02*
X66240000Y-159000000D01*
X70685000Y-159000000D02*
X66240000Y-159000000D01*
X123390000Y-152570000D02*
X123390000Y-151300000D01*
X127835000Y-151300000D02*
X123390000Y-151300000D01*
X85290000Y-139770000D02*
X85290000Y-138500000D01*
X89735000Y-138500000D02*
X85290000Y-138500000D01*
X132940000Y-173020000D02*
X132940000Y-171750000D01*
X137385000Y-171750000D02*
X132940000Y-171750000D01*
X123390000Y-133520000D02*
X123390000Y-132250000D01*
X127835000Y-132250000D02*
X123390000Y-132250000D01*
X174495591Y-182059557D02*
X173395739Y-181424557D01*
X175618239Y-177575074D02*
X173395739Y-181424557D01*
X85290000Y-158820000D02*
X85290000Y-157550000D01*
X89735000Y-157550000D02*
X85290000Y-157550000D01*
X104340000Y-134920000D02*
X104340000Y-133650000D01*
X108785000Y-133650000D02*
X104340000Y-133650000D01*
X113890000Y-173020000D02*
X113890000Y-171750000D01*
X118335000Y-171750000D02*
X113890000Y-171750000D01*
X151990000Y-175420000D02*
X151990000Y-174150000D01*
X156435000Y-174150000D02*
X151990000Y-174150000D01*
X161490000Y-156370000D02*
X161490000Y-155100000D01*
X165935000Y-155100000D02*
X161490000Y-155100000D01*
X142440000Y-115870000D02*
X142440000Y-114600000D01*
X146885000Y-114600000D02*
X142440000Y-114600000D01*
X161490000Y-118270000D02*
X161490000Y-117000000D01*
X165935000Y-117000000D02*
X161490000Y-117000000D01*
X85290000Y-101670000D02*
X85290000Y-100400000D01*
X89735000Y-100400000D02*
X85290000Y-100400000D01*
X220096000Y-146770000D02*
X220096000Y-145500000D01*
X224541000Y-145500000D02*
X220096000Y-145500000D01*
X267696000Y-173020000D02*
X267696000Y-171750000D01*
X272141000Y-171750000D02*
X267696000Y-171750000D01*
X229950409Y-175460443D02*
X231050261Y-174825443D01*
X233272761Y-178674926D02*
X231050261Y-174825443D01*
X248646000Y-175420000D02*
X248646000Y-174150000D01*
X253091000Y-174150000D02*
X248646000Y-174150000D01*
X315346000Y-158820000D02*
X315346000Y-157550000D01*
X319791000Y-157550000D02*
X315346000Y-157550000D01*
X334396000Y-160270000D02*
X334396000Y-159000000D01*
X338841000Y-159000000D02*
X334396000Y-159000000D01*
X315346000Y-120720000D02*
X315346000Y-119450000D01*
X319791000Y-119450000D02*
X315346000Y-119450000D01*
X296296000Y-134920000D02*
X296296000Y-133650000D01*
X300741000Y-133650000D02*
X296296000Y-133650000D01*
X258196000Y-153970000D02*
X258196000Y-152700000D01*
X262641000Y-152700000D02*
X258196000Y-152700000D01*
X286746000Y-173020000D02*
X286746000Y-171750000D01*
X291191000Y-171750000D02*
X286746000Y-171750000D01*
X296296000Y-153970000D02*
X296296000Y-152700000D01*
X300741000Y-152700000D02*
X296296000Y-152700000D01*
X315346000Y-139770000D02*
X315346000Y-138500000D01*
X319791000Y-138500000D02*
X315346000Y-138500000D01*
X334396000Y-141220000D02*
X334396000Y-139950000D01*
X338841000Y-139950000D02*
X334396000Y-139950000D01*
X239146000Y-156370000D02*
X239146000Y-155100000D01*
X243591000Y-155100000D02*
X239146000Y-155100000D01*
X277246000Y-152570000D02*
X277246000Y-151300000D01*
X281691000Y-151300000D02*
X277246000Y-151300000D01*
X315346000Y-101670000D02*
X315346000Y-100400000D01*
X319791000Y-100400000D02*
X315346000Y-100400000D01*
X334396000Y-103120000D02*
X334396000Y-101850000D01*
X338841000Y-101850000D02*
X334396000Y-101850000D01*
X334396000Y-122170000D02*
X334396000Y-120900000D01*
X338841000Y-120900000D02*
X334396000Y-120900000D01*
X258196000Y-134920000D02*
X258196000Y-133650000D01*
X262641000Y-133650000D02*
X258196000Y-133650000D01*
X239146000Y-118270000D02*
X239146000Y-117000000D01*
X243591000Y-117000000D02*
X239146000Y-117000000D01*
X239146000Y-99220000D02*
X239146000Y-97950000D01*
X243591000Y-97950000D02*
X239146000Y-97950000D01*
X296296000Y-115870000D02*
X296296000Y-114600000D01*
X300741000Y-114600000D02*
X296296000Y-114600000D01*
X258196000Y-96820000D02*
X258196000Y-95550000D01*
X262641000Y-95550000D02*
X258196000Y-95550000D01*
X277246000Y-95420000D02*
X277246000Y-94150000D01*
X281691000Y-94150000D02*
X277246000Y-94150000D01*
X296296000Y-96820000D02*
X296296000Y-95550000D01*
X300741000Y-95550000D02*
X296296000Y-95550000D01*
X239146000Y-137320000D02*
X239146000Y-136050000D01*
X243591000Y-136050000D02*
X239146000Y-136050000D01*
X258196000Y-115870000D02*
X258196000Y-114600000D01*
X262641000Y-114600000D02*
X258196000Y-114600000D01*
X277246000Y-114470000D02*
X277246000Y-113200000D01*
X281691000Y-113200000D02*
X277246000Y-113200000D01*
X277246000Y-133520000D02*
X277246000Y-132250000D01*
X281691000Y-132250000D02*
X277246000Y-132250000D01*
D12*
X231500000Y-96900000D02*
X233500000Y-96900000D01*
X231500000Y-99700000D02*
X231500000Y-96900000D01*
X233500000Y-96900000D02*
X233500000Y-99700000D01*
X233500000Y-99700000D02*
X231500000Y-99700000D01*
X209100000Y-121300000D02*
X211900000Y-121300000D01*
X209100000Y-123300000D02*
X209100000Y-121300000D01*
X211900000Y-121300000D02*
X211900000Y-123300000D01*
X211900000Y-123300000D02*
X209100000Y-123300000D01*
X176150000Y-101300000D02*
X178150000Y-101300000D01*
X176150000Y-104100000D02*
X176150000Y-101300000D01*
X178150000Y-101300000D02*
X178150000Y-104100000D01*
X178150000Y-104100000D02*
X176150000Y-104100000D01*
X196450000Y-145740000D02*
X200150000Y-145740000D01*
X196450000Y-151860000D02*
X196450000Y-145740000D01*
X200150000Y-145740000D02*
X200150000Y-151860000D01*
X200150000Y-151860000D02*
X196450000Y-151860000D01*
X208106000Y-145740000D02*
X211806000Y-145740000D01*
X208106000Y-151860000D02*
X208106000Y-145740000D01*
X211806000Y-145740000D02*
X211806000Y-151860000D01*
X211806000Y-151860000D02*
X208106000Y-151860000D01*
X175850000Y-124575000D02*
X178650000Y-124575000D01*
X175850000Y-126575000D02*
X175850000Y-124575000D01*
X178650000Y-124575000D02*
X178650000Y-126575000D01*
X178650000Y-126575000D02*
X175850000Y-126575000D01*
%LPC*%
D13*
X80000000Y-116150000D03*
X227056000Y-166950000D03*
D14*
X177300000Y-138800000D03*
D15*
X198969478Y-93080008D03*
X198969478Y-100080008D03*
D16*
X201269478Y-97680008D03*
X201269478Y-94680008D03*
X196669478Y-102780008D03*
X201269478Y-101680008D03*
D13*
X181200000Y-166950000D03*
D15*
X209286860Y-93080008D03*
X209286860Y-100080008D03*
D16*
X211586860Y-97680008D03*
X211586860Y-94680008D03*
X206986860Y-102780008D03*
X211586860Y-101680008D03*
D17*
X122414800Y-91287600D03*
X121614800Y-91287600D03*
X120814800Y-91287600D03*
X120014800Y-91287600D03*
X119214800Y-91287600D03*
X118414800Y-91287600D03*
D13*
X155800000Y-150450000D03*
X328256000Y-116150000D03*
X80000000Y-154150000D03*
D17*
X180987600Y-91287600D03*
X180187600Y-91287600D03*
X179387600Y-91287600D03*
X178587600Y-91287600D03*
X177787600Y-91287600D03*
X176987600Y-91287600D03*
D13*
X252456000Y-150450000D03*
D18*
X191190000Y-96400000D03*
X185410000Y-96400000D03*
D19*
X192620000Y-96930000D03*
D20*
X192620000Y-92750000D03*
D19*
X183980000Y-96930000D03*
D20*
X183980000Y-92750000D03*
D14*
X230956000Y-138800000D03*
D17*
X250926800Y-189992000D03*
X251726800Y-189992000D03*
X252526800Y-189992000D03*
X253326800Y-189992000D03*
X254126800Y-189992000D03*
X254926800Y-189992000D03*
D13*
X252456000Y-112450000D03*
D21*
X223766000Y-133800000D03*
D22*
X221226000Y-133800000D03*
X218686000Y-133800000D03*
X216146000Y-133800000D03*
D17*
X289813600Y-91287600D03*
X289013600Y-91287600D03*
X288213600Y-91287600D03*
X287413600Y-91287600D03*
X286613600Y-91287600D03*
X285813600Y-91287600D03*
D18*
X222846000Y-96400000D03*
X217066000Y-96400000D03*
D19*
X224276000Y-96930000D03*
D20*
X224276000Y-92750000D03*
D19*
X215636000Y-96930000D03*
D20*
X215636000Y-92750000D03*
D14*
X208956000Y-138800000D03*
D17*
X67831200Y-175260000D03*
X68631200Y-175260000D03*
X69431200Y-175260000D03*
X70231200Y-175260000D03*
X71031200Y-175260000D03*
X71831200Y-175260000D03*
D13*
X155800000Y-112450000D03*
D17*
X336639200Y-175260000D03*
X337439200Y-175260000D03*
X338239200Y-175260000D03*
X339039200Y-175260000D03*
X339839200Y-175260000D03*
X340639200Y-175260000D03*
X153518000Y-189992000D03*
X154318000Y-189992000D03*
X155118000Y-189992000D03*
X155918000Y-189992000D03*
X156718000Y-189992000D03*
X157518000Y-189992000D03*
D13*
X328256000Y-154150000D03*
D14*
X199300000Y-138800000D03*
D21*
X192110000Y-133800000D03*
D22*
X189570000Y-133800000D03*
X187030000Y-133800000D03*
X184490000Y-133800000D03*
D17*
X231616000Y-91288400D03*
X230816000Y-91288400D03*
X230016000Y-91288400D03*
X229216000Y-91288400D03*
X228416000Y-91288400D03*
X227616000Y-91288400D03*
D23*
X94180000Y-125800000D03*
D24*
X91640000Y-120720000D03*
D25*
X89100000Y-125800000D03*
D24*
X85290000Y-123260000D03*
D23*
X84020000Y-125800000D03*
D26*
X81480000Y-123260000D03*
X95450000Y-120720000D03*
D23*
X113230000Y-120950000D03*
D24*
X110690000Y-115870000D03*
D25*
X108150000Y-120950000D03*
D24*
X104340000Y-118410000D03*
D23*
X103070000Y-120950000D03*
D26*
X100530000Y-118410000D03*
X114500000Y-115870000D03*
D23*
X75130000Y-108200000D03*
D24*
X72590000Y-103120000D03*
D25*
X70050000Y-108200000D03*
D24*
X66240000Y-105660000D03*
D23*
X64970000Y-108200000D03*
D26*
X62430000Y-105660000D03*
X76400000Y-103120000D03*
D23*
X132280000Y-100500000D03*
D24*
X129740000Y-95420000D03*
D25*
X127200000Y-100500000D03*
D24*
X123390000Y-97960000D03*
D23*
X122120000Y-100500000D03*
D26*
X119580000Y-97960000D03*
X133550000Y-95420000D03*
D23*
X151330000Y-101900000D03*
D24*
X148790000Y-96820000D03*
D25*
X146250000Y-101900000D03*
D24*
X142440000Y-99360000D03*
D23*
X141170000Y-101900000D03*
D26*
X138630000Y-99360000D03*
X152600000Y-96820000D03*
D23*
X113230000Y-101900000D03*
D24*
X110690000Y-96820000D03*
D25*
X108150000Y-101900000D03*
D24*
X104340000Y-99360000D03*
D23*
X103070000Y-101900000D03*
D26*
X100530000Y-99360000D03*
X114500000Y-96820000D03*
D23*
X132280000Y-119550000D03*
D24*
X129740000Y-114470000D03*
D25*
X127200000Y-119550000D03*
D24*
X123390000Y-117010000D03*
D23*
X122120000Y-119550000D03*
D26*
X119580000Y-117010000D03*
X133550000Y-114470000D03*
D23*
X170380000Y-104300000D03*
D24*
X167840000Y-99220000D03*
D25*
X165300000Y-104300000D03*
D24*
X161490000Y-101760000D03*
D23*
X160220000Y-104300000D03*
D26*
X157680000Y-101760000D03*
X171650000Y-99220000D03*
D23*
X189430000Y-151850000D03*
D24*
X186890000Y-146770000D03*
D25*
X184350000Y-151850000D03*
D24*
X180540000Y-149310000D03*
D23*
X179270000Y-151850000D03*
D26*
X176730000Y-149310000D03*
X190700000Y-146770000D03*
D23*
X75130000Y-127250000D03*
D24*
X72590000Y-122170000D03*
D25*
X70050000Y-127250000D03*
D24*
X66240000Y-124710000D03*
D23*
X64970000Y-127250000D03*
D26*
X62430000Y-124710000D03*
X76400000Y-122170000D03*
D23*
X151330000Y-159050000D03*
D24*
X148790000Y-153970000D03*
D25*
X146250000Y-159050000D03*
D24*
X142440000Y-156510000D03*
D23*
X141170000Y-159050000D03*
D26*
X138630000Y-156510000D03*
X152600000Y-153970000D03*
D23*
X75130000Y-146300000D03*
D24*
X72590000Y-141220000D03*
D25*
X70050000Y-146300000D03*
D24*
X66240000Y-143760000D03*
D23*
X64970000Y-146300000D03*
D26*
X62430000Y-143760000D03*
X76400000Y-141220000D03*
D23*
X170380000Y-142400000D03*
D24*
X167840000Y-137320000D03*
D25*
X165300000Y-142400000D03*
D24*
X161490000Y-139860000D03*
D23*
X160220000Y-142400000D03*
D26*
X157680000Y-139860000D03*
X171650000Y-137320000D03*
D23*
X113230000Y-159050000D03*
D24*
X110690000Y-153970000D03*
D25*
X108150000Y-159050000D03*
D24*
X104340000Y-156510000D03*
D23*
X103070000Y-159050000D03*
D26*
X100530000Y-156510000D03*
X114500000Y-153970000D03*
D23*
X151330000Y-140000000D03*
D24*
X148790000Y-134920000D03*
D25*
X146250000Y-140000000D03*
D24*
X142440000Y-137460000D03*
D23*
X141170000Y-140000000D03*
D26*
X138630000Y-137460000D03*
X152600000Y-134920000D03*
D23*
X75130000Y-165350000D03*
D24*
X72590000Y-160270000D03*
D25*
X70050000Y-165350000D03*
D24*
X66240000Y-162810000D03*
D23*
X64970000Y-165350000D03*
D26*
X62430000Y-162810000D03*
X76400000Y-160270000D03*
D23*
X132280000Y-157650000D03*
D24*
X129740000Y-152570000D03*
D25*
X127200000Y-157650000D03*
D24*
X123390000Y-155110000D03*
D23*
X122120000Y-157650000D03*
D26*
X119580000Y-155110000D03*
X133550000Y-152570000D03*
D23*
X94180000Y-144850000D03*
D24*
X91640000Y-139770000D03*
D25*
X89100000Y-144850000D03*
D24*
X85290000Y-142310000D03*
D23*
X84020000Y-144850000D03*
D26*
X81480000Y-142310000D03*
X95450000Y-139770000D03*
D23*
X141830000Y-178100000D03*
D24*
X139290000Y-173020000D03*
D25*
X136750000Y-178100000D03*
D24*
X132940000Y-175560000D03*
D23*
X131670000Y-178100000D03*
D26*
X129130000Y-175560000D03*
X143100000Y-173020000D03*
D23*
X132280000Y-138600000D03*
D24*
X129740000Y-133520000D03*
D25*
X127200000Y-138600000D03*
D24*
X123390000Y-136060000D03*
D23*
X122120000Y-138600000D03*
D26*
X119580000Y-136060000D03*
X133550000Y-133520000D03*
D23*
X183340000Y-176900591D03*
D24*
X177670591Y-176560295D03*
D25*
X180800000Y-181300000D03*
D24*
X176695295Y-183329556D03*
D23*
X178260000Y-185699409D03*
D27*
X174790295Y-186629113D03*
X179575591Y-173260739D03*
D23*
X94180000Y-163900000D03*
D24*
X91640000Y-158820000D03*
D25*
X89100000Y-163900000D03*
D24*
X85290000Y-161360000D03*
D23*
X84020000Y-163900000D03*
D26*
X81480000Y-161360000D03*
X95450000Y-158820000D03*
D23*
X113230000Y-140000000D03*
D24*
X110690000Y-134920000D03*
D25*
X108150000Y-140000000D03*
D24*
X104340000Y-137460000D03*
D23*
X103070000Y-140000000D03*
D26*
X100530000Y-137460000D03*
X114500000Y-134920000D03*
D23*
X122780000Y-178100000D03*
D24*
X120240000Y-173020000D03*
D25*
X117700000Y-178100000D03*
D24*
X113890000Y-175560000D03*
D23*
X112620000Y-178100000D03*
D26*
X110080000Y-175560000D03*
X124050000Y-173020000D03*
D23*
X160880000Y-180500000D03*
D24*
X158340000Y-175420000D03*
D25*
X155800000Y-180500000D03*
D24*
X151990000Y-177960000D03*
D23*
X150720000Y-180500000D03*
D26*
X148180000Y-177960000D03*
X162150000Y-175420000D03*
D23*
X170380000Y-161450000D03*
D24*
X167840000Y-156370000D03*
D25*
X165300000Y-161450000D03*
D24*
X161490000Y-158910000D03*
D23*
X160220000Y-161450000D03*
D26*
X157680000Y-158910000D03*
X171650000Y-156370000D03*
D23*
X151330000Y-120950000D03*
D24*
X148790000Y-115870000D03*
D25*
X146250000Y-120950000D03*
D24*
X142440000Y-118410000D03*
D23*
X141170000Y-120950000D03*
D26*
X138630000Y-118410000D03*
X152600000Y-115870000D03*
D23*
X170380000Y-123350000D03*
D24*
X167840000Y-118270000D03*
D25*
X165300000Y-123350000D03*
D24*
X161490000Y-120810000D03*
D23*
X160220000Y-123350000D03*
D26*
X157680000Y-120810000D03*
X171650000Y-118270000D03*
D23*
X94180000Y-106750000D03*
D24*
X91640000Y-101670000D03*
D25*
X89100000Y-106750000D03*
D24*
X85290000Y-104210000D03*
D23*
X84020000Y-106750000D03*
D26*
X81480000Y-104210000D03*
X95450000Y-101670000D03*
D23*
X228986000Y-151850000D03*
D24*
X226446000Y-146770000D03*
D25*
X223906000Y-151850000D03*
D24*
X220096000Y-149310000D03*
D23*
X218826000Y-151850000D03*
D26*
X216286000Y-149310000D03*
X230256000Y-146770000D03*
D23*
X276586000Y-178100000D03*
D24*
X274046000Y-173020000D03*
D25*
X271506000Y-178100000D03*
D24*
X267696000Y-175560000D03*
D23*
X266426000Y-178100000D03*
D26*
X263886000Y-175560000D03*
X277856000Y-173020000D03*
D23*
X229996000Y-185699409D03*
D24*
X233125409Y-180959705D03*
D25*
X227456000Y-181300000D03*
D24*
X227750705Y-176730443D03*
D23*
X224916000Y-176900591D03*
D28*
X225845704Y-173430886D03*
X235030409Y-184259261D03*
D23*
X257536000Y-180500000D03*
D24*
X254996000Y-175420000D03*
D25*
X252456000Y-180500000D03*
D24*
X248646000Y-177960000D03*
D23*
X247376000Y-180500000D03*
D26*
X244836000Y-177960000D03*
X258806000Y-175420000D03*
D23*
X324236000Y-163900000D03*
D24*
X321696000Y-158820000D03*
D25*
X319156000Y-163900000D03*
D24*
X315346000Y-161360000D03*
D23*
X314076000Y-163900000D03*
D26*
X311536000Y-161360000D03*
X325506000Y-158820000D03*
D23*
X343286000Y-165350000D03*
D24*
X340746000Y-160270000D03*
D25*
X338206000Y-165350000D03*
D24*
X334396000Y-162810000D03*
D23*
X333126000Y-165350000D03*
D26*
X330586000Y-162810000D03*
X344556000Y-160270000D03*
D23*
X324236000Y-125800000D03*
D24*
X321696000Y-120720000D03*
D25*
X319156000Y-125800000D03*
D24*
X315346000Y-123260000D03*
D23*
X314076000Y-125800000D03*
D26*
X311536000Y-123260000D03*
X325506000Y-120720000D03*
D23*
X305186000Y-140000000D03*
D24*
X302646000Y-134920000D03*
D25*
X300106000Y-140000000D03*
D24*
X296296000Y-137460000D03*
D23*
X295026000Y-140000000D03*
D26*
X292486000Y-137460000D03*
X306456000Y-134920000D03*
D23*
X267086000Y-159050000D03*
D24*
X264546000Y-153970000D03*
D25*
X262006000Y-159050000D03*
D24*
X258196000Y-156510000D03*
D23*
X256926000Y-159050000D03*
D26*
X254386000Y-156510000D03*
X268356000Y-153970000D03*
D23*
X295636000Y-178100000D03*
D24*
X293096000Y-173020000D03*
D25*
X290556000Y-178100000D03*
D24*
X286746000Y-175560000D03*
D23*
X285476000Y-178100000D03*
D26*
X282936000Y-175560000D03*
X296906000Y-173020000D03*
D23*
X305186000Y-159050000D03*
D24*
X302646000Y-153970000D03*
D25*
X300106000Y-159050000D03*
D24*
X296296000Y-156510000D03*
D23*
X295026000Y-159050000D03*
D26*
X292486000Y-156510000D03*
X306456000Y-153970000D03*
D23*
X324236000Y-144850000D03*
D24*
X321696000Y-139770000D03*
D25*
X319156000Y-144850000D03*
D24*
X315346000Y-142310000D03*
D23*
X314076000Y-144850000D03*
D26*
X311536000Y-142310000D03*
X325506000Y-139770000D03*
D23*
X343286000Y-146300000D03*
D24*
X340746000Y-141220000D03*
D25*
X338206000Y-146300000D03*
D24*
X334396000Y-143760000D03*
D23*
X333126000Y-146300000D03*
D26*
X330586000Y-143760000D03*
X344556000Y-141220000D03*
D23*
X248036000Y-161450000D03*
D24*
X245496000Y-156370000D03*
D25*
X242956000Y-161450000D03*
D24*
X239146000Y-158910000D03*
D23*
X237876000Y-161450000D03*
D26*
X235336000Y-158910000D03*
X249306000Y-156370000D03*
D23*
X286136000Y-157650000D03*
D24*
X283596000Y-152570000D03*
D25*
X281056000Y-157650000D03*
D24*
X277246000Y-155110000D03*
D23*
X275976000Y-157650000D03*
D26*
X273436000Y-155110000D03*
X287406000Y-152570000D03*
D23*
X324236000Y-106750000D03*
D24*
X321696000Y-101670000D03*
D25*
X319156000Y-106750000D03*
D24*
X315346000Y-104210000D03*
D23*
X314076000Y-106750000D03*
D26*
X311536000Y-104210000D03*
X325506000Y-101670000D03*
D23*
X343286000Y-108200000D03*
D24*
X340746000Y-103120000D03*
D25*
X338206000Y-108200000D03*
D24*
X334396000Y-105660000D03*
D23*
X333126000Y-108200000D03*
D26*
X330586000Y-105660000D03*
X344556000Y-103120000D03*
D23*
X343286000Y-127250000D03*
D24*
X340746000Y-122170000D03*
D25*
X338206000Y-127250000D03*
D24*
X334396000Y-124710000D03*
D23*
X333126000Y-127250000D03*
D26*
X330586000Y-124710000D03*
X344556000Y-122170000D03*
D23*
X267086000Y-140000000D03*
D24*
X264546000Y-134920000D03*
D25*
X262006000Y-140000000D03*
D24*
X258196000Y-137460000D03*
D23*
X256926000Y-140000000D03*
D26*
X254386000Y-137460000D03*
X268356000Y-134920000D03*
D23*
X248036000Y-123350000D03*
D24*
X245496000Y-118270000D03*
D25*
X242956000Y-123350000D03*
D24*
X239146000Y-120810000D03*
D23*
X237876000Y-123350000D03*
D26*
X235336000Y-120810000D03*
X249306000Y-118270000D03*
D23*
X248036000Y-104300000D03*
D24*
X245496000Y-99220000D03*
D25*
X242956000Y-104300000D03*
D24*
X239146000Y-101760000D03*
D23*
X237876000Y-104300000D03*
D26*
X235336000Y-101760000D03*
X249306000Y-99220000D03*
D23*
X305186000Y-120950000D03*
D24*
X302646000Y-115870000D03*
D25*
X300106000Y-120950000D03*
D24*
X296296000Y-118410000D03*
D23*
X295026000Y-120950000D03*
D26*
X292486000Y-118410000D03*
X306456000Y-115870000D03*
D23*
X267086000Y-101900000D03*
D24*
X264546000Y-96820000D03*
D25*
X262006000Y-101900000D03*
D24*
X258196000Y-99360000D03*
D23*
X256926000Y-101900000D03*
D26*
X254386000Y-99360000D03*
X268356000Y-96820000D03*
D23*
X286136000Y-100500000D03*
D24*
X283596000Y-95420000D03*
D25*
X281056000Y-100500000D03*
D24*
X277246000Y-97960000D03*
D23*
X275976000Y-100500000D03*
D26*
X273436000Y-97960000D03*
X287406000Y-95420000D03*
D23*
X305186000Y-101900000D03*
D24*
X302646000Y-96820000D03*
D25*
X300106000Y-101900000D03*
D24*
X296296000Y-99360000D03*
D23*
X295026000Y-101900000D03*
D26*
X292486000Y-99360000D03*
X306456000Y-96820000D03*
D23*
X248036000Y-142400000D03*
D24*
X245496000Y-137320000D03*
D25*
X242956000Y-142400000D03*
D24*
X239146000Y-139860000D03*
D23*
X237876000Y-142400000D03*
D26*
X235336000Y-139860000D03*
X249306000Y-137320000D03*
D23*
X267086000Y-120950000D03*
D24*
X264546000Y-115870000D03*
D25*
X262006000Y-120950000D03*
D24*
X258196000Y-118410000D03*
D23*
X256926000Y-120950000D03*
D26*
X254386000Y-118410000D03*
X268356000Y-115870000D03*
D23*
X286136000Y-119550000D03*
D24*
X283596000Y-114470000D03*
D25*
X281056000Y-119550000D03*
D24*
X277246000Y-117010000D03*
D23*
X275976000Y-119550000D03*
D26*
X273436000Y-117010000D03*
X287406000Y-114470000D03*
D23*
X286136000Y-138600000D03*
D24*
X283596000Y-133520000D03*
D25*
X281056000Y-138600000D03*
D24*
X277246000Y-136060000D03*
D23*
X275976000Y-138600000D03*
D26*
X273436000Y-136060000D03*
X287406000Y-133520000D03*
D29*
X232500000Y-98950000D03*
X232500000Y-97650000D03*
D30*
X218480000Y-113150000D03*
X221020000Y-113150000D03*
X223560000Y-113150000D03*
X226100000Y-113150000D03*
D31*
X211150000Y-122300000D03*
X209850000Y-122300000D03*
D30*
X186820000Y-114400000D03*
X189360000Y-114400000D03*
X191900000Y-114400000D03*
X194440000Y-114400000D03*
D29*
X177150000Y-103350000D03*
X177150000Y-102050000D03*
D32*
X198300000Y-152700000D03*
X198300000Y-144900000D03*
X209956000Y-152700000D03*
X209956000Y-144900000D03*
D31*
X176600000Y-125575000D03*
X177900000Y-125575000D03*
D15*
X197459600Y-94589600D03*
D17*
X175615600Y-117348000D03*
D15*
X178816000Y-116535200D03*
D17*
X197231000Y-163449000D03*
X198500000Y-113650000D03*
D15*
X199200000Y-108648000D03*
D17*
X64109600Y-135686800D03*
X198312500Y-120787500D03*
X192125600Y-119735600D03*
D15*
X180644800Y-119024400D03*
X187452000Y-107188000D03*
D17*
X188417200Y-92481400D03*
X172720000Y-151180800D03*
X178206400Y-193192400D03*
X169418000Y-144526000D03*
X187502800Y-164642800D03*
X186385200Y-126034800D03*
X170180000Y-133654800D03*
D15*
X185100000Y-106650000D03*
D17*
X172516800Y-112547400D03*
X168300400Y-125323600D03*
X89560400Y-95148400D03*
X184979000Y-124002800D03*
X133096000Y-188671200D03*
X190906400Y-123952000D03*
X147523200Y-110845600D03*
X109880400Y-110845600D03*
X109677200Y-130606800D03*
D15*
X145542000Y-143865600D03*
X186400000Y-101200000D03*
D17*
X177925000Y-120150000D03*
X150012400Y-130149600D03*
X174375000Y-127050000D03*
X194005200Y-105359200D03*
X174350000Y-102950000D03*
X184150000Y-107300000D03*
X196494400Y-111353600D03*
D15*
X104140000Y-144475200D03*
D17*
X192000000Y-127100000D03*
D15*
X126847600Y-149758400D03*
D17*
X104698800Y-170688000D03*
X200710800Y-134112000D03*
X187960000Y-119278400D03*
X63804800Y-171704000D03*
X201750000Y-121800000D03*
X178511200Y-128320800D03*
X192278000Y-116332000D03*
X186537600Y-128727200D03*
X168503600Y-129184400D03*
X201275000Y-113385600D03*
X187960000Y-116128800D03*
X180492400Y-122936000D03*
D15*
X181350000Y-105200000D03*
D17*
X127050800Y-92456000D03*
X168605200Y-93319600D03*
X151536400Y-150672800D03*
D15*
X131064000Y-124714000D03*
D17*
X167700000Y-167050000D03*
X195681600Y-125526800D03*
D15*
X90373200Y-131622800D03*
D17*
X169062400Y-106070400D03*
X145491200Y-167843200D03*
X179850000Y-93700000D03*
X231075000Y-97650000D03*
X183074000Y-128905000D03*
X199400000Y-144900000D03*
X177150000Y-99450000D03*
X200175000Y-103750000D03*
X200000000Y-100600000D03*
X198000000Y-99900000D03*
X198250000Y-103750000D03*
X188350000Y-113500000D03*
X190804800Y-113893600D03*
X193357955Y-121065918D03*
X195834000Y-122377200D03*
X221625000Y-99225000D03*
X223156000Y-99225000D03*
X177749200Y-123675000D03*
X186334400Y-117000000D03*
X182168800Y-116450000D03*
X215036400Y-116941600D03*
X212394800Y-118262400D03*
X76450000Y-105000000D03*
X181135711Y-110125000D03*
X189344000Y-109664634D03*
X181866279Y-109775000D03*
X189700716Y-108948562D03*
X95500000Y-103500000D03*
X190239205Y-108356925D03*
X182612638Y-109425000D03*
X114500000Y-98650000D03*
X183349429Y-109075278D03*
X190550000Y-107400000D03*
X133550000Y-97350000D03*
X184068671Y-108725000D03*
X191150000Y-106800000D03*
X152650000Y-98800000D03*
X191507772Y-106084456D03*
X171650000Y-101050000D03*
X185572400Y-108150000D03*
X199600000Y-115450000D03*
X193338040Y-112489840D03*
X76450000Y-123900000D03*
X183235600Y-114025000D03*
X190195200Y-112776000D03*
X95450000Y-118950000D03*
X194027039Y-108933513D03*
X182770225Y-112875000D03*
X194700000Y-109650000D03*
X114500000Y-117650000D03*
X182214011Y-113450000D03*
X133550000Y-116200000D03*
X183489600Y-112525000D03*
X193344000Y-109350000D03*
D15*
X186500000Y-104800000D03*
X188454648Y-104271929D03*
X220100000Y-104250000D03*
X218366305Y-96125000D03*
X222300000Y-104675000D03*
D17*
X184550000Y-111500000D03*
X152600000Y-117650000D03*
X192844000Y-108550000D03*
X183550000Y-111100000D03*
X171650000Y-116300000D03*
X192344000Y-107700000D03*
X198476053Y-118786012D03*
X76400000Y-143050000D03*
X201220685Y-119084063D03*
X200838683Y-118381156D03*
X198625000Y-118000000D03*
X95450000Y-141450000D03*
X198051167Y-117378429D03*
X114500000Y-136700000D03*
X200516992Y-117648681D03*
X198625000Y-116816133D03*
X133550000Y-135300000D03*
X200145905Y-116939950D03*
X152600000Y-136500000D03*
X198268413Y-116100000D03*
X199775000Y-116231125D03*
X171650000Y-139050000D03*
X76454000Y-158496000D03*
X148132800Y-147825000D03*
X153670000Y-140462000D03*
X154200785Y-141151998D03*
X95504000Y-156845000D03*
X148691600Y-148437600D03*
X114554000Y-152273000D03*
X148107400Y-149047200D03*
X153570998Y-141726998D03*
X133604000Y-150876000D03*
X194758000Y-119989413D03*
X154051000Y-142367000D03*
X197485000Y-122809000D03*
X148656959Y-149628568D03*
X154619000Y-142996998D03*
X197358000Y-121860000D03*
X194831025Y-119112975D03*
X153350000Y-148175000D03*
X171577000Y-154432000D03*
X155194000Y-143637000D03*
X183515000Y-129755000D03*
X124079000Y-170942000D03*
X191135000Y-141732000D03*
X192024000Y-142367000D03*
X143129000Y-171069000D03*
X184404000Y-129755000D03*
X162179000Y-173482000D03*
X182499000Y-129755000D03*
X187706000Y-172720000D03*
X181610000Y-129755000D03*
X180721000Y-129667000D03*
X249809000Y-101092000D03*
D15*
X180850000Y-121100000D03*
D17*
X177350000Y-110575000D03*
X185216800Y-125272800D03*
X179984400Y-135839200D03*
X194767200Y-113284000D03*
X182168800Y-125069600D03*
X178800000Y-103350000D03*
X198625000Y-119657821D03*
D15*
X177350000Y-107200000D03*
D17*
X269113000Y-98679000D03*
D15*
X230632000Y-119700000D03*
D17*
X225600000Y-130079000D03*
D15*
X230886000Y-124968000D03*
X217525600Y-111125000D03*
X229489000Y-106172000D03*
X229489000Y-111236000D03*
X212747202Y-113752798D03*
D17*
X232500000Y-99850000D03*
X214900000Y-126100000D03*
X214200000Y-121800000D03*
X287909000Y-97155000D03*
X307213000Y-98679000D03*
X326644000Y-103505000D03*
X191531000Y-99183132D03*
X190000000Y-99183132D03*
X345313000Y-104775000D03*
X249301000Y-116459000D03*
X256006600Y-111252000D03*
X248564400Y-110786000D03*
X268478000Y-114046000D03*
X249301000Y-110436000D03*
X255447800Y-110642400D03*
X287401000Y-112649000D03*
X250063000Y-110086000D03*
X306451000Y-114046000D03*
X254863600Y-110086000D03*
X325501000Y-118491000D03*
X344551000Y-120015000D03*
X249301000Y-135001000D03*
X268605000Y-132715000D03*
X287528000Y-131318000D03*
X306451000Y-132842000D03*
X325501000Y-137033000D03*
X344551000Y-138938000D03*
X249301000Y-154432000D03*
X210375000Y-100450000D03*
X210400000Y-103550000D03*
X268351000Y-152019000D03*
X287401000Y-150749000D03*
X306451000Y-152019000D03*
X324993000Y-155956000D03*
X344678000Y-157607000D03*
X230124000Y-143256000D03*
X229743000Y-188468000D03*
X216027000Y-131445000D03*
X258826000Y-173101000D03*
X217816733Y-119063094D03*
X218694000Y-118999000D03*
X216662000Y-130937000D03*
X277876000Y-170434000D03*
X217297000Y-130429000D03*
X219710000Y-118872000D03*
X296799000Y-170688000D03*
X219805117Y-113601744D03*
X222278278Y-113763794D03*
X220957000Y-119657000D03*
X219762500Y-119962500D03*
X213100000Y-124275000D03*
X208800000Y-144900000D03*
X213100000Y-126100000D03*
X209075000Y-120875000D03*
X317703200Y-95250000D03*
D15*
X224340000Y-101230000D03*
D17*
X260756400Y-112217200D03*
D15*
X237236000Y-132029200D03*
D17*
X343154000Y-97790000D03*
D15*
X221996000Y-139700000D03*
X280873200Y-105613200D03*
D17*
X216154000Y-112166400D03*
X223875600Y-119811800D03*
X227838000Y-121666000D03*
X220014800Y-92303600D03*
X207822800Y-112166400D03*
X215265000Y-124968000D03*
X236575600Y-105918000D03*
D15*
X218250000Y-101625000D03*
D17*
X232613200Y-121564400D03*
X208737200Y-118821200D03*
X346964000Y-127355600D03*
D15*
X269595600Y-148539200D03*
X219075000Y-107061000D03*
D17*
X214223600Y-119786400D03*
X219506800Y-163728400D03*
X230124000Y-113792000D03*
X232765600Y-151231600D03*
X241858800Y-117805200D03*
X225958400Y-116586000D03*
X232765600Y-111912400D03*
X247802400Y-170332400D03*
X215138000Y-130175000D03*
X239776000Y-125476000D03*
X223400000Y-127100000D03*
X222504000Y-124079000D03*
X252095000Y-105308400D03*
X220600000Y-129900000D03*
D15*
X209600000Y-108675000D03*
D17*
X208280000Y-94437200D03*
X214731600Y-104851200D03*
X213969600Y-110591600D03*
X238252000Y-112268000D03*
X301955200Y-168198800D03*
D15*
X323240400Y-132791200D03*
D17*
X211074000Y-164211000D03*
X228750000Y-95200000D03*
X212770000Y-116200000D03*
X220726000Y-116535200D03*
X233324400Y-191211200D03*
X213360000Y-128143000D03*
X230136000Y-120650000D03*
D15*
X306374800Y-147421600D03*
D17*
X282041600Y-92151200D03*
X241808000Y-92811600D03*
X223790000Y-100320000D03*
X277977600Y-187045600D03*
X210947000Y-127381000D03*
X299008800Y-130302000D03*
X260045200Y-129590800D03*
D15*
X228800000Y-101200000D03*
D17*
X242115230Y-165437851D03*
X314147200Y-115722400D03*
X346710000Y-165252400D03*
D15*
X282295600Y-163271200D03*
D17*
X188225000Y-121160000D03*
X184251600Y-121412000D03*
X187133622Y-117035327D03*
X183438800Y-115620800D03*
%LPD*%
M02*
