%TF.GenerationSoftware,KiCad,Pcbnew,8.0.7*%
%TF.CreationDate,2025-01-21T22:47:08+13:00*%
%TF.ProjectId,Koca,4b6f6361-2e6b-4696-9361-645f70636258,2*%
%TF.SameCoordinates,Original*%
%TF.FileFunction,Drillmap*%
%TF.FilePolarity,Positive*%
%FSLAX45Y45*%
G04 Gerber Fmt 4.5, Leading zero omitted, Abs format (unit mm)*
G04 Created by KiCad (PCBNEW 8.0.7) date 2025-01-21 22:47:08*
%MOMM*%
%LPD*%
G01*
G04 APERTURE LIST*
%ADD10C,0.153000*%
%ADD11C,0.601000*%
%ADD12C,0.200000*%
%ADD13C,0.100000*%
%ADD14C,0.170000*%
%ADD15C,0.300000*%
%ADD16C,0.400000*%
G04 APERTURE END LIST*
D10*
X33619440Y-17895255D02*
G75*
G02*
X33519440Y-17995250I-99990J-5D01*
G01*
X28334360Y-8501000D02*
X23405440Y-8501000D01*
X10410000Y-18100000D02*
X10410000Y-20300000D01*
X34112200Y-17895255D02*
X34112200Y-17508554D01*
X24071249Y-18985489D02*
X25044400Y-18985489D01*
X23205440Y-8701000D02*
G75*
G02*
X23405440Y-8501000I200000J0D01*
G01*
X20246948Y-9248001D02*
X20245748Y-9232019D01*
X20242247Y-9216792D01*
X20236624Y-9202499D01*
X20226131Y-9185201D01*
X20212601Y-9170302D01*
X20196455Y-9158224D01*
X20178114Y-9149388D01*
X20163170Y-9145144D01*
X20147406Y-9143140D01*
X20142000Y-9143000D01*
X7333920Y-18000000D02*
X10310000Y-18000000D01*
X34800000Y-7900000D02*
G75*
G02*
X35000000Y-8100000I0J-200000D01*
G01*
X17453000Y-8500000D02*
G75*
G02*
X17653000Y-8700000I0J-200000D01*
G01*
X15306040Y-20400000D02*
G75*
G02*
X15206040Y-20500000I-100000J0D01*
G01*
X15306040Y-20400000D02*
X15306040Y-18985489D01*
X6731000Y-17900000D02*
G75*
G02*
X6631000Y-18000000I-100000J0D01*
G01*
X11595760Y-8500000D02*
G75*
G02*
X11795760Y-8700000I0J-200000D01*
G01*
X29981234Y-18980745D02*
X25542240Y-18980745D01*
X35000000Y-8300000D02*
G75*
G02*
X34800000Y-8500000I-200000J0D01*
G01*
X6200000Y-21000000D02*
G75*
G02*
X6000000Y-20800000I0J200000D01*
G01*
X28534360Y-9144000D02*
X28534360Y-8701000D01*
X10310000Y-18000000D02*
G75*
G02*
X10410000Y-18100000I0J-100000D01*
G01*
X30230000Y-20495255D02*
X25642240Y-20495255D01*
X25044400Y-20400001D02*
X25044400Y-18985489D01*
X12288520Y-8700000D02*
G75*
G02*
X12488908Y-8500000I200390J-390D01*
G01*
X29027120Y-8700000D02*
G75*
G02*
X29227120Y-8500000I200000J0D01*
G01*
X30430000Y-18095255D02*
G75*
G02*
X30530000Y-17995260I100000J-5D01*
G01*
X6200000Y-8500000D02*
G75*
G02*
X6000000Y-8300000I0J200000D01*
G01*
X33619440Y-17508500D02*
X30481200Y-17508500D01*
X34640000Y-17995255D02*
G75*
G02*
X34840005Y-18195255I-170J-200175D01*
G01*
X12488908Y-8500000D02*
X17453000Y-8500000D01*
X22517760Y-8500000D02*
G75*
G02*
X22717760Y-8700000I0J-200000D01*
G01*
X20246948Y-9248001D02*
X20246948Y-14293545D01*
X6200000Y-21000000D02*
X34640000Y-21000000D01*
X18196071Y-19746770D02*
X18185136Y-19760982D01*
X18171905Y-19770754D01*
X18156718Y-19776107D01*
X18139915Y-19777059D01*
X18121835Y-19773628D01*
X18106680Y-19767741D01*
X18095025Y-19761499D01*
X34840000Y-18195255D02*
X34840000Y-20800000D01*
X28334360Y-8501000D02*
G75*
G02*
X28534360Y-8701000I0J-200000D01*
G01*
X6000000Y-8100000D02*
X6000000Y-8300000D01*
X34212200Y-17995255D02*
X34640000Y-17995255D01*
X22717760Y-9143000D02*
X22717760Y-8700000D01*
X34681074Y-17508590D02*
X34697259Y-17507874D01*
X34712895Y-17505646D01*
X34727914Y-17501972D01*
X34749136Y-17493902D01*
X34768586Y-17482962D01*
X34786032Y-17469381D01*
X34801245Y-17453388D01*
X34813993Y-17435213D01*
X34824047Y-17415083D01*
X34831177Y-17393227D01*
X34834191Y-17377811D01*
X34835734Y-17361798D01*
X34835933Y-17353589D01*
X22629563Y-19746770D02*
X22640498Y-19760981D01*
X22653729Y-19770754D01*
X22668916Y-19776106D01*
X22685719Y-19777058D01*
X22703799Y-19773627D01*
X22718954Y-19767740D01*
X22730609Y-19761498D01*
X28534360Y-9144000D02*
X23205440Y-9144000D01*
X6000000Y-8100000D02*
G75*
G02*
X6200000Y-7900000I200000J0D01*
G01*
X15898800Y-20500000D02*
G75*
G02*
X15798800Y-20400000I0J100000D01*
G01*
X15898800Y-20500000D02*
X24944655Y-20500000D01*
X5994000Y-17363297D02*
X5994891Y-17378627D01*
X5999003Y-17400769D01*
X6006245Y-17421662D01*
X6016393Y-17441052D01*
X6029224Y-17458683D01*
X6044513Y-17474302D01*
X6062036Y-17487653D01*
X6081571Y-17498483D01*
X6102892Y-17506537D01*
X6117988Y-17510238D01*
X6133713Y-17512517D01*
X6150000Y-17513298D01*
X34212200Y-17995255D02*
G75*
G02*
X34112195Y-17895255I0J100005D01*
G01*
X22730609Y-19761498D02*
X24071249Y-18985489D01*
X29227120Y-8500000D02*
X34800000Y-8500000D01*
X33519440Y-17995255D02*
X30530000Y-17995255D01*
X5994000Y-9778000D02*
X6001630Y-9745298D01*
X6024142Y-9713028D01*
X6061170Y-9681230D01*
X6112346Y-9649944D01*
X6177300Y-9619209D01*
X6255667Y-9589065D01*
X6347077Y-9559552D01*
X6451164Y-9530709D01*
X6567559Y-9502577D01*
X6695894Y-9475195D01*
X6835802Y-9448603D01*
X6986915Y-9422840D01*
X7148865Y-9397947D01*
X7321284Y-9373963D01*
X7503804Y-9350927D01*
X7696058Y-9328880D01*
X7897678Y-9307862D01*
X8108296Y-9287911D01*
X8327544Y-9269068D01*
X8555055Y-9251373D01*
X8790460Y-9234865D01*
X9033391Y-9219584D01*
X9283482Y-9205569D01*
X9540364Y-9192861D01*
X9803669Y-9181500D01*
X10073029Y-9171524D01*
X10348077Y-9162974D01*
X10628445Y-9155889D01*
X10913765Y-9150310D01*
X11203670Y-9146275D01*
X11497790Y-9143825D01*
X11795760Y-9143000D01*
X12288520Y-9143000D02*
X12288520Y-8700000D01*
X35000000Y-8300000D02*
X35000000Y-8100000D01*
X18196071Y-19746770D02*
X19541368Y-17457549D01*
X11595760Y-8500000D02*
X6200000Y-8500000D01*
X20578686Y-14293545D02*
X20581384Y-14429069D01*
X20586122Y-14562681D01*
X20592822Y-14694333D01*
X20601404Y-14823982D01*
X20611789Y-14951582D01*
X20623897Y-15077088D01*
X20637650Y-15200454D01*
X20652968Y-15321637D01*
X20669772Y-15440591D01*
X20687983Y-15557270D01*
X20707522Y-15671630D01*
X20728309Y-15783625D01*
X20750266Y-15893211D01*
X20773313Y-16000342D01*
X20797370Y-16104974D01*
X20822359Y-16207060D01*
X20848201Y-16306557D01*
X20874816Y-16403418D01*
X20902125Y-16497600D01*
X20930049Y-16589056D01*
X20958508Y-16677742D01*
X20987424Y-16763612D01*
X21016718Y-16846622D01*
X21046309Y-16926727D01*
X21076119Y-17003880D01*
X21106069Y-17078038D01*
X21136079Y-17149155D01*
X21166071Y-17217186D01*
X21195965Y-17282086D01*
X21225681Y-17343810D01*
X21255142Y-17402313D01*
X21284266Y-17457549D01*
X10610000Y-20500000D02*
G75*
G02*
X10410000Y-20300000I0J200000D01*
G01*
X10708765Y-17863296D02*
X10708320Y-17845297D01*
X10706979Y-17827532D01*
X10704765Y-17810025D01*
X10701699Y-17792796D01*
X10697803Y-17775869D01*
X10693098Y-17759266D01*
X10687608Y-17743007D01*
X10681354Y-17727116D01*
X10674358Y-17711614D01*
X10666642Y-17696524D01*
X10658228Y-17681867D01*
X10649137Y-17667666D01*
X10639393Y-17653943D01*
X10629016Y-17640719D01*
X10618029Y-17628017D01*
X10606454Y-17615859D01*
X10594312Y-17604267D01*
X10581626Y-17593263D01*
X10568418Y-17582869D01*
X10554710Y-17573108D01*
X10540522Y-17564000D01*
X10525879Y-17555568D01*
X10510801Y-17547835D01*
X10495310Y-17540822D01*
X10479429Y-17534552D01*
X10463179Y-17529046D01*
X10446583Y-17524327D01*
X10429662Y-17520416D01*
X10412438Y-17517336D01*
X10394933Y-17515108D01*
X10377170Y-17513756D01*
X10359170Y-17513300D01*
X33619440Y-17895255D02*
X33619440Y-17508500D01*
X30430000Y-20295255D02*
G75*
G02*
X30230000Y-20495260I-200000J-5D01*
G01*
X6000000Y-18200000D02*
G75*
G02*
X6200000Y-18000000I200175J-175D01*
G01*
X6200000Y-7900000D02*
X34800000Y-7900000D01*
X6631000Y-18000000D02*
X6200000Y-18000000D01*
X10708765Y-18837728D02*
X10710482Y-18859989D01*
X10715486Y-18881278D01*
X10723522Y-18901328D01*
X10734339Y-18919875D01*
X10747681Y-18936653D01*
X10763296Y-18951396D01*
X10780930Y-18963838D01*
X10800330Y-18973715D01*
X10821242Y-18980760D01*
X10843412Y-18984709D01*
X10858766Y-18985489D01*
X29027120Y-9143000D02*
X29027120Y-8700000D01*
X5994000Y-17363297D02*
X5994000Y-9778000D01*
X15798800Y-18985489D02*
X16754384Y-18985489D01*
X20578686Y-9248001D02*
X20579903Y-9232019D01*
X20583417Y-9216792D01*
X20589050Y-9202499D01*
X20599551Y-9185201D01*
X20613083Y-9170302D01*
X20629224Y-9158224D01*
X20647555Y-9149388D01*
X20662486Y-9145144D01*
X20678234Y-9143140D01*
X20683634Y-9143000D01*
X6000000Y-18200000D02*
X6000000Y-20800000D01*
X34840000Y-20800000D02*
G75*
G02*
X34640000Y-21000000I-200000J0D01*
G01*
X25642240Y-20495255D02*
G75*
G02*
X25542235Y-20395255I0J100005D01*
G01*
X20246948Y-14293545D02*
X20244248Y-14429070D01*
X20239507Y-14562682D01*
X20232805Y-14694336D01*
X20224222Y-14823985D01*
X20213835Y-14951586D01*
X20201725Y-15077092D01*
X20187971Y-15200460D01*
X20172652Y-15321643D01*
X20155846Y-15440597D01*
X20137634Y-15557277D01*
X20118095Y-15671637D01*
X20097307Y-15783633D01*
X20075350Y-15893219D01*
X20052303Y-16000350D01*
X20028245Y-16104982D01*
X20003256Y-16207068D01*
X19977414Y-16306565D01*
X19950800Y-16403426D01*
X19923491Y-16497607D01*
X19895568Y-16589063D01*
X19867109Y-16677749D01*
X19838194Y-16763619D01*
X19808901Y-16846629D01*
X19779311Y-16926733D01*
X19749502Y-17003886D01*
X19719553Y-17078043D01*
X19689545Y-17149159D01*
X19659555Y-17217190D01*
X19629663Y-17282089D01*
X19599948Y-17343812D01*
X19570490Y-17402314D01*
X19541368Y-17457549D01*
X20578686Y-14293545D02*
X20578686Y-9248001D01*
X18145760Y-9143000D02*
X20142000Y-9143000D01*
X10858766Y-18985489D02*
X15306040Y-18985489D01*
X34835933Y-9778000D02*
X34835933Y-17353589D01*
X17653000Y-9143000D02*
X12288520Y-9143000D01*
X30131235Y-18832983D02*
X30131235Y-17858552D01*
X10708765Y-18837728D02*
X10708765Y-17863296D01*
X30430000Y-18095255D02*
X30430000Y-20295255D01*
X22717760Y-9143000D02*
X20683634Y-9143000D01*
X7233920Y-17900000D02*
X7233920Y-17513300D01*
X34112200Y-17508554D02*
X34681074Y-17508590D01*
X18145760Y-8700000D02*
G75*
G02*
X18345760Y-8500000I200000J0D01*
G01*
X7233920Y-17513300D02*
X10359170Y-17513300D01*
X25542240Y-20395255D02*
X25542240Y-18980745D01*
X16754384Y-18985489D02*
X18095025Y-19761499D01*
X18145760Y-9143000D02*
X18145760Y-8700000D01*
X7333920Y-18000000D02*
G75*
G02*
X7233920Y-17900000I0J100000D01*
G01*
X6731000Y-17513298D02*
X6150000Y-17513298D01*
X23205440Y-9144000D02*
X23205440Y-8701000D01*
X25044400Y-20400001D02*
G75*
G02*
X24944655Y-20500000I-99740J-259D01*
G01*
X10610000Y-20500000D02*
X15206040Y-20500000D01*
X15798800Y-20400000D02*
X15798800Y-18985489D01*
X30131235Y-17858552D02*
X30131680Y-17840552D01*
X30133021Y-17822789D01*
X30135235Y-17805283D01*
X30138302Y-17788057D01*
X30142199Y-17771132D01*
X30146904Y-17754531D01*
X30152395Y-17738276D01*
X30158651Y-17722388D01*
X30165650Y-17706890D01*
X30173369Y-17691803D01*
X30181787Y-17677150D01*
X30190882Y-17662952D01*
X30200632Y-17649232D01*
X30211015Y-17636011D01*
X30222009Y-17623312D01*
X30233592Y-17611156D01*
X30245743Y-17599565D01*
X30258439Y-17588562D01*
X30271659Y-17578168D01*
X30285381Y-17568405D01*
X30299582Y-17559296D01*
X30314241Y-17550862D01*
X30329336Y-17543126D01*
X30344846Y-17536108D01*
X30360747Y-17529832D01*
X30377019Y-17524319D01*
X30393639Y-17519591D01*
X30410586Y-17515671D01*
X30427837Y-17512579D01*
X30445371Y-17510339D01*
X30463166Y-17508972D01*
X30481200Y-17508500D01*
X6731000Y-17900000D02*
X6731000Y-17513298D01*
X11795760Y-9143000D02*
X11795760Y-8700000D01*
X22517760Y-8500000D02*
X18345760Y-8500000D01*
X30131235Y-18832983D02*
X30129518Y-18855244D01*
X30124514Y-18876533D01*
X30116478Y-18896584D01*
X30105661Y-18915130D01*
X30092319Y-18931908D01*
X30076704Y-18946651D01*
X30059069Y-18959094D01*
X30039670Y-18968970D01*
X30018758Y-18976016D01*
X29996588Y-18979964D01*
X29981234Y-18980745D01*
X17653000Y-9143000D02*
X17653000Y-8700000D01*
X34835933Y-9778000D02*
X34827913Y-9745298D01*
X34805033Y-9713028D01*
X34767661Y-9681230D01*
X34716163Y-9649944D01*
X34650905Y-9619209D01*
X34572255Y-9589065D01*
X34480578Y-9559552D01*
X34376241Y-9530709D01*
X34259610Y-9502577D01*
X34131053Y-9475195D01*
X33990935Y-9448603D01*
X33839623Y-9422840D01*
X33677484Y-9397947D01*
X33504884Y-9373963D01*
X33322190Y-9350927D01*
X33129769Y-9328880D01*
X32927985Y-9307862D01*
X32717207Y-9287911D01*
X32497801Y-9269068D01*
X32270134Y-9251373D01*
X32034571Y-9234865D01*
X31791479Y-9219584D01*
X31541225Y-9205569D01*
X31284176Y-9192861D01*
X31020697Y-9181500D01*
X30751156Y-9171524D01*
X30475919Y-9162974D01*
X30195352Y-9155889D01*
X29909822Y-9150310D01*
X29619696Y-9146275D01*
X29325340Y-9143825D01*
X29027120Y-9143000D01*
X21284266Y-17457549D02*
X22629563Y-19746770D01*
D11*
X34772170Y-8178800D02*
G75*
G02*
X34712070Y-8178800I-30050J0D01*
G01*
X34712070Y-8178800D02*
G75*
G02*
X34772170Y-8178800I30050J0D01*
G01*
X6263210Y-20782280D02*
G75*
G02*
X6203110Y-20782280I-30050J0D01*
G01*
X6203110Y-20782280D02*
G75*
G02*
X6263210Y-20782280I30050J0D01*
G01*
X6263210Y-8168640D02*
G75*
G02*
X6203110Y-8168640I-30050J0D01*
G01*
X6203110Y-8168640D02*
G75*
G02*
X6263210Y-8168640I30050J0D01*
G01*
X34629930Y-20807680D02*
G75*
G02*
X34569830Y-20807680I-30050J0D01*
G01*
X34569830Y-20807680D02*
G75*
G02*
X34629930Y-20807680I30050J0D01*
G01*
D12*
D13*
X6753120Y-17496000D02*
X6813120Y-17556000D01*
X6813120Y-17496000D02*
X6753120Y-17556000D01*
X6833120Y-17496000D02*
X6893120Y-17556000D01*
X6893120Y-17496000D02*
X6833120Y-17556000D01*
X6913120Y-17496000D02*
X6973120Y-17556000D01*
X6973120Y-17496000D02*
X6913120Y-17556000D01*
X6993120Y-17496000D02*
X7053120Y-17556000D01*
X7053120Y-17496000D02*
X6993120Y-17556000D01*
X7073120Y-17496000D02*
X7133120Y-17556000D01*
X7133120Y-17496000D02*
X7073120Y-17556000D01*
X7153120Y-17496000D02*
X7213120Y-17556000D01*
X7213120Y-17496000D02*
X7153120Y-17556000D01*
X11811480Y-9098760D02*
X11871480Y-9158760D01*
X11871480Y-9098760D02*
X11811480Y-9158760D01*
X11891480Y-9098760D02*
X11951480Y-9158760D01*
X11951480Y-9098760D02*
X11891480Y-9158760D01*
X11971480Y-9098760D02*
X12031480Y-9158760D01*
X12031480Y-9098760D02*
X11971480Y-9158760D01*
X12051480Y-9098760D02*
X12111480Y-9158760D01*
X12111480Y-9098760D02*
X12051480Y-9158760D01*
X12131480Y-9098760D02*
X12191480Y-9158760D01*
X12191480Y-9098760D02*
X12131480Y-9158760D01*
X12211480Y-9098760D02*
X12271480Y-9158760D01*
X12271480Y-9098760D02*
X12211480Y-9158760D01*
X15321800Y-18969200D02*
X15381800Y-19029200D01*
X15381800Y-18969200D02*
X15321800Y-19029200D01*
X15401800Y-18969200D02*
X15461800Y-19029200D01*
X15461800Y-18969200D02*
X15401800Y-19029200D01*
X15481800Y-18969200D02*
X15541800Y-19029200D01*
X15541800Y-18969200D02*
X15481800Y-19029200D01*
X15561800Y-18969200D02*
X15621800Y-19029200D01*
X15621800Y-18969200D02*
X15561800Y-19029200D01*
X15641800Y-18969200D02*
X15701800Y-19029200D01*
X15701800Y-18969200D02*
X15641800Y-19029200D01*
X15721800Y-18969200D02*
X15781800Y-19029200D01*
X15781800Y-18969200D02*
X15721800Y-19029200D01*
X17668760Y-9098760D02*
X17728760Y-9158760D01*
X17728760Y-9098760D02*
X17668760Y-9158760D01*
X17748760Y-9098760D02*
X17808760Y-9158760D01*
X17808760Y-9098760D02*
X17748760Y-9158760D01*
X17828760Y-9098760D02*
X17888760Y-9158760D01*
X17888760Y-9098760D02*
X17828760Y-9158760D01*
X17908760Y-9098760D02*
X17968760Y-9158760D01*
X17968760Y-9098760D02*
X17908760Y-9158760D01*
X17988760Y-9098760D02*
X18048760Y-9158760D01*
X18048760Y-9098760D02*
X17988760Y-9158760D01*
X18068760Y-9098760D02*
X18128760Y-9158760D01*
X18128760Y-9098760D02*
X18068760Y-9158760D01*
X22731600Y-9098840D02*
X22791600Y-9158840D01*
X22791600Y-9098840D02*
X22731600Y-9158840D01*
X22811600Y-9098840D02*
X22871600Y-9158840D01*
X22871600Y-9098840D02*
X22811600Y-9158840D01*
X22891600Y-9098840D02*
X22951600Y-9158840D01*
X22951600Y-9098840D02*
X22891600Y-9158840D01*
X22971600Y-9098840D02*
X23031600Y-9158840D01*
X23031600Y-9098840D02*
X22971600Y-9158840D01*
X23051600Y-9098840D02*
X23111600Y-9158840D01*
X23111600Y-9098840D02*
X23051600Y-9158840D01*
X23131600Y-9098840D02*
X23191600Y-9158840D01*
X23191600Y-9098840D02*
X23131600Y-9158840D01*
X25062680Y-18969200D02*
X25122680Y-19029200D01*
X25122680Y-18969200D02*
X25062680Y-19029200D01*
X25142680Y-18969200D02*
X25202680Y-19029200D01*
X25202680Y-18969200D02*
X25142680Y-19029200D01*
X25222680Y-18969200D02*
X25282680Y-19029200D01*
X25282680Y-18969200D02*
X25222680Y-19029200D01*
X25302680Y-18969200D02*
X25362680Y-19029200D01*
X25362680Y-18969200D02*
X25302680Y-19029200D01*
X25382680Y-18969200D02*
X25442680Y-19029200D01*
X25442680Y-18969200D02*
X25382680Y-19029200D01*
X25462680Y-18969200D02*
X25522680Y-19029200D01*
X25522680Y-18969200D02*
X25462680Y-19029200D01*
X28551360Y-9098760D02*
X28611360Y-9158760D01*
X28611360Y-9098760D02*
X28551360Y-9158760D01*
X28631360Y-9098760D02*
X28691360Y-9158760D01*
X28691360Y-9098760D02*
X28631360Y-9158760D01*
X28711360Y-9098760D02*
X28771360Y-9158760D01*
X28771360Y-9098760D02*
X28711360Y-9158760D01*
X28791360Y-9098760D02*
X28851360Y-9158760D01*
X28851360Y-9098760D02*
X28791360Y-9158760D01*
X28871360Y-9098760D02*
X28931360Y-9158760D01*
X28931360Y-9098760D02*
X28871360Y-9158760D01*
X28951360Y-9098760D02*
X29011360Y-9158760D01*
X29011360Y-9098760D02*
X28951360Y-9158760D01*
X33633920Y-17496000D02*
X33693920Y-17556000D01*
X33693920Y-17496000D02*
X33633920Y-17556000D01*
X33713920Y-17496000D02*
X33773920Y-17556000D01*
X33773920Y-17496000D02*
X33713920Y-17556000D01*
X33793920Y-17496000D02*
X33853920Y-17556000D01*
X33853920Y-17496000D02*
X33793920Y-17556000D01*
X33873920Y-17496000D02*
X33933920Y-17556000D01*
X33933920Y-17496000D02*
X33873920Y-17556000D01*
X33953920Y-17496000D02*
X34013920Y-17556000D01*
X34013920Y-17496000D02*
X33953920Y-17556000D01*
X34033920Y-17496000D02*
X34093920Y-17556000D01*
X34093920Y-17496000D02*
X34033920Y-17556000D01*
X18573500Y-9640000D02*
G75*
G02*
X18508500Y-9640000I-32500J0D01*
G01*
X18508500Y-9640000D02*
G75*
G02*
X18573500Y-9640000I32500J0D01*
G01*
X19151500Y-9640000D02*
G75*
G02*
X19086500Y-9640000I-32500J0D01*
G01*
X19086500Y-9640000D02*
G75*
G02*
X19151500Y-9640000I32500J0D01*
G01*
X21739100Y-9640000D02*
G75*
G02*
X21674100Y-9640000I-32500J0D01*
G01*
X21674100Y-9640000D02*
G75*
G02*
X21739100Y-9640000I32500J0D01*
G01*
X22317100Y-9640000D02*
G75*
G02*
X22252100Y-9640000I-32500J0D01*
G01*
X22252100Y-9640000D02*
G75*
G02*
X22317100Y-9640000I32500J0D01*
G01*
X19896948Y-9268001D02*
X19896948Y-9348001D01*
X19856948Y-9308001D02*
X19936948Y-9308001D01*
X19896948Y-9968001D02*
X19896948Y-10048001D01*
X19856948Y-10008001D02*
X19936948Y-10008001D01*
X20928686Y-9268001D02*
X20928686Y-9348001D01*
X20888686Y-9308001D02*
X20968686Y-9308001D01*
X20928686Y-9968001D02*
X20928686Y-10048001D01*
X20888686Y-10008001D02*
X20968686Y-10008001D01*
D14*
X6557105Y-10880105D02*
X6557105Y-10759895D01*
X6436895Y-10759895D01*
X6436895Y-10880105D01*
X6557105Y-10880105D01*
X6557105Y-12785105D02*
X6557105Y-12664895D01*
X6436895Y-12664895D01*
X6436895Y-12785105D01*
X6557105Y-12785105D01*
X6557105Y-14690105D02*
X6557105Y-14569895D01*
X6436895Y-14569895D01*
X6436895Y-14690105D01*
X6557105Y-14690105D01*
X6557105Y-16595105D02*
X6557105Y-16474895D01*
X6436895Y-16474895D01*
X6436895Y-16595105D01*
X6557105Y-16595105D01*
X7573105Y-10880105D02*
X7573105Y-10759895D01*
X7452895Y-10759895D01*
X7452895Y-10880105D01*
X7573105Y-10880105D01*
X7573105Y-12785105D02*
X7573105Y-12664895D01*
X7452895Y-12664895D01*
X7452895Y-12785105D01*
X7573105Y-12785105D01*
X7573105Y-14690105D02*
X7573105Y-14569895D01*
X7452895Y-14569895D01*
X7452895Y-14690105D01*
X7573105Y-14690105D01*
X7573105Y-16595105D02*
X7573105Y-16474895D01*
X7452895Y-16474895D01*
X7452895Y-16595105D01*
X7573105Y-16595105D01*
X8462105Y-10735105D02*
X8462105Y-10614895D01*
X8341895Y-10614895D01*
X8341895Y-10735105D01*
X8462105Y-10735105D01*
X8462105Y-12640105D02*
X8462105Y-12519895D01*
X8341895Y-12519895D01*
X8341895Y-12640105D01*
X8462105Y-12640105D01*
X8462105Y-14545105D02*
X8462105Y-14424895D01*
X8341895Y-14424895D01*
X8341895Y-14545105D01*
X8462105Y-14545105D01*
X8462105Y-16450105D02*
X8462105Y-16329895D01*
X8341895Y-16329895D01*
X8341895Y-16450105D01*
X8462105Y-16450105D01*
X9478105Y-10735105D02*
X9478105Y-10614895D01*
X9357895Y-10614895D01*
X9357895Y-10735105D01*
X9478105Y-10735105D01*
X9478105Y-12640105D02*
X9478105Y-12519895D01*
X9357895Y-12519895D01*
X9357895Y-12640105D01*
X9478105Y-12640105D01*
X9478105Y-14545105D02*
X9478105Y-14424895D01*
X9357895Y-14424895D01*
X9357895Y-14545105D01*
X9478105Y-14545105D01*
X9478105Y-16450105D02*
X9478105Y-16329895D01*
X9357895Y-16329895D01*
X9357895Y-16450105D01*
X9478105Y-16450105D01*
X10367105Y-10250105D02*
X10367105Y-10129895D01*
X10246895Y-10129895D01*
X10246895Y-10250105D01*
X10367105Y-10250105D01*
X10367105Y-12155105D02*
X10367105Y-12034895D01*
X10246895Y-12034895D01*
X10246895Y-12155105D01*
X10367105Y-12155105D01*
X10367105Y-14060105D02*
X10367105Y-13939895D01*
X10246895Y-13939895D01*
X10246895Y-14060105D01*
X10367105Y-14060105D01*
X10367105Y-15965105D02*
X10367105Y-15844895D01*
X10246895Y-15844895D01*
X10246895Y-15965105D01*
X10367105Y-15965105D01*
X11322105Y-17870105D02*
X11322105Y-17749895D01*
X11201895Y-17749895D01*
X11201895Y-17870105D01*
X11322105Y-17870105D01*
X11383105Y-10250105D02*
X11383105Y-10129895D01*
X11262895Y-10129895D01*
X11262895Y-10250105D01*
X11383105Y-10250105D01*
X11383105Y-12155105D02*
X11383105Y-12034895D01*
X11262895Y-12034895D01*
X11262895Y-12155105D01*
X11383105Y-12155105D01*
X11383105Y-14060105D02*
X11383105Y-13939895D01*
X11262895Y-13939895D01*
X11262895Y-14060105D01*
X11383105Y-14060105D01*
X11383105Y-15965105D02*
X11383105Y-15844895D01*
X11262895Y-15844895D01*
X11262895Y-15965105D01*
X11383105Y-15965105D01*
X12272105Y-10110105D02*
X12272105Y-9989895D01*
X12151895Y-9989895D01*
X12151895Y-10110105D01*
X12272105Y-10110105D01*
X12272105Y-12015105D02*
X12272105Y-11894895D01*
X12151895Y-11894895D01*
X12151895Y-12015105D01*
X12272105Y-12015105D01*
X12272105Y-13920105D02*
X12272105Y-13799895D01*
X12151895Y-13799895D01*
X12151895Y-13920105D01*
X12272105Y-13920105D01*
X12272105Y-15825105D02*
X12272105Y-15704895D01*
X12151895Y-15704895D01*
X12151895Y-15825105D01*
X12272105Y-15825105D01*
X12338105Y-17870105D02*
X12338105Y-17749895D01*
X12217895Y-17749895D01*
X12217895Y-17870105D01*
X12338105Y-17870105D01*
X13227105Y-17870105D02*
X13227105Y-17749895D01*
X13106895Y-17749895D01*
X13106895Y-17870105D01*
X13227105Y-17870105D01*
X13288105Y-10110105D02*
X13288105Y-9989895D01*
X13167895Y-9989895D01*
X13167895Y-10110105D01*
X13288105Y-10110105D01*
X13288105Y-12015105D02*
X13288105Y-11894895D01*
X13167895Y-11894895D01*
X13167895Y-12015105D01*
X13288105Y-12015105D01*
X13288105Y-13920105D02*
X13288105Y-13799895D01*
X13167895Y-13799895D01*
X13167895Y-13920105D01*
X13288105Y-13920105D01*
X13288105Y-15825105D02*
X13288105Y-15704895D01*
X13167895Y-15704895D01*
X13167895Y-15825105D01*
X13288105Y-15825105D01*
X14177105Y-10250105D02*
X14177105Y-10129895D01*
X14056895Y-10129895D01*
X14056895Y-10250105D01*
X14177105Y-10250105D01*
X14177105Y-12155105D02*
X14177105Y-12034895D01*
X14056895Y-12034895D01*
X14056895Y-12155105D01*
X14177105Y-12155105D01*
X14177105Y-14060105D02*
X14177105Y-13939895D01*
X14056895Y-13939895D01*
X14056895Y-14060105D01*
X14177105Y-14060105D01*
X14177105Y-15965105D02*
X14177105Y-15844895D01*
X14056895Y-15844895D01*
X14056895Y-15965105D01*
X14177105Y-15965105D01*
X14243105Y-17870105D02*
X14243105Y-17749895D01*
X14122895Y-17749895D01*
X14122895Y-17870105D01*
X14243105Y-17870105D01*
X15132105Y-18110105D02*
X15132105Y-17989895D01*
X15011895Y-17989895D01*
X15011895Y-18110105D01*
X15132105Y-18110105D01*
X15193105Y-10250105D02*
X15193105Y-10129895D01*
X15072895Y-10129895D01*
X15072895Y-10250105D01*
X15193105Y-10250105D01*
X15193105Y-12155105D02*
X15193105Y-12034895D01*
X15072895Y-12034895D01*
X15072895Y-12155105D01*
X15193105Y-12155105D01*
X15193105Y-14060105D02*
X15193105Y-13939895D01*
X15072895Y-13939895D01*
X15072895Y-14060105D01*
X15193105Y-14060105D01*
X15193105Y-15965105D02*
X15193105Y-15844895D01*
X15072895Y-15844895D01*
X15072895Y-15965105D01*
X15193105Y-15965105D01*
X16082105Y-10490105D02*
X16082105Y-10369895D01*
X15961895Y-10369895D01*
X15961895Y-10490105D01*
X16082105Y-10490105D01*
X16082105Y-12395105D02*
X16082105Y-12274895D01*
X15961895Y-12274895D01*
X15961895Y-12395105D01*
X16082105Y-12395105D01*
X16082105Y-14300105D02*
X16082105Y-14179895D01*
X15961895Y-14179895D01*
X15961895Y-14300105D01*
X16082105Y-14300105D01*
X16082105Y-16205105D02*
X16082105Y-16084895D01*
X15961895Y-16084895D01*
X15961895Y-16205105D01*
X16082105Y-16205105D01*
X16148105Y-18110105D02*
X16148105Y-17989895D01*
X16027895Y-17989895D01*
X16027895Y-18110105D01*
X16148105Y-18110105D01*
X17098105Y-10490105D02*
X17098105Y-10369895D01*
X16977895Y-10369895D01*
X16977895Y-10490105D01*
X17098105Y-10490105D01*
X17098105Y-12395105D02*
X17098105Y-12274895D01*
X16977895Y-12274895D01*
X16977895Y-12395105D01*
X17098105Y-12395105D01*
X17098105Y-14300105D02*
X17098105Y-14179895D01*
X16977895Y-14179895D01*
X16977895Y-14300105D01*
X17098105Y-14300105D01*
X17098105Y-16205105D02*
X17098105Y-16084895D01*
X16977895Y-16084895D01*
X16977895Y-16205105D01*
X17098105Y-16205105D01*
X17886105Y-18630046D02*
X17886105Y-18509836D01*
X17765895Y-18509836D01*
X17765895Y-18630046D01*
X17886105Y-18630046D01*
X17987105Y-15245105D02*
X17987105Y-15124895D01*
X17866895Y-15124895D01*
X17866895Y-15245105D01*
X17987105Y-15245105D01*
X18394105Y-17750164D02*
X18394105Y-17629954D01*
X18273895Y-17629954D01*
X18273895Y-17750164D01*
X18394105Y-17750164D01*
X19003105Y-15245105D02*
X19003105Y-15124895D01*
X18882895Y-15124895D01*
X18882895Y-15245105D01*
X19003105Y-15245105D01*
X21942705Y-15245105D02*
X21942705Y-15124895D01*
X21822495Y-15124895D01*
X21822495Y-15245105D01*
X21942705Y-15245105D01*
X22551705Y-17750164D02*
X22551705Y-17629954D01*
X22431495Y-17629954D01*
X22431495Y-17750164D01*
X22551705Y-17750164D01*
X22958705Y-15245105D02*
X22958705Y-15124895D01*
X22838495Y-15124895D01*
X22838495Y-15245105D01*
X22958705Y-15245105D01*
X23059705Y-18630046D02*
X23059705Y-18509836D01*
X22939495Y-18509836D01*
X22939495Y-18630046D01*
X23059705Y-18630046D01*
X23847705Y-10490105D02*
X23847705Y-10369895D01*
X23727495Y-10369895D01*
X23727495Y-10490105D01*
X23847705Y-10490105D01*
X23847705Y-12395105D02*
X23847705Y-12274895D01*
X23727495Y-12274895D01*
X23727495Y-12395105D01*
X23847705Y-12395105D01*
X23847705Y-14300105D02*
X23847705Y-14179895D01*
X23727495Y-14179895D01*
X23727495Y-14300105D01*
X23847705Y-14300105D01*
X23847705Y-16205105D02*
X23847705Y-16084895D01*
X23727495Y-16084895D01*
X23727495Y-16205105D01*
X23847705Y-16205105D01*
X24797705Y-18110105D02*
X24797705Y-17989895D01*
X24677495Y-17989895D01*
X24677495Y-18110105D01*
X24797705Y-18110105D01*
X24863705Y-10490105D02*
X24863705Y-10369895D01*
X24743495Y-10369895D01*
X24743495Y-10490105D01*
X24863705Y-10490105D01*
X24863705Y-12395105D02*
X24863705Y-12274895D01*
X24743495Y-12274895D01*
X24743495Y-12395105D01*
X24863705Y-12395105D01*
X24863705Y-14300105D02*
X24863705Y-14179895D01*
X24743495Y-14179895D01*
X24743495Y-14300105D01*
X24863705Y-14300105D01*
X24863705Y-16205105D02*
X24863705Y-16084895D01*
X24743495Y-16084895D01*
X24743495Y-16205105D01*
X24863705Y-16205105D01*
X25752705Y-10250105D02*
X25752705Y-10129895D01*
X25632495Y-10129895D01*
X25632495Y-10250105D01*
X25752705Y-10250105D01*
X25752705Y-12155105D02*
X25752705Y-12034895D01*
X25632495Y-12034895D01*
X25632495Y-12155105D01*
X25752705Y-12155105D01*
X25752705Y-14060105D02*
X25752705Y-13939895D01*
X25632495Y-13939895D01*
X25632495Y-14060105D01*
X25752705Y-14060105D01*
X25752705Y-15965105D02*
X25752705Y-15844895D01*
X25632495Y-15844895D01*
X25632495Y-15965105D01*
X25752705Y-15965105D01*
X25813705Y-18110105D02*
X25813705Y-17989895D01*
X25693495Y-17989895D01*
X25693495Y-18110105D01*
X25813705Y-18110105D01*
X26702705Y-17870105D02*
X26702705Y-17749895D01*
X26582495Y-17749895D01*
X26582495Y-17870105D01*
X26702705Y-17870105D01*
X26768705Y-10250105D02*
X26768705Y-10129895D01*
X26648495Y-10129895D01*
X26648495Y-10250105D01*
X26768705Y-10250105D01*
X26768705Y-12155105D02*
X26768705Y-12034895D01*
X26648495Y-12034895D01*
X26648495Y-12155105D01*
X26768705Y-12155105D01*
X26768705Y-14060105D02*
X26768705Y-13939895D01*
X26648495Y-13939895D01*
X26648495Y-14060105D01*
X26768705Y-14060105D01*
X26768705Y-15965105D02*
X26768705Y-15844895D01*
X26648495Y-15844895D01*
X26648495Y-15965105D01*
X26768705Y-15965105D01*
X27657705Y-10110105D02*
X27657705Y-9989895D01*
X27537495Y-9989895D01*
X27537495Y-10110105D01*
X27657705Y-10110105D01*
X27657705Y-12015105D02*
X27657705Y-11894895D01*
X27537495Y-11894895D01*
X27537495Y-12015105D01*
X27657705Y-12015105D01*
X27657705Y-13920105D02*
X27657705Y-13799895D01*
X27537495Y-13799895D01*
X27537495Y-13920105D01*
X27657705Y-13920105D01*
X27657705Y-15825105D02*
X27657705Y-15704895D01*
X27537495Y-15704895D01*
X27537495Y-15825105D01*
X27657705Y-15825105D01*
X27718705Y-17870105D02*
X27718705Y-17749895D01*
X27598495Y-17749895D01*
X27598495Y-17870105D01*
X27718705Y-17870105D01*
X28607705Y-17870105D02*
X28607705Y-17749895D01*
X28487495Y-17749895D01*
X28487495Y-17870105D01*
X28607705Y-17870105D01*
X28673705Y-10110105D02*
X28673705Y-9989895D01*
X28553495Y-9989895D01*
X28553495Y-10110105D01*
X28673705Y-10110105D01*
X28673705Y-12015105D02*
X28673705Y-11894895D01*
X28553495Y-11894895D01*
X28553495Y-12015105D01*
X28673705Y-12015105D01*
X28673705Y-13920105D02*
X28673705Y-13799895D01*
X28553495Y-13799895D01*
X28553495Y-13920105D01*
X28673705Y-13920105D01*
X28673705Y-15825105D02*
X28673705Y-15704895D01*
X28553495Y-15704895D01*
X28553495Y-15825105D01*
X28673705Y-15825105D01*
X29562705Y-10250105D02*
X29562705Y-10129895D01*
X29442495Y-10129895D01*
X29442495Y-10250105D01*
X29562705Y-10250105D01*
X29562705Y-12155105D02*
X29562705Y-12034895D01*
X29442495Y-12034895D01*
X29442495Y-12155105D01*
X29562705Y-12155105D01*
X29562705Y-14060105D02*
X29562705Y-13939895D01*
X29442495Y-13939895D01*
X29442495Y-14060105D01*
X29562705Y-14060105D01*
X29562705Y-15965105D02*
X29562705Y-15844895D01*
X29442495Y-15844895D01*
X29442495Y-15965105D01*
X29562705Y-15965105D01*
X29623705Y-17870105D02*
X29623705Y-17749895D01*
X29503495Y-17749895D01*
X29503495Y-17870105D01*
X29623705Y-17870105D01*
X30578705Y-10250105D02*
X30578705Y-10129895D01*
X30458495Y-10129895D01*
X30458495Y-10250105D01*
X30578705Y-10250105D01*
X30578705Y-12155105D02*
X30578705Y-12034895D01*
X30458495Y-12034895D01*
X30458495Y-12155105D01*
X30578705Y-12155105D01*
X30578705Y-14060105D02*
X30578705Y-13939895D01*
X30458495Y-13939895D01*
X30458495Y-14060105D01*
X30578705Y-14060105D01*
X30578705Y-15965105D02*
X30578705Y-15844895D01*
X30458495Y-15844895D01*
X30458495Y-15965105D01*
X30578705Y-15965105D01*
X31467705Y-10735105D02*
X31467705Y-10614895D01*
X31347495Y-10614895D01*
X31347495Y-10735105D01*
X31467705Y-10735105D01*
X31467705Y-12640105D02*
X31467705Y-12519895D01*
X31347495Y-12519895D01*
X31347495Y-12640105D01*
X31467705Y-12640105D01*
X31467705Y-14545105D02*
X31467705Y-14424895D01*
X31347495Y-14424895D01*
X31347495Y-14545105D01*
X31467705Y-14545105D01*
X31467705Y-16450105D02*
X31467705Y-16329895D01*
X31347495Y-16329895D01*
X31347495Y-16450105D01*
X31467705Y-16450105D01*
X32483705Y-10735105D02*
X32483705Y-10614895D01*
X32363495Y-10614895D01*
X32363495Y-10735105D01*
X32483705Y-10735105D01*
X32483705Y-12640105D02*
X32483705Y-12519895D01*
X32363495Y-12519895D01*
X32363495Y-12640105D01*
X32483705Y-12640105D01*
X32483705Y-14545105D02*
X32483705Y-14424895D01*
X32363495Y-14424895D01*
X32363495Y-14545105D01*
X32483705Y-14545105D01*
X32483705Y-16450105D02*
X32483705Y-16329895D01*
X32363495Y-16329895D01*
X32363495Y-16450105D01*
X32483705Y-16450105D01*
X33372705Y-10880105D02*
X33372705Y-10759895D01*
X33252495Y-10759895D01*
X33252495Y-10880105D01*
X33372705Y-10880105D01*
X33372705Y-12785105D02*
X33372705Y-12664895D01*
X33252495Y-12664895D01*
X33252495Y-12785105D01*
X33372705Y-12785105D01*
X33372705Y-14690105D02*
X33372705Y-14569895D01*
X33252495Y-14569895D01*
X33252495Y-14690105D01*
X33372705Y-14690105D01*
X33372705Y-16595105D02*
X33372705Y-16474895D01*
X33252495Y-16474895D01*
X33252495Y-16595105D01*
X33372705Y-16595105D01*
X34388705Y-10880105D02*
X34388705Y-10759895D01*
X34268495Y-10759895D01*
X34268495Y-10880105D01*
X34388705Y-10880105D01*
X34388705Y-12785105D02*
X34388705Y-12664895D01*
X34268495Y-12664895D01*
X34268495Y-12785105D01*
X34388705Y-12785105D01*
X34388705Y-14690105D02*
X34388705Y-14569895D01*
X34268495Y-14569895D01*
X34268495Y-14690105D01*
X34388705Y-14690105D01*
X34388705Y-16595105D02*
X34388705Y-16474895D01*
X34268495Y-16474895D01*
X34268495Y-16595105D01*
X34388705Y-16595105D01*
D15*
X6624000Y-10716000D02*
X6774000Y-10566000D01*
X6624000Y-10416000D01*
X6474000Y-10566000D01*
X6624000Y-10716000D01*
X6624000Y-12621000D02*
X6774000Y-12471000D01*
X6624000Y-12321000D01*
X6474000Y-12471000D01*
X6624000Y-12621000D01*
X6624000Y-14526000D02*
X6774000Y-14376000D01*
X6624000Y-14226000D01*
X6474000Y-14376000D01*
X6624000Y-14526000D01*
X6624000Y-16431000D02*
X6774000Y-16281000D01*
X6624000Y-16131000D01*
X6474000Y-16281000D01*
X6624000Y-16431000D01*
X7259000Y-10462000D02*
X7409000Y-10312000D01*
X7259000Y-10162000D01*
X7109000Y-10312000D01*
X7259000Y-10462000D01*
X7259000Y-12367000D02*
X7409000Y-12217000D01*
X7259000Y-12067000D01*
X7109000Y-12217000D01*
X7259000Y-12367000D01*
X7259000Y-14272000D02*
X7409000Y-14122000D01*
X7259000Y-13972000D01*
X7109000Y-14122000D01*
X7259000Y-14272000D01*
X7259000Y-16177000D02*
X7409000Y-16027000D01*
X7259000Y-15877000D01*
X7109000Y-16027000D01*
X7259000Y-16177000D01*
X8529000Y-10571000D02*
X8679000Y-10421000D01*
X8529000Y-10271000D01*
X8379000Y-10421000D01*
X8529000Y-10571000D01*
X8529000Y-12476000D02*
X8679000Y-12326000D01*
X8529000Y-12176000D01*
X8379000Y-12326000D01*
X8529000Y-12476000D01*
X8529000Y-14381000D02*
X8679000Y-14231000D01*
X8529000Y-14081000D01*
X8379000Y-14231000D01*
X8529000Y-14381000D01*
X8529000Y-16286000D02*
X8679000Y-16136000D01*
X8529000Y-15986000D01*
X8379000Y-16136000D01*
X8529000Y-16286000D01*
X9164000Y-10317000D02*
X9314000Y-10167000D01*
X9164000Y-10017000D01*
X9014000Y-10167000D01*
X9164000Y-10317000D01*
X9164000Y-12222000D02*
X9314000Y-12072000D01*
X9164000Y-11922000D01*
X9014000Y-12072000D01*
X9164000Y-12222000D01*
X9164000Y-14127000D02*
X9314000Y-13977000D01*
X9164000Y-13827000D01*
X9014000Y-13977000D01*
X9164000Y-14127000D01*
X9164000Y-16032000D02*
X9314000Y-15882000D01*
X9164000Y-15732000D01*
X9014000Y-15882000D01*
X9164000Y-16032000D01*
X10434000Y-10086000D02*
X10584000Y-9936000D01*
X10434000Y-9786000D01*
X10284000Y-9936000D01*
X10434000Y-10086000D01*
X10434000Y-11991000D02*
X10584000Y-11841000D01*
X10434000Y-11691000D01*
X10284000Y-11841000D01*
X10434000Y-11991000D01*
X10434000Y-13896000D02*
X10584000Y-13746000D01*
X10434000Y-13596000D01*
X10284000Y-13746000D01*
X10434000Y-13896000D01*
X10434000Y-15801000D02*
X10584000Y-15651000D01*
X10434000Y-15501000D01*
X10284000Y-15651000D01*
X10434000Y-15801000D01*
X11069000Y-9832000D02*
X11219000Y-9682000D01*
X11069000Y-9532000D01*
X10919000Y-9682000D01*
X11069000Y-9832000D01*
X11069000Y-11737000D02*
X11219000Y-11587000D01*
X11069000Y-11437000D01*
X10919000Y-11587000D01*
X11069000Y-11737000D01*
X11069000Y-13642000D02*
X11219000Y-13492000D01*
X11069000Y-13342000D01*
X10919000Y-13492000D01*
X11069000Y-13642000D01*
X11069000Y-15547000D02*
X11219000Y-15397000D01*
X11069000Y-15247000D01*
X10919000Y-15397000D01*
X11069000Y-15547000D01*
X11389000Y-17706000D02*
X11539000Y-17556000D01*
X11389000Y-17406000D01*
X11239000Y-17556000D01*
X11389000Y-17706000D01*
X12024000Y-17452000D02*
X12174000Y-17302000D01*
X12024000Y-17152000D01*
X11874000Y-17302000D01*
X12024000Y-17452000D01*
X12339000Y-9946000D02*
X12489000Y-9796000D01*
X12339000Y-9646000D01*
X12189000Y-9796000D01*
X12339000Y-9946000D01*
X12339000Y-11851000D02*
X12489000Y-11701000D01*
X12339000Y-11551000D01*
X12189000Y-11701000D01*
X12339000Y-11851000D01*
X12339000Y-13756000D02*
X12489000Y-13606000D01*
X12339000Y-13456000D01*
X12189000Y-13606000D01*
X12339000Y-13756000D01*
X12339000Y-15661000D02*
X12489000Y-15511000D01*
X12339000Y-15361000D01*
X12189000Y-15511000D01*
X12339000Y-15661000D01*
X12974000Y-9692000D02*
X13124000Y-9542000D01*
X12974000Y-9392000D01*
X12824000Y-9542000D01*
X12974000Y-9692000D01*
X12974000Y-11597000D02*
X13124000Y-11447000D01*
X12974000Y-11297000D01*
X12824000Y-11447000D01*
X12974000Y-11597000D01*
X12974000Y-13502000D02*
X13124000Y-13352000D01*
X12974000Y-13202000D01*
X12824000Y-13352000D01*
X12974000Y-13502000D01*
X12974000Y-15407000D02*
X13124000Y-15257000D01*
X12974000Y-15107000D01*
X12824000Y-15257000D01*
X12974000Y-15407000D01*
X13294000Y-17706000D02*
X13444000Y-17556000D01*
X13294000Y-17406000D01*
X13144000Y-17556000D01*
X13294000Y-17706000D01*
X13929000Y-17452000D02*
X14079000Y-17302000D01*
X13929000Y-17152000D01*
X13779000Y-17302000D01*
X13929000Y-17452000D01*
X14244000Y-10086000D02*
X14394000Y-9936000D01*
X14244000Y-9786000D01*
X14094000Y-9936000D01*
X14244000Y-10086000D01*
X14244000Y-11991000D02*
X14394000Y-11841000D01*
X14244000Y-11691000D01*
X14094000Y-11841000D01*
X14244000Y-11991000D01*
X14244000Y-13896000D02*
X14394000Y-13746000D01*
X14244000Y-13596000D01*
X14094000Y-13746000D01*
X14244000Y-13896000D01*
X14244000Y-15801000D02*
X14394000Y-15651000D01*
X14244000Y-15501000D01*
X14094000Y-15651000D01*
X14244000Y-15801000D01*
X14879000Y-9832000D02*
X15029000Y-9682000D01*
X14879000Y-9532000D01*
X14729000Y-9682000D01*
X14879000Y-9832000D01*
X14879000Y-11737000D02*
X15029000Y-11587000D01*
X14879000Y-11437000D01*
X14729000Y-11587000D01*
X14879000Y-11737000D01*
X14879000Y-13642000D02*
X15029000Y-13492000D01*
X14879000Y-13342000D01*
X14729000Y-13492000D01*
X14879000Y-13642000D01*
X14879000Y-15547000D02*
X15029000Y-15397000D01*
X14879000Y-15247000D01*
X14729000Y-15397000D01*
X14879000Y-15547000D01*
X15199000Y-17946000D02*
X15349000Y-17796000D01*
X15199000Y-17646000D01*
X15049000Y-17796000D01*
X15199000Y-17946000D01*
X15834000Y-17692000D02*
X15984000Y-17542000D01*
X15834000Y-17392000D01*
X15684000Y-17542000D01*
X15834000Y-17692000D01*
X16149000Y-10326000D02*
X16299000Y-10176000D01*
X16149000Y-10026000D01*
X15999000Y-10176000D01*
X16149000Y-10326000D01*
X16149000Y-12231000D02*
X16299000Y-12081000D01*
X16149000Y-11931000D01*
X15999000Y-12081000D01*
X16149000Y-12231000D01*
X16149000Y-14136000D02*
X16299000Y-13986000D01*
X16149000Y-13836000D01*
X15999000Y-13986000D01*
X16149000Y-14136000D01*
X16149000Y-16041000D02*
X16299000Y-15891000D01*
X16149000Y-15741000D01*
X15999000Y-15891000D01*
X16149000Y-16041000D01*
X16784000Y-10072000D02*
X16934000Y-9922000D01*
X16784000Y-9772000D01*
X16634000Y-9922000D01*
X16784000Y-10072000D01*
X16784000Y-11977000D02*
X16934000Y-11827000D01*
X16784000Y-11677000D01*
X16634000Y-11827000D01*
X16784000Y-11977000D01*
X16784000Y-13882000D02*
X16934000Y-13732000D01*
X16784000Y-13582000D01*
X16634000Y-13732000D01*
X16784000Y-13882000D01*
X16784000Y-15787000D02*
X16934000Y-15637000D01*
X16784000Y-15487000D01*
X16634000Y-15637000D01*
X16784000Y-15787000D01*
X17669530Y-18482956D02*
X17819530Y-18332956D01*
X17669530Y-18182956D01*
X17519530Y-18332956D01*
X17669530Y-18482956D01*
X17767059Y-17806030D02*
X17917059Y-17656030D01*
X17767059Y-17506030D01*
X17617059Y-17656030D01*
X17767059Y-17806030D01*
X18054000Y-15081000D02*
X18204000Y-14931000D01*
X18054000Y-14781000D01*
X17904000Y-14931000D01*
X18054000Y-15081000D01*
X18689000Y-14827000D02*
X18839000Y-14677000D01*
X18689000Y-14527000D01*
X18539000Y-14677000D01*
X18689000Y-14827000D01*
X22009600Y-15081000D02*
X22159600Y-14931000D01*
X22009600Y-14781000D01*
X21859600Y-14931000D01*
X22009600Y-15081000D01*
X22644600Y-14827000D02*
X22794600Y-14677000D01*
X22644600Y-14527000D01*
X22494600Y-14677000D01*
X22644600Y-14827000D01*
X22775070Y-17823044D02*
X22925070Y-17673044D01*
X22775070Y-17523044D01*
X22625070Y-17673044D01*
X22775070Y-17823044D01*
X23312541Y-18245971D02*
X23462541Y-18095971D01*
X23312541Y-17945971D01*
X23162541Y-18095971D01*
X23312541Y-18245971D01*
X23914600Y-10326000D02*
X24064600Y-10176000D01*
X23914600Y-10026000D01*
X23764600Y-10176000D01*
X23914600Y-10326000D01*
X23914600Y-12231000D02*
X24064600Y-12081000D01*
X23914600Y-11931000D01*
X23764600Y-12081000D01*
X23914600Y-12231000D01*
X23914600Y-14136000D02*
X24064600Y-13986000D01*
X23914600Y-13836000D01*
X23764600Y-13986000D01*
X23914600Y-14136000D01*
X23914600Y-16041000D02*
X24064600Y-15891000D01*
X23914600Y-15741000D01*
X23764600Y-15891000D01*
X23914600Y-16041000D01*
X24549600Y-10072000D02*
X24699600Y-9922000D01*
X24549600Y-9772000D01*
X24399600Y-9922000D01*
X24549600Y-10072000D01*
X24549600Y-11977000D02*
X24699600Y-11827000D01*
X24549600Y-11677000D01*
X24399600Y-11827000D01*
X24549600Y-11977000D01*
X24549600Y-13882000D02*
X24699600Y-13732000D01*
X24549600Y-13582000D01*
X24399600Y-13732000D01*
X24549600Y-13882000D01*
X24549600Y-15787000D02*
X24699600Y-15637000D01*
X24549600Y-15487000D01*
X24399600Y-15637000D01*
X24549600Y-15787000D01*
X24864600Y-17946000D02*
X25014600Y-17796000D01*
X24864600Y-17646000D01*
X24714600Y-17796000D01*
X24864600Y-17946000D01*
X25499600Y-17692000D02*
X25649600Y-17542000D01*
X25499600Y-17392000D01*
X25349600Y-17542000D01*
X25499600Y-17692000D01*
X25819600Y-10086000D02*
X25969600Y-9936000D01*
X25819600Y-9786000D01*
X25669600Y-9936000D01*
X25819600Y-10086000D01*
X25819600Y-11991000D02*
X25969600Y-11841000D01*
X25819600Y-11691000D01*
X25669600Y-11841000D01*
X25819600Y-11991000D01*
X25819600Y-13896000D02*
X25969600Y-13746000D01*
X25819600Y-13596000D01*
X25669600Y-13746000D01*
X25819600Y-13896000D01*
X25819600Y-15801000D02*
X25969600Y-15651000D01*
X25819600Y-15501000D01*
X25669600Y-15651000D01*
X25819600Y-15801000D01*
X26454600Y-9832000D02*
X26604600Y-9682000D01*
X26454600Y-9532000D01*
X26304600Y-9682000D01*
X26454600Y-9832000D01*
X26454600Y-11737000D02*
X26604600Y-11587000D01*
X26454600Y-11437000D01*
X26304600Y-11587000D01*
X26454600Y-11737000D01*
X26454600Y-13642000D02*
X26604600Y-13492000D01*
X26454600Y-13342000D01*
X26304600Y-13492000D01*
X26454600Y-13642000D01*
X26454600Y-15547000D02*
X26604600Y-15397000D01*
X26454600Y-15247000D01*
X26304600Y-15397000D01*
X26454600Y-15547000D01*
X26769600Y-17706000D02*
X26919600Y-17556000D01*
X26769600Y-17406000D01*
X26619600Y-17556000D01*
X26769600Y-17706000D01*
X27404600Y-17452000D02*
X27554600Y-17302000D01*
X27404600Y-17152000D01*
X27254600Y-17302000D01*
X27404600Y-17452000D01*
X27724600Y-9946000D02*
X27874600Y-9796000D01*
X27724600Y-9646000D01*
X27574600Y-9796000D01*
X27724600Y-9946000D01*
X27724600Y-11851000D02*
X27874600Y-11701000D01*
X27724600Y-11551000D01*
X27574600Y-11701000D01*
X27724600Y-11851000D01*
X27724600Y-13756000D02*
X27874600Y-13606000D01*
X27724600Y-13456000D01*
X27574600Y-13606000D01*
X27724600Y-13756000D01*
X27724600Y-15661000D02*
X27874600Y-15511000D01*
X27724600Y-15361000D01*
X27574600Y-15511000D01*
X27724600Y-15661000D01*
X28359600Y-9692000D02*
X28509600Y-9542000D01*
X28359600Y-9392000D01*
X28209600Y-9542000D01*
X28359600Y-9692000D01*
X28359600Y-11597000D02*
X28509600Y-11447000D01*
X28359600Y-11297000D01*
X28209600Y-11447000D01*
X28359600Y-11597000D01*
X28359600Y-13502000D02*
X28509600Y-13352000D01*
X28359600Y-13202000D01*
X28209600Y-13352000D01*
X28359600Y-13502000D01*
X28359600Y-15407000D02*
X28509600Y-15257000D01*
X28359600Y-15107000D01*
X28209600Y-15257000D01*
X28359600Y-15407000D01*
X28674600Y-17706000D02*
X28824600Y-17556000D01*
X28674600Y-17406000D01*
X28524600Y-17556000D01*
X28674600Y-17706000D01*
X29309600Y-17452000D02*
X29459600Y-17302000D01*
X29309600Y-17152000D01*
X29159600Y-17302000D01*
X29309600Y-17452000D01*
X29629600Y-10086000D02*
X29779600Y-9936000D01*
X29629600Y-9786000D01*
X29479600Y-9936000D01*
X29629600Y-10086000D01*
X29629600Y-11991000D02*
X29779600Y-11841000D01*
X29629600Y-11691000D01*
X29479600Y-11841000D01*
X29629600Y-11991000D01*
X29629600Y-13896000D02*
X29779600Y-13746000D01*
X29629600Y-13596000D01*
X29479600Y-13746000D01*
X29629600Y-13896000D01*
X29629600Y-15801000D02*
X29779600Y-15651000D01*
X29629600Y-15501000D01*
X29479600Y-15651000D01*
X29629600Y-15801000D01*
X30264600Y-9832000D02*
X30414600Y-9682000D01*
X30264600Y-9532000D01*
X30114600Y-9682000D01*
X30264600Y-9832000D01*
X30264600Y-11737000D02*
X30414600Y-11587000D01*
X30264600Y-11437000D01*
X30114600Y-11587000D01*
X30264600Y-11737000D01*
X30264600Y-13642000D02*
X30414600Y-13492000D01*
X30264600Y-13342000D01*
X30114600Y-13492000D01*
X30264600Y-13642000D01*
X30264600Y-15547000D02*
X30414600Y-15397000D01*
X30264600Y-15247000D01*
X30114600Y-15397000D01*
X30264600Y-15547000D01*
X31534600Y-10571000D02*
X31684600Y-10421000D01*
X31534600Y-10271000D01*
X31384600Y-10421000D01*
X31534600Y-10571000D01*
X31534600Y-12476000D02*
X31684600Y-12326000D01*
X31534600Y-12176000D01*
X31384600Y-12326000D01*
X31534600Y-12476000D01*
X31534600Y-14381000D02*
X31684600Y-14231000D01*
X31534600Y-14081000D01*
X31384600Y-14231000D01*
X31534600Y-14381000D01*
X31534600Y-16286000D02*
X31684600Y-16136000D01*
X31534600Y-15986000D01*
X31384600Y-16136000D01*
X31534600Y-16286000D01*
X32169600Y-10317000D02*
X32319600Y-10167000D01*
X32169600Y-10017000D01*
X32019600Y-10167000D01*
X32169600Y-10317000D01*
X32169600Y-12222000D02*
X32319600Y-12072000D01*
X32169600Y-11922000D01*
X32019600Y-12072000D01*
X32169600Y-12222000D01*
X32169600Y-14127000D02*
X32319600Y-13977000D01*
X32169600Y-13827000D01*
X32019600Y-13977000D01*
X32169600Y-14127000D01*
X32169600Y-16032000D02*
X32319600Y-15882000D01*
X32169600Y-15732000D01*
X32019600Y-15882000D01*
X32169600Y-16032000D01*
X33439600Y-10716000D02*
X33589600Y-10566000D01*
X33439600Y-10416000D01*
X33289600Y-10566000D01*
X33439600Y-10716000D01*
X33439600Y-12621000D02*
X33589600Y-12471000D01*
X33439600Y-12321000D01*
X33289600Y-12471000D01*
X33439600Y-12621000D01*
X33439600Y-14526000D02*
X33589600Y-14376000D01*
X33439600Y-14226000D01*
X33289600Y-14376000D01*
X33439600Y-14526000D01*
X33439600Y-16431000D02*
X33589600Y-16281000D01*
X33439600Y-16131000D01*
X33289600Y-16281000D01*
X33439600Y-16431000D01*
X34074600Y-10462000D02*
X34224600Y-10312000D01*
X34074600Y-10162000D01*
X33924600Y-10312000D01*
X34074600Y-10462000D01*
X34074600Y-12367000D02*
X34224600Y-12217000D01*
X34074600Y-12067000D01*
X33924600Y-12217000D01*
X34074600Y-12367000D01*
X34074600Y-14272000D02*
X34224600Y-14122000D01*
X34074600Y-13972000D01*
X33924600Y-14122000D01*
X34074600Y-14272000D01*
X34074600Y-16177000D02*
X34224600Y-16027000D01*
X34074600Y-15877000D01*
X33924600Y-16027000D01*
X34074600Y-16177000D01*
D16*
X6805000Y-10620000D02*
X7205000Y-11020000D01*
X7205000Y-10620000D02*
X6805000Y-11020000D01*
X7205000Y-10820000D02*
G75*
G02*
X6805000Y-10820000I-200000J0D01*
G01*
X6805000Y-10820000D02*
G75*
G02*
X7205000Y-10820000I200000J0D01*
G01*
X6805000Y-12525000D02*
X7205000Y-12925000D01*
X7205000Y-12525000D02*
X6805000Y-12925000D01*
X7205000Y-12725000D02*
G75*
G02*
X6805000Y-12725000I-200000J0D01*
G01*
X6805000Y-12725000D02*
G75*
G02*
X7205000Y-12725000I200000J0D01*
G01*
X6805000Y-14430000D02*
X7205000Y-14830000D01*
X7205000Y-14430000D02*
X6805000Y-14830000D01*
X7205000Y-14630000D02*
G75*
G02*
X6805000Y-14630000I-200000J0D01*
G01*
X6805000Y-14630000D02*
G75*
G02*
X7205000Y-14630000I200000J0D01*
G01*
X6805000Y-16335000D02*
X7205000Y-16735000D01*
X7205000Y-16335000D02*
X6805000Y-16735000D01*
X7205000Y-16535000D02*
G75*
G02*
X6805000Y-16535000I-200000J0D01*
G01*
X6805000Y-16535000D02*
G75*
G02*
X7205000Y-16535000I200000J0D01*
G01*
X8710000Y-10475000D02*
X9110000Y-10875000D01*
X9110000Y-10475000D02*
X8710000Y-10875000D01*
X9110000Y-10675000D02*
G75*
G02*
X8710000Y-10675000I-200000J0D01*
G01*
X8710000Y-10675000D02*
G75*
G02*
X9110000Y-10675000I200000J0D01*
G01*
X8710000Y-12380000D02*
X9110000Y-12780000D01*
X9110000Y-12380000D02*
X8710000Y-12780000D01*
X9110000Y-12580000D02*
G75*
G02*
X8710000Y-12580000I-200000J0D01*
G01*
X8710000Y-12580000D02*
G75*
G02*
X9110000Y-12580000I200000J0D01*
G01*
X8710000Y-14285000D02*
X9110000Y-14685000D01*
X9110000Y-14285000D02*
X8710000Y-14685000D01*
X9110000Y-14485000D02*
G75*
G02*
X8710000Y-14485000I-200000J0D01*
G01*
X8710000Y-14485000D02*
G75*
G02*
X9110000Y-14485000I200000J0D01*
G01*
X8710000Y-16190000D02*
X9110000Y-16590000D01*
X9110000Y-16190000D02*
X8710000Y-16590000D01*
X9110000Y-16390000D02*
G75*
G02*
X8710000Y-16390000I-200000J0D01*
G01*
X8710000Y-16390000D02*
G75*
G02*
X9110000Y-16390000I200000J0D01*
G01*
X10615000Y-9990000D02*
X11015000Y-10390000D01*
X11015000Y-9990000D02*
X10615000Y-10390000D01*
X11015000Y-10190000D02*
G75*
G02*
X10615000Y-10190000I-200000J0D01*
G01*
X10615000Y-10190000D02*
G75*
G02*
X11015000Y-10190000I200000J0D01*
G01*
X10615000Y-11895000D02*
X11015000Y-12295000D01*
X11015000Y-11895000D02*
X10615000Y-12295000D01*
X11015000Y-12095000D02*
G75*
G02*
X10615000Y-12095000I-200000J0D01*
G01*
X10615000Y-12095000D02*
G75*
G02*
X11015000Y-12095000I200000J0D01*
G01*
X10615000Y-13800000D02*
X11015000Y-14200000D01*
X11015000Y-13800000D02*
X10615000Y-14200000D01*
X11015000Y-14000000D02*
G75*
G02*
X10615000Y-14000000I-200000J0D01*
G01*
X10615000Y-14000000D02*
G75*
G02*
X11015000Y-14000000I200000J0D01*
G01*
X10615000Y-15705000D02*
X11015000Y-16105000D01*
X11015000Y-15705000D02*
X10615000Y-16105000D01*
X11015000Y-15905000D02*
G75*
G02*
X10615000Y-15905000I-200000J0D01*
G01*
X10615000Y-15905000D02*
G75*
G02*
X11015000Y-15905000I200000J0D01*
G01*
X11570000Y-17610000D02*
X11970000Y-18010000D01*
X11970000Y-17610000D02*
X11570000Y-18010000D01*
X11970000Y-17810000D02*
G75*
G02*
X11570000Y-17810000I-200000J0D01*
G01*
X11570000Y-17810000D02*
G75*
G02*
X11970000Y-17810000I200000J0D01*
G01*
X12520000Y-9850000D02*
X12920000Y-10250000D01*
X12920000Y-9850000D02*
X12520000Y-10250000D01*
X12920000Y-10050000D02*
G75*
G02*
X12520000Y-10050000I-200000J0D01*
G01*
X12520000Y-10050000D02*
G75*
G02*
X12920000Y-10050000I200000J0D01*
G01*
X12520000Y-11755000D02*
X12920000Y-12155000D01*
X12920000Y-11755000D02*
X12520000Y-12155000D01*
X12920000Y-11955000D02*
G75*
G02*
X12520000Y-11955000I-200000J0D01*
G01*
X12520000Y-11955000D02*
G75*
G02*
X12920000Y-11955000I200000J0D01*
G01*
X12520000Y-13660000D02*
X12920000Y-14060000D01*
X12920000Y-13660000D02*
X12520000Y-14060000D01*
X12920000Y-13860000D02*
G75*
G02*
X12520000Y-13860000I-200000J0D01*
G01*
X12520000Y-13860000D02*
G75*
G02*
X12920000Y-13860000I200000J0D01*
G01*
X12520000Y-15565000D02*
X12920000Y-15965000D01*
X12920000Y-15565000D02*
X12520000Y-15965000D01*
X12920000Y-15765000D02*
G75*
G02*
X12520000Y-15765000I-200000J0D01*
G01*
X12520000Y-15765000D02*
G75*
G02*
X12920000Y-15765000I200000J0D01*
G01*
X13475000Y-17610000D02*
X13875000Y-18010000D01*
X13875000Y-17610000D02*
X13475000Y-18010000D01*
X13875000Y-17810000D02*
G75*
G02*
X13475000Y-17810000I-200000J0D01*
G01*
X13475000Y-17810000D02*
G75*
G02*
X13875000Y-17810000I200000J0D01*
G01*
X14425000Y-9990000D02*
X14825000Y-10390000D01*
X14825000Y-9990000D02*
X14425000Y-10390000D01*
X14825000Y-10190000D02*
G75*
G02*
X14425000Y-10190000I-200000J0D01*
G01*
X14425000Y-10190000D02*
G75*
G02*
X14825000Y-10190000I200000J0D01*
G01*
X14425000Y-11895000D02*
X14825000Y-12295000D01*
X14825000Y-11895000D02*
X14425000Y-12295000D01*
X14825000Y-12095000D02*
G75*
G02*
X14425000Y-12095000I-200000J0D01*
G01*
X14425000Y-12095000D02*
G75*
G02*
X14825000Y-12095000I200000J0D01*
G01*
X14425000Y-13800000D02*
X14825000Y-14200000D01*
X14825000Y-13800000D02*
X14425000Y-14200000D01*
X14825000Y-14000000D02*
G75*
G02*
X14425000Y-14000000I-200000J0D01*
G01*
X14425000Y-14000000D02*
G75*
G02*
X14825000Y-14000000I200000J0D01*
G01*
X14425000Y-15705000D02*
X14825000Y-16105000D01*
X14825000Y-15705000D02*
X14425000Y-16105000D01*
X14825000Y-15905000D02*
G75*
G02*
X14425000Y-15905000I-200000J0D01*
G01*
X14425000Y-15905000D02*
G75*
G02*
X14825000Y-15905000I200000J0D01*
G01*
X15380000Y-17850000D02*
X15780000Y-18250000D01*
X15780000Y-17850000D02*
X15380000Y-18250000D01*
X15780000Y-18050000D02*
G75*
G02*
X15380000Y-18050000I-200000J0D01*
G01*
X15380000Y-18050000D02*
G75*
G02*
X15780000Y-18050000I200000J0D01*
G01*
X16330000Y-10230000D02*
X16730000Y-10630000D01*
X16730000Y-10230000D02*
X16330000Y-10630000D01*
X16730000Y-10430000D02*
G75*
G02*
X16330000Y-10430000I-200000J0D01*
G01*
X16330000Y-10430000D02*
G75*
G02*
X16730000Y-10430000I200000J0D01*
G01*
X16330000Y-12135000D02*
X16730000Y-12535000D01*
X16730000Y-12135000D02*
X16330000Y-12535000D01*
X16730000Y-12335000D02*
G75*
G02*
X16330000Y-12335000I-200000J0D01*
G01*
X16330000Y-12335000D02*
G75*
G02*
X16730000Y-12335000I200000J0D01*
G01*
X16330000Y-14040000D02*
X16730000Y-14440000D01*
X16730000Y-14040000D02*
X16330000Y-14440000D01*
X16730000Y-14240000D02*
G75*
G02*
X16330000Y-14240000I-200000J0D01*
G01*
X16330000Y-14240000D02*
G75*
G02*
X16730000Y-14240000I200000J0D01*
G01*
X16330000Y-15945000D02*
X16730000Y-16345000D01*
X16730000Y-15945000D02*
X16330000Y-16345000D01*
X16730000Y-16145000D02*
G75*
G02*
X16330000Y-16145000I-200000J0D01*
G01*
X16330000Y-16145000D02*
G75*
G02*
X16730000Y-16145000I200000J0D01*
G01*
X17880000Y-17930000D02*
X18280000Y-18330000D01*
X18280000Y-17930000D02*
X17880000Y-18330000D01*
X18280000Y-18130000D02*
G75*
G02*
X17880000Y-18130000I-200000J0D01*
G01*
X17880000Y-18130000D02*
G75*
G02*
X18280000Y-18130000I200000J0D01*
G01*
X18235000Y-14985000D02*
X18635000Y-15385000D01*
X18635000Y-14985000D02*
X18235000Y-15385000D01*
X18635000Y-15185000D02*
G75*
G02*
X18235000Y-15185000I-200000J0D01*
G01*
X18235000Y-15185000D02*
G75*
G02*
X18635000Y-15185000I200000J0D01*
G01*
X22190600Y-14985000D02*
X22590600Y-15385000D01*
X22590600Y-14985000D02*
X22190600Y-15385000D01*
X22590600Y-15185000D02*
G75*
G02*
X22190600Y-15185000I-200000J0D01*
G01*
X22190600Y-15185000D02*
G75*
G02*
X22590600Y-15185000I200000J0D01*
G01*
X22545600Y-17930000D02*
X22945600Y-18330000D01*
X22945600Y-17930000D02*
X22545600Y-18330000D01*
X22945600Y-18130000D02*
G75*
G02*
X22545600Y-18130000I-200000J0D01*
G01*
X22545600Y-18130000D02*
G75*
G02*
X22945600Y-18130000I200000J0D01*
G01*
X24095600Y-10230000D02*
X24495600Y-10630000D01*
X24495600Y-10230000D02*
X24095600Y-10630000D01*
X24495600Y-10430000D02*
G75*
G02*
X24095600Y-10430000I-200000J0D01*
G01*
X24095600Y-10430000D02*
G75*
G02*
X24495600Y-10430000I200000J0D01*
G01*
X24095600Y-12135000D02*
X24495600Y-12535000D01*
X24495600Y-12135000D02*
X24095600Y-12535000D01*
X24495600Y-12335000D02*
G75*
G02*
X24095600Y-12335000I-200000J0D01*
G01*
X24095600Y-12335000D02*
G75*
G02*
X24495600Y-12335000I200000J0D01*
G01*
X24095600Y-14040000D02*
X24495600Y-14440000D01*
X24495600Y-14040000D02*
X24095600Y-14440000D01*
X24495600Y-14240000D02*
G75*
G02*
X24095600Y-14240000I-200000J0D01*
G01*
X24095600Y-14240000D02*
G75*
G02*
X24495600Y-14240000I200000J0D01*
G01*
X24095600Y-15945000D02*
X24495600Y-16345000D01*
X24495600Y-15945000D02*
X24095600Y-16345000D01*
X24495600Y-16145000D02*
G75*
G02*
X24095600Y-16145000I-200000J0D01*
G01*
X24095600Y-16145000D02*
G75*
G02*
X24495600Y-16145000I200000J0D01*
G01*
X25045600Y-17850000D02*
X25445600Y-18250000D01*
X25445600Y-17850000D02*
X25045600Y-18250000D01*
X25445600Y-18050000D02*
G75*
G02*
X25045600Y-18050000I-200000J0D01*
G01*
X25045600Y-18050000D02*
G75*
G02*
X25445600Y-18050000I200000J0D01*
G01*
X26000600Y-9990000D02*
X26400600Y-10390000D01*
X26400600Y-9990000D02*
X26000600Y-10390000D01*
X26400600Y-10190000D02*
G75*
G02*
X26000600Y-10190000I-200000J0D01*
G01*
X26000600Y-10190000D02*
G75*
G02*
X26400600Y-10190000I200000J0D01*
G01*
X26000600Y-11895000D02*
X26400600Y-12295000D01*
X26400600Y-11895000D02*
X26000600Y-12295000D01*
X26400600Y-12095000D02*
G75*
G02*
X26000600Y-12095000I-200000J0D01*
G01*
X26000600Y-12095000D02*
G75*
G02*
X26400600Y-12095000I200000J0D01*
G01*
X26000600Y-13800000D02*
X26400600Y-14200000D01*
X26400600Y-13800000D02*
X26000600Y-14200000D01*
X26400600Y-14000000D02*
G75*
G02*
X26000600Y-14000000I-200000J0D01*
G01*
X26000600Y-14000000D02*
G75*
G02*
X26400600Y-14000000I200000J0D01*
G01*
X26000600Y-15705000D02*
X26400600Y-16105000D01*
X26400600Y-15705000D02*
X26000600Y-16105000D01*
X26400600Y-15905000D02*
G75*
G02*
X26000600Y-15905000I-200000J0D01*
G01*
X26000600Y-15905000D02*
G75*
G02*
X26400600Y-15905000I200000J0D01*
G01*
X26950600Y-17610000D02*
X27350600Y-18010000D01*
X27350600Y-17610000D02*
X26950600Y-18010000D01*
X27350600Y-17810000D02*
G75*
G02*
X26950600Y-17810000I-200000J0D01*
G01*
X26950600Y-17810000D02*
G75*
G02*
X27350600Y-17810000I200000J0D01*
G01*
X27905600Y-9850000D02*
X28305600Y-10250000D01*
X28305600Y-9850000D02*
X27905600Y-10250000D01*
X28305600Y-10050000D02*
G75*
G02*
X27905600Y-10050000I-200000J0D01*
G01*
X27905600Y-10050000D02*
G75*
G02*
X28305600Y-10050000I200000J0D01*
G01*
X27905600Y-11755000D02*
X28305600Y-12155000D01*
X28305600Y-11755000D02*
X27905600Y-12155000D01*
X28305600Y-11955000D02*
G75*
G02*
X27905600Y-11955000I-200000J0D01*
G01*
X27905600Y-11955000D02*
G75*
G02*
X28305600Y-11955000I200000J0D01*
G01*
X27905600Y-13660000D02*
X28305600Y-14060000D01*
X28305600Y-13660000D02*
X27905600Y-14060000D01*
X28305600Y-13860000D02*
G75*
G02*
X27905600Y-13860000I-200000J0D01*
G01*
X27905600Y-13860000D02*
G75*
G02*
X28305600Y-13860000I200000J0D01*
G01*
X27905600Y-15565000D02*
X28305600Y-15965000D01*
X28305600Y-15565000D02*
X27905600Y-15965000D01*
X28305600Y-15765000D02*
G75*
G02*
X27905600Y-15765000I-200000J0D01*
G01*
X27905600Y-15765000D02*
G75*
G02*
X28305600Y-15765000I200000J0D01*
G01*
X28855600Y-17610000D02*
X29255600Y-18010000D01*
X29255600Y-17610000D02*
X28855600Y-18010000D01*
X29255600Y-17810000D02*
G75*
G02*
X28855600Y-17810000I-200000J0D01*
G01*
X28855600Y-17810000D02*
G75*
G02*
X29255600Y-17810000I200000J0D01*
G01*
X29810600Y-9990000D02*
X30210600Y-10390000D01*
X30210600Y-9990000D02*
X29810600Y-10390000D01*
X30210600Y-10190000D02*
G75*
G02*
X29810600Y-10190000I-200000J0D01*
G01*
X29810600Y-10190000D02*
G75*
G02*
X30210600Y-10190000I200000J0D01*
G01*
X29810600Y-11895000D02*
X30210600Y-12295000D01*
X30210600Y-11895000D02*
X29810600Y-12295000D01*
X30210600Y-12095000D02*
G75*
G02*
X29810600Y-12095000I-200000J0D01*
G01*
X29810600Y-12095000D02*
G75*
G02*
X30210600Y-12095000I200000J0D01*
G01*
X29810600Y-13800000D02*
X30210600Y-14200000D01*
X30210600Y-13800000D02*
X29810600Y-14200000D01*
X30210600Y-14000000D02*
G75*
G02*
X29810600Y-14000000I-200000J0D01*
G01*
X29810600Y-14000000D02*
G75*
G02*
X30210600Y-14000000I200000J0D01*
G01*
X29810600Y-15705000D02*
X30210600Y-16105000D01*
X30210600Y-15705000D02*
X29810600Y-16105000D01*
X30210600Y-15905000D02*
G75*
G02*
X29810600Y-15905000I-200000J0D01*
G01*
X29810600Y-15905000D02*
G75*
G02*
X30210600Y-15905000I200000J0D01*
G01*
X31715600Y-10475000D02*
X32115600Y-10875000D01*
X32115600Y-10475000D02*
X31715600Y-10875000D01*
X32115600Y-10675000D02*
G75*
G02*
X31715600Y-10675000I-200000J0D01*
G01*
X31715600Y-10675000D02*
G75*
G02*
X32115600Y-10675000I200000J0D01*
G01*
X31715600Y-12380000D02*
X32115600Y-12780000D01*
X32115600Y-12380000D02*
X31715600Y-12780000D01*
X32115600Y-12580000D02*
G75*
G02*
X31715600Y-12580000I-200000J0D01*
G01*
X31715600Y-12580000D02*
G75*
G02*
X32115600Y-12580000I200000J0D01*
G01*
X31715600Y-14285000D02*
X32115600Y-14685000D01*
X32115600Y-14285000D02*
X31715600Y-14685000D01*
X32115600Y-14485000D02*
G75*
G02*
X31715600Y-14485000I-200000J0D01*
G01*
X31715600Y-14485000D02*
G75*
G02*
X32115600Y-14485000I200000J0D01*
G01*
X31715600Y-16190000D02*
X32115600Y-16590000D01*
X32115600Y-16190000D02*
X31715600Y-16590000D01*
X32115600Y-16390000D02*
G75*
G02*
X31715600Y-16390000I-200000J0D01*
G01*
X31715600Y-16390000D02*
G75*
G02*
X32115600Y-16390000I200000J0D01*
G01*
X33620600Y-10620000D02*
X34020600Y-11020000D01*
X34020600Y-10620000D02*
X33620600Y-11020000D01*
X34020600Y-10820000D02*
G75*
G02*
X33620600Y-10820000I-200000J0D01*
G01*
X33620600Y-10820000D02*
G75*
G02*
X34020600Y-10820000I200000J0D01*
G01*
X33620600Y-12525000D02*
X34020600Y-12925000D01*
X34020600Y-12525000D02*
X33620600Y-12925000D01*
X34020600Y-12725000D02*
G75*
G02*
X33620600Y-12725000I-200000J0D01*
G01*
X33620600Y-12725000D02*
G75*
G02*
X34020600Y-12725000I200000J0D01*
G01*
X33620600Y-14430000D02*
X34020600Y-14830000D01*
X34020600Y-14430000D02*
X33620600Y-14830000D01*
X34020600Y-14630000D02*
G75*
G02*
X33620600Y-14630000I-200000J0D01*
G01*
X33620600Y-14630000D02*
G75*
G02*
X34020600Y-14630000I200000J0D01*
G01*
X33620600Y-16335000D02*
X34020600Y-16735000D01*
X34020600Y-16335000D02*
X33620600Y-16735000D01*
X34020600Y-16535000D02*
G75*
G02*
X33620600Y-16535000I-200000J0D01*
G01*
X33620600Y-16535000D02*
G75*
G02*
X34020600Y-16535000I200000J0D01*
G01*
D12*
X6247127Y-21319134D02*
X6247127Y-21119134D01*
X6247127Y-21119134D02*
X6294746Y-21119134D01*
X6294746Y-21119134D02*
X6323317Y-21128658D01*
X6323317Y-21128658D02*
X6342365Y-21147705D01*
X6342365Y-21147705D02*
X6351889Y-21166753D01*
X6351889Y-21166753D02*
X6361412Y-21204848D01*
X6361412Y-21204848D02*
X6361412Y-21233420D01*
X6361412Y-21233420D02*
X6351889Y-21271515D01*
X6351889Y-21271515D02*
X6342365Y-21290562D01*
X6342365Y-21290562D02*
X6323317Y-21309610D01*
X6323317Y-21309610D02*
X6294746Y-21319134D01*
X6294746Y-21319134D02*
X6247127Y-21319134D01*
X6447127Y-21319134D02*
X6447127Y-21185800D01*
X6447127Y-21223896D02*
X6456651Y-21204848D01*
X6456651Y-21204848D02*
X6466174Y-21195324D01*
X6466174Y-21195324D02*
X6485222Y-21185800D01*
X6485222Y-21185800D02*
X6504270Y-21185800D01*
X6570936Y-21319134D02*
X6570936Y-21185800D01*
X6570936Y-21119134D02*
X6561412Y-21128658D01*
X6561412Y-21128658D02*
X6570936Y-21138181D01*
X6570936Y-21138181D02*
X6580460Y-21128658D01*
X6580460Y-21128658D02*
X6570936Y-21119134D01*
X6570936Y-21119134D02*
X6570936Y-21138181D01*
X6694746Y-21319134D02*
X6675698Y-21309610D01*
X6675698Y-21309610D02*
X6666174Y-21290562D01*
X6666174Y-21290562D02*
X6666174Y-21119134D01*
X6799508Y-21319134D02*
X6780460Y-21309610D01*
X6780460Y-21309610D02*
X6770936Y-21290562D01*
X6770936Y-21290562D02*
X6770936Y-21119134D01*
X7028079Y-21319134D02*
X7028079Y-21119134D01*
X7028079Y-21119134D02*
X7094746Y-21261991D01*
X7094746Y-21261991D02*
X7161412Y-21119134D01*
X7161412Y-21119134D02*
X7161412Y-21319134D01*
X7342365Y-21319134D02*
X7342365Y-21214372D01*
X7342365Y-21214372D02*
X7332841Y-21195324D01*
X7332841Y-21195324D02*
X7313793Y-21185800D01*
X7313793Y-21185800D02*
X7275698Y-21185800D01*
X7275698Y-21185800D02*
X7256651Y-21195324D01*
X7342365Y-21309610D02*
X7323317Y-21319134D01*
X7323317Y-21319134D02*
X7275698Y-21319134D01*
X7275698Y-21319134D02*
X7256651Y-21309610D01*
X7256651Y-21309610D02*
X7247127Y-21290562D01*
X7247127Y-21290562D02*
X7247127Y-21271515D01*
X7247127Y-21271515D02*
X7256651Y-21252467D01*
X7256651Y-21252467D02*
X7275698Y-21242943D01*
X7275698Y-21242943D02*
X7323317Y-21242943D01*
X7323317Y-21242943D02*
X7342365Y-21233420D01*
X7437603Y-21185800D02*
X7437603Y-21385800D01*
X7437603Y-21195324D02*
X7456651Y-21185800D01*
X7456651Y-21185800D02*
X7494746Y-21185800D01*
X7494746Y-21185800D02*
X7513793Y-21195324D01*
X7513793Y-21195324D02*
X7523317Y-21204848D01*
X7523317Y-21204848D02*
X7532841Y-21223896D01*
X7532841Y-21223896D02*
X7532841Y-21281039D01*
X7532841Y-21281039D02*
X7523317Y-21300086D01*
X7523317Y-21300086D02*
X7513793Y-21309610D01*
X7513793Y-21309610D02*
X7494746Y-21319134D01*
X7494746Y-21319134D02*
X7456651Y-21319134D01*
X7456651Y-21319134D02*
X7437603Y-21309610D01*
X7618555Y-21300086D02*
X7628079Y-21309610D01*
X7628079Y-21309610D02*
X7618555Y-21319134D01*
X7618555Y-21319134D02*
X7609032Y-21309610D01*
X7609032Y-21309610D02*
X7618555Y-21300086D01*
X7618555Y-21300086D02*
X7618555Y-21319134D01*
X7618555Y-21195324D02*
X7628079Y-21204848D01*
X7628079Y-21204848D02*
X7618555Y-21214372D01*
X7618555Y-21214372D02*
X7609032Y-21204848D01*
X7609032Y-21204848D02*
X7618555Y-21195324D01*
X7618555Y-21195324D02*
X7618555Y-21214372D01*
D13*
X5926350Y-21617650D02*
X5986350Y-21677650D01*
X5986350Y-21617650D02*
X5926350Y-21677650D01*
D12*
X6285222Y-21539134D02*
X6304270Y-21539134D01*
X6304270Y-21539134D02*
X6323317Y-21548658D01*
X6323317Y-21548658D02*
X6332841Y-21558181D01*
X6332841Y-21558181D02*
X6342365Y-21577229D01*
X6342365Y-21577229D02*
X6351889Y-21615324D01*
X6351889Y-21615324D02*
X6351889Y-21662943D01*
X6351889Y-21662943D02*
X6342365Y-21701039D01*
X6342365Y-21701039D02*
X6332841Y-21720086D01*
X6332841Y-21720086D02*
X6323317Y-21729610D01*
X6323317Y-21729610D02*
X6304270Y-21739134D01*
X6304270Y-21739134D02*
X6285222Y-21739134D01*
X6285222Y-21739134D02*
X6266174Y-21729610D01*
X6266174Y-21729610D02*
X6256651Y-21720086D01*
X6256651Y-21720086D02*
X6247127Y-21701039D01*
X6247127Y-21701039D02*
X6237603Y-21662943D01*
X6237603Y-21662943D02*
X6237603Y-21615324D01*
X6237603Y-21615324D02*
X6247127Y-21577229D01*
X6247127Y-21577229D02*
X6256651Y-21558181D01*
X6256651Y-21558181D02*
X6266174Y-21548658D01*
X6266174Y-21548658D02*
X6285222Y-21539134D01*
X6437603Y-21720086D02*
X6447127Y-21729610D01*
X6447127Y-21729610D02*
X6437603Y-21739134D01*
X6437603Y-21739134D02*
X6428079Y-21729610D01*
X6428079Y-21729610D02*
X6437603Y-21720086D01*
X6437603Y-21720086D02*
X6437603Y-21739134D01*
X6618555Y-21539134D02*
X6580460Y-21539134D01*
X6580460Y-21539134D02*
X6561412Y-21548658D01*
X6561412Y-21548658D02*
X6551889Y-21558181D01*
X6551889Y-21558181D02*
X6532841Y-21586753D01*
X6532841Y-21586753D02*
X6523317Y-21624848D01*
X6523317Y-21624848D02*
X6523317Y-21701039D01*
X6523317Y-21701039D02*
X6532841Y-21720086D01*
X6532841Y-21720086D02*
X6542365Y-21729610D01*
X6542365Y-21729610D02*
X6561412Y-21739134D01*
X6561412Y-21739134D02*
X6599508Y-21739134D01*
X6599508Y-21739134D02*
X6618555Y-21729610D01*
X6618555Y-21729610D02*
X6628079Y-21720086D01*
X6628079Y-21720086D02*
X6637603Y-21701039D01*
X6637603Y-21701039D02*
X6637603Y-21653420D01*
X6637603Y-21653420D02*
X6628079Y-21634372D01*
X6628079Y-21634372D02*
X6618555Y-21624848D01*
X6618555Y-21624848D02*
X6599508Y-21615324D01*
X6599508Y-21615324D02*
X6561412Y-21615324D01*
X6561412Y-21615324D02*
X6542365Y-21624848D01*
X6542365Y-21624848D02*
X6532841Y-21634372D01*
X6532841Y-21634372D02*
X6523317Y-21653420D01*
X6761412Y-21539134D02*
X6780460Y-21539134D01*
X6780460Y-21539134D02*
X6799508Y-21548658D01*
X6799508Y-21548658D02*
X6809032Y-21558181D01*
X6809032Y-21558181D02*
X6818555Y-21577229D01*
X6818555Y-21577229D02*
X6828079Y-21615324D01*
X6828079Y-21615324D02*
X6828079Y-21662943D01*
X6828079Y-21662943D02*
X6818555Y-21701039D01*
X6818555Y-21701039D02*
X6809032Y-21720086D01*
X6809032Y-21720086D02*
X6799508Y-21729610D01*
X6799508Y-21729610D02*
X6780460Y-21739134D01*
X6780460Y-21739134D02*
X6761412Y-21739134D01*
X6761412Y-21739134D02*
X6742365Y-21729610D01*
X6742365Y-21729610D02*
X6732841Y-21720086D01*
X6732841Y-21720086D02*
X6723317Y-21701039D01*
X6723317Y-21701039D02*
X6713793Y-21662943D01*
X6713793Y-21662943D02*
X6713793Y-21615324D01*
X6713793Y-21615324D02*
X6723317Y-21577229D01*
X6723317Y-21577229D02*
X6732841Y-21558181D01*
X6732841Y-21558181D02*
X6742365Y-21548658D01*
X6742365Y-21548658D02*
X6761412Y-21539134D01*
X6951889Y-21539134D02*
X6970936Y-21539134D01*
X6970936Y-21539134D02*
X6989984Y-21548658D01*
X6989984Y-21548658D02*
X6999508Y-21558181D01*
X6999508Y-21558181D02*
X7009032Y-21577229D01*
X7009032Y-21577229D02*
X7018555Y-21615324D01*
X7018555Y-21615324D02*
X7018555Y-21662943D01*
X7018555Y-21662943D02*
X7009032Y-21701039D01*
X7009032Y-21701039D02*
X6999508Y-21720086D01*
X6999508Y-21720086D02*
X6989984Y-21729610D01*
X6989984Y-21729610D02*
X6970936Y-21739134D01*
X6970936Y-21739134D02*
X6951889Y-21739134D01*
X6951889Y-21739134D02*
X6932841Y-21729610D01*
X6932841Y-21729610D02*
X6923317Y-21720086D01*
X6923317Y-21720086D02*
X6913793Y-21701039D01*
X6913793Y-21701039D02*
X6904270Y-21662943D01*
X6904270Y-21662943D02*
X6904270Y-21615324D01*
X6904270Y-21615324D02*
X6913793Y-21577229D01*
X6913793Y-21577229D02*
X6923317Y-21558181D01*
X6923317Y-21558181D02*
X6932841Y-21548658D01*
X6932841Y-21548658D02*
X6951889Y-21539134D01*
X7104270Y-21739134D02*
X7104270Y-21605800D01*
X7104270Y-21624848D02*
X7113793Y-21615324D01*
X7113793Y-21615324D02*
X7132841Y-21605800D01*
X7132841Y-21605800D02*
X7161413Y-21605800D01*
X7161413Y-21605800D02*
X7180460Y-21615324D01*
X7180460Y-21615324D02*
X7189984Y-21634372D01*
X7189984Y-21634372D02*
X7189984Y-21739134D01*
X7189984Y-21634372D02*
X7199508Y-21615324D01*
X7199508Y-21615324D02*
X7218555Y-21605800D01*
X7218555Y-21605800D02*
X7247127Y-21605800D01*
X7247127Y-21605800D02*
X7266174Y-21615324D01*
X7266174Y-21615324D02*
X7275698Y-21634372D01*
X7275698Y-21634372D02*
X7275698Y-21739134D01*
X7370936Y-21739134D02*
X7370936Y-21605800D01*
X7370936Y-21624848D02*
X7380460Y-21615324D01*
X7380460Y-21615324D02*
X7399508Y-21605800D01*
X7399508Y-21605800D02*
X7428079Y-21605800D01*
X7428079Y-21605800D02*
X7447127Y-21615324D01*
X7447127Y-21615324D02*
X7456651Y-21634372D01*
X7456651Y-21634372D02*
X7456651Y-21739134D01*
X7456651Y-21634372D02*
X7466174Y-21615324D01*
X7466174Y-21615324D02*
X7485222Y-21605800D01*
X7485222Y-21605800D02*
X7513793Y-21605800D01*
X7513793Y-21605800D02*
X7532841Y-21615324D01*
X7532841Y-21615324D02*
X7542365Y-21634372D01*
X7542365Y-21634372D02*
X7542365Y-21739134D01*
X7932841Y-21529610D02*
X7761413Y-21786753D01*
X8189984Y-21539134D02*
X8209032Y-21539134D01*
X8209032Y-21539134D02*
X8228079Y-21548658D01*
X8228079Y-21548658D02*
X8237603Y-21558181D01*
X8237603Y-21558181D02*
X8247127Y-21577229D01*
X8247127Y-21577229D02*
X8256651Y-21615324D01*
X8256651Y-21615324D02*
X8256651Y-21662943D01*
X8256651Y-21662943D02*
X8247127Y-21701039D01*
X8247127Y-21701039D02*
X8237603Y-21720086D01*
X8237603Y-21720086D02*
X8228079Y-21729610D01*
X8228079Y-21729610D02*
X8209032Y-21739134D01*
X8209032Y-21739134D02*
X8189984Y-21739134D01*
X8189984Y-21739134D02*
X8170936Y-21729610D01*
X8170936Y-21729610D02*
X8161413Y-21720086D01*
X8161413Y-21720086D02*
X8151889Y-21701039D01*
X8151889Y-21701039D02*
X8142365Y-21662943D01*
X8142365Y-21662943D02*
X8142365Y-21615324D01*
X8142365Y-21615324D02*
X8151889Y-21577229D01*
X8151889Y-21577229D02*
X8161413Y-21558181D01*
X8161413Y-21558181D02*
X8170936Y-21548658D01*
X8170936Y-21548658D02*
X8189984Y-21539134D01*
X8342365Y-21720086D02*
X8351889Y-21729610D01*
X8351889Y-21729610D02*
X8342365Y-21739134D01*
X8342365Y-21739134D02*
X8332841Y-21729610D01*
X8332841Y-21729610D02*
X8342365Y-21720086D01*
X8342365Y-21720086D02*
X8342365Y-21739134D01*
X8475698Y-21539134D02*
X8494746Y-21539134D01*
X8494746Y-21539134D02*
X8513794Y-21548658D01*
X8513794Y-21548658D02*
X8523318Y-21558181D01*
X8523318Y-21558181D02*
X8532841Y-21577229D01*
X8532841Y-21577229D02*
X8542365Y-21615324D01*
X8542365Y-21615324D02*
X8542365Y-21662943D01*
X8542365Y-21662943D02*
X8532841Y-21701039D01*
X8532841Y-21701039D02*
X8523318Y-21720086D01*
X8523318Y-21720086D02*
X8513794Y-21729610D01*
X8513794Y-21729610D02*
X8494746Y-21739134D01*
X8494746Y-21739134D02*
X8475698Y-21739134D01*
X8475698Y-21739134D02*
X8456651Y-21729610D01*
X8456651Y-21729610D02*
X8447127Y-21720086D01*
X8447127Y-21720086D02*
X8437603Y-21701039D01*
X8437603Y-21701039D02*
X8428079Y-21662943D01*
X8428079Y-21662943D02*
X8428079Y-21615324D01*
X8428079Y-21615324D02*
X8437603Y-21577229D01*
X8437603Y-21577229D02*
X8447127Y-21558181D01*
X8447127Y-21558181D02*
X8456651Y-21548658D01*
X8456651Y-21548658D02*
X8475698Y-21539134D01*
X8618556Y-21558181D02*
X8628079Y-21548658D01*
X8628079Y-21548658D02*
X8647127Y-21539134D01*
X8647127Y-21539134D02*
X8694746Y-21539134D01*
X8694746Y-21539134D02*
X8713794Y-21548658D01*
X8713794Y-21548658D02*
X8723318Y-21558181D01*
X8723318Y-21558181D02*
X8732841Y-21577229D01*
X8732841Y-21577229D02*
X8732841Y-21596277D01*
X8732841Y-21596277D02*
X8723318Y-21624848D01*
X8723318Y-21624848D02*
X8609032Y-21739134D01*
X8609032Y-21739134D02*
X8732841Y-21739134D01*
X8799508Y-21539134D02*
X8923318Y-21539134D01*
X8923318Y-21539134D02*
X8856651Y-21615324D01*
X8856651Y-21615324D02*
X8885222Y-21615324D01*
X8885222Y-21615324D02*
X8904270Y-21624848D01*
X8904270Y-21624848D02*
X8913794Y-21634372D01*
X8913794Y-21634372D02*
X8923318Y-21653420D01*
X8923318Y-21653420D02*
X8923318Y-21701039D01*
X8923318Y-21701039D02*
X8913794Y-21720086D01*
X8913794Y-21720086D02*
X8904270Y-21729610D01*
X8904270Y-21729610D02*
X8885222Y-21739134D01*
X8885222Y-21739134D02*
X8828079Y-21739134D01*
X8828079Y-21739134D02*
X8809032Y-21729610D01*
X8809032Y-21729610D02*
X8799508Y-21720086D01*
X9094746Y-21539134D02*
X9056651Y-21539134D01*
X9056651Y-21539134D02*
X9037603Y-21548658D01*
X9037603Y-21548658D02*
X9028079Y-21558181D01*
X9028079Y-21558181D02*
X9009032Y-21586753D01*
X9009032Y-21586753D02*
X8999508Y-21624848D01*
X8999508Y-21624848D02*
X8999508Y-21701039D01*
X8999508Y-21701039D02*
X9009032Y-21720086D01*
X9009032Y-21720086D02*
X9018556Y-21729610D01*
X9018556Y-21729610D02*
X9037603Y-21739134D01*
X9037603Y-21739134D02*
X9075699Y-21739134D01*
X9075699Y-21739134D02*
X9094746Y-21729610D01*
X9094746Y-21729610D02*
X9104270Y-21720086D01*
X9104270Y-21720086D02*
X9113794Y-21701039D01*
X9113794Y-21701039D02*
X9113794Y-21653420D01*
X9113794Y-21653420D02*
X9104270Y-21634372D01*
X9104270Y-21634372D02*
X9094746Y-21624848D01*
X9094746Y-21624848D02*
X9075699Y-21615324D01*
X9075699Y-21615324D02*
X9037603Y-21615324D01*
X9037603Y-21615324D02*
X9018556Y-21624848D01*
X9018556Y-21624848D02*
X9009032Y-21634372D01*
X9009032Y-21634372D02*
X8999508Y-21653420D01*
X9189984Y-21539134D02*
X9189984Y-21577229D01*
X9266175Y-21539134D02*
X9266175Y-21577229D01*
X9561413Y-21815324D02*
X9551889Y-21805800D01*
X9551889Y-21805800D02*
X9532841Y-21777229D01*
X9532841Y-21777229D02*
X9523318Y-21758181D01*
X9523318Y-21758181D02*
X9513794Y-21729610D01*
X9513794Y-21729610D02*
X9504270Y-21681991D01*
X9504270Y-21681991D02*
X9504270Y-21643896D01*
X9504270Y-21643896D02*
X9513794Y-21596277D01*
X9513794Y-21596277D02*
X9523318Y-21567705D01*
X9523318Y-21567705D02*
X9532841Y-21548658D01*
X9532841Y-21548658D02*
X9551889Y-21520086D01*
X9551889Y-21520086D02*
X9561413Y-21510562D01*
X9723318Y-21605800D02*
X9723318Y-21739134D01*
X9675699Y-21529610D02*
X9628080Y-21672467D01*
X9628080Y-21672467D02*
X9751889Y-21672467D01*
X9856651Y-21624848D02*
X9837603Y-21615324D01*
X9837603Y-21615324D02*
X9828080Y-21605800D01*
X9828080Y-21605800D02*
X9818556Y-21586753D01*
X9818556Y-21586753D02*
X9818556Y-21577229D01*
X9818556Y-21577229D02*
X9828080Y-21558181D01*
X9828080Y-21558181D02*
X9837603Y-21548658D01*
X9837603Y-21548658D02*
X9856651Y-21539134D01*
X9856651Y-21539134D02*
X9894746Y-21539134D01*
X9894746Y-21539134D02*
X9913794Y-21548658D01*
X9913794Y-21548658D02*
X9923318Y-21558181D01*
X9923318Y-21558181D02*
X9932841Y-21577229D01*
X9932841Y-21577229D02*
X9932841Y-21586753D01*
X9932841Y-21586753D02*
X9923318Y-21605800D01*
X9923318Y-21605800D02*
X9913794Y-21615324D01*
X9913794Y-21615324D02*
X9894746Y-21624848D01*
X9894746Y-21624848D02*
X9856651Y-21624848D01*
X9856651Y-21624848D02*
X9837603Y-21634372D01*
X9837603Y-21634372D02*
X9828080Y-21643896D01*
X9828080Y-21643896D02*
X9818556Y-21662943D01*
X9818556Y-21662943D02*
X9818556Y-21701039D01*
X9818556Y-21701039D02*
X9828080Y-21720086D01*
X9828080Y-21720086D02*
X9837603Y-21729610D01*
X9837603Y-21729610D02*
X9856651Y-21739134D01*
X9856651Y-21739134D02*
X9894746Y-21739134D01*
X9894746Y-21739134D02*
X9913794Y-21729610D01*
X9913794Y-21729610D02*
X9923318Y-21720086D01*
X9923318Y-21720086D02*
X9932841Y-21701039D01*
X9932841Y-21701039D02*
X9932841Y-21662943D01*
X9932841Y-21662943D02*
X9923318Y-21643896D01*
X9923318Y-21643896D02*
X9913794Y-21634372D01*
X9913794Y-21634372D02*
X9894746Y-21624848D01*
X10170937Y-21739134D02*
X10170937Y-21539134D01*
X10256651Y-21739134D02*
X10256651Y-21634372D01*
X10256651Y-21634372D02*
X10247127Y-21615324D01*
X10247127Y-21615324D02*
X10228080Y-21605800D01*
X10228080Y-21605800D02*
X10199508Y-21605800D01*
X10199508Y-21605800D02*
X10180461Y-21615324D01*
X10180461Y-21615324D02*
X10170937Y-21624848D01*
X10380461Y-21739134D02*
X10361413Y-21729610D01*
X10361413Y-21729610D02*
X10351889Y-21720086D01*
X10351889Y-21720086D02*
X10342365Y-21701039D01*
X10342365Y-21701039D02*
X10342365Y-21643896D01*
X10342365Y-21643896D02*
X10351889Y-21624848D01*
X10351889Y-21624848D02*
X10361413Y-21615324D01*
X10361413Y-21615324D02*
X10380461Y-21605800D01*
X10380461Y-21605800D02*
X10409032Y-21605800D01*
X10409032Y-21605800D02*
X10428080Y-21615324D01*
X10428080Y-21615324D02*
X10437603Y-21624848D01*
X10437603Y-21624848D02*
X10447127Y-21643896D01*
X10447127Y-21643896D02*
X10447127Y-21701039D01*
X10447127Y-21701039D02*
X10437603Y-21720086D01*
X10437603Y-21720086D02*
X10428080Y-21729610D01*
X10428080Y-21729610D02*
X10409032Y-21739134D01*
X10409032Y-21739134D02*
X10380461Y-21739134D01*
X10561413Y-21739134D02*
X10542365Y-21729610D01*
X10542365Y-21729610D02*
X10532842Y-21710562D01*
X10532842Y-21710562D02*
X10532842Y-21539134D01*
X10713794Y-21729610D02*
X10694746Y-21739134D01*
X10694746Y-21739134D02*
X10656651Y-21739134D01*
X10656651Y-21739134D02*
X10637603Y-21729610D01*
X10637603Y-21729610D02*
X10628080Y-21710562D01*
X10628080Y-21710562D02*
X10628080Y-21634372D01*
X10628080Y-21634372D02*
X10637603Y-21615324D01*
X10637603Y-21615324D02*
X10656651Y-21605800D01*
X10656651Y-21605800D02*
X10694746Y-21605800D01*
X10694746Y-21605800D02*
X10713794Y-21615324D01*
X10713794Y-21615324D02*
X10723318Y-21634372D01*
X10723318Y-21634372D02*
X10723318Y-21653420D01*
X10723318Y-21653420D02*
X10628080Y-21672467D01*
X10799508Y-21729610D02*
X10818556Y-21739134D01*
X10818556Y-21739134D02*
X10856651Y-21739134D01*
X10856651Y-21739134D02*
X10875699Y-21729610D01*
X10875699Y-21729610D02*
X10885223Y-21710562D01*
X10885223Y-21710562D02*
X10885223Y-21701039D01*
X10885223Y-21701039D02*
X10875699Y-21681991D01*
X10875699Y-21681991D02*
X10856651Y-21672467D01*
X10856651Y-21672467D02*
X10828080Y-21672467D01*
X10828080Y-21672467D02*
X10809032Y-21662943D01*
X10809032Y-21662943D02*
X10799508Y-21643896D01*
X10799508Y-21643896D02*
X10799508Y-21634372D01*
X10799508Y-21634372D02*
X10809032Y-21615324D01*
X10809032Y-21615324D02*
X10828080Y-21605800D01*
X10828080Y-21605800D02*
X10856651Y-21605800D01*
X10856651Y-21605800D02*
X10875699Y-21615324D01*
X10951889Y-21815324D02*
X10961413Y-21805800D01*
X10961413Y-21805800D02*
X10980461Y-21777229D01*
X10980461Y-21777229D02*
X10989984Y-21758181D01*
X10989984Y-21758181D02*
X10999508Y-21729610D01*
X10999508Y-21729610D02*
X11009032Y-21681991D01*
X11009032Y-21681991D02*
X11009032Y-21643896D01*
X11009032Y-21643896D02*
X10999508Y-21596277D01*
X10999508Y-21596277D02*
X10989984Y-21567705D01*
X10989984Y-21567705D02*
X10980461Y-21548658D01*
X10980461Y-21548658D02*
X10961413Y-21520086D01*
X10961413Y-21520086D02*
X10951889Y-21510562D01*
X11313794Y-21815324D02*
X11304270Y-21805800D01*
X11304270Y-21805800D02*
X11285222Y-21777229D01*
X11285222Y-21777229D02*
X11275699Y-21758181D01*
X11275699Y-21758181D02*
X11266175Y-21729610D01*
X11266175Y-21729610D02*
X11256651Y-21681991D01*
X11256651Y-21681991D02*
X11256651Y-21643896D01*
X11256651Y-21643896D02*
X11266175Y-21596277D01*
X11266175Y-21596277D02*
X11275699Y-21567705D01*
X11275699Y-21567705D02*
X11285222Y-21548658D01*
X11285222Y-21548658D02*
X11304270Y-21520086D01*
X11304270Y-21520086D02*
X11313794Y-21510562D01*
X11389984Y-21605800D02*
X11389984Y-21739134D01*
X11389984Y-21624848D02*
X11399508Y-21615324D01*
X11399508Y-21615324D02*
X11418556Y-21605800D01*
X11418556Y-21605800D02*
X11447127Y-21605800D01*
X11447127Y-21605800D02*
X11466175Y-21615324D01*
X11466175Y-21615324D02*
X11475699Y-21634372D01*
X11475699Y-21634372D02*
X11475699Y-21739134D01*
X11599508Y-21739134D02*
X11580461Y-21729610D01*
X11580461Y-21729610D02*
X11570937Y-21720086D01*
X11570937Y-21720086D02*
X11561413Y-21701039D01*
X11561413Y-21701039D02*
X11561413Y-21643896D01*
X11561413Y-21643896D02*
X11570937Y-21624848D01*
X11570937Y-21624848D02*
X11580461Y-21615324D01*
X11580461Y-21615324D02*
X11599508Y-21605800D01*
X11599508Y-21605800D02*
X11628080Y-21605800D01*
X11628080Y-21605800D02*
X11647127Y-21615324D01*
X11647127Y-21615324D02*
X11656651Y-21624848D01*
X11656651Y-21624848D02*
X11666175Y-21643896D01*
X11666175Y-21643896D02*
X11666175Y-21701039D01*
X11666175Y-21701039D02*
X11656651Y-21720086D01*
X11656651Y-21720086D02*
X11647127Y-21729610D01*
X11647127Y-21729610D02*
X11628080Y-21739134D01*
X11628080Y-21739134D02*
X11599508Y-21739134D01*
X11723318Y-21605800D02*
X11799508Y-21605800D01*
X11751889Y-21539134D02*
X11751889Y-21710562D01*
X11751889Y-21710562D02*
X11761413Y-21729610D01*
X11761413Y-21729610D02*
X11780461Y-21739134D01*
X11780461Y-21739134D02*
X11799508Y-21739134D01*
X12018556Y-21605800D02*
X12018556Y-21805800D01*
X12018556Y-21615324D02*
X12037603Y-21605800D01*
X12037603Y-21605800D02*
X12075699Y-21605800D01*
X12075699Y-21605800D02*
X12094746Y-21615324D01*
X12094746Y-21615324D02*
X12104270Y-21624848D01*
X12104270Y-21624848D02*
X12113794Y-21643896D01*
X12113794Y-21643896D02*
X12113794Y-21701039D01*
X12113794Y-21701039D02*
X12104270Y-21720086D01*
X12104270Y-21720086D02*
X12094746Y-21729610D01*
X12094746Y-21729610D02*
X12075699Y-21739134D01*
X12075699Y-21739134D02*
X12037603Y-21739134D01*
X12037603Y-21739134D02*
X12018556Y-21729610D01*
X12228080Y-21739134D02*
X12209032Y-21729610D01*
X12209032Y-21729610D02*
X12199508Y-21710562D01*
X12199508Y-21710562D02*
X12199508Y-21539134D01*
X12389984Y-21739134D02*
X12389984Y-21634372D01*
X12389984Y-21634372D02*
X12380461Y-21615324D01*
X12380461Y-21615324D02*
X12361413Y-21605800D01*
X12361413Y-21605800D02*
X12323318Y-21605800D01*
X12323318Y-21605800D02*
X12304270Y-21615324D01*
X12389984Y-21729610D02*
X12370937Y-21739134D01*
X12370937Y-21739134D02*
X12323318Y-21739134D01*
X12323318Y-21739134D02*
X12304270Y-21729610D01*
X12304270Y-21729610D02*
X12294746Y-21710562D01*
X12294746Y-21710562D02*
X12294746Y-21691515D01*
X12294746Y-21691515D02*
X12304270Y-21672467D01*
X12304270Y-21672467D02*
X12323318Y-21662943D01*
X12323318Y-21662943D02*
X12370937Y-21662943D01*
X12370937Y-21662943D02*
X12389984Y-21653420D01*
X12456651Y-21605800D02*
X12532842Y-21605800D01*
X12485223Y-21539134D02*
X12485223Y-21710562D01*
X12485223Y-21710562D02*
X12494746Y-21729610D01*
X12494746Y-21729610D02*
X12513794Y-21739134D01*
X12513794Y-21739134D02*
X12532842Y-21739134D01*
X12675699Y-21729610D02*
X12656651Y-21739134D01*
X12656651Y-21739134D02*
X12618556Y-21739134D01*
X12618556Y-21739134D02*
X12599508Y-21729610D01*
X12599508Y-21729610D02*
X12589984Y-21710562D01*
X12589984Y-21710562D02*
X12589984Y-21634372D01*
X12589984Y-21634372D02*
X12599508Y-21615324D01*
X12599508Y-21615324D02*
X12618556Y-21605800D01*
X12618556Y-21605800D02*
X12656651Y-21605800D01*
X12656651Y-21605800D02*
X12675699Y-21615324D01*
X12675699Y-21615324D02*
X12685223Y-21634372D01*
X12685223Y-21634372D02*
X12685223Y-21653420D01*
X12685223Y-21653420D02*
X12589984Y-21672467D01*
X12856651Y-21739134D02*
X12856651Y-21539134D01*
X12856651Y-21729610D02*
X12837604Y-21739134D01*
X12837604Y-21739134D02*
X12799508Y-21739134D01*
X12799508Y-21739134D02*
X12780461Y-21729610D01*
X12780461Y-21729610D02*
X12770937Y-21720086D01*
X12770937Y-21720086D02*
X12761413Y-21701039D01*
X12761413Y-21701039D02*
X12761413Y-21643896D01*
X12761413Y-21643896D02*
X12770937Y-21624848D01*
X12770937Y-21624848D02*
X12780461Y-21615324D01*
X12780461Y-21615324D02*
X12799508Y-21605800D01*
X12799508Y-21605800D02*
X12837604Y-21605800D01*
X12837604Y-21605800D02*
X12856651Y-21615324D01*
X12932842Y-21815324D02*
X12942365Y-21805800D01*
X12942365Y-21805800D02*
X12961413Y-21777229D01*
X12961413Y-21777229D02*
X12970937Y-21758181D01*
X12970937Y-21758181D02*
X12980461Y-21729610D01*
X12980461Y-21729610D02*
X12989984Y-21681991D01*
X12989984Y-21681991D02*
X12989984Y-21643896D01*
X12989984Y-21643896D02*
X12980461Y-21596277D01*
X12980461Y-21596277D02*
X12970937Y-21567705D01*
X12970937Y-21567705D02*
X12961413Y-21548658D01*
X12961413Y-21548658D02*
X12942365Y-21520086D01*
X12942365Y-21520086D02*
X12932842Y-21510562D01*
D13*
X5986350Y-21911650D02*
G75*
G02*
X5921350Y-21911650I-32500J0D01*
G01*
X5921350Y-21911650D02*
G75*
G02*
X5986350Y-21911650I32500J0D01*
G01*
D12*
X6285222Y-21803134D02*
X6304270Y-21803134D01*
X6304270Y-21803134D02*
X6323317Y-21812658D01*
X6323317Y-21812658D02*
X6332841Y-21822181D01*
X6332841Y-21822181D02*
X6342365Y-21841229D01*
X6342365Y-21841229D02*
X6351889Y-21879324D01*
X6351889Y-21879324D02*
X6351889Y-21926943D01*
X6351889Y-21926943D02*
X6342365Y-21965039D01*
X6342365Y-21965039D02*
X6332841Y-21984086D01*
X6332841Y-21984086D02*
X6323317Y-21993610D01*
X6323317Y-21993610D02*
X6304270Y-22003134D01*
X6304270Y-22003134D02*
X6285222Y-22003134D01*
X6285222Y-22003134D02*
X6266174Y-21993610D01*
X6266174Y-21993610D02*
X6256651Y-21984086D01*
X6256651Y-21984086D02*
X6247127Y-21965039D01*
X6247127Y-21965039D02*
X6237603Y-21926943D01*
X6237603Y-21926943D02*
X6237603Y-21879324D01*
X6237603Y-21879324D02*
X6247127Y-21841229D01*
X6247127Y-21841229D02*
X6256651Y-21822181D01*
X6256651Y-21822181D02*
X6266174Y-21812658D01*
X6266174Y-21812658D02*
X6285222Y-21803134D01*
X6437603Y-21984086D02*
X6447127Y-21993610D01*
X6447127Y-21993610D02*
X6437603Y-22003134D01*
X6437603Y-22003134D02*
X6428079Y-21993610D01*
X6428079Y-21993610D02*
X6437603Y-21984086D01*
X6437603Y-21984086D02*
X6437603Y-22003134D01*
X6618555Y-21803134D02*
X6580460Y-21803134D01*
X6580460Y-21803134D02*
X6561412Y-21812658D01*
X6561412Y-21812658D02*
X6551889Y-21822181D01*
X6551889Y-21822181D02*
X6532841Y-21850753D01*
X6532841Y-21850753D02*
X6523317Y-21888848D01*
X6523317Y-21888848D02*
X6523317Y-21965039D01*
X6523317Y-21965039D02*
X6532841Y-21984086D01*
X6532841Y-21984086D02*
X6542365Y-21993610D01*
X6542365Y-21993610D02*
X6561412Y-22003134D01*
X6561412Y-22003134D02*
X6599508Y-22003134D01*
X6599508Y-22003134D02*
X6618555Y-21993610D01*
X6618555Y-21993610D02*
X6628079Y-21984086D01*
X6628079Y-21984086D02*
X6637603Y-21965039D01*
X6637603Y-21965039D02*
X6637603Y-21917420D01*
X6637603Y-21917420D02*
X6628079Y-21898372D01*
X6628079Y-21898372D02*
X6618555Y-21888848D01*
X6618555Y-21888848D02*
X6599508Y-21879324D01*
X6599508Y-21879324D02*
X6561412Y-21879324D01*
X6561412Y-21879324D02*
X6542365Y-21888848D01*
X6542365Y-21888848D02*
X6532841Y-21898372D01*
X6532841Y-21898372D02*
X6523317Y-21917420D01*
X6818555Y-21803134D02*
X6723317Y-21803134D01*
X6723317Y-21803134D02*
X6713793Y-21898372D01*
X6713793Y-21898372D02*
X6723317Y-21888848D01*
X6723317Y-21888848D02*
X6742365Y-21879324D01*
X6742365Y-21879324D02*
X6789984Y-21879324D01*
X6789984Y-21879324D02*
X6809032Y-21888848D01*
X6809032Y-21888848D02*
X6818555Y-21898372D01*
X6818555Y-21898372D02*
X6828079Y-21917420D01*
X6828079Y-21917420D02*
X6828079Y-21965039D01*
X6828079Y-21965039D02*
X6818555Y-21984086D01*
X6818555Y-21984086D02*
X6809032Y-21993610D01*
X6809032Y-21993610D02*
X6789984Y-22003134D01*
X6789984Y-22003134D02*
X6742365Y-22003134D01*
X6742365Y-22003134D02*
X6723317Y-21993610D01*
X6723317Y-21993610D02*
X6713793Y-21984086D01*
X6951889Y-21803134D02*
X6970936Y-21803134D01*
X6970936Y-21803134D02*
X6989984Y-21812658D01*
X6989984Y-21812658D02*
X6999508Y-21822181D01*
X6999508Y-21822181D02*
X7009032Y-21841229D01*
X7009032Y-21841229D02*
X7018555Y-21879324D01*
X7018555Y-21879324D02*
X7018555Y-21926943D01*
X7018555Y-21926943D02*
X7009032Y-21965039D01*
X7009032Y-21965039D02*
X6999508Y-21984086D01*
X6999508Y-21984086D02*
X6989984Y-21993610D01*
X6989984Y-21993610D02*
X6970936Y-22003134D01*
X6970936Y-22003134D02*
X6951889Y-22003134D01*
X6951889Y-22003134D02*
X6932841Y-21993610D01*
X6932841Y-21993610D02*
X6923317Y-21984086D01*
X6923317Y-21984086D02*
X6913793Y-21965039D01*
X6913793Y-21965039D02*
X6904270Y-21926943D01*
X6904270Y-21926943D02*
X6904270Y-21879324D01*
X6904270Y-21879324D02*
X6913793Y-21841229D01*
X6913793Y-21841229D02*
X6923317Y-21822181D01*
X6923317Y-21822181D02*
X6932841Y-21812658D01*
X6932841Y-21812658D02*
X6951889Y-21803134D01*
X7104270Y-22003134D02*
X7104270Y-21869800D01*
X7104270Y-21888848D02*
X7113793Y-21879324D01*
X7113793Y-21879324D02*
X7132841Y-21869800D01*
X7132841Y-21869800D02*
X7161413Y-21869800D01*
X7161413Y-21869800D02*
X7180460Y-21879324D01*
X7180460Y-21879324D02*
X7189984Y-21898372D01*
X7189984Y-21898372D02*
X7189984Y-22003134D01*
X7189984Y-21898372D02*
X7199508Y-21879324D01*
X7199508Y-21879324D02*
X7218555Y-21869800D01*
X7218555Y-21869800D02*
X7247127Y-21869800D01*
X7247127Y-21869800D02*
X7266174Y-21879324D01*
X7266174Y-21879324D02*
X7275698Y-21898372D01*
X7275698Y-21898372D02*
X7275698Y-22003134D01*
X7370936Y-22003134D02*
X7370936Y-21869800D01*
X7370936Y-21888848D02*
X7380460Y-21879324D01*
X7380460Y-21879324D02*
X7399508Y-21869800D01*
X7399508Y-21869800D02*
X7428079Y-21869800D01*
X7428079Y-21869800D02*
X7447127Y-21879324D01*
X7447127Y-21879324D02*
X7456651Y-21898372D01*
X7456651Y-21898372D02*
X7456651Y-22003134D01*
X7456651Y-21898372D02*
X7466174Y-21879324D01*
X7466174Y-21879324D02*
X7485222Y-21869800D01*
X7485222Y-21869800D02*
X7513793Y-21869800D01*
X7513793Y-21869800D02*
X7532841Y-21879324D01*
X7532841Y-21879324D02*
X7542365Y-21898372D01*
X7542365Y-21898372D02*
X7542365Y-22003134D01*
X7932841Y-21793610D02*
X7761413Y-22050753D01*
X8189984Y-21803134D02*
X8209032Y-21803134D01*
X8209032Y-21803134D02*
X8228079Y-21812658D01*
X8228079Y-21812658D02*
X8237603Y-21822181D01*
X8237603Y-21822181D02*
X8247127Y-21841229D01*
X8247127Y-21841229D02*
X8256651Y-21879324D01*
X8256651Y-21879324D02*
X8256651Y-21926943D01*
X8256651Y-21926943D02*
X8247127Y-21965039D01*
X8247127Y-21965039D02*
X8237603Y-21984086D01*
X8237603Y-21984086D02*
X8228079Y-21993610D01*
X8228079Y-21993610D02*
X8209032Y-22003134D01*
X8209032Y-22003134D02*
X8189984Y-22003134D01*
X8189984Y-22003134D02*
X8170936Y-21993610D01*
X8170936Y-21993610D02*
X8161413Y-21984086D01*
X8161413Y-21984086D02*
X8151889Y-21965039D01*
X8151889Y-21965039D02*
X8142365Y-21926943D01*
X8142365Y-21926943D02*
X8142365Y-21879324D01*
X8142365Y-21879324D02*
X8151889Y-21841229D01*
X8151889Y-21841229D02*
X8161413Y-21822181D01*
X8161413Y-21822181D02*
X8170936Y-21812658D01*
X8170936Y-21812658D02*
X8189984Y-21803134D01*
X8342365Y-21984086D02*
X8351889Y-21993610D01*
X8351889Y-21993610D02*
X8342365Y-22003134D01*
X8342365Y-22003134D02*
X8332841Y-21993610D01*
X8332841Y-21993610D02*
X8342365Y-21984086D01*
X8342365Y-21984086D02*
X8342365Y-22003134D01*
X8475698Y-21803134D02*
X8494746Y-21803134D01*
X8494746Y-21803134D02*
X8513794Y-21812658D01*
X8513794Y-21812658D02*
X8523318Y-21822181D01*
X8523318Y-21822181D02*
X8532841Y-21841229D01*
X8532841Y-21841229D02*
X8542365Y-21879324D01*
X8542365Y-21879324D02*
X8542365Y-21926943D01*
X8542365Y-21926943D02*
X8532841Y-21965039D01*
X8532841Y-21965039D02*
X8523318Y-21984086D01*
X8523318Y-21984086D02*
X8513794Y-21993610D01*
X8513794Y-21993610D02*
X8494746Y-22003134D01*
X8494746Y-22003134D02*
X8475698Y-22003134D01*
X8475698Y-22003134D02*
X8456651Y-21993610D01*
X8456651Y-21993610D02*
X8447127Y-21984086D01*
X8447127Y-21984086D02*
X8437603Y-21965039D01*
X8437603Y-21965039D02*
X8428079Y-21926943D01*
X8428079Y-21926943D02*
X8428079Y-21879324D01*
X8428079Y-21879324D02*
X8437603Y-21841229D01*
X8437603Y-21841229D02*
X8447127Y-21822181D01*
X8447127Y-21822181D02*
X8456651Y-21812658D01*
X8456651Y-21812658D02*
X8475698Y-21803134D01*
X8618556Y-21822181D02*
X8628079Y-21812658D01*
X8628079Y-21812658D02*
X8647127Y-21803134D01*
X8647127Y-21803134D02*
X8694746Y-21803134D01*
X8694746Y-21803134D02*
X8713794Y-21812658D01*
X8713794Y-21812658D02*
X8723318Y-21822181D01*
X8723318Y-21822181D02*
X8732841Y-21841229D01*
X8732841Y-21841229D02*
X8732841Y-21860277D01*
X8732841Y-21860277D02*
X8723318Y-21888848D01*
X8723318Y-21888848D02*
X8609032Y-22003134D01*
X8609032Y-22003134D02*
X8732841Y-22003134D01*
X8913794Y-21803134D02*
X8818556Y-21803134D01*
X8818556Y-21803134D02*
X8809032Y-21898372D01*
X8809032Y-21898372D02*
X8818556Y-21888848D01*
X8818556Y-21888848D02*
X8837603Y-21879324D01*
X8837603Y-21879324D02*
X8885222Y-21879324D01*
X8885222Y-21879324D02*
X8904270Y-21888848D01*
X8904270Y-21888848D02*
X8913794Y-21898372D01*
X8913794Y-21898372D02*
X8923318Y-21917420D01*
X8923318Y-21917420D02*
X8923318Y-21965039D01*
X8923318Y-21965039D02*
X8913794Y-21984086D01*
X8913794Y-21984086D02*
X8904270Y-21993610D01*
X8904270Y-21993610D02*
X8885222Y-22003134D01*
X8885222Y-22003134D02*
X8837603Y-22003134D01*
X8837603Y-22003134D02*
X8818556Y-21993610D01*
X8818556Y-21993610D02*
X8809032Y-21984086D01*
X9094746Y-21803134D02*
X9056651Y-21803134D01*
X9056651Y-21803134D02*
X9037603Y-21812658D01*
X9037603Y-21812658D02*
X9028079Y-21822181D01*
X9028079Y-21822181D02*
X9009032Y-21850753D01*
X9009032Y-21850753D02*
X8999508Y-21888848D01*
X8999508Y-21888848D02*
X8999508Y-21965039D01*
X8999508Y-21965039D02*
X9009032Y-21984086D01*
X9009032Y-21984086D02*
X9018556Y-21993610D01*
X9018556Y-21993610D02*
X9037603Y-22003134D01*
X9037603Y-22003134D02*
X9075699Y-22003134D01*
X9075699Y-22003134D02*
X9094746Y-21993610D01*
X9094746Y-21993610D02*
X9104270Y-21984086D01*
X9104270Y-21984086D02*
X9113794Y-21965039D01*
X9113794Y-21965039D02*
X9113794Y-21917420D01*
X9113794Y-21917420D02*
X9104270Y-21898372D01*
X9104270Y-21898372D02*
X9094746Y-21888848D01*
X9094746Y-21888848D02*
X9075699Y-21879324D01*
X9075699Y-21879324D02*
X9037603Y-21879324D01*
X9037603Y-21879324D02*
X9018556Y-21888848D01*
X9018556Y-21888848D02*
X9009032Y-21898372D01*
X9009032Y-21898372D02*
X8999508Y-21917420D01*
X9189984Y-21803134D02*
X9189984Y-21841229D01*
X9266175Y-21803134D02*
X9266175Y-21841229D01*
X9561413Y-22079324D02*
X9551889Y-22069800D01*
X9551889Y-22069800D02*
X9532841Y-22041229D01*
X9532841Y-22041229D02*
X9523318Y-22022181D01*
X9523318Y-22022181D02*
X9513794Y-21993610D01*
X9513794Y-21993610D02*
X9504270Y-21945991D01*
X9504270Y-21945991D02*
X9504270Y-21907896D01*
X9504270Y-21907896D02*
X9513794Y-21860277D01*
X9513794Y-21860277D02*
X9523318Y-21831705D01*
X9523318Y-21831705D02*
X9532841Y-21812658D01*
X9532841Y-21812658D02*
X9551889Y-21784086D01*
X9551889Y-21784086D02*
X9561413Y-21774562D01*
X9723318Y-21869800D02*
X9723318Y-22003134D01*
X9675699Y-21793610D02*
X9628080Y-21936467D01*
X9628080Y-21936467D02*
X9751889Y-21936467D01*
X9980461Y-22003134D02*
X9980461Y-21803134D01*
X10066175Y-22003134D02*
X10066175Y-21898372D01*
X10066175Y-21898372D02*
X10056651Y-21879324D01*
X10056651Y-21879324D02*
X10037603Y-21869800D01*
X10037603Y-21869800D02*
X10009032Y-21869800D01*
X10009032Y-21869800D02*
X9989984Y-21879324D01*
X9989984Y-21879324D02*
X9980461Y-21888848D01*
X10189984Y-22003134D02*
X10170937Y-21993610D01*
X10170937Y-21993610D02*
X10161413Y-21984086D01*
X10161413Y-21984086D02*
X10151889Y-21965039D01*
X10151889Y-21965039D02*
X10151889Y-21907896D01*
X10151889Y-21907896D02*
X10161413Y-21888848D01*
X10161413Y-21888848D02*
X10170937Y-21879324D01*
X10170937Y-21879324D02*
X10189984Y-21869800D01*
X10189984Y-21869800D02*
X10218556Y-21869800D01*
X10218556Y-21869800D02*
X10237603Y-21879324D01*
X10237603Y-21879324D02*
X10247127Y-21888848D01*
X10247127Y-21888848D02*
X10256651Y-21907896D01*
X10256651Y-21907896D02*
X10256651Y-21965039D01*
X10256651Y-21965039D02*
X10247127Y-21984086D01*
X10247127Y-21984086D02*
X10237603Y-21993610D01*
X10237603Y-21993610D02*
X10218556Y-22003134D01*
X10218556Y-22003134D02*
X10189984Y-22003134D01*
X10370937Y-22003134D02*
X10351889Y-21993610D01*
X10351889Y-21993610D02*
X10342365Y-21974562D01*
X10342365Y-21974562D02*
X10342365Y-21803134D01*
X10523318Y-21993610D02*
X10504270Y-22003134D01*
X10504270Y-22003134D02*
X10466175Y-22003134D01*
X10466175Y-22003134D02*
X10447127Y-21993610D01*
X10447127Y-21993610D02*
X10437603Y-21974562D01*
X10437603Y-21974562D02*
X10437603Y-21898372D01*
X10437603Y-21898372D02*
X10447127Y-21879324D01*
X10447127Y-21879324D02*
X10466175Y-21869800D01*
X10466175Y-21869800D02*
X10504270Y-21869800D01*
X10504270Y-21869800D02*
X10523318Y-21879324D01*
X10523318Y-21879324D02*
X10532842Y-21898372D01*
X10532842Y-21898372D02*
X10532842Y-21917420D01*
X10532842Y-21917420D02*
X10437603Y-21936467D01*
X10609032Y-21993610D02*
X10628080Y-22003134D01*
X10628080Y-22003134D02*
X10666175Y-22003134D01*
X10666175Y-22003134D02*
X10685223Y-21993610D01*
X10685223Y-21993610D02*
X10694746Y-21974562D01*
X10694746Y-21974562D02*
X10694746Y-21965039D01*
X10694746Y-21965039D02*
X10685223Y-21945991D01*
X10685223Y-21945991D02*
X10666175Y-21936467D01*
X10666175Y-21936467D02*
X10637603Y-21936467D01*
X10637603Y-21936467D02*
X10618556Y-21926943D01*
X10618556Y-21926943D02*
X10609032Y-21907896D01*
X10609032Y-21907896D02*
X10609032Y-21898372D01*
X10609032Y-21898372D02*
X10618556Y-21879324D01*
X10618556Y-21879324D02*
X10637603Y-21869800D01*
X10637603Y-21869800D02*
X10666175Y-21869800D01*
X10666175Y-21869800D02*
X10685223Y-21879324D01*
X10761413Y-22079324D02*
X10770937Y-22069800D01*
X10770937Y-22069800D02*
X10789984Y-22041229D01*
X10789984Y-22041229D02*
X10799508Y-22022181D01*
X10799508Y-22022181D02*
X10809032Y-21993610D01*
X10809032Y-21993610D02*
X10818556Y-21945991D01*
X10818556Y-21945991D02*
X10818556Y-21907896D01*
X10818556Y-21907896D02*
X10809032Y-21860277D01*
X10809032Y-21860277D02*
X10799508Y-21831705D01*
X10799508Y-21831705D02*
X10789984Y-21812658D01*
X10789984Y-21812658D02*
X10770937Y-21784086D01*
X10770937Y-21784086D02*
X10761413Y-21774562D01*
X11123318Y-22079324D02*
X11113794Y-22069800D01*
X11113794Y-22069800D02*
X11094746Y-22041229D01*
X11094746Y-22041229D02*
X11085223Y-22022181D01*
X11085223Y-22022181D02*
X11075699Y-21993610D01*
X11075699Y-21993610D02*
X11066175Y-21945991D01*
X11066175Y-21945991D02*
X11066175Y-21907896D01*
X11066175Y-21907896D02*
X11075699Y-21860277D01*
X11075699Y-21860277D02*
X11085223Y-21831705D01*
X11085223Y-21831705D02*
X11094746Y-21812658D01*
X11094746Y-21812658D02*
X11113794Y-21784086D01*
X11113794Y-21784086D02*
X11123318Y-21774562D01*
X11199508Y-21869800D02*
X11199508Y-22003134D01*
X11199508Y-21888848D02*
X11209032Y-21879324D01*
X11209032Y-21879324D02*
X11228080Y-21869800D01*
X11228080Y-21869800D02*
X11256651Y-21869800D01*
X11256651Y-21869800D02*
X11275699Y-21879324D01*
X11275699Y-21879324D02*
X11285222Y-21898372D01*
X11285222Y-21898372D02*
X11285222Y-22003134D01*
X11409032Y-22003134D02*
X11389984Y-21993610D01*
X11389984Y-21993610D02*
X11380461Y-21984086D01*
X11380461Y-21984086D02*
X11370937Y-21965039D01*
X11370937Y-21965039D02*
X11370937Y-21907896D01*
X11370937Y-21907896D02*
X11380461Y-21888848D01*
X11380461Y-21888848D02*
X11389984Y-21879324D01*
X11389984Y-21879324D02*
X11409032Y-21869800D01*
X11409032Y-21869800D02*
X11437603Y-21869800D01*
X11437603Y-21869800D02*
X11456651Y-21879324D01*
X11456651Y-21879324D02*
X11466175Y-21888848D01*
X11466175Y-21888848D02*
X11475699Y-21907896D01*
X11475699Y-21907896D02*
X11475699Y-21965039D01*
X11475699Y-21965039D02*
X11466175Y-21984086D01*
X11466175Y-21984086D02*
X11456651Y-21993610D01*
X11456651Y-21993610D02*
X11437603Y-22003134D01*
X11437603Y-22003134D02*
X11409032Y-22003134D01*
X11532842Y-21869800D02*
X11609032Y-21869800D01*
X11561413Y-21803134D02*
X11561413Y-21974562D01*
X11561413Y-21974562D02*
X11570937Y-21993610D01*
X11570937Y-21993610D02*
X11589984Y-22003134D01*
X11589984Y-22003134D02*
X11609032Y-22003134D01*
X11828080Y-21869800D02*
X11828080Y-22069800D01*
X11828080Y-21879324D02*
X11847127Y-21869800D01*
X11847127Y-21869800D02*
X11885223Y-21869800D01*
X11885223Y-21869800D02*
X11904270Y-21879324D01*
X11904270Y-21879324D02*
X11913794Y-21888848D01*
X11913794Y-21888848D02*
X11923318Y-21907896D01*
X11923318Y-21907896D02*
X11923318Y-21965039D01*
X11923318Y-21965039D02*
X11913794Y-21984086D01*
X11913794Y-21984086D02*
X11904270Y-21993610D01*
X11904270Y-21993610D02*
X11885223Y-22003134D01*
X11885223Y-22003134D02*
X11847127Y-22003134D01*
X11847127Y-22003134D02*
X11828080Y-21993610D01*
X12037603Y-22003134D02*
X12018556Y-21993610D01*
X12018556Y-21993610D02*
X12009032Y-21974562D01*
X12009032Y-21974562D02*
X12009032Y-21803134D01*
X12199508Y-22003134D02*
X12199508Y-21898372D01*
X12199508Y-21898372D02*
X12189984Y-21879324D01*
X12189984Y-21879324D02*
X12170937Y-21869800D01*
X12170937Y-21869800D02*
X12132842Y-21869800D01*
X12132842Y-21869800D02*
X12113794Y-21879324D01*
X12199508Y-21993610D02*
X12180461Y-22003134D01*
X12180461Y-22003134D02*
X12132842Y-22003134D01*
X12132842Y-22003134D02*
X12113794Y-21993610D01*
X12113794Y-21993610D02*
X12104270Y-21974562D01*
X12104270Y-21974562D02*
X12104270Y-21955515D01*
X12104270Y-21955515D02*
X12113794Y-21936467D01*
X12113794Y-21936467D02*
X12132842Y-21926943D01*
X12132842Y-21926943D02*
X12180461Y-21926943D01*
X12180461Y-21926943D02*
X12199508Y-21917420D01*
X12266175Y-21869800D02*
X12342365Y-21869800D01*
X12294746Y-21803134D02*
X12294746Y-21974562D01*
X12294746Y-21974562D02*
X12304270Y-21993610D01*
X12304270Y-21993610D02*
X12323318Y-22003134D01*
X12323318Y-22003134D02*
X12342365Y-22003134D01*
X12485223Y-21993610D02*
X12466175Y-22003134D01*
X12466175Y-22003134D02*
X12428080Y-22003134D01*
X12428080Y-22003134D02*
X12409032Y-21993610D01*
X12409032Y-21993610D02*
X12399508Y-21974562D01*
X12399508Y-21974562D02*
X12399508Y-21898372D01*
X12399508Y-21898372D02*
X12409032Y-21879324D01*
X12409032Y-21879324D02*
X12428080Y-21869800D01*
X12428080Y-21869800D02*
X12466175Y-21869800D01*
X12466175Y-21869800D02*
X12485223Y-21879324D01*
X12485223Y-21879324D02*
X12494746Y-21898372D01*
X12494746Y-21898372D02*
X12494746Y-21917420D01*
X12494746Y-21917420D02*
X12399508Y-21936467D01*
X12666175Y-22003134D02*
X12666175Y-21803134D01*
X12666175Y-21993610D02*
X12647127Y-22003134D01*
X12647127Y-22003134D02*
X12609032Y-22003134D01*
X12609032Y-22003134D02*
X12589984Y-21993610D01*
X12589984Y-21993610D02*
X12580461Y-21984086D01*
X12580461Y-21984086D02*
X12570937Y-21965039D01*
X12570937Y-21965039D02*
X12570937Y-21907896D01*
X12570937Y-21907896D02*
X12580461Y-21888848D01*
X12580461Y-21888848D02*
X12589984Y-21879324D01*
X12589984Y-21879324D02*
X12609032Y-21869800D01*
X12609032Y-21869800D02*
X12647127Y-21869800D01*
X12647127Y-21869800D02*
X12666175Y-21879324D01*
X12742365Y-22079324D02*
X12751889Y-22069800D01*
X12751889Y-22069800D02*
X12770937Y-22041229D01*
X12770937Y-22041229D02*
X12780461Y-22022181D01*
X12780461Y-22022181D02*
X12789984Y-21993610D01*
X12789984Y-21993610D02*
X12799508Y-21945991D01*
X12799508Y-21945991D02*
X12799508Y-21907896D01*
X12799508Y-21907896D02*
X12789984Y-21860277D01*
X12789984Y-21860277D02*
X12780461Y-21831705D01*
X12780461Y-21831705D02*
X12770937Y-21812658D01*
X12770937Y-21812658D02*
X12751889Y-21784086D01*
X12751889Y-21784086D02*
X12742365Y-21774562D01*
D13*
X5946350Y-22135650D02*
X5946350Y-22215650D01*
X5906350Y-22175650D02*
X5986350Y-22175650D01*
D12*
X6285222Y-22067134D02*
X6304270Y-22067134D01*
X6304270Y-22067134D02*
X6323317Y-22076658D01*
X6323317Y-22076658D02*
X6332841Y-22086181D01*
X6332841Y-22086181D02*
X6342365Y-22105229D01*
X6342365Y-22105229D02*
X6351889Y-22143324D01*
X6351889Y-22143324D02*
X6351889Y-22190943D01*
X6351889Y-22190943D02*
X6342365Y-22229039D01*
X6342365Y-22229039D02*
X6332841Y-22248086D01*
X6332841Y-22248086D02*
X6323317Y-22257610D01*
X6323317Y-22257610D02*
X6304270Y-22267134D01*
X6304270Y-22267134D02*
X6285222Y-22267134D01*
X6285222Y-22267134D02*
X6266174Y-22257610D01*
X6266174Y-22257610D02*
X6256651Y-22248086D01*
X6256651Y-22248086D02*
X6247127Y-22229039D01*
X6247127Y-22229039D02*
X6237603Y-22190943D01*
X6237603Y-22190943D02*
X6237603Y-22143324D01*
X6237603Y-22143324D02*
X6247127Y-22105229D01*
X6247127Y-22105229D02*
X6256651Y-22086181D01*
X6256651Y-22086181D02*
X6266174Y-22076658D01*
X6266174Y-22076658D02*
X6285222Y-22067134D01*
X6437603Y-22248086D02*
X6447127Y-22257610D01*
X6447127Y-22257610D02*
X6437603Y-22267134D01*
X6437603Y-22267134D02*
X6428079Y-22257610D01*
X6428079Y-22257610D02*
X6437603Y-22248086D01*
X6437603Y-22248086D02*
X6437603Y-22267134D01*
X6561412Y-22152848D02*
X6542365Y-22143324D01*
X6542365Y-22143324D02*
X6532841Y-22133800D01*
X6532841Y-22133800D02*
X6523317Y-22114753D01*
X6523317Y-22114753D02*
X6523317Y-22105229D01*
X6523317Y-22105229D02*
X6532841Y-22086181D01*
X6532841Y-22086181D02*
X6542365Y-22076658D01*
X6542365Y-22076658D02*
X6561412Y-22067134D01*
X6561412Y-22067134D02*
X6599508Y-22067134D01*
X6599508Y-22067134D02*
X6618555Y-22076658D01*
X6618555Y-22076658D02*
X6628079Y-22086181D01*
X6628079Y-22086181D02*
X6637603Y-22105229D01*
X6637603Y-22105229D02*
X6637603Y-22114753D01*
X6637603Y-22114753D02*
X6628079Y-22133800D01*
X6628079Y-22133800D02*
X6618555Y-22143324D01*
X6618555Y-22143324D02*
X6599508Y-22152848D01*
X6599508Y-22152848D02*
X6561412Y-22152848D01*
X6561412Y-22152848D02*
X6542365Y-22162372D01*
X6542365Y-22162372D02*
X6532841Y-22171896D01*
X6532841Y-22171896D02*
X6523317Y-22190943D01*
X6523317Y-22190943D02*
X6523317Y-22229039D01*
X6523317Y-22229039D02*
X6532841Y-22248086D01*
X6532841Y-22248086D02*
X6542365Y-22257610D01*
X6542365Y-22257610D02*
X6561412Y-22267134D01*
X6561412Y-22267134D02*
X6599508Y-22267134D01*
X6599508Y-22267134D02*
X6618555Y-22257610D01*
X6618555Y-22257610D02*
X6628079Y-22248086D01*
X6628079Y-22248086D02*
X6637603Y-22229039D01*
X6637603Y-22229039D02*
X6637603Y-22190943D01*
X6637603Y-22190943D02*
X6628079Y-22171896D01*
X6628079Y-22171896D02*
X6618555Y-22162372D01*
X6618555Y-22162372D02*
X6599508Y-22152848D01*
X6761412Y-22067134D02*
X6780460Y-22067134D01*
X6780460Y-22067134D02*
X6799508Y-22076658D01*
X6799508Y-22076658D02*
X6809032Y-22086181D01*
X6809032Y-22086181D02*
X6818555Y-22105229D01*
X6818555Y-22105229D02*
X6828079Y-22143324D01*
X6828079Y-22143324D02*
X6828079Y-22190943D01*
X6828079Y-22190943D02*
X6818555Y-22229039D01*
X6818555Y-22229039D02*
X6809032Y-22248086D01*
X6809032Y-22248086D02*
X6799508Y-22257610D01*
X6799508Y-22257610D02*
X6780460Y-22267134D01*
X6780460Y-22267134D02*
X6761412Y-22267134D01*
X6761412Y-22267134D02*
X6742365Y-22257610D01*
X6742365Y-22257610D02*
X6732841Y-22248086D01*
X6732841Y-22248086D02*
X6723317Y-22229039D01*
X6723317Y-22229039D02*
X6713793Y-22190943D01*
X6713793Y-22190943D02*
X6713793Y-22143324D01*
X6713793Y-22143324D02*
X6723317Y-22105229D01*
X6723317Y-22105229D02*
X6732841Y-22086181D01*
X6732841Y-22086181D02*
X6742365Y-22076658D01*
X6742365Y-22076658D02*
X6761412Y-22067134D01*
X6951889Y-22067134D02*
X6970936Y-22067134D01*
X6970936Y-22067134D02*
X6989984Y-22076658D01*
X6989984Y-22076658D02*
X6999508Y-22086181D01*
X6999508Y-22086181D02*
X7009032Y-22105229D01*
X7009032Y-22105229D02*
X7018555Y-22143324D01*
X7018555Y-22143324D02*
X7018555Y-22190943D01*
X7018555Y-22190943D02*
X7009032Y-22229039D01*
X7009032Y-22229039D02*
X6999508Y-22248086D01*
X6999508Y-22248086D02*
X6989984Y-22257610D01*
X6989984Y-22257610D02*
X6970936Y-22267134D01*
X6970936Y-22267134D02*
X6951889Y-22267134D01*
X6951889Y-22267134D02*
X6932841Y-22257610D01*
X6932841Y-22257610D02*
X6923317Y-22248086D01*
X6923317Y-22248086D02*
X6913793Y-22229039D01*
X6913793Y-22229039D02*
X6904270Y-22190943D01*
X6904270Y-22190943D02*
X6904270Y-22143324D01*
X6904270Y-22143324D02*
X6913793Y-22105229D01*
X6913793Y-22105229D02*
X6923317Y-22086181D01*
X6923317Y-22086181D02*
X6932841Y-22076658D01*
X6932841Y-22076658D02*
X6951889Y-22067134D01*
X7104270Y-22267134D02*
X7104270Y-22133800D01*
X7104270Y-22152848D02*
X7113793Y-22143324D01*
X7113793Y-22143324D02*
X7132841Y-22133800D01*
X7132841Y-22133800D02*
X7161413Y-22133800D01*
X7161413Y-22133800D02*
X7180460Y-22143324D01*
X7180460Y-22143324D02*
X7189984Y-22162372D01*
X7189984Y-22162372D02*
X7189984Y-22267134D01*
X7189984Y-22162372D02*
X7199508Y-22143324D01*
X7199508Y-22143324D02*
X7218555Y-22133800D01*
X7218555Y-22133800D02*
X7247127Y-22133800D01*
X7247127Y-22133800D02*
X7266174Y-22143324D01*
X7266174Y-22143324D02*
X7275698Y-22162372D01*
X7275698Y-22162372D02*
X7275698Y-22267134D01*
X7370936Y-22267134D02*
X7370936Y-22133800D01*
X7370936Y-22152848D02*
X7380460Y-22143324D01*
X7380460Y-22143324D02*
X7399508Y-22133800D01*
X7399508Y-22133800D02*
X7428079Y-22133800D01*
X7428079Y-22133800D02*
X7447127Y-22143324D01*
X7447127Y-22143324D02*
X7456651Y-22162372D01*
X7456651Y-22162372D02*
X7456651Y-22267134D01*
X7456651Y-22162372D02*
X7466174Y-22143324D01*
X7466174Y-22143324D02*
X7485222Y-22133800D01*
X7485222Y-22133800D02*
X7513793Y-22133800D01*
X7513793Y-22133800D02*
X7532841Y-22143324D01*
X7532841Y-22143324D02*
X7542365Y-22162372D01*
X7542365Y-22162372D02*
X7542365Y-22267134D01*
X7932841Y-22057610D02*
X7761413Y-22314753D01*
X8189984Y-22067134D02*
X8209032Y-22067134D01*
X8209032Y-22067134D02*
X8228079Y-22076658D01*
X8228079Y-22076658D02*
X8237603Y-22086181D01*
X8237603Y-22086181D02*
X8247127Y-22105229D01*
X8247127Y-22105229D02*
X8256651Y-22143324D01*
X8256651Y-22143324D02*
X8256651Y-22190943D01*
X8256651Y-22190943D02*
X8247127Y-22229039D01*
X8247127Y-22229039D02*
X8237603Y-22248086D01*
X8237603Y-22248086D02*
X8228079Y-22257610D01*
X8228079Y-22257610D02*
X8209032Y-22267134D01*
X8209032Y-22267134D02*
X8189984Y-22267134D01*
X8189984Y-22267134D02*
X8170936Y-22257610D01*
X8170936Y-22257610D02*
X8161413Y-22248086D01*
X8161413Y-22248086D02*
X8151889Y-22229039D01*
X8151889Y-22229039D02*
X8142365Y-22190943D01*
X8142365Y-22190943D02*
X8142365Y-22143324D01*
X8142365Y-22143324D02*
X8151889Y-22105229D01*
X8151889Y-22105229D02*
X8161413Y-22086181D01*
X8161413Y-22086181D02*
X8170936Y-22076658D01*
X8170936Y-22076658D02*
X8189984Y-22067134D01*
X8342365Y-22248086D02*
X8351889Y-22257610D01*
X8351889Y-22257610D02*
X8342365Y-22267134D01*
X8342365Y-22267134D02*
X8332841Y-22257610D01*
X8332841Y-22257610D02*
X8342365Y-22248086D01*
X8342365Y-22248086D02*
X8342365Y-22267134D01*
X8475698Y-22067134D02*
X8494746Y-22067134D01*
X8494746Y-22067134D02*
X8513794Y-22076658D01*
X8513794Y-22076658D02*
X8523318Y-22086181D01*
X8523318Y-22086181D02*
X8532841Y-22105229D01*
X8532841Y-22105229D02*
X8542365Y-22143324D01*
X8542365Y-22143324D02*
X8542365Y-22190943D01*
X8542365Y-22190943D02*
X8532841Y-22229039D01*
X8532841Y-22229039D02*
X8523318Y-22248086D01*
X8523318Y-22248086D02*
X8513794Y-22257610D01*
X8513794Y-22257610D02*
X8494746Y-22267134D01*
X8494746Y-22267134D02*
X8475698Y-22267134D01*
X8475698Y-22267134D02*
X8456651Y-22257610D01*
X8456651Y-22257610D02*
X8447127Y-22248086D01*
X8447127Y-22248086D02*
X8437603Y-22229039D01*
X8437603Y-22229039D02*
X8428079Y-22190943D01*
X8428079Y-22190943D02*
X8428079Y-22143324D01*
X8428079Y-22143324D02*
X8437603Y-22105229D01*
X8437603Y-22105229D02*
X8447127Y-22086181D01*
X8447127Y-22086181D02*
X8456651Y-22076658D01*
X8456651Y-22076658D02*
X8475698Y-22067134D01*
X8609032Y-22067134D02*
X8732841Y-22067134D01*
X8732841Y-22067134D02*
X8666175Y-22143324D01*
X8666175Y-22143324D02*
X8694746Y-22143324D01*
X8694746Y-22143324D02*
X8713794Y-22152848D01*
X8713794Y-22152848D02*
X8723318Y-22162372D01*
X8723318Y-22162372D02*
X8732841Y-22181420D01*
X8732841Y-22181420D02*
X8732841Y-22229039D01*
X8732841Y-22229039D02*
X8723318Y-22248086D01*
X8723318Y-22248086D02*
X8713794Y-22257610D01*
X8713794Y-22257610D02*
X8694746Y-22267134D01*
X8694746Y-22267134D02*
X8637603Y-22267134D01*
X8637603Y-22267134D02*
X8618556Y-22257610D01*
X8618556Y-22257610D02*
X8609032Y-22248086D01*
X8923318Y-22267134D02*
X8809032Y-22267134D01*
X8866175Y-22267134D02*
X8866175Y-22067134D01*
X8866175Y-22067134D02*
X8847127Y-22095705D01*
X8847127Y-22095705D02*
X8828079Y-22114753D01*
X8828079Y-22114753D02*
X8809032Y-22124277D01*
X9104270Y-22067134D02*
X9009032Y-22067134D01*
X9009032Y-22067134D02*
X8999508Y-22162372D01*
X8999508Y-22162372D02*
X9009032Y-22152848D01*
X9009032Y-22152848D02*
X9028079Y-22143324D01*
X9028079Y-22143324D02*
X9075699Y-22143324D01*
X9075699Y-22143324D02*
X9094746Y-22152848D01*
X9094746Y-22152848D02*
X9104270Y-22162372D01*
X9104270Y-22162372D02*
X9113794Y-22181420D01*
X9113794Y-22181420D02*
X9113794Y-22229039D01*
X9113794Y-22229039D02*
X9104270Y-22248086D01*
X9104270Y-22248086D02*
X9094746Y-22257610D01*
X9094746Y-22257610D02*
X9075699Y-22267134D01*
X9075699Y-22267134D02*
X9028079Y-22267134D01*
X9028079Y-22267134D02*
X9009032Y-22257610D01*
X9009032Y-22257610D02*
X8999508Y-22248086D01*
X9189984Y-22067134D02*
X9189984Y-22105229D01*
X9266175Y-22067134D02*
X9266175Y-22105229D01*
X9561413Y-22343324D02*
X9551889Y-22333800D01*
X9551889Y-22333800D02*
X9532841Y-22305229D01*
X9532841Y-22305229D02*
X9523318Y-22286181D01*
X9523318Y-22286181D02*
X9513794Y-22257610D01*
X9513794Y-22257610D02*
X9504270Y-22209991D01*
X9504270Y-22209991D02*
X9504270Y-22171896D01*
X9504270Y-22171896D02*
X9513794Y-22124277D01*
X9513794Y-22124277D02*
X9523318Y-22095705D01*
X9523318Y-22095705D02*
X9532841Y-22076658D01*
X9532841Y-22076658D02*
X9551889Y-22048086D01*
X9551889Y-22048086D02*
X9561413Y-22038562D01*
X9723318Y-22133800D02*
X9723318Y-22267134D01*
X9675699Y-22057610D02*
X9628080Y-22200467D01*
X9628080Y-22200467D02*
X9751889Y-22200467D01*
X9980461Y-22267134D02*
X9980461Y-22067134D01*
X10066175Y-22267134D02*
X10066175Y-22162372D01*
X10066175Y-22162372D02*
X10056651Y-22143324D01*
X10056651Y-22143324D02*
X10037603Y-22133800D01*
X10037603Y-22133800D02*
X10009032Y-22133800D01*
X10009032Y-22133800D02*
X9989984Y-22143324D01*
X9989984Y-22143324D02*
X9980461Y-22152848D01*
X10189984Y-22267134D02*
X10170937Y-22257610D01*
X10170937Y-22257610D02*
X10161413Y-22248086D01*
X10161413Y-22248086D02*
X10151889Y-22229039D01*
X10151889Y-22229039D02*
X10151889Y-22171896D01*
X10151889Y-22171896D02*
X10161413Y-22152848D01*
X10161413Y-22152848D02*
X10170937Y-22143324D01*
X10170937Y-22143324D02*
X10189984Y-22133800D01*
X10189984Y-22133800D02*
X10218556Y-22133800D01*
X10218556Y-22133800D02*
X10237603Y-22143324D01*
X10237603Y-22143324D02*
X10247127Y-22152848D01*
X10247127Y-22152848D02*
X10256651Y-22171896D01*
X10256651Y-22171896D02*
X10256651Y-22229039D01*
X10256651Y-22229039D02*
X10247127Y-22248086D01*
X10247127Y-22248086D02*
X10237603Y-22257610D01*
X10237603Y-22257610D02*
X10218556Y-22267134D01*
X10218556Y-22267134D02*
X10189984Y-22267134D01*
X10370937Y-22267134D02*
X10351889Y-22257610D01*
X10351889Y-22257610D02*
X10342365Y-22238562D01*
X10342365Y-22238562D02*
X10342365Y-22067134D01*
X10523318Y-22257610D02*
X10504270Y-22267134D01*
X10504270Y-22267134D02*
X10466175Y-22267134D01*
X10466175Y-22267134D02*
X10447127Y-22257610D01*
X10447127Y-22257610D02*
X10437603Y-22238562D01*
X10437603Y-22238562D02*
X10437603Y-22162372D01*
X10437603Y-22162372D02*
X10447127Y-22143324D01*
X10447127Y-22143324D02*
X10466175Y-22133800D01*
X10466175Y-22133800D02*
X10504270Y-22133800D01*
X10504270Y-22133800D02*
X10523318Y-22143324D01*
X10523318Y-22143324D02*
X10532842Y-22162372D01*
X10532842Y-22162372D02*
X10532842Y-22181420D01*
X10532842Y-22181420D02*
X10437603Y-22200467D01*
X10609032Y-22257610D02*
X10628080Y-22267134D01*
X10628080Y-22267134D02*
X10666175Y-22267134D01*
X10666175Y-22267134D02*
X10685223Y-22257610D01*
X10685223Y-22257610D02*
X10694746Y-22238562D01*
X10694746Y-22238562D02*
X10694746Y-22229039D01*
X10694746Y-22229039D02*
X10685223Y-22209991D01*
X10685223Y-22209991D02*
X10666175Y-22200467D01*
X10666175Y-22200467D02*
X10637603Y-22200467D01*
X10637603Y-22200467D02*
X10618556Y-22190943D01*
X10618556Y-22190943D02*
X10609032Y-22171896D01*
X10609032Y-22171896D02*
X10609032Y-22162372D01*
X10609032Y-22162372D02*
X10618556Y-22143324D01*
X10618556Y-22143324D02*
X10637603Y-22133800D01*
X10637603Y-22133800D02*
X10666175Y-22133800D01*
X10666175Y-22133800D02*
X10685223Y-22143324D01*
X10761413Y-22343324D02*
X10770937Y-22333800D01*
X10770937Y-22333800D02*
X10789984Y-22305229D01*
X10789984Y-22305229D02*
X10799508Y-22286181D01*
X10799508Y-22286181D02*
X10809032Y-22257610D01*
X10809032Y-22257610D02*
X10818556Y-22209991D01*
X10818556Y-22209991D02*
X10818556Y-22171896D01*
X10818556Y-22171896D02*
X10809032Y-22124277D01*
X10809032Y-22124277D02*
X10799508Y-22095705D01*
X10799508Y-22095705D02*
X10789984Y-22076658D01*
X10789984Y-22076658D02*
X10770937Y-22048086D01*
X10770937Y-22048086D02*
X10761413Y-22038562D01*
X11123318Y-22343324D02*
X11113794Y-22333800D01*
X11113794Y-22333800D02*
X11094746Y-22305229D01*
X11094746Y-22305229D02*
X11085223Y-22286181D01*
X11085223Y-22286181D02*
X11075699Y-22257610D01*
X11075699Y-22257610D02*
X11066175Y-22209991D01*
X11066175Y-22209991D02*
X11066175Y-22171896D01*
X11066175Y-22171896D02*
X11075699Y-22124277D01*
X11075699Y-22124277D02*
X11085223Y-22095705D01*
X11085223Y-22095705D02*
X11094746Y-22076658D01*
X11094746Y-22076658D02*
X11113794Y-22048086D01*
X11113794Y-22048086D02*
X11123318Y-22038562D01*
X11199508Y-22133800D02*
X11199508Y-22267134D01*
X11199508Y-22152848D02*
X11209032Y-22143324D01*
X11209032Y-22143324D02*
X11228080Y-22133800D01*
X11228080Y-22133800D02*
X11256651Y-22133800D01*
X11256651Y-22133800D02*
X11275699Y-22143324D01*
X11275699Y-22143324D02*
X11285222Y-22162372D01*
X11285222Y-22162372D02*
X11285222Y-22267134D01*
X11409032Y-22267134D02*
X11389984Y-22257610D01*
X11389984Y-22257610D02*
X11380461Y-22248086D01*
X11380461Y-22248086D02*
X11370937Y-22229039D01*
X11370937Y-22229039D02*
X11370937Y-22171896D01*
X11370937Y-22171896D02*
X11380461Y-22152848D01*
X11380461Y-22152848D02*
X11389984Y-22143324D01*
X11389984Y-22143324D02*
X11409032Y-22133800D01*
X11409032Y-22133800D02*
X11437603Y-22133800D01*
X11437603Y-22133800D02*
X11456651Y-22143324D01*
X11456651Y-22143324D02*
X11466175Y-22152848D01*
X11466175Y-22152848D02*
X11475699Y-22171896D01*
X11475699Y-22171896D02*
X11475699Y-22229039D01*
X11475699Y-22229039D02*
X11466175Y-22248086D01*
X11466175Y-22248086D02*
X11456651Y-22257610D01*
X11456651Y-22257610D02*
X11437603Y-22267134D01*
X11437603Y-22267134D02*
X11409032Y-22267134D01*
X11532842Y-22133800D02*
X11609032Y-22133800D01*
X11561413Y-22067134D02*
X11561413Y-22238562D01*
X11561413Y-22238562D02*
X11570937Y-22257610D01*
X11570937Y-22257610D02*
X11589984Y-22267134D01*
X11589984Y-22267134D02*
X11609032Y-22267134D01*
X11828080Y-22133800D02*
X11828080Y-22333800D01*
X11828080Y-22143324D02*
X11847127Y-22133800D01*
X11847127Y-22133800D02*
X11885223Y-22133800D01*
X11885223Y-22133800D02*
X11904270Y-22143324D01*
X11904270Y-22143324D02*
X11913794Y-22152848D01*
X11913794Y-22152848D02*
X11923318Y-22171896D01*
X11923318Y-22171896D02*
X11923318Y-22229039D01*
X11923318Y-22229039D02*
X11913794Y-22248086D01*
X11913794Y-22248086D02*
X11904270Y-22257610D01*
X11904270Y-22257610D02*
X11885223Y-22267134D01*
X11885223Y-22267134D02*
X11847127Y-22267134D01*
X11847127Y-22267134D02*
X11828080Y-22257610D01*
X12037603Y-22267134D02*
X12018556Y-22257610D01*
X12018556Y-22257610D02*
X12009032Y-22238562D01*
X12009032Y-22238562D02*
X12009032Y-22067134D01*
X12199508Y-22267134D02*
X12199508Y-22162372D01*
X12199508Y-22162372D02*
X12189984Y-22143324D01*
X12189984Y-22143324D02*
X12170937Y-22133800D01*
X12170937Y-22133800D02*
X12132842Y-22133800D01*
X12132842Y-22133800D02*
X12113794Y-22143324D01*
X12199508Y-22257610D02*
X12180461Y-22267134D01*
X12180461Y-22267134D02*
X12132842Y-22267134D01*
X12132842Y-22267134D02*
X12113794Y-22257610D01*
X12113794Y-22257610D02*
X12104270Y-22238562D01*
X12104270Y-22238562D02*
X12104270Y-22219515D01*
X12104270Y-22219515D02*
X12113794Y-22200467D01*
X12113794Y-22200467D02*
X12132842Y-22190943D01*
X12132842Y-22190943D02*
X12180461Y-22190943D01*
X12180461Y-22190943D02*
X12199508Y-22181420D01*
X12266175Y-22133800D02*
X12342365Y-22133800D01*
X12294746Y-22067134D02*
X12294746Y-22238562D01*
X12294746Y-22238562D02*
X12304270Y-22257610D01*
X12304270Y-22257610D02*
X12323318Y-22267134D01*
X12323318Y-22267134D02*
X12342365Y-22267134D01*
X12485223Y-22257610D02*
X12466175Y-22267134D01*
X12466175Y-22267134D02*
X12428080Y-22267134D01*
X12428080Y-22267134D02*
X12409032Y-22257610D01*
X12409032Y-22257610D02*
X12399508Y-22238562D01*
X12399508Y-22238562D02*
X12399508Y-22162372D01*
X12399508Y-22162372D02*
X12409032Y-22143324D01*
X12409032Y-22143324D02*
X12428080Y-22133800D01*
X12428080Y-22133800D02*
X12466175Y-22133800D01*
X12466175Y-22133800D02*
X12485223Y-22143324D01*
X12485223Y-22143324D02*
X12494746Y-22162372D01*
X12494746Y-22162372D02*
X12494746Y-22181420D01*
X12494746Y-22181420D02*
X12399508Y-22200467D01*
X12666175Y-22267134D02*
X12666175Y-22067134D01*
X12666175Y-22257610D02*
X12647127Y-22267134D01*
X12647127Y-22267134D02*
X12609032Y-22267134D01*
X12609032Y-22267134D02*
X12589984Y-22257610D01*
X12589984Y-22257610D02*
X12580461Y-22248086D01*
X12580461Y-22248086D02*
X12570937Y-22229039D01*
X12570937Y-22229039D02*
X12570937Y-22171896D01*
X12570937Y-22171896D02*
X12580461Y-22152848D01*
X12580461Y-22152848D02*
X12589984Y-22143324D01*
X12589984Y-22143324D02*
X12609032Y-22133800D01*
X12609032Y-22133800D02*
X12647127Y-22133800D01*
X12647127Y-22133800D02*
X12666175Y-22143324D01*
X12742365Y-22343324D02*
X12751889Y-22333800D01*
X12751889Y-22333800D02*
X12770937Y-22305229D01*
X12770937Y-22305229D02*
X12780461Y-22286181D01*
X12780461Y-22286181D02*
X12789984Y-22257610D01*
X12789984Y-22257610D02*
X12799508Y-22209991D01*
X12799508Y-22209991D02*
X12799508Y-22171896D01*
X12799508Y-22171896D02*
X12789984Y-22124277D01*
X12789984Y-22124277D02*
X12780461Y-22095705D01*
X12780461Y-22095705D02*
X12770937Y-22076658D01*
X12770937Y-22076658D02*
X12751889Y-22048086D01*
X12751889Y-22048086D02*
X12742365Y-22038562D01*
D14*
X5961455Y-22499755D02*
X5961455Y-22379545D01*
X5841245Y-22379545D01*
X5841245Y-22499755D01*
X5961455Y-22499755D01*
D12*
X6351889Y-22531134D02*
X6237603Y-22531134D01*
X6294746Y-22531134D02*
X6294746Y-22331134D01*
X6294746Y-22331134D02*
X6275698Y-22359705D01*
X6275698Y-22359705D02*
X6256651Y-22378753D01*
X6256651Y-22378753D02*
X6237603Y-22388277D01*
X6437603Y-22512086D02*
X6447127Y-22521610D01*
X6447127Y-22521610D02*
X6437603Y-22531134D01*
X6437603Y-22531134D02*
X6428079Y-22521610D01*
X6428079Y-22521610D02*
X6437603Y-22512086D01*
X6437603Y-22512086D02*
X6437603Y-22531134D01*
X6513793Y-22331134D02*
X6647127Y-22331134D01*
X6647127Y-22331134D02*
X6561412Y-22531134D01*
X6761412Y-22331134D02*
X6780460Y-22331134D01*
X6780460Y-22331134D02*
X6799508Y-22340658D01*
X6799508Y-22340658D02*
X6809032Y-22350181D01*
X6809032Y-22350181D02*
X6818555Y-22369229D01*
X6818555Y-22369229D02*
X6828079Y-22407324D01*
X6828079Y-22407324D02*
X6828079Y-22454943D01*
X6828079Y-22454943D02*
X6818555Y-22493038D01*
X6818555Y-22493038D02*
X6809032Y-22512086D01*
X6809032Y-22512086D02*
X6799508Y-22521610D01*
X6799508Y-22521610D02*
X6780460Y-22531134D01*
X6780460Y-22531134D02*
X6761412Y-22531134D01*
X6761412Y-22531134D02*
X6742365Y-22521610D01*
X6742365Y-22521610D02*
X6732841Y-22512086D01*
X6732841Y-22512086D02*
X6723317Y-22493038D01*
X6723317Y-22493038D02*
X6713793Y-22454943D01*
X6713793Y-22454943D02*
X6713793Y-22407324D01*
X6713793Y-22407324D02*
X6723317Y-22369229D01*
X6723317Y-22369229D02*
X6732841Y-22350181D01*
X6732841Y-22350181D02*
X6742365Y-22340658D01*
X6742365Y-22340658D02*
X6761412Y-22331134D01*
X6951889Y-22331134D02*
X6970936Y-22331134D01*
X6970936Y-22331134D02*
X6989984Y-22340658D01*
X6989984Y-22340658D02*
X6999508Y-22350181D01*
X6999508Y-22350181D02*
X7009032Y-22369229D01*
X7009032Y-22369229D02*
X7018555Y-22407324D01*
X7018555Y-22407324D02*
X7018555Y-22454943D01*
X7018555Y-22454943D02*
X7009032Y-22493038D01*
X7009032Y-22493038D02*
X6999508Y-22512086D01*
X6999508Y-22512086D02*
X6989984Y-22521610D01*
X6989984Y-22521610D02*
X6970936Y-22531134D01*
X6970936Y-22531134D02*
X6951889Y-22531134D01*
X6951889Y-22531134D02*
X6932841Y-22521610D01*
X6932841Y-22521610D02*
X6923317Y-22512086D01*
X6923317Y-22512086D02*
X6913793Y-22493038D01*
X6913793Y-22493038D02*
X6904270Y-22454943D01*
X6904270Y-22454943D02*
X6904270Y-22407324D01*
X6904270Y-22407324D02*
X6913793Y-22369229D01*
X6913793Y-22369229D02*
X6923317Y-22350181D01*
X6923317Y-22350181D02*
X6932841Y-22340658D01*
X6932841Y-22340658D02*
X6951889Y-22331134D01*
X7104270Y-22531134D02*
X7104270Y-22397800D01*
X7104270Y-22416848D02*
X7113793Y-22407324D01*
X7113793Y-22407324D02*
X7132841Y-22397800D01*
X7132841Y-22397800D02*
X7161413Y-22397800D01*
X7161413Y-22397800D02*
X7180460Y-22407324D01*
X7180460Y-22407324D02*
X7189984Y-22426372D01*
X7189984Y-22426372D02*
X7189984Y-22531134D01*
X7189984Y-22426372D02*
X7199508Y-22407324D01*
X7199508Y-22407324D02*
X7218555Y-22397800D01*
X7218555Y-22397800D02*
X7247127Y-22397800D01*
X7247127Y-22397800D02*
X7266174Y-22407324D01*
X7266174Y-22407324D02*
X7275698Y-22426372D01*
X7275698Y-22426372D02*
X7275698Y-22531134D01*
X7370936Y-22531134D02*
X7370936Y-22397800D01*
X7370936Y-22416848D02*
X7380460Y-22407324D01*
X7380460Y-22407324D02*
X7399508Y-22397800D01*
X7399508Y-22397800D02*
X7428079Y-22397800D01*
X7428079Y-22397800D02*
X7447127Y-22407324D01*
X7447127Y-22407324D02*
X7456651Y-22426372D01*
X7456651Y-22426372D02*
X7456651Y-22531134D01*
X7456651Y-22426372D02*
X7466174Y-22407324D01*
X7466174Y-22407324D02*
X7485222Y-22397800D01*
X7485222Y-22397800D02*
X7513793Y-22397800D01*
X7513793Y-22397800D02*
X7532841Y-22407324D01*
X7532841Y-22407324D02*
X7542365Y-22426372D01*
X7542365Y-22426372D02*
X7542365Y-22531134D01*
X7932841Y-22321610D02*
X7761413Y-22578753D01*
X8189984Y-22331134D02*
X8209032Y-22331134D01*
X8209032Y-22331134D02*
X8228079Y-22340658D01*
X8228079Y-22340658D02*
X8237603Y-22350181D01*
X8237603Y-22350181D02*
X8247127Y-22369229D01*
X8247127Y-22369229D02*
X8256651Y-22407324D01*
X8256651Y-22407324D02*
X8256651Y-22454943D01*
X8256651Y-22454943D02*
X8247127Y-22493038D01*
X8247127Y-22493038D02*
X8237603Y-22512086D01*
X8237603Y-22512086D02*
X8228079Y-22521610D01*
X8228079Y-22521610D02*
X8209032Y-22531134D01*
X8209032Y-22531134D02*
X8189984Y-22531134D01*
X8189984Y-22531134D02*
X8170936Y-22521610D01*
X8170936Y-22521610D02*
X8161413Y-22512086D01*
X8161413Y-22512086D02*
X8151889Y-22493038D01*
X8151889Y-22493038D02*
X8142365Y-22454943D01*
X8142365Y-22454943D02*
X8142365Y-22407324D01*
X8142365Y-22407324D02*
X8151889Y-22369229D01*
X8151889Y-22369229D02*
X8161413Y-22350181D01*
X8161413Y-22350181D02*
X8170936Y-22340658D01*
X8170936Y-22340658D02*
X8189984Y-22331134D01*
X8342365Y-22512086D02*
X8351889Y-22521610D01*
X8351889Y-22521610D02*
X8342365Y-22531134D01*
X8342365Y-22531134D02*
X8332841Y-22521610D01*
X8332841Y-22521610D02*
X8342365Y-22512086D01*
X8342365Y-22512086D02*
X8342365Y-22531134D01*
X8475698Y-22331134D02*
X8494746Y-22331134D01*
X8494746Y-22331134D02*
X8513794Y-22340658D01*
X8513794Y-22340658D02*
X8523318Y-22350181D01*
X8523318Y-22350181D02*
X8532841Y-22369229D01*
X8532841Y-22369229D02*
X8542365Y-22407324D01*
X8542365Y-22407324D02*
X8542365Y-22454943D01*
X8542365Y-22454943D02*
X8532841Y-22493038D01*
X8532841Y-22493038D02*
X8523318Y-22512086D01*
X8523318Y-22512086D02*
X8513794Y-22521610D01*
X8513794Y-22521610D02*
X8494746Y-22531134D01*
X8494746Y-22531134D02*
X8475698Y-22531134D01*
X8475698Y-22531134D02*
X8456651Y-22521610D01*
X8456651Y-22521610D02*
X8447127Y-22512086D01*
X8447127Y-22512086D02*
X8437603Y-22493038D01*
X8437603Y-22493038D02*
X8428079Y-22454943D01*
X8428079Y-22454943D02*
X8428079Y-22407324D01*
X8428079Y-22407324D02*
X8437603Y-22369229D01*
X8437603Y-22369229D02*
X8447127Y-22350181D01*
X8447127Y-22350181D02*
X8456651Y-22340658D01*
X8456651Y-22340658D02*
X8475698Y-22331134D01*
X8713794Y-22331134D02*
X8675698Y-22331134D01*
X8675698Y-22331134D02*
X8656651Y-22340658D01*
X8656651Y-22340658D02*
X8647127Y-22350181D01*
X8647127Y-22350181D02*
X8628079Y-22378753D01*
X8628079Y-22378753D02*
X8618556Y-22416848D01*
X8618556Y-22416848D02*
X8618556Y-22493038D01*
X8618556Y-22493038D02*
X8628079Y-22512086D01*
X8628079Y-22512086D02*
X8637603Y-22521610D01*
X8637603Y-22521610D02*
X8656651Y-22531134D01*
X8656651Y-22531134D02*
X8694746Y-22531134D01*
X8694746Y-22531134D02*
X8713794Y-22521610D01*
X8713794Y-22521610D02*
X8723318Y-22512086D01*
X8723318Y-22512086D02*
X8732841Y-22493038D01*
X8732841Y-22493038D02*
X8732841Y-22445419D01*
X8732841Y-22445419D02*
X8723318Y-22426372D01*
X8723318Y-22426372D02*
X8713794Y-22416848D01*
X8713794Y-22416848D02*
X8694746Y-22407324D01*
X8694746Y-22407324D02*
X8656651Y-22407324D01*
X8656651Y-22407324D02*
X8637603Y-22416848D01*
X8637603Y-22416848D02*
X8628079Y-22426372D01*
X8628079Y-22426372D02*
X8618556Y-22445419D01*
X8904270Y-22331134D02*
X8866175Y-22331134D01*
X8866175Y-22331134D02*
X8847127Y-22340658D01*
X8847127Y-22340658D02*
X8837603Y-22350181D01*
X8837603Y-22350181D02*
X8818556Y-22378753D01*
X8818556Y-22378753D02*
X8809032Y-22416848D01*
X8809032Y-22416848D02*
X8809032Y-22493038D01*
X8809032Y-22493038D02*
X8818556Y-22512086D01*
X8818556Y-22512086D02*
X8828079Y-22521610D01*
X8828079Y-22521610D02*
X8847127Y-22531134D01*
X8847127Y-22531134D02*
X8885222Y-22531134D01*
X8885222Y-22531134D02*
X8904270Y-22521610D01*
X8904270Y-22521610D02*
X8913794Y-22512086D01*
X8913794Y-22512086D02*
X8923318Y-22493038D01*
X8923318Y-22493038D02*
X8923318Y-22445419D01*
X8923318Y-22445419D02*
X8913794Y-22426372D01*
X8913794Y-22426372D02*
X8904270Y-22416848D01*
X8904270Y-22416848D02*
X8885222Y-22407324D01*
X8885222Y-22407324D02*
X8847127Y-22407324D01*
X8847127Y-22407324D02*
X8828079Y-22416848D01*
X8828079Y-22416848D02*
X8818556Y-22426372D01*
X8818556Y-22426372D02*
X8809032Y-22445419D01*
X9018556Y-22531134D02*
X9056651Y-22531134D01*
X9056651Y-22531134D02*
X9075699Y-22521610D01*
X9075699Y-22521610D02*
X9085222Y-22512086D01*
X9085222Y-22512086D02*
X9104270Y-22483515D01*
X9104270Y-22483515D02*
X9113794Y-22445419D01*
X9113794Y-22445419D02*
X9113794Y-22369229D01*
X9113794Y-22369229D02*
X9104270Y-22350181D01*
X9104270Y-22350181D02*
X9094746Y-22340658D01*
X9094746Y-22340658D02*
X9075699Y-22331134D01*
X9075699Y-22331134D02*
X9037603Y-22331134D01*
X9037603Y-22331134D02*
X9018556Y-22340658D01*
X9018556Y-22340658D02*
X9009032Y-22350181D01*
X9009032Y-22350181D02*
X8999508Y-22369229D01*
X8999508Y-22369229D02*
X8999508Y-22416848D01*
X8999508Y-22416848D02*
X9009032Y-22435896D01*
X9009032Y-22435896D02*
X9018556Y-22445419D01*
X9018556Y-22445419D02*
X9037603Y-22454943D01*
X9037603Y-22454943D02*
X9075699Y-22454943D01*
X9075699Y-22454943D02*
X9094746Y-22445419D01*
X9094746Y-22445419D02*
X9104270Y-22435896D01*
X9104270Y-22435896D02*
X9113794Y-22416848D01*
X9189984Y-22331134D02*
X9189984Y-22369229D01*
X9266175Y-22331134D02*
X9266175Y-22369229D01*
X9561413Y-22607324D02*
X9551889Y-22597800D01*
X9551889Y-22597800D02*
X9532841Y-22569229D01*
X9532841Y-22569229D02*
X9523318Y-22550181D01*
X9523318Y-22550181D02*
X9513794Y-22521610D01*
X9513794Y-22521610D02*
X9504270Y-22473991D01*
X9504270Y-22473991D02*
X9504270Y-22435896D01*
X9504270Y-22435896D02*
X9513794Y-22388277D01*
X9513794Y-22388277D02*
X9523318Y-22359705D01*
X9523318Y-22359705D02*
X9532841Y-22340658D01*
X9532841Y-22340658D02*
X9551889Y-22312086D01*
X9551889Y-22312086D02*
X9561413Y-22302562D01*
X9742365Y-22531134D02*
X9628080Y-22531134D01*
X9685222Y-22531134D02*
X9685222Y-22331134D01*
X9685222Y-22331134D02*
X9666175Y-22359705D01*
X9666175Y-22359705D02*
X9647127Y-22378753D01*
X9647127Y-22378753D02*
X9628080Y-22388277D01*
X9932841Y-22531134D02*
X9818556Y-22531134D01*
X9875699Y-22531134D02*
X9875699Y-22331134D01*
X9875699Y-22331134D02*
X9856651Y-22359705D01*
X9856651Y-22359705D02*
X9837603Y-22378753D01*
X9837603Y-22378753D02*
X9818556Y-22388277D01*
X10104270Y-22331134D02*
X10066175Y-22331134D01*
X10066175Y-22331134D02*
X10047127Y-22340658D01*
X10047127Y-22340658D02*
X10037603Y-22350181D01*
X10037603Y-22350181D02*
X10018556Y-22378753D01*
X10018556Y-22378753D02*
X10009032Y-22416848D01*
X10009032Y-22416848D02*
X10009032Y-22493038D01*
X10009032Y-22493038D02*
X10018556Y-22512086D01*
X10018556Y-22512086D02*
X10028080Y-22521610D01*
X10028080Y-22521610D02*
X10047127Y-22531134D01*
X10047127Y-22531134D02*
X10085222Y-22531134D01*
X10085222Y-22531134D02*
X10104270Y-22521610D01*
X10104270Y-22521610D02*
X10113794Y-22512086D01*
X10113794Y-22512086D02*
X10123318Y-22493038D01*
X10123318Y-22493038D02*
X10123318Y-22445419D01*
X10123318Y-22445419D02*
X10113794Y-22426372D01*
X10113794Y-22426372D02*
X10104270Y-22416848D01*
X10104270Y-22416848D02*
X10085222Y-22407324D01*
X10085222Y-22407324D02*
X10047127Y-22407324D01*
X10047127Y-22407324D02*
X10028080Y-22416848D01*
X10028080Y-22416848D02*
X10018556Y-22426372D01*
X10018556Y-22426372D02*
X10009032Y-22445419D01*
X10361413Y-22531134D02*
X10361413Y-22331134D01*
X10447127Y-22531134D02*
X10447127Y-22426372D01*
X10447127Y-22426372D02*
X10437603Y-22407324D01*
X10437603Y-22407324D02*
X10418556Y-22397800D01*
X10418556Y-22397800D02*
X10389984Y-22397800D01*
X10389984Y-22397800D02*
X10370937Y-22407324D01*
X10370937Y-22407324D02*
X10361413Y-22416848D01*
X10570937Y-22531134D02*
X10551889Y-22521610D01*
X10551889Y-22521610D02*
X10542365Y-22512086D01*
X10542365Y-22512086D02*
X10532842Y-22493038D01*
X10532842Y-22493038D02*
X10532842Y-22435896D01*
X10532842Y-22435896D02*
X10542365Y-22416848D01*
X10542365Y-22416848D02*
X10551889Y-22407324D01*
X10551889Y-22407324D02*
X10570937Y-22397800D01*
X10570937Y-22397800D02*
X10599508Y-22397800D01*
X10599508Y-22397800D02*
X10618556Y-22407324D01*
X10618556Y-22407324D02*
X10628080Y-22416848D01*
X10628080Y-22416848D02*
X10637603Y-22435896D01*
X10637603Y-22435896D02*
X10637603Y-22493038D01*
X10637603Y-22493038D02*
X10628080Y-22512086D01*
X10628080Y-22512086D02*
X10618556Y-22521610D01*
X10618556Y-22521610D02*
X10599508Y-22531134D01*
X10599508Y-22531134D02*
X10570937Y-22531134D01*
X10751889Y-22531134D02*
X10732842Y-22521610D01*
X10732842Y-22521610D02*
X10723318Y-22502562D01*
X10723318Y-22502562D02*
X10723318Y-22331134D01*
X10904270Y-22521610D02*
X10885223Y-22531134D01*
X10885223Y-22531134D02*
X10847127Y-22531134D01*
X10847127Y-22531134D02*
X10828080Y-22521610D01*
X10828080Y-22521610D02*
X10818556Y-22502562D01*
X10818556Y-22502562D02*
X10818556Y-22426372D01*
X10818556Y-22426372D02*
X10828080Y-22407324D01*
X10828080Y-22407324D02*
X10847127Y-22397800D01*
X10847127Y-22397800D02*
X10885223Y-22397800D01*
X10885223Y-22397800D02*
X10904270Y-22407324D01*
X10904270Y-22407324D02*
X10913794Y-22426372D01*
X10913794Y-22426372D02*
X10913794Y-22445419D01*
X10913794Y-22445419D02*
X10818556Y-22464467D01*
X10989984Y-22521610D02*
X11009032Y-22531134D01*
X11009032Y-22531134D02*
X11047127Y-22531134D01*
X11047127Y-22531134D02*
X11066175Y-22521610D01*
X11066175Y-22521610D02*
X11075699Y-22502562D01*
X11075699Y-22502562D02*
X11075699Y-22493038D01*
X11075699Y-22493038D02*
X11066175Y-22473991D01*
X11066175Y-22473991D02*
X11047127Y-22464467D01*
X11047127Y-22464467D02*
X11018556Y-22464467D01*
X11018556Y-22464467D02*
X10999508Y-22454943D01*
X10999508Y-22454943D02*
X10989984Y-22435896D01*
X10989984Y-22435896D02*
X10989984Y-22426372D01*
X10989984Y-22426372D02*
X10999508Y-22407324D01*
X10999508Y-22407324D02*
X11018556Y-22397800D01*
X11018556Y-22397800D02*
X11047127Y-22397800D01*
X11047127Y-22397800D02*
X11066175Y-22407324D01*
X11142365Y-22607324D02*
X11151889Y-22597800D01*
X11151889Y-22597800D02*
X11170937Y-22569229D01*
X11170937Y-22569229D02*
X11180461Y-22550181D01*
X11180461Y-22550181D02*
X11189984Y-22521610D01*
X11189984Y-22521610D02*
X11199508Y-22473991D01*
X11199508Y-22473991D02*
X11199508Y-22435896D01*
X11199508Y-22435896D02*
X11189984Y-22388277D01*
X11189984Y-22388277D02*
X11180461Y-22359705D01*
X11180461Y-22359705D02*
X11170937Y-22340658D01*
X11170937Y-22340658D02*
X11151889Y-22312086D01*
X11151889Y-22312086D02*
X11142365Y-22302562D01*
X11504270Y-22607324D02*
X11494746Y-22597800D01*
X11494746Y-22597800D02*
X11475699Y-22569229D01*
X11475699Y-22569229D02*
X11466175Y-22550181D01*
X11466175Y-22550181D02*
X11456651Y-22521610D01*
X11456651Y-22521610D02*
X11447127Y-22473991D01*
X11447127Y-22473991D02*
X11447127Y-22435896D01*
X11447127Y-22435896D02*
X11456651Y-22388277D01*
X11456651Y-22388277D02*
X11466175Y-22359705D01*
X11466175Y-22359705D02*
X11475699Y-22340658D01*
X11475699Y-22340658D02*
X11494746Y-22312086D01*
X11494746Y-22312086D02*
X11504270Y-22302562D01*
X11580461Y-22397800D02*
X11580461Y-22531134D01*
X11580461Y-22416848D02*
X11589984Y-22407324D01*
X11589984Y-22407324D02*
X11609032Y-22397800D01*
X11609032Y-22397800D02*
X11637603Y-22397800D01*
X11637603Y-22397800D02*
X11656651Y-22407324D01*
X11656651Y-22407324D02*
X11666175Y-22426372D01*
X11666175Y-22426372D02*
X11666175Y-22531134D01*
X11789984Y-22531134D02*
X11770937Y-22521610D01*
X11770937Y-22521610D02*
X11761413Y-22512086D01*
X11761413Y-22512086D02*
X11751889Y-22493038D01*
X11751889Y-22493038D02*
X11751889Y-22435896D01*
X11751889Y-22435896D02*
X11761413Y-22416848D01*
X11761413Y-22416848D02*
X11770937Y-22407324D01*
X11770937Y-22407324D02*
X11789984Y-22397800D01*
X11789984Y-22397800D02*
X11818556Y-22397800D01*
X11818556Y-22397800D02*
X11837603Y-22407324D01*
X11837603Y-22407324D02*
X11847127Y-22416848D01*
X11847127Y-22416848D02*
X11856651Y-22435896D01*
X11856651Y-22435896D02*
X11856651Y-22493038D01*
X11856651Y-22493038D02*
X11847127Y-22512086D01*
X11847127Y-22512086D02*
X11837603Y-22521610D01*
X11837603Y-22521610D02*
X11818556Y-22531134D01*
X11818556Y-22531134D02*
X11789984Y-22531134D01*
X11913794Y-22397800D02*
X11989984Y-22397800D01*
X11942365Y-22331134D02*
X11942365Y-22502562D01*
X11942365Y-22502562D02*
X11951889Y-22521610D01*
X11951889Y-22521610D02*
X11970937Y-22531134D01*
X11970937Y-22531134D02*
X11989984Y-22531134D01*
X12209032Y-22397800D02*
X12209032Y-22597800D01*
X12209032Y-22407324D02*
X12228080Y-22397800D01*
X12228080Y-22397800D02*
X12266175Y-22397800D01*
X12266175Y-22397800D02*
X12285223Y-22407324D01*
X12285223Y-22407324D02*
X12294746Y-22416848D01*
X12294746Y-22416848D02*
X12304270Y-22435896D01*
X12304270Y-22435896D02*
X12304270Y-22493038D01*
X12304270Y-22493038D02*
X12294746Y-22512086D01*
X12294746Y-22512086D02*
X12285223Y-22521610D01*
X12285223Y-22521610D02*
X12266175Y-22531134D01*
X12266175Y-22531134D02*
X12228080Y-22531134D01*
X12228080Y-22531134D02*
X12209032Y-22521610D01*
X12418556Y-22531134D02*
X12399508Y-22521610D01*
X12399508Y-22521610D02*
X12389984Y-22502562D01*
X12389984Y-22502562D02*
X12389984Y-22331134D01*
X12580461Y-22531134D02*
X12580461Y-22426372D01*
X12580461Y-22426372D02*
X12570937Y-22407324D01*
X12570937Y-22407324D02*
X12551889Y-22397800D01*
X12551889Y-22397800D02*
X12513794Y-22397800D01*
X12513794Y-22397800D02*
X12494746Y-22407324D01*
X12580461Y-22521610D02*
X12561413Y-22531134D01*
X12561413Y-22531134D02*
X12513794Y-22531134D01*
X12513794Y-22531134D02*
X12494746Y-22521610D01*
X12494746Y-22521610D02*
X12485223Y-22502562D01*
X12485223Y-22502562D02*
X12485223Y-22483515D01*
X12485223Y-22483515D02*
X12494746Y-22464467D01*
X12494746Y-22464467D02*
X12513794Y-22454943D01*
X12513794Y-22454943D02*
X12561413Y-22454943D01*
X12561413Y-22454943D02*
X12580461Y-22445419D01*
X12647127Y-22397800D02*
X12723318Y-22397800D01*
X12675699Y-22331134D02*
X12675699Y-22502562D01*
X12675699Y-22502562D02*
X12685223Y-22521610D01*
X12685223Y-22521610D02*
X12704270Y-22531134D01*
X12704270Y-22531134D02*
X12723318Y-22531134D01*
X12866175Y-22521610D02*
X12847127Y-22531134D01*
X12847127Y-22531134D02*
X12809032Y-22531134D01*
X12809032Y-22531134D02*
X12789984Y-22521610D01*
X12789984Y-22521610D02*
X12780461Y-22502562D01*
X12780461Y-22502562D02*
X12780461Y-22426372D01*
X12780461Y-22426372D02*
X12789984Y-22407324D01*
X12789984Y-22407324D02*
X12809032Y-22397800D01*
X12809032Y-22397800D02*
X12847127Y-22397800D01*
X12847127Y-22397800D02*
X12866175Y-22407324D01*
X12866175Y-22407324D02*
X12875699Y-22426372D01*
X12875699Y-22426372D02*
X12875699Y-22445419D01*
X12875699Y-22445419D02*
X12780461Y-22464467D01*
X13047127Y-22531134D02*
X13047127Y-22331134D01*
X13047127Y-22521610D02*
X13028080Y-22531134D01*
X13028080Y-22531134D02*
X12989984Y-22531134D01*
X12989984Y-22531134D02*
X12970937Y-22521610D01*
X12970937Y-22521610D02*
X12961413Y-22512086D01*
X12961413Y-22512086D02*
X12951889Y-22493038D01*
X12951889Y-22493038D02*
X12951889Y-22435896D01*
X12951889Y-22435896D02*
X12961413Y-22416848D01*
X12961413Y-22416848D02*
X12970937Y-22407324D01*
X12970937Y-22407324D02*
X12989984Y-22397800D01*
X12989984Y-22397800D02*
X13028080Y-22397800D01*
X13028080Y-22397800D02*
X13047127Y-22407324D01*
X13123318Y-22607324D02*
X13132842Y-22597800D01*
X13132842Y-22597800D02*
X13151889Y-22569229D01*
X13151889Y-22569229D02*
X13161413Y-22550181D01*
X13161413Y-22550181D02*
X13170937Y-22521610D01*
X13170937Y-22521610D02*
X13180461Y-22473991D01*
X13180461Y-22473991D02*
X13180461Y-22435896D01*
X13180461Y-22435896D02*
X13170937Y-22388277D01*
X13170937Y-22388277D02*
X13161413Y-22359705D01*
X13161413Y-22359705D02*
X13151889Y-22340658D01*
X13151889Y-22340658D02*
X13132842Y-22312086D01*
X13132842Y-22312086D02*
X13123318Y-22302562D01*
X5886350Y-22829650D02*
X5986350Y-22729650D01*
X5886350Y-22629650D01*
X5786350Y-22729650D01*
X5886350Y-22829650D01*
X6228079Y-22621134D02*
X6351889Y-22621134D01*
X6351889Y-22621134D02*
X6285222Y-22697324D01*
X6285222Y-22697324D02*
X6313793Y-22697324D01*
X6313793Y-22697324D02*
X6332841Y-22706848D01*
X6332841Y-22706848D02*
X6342365Y-22716372D01*
X6342365Y-22716372D02*
X6351889Y-22735419D01*
X6351889Y-22735419D02*
X6351889Y-22783038D01*
X6351889Y-22783038D02*
X6342365Y-22802086D01*
X6342365Y-22802086D02*
X6332841Y-22811610D01*
X6332841Y-22811610D02*
X6313793Y-22821134D01*
X6313793Y-22821134D02*
X6256651Y-22821134D01*
X6256651Y-22821134D02*
X6237603Y-22811610D01*
X6237603Y-22811610D02*
X6228079Y-22802086D01*
X6437603Y-22802086D02*
X6447127Y-22811610D01*
X6447127Y-22811610D02*
X6437603Y-22821134D01*
X6437603Y-22821134D02*
X6428079Y-22811610D01*
X6428079Y-22811610D02*
X6437603Y-22802086D01*
X6437603Y-22802086D02*
X6437603Y-22821134D01*
X6570936Y-22621134D02*
X6589984Y-22621134D01*
X6589984Y-22621134D02*
X6609032Y-22630658D01*
X6609032Y-22630658D02*
X6618555Y-22640181D01*
X6618555Y-22640181D02*
X6628079Y-22659229D01*
X6628079Y-22659229D02*
X6637603Y-22697324D01*
X6637603Y-22697324D02*
X6637603Y-22744943D01*
X6637603Y-22744943D02*
X6628079Y-22783038D01*
X6628079Y-22783038D02*
X6618555Y-22802086D01*
X6618555Y-22802086D02*
X6609032Y-22811610D01*
X6609032Y-22811610D02*
X6589984Y-22821134D01*
X6589984Y-22821134D02*
X6570936Y-22821134D01*
X6570936Y-22821134D02*
X6551889Y-22811610D01*
X6551889Y-22811610D02*
X6542365Y-22802086D01*
X6542365Y-22802086D02*
X6532841Y-22783038D01*
X6532841Y-22783038D02*
X6523317Y-22744943D01*
X6523317Y-22744943D02*
X6523317Y-22697324D01*
X6523317Y-22697324D02*
X6532841Y-22659229D01*
X6532841Y-22659229D02*
X6542365Y-22640181D01*
X6542365Y-22640181D02*
X6551889Y-22630658D01*
X6551889Y-22630658D02*
X6570936Y-22621134D01*
X6761412Y-22621134D02*
X6780460Y-22621134D01*
X6780460Y-22621134D02*
X6799508Y-22630658D01*
X6799508Y-22630658D02*
X6809032Y-22640181D01*
X6809032Y-22640181D02*
X6818555Y-22659229D01*
X6818555Y-22659229D02*
X6828079Y-22697324D01*
X6828079Y-22697324D02*
X6828079Y-22744943D01*
X6828079Y-22744943D02*
X6818555Y-22783038D01*
X6818555Y-22783038D02*
X6809032Y-22802086D01*
X6809032Y-22802086D02*
X6799508Y-22811610D01*
X6799508Y-22811610D02*
X6780460Y-22821134D01*
X6780460Y-22821134D02*
X6761412Y-22821134D01*
X6761412Y-22821134D02*
X6742365Y-22811610D01*
X6742365Y-22811610D02*
X6732841Y-22802086D01*
X6732841Y-22802086D02*
X6723317Y-22783038D01*
X6723317Y-22783038D02*
X6713793Y-22744943D01*
X6713793Y-22744943D02*
X6713793Y-22697324D01*
X6713793Y-22697324D02*
X6723317Y-22659229D01*
X6723317Y-22659229D02*
X6732841Y-22640181D01*
X6732841Y-22640181D02*
X6742365Y-22630658D01*
X6742365Y-22630658D02*
X6761412Y-22621134D01*
X6951889Y-22621134D02*
X6970936Y-22621134D01*
X6970936Y-22621134D02*
X6989984Y-22630658D01*
X6989984Y-22630658D02*
X6999508Y-22640181D01*
X6999508Y-22640181D02*
X7009032Y-22659229D01*
X7009032Y-22659229D02*
X7018555Y-22697324D01*
X7018555Y-22697324D02*
X7018555Y-22744943D01*
X7018555Y-22744943D02*
X7009032Y-22783038D01*
X7009032Y-22783038D02*
X6999508Y-22802086D01*
X6999508Y-22802086D02*
X6989984Y-22811610D01*
X6989984Y-22811610D02*
X6970936Y-22821134D01*
X6970936Y-22821134D02*
X6951889Y-22821134D01*
X6951889Y-22821134D02*
X6932841Y-22811610D01*
X6932841Y-22811610D02*
X6923317Y-22802086D01*
X6923317Y-22802086D02*
X6913793Y-22783038D01*
X6913793Y-22783038D02*
X6904270Y-22744943D01*
X6904270Y-22744943D02*
X6904270Y-22697324D01*
X6904270Y-22697324D02*
X6913793Y-22659229D01*
X6913793Y-22659229D02*
X6923317Y-22640181D01*
X6923317Y-22640181D02*
X6932841Y-22630658D01*
X6932841Y-22630658D02*
X6951889Y-22621134D01*
X7104270Y-22821134D02*
X7104270Y-22687800D01*
X7104270Y-22706848D02*
X7113793Y-22697324D01*
X7113793Y-22697324D02*
X7132841Y-22687800D01*
X7132841Y-22687800D02*
X7161413Y-22687800D01*
X7161413Y-22687800D02*
X7180460Y-22697324D01*
X7180460Y-22697324D02*
X7189984Y-22716372D01*
X7189984Y-22716372D02*
X7189984Y-22821134D01*
X7189984Y-22716372D02*
X7199508Y-22697324D01*
X7199508Y-22697324D02*
X7218555Y-22687800D01*
X7218555Y-22687800D02*
X7247127Y-22687800D01*
X7247127Y-22687800D02*
X7266174Y-22697324D01*
X7266174Y-22697324D02*
X7275698Y-22716372D01*
X7275698Y-22716372D02*
X7275698Y-22821134D01*
X7370936Y-22821134D02*
X7370936Y-22687800D01*
X7370936Y-22706848D02*
X7380460Y-22697324D01*
X7380460Y-22697324D02*
X7399508Y-22687800D01*
X7399508Y-22687800D02*
X7428079Y-22687800D01*
X7428079Y-22687800D02*
X7447127Y-22697324D01*
X7447127Y-22697324D02*
X7456651Y-22716372D01*
X7456651Y-22716372D02*
X7456651Y-22821134D01*
X7456651Y-22716372D02*
X7466174Y-22697324D01*
X7466174Y-22697324D02*
X7485222Y-22687800D01*
X7485222Y-22687800D02*
X7513793Y-22687800D01*
X7513793Y-22687800D02*
X7532841Y-22697324D01*
X7532841Y-22697324D02*
X7542365Y-22716372D01*
X7542365Y-22716372D02*
X7542365Y-22821134D01*
X7932841Y-22611610D02*
X7761413Y-22868753D01*
X8189984Y-22621134D02*
X8209032Y-22621134D01*
X8209032Y-22621134D02*
X8228079Y-22630658D01*
X8228079Y-22630658D02*
X8237603Y-22640181D01*
X8237603Y-22640181D02*
X8247127Y-22659229D01*
X8247127Y-22659229D02*
X8256651Y-22697324D01*
X8256651Y-22697324D02*
X8256651Y-22744943D01*
X8256651Y-22744943D02*
X8247127Y-22783038D01*
X8247127Y-22783038D02*
X8237603Y-22802086D01*
X8237603Y-22802086D02*
X8228079Y-22811610D01*
X8228079Y-22811610D02*
X8209032Y-22821134D01*
X8209032Y-22821134D02*
X8189984Y-22821134D01*
X8189984Y-22821134D02*
X8170936Y-22811610D01*
X8170936Y-22811610D02*
X8161413Y-22802086D01*
X8161413Y-22802086D02*
X8151889Y-22783038D01*
X8151889Y-22783038D02*
X8142365Y-22744943D01*
X8142365Y-22744943D02*
X8142365Y-22697324D01*
X8142365Y-22697324D02*
X8151889Y-22659229D01*
X8151889Y-22659229D02*
X8161413Y-22640181D01*
X8161413Y-22640181D02*
X8170936Y-22630658D01*
X8170936Y-22630658D02*
X8189984Y-22621134D01*
X8342365Y-22802086D02*
X8351889Y-22811610D01*
X8351889Y-22811610D02*
X8342365Y-22821134D01*
X8342365Y-22821134D02*
X8332841Y-22811610D01*
X8332841Y-22811610D02*
X8342365Y-22802086D01*
X8342365Y-22802086D02*
X8342365Y-22821134D01*
X8542365Y-22821134D02*
X8428079Y-22821134D01*
X8485222Y-22821134D02*
X8485222Y-22621134D01*
X8485222Y-22621134D02*
X8466175Y-22649705D01*
X8466175Y-22649705D02*
X8447127Y-22668753D01*
X8447127Y-22668753D02*
X8428079Y-22678277D01*
X8732841Y-22821134D02*
X8618556Y-22821134D01*
X8675698Y-22821134D02*
X8675698Y-22621134D01*
X8675698Y-22621134D02*
X8656651Y-22649705D01*
X8656651Y-22649705D02*
X8637603Y-22668753D01*
X8637603Y-22668753D02*
X8618556Y-22678277D01*
X8847127Y-22706848D02*
X8828079Y-22697324D01*
X8828079Y-22697324D02*
X8818556Y-22687800D01*
X8818556Y-22687800D02*
X8809032Y-22668753D01*
X8809032Y-22668753D02*
X8809032Y-22659229D01*
X8809032Y-22659229D02*
X8818556Y-22640181D01*
X8818556Y-22640181D02*
X8828079Y-22630658D01*
X8828079Y-22630658D02*
X8847127Y-22621134D01*
X8847127Y-22621134D02*
X8885222Y-22621134D01*
X8885222Y-22621134D02*
X8904270Y-22630658D01*
X8904270Y-22630658D02*
X8913794Y-22640181D01*
X8913794Y-22640181D02*
X8923318Y-22659229D01*
X8923318Y-22659229D02*
X8923318Y-22668753D01*
X8923318Y-22668753D02*
X8913794Y-22687800D01*
X8913794Y-22687800D02*
X8904270Y-22697324D01*
X8904270Y-22697324D02*
X8885222Y-22706848D01*
X8885222Y-22706848D02*
X8847127Y-22706848D01*
X8847127Y-22706848D02*
X8828079Y-22716372D01*
X8828079Y-22716372D02*
X8818556Y-22725896D01*
X8818556Y-22725896D02*
X8809032Y-22744943D01*
X8809032Y-22744943D02*
X8809032Y-22783038D01*
X8809032Y-22783038D02*
X8818556Y-22802086D01*
X8818556Y-22802086D02*
X8828079Y-22811610D01*
X8828079Y-22811610D02*
X8847127Y-22821134D01*
X8847127Y-22821134D02*
X8885222Y-22821134D01*
X8885222Y-22821134D02*
X8904270Y-22811610D01*
X8904270Y-22811610D02*
X8913794Y-22802086D01*
X8913794Y-22802086D02*
X8923318Y-22783038D01*
X8923318Y-22783038D02*
X8923318Y-22744943D01*
X8923318Y-22744943D02*
X8913794Y-22725896D01*
X8913794Y-22725896D02*
X8904270Y-22716372D01*
X8904270Y-22716372D02*
X8885222Y-22706848D01*
X9113794Y-22821134D02*
X8999508Y-22821134D01*
X9056651Y-22821134D02*
X9056651Y-22621134D01*
X9056651Y-22621134D02*
X9037603Y-22649705D01*
X9037603Y-22649705D02*
X9018556Y-22668753D01*
X9018556Y-22668753D02*
X8999508Y-22678277D01*
X9189984Y-22621134D02*
X9189984Y-22659229D01*
X9266175Y-22621134D02*
X9266175Y-22659229D01*
X9561413Y-22897324D02*
X9551889Y-22887800D01*
X9551889Y-22887800D02*
X9532841Y-22859229D01*
X9532841Y-22859229D02*
X9523318Y-22840181D01*
X9523318Y-22840181D02*
X9513794Y-22811610D01*
X9513794Y-22811610D02*
X9504270Y-22763991D01*
X9504270Y-22763991D02*
X9504270Y-22725896D01*
X9504270Y-22725896D02*
X9513794Y-22678277D01*
X9513794Y-22678277D02*
X9523318Y-22649705D01*
X9523318Y-22649705D02*
X9532841Y-22630658D01*
X9532841Y-22630658D02*
X9551889Y-22602086D01*
X9551889Y-22602086D02*
X9561413Y-22592562D01*
X9742365Y-22821134D02*
X9628080Y-22821134D01*
X9685222Y-22821134D02*
X9685222Y-22621134D01*
X9685222Y-22621134D02*
X9666175Y-22649705D01*
X9666175Y-22649705D02*
X9647127Y-22668753D01*
X9647127Y-22668753D02*
X9628080Y-22678277D01*
X9932841Y-22821134D02*
X9818556Y-22821134D01*
X9875699Y-22821134D02*
X9875699Y-22621134D01*
X9875699Y-22621134D02*
X9856651Y-22649705D01*
X9856651Y-22649705D02*
X9837603Y-22668753D01*
X9837603Y-22668753D02*
X9818556Y-22678277D01*
X10104270Y-22621134D02*
X10066175Y-22621134D01*
X10066175Y-22621134D02*
X10047127Y-22630658D01*
X10047127Y-22630658D02*
X10037603Y-22640181D01*
X10037603Y-22640181D02*
X10018556Y-22668753D01*
X10018556Y-22668753D02*
X10009032Y-22706848D01*
X10009032Y-22706848D02*
X10009032Y-22783038D01*
X10009032Y-22783038D02*
X10018556Y-22802086D01*
X10018556Y-22802086D02*
X10028080Y-22811610D01*
X10028080Y-22811610D02*
X10047127Y-22821134D01*
X10047127Y-22821134D02*
X10085222Y-22821134D01*
X10085222Y-22821134D02*
X10104270Y-22811610D01*
X10104270Y-22811610D02*
X10113794Y-22802086D01*
X10113794Y-22802086D02*
X10123318Y-22783038D01*
X10123318Y-22783038D02*
X10123318Y-22735419D01*
X10123318Y-22735419D02*
X10113794Y-22716372D01*
X10113794Y-22716372D02*
X10104270Y-22706848D01*
X10104270Y-22706848D02*
X10085222Y-22697324D01*
X10085222Y-22697324D02*
X10047127Y-22697324D01*
X10047127Y-22697324D02*
X10028080Y-22706848D01*
X10028080Y-22706848D02*
X10018556Y-22716372D01*
X10018556Y-22716372D02*
X10009032Y-22735419D01*
X10361413Y-22821134D02*
X10361413Y-22621134D01*
X10447127Y-22821134D02*
X10447127Y-22716372D01*
X10447127Y-22716372D02*
X10437603Y-22697324D01*
X10437603Y-22697324D02*
X10418556Y-22687800D01*
X10418556Y-22687800D02*
X10389984Y-22687800D01*
X10389984Y-22687800D02*
X10370937Y-22697324D01*
X10370937Y-22697324D02*
X10361413Y-22706848D01*
X10570937Y-22821134D02*
X10551889Y-22811610D01*
X10551889Y-22811610D02*
X10542365Y-22802086D01*
X10542365Y-22802086D02*
X10532842Y-22783038D01*
X10532842Y-22783038D02*
X10532842Y-22725896D01*
X10532842Y-22725896D02*
X10542365Y-22706848D01*
X10542365Y-22706848D02*
X10551889Y-22697324D01*
X10551889Y-22697324D02*
X10570937Y-22687800D01*
X10570937Y-22687800D02*
X10599508Y-22687800D01*
X10599508Y-22687800D02*
X10618556Y-22697324D01*
X10618556Y-22697324D02*
X10628080Y-22706848D01*
X10628080Y-22706848D02*
X10637603Y-22725896D01*
X10637603Y-22725896D02*
X10637603Y-22783038D01*
X10637603Y-22783038D02*
X10628080Y-22802086D01*
X10628080Y-22802086D02*
X10618556Y-22811610D01*
X10618556Y-22811610D02*
X10599508Y-22821134D01*
X10599508Y-22821134D02*
X10570937Y-22821134D01*
X10751889Y-22821134D02*
X10732842Y-22811610D01*
X10732842Y-22811610D02*
X10723318Y-22792562D01*
X10723318Y-22792562D02*
X10723318Y-22621134D01*
X10904270Y-22811610D02*
X10885223Y-22821134D01*
X10885223Y-22821134D02*
X10847127Y-22821134D01*
X10847127Y-22821134D02*
X10828080Y-22811610D01*
X10828080Y-22811610D02*
X10818556Y-22792562D01*
X10818556Y-22792562D02*
X10818556Y-22716372D01*
X10818556Y-22716372D02*
X10828080Y-22697324D01*
X10828080Y-22697324D02*
X10847127Y-22687800D01*
X10847127Y-22687800D02*
X10885223Y-22687800D01*
X10885223Y-22687800D02*
X10904270Y-22697324D01*
X10904270Y-22697324D02*
X10913794Y-22716372D01*
X10913794Y-22716372D02*
X10913794Y-22735419D01*
X10913794Y-22735419D02*
X10818556Y-22754467D01*
X10989984Y-22811610D02*
X11009032Y-22821134D01*
X11009032Y-22821134D02*
X11047127Y-22821134D01*
X11047127Y-22821134D02*
X11066175Y-22811610D01*
X11066175Y-22811610D02*
X11075699Y-22792562D01*
X11075699Y-22792562D02*
X11075699Y-22783038D01*
X11075699Y-22783038D02*
X11066175Y-22763991D01*
X11066175Y-22763991D02*
X11047127Y-22754467D01*
X11047127Y-22754467D02*
X11018556Y-22754467D01*
X11018556Y-22754467D02*
X10999508Y-22744943D01*
X10999508Y-22744943D02*
X10989984Y-22725896D01*
X10989984Y-22725896D02*
X10989984Y-22716372D01*
X10989984Y-22716372D02*
X10999508Y-22697324D01*
X10999508Y-22697324D02*
X11018556Y-22687800D01*
X11018556Y-22687800D02*
X11047127Y-22687800D01*
X11047127Y-22687800D02*
X11066175Y-22697324D01*
X11142365Y-22897324D02*
X11151889Y-22887800D01*
X11151889Y-22887800D02*
X11170937Y-22859229D01*
X11170937Y-22859229D02*
X11180461Y-22840181D01*
X11180461Y-22840181D02*
X11189984Y-22811610D01*
X11189984Y-22811610D02*
X11199508Y-22763991D01*
X11199508Y-22763991D02*
X11199508Y-22725896D01*
X11199508Y-22725896D02*
X11189984Y-22678277D01*
X11189984Y-22678277D02*
X11180461Y-22649705D01*
X11180461Y-22649705D02*
X11170937Y-22630658D01*
X11170937Y-22630658D02*
X11151889Y-22602086D01*
X11151889Y-22602086D02*
X11142365Y-22592562D01*
X11504270Y-22897324D02*
X11494746Y-22887800D01*
X11494746Y-22887800D02*
X11475699Y-22859229D01*
X11475699Y-22859229D02*
X11466175Y-22840181D01*
X11466175Y-22840181D02*
X11456651Y-22811610D01*
X11456651Y-22811610D02*
X11447127Y-22763991D01*
X11447127Y-22763991D02*
X11447127Y-22725896D01*
X11447127Y-22725896D02*
X11456651Y-22678277D01*
X11456651Y-22678277D02*
X11466175Y-22649705D01*
X11466175Y-22649705D02*
X11475699Y-22630658D01*
X11475699Y-22630658D02*
X11494746Y-22602086D01*
X11494746Y-22602086D02*
X11504270Y-22592562D01*
X11580461Y-22687800D02*
X11580461Y-22821134D01*
X11580461Y-22706848D02*
X11589984Y-22697324D01*
X11589984Y-22697324D02*
X11609032Y-22687800D01*
X11609032Y-22687800D02*
X11637603Y-22687800D01*
X11637603Y-22687800D02*
X11656651Y-22697324D01*
X11656651Y-22697324D02*
X11666175Y-22716372D01*
X11666175Y-22716372D02*
X11666175Y-22821134D01*
X11789984Y-22821134D02*
X11770937Y-22811610D01*
X11770937Y-22811610D02*
X11761413Y-22802086D01*
X11761413Y-22802086D02*
X11751889Y-22783038D01*
X11751889Y-22783038D02*
X11751889Y-22725896D01*
X11751889Y-22725896D02*
X11761413Y-22706848D01*
X11761413Y-22706848D02*
X11770937Y-22697324D01*
X11770937Y-22697324D02*
X11789984Y-22687800D01*
X11789984Y-22687800D02*
X11818556Y-22687800D01*
X11818556Y-22687800D02*
X11837603Y-22697324D01*
X11837603Y-22697324D02*
X11847127Y-22706848D01*
X11847127Y-22706848D02*
X11856651Y-22725896D01*
X11856651Y-22725896D02*
X11856651Y-22783038D01*
X11856651Y-22783038D02*
X11847127Y-22802086D01*
X11847127Y-22802086D02*
X11837603Y-22811610D01*
X11837603Y-22811610D02*
X11818556Y-22821134D01*
X11818556Y-22821134D02*
X11789984Y-22821134D01*
X11913794Y-22687800D02*
X11989984Y-22687800D01*
X11942365Y-22621134D02*
X11942365Y-22792562D01*
X11942365Y-22792562D02*
X11951889Y-22811610D01*
X11951889Y-22811610D02*
X11970937Y-22821134D01*
X11970937Y-22821134D02*
X11989984Y-22821134D01*
X12209032Y-22687800D02*
X12209032Y-22887800D01*
X12209032Y-22697324D02*
X12228080Y-22687800D01*
X12228080Y-22687800D02*
X12266175Y-22687800D01*
X12266175Y-22687800D02*
X12285223Y-22697324D01*
X12285223Y-22697324D02*
X12294746Y-22706848D01*
X12294746Y-22706848D02*
X12304270Y-22725896D01*
X12304270Y-22725896D02*
X12304270Y-22783038D01*
X12304270Y-22783038D02*
X12294746Y-22802086D01*
X12294746Y-22802086D02*
X12285223Y-22811610D01*
X12285223Y-22811610D02*
X12266175Y-22821134D01*
X12266175Y-22821134D02*
X12228080Y-22821134D01*
X12228080Y-22821134D02*
X12209032Y-22811610D01*
X12418556Y-22821134D02*
X12399508Y-22811610D01*
X12399508Y-22811610D02*
X12389984Y-22792562D01*
X12389984Y-22792562D02*
X12389984Y-22621134D01*
X12580461Y-22821134D02*
X12580461Y-22716372D01*
X12580461Y-22716372D02*
X12570937Y-22697324D01*
X12570937Y-22697324D02*
X12551889Y-22687800D01*
X12551889Y-22687800D02*
X12513794Y-22687800D01*
X12513794Y-22687800D02*
X12494746Y-22697324D01*
X12580461Y-22811610D02*
X12561413Y-22821134D01*
X12561413Y-22821134D02*
X12513794Y-22821134D01*
X12513794Y-22821134D02*
X12494746Y-22811610D01*
X12494746Y-22811610D02*
X12485223Y-22792562D01*
X12485223Y-22792562D02*
X12485223Y-22773515D01*
X12485223Y-22773515D02*
X12494746Y-22754467D01*
X12494746Y-22754467D02*
X12513794Y-22744943D01*
X12513794Y-22744943D02*
X12561413Y-22744943D01*
X12561413Y-22744943D02*
X12580461Y-22735419D01*
X12647127Y-22687800D02*
X12723318Y-22687800D01*
X12675699Y-22621134D02*
X12675699Y-22792562D01*
X12675699Y-22792562D02*
X12685223Y-22811610D01*
X12685223Y-22811610D02*
X12704270Y-22821134D01*
X12704270Y-22821134D02*
X12723318Y-22821134D01*
X12866175Y-22811610D02*
X12847127Y-22821134D01*
X12847127Y-22821134D02*
X12809032Y-22821134D01*
X12809032Y-22821134D02*
X12789984Y-22811610D01*
X12789984Y-22811610D02*
X12780461Y-22792562D01*
X12780461Y-22792562D02*
X12780461Y-22716372D01*
X12780461Y-22716372D02*
X12789984Y-22697324D01*
X12789984Y-22697324D02*
X12809032Y-22687800D01*
X12809032Y-22687800D02*
X12847127Y-22687800D01*
X12847127Y-22687800D02*
X12866175Y-22697324D01*
X12866175Y-22697324D02*
X12875699Y-22716372D01*
X12875699Y-22716372D02*
X12875699Y-22735419D01*
X12875699Y-22735419D02*
X12780461Y-22754467D01*
X13047127Y-22821134D02*
X13047127Y-22621134D01*
X13047127Y-22811610D02*
X13028080Y-22821134D01*
X13028080Y-22821134D02*
X12989984Y-22821134D01*
X12989984Y-22821134D02*
X12970937Y-22811610D01*
X12970937Y-22811610D02*
X12961413Y-22802086D01*
X12961413Y-22802086D02*
X12951889Y-22783038D01*
X12951889Y-22783038D02*
X12951889Y-22725896D01*
X12951889Y-22725896D02*
X12961413Y-22706848D01*
X12961413Y-22706848D02*
X12970937Y-22697324D01*
X12970937Y-22697324D02*
X12989984Y-22687800D01*
X12989984Y-22687800D02*
X13028080Y-22687800D01*
X13028080Y-22687800D02*
X13047127Y-22697324D01*
X13123318Y-22897324D02*
X13132842Y-22887800D01*
X13132842Y-22887800D02*
X13151889Y-22859229D01*
X13151889Y-22859229D02*
X13161413Y-22840181D01*
X13161413Y-22840181D02*
X13170937Y-22811610D01*
X13170937Y-22811610D02*
X13180461Y-22763991D01*
X13180461Y-22763991D02*
X13180461Y-22725896D01*
X13180461Y-22725896D02*
X13170937Y-22678277D01*
X13170937Y-22678277D02*
X13161413Y-22649705D01*
X13161413Y-22649705D02*
X13151889Y-22630658D01*
X13151889Y-22630658D02*
X13132842Y-22602086D01*
X13132842Y-22602086D02*
X13123318Y-22592562D01*
X5786350Y-22949650D02*
X5986350Y-23149650D01*
X5986350Y-22949650D02*
X5786350Y-23149650D01*
X5986350Y-23049650D02*
G75*
G02*
X5786350Y-23049650I-100000J0D01*
G01*
X5786350Y-23049650D02*
G75*
G02*
X5986350Y-23049650I100000J0D01*
G01*
X6332841Y-23007800D02*
X6332841Y-23141134D01*
X6285222Y-22931610D02*
X6237603Y-23074467D01*
X6237603Y-23074467D02*
X6361412Y-23074467D01*
X6437603Y-23122086D02*
X6447127Y-23131610D01*
X6447127Y-23131610D02*
X6437603Y-23141134D01*
X6437603Y-23141134D02*
X6428079Y-23131610D01*
X6428079Y-23131610D02*
X6437603Y-23122086D01*
X6437603Y-23122086D02*
X6437603Y-23141134D01*
X6570936Y-22941134D02*
X6589984Y-22941134D01*
X6589984Y-22941134D02*
X6609032Y-22950658D01*
X6609032Y-22950658D02*
X6618555Y-22960181D01*
X6618555Y-22960181D02*
X6628079Y-22979229D01*
X6628079Y-22979229D02*
X6637603Y-23017324D01*
X6637603Y-23017324D02*
X6637603Y-23064943D01*
X6637603Y-23064943D02*
X6628079Y-23103038D01*
X6628079Y-23103038D02*
X6618555Y-23122086D01*
X6618555Y-23122086D02*
X6609032Y-23131610D01*
X6609032Y-23131610D02*
X6589984Y-23141134D01*
X6589984Y-23141134D02*
X6570936Y-23141134D01*
X6570936Y-23141134D02*
X6551889Y-23131610D01*
X6551889Y-23131610D02*
X6542365Y-23122086D01*
X6542365Y-23122086D02*
X6532841Y-23103038D01*
X6532841Y-23103038D02*
X6523317Y-23064943D01*
X6523317Y-23064943D02*
X6523317Y-23017324D01*
X6523317Y-23017324D02*
X6532841Y-22979229D01*
X6532841Y-22979229D02*
X6542365Y-22960181D01*
X6542365Y-22960181D02*
X6551889Y-22950658D01*
X6551889Y-22950658D02*
X6570936Y-22941134D01*
X6761412Y-22941134D02*
X6780460Y-22941134D01*
X6780460Y-22941134D02*
X6799508Y-22950658D01*
X6799508Y-22950658D02*
X6809032Y-22960181D01*
X6809032Y-22960181D02*
X6818555Y-22979229D01*
X6818555Y-22979229D02*
X6828079Y-23017324D01*
X6828079Y-23017324D02*
X6828079Y-23064943D01*
X6828079Y-23064943D02*
X6818555Y-23103038D01*
X6818555Y-23103038D02*
X6809032Y-23122086D01*
X6809032Y-23122086D02*
X6799508Y-23131610D01*
X6799508Y-23131610D02*
X6780460Y-23141134D01*
X6780460Y-23141134D02*
X6761412Y-23141134D01*
X6761412Y-23141134D02*
X6742365Y-23131610D01*
X6742365Y-23131610D02*
X6732841Y-23122086D01*
X6732841Y-23122086D02*
X6723317Y-23103038D01*
X6723317Y-23103038D02*
X6713793Y-23064943D01*
X6713793Y-23064943D02*
X6713793Y-23017324D01*
X6713793Y-23017324D02*
X6723317Y-22979229D01*
X6723317Y-22979229D02*
X6732841Y-22960181D01*
X6732841Y-22960181D02*
X6742365Y-22950658D01*
X6742365Y-22950658D02*
X6761412Y-22941134D01*
X6951889Y-22941134D02*
X6970936Y-22941134D01*
X6970936Y-22941134D02*
X6989984Y-22950658D01*
X6989984Y-22950658D02*
X6999508Y-22960181D01*
X6999508Y-22960181D02*
X7009032Y-22979229D01*
X7009032Y-22979229D02*
X7018555Y-23017324D01*
X7018555Y-23017324D02*
X7018555Y-23064943D01*
X7018555Y-23064943D02*
X7009032Y-23103038D01*
X7009032Y-23103038D02*
X6999508Y-23122086D01*
X6999508Y-23122086D02*
X6989984Y-23131610D01*
X6989984Y-23131610D02*
X6970936Y-23141134D01*
X6970936Y-23141134D02*
X6951889Y-23141134D01*
X6951889Y-23141134D02*
X6932841Y-23131610D01*
X6932841Y-23131610D02*
X6923317Y-23122086D01*
X6923317Y-23122086D02*
X6913793Y-23103038D01*
X6913793Y-23103038D02*
X6904270Y-23064943D01*
X6904270Y-23064943D02*
X6904270Y-23017324D01*
X6904270Y-23017324D02*
X6913793Y-22979229D01*
X6913793Y-22979229D02*
X6923317Y-22960181D01*
X6923317Y-22960181D02*
X6932841Y-22950658D01*
X6932841Y-22950658D02*
X6951889Y-22941134D01*
X7104270Y-23141134D02*
X7104270Y-23007800D01*
X7104270Y-23026848D02*
X7113793Y-23017324D01*
X7113793Y-23017324D02*
X7132841Y-23007800D01*
X7132841Y-23007800D02*
X7161413Y-23007800D01*
X7161413Y-23007800D02*
X7180460Y-23017324D01*
X7180460Y-23017324D02*
X7189984Y-23036372D01*
X7189984Y-23036372D02*
X7189984Y-23141134D01*
X7189984Y-23036372D02*
X7199508Y-23017324D01*
X7199508Y-23017324D02*
X7218555Y-23007800D01*
X7218555Y-23007800D02*
X7247127Y-23007800D01*
X7247127Y-23007800D02*
X7266174Y-23017324D01*
X7266174Y-23017324D02*
X7275698Y-23036372D01*
X7275698Y-23036372D02*
X7275698Y-23141134D01*
X7370936Y-23141134D02*
X7370936Y-23007800D01*
X7370936Y-23026848D02*
X7380460Y-23017324D01*
X7380460Y-23017324D02*
X7399508Y-23007800D01*
X7399508Y-23007800D02*
X7428079Y-23007800D01*
X7428079Y-23007800D02*
X7447127Y-23017324D01*
X7447127Y-23017324D02*
X7456651Y-23036372D01*
X7456651Y-23036372D02*
X7456651Y-23141134D01*
X7456651Y-23036372D02*
X7466174Y-23017324D01*
X7466174Y-23017324D02*
X7485222Y-23007800D01*
X7485222Y-23007800D02*
X7513793Y-23007800D01*
X7513793Y-23007800D02*
X7532841Y-23017324D01*
X7532841Y-23017324D02*
X7542365Y-23036372D01*
X7542365Y-23036372D02*
X7542365Y-23141134D01*
X7932841Y-22931610D02*
X7761413Y-23188753D01*
X8189984Y-22941134D02*
X8209032Y-22941134D01*
X8209032Y-22941134D02*
X8228079Y-22950658D01*
X8228079Y-22950658D02*
X8237603Y-22960181D01*
X8237603Y-22960181D02*
X8247127Y-22979229D01*
X8247127Y-22979229D02*
X8256651Y-23017324D01*
X8256651Y-23017324D02*
X8256651Y-23064943D01*
X8256651Y-23064943D02*
X8247127Y-23103038D01*
X8247127Y-23103038D02*
X8237603Y-23122086D01*
X8237603Y-23122086D02*
X8228079Y-23131610D01*
X8228079Y-23131610D02*
X8209032Y-23141134D01*
X8209032Y-23141134D02*
X8189984Y-23141134D01*
X8189984Y-23141134D02*
X8170936Y-23131610D01*
X8170936Y-23131610D02*
X8161413Y-23122086D01*
X8161413Y-23122086D02*
X8151889Y-23103038D01*
X8151889Y-23103038D02*
X8142365Y-23064943D01*
X8142365Y-23064943D02*
X8142365Y-23017324D01*
X8142365Y-23017324D02*
X8151889Y-22979229D01*
X8151889Y-22979229D02*
X8161413Y-22960181D01*
X8161413Y-22960181D02*
X8170936Y-22950658D01*
X8170936Y-22950658D02*
X8189984Y-22941134D01*
X8342365Y-23122086D02*
X8351889Y-23131610D01*
X8351889Y-23131610D02*
X8342365Y-23141134D01*
X8342365Y-23141134D02*
X8332841Y-23131610D01*
X8332841Y-23131610D02*
X8342365Y-23122086D01*
X8342365Y-23122086D02*
X8342365Y-23141134D01*
X8542365Y-23141134D02*
X8428079Y-23141134D01*
X8485222Y-23141134D02*
X8485222Y-22941134D01*
X8485222Y-22941134D02*
X8466175Y-22969705D01*
X8466175Y-22969705D02*
X8447127Y-22988753D01*
X8447127Y-22988753D02*
X8428079Y-22998277D01*
X8723318Y-22941134D02*
X8628079Y-22941134D01*
X8628079Y-22941134D02*
X8618556Y-23036372D01*
X8618556Y-23036372D02*
X8628079Y-23026848D01*
X8628079Y-23026848D02*
X8647127Y-23017324D01*
X8647127Y-23017324D02*
X8694746Y-23017324D01*
X8694746Y-23017324D02*
X8713794Y-23026848D01*
X8713794Y-23026848D02*
X8723318Y-23036372D01*
X8723318Y-23036372D02*
X8732841Y-23055419D01*
X8732841Y-23055419D02*
X8732841Y-23103038D01*
X8732841Y-23103038D02*
X8723318Y-23122086D01*
X8723318Y-23122086D02*
X8713794Y-23131610D01*
X8713794Y-23131610D02*
X8694746Y-23141134D01*
X8694746Y-23141134D02*
X8647127Y-23141134D01*
X8647127Y-23141134D02*
X8628079Y-23131610D01*
X8628079Y-23131610D02*
X8618556Y-23122086D01*
X8799508Y-22941134D02*
X8932841Y-22941134D01*
X8932841Y-22941134D02*
X8847127Y-23141134D01*
X9104270Y-22941134D02*
X9009032Y-22941134D01*
X9009032Y-22941134D02*
X8999508Y-23036372D01*
X8999508Y-23036372D02*
X9009032Y-23026848D01*
X9009032Y-23026848D02*
X9028079Y-23017324D01*
X9028079Y-23017324D02*
X9075699Y-23017324D01*
X9075699Y-23017324D02*
X9094746Y-23026848D01*
X9094746Y-23026848D02*
X9104270Y-23036372D01*
X9104270Y-23036372D02*
X9113794Y-23055419D01*
X9113794Y-23055419D02*
X9113794Y-23103038D01*
X9113794Y-23103038D02*
X9104270Y-23122086D01*
X9104270Y-23122086D02*
X9094746Y-23131610D01*
X9094746Y-23131610D02*
X9075699Y-23141134D01*
X9075699Y-23141134D02*
X9028079Y-23141134D01*
X9028079Y-23141134D02*
X9009032Y-23131610D01*
X9009032Y-23131610D02*
X8999508Y-23122086D01*
X9189984Y-22941134D02*
X9189984Y-22979229D01*
X9266175Y-22941134D02*
X9266175Y-22979229D01*
X9561413Y-23217324D02*
X9551889Y-23207800D01*
X9551889Y-23207800D02*
X9532841Y-23179229D01*
X9532841Y-23179229D02*
X9523318Y-23160181D01*
X9523318Y-23160181D02*
X9513794Y-23131610D01*
X9513794Y-23131610D02*
X9504270Y-23083991D01*
X9504270Y-23083991D02*
X9504270Y-23045896D01*
X9504270Y-23045896D02*
X9513794Y-22998277D01*
X9513794Y-22998277D02*
X9523318Y-22969705D01*
X9523318Y-22969705D02*
X9532841Y-22950658D01*
X9532841Y-22950658D02*
X9551889Y-22922086D01*
X9551889Y-22922086D02*
X9561413Y-22912562D01*
X9732841Y-22941134D02*
X9637603Y-22941134D01*
X9637603Y-22941134D02*
X9628080Y-23036372D01*
X9628080Y-23036372D02*
X9637603Y-23026848D01*
X9637603Y-23026848D02*
X9656651Y-23017324D01*
X9656651Y-23017324D02*
X9704270Y-23017324D01*
X9704270Y-23017324D02*
X9723318Y-23026848D01*
X9723318Y-23026848D02*
X9732841Y-23036372D01*
X9732841Y-23036372D02*
X9742365Y-23055419D01*
X9742365Y-23055419D02*
X9742365Y-23103038D01*
X9742365Y-23103038D02*
X9732841Y-23122086D01*
X9732841Y-23122086D02*
X9723318Y-23131610D01*
X9723318Y-23131610D02*
X9704270Y-23141134D01*
X9704270Y-23141134D02*
X9656651Y-23141134D01*
X9656651Y-23141134D02*
X9637603Y-23131610D01*
X9637603Y-23131610D02*
X9628080Y-23122086D01*
X9856651Y-23026848D02*
X9837603Y-23017324D01*
X9837603Y-23017324D02*
X9828080Y-23007800D01*
X9828080Y-23007800D02*
X9818556Y-22988753D01*
X9818556Y-22988753D02*
X9818556Y-22979229D01*
X9818556Y-22979229D02*
X9828080Y-22960181D01*
X9828080Y-22960181D02*
X9837603Y-22950658D01*
X9837603Y-22950658D02*
X9856651Y-22941134D01*
X9856651Y-22941134D02*
X9894746Y-22941134D01*
X9894746Y-22941134D02*
X9913794Y-22950658D01*
X9913794Y-22950658D02*
X9923318Y-22960181D01*
X9923318Y-22960181D02*
X9932841Y-22979229D01*
X9932841Y-22979229D02*
X9932841Y-22988753D01*
X9932841Y-22988753D02*
X9923318Y-23007800D01*
X9923318Y-23007800D02*
X9913794Y-23017324D01*
X9913794Y-23017324D02*
X9894746Y-23026848D01*
X9894746Y-23026848D02*
X9856651Y-23026848D01*
X9856651Y-23026848D02*
X9837603Y-23036372D01*
X9837603Y-23036372D02*
X9828080Y-23045896D01*
X9828080Y-23045896D02*
X9818556Y-23064943D01*
X9818556Y-23064943D02*
X9818556Y-23103038D01*
X9818556Y-23103038D02*
X9828080Y-23122086D01*
X9828080Y-23122086D02*
X9837603Y-23131610D01*
X9837603Y-23131610D02*
X9856651Y-23141134D01*
X9856651Y-23141134D02*
X9894746Y-23141134D01*
X9894746Y-23141134D02*
X9913794Y-23131610D01*
X9913794Y-23131610D02*
X9923318Y-23122086D01*
X9923318Y-23122086D02*
X9932841Y-23103038D01*
X9932841Y-23103038D02*
X9932841Y-23064943D01*
X9932841Y-23064943D02*
X9923318Y-23045896D01*
X9923318Y-23045896D02*
X9913794Y-23036372D01*
X9913794Y-23036372D02*
X9894746Y-23026848D01*
X10170937Y-23141134D02*
X10170937Y-22941134D01*
X10256651Y-23141134D02*
X10256651Y-23036372D01*
X10256651Y-23036372D02*
X10247127Y-23017324D01*
X10247127Y-23017324D02*
X10228080Y-23007800D01*
X10228080Y-23007800D02*
X10199508Y-23007800D01*
X10199508Y-23007800D02*
X10180461Y-23017324D01*
X10180461Y-23017324D02*
X10170937Y-23026848D01*
X10380461Y-23141134D02*
X10361413Y-23131610D01*
X10361413Y-23131610D02*
X10351889Y-23122086D01*
X10351889Y-23122086D02*
X10342365Y-23103038D01*
X10342365Y-23103038D02*
X10342365Y-23045896D01*
X10342365Y-23045896D02*
X10351889Y-23026848D01*
X10351889Y-23026848D02*
X10361413Y-23017324D01*
X10361413Y-23017324D02*
X10380461Y-23007800D01*
X10380461Y-23007800D02*
X10409032Y-23007800D01*
X10409032Y-23007800D02*
X10428080Y-23017324D01*
X10428080Y-23017324D02*
X10437603Y-23026848D01*
X10437603Y-23026848D02*
X10447127Y-23045896D01*
X10447127Y-23045896D02*
X10447127Y-23103038D01*
X10447127Y-23103038D02*
X10437603Y-23122086D01*
X10437603Y-23122086D02*
X10428080Y-23131610D01*
X10428080Y-23131610D02*
X10409032Y-23141134D01*
X10409032Y-23141134D02*
X10380461Y-23141134D01*
X10561413Y-23141134D02*
X10542365Y-23131610D01*
X10542365Y-23131610D02*
X10532842Y-23112562D01*
X10532842Y-23112562D02*
X10532842Y-22941134D01*
X10713794Y-23131610D02*
X10694746Y-23141134D01*
X10694746Y-23141134D02*
X10656651Y-23141134D01*
X10656651Y-23141134D02*
X10637603Y-23131610D01*
X10637603Y-23131610D02*
X10628080Y-23112562D01*
X10628080Y-23112562D02*
X10628080Y-23036372D01*
X10628080Y-23036372D02*
X10637603Y-23017324D01*
X10637603Y-23017324D02*
X10656651Y-23007800D01*
X10656651Y-23007800D02*
X10694746Y-23007800D01*
X10694746Y-23007800D02*
X10713794Y-23017324D01*
X10713794Y-23017324D02*
X10723318Y-23036372D01*
X10723318Y-23036372D02*
X10723318Y-23055419D01*
X10723318Y-23055419D02*
X10628080Y-23074467D01*
X10799508Y-23131610D02*
X10818556Y-23141134D01*
X10818556Y-23141134D02*
X10856651Y-23141134D01*
X10856651Y-23141134D02*
X10875699Y-23131610D01*
X10875699Y-23131610D02*
X10885223Y-23112562D01*
X10885223Y-23112562D02*
X10885223Y-23103038D01*
X10885223Y-23103038D02*
X10875699Y-23083991D01*
X10875699Y-23083991D02*
X10856651Y-23074467D01*
X10856651Y-23074467D02*
X10828080Y-23074467D01*
X10828080Y-23074467D02*
X10809032Y-23064943D01*
X10809032Y-23064943D02*
X10799508Y-23045896D01*
X10799508Y-23045896D02*
X10799508Y-23036372D01*
X10799508Y-23036372D02*
X10809032Y-23017324D01*
X10809032Y-23017324D02*
X10828080Y-23007800D01*
X10828080Y-23007800D02*
X10856651Y-23007800D01*
X10856651Y-23007800D02*
X10875699Y-23017324D01*
X10951889Y-23217324D02*
X10961413Y-23207800D01*
X10961413Y-23207800D02*
X10980461Y-23179229D01*
X10980461Y-23179229D02*
X10989984Y-23160181D01*
X10989984Y-23160181D02*
X10999508Y-23131610D01*
X10999508Y-23131610D02*
X11009032Y-23083991D01*
X11009032Y-23083991D02*
X11009032Y-23045896D01*
X11009032Y-23045896D02*
X10999508Y-22998277D01*
X10999508Y-22998277D02*
X10989984Y-22969705D01*
X10989984Y-22969705D02*
X10980461Y-22950658D01*
X10980461Y-22950658D02*
X10961413Y-22922086D01*
X10961413Y-22922086D02*
X10951889Y-22912562D01*
X11313794Y-23217324D02*
X11304270Y-23207800D01*
X11304270Y-23207800D02*
X11285222Y-23179229D01*
X11285222Y-23179229D02*
X11275699Y-23160181D01*
X11275699Y-23160181D02*
X11266175Y-23131610D01*
X11266175Y-23131610D02*
X11256651Y-23083991D01*
X11256651Y-23083991D02*
X11256651Y-23045896D01*
X11256651Y-23045896D02*
X11266175Y-22998277D01*
X11266175Y-22998277D02*
X11275699Y-22969705D01*
X11275699Y-22969705D02*
X11285222Y-22950658D01*
X11285222Y-22950658D02*
X11304270Y-22922086D01*
X11304270Y-22922086D02*
X11313794Y-22912562D01*
X11389984Y-23007800D02*
X11389984Y-23141134D01*
X11389984Y-23026848D02*
X11399508Y-23017324D01*
X11399508Y-23017324D02*
X11418556Y-23007800D01*
X11418556Y-23007800D02*
X11447127Y-23007800D01*
X11447127Y-23007800D02*
X11466175Y-23017324D01*
X11466175Y-23017324D02*
X11475699Y-23036372D01*
X11475699Y-23036372D02*
X11475699Y-23141134D01*
X11599508Y-23141134D02*
X11580461Y-23131610D01*
X11580461Y-23131610D02*
X11570937Y-23122086D01*
X11570937Y-23122086D02*
X11561413Y-23103038D01*
X11561413Y-23103038D02*
X11561413Y-23045896D01*
X11561413Y-23045896D02*
X11570937Y-23026848D01*
X11570937Y-23026848D02*
X11580461Y-23017324D01*
X11580461Y-23017324D02*
X11599508Y-23007800D01*
X11599508Y-23007800D02*
X11628080Y-23007800D01*
X11628080Y-23007800D02*
X11647127Y-23017324D01*
X11647127Y-23017324D02*
X11656651Y-23026848D01*
X11656651Y-23026848D02*
X11666175Y-23045896D01*
X11666175Y-23045896D02*
X11666175Y-23103038D01*
X11666175Y-23103038D02*
X11656651Y-23122086D01*
X11656651Y-23122086D02*
X11647127Y-23131610D01*
X11647127Y-23131610D02*
X11628080Y-23141134D01*
X11628080Y-23141134D02*
X11599508Y-23141134D01*
X11723318Y-23007800D02*
X11799508Y-23007800D01*
X11751889Y-22941134D02*
X11751889Y-23112562D01*
X11751889Y-23112562D02*
X11761413Y-23131610D01*
X11761413Y-23131610D02*
X11780461Y-23141134D01*
X11780461Y-23141134D02*
X11799508Y-23141134D01*
X12018556Y-23007800D02*
X12018556Y-23207800D01*
X12018556Y-23017324D02*
X12037603Y-23007800D01*
X12037603Y-23007800D02*
X12075699Y-23007800D01*
X12075699Y-23007800D02*
X12094746Y-23017324D01*
X12094746Y-23017324D02*
X12104270Y-23026848D01*
X12104270Y-23026848D02*
X12113794Y-23045896D01*
X12113794Y-23045896D02*
X12113794Y-23103038D01*
X12113794Y-23103038D02*
X12104270Y-23122086D01*
X12104270Y-23122086D02*
X12094746Y-23131610D01*
X12094746Y-23131610D02*
X12075699Y-23141134D01*
X12075699Y-23141134D02*
X12037603Y-23141134D01*
X12037603Y-23141134D02*
X12018556Y-23131610D01*
X12228080Y-23141134D02*
X12209032Y-23131610D01*
X12209032Y-23131610D02*
X12199508Y-23112562D01*
X12199508Y-23112562D02*
X12199508Y-22941134D01*
X12389984Y-23141134D02*
X12389984Y-23036372D01*
X12389984Y-23036372D02*
X12380461Y-23017324D01*
X12380461Y-23017324D02*
X12361413Y-23007800D01*
X12361413Y-23007800D02*
X12323318Y-23007800D01*
X12323318Y-23007800D02*
X12304270Y-23017324D01*
X12389984Y-23131610D02*
X12370937Y-23141134D01*
X12370937Y-23141134D02*
X12323318Y-23141134D01*
X12323318Y-23141134D02*
X12304270Y-23131610D01*
X12304270Y-23131610D02*
X12294746Y-23112562D01*
X12294746Y-23112562D02*
X12294746Y-23093515D01*
X12294746Y-23093515D02*
X12304270Y-23074467D01*
X12304270Y-23074467D02*
X12323318Y-23064943D01*
X12323318Y-23064943D02*
X12370937Y-23064943D01*
X12370937Y-23064943D02*
X12389984Y-23055419D01*
X12456651Y-23007800D02*
X12532842Y-23007800D01*
X12485223Y-22941134D02*
X12485223Y-23112562D01*
X12485223Y-23112562D02*
X12494746Y-23131610D01*
X12494746Y-23131610D02*
X12513794Y-23141134D01*
X12513794Y-23141134D02*
X12532842Y-23141134D01*
X12675699Y-23131610D02*
X12656651Y-23141134D01*
X12656651Y-23141134D02*
X12618556Y-23141134D01*
X12618556Y-23141134D02*
X12599508Y-23131610D01*
X12599508Y-23131610D02*
X12589984Y-23112562D01*
X12589984Y-23112562D02*
X12589984Y-23036372D01*
X12589984Y-23036372D02*
X12599508Y-23017324D01*
X12599508Y-23017324D02*
X12618556Y-23007800D01*
X12618556Y-23007800D02*
X12656651Y-23007800D01*
X12656651Y-23007800D02*
X12675699Y-23017324D01*
X12675699Y-23017324D02*
X12685223Y-23036372D01*
X12685223Y-23036372D02*
X12685223Y-23055419D01*
X12685223Y-23055419D02*
X12589984Y-23074467D01*
X12856651Y-23141134D02*
X12856651Y-22941134D01*
X12856651Y-23131610D02*
X12837604Y-23141134D01*
X12837604Y-23141134D02*
X12799508Y-23141134D01*
X12799508Y-23141134D02*
X12780461Y-23131610D01*
X12780461Y-23131610D02*
X12770937Y-23122086D01*
X12770937Y-23122086D02*
X12761413Y-23103038D01*
X12761413Y-23103038D02*
X12761413Y-23045896D01*
X12761413Y-23045896D02*
X12770937Y-23026848D01*
X12770937Y-23026848D02*
X12780461Y-23017324D01*
X12780461Y-23017324D02*
X12799508Y-23007800D01*
X12799508Y-23007800D02*
X12837604Y-23007800D01*
X12837604Y-23007800D02*
X12856651Y-23017324D01*
X12932842Y-23217324D02*
X12942365Y-23207800D01*
X12942365Y-23207800D02*
X12961413Y-23179229D01*
X12961413Y-23179229D02*
X12970937Y-23160181D01*
X12970937Y-23160181D02*
X12980461Y-23131610D01*
X12980461Y-23131610D02*
X12989984Y-23083991D01*
X12989984Y-23083991D02*
X12989984Y-23045896D01*
X12989984Y-23045896D02*
X12980461Y-22998277D01*
X12980461Y-22998277D02*
X12970937Y-22969705D01*
X12970937Y-22969705D02*
X12961413Y-22950658D01*
X12961413Y-22950658D02*
X12942365Y-22922086D01*
X12942365Y-22922086D02*
X12932842Y-22912562D01*
M02*
