M48
; DRILL file {KiCad 9.0.0} date 2025-03-07T21:40:22+1300
; FORMAT={-:-/ absolute / metric / decimal}
; #@! TF.CreationDate,2025-03-07T21:40:22+13:00
; #@! TF.GenerationSoftware,Kicad,Pcbnew,9.0.0
; #@! TF.FileFunction,Plated,1,2,PTH
FMAT,2
METRIC
; #@! TA.AperFunction,Plated,PTH,ViaDrill
T1C0.350
; #@! TA.AperFunction,Plated,PTH,ViaDrill
T2C0.400
; #@! TA.AperFunction,Plated,PTH,ViaDrill
T3C0.500
; #@! TA.AperFunction,Plated,PTH,ComponentDrill
T4C0.600
; #@! TA.AperFunction,Plated,PTH,ComponentDrill
T5C0.900
; #@! TA.AperFunction,Plated,PTH,ComponentDrill
T6C1.000
; #@! TA.AperFunction,Plated,PTH,ComponentDrill
T7C2.200
; #@! TA.AperFunction,Plated,PTH,ComponentDrill
T8C4.650
%
G90
G05
T1
X63.805Y-171.704
X64.11Y-135.687
X76.4Y-143.05
X76.45Y-105.0
X76.45Y-123.9
X76.454Y-158.496
X89.56Y-95.148
X95.45Y-118.95
X95.45Y-141.45
X95.5Y-103.5
X95.504Y-156.845
X104.699Y-170.688
X109.677Y-130.607
X109.88Y-110.846
X114.5Y-98.65
X114.5Y-117.65
X114.5Y-136.7
X114.554Y-152.273
X124.079Y-170.942
X127.051Y-92.456
X133.096Y-188.671
X133.55Y-97.35
X133.55Y-116.2
X133.55Y-135.3
X133.604Y-150.876
X143.129Y-171.069
X145.491Y-167.843
X147.523Y-110.846
X148.107Y-149.047
X148.133Y-147.825
X148.657Y-149.629
X148.692Y-148.438
X150.012Y-130.15
X151.536Y-150.673
X152.6Y-117.65
X152.6Y-136.5
X152.65Y-98.8
X153.35Y-148.175
X153.571Y-141.727
X153.67Y-140.462
X154.051Y-142.367
X154.201Y-141.152
X154.619Y-142.997
X155.194Y-143.637
X162.179Y-173.482
X167.7Y-167.05
X168.3Y-125.324
X168.504Y-129.184
X168.605Y-93.32
X169.062Y-106.07
X169.418Y-144.526
X170.18Y-133.655
X171.577Y-154.432
X171.65Y-101.05
X171.65Y-116.3
X171.65Y-139.05
X172.517Y-112.547
X172.72Y-151.181
X174.35Y-102.95
X174.375Y-127.05
X175.616Y-117.348
X177.15Y-99.45
X177.35Y-110.575
X177.749Y-123.675
X177.925Y-120.15
X178.206Y-193.192
X178.511Y-128.321
X178.8Y-103.35
X179.85Y-93.7
X179.984Y-135.839
X180.492Y-122.936
X180.721Y-129.667
X181.136Y-110.125
X181.61Y-129.755
X181.866Y-109.775
X182.169Y-116.45
X182.169Y-125.07
X182.214Y-113.45
X182.499Y-129.755
X182.613Y-109.425
X182.77Y-112.875
X183.074Y-128.905
X183.236Y-114.025
X183.349Y-109.075
X183.439Y-115.621
X183.49Y-112.525
X183.515Y-129.755
X183.55Y-111.1
X184.069Y-108.725
X184.15Y-107.3
X184.252Y-121.412
X184.404Y-129.755
X184.55Y-111.5
X184.979Y-124.003
X185.217Y-125.273
X185.572Y-108.15
X186.334Y-117.0
X186.385Y-126.035
X186.538Y-128.727
X187.134Y-117.035
X187.503Y-164.643
X187.706Y-172.72
X187.96Y-116.129
X187.96Y-119.278
X188.225Y-121.16
X188.35Y-113.5
X188.417Y-92.481
X189.344Y-109.665
X189.701Y-108.949
X190.0Y-99.183
X190.195Y-112.776
X190.239Y-108.357
X190.55Y-107.4
X190.805Y-113.894
X190.906Y-123.952
X191.135Y-141.732
X191.15Y-106.8
X191.508Y-106.084
X191.531Y-99.183
X192.0Y-127.1
X192.024Y-142.367
X192.126Y-119.736
X192.278Y-116.332
X192.344Y-107.7
X192.844Y-108.55
X193.338Y-112.49
X193.344Y-109.35
X193.358Y-121.066
X194.005Y-105.359
X194.027Y-108.934
X194.7Y-109.65
X194.758Y-119.989
X194.767Y-113.284
X194.831Y-119.113
X195.682Y-125.527
X195.834Y-122.377
X196.494Y-111.354
X197.231Y-163.449
X197.358Y-121.86
X197.485Y-122.809
X198.0Y-99.9
X198.051Y-117.378
X198.25Y-103.75
X198.268Y-116.1
X198.312Y-120.787
X198.476Y-118.786
X198.5Y-113.65
X198.625Y-116.816
X198.625Y-118.0
X198.625Y-119.658
X199.4Y-144.9
X199.6Y-115.45
X199.775Y-116.231
X200.0Y-100.6
X200.146Y-116.94
X200.175Y-103.75
X200.517Y-117.649
X200.711Y-134.112
X200.839Y-118.381
X201.221Y-119.084
X201.275Y-113.386
X201.75Y-121.8
X207.823Y-112.166
X208.28Y-94.437
X208.737Y-118.821
X208.8Y-144.9
X209.075Y-120.875
X210.375Y-100.45
X210.4Y-103.55
X210.947Y-127.381
X211.074Y-164.211
X212.395Y-118.262
X212.77Y-116.2
X213.1Y-124.275
X213.1Y-126.1
X213.36Y-128.143
X213.97Y-110.592
X214.2Y-121.8
X214.224Y-119.786
X214.732Y-104.851
X214.9Y-126.1
X215.036Y-116.942
X215.138Y-130.175
X215.265Y-124.968
X216.027Y-131.445
X216.154Y-112.166
X216.662Y-130.937
X217.297Y-130.429
X217.817Y-119.063
X218.694Y-118.999
X219.507Y-163.728
X219.71Y-118.872
X219.762Y-119.962
X219.805Y-113.602
X220.015Y-92.304
X220.6Y-129.9
X220.726Y-116.535
X220.957Y-119.657
X221.625Y-99.225
X222.278Y-113.764
X222.504Y-124.079
X223.156Y-99.225
X223.4Y-127.1
X223.79Y-100.32
X223.876Y-119.812
X225.6Y-130.079
X225.958Y-116.586
X227.838Y-121.666
X228.75Y-95.2
X229.743Y-188.468
X230.124Y-113.792
X230.124Y-143.256
X230.136Y-120.65
X231.075Y-97.65
X232.5Y-99.85
X232.613Y-121.564
X232.766Y-111.912
X232.766Y-151.232
X233.324Y-191.211
X236.576Y-105.918
X238.252Y-112.268
X239.776Y-125.476
X241.808Y-92.812
X241.859Y-117.805
X242.115Y-165.438
X247.802Y-170.332
X248.564Y-110.786
X249.301Y-110.436
X249.301Y-116.459
X249.301Y-135.001
X249.301Y-154.432
X249.809Y-101.092
X250.063Y-110.086
X252.095Y-105.308
X254.864Y-110.086
X255.448Y-110.642
X256.007Y-111.252
X258.826Y-173.101
X260.045Y-129.591
X260.756Y-112.217
X268.351Y-152.019
X268.478Y-114.046
X268.605Y-132.715
X269.113Y-98.679
X277.876Y-170.434
X277.978Y-187.046
X282.042Y-92.151
X287.401Y-112.649
X287.401Y-150.749
X287.528Y-131.318
X287.909Y-97.155
X296.799Y-170.688
X299.009Y-130.302
X301.955Y-168.199
X306.451Y-114.046
X306.451Y-132.842
X306.451Y-152.019
X307.213Y-98.679
X314.147Y-115.722
X317.703Y-95.25
X324.993Y-155.956
X325.501Y-118.491
X325.501Y-137.033
X326.644Y-103.505
X343.154Y-97.79
X344.551Y-120.015
X344.551Y-138.938
X344.678Y-157.607
X345.313Y-104.775
X346.71Y-165.252
X346.964Y-127.356
T2
X197.46Y-94.59
X228.8Y-101.2
T3
X90.373Y-131.623
X104.14Y-144.475
X126.848Y-149.758
X131.064Y-124.714
X145.542Y-143.866
X177.35Y-107.2
X178.816Y-116.535
X180.645Y-119.024
X180.85Y-121.1
X181.35Y-105.2
X185.1Y-106.65
X186.4Y-101.2
X186.5Y-104.8
X187.452Y-107.188
X188.455Y-104.272
X199.2Y-108.648
X209.6Y-108.675
X212.747Y-113.753
X217.526Y-111.125
X218.25Y-101.625
X218.366Y-96.125
X219.075Y-107.061
X220.1Y-104.25
X221.996Y-139.7
X222.3Y-104.675
X224.34Y-101.23
X229.489Y-106.172
X229.489Y-111.236
X230.632Y-119.7
X230.886Y-124.968
X237.236Y-132.029
X269.596Y-148.539
X280.873Y-105.613
X282.296Y-163.271
X306.375Y-147.422
X323.24Y-132.791
T6
X184.49Y-133.8
X187.03Y-133.8
X189.57Y-133.8
X192.11Y-133.8
X216.146Y-133.8
X218.686Y-133.8
X221.226Y-133.8
X223.766Y-133.8
T7
X177.3Y-138.8
X199.3Y-138.8
X208.956Y-138.8
X230.956Y-138.8
T8
X80.0Y-116.15
X80.0Y-154.15
X155.8Y-112.45
X155.8Y-150.45
X181.2Y-166.95
X227.056Y-166.95
X252.456Y-112.45
X252.456Y-150.45
X328.256Y-116.15
X328.256Y-154.15
T4
X183.98Y-93.05G85X183.98Y-92.45
G05
X183.98Y-97.48G85X183.98Y-96.38
G05
X192.62Y-93.05G85X192.62Y-92.45
G05
X192.62Y-97.48G85X192.62Y-96.38
G05
X215.636Y-93.05G85X215.636Y-92.45
G05
X215.636Y-97.48G85X215.636Y-96.38
G05
X224.276Y-93.05G85X224.276Y-92.45
G05
X224.276Y-97.48G85X224.276Y-96.38
G05
T5
X196.669Y-102.58G85X196.669Y-102.98
G05
X201.269Y-94.48G85X201.269Y-94.88
G05
X201.269Y-97.48G85X201.269Y-97.88
G05
X201.269Y-101.48G85X201.269Y-101.88
G05
X206.987Y-102.58G85X206.987Y-102.98
G05
X211.587Y-94.48G85X211.587Y-94.88
G05
X211.587Y-97.48G85X211.587Y-97.88
G05
X211.587Y-101.48G85X211.587Y-101.88
G05
M30
