G04 #@! TF.GenerationSoftware,KiCad,Pcbnew,8.0.6*
G04 #@! TF.CreationDate,2025-01-10T15:37:59+13:00*
G04 #@! TF.ProjectId,Plate,506c6174-652e-46b6-9963-61645f706362,1*
G04 #@! TF.SameCoordinates,Original*
G04 #@! TF.FileFunction,Profile,NP*
%FSLAX46Y46*%
G04 Gerber Fmt 4.6, Leading zero omitted, Abs format (unit mm)*
G04 Created by KiCad (PCBNEW 8.0.6) date 2025-01-10 15:37:59*
%MOMM*%
%LPD*%
G01*
G04 APERTURE LIST*
%ADD10C,0.100000*%
G04 #@! TA.AperFunction,Profile*
%ADD11C,0.100000*%
G04 #@! TD*
G04 #@! TA.AperFunction,Profile*
%ADD12C,0.050000*%
G04 #@! TD*
G04 APERTURE END LIST*
D10*
X87597430Y-129588267D02*
X88012250Y-130294122D01*
X88428154Y-131001821D01*
X88845070Y-131711242D01*
X89262926Y-132422261D01*
X89681648Y-133134756D01*
X90101166Y-133848603D01*
X90521406Y-134563680D01*
X90942296Y-135279863D01*
X91363764Y-135997030D01*
X91785738Y-136715058D01*
X92208146Y-137433823D01*
X92630915Y-138153202D01*
X93053972Y-138873074D01*
X93477246Y-139593314D01*
X93900665Y-140313799D01*
X94324156Y-141034408D01*
X94747647Y-141755016D01*
X95171065Y-142475501D01*
X95594338Y-143195739D01*
X96017395Y-143915609D01*
X96440162Y-144634986D01*
X96862568Y-145353748D01*
X97284540Y-146071772D01*
X97706006Y-146788935D01*
X98126893Y-147505114D01*
X98547130Y-148220186D01*
X98966644Y-148934027D01*
X99385363Y-149646516D01*
X99803215Y-150357529D01*
X100220127Y-151066943D01*
X100636027Y-151774635D01*
X101050843Y-152480482D01*
D11*
X179423908Y-130145741D02*
X221564560Y-130145741D01*
X82742337Y-96700554D02*
X106087429Y-96700751D01*
D10*
X80542927Y-98902886D02*
X80585037Y-99870952D01*
X80636267Y-100843497D01*
X80696855Y-101820012D01*
X80767041Y-102799992D01*
X80847063Y-103782929D01*
X80937159Y-104768317D01*
X81037568Y-105755648D01*
X81148530Y-106744417D01*
X81270282Y-107734116D01*
X81403064Y-108724238D01*
X81547114Y-109714277D01*
X81702671Y-110703725D01*
X81869974Y-111692077D01*
X82049261Y-112678825D01*
X82240771Y-113663462D01*
X82444743Y-114645481D01*
X82661415Y-115624377D01*
X82891027Y-116599641D01*
X83133817Y-117570767D01*
X83390023Y-118537249D01*
X83659885Y-119498579D01*
X83943641Y-120454251D01*
X84241529Y-121403758D01*
X84553789Y-122346593D01*
X84880660Y-123282249D01*
X85222379Y-124210220D01*
X85579187Y-125129998D01*
X85951320Y-126041077D01*
X86339019Y-126942951D01*
X86742522Y-127835111D01*
X87162067Y-128717052D01*
X87597894Y-129588267D01*
D11*
X108287065Y-94500652D02*
X108287065Y-48642768D01*
D10*
X175923908Y-143367664D02*
X175916171Y-143521141D01*
X175893461Y-143670160D01*
X175856528Y-143813968D01*
X175806125Y-143951816D01*
X175743002Y-144082952D01*
X175667909Y-144206624D01*
X175581598Y-144322083D01*
X175484821Y-144428577D01*
X175378327Y-144525354D01*
X175262868Y-144611665D01*
X175139196Y-144686758D01*
X175008060Y-144749881D01*
X174870212Y-144800284D01*
X174726404Y-144837217D01*
X174577385Y-144859927D01*
X174423908Y-144867664D01*
X82742093Y-96700750D02*
X82627504Y-96703569D01*
X82514581Y-96711940D01*
X82403454Y-96725734D01*
X82294251Y-96744822D01*
X82187102Y-96769073D01*
X82082136Y-96798359D01*
X81979482Y-96832550D01*
X81879271Y-96871517D01*
X81781630Y-96915130D01*
X81686690Y-96963259D01*
X81594579Y-97015776D01*
X81505428Y-97072551D01*
X81419365Y-97133454D01*
X81336519Y-97198356D01*
X81257021Y-97267128D01*
X81180998Y-97339641D01*
X81108582Y-97415763D01*
X81039900Y-97495368D01*
X80975082Y-97578324D01*
X80914258Y-97664502D01*
X80857557Y-97753774D01*
X80805108Y-97846009D01*
X80757040Y-97941078D01*
X80713483Y-98038853D01*
X80674566Y-98139202D01*
X80640418Y-98241997D01*
X80611169Y-98347109D01*
X80586949Y-98454408D01*
X80567885Y-98563765D01*
X80554108Y-98675049D01*
X80545747Y-98788133D01*
X80542932Y-98902886D01*
X223064560Y-52792761D02*
X222988892Y-52465739D01*
X222764320Y-52143040D01*
X222394485Y-51825060D01*
X221883031Y-51512196D01*
X221233600Y-51204845D01*
X220449836Y-50903406D01*
X219535381Y-50608276D01*
X218493879Y-50319852D01*
X217328972Y-50038531D01*
X216044305Y-49764711D01*
X214643519Y-49498790D01*
X213130257Y-49241164D01*
X211508163Y-48992231D01*
X209780880Y-48752389D01*
X207952051Y-48522035D01*
X206025318Y-48301567D01*
X204004325Y-48091381D01*
X201892715Y-47891875D01*
X199694130Y-47703447D01*
X197412214Y-47526494D01*
X195050610Y-47361413D01*
X192612961Y-47208602D01*
X190102909Y-47068459D01*
X187524098Y-46941380D01*
X184880171Y-46827763D01*
X182174771Y-46728006D01*
X179411541Y-46642506D01*
X176594123Y-46571660D01*
X173726162Y-46515865D01*
X170811299Y-46475520D01*
X167853178Y-46451022D01*
X164855442Y-46442768D01*
X101050843Y-152480482D02*
X101119896Y-152566187D01*
X101200202Y-152637257D01*
X101289704Y-152693610D01*
X101386346Y-152735162D01*
X101488072Y-152761829D01*
X101592827Y-152773528D01*
X101698555Y-152770176D01*
X101803199Y-152751688D01*
X101904704Y-152717983D01*
X102001014Y-152668975D01*
X102061319Y-152627762D01*
X110486672Y-46442768D02*
X110373393Y-46445627D01*
X110261612Y-46454115D01*
X110151465Y-46468093D01*
X110043090Y-46487423D01*
X109936626Y-46511968D01*
X109832209Y-46541590D01*
X109729977Y-46576152D01*
X109630068Y-46615515D01*
X109532620Y-46659543D01*
X109437770Y-46708096D01*
X109345656Y-46761039D01*
X109256416Y-46818232D01*
X109170187Y-46879539D01*
X109087107Y-46944821D01*
X109007313Y-47013941D01*
X108930944Y-47086762D01*
X108858136Y-47163144D01*
X108789028Y-47242952D01*
X108723758Y-47326047D01*
X108662462Y-47412292D01*
X108605279Y-47501548D01*
X108552346Y-47593678D01*
X108503801Y-47688545D01*
X108459782Y-47786011D01*
X108420425Y-47885937D01*
X108385870Y-47988187D01*
X108356253Y-48092623D01*
X108331712Y-48199107D01*
X108312385Y-48307501D01*
X108298410Y-48417667D01*
X108289924Y-48529469D01*
X108287065Y-48642768D01*
D11*
X223064560Y-52792761D02*
X223064560Y-128645741D01*
D10*
X175923908Y-133645741D02*
X175928457Y-133465492D01*
X175941960Y-133287626D01*
X175964198Y-133112361D01*
X175994951Y-132939916D01*
X176034000Y-132770511D01*
X176081126Y-132604363D01*
X176136110Y-132441693D01*
X176198734Y-132282718D01*
X176268777Y-132127660D01*
X176346022Y-131976735D01*
X176430248Y-131830164D01*
X176521238Y-131688165D01*
X176618771Y-131550958D01*
X176722629Y-131418762D01*
X176832593Y-131291795D01*
X176948444Y-131170276D01*
X177069962Y-131054426D01*
X177196929Y-130944462D01*
X177329126Y-130840604D01*
X177466333Y-130743070D01*
X177608331Y-130652081D01*
X177754902Y-130567854D01*
X177905827Y-130490610D01*
X178060886Y-130420566D01*
X178219860Y-130357943D01*
X178382530Y-130302959D01*
X178548678Y-130255832D01*
X178718084Y-130216783D01*
X178890529Y-130186031D01*
X179065794Y-130163793D01*
X179243660Y-130150290D01*
X179423908Y-130145741D01*
D11*
X175923908Y-133645741D02*
X175923908Y-143367664D01*
X115467734Y-144867664D02*
X174423908Y-144867664D01*
D10*
X106087457Y-96700652D02*
X106200735Y-96697792D01*
X106312517Y-96689304D01*
X106422664Y-96675326D01*
X106531038Y-96655996D01*
X106637503Y-96631451D01*
X106741920Y-96601829D01*
X106844152Y-96567267D01*
X106944060Y-96527904D01*
X107041509Y-96483876D01*
X107136359Y-96435323D01*
X107228473Y-96382380D01*
X107317713Y-96325187D01*
X107403942Y-96263880D01*
X107487022Y-96198598D01*
X107566816Y-96129478D01*
X107643185Y-96056658D01*
X107715993Y-95980275D01*
X107785100Y-95900467D01*
X107850371Y-95817372D01*
X107911667Y-95731127D01*
X107968850Y-95641871D01*
X108021783Y-95549741D01*
X108070328Y-95454874D01*
X108114347Y-95357408D01*
X108153704Y-95257482D01*
X108188259Y-95155232D01*
X108217876Y-95050796D01*
X108242417Y-94944312D01*
X108261744Y-94835918D01*
X108275719Y-94725752D01*
X108284205Y-94613950D01*
X108287065Y-94500652D01*
X102061319Y-152627762D02*
X102474661Y-152388458D01*
X102889084Y-152148529D01*
X103304516Y-151908016D01*
X103720883Y-151666961D01*
X104138116Y-151425405D01*
X104556140Y-151183391D01*
X104974885Y-150940960D01*
X105394279Y-150698153D01*
X105814248Y-150455013D01*
X106234721Y-150211581D01*
X106655627Y-149967899D01*
X107076893Y-149724008D01*
X107498447Y-149479950D01*
X107920216Y-149235768D01*
X108342130Y-148991502D01*
X108764116Y-148747195D01*
X109186101Y-148502887D01*
X109608014Y-148258622D01*
X110029783Y-148014440D01*
X110451336Y-147770383D01*
X110872600Y-147526493D01*
X111293504Y-147282812D01*
X111713976Y-147039381D01*
X112133943Y-146796242D01*
X112553333Y-146553437D01*
X112972075Y-146311007D01*
X113390097Y-146068995D01*
X113807326Y-145827442D01*
X114223690Y-145586389D01*
X114639117Y-145345878D01*
X115053536Y-145105951D01*
X115466874Y-144866651D01*
D11*
X164855442Y-46442768D02*
X110486672Y-46442768D01*
D10*
X223064560Y-128645741D02*
X223056823Y-128799218D01*
X223034113Y-128948236D01*
X222997180Y-129092045D01*
X222946777Y-129229892D01*
X222883654Y-129361028D01*
X222808561Y-129484701D01*
X222722250Y-129600160D01*
X222625473Y-129706653D01*
X222518979Y-129803431D01*
X222403520Y-129889742D01*
X222279848Y-129964834D01*
X222148712Y-130027958D01*
X222010864Y-130078361D01*
X221867056Y-130115293D01*
X221718037Y-130138004D01*
X221564560Y-130145741D01*
D12*
X111075000Y-123225000D02*
X111075000Y-109775000D01*
X111375000Y-109475000D02*
X124825000Y-109475000D01*
X124825000Y-123525000D02*
X111375000Y-123525000D01*
X125125000Y-109775000D02*
X125125000Y-123225000D01*
X111075000Y-109775000D02*
G75*
G02*
X111375000Y-109475000I300000J0D01*
G01*
X111375000Y-123525000D02*
G75*
G02*
X111075000Y-123225000I0J300000D01*
G01*
X124825000Y-109475000D02*
G75*
G02*
X125125000Y-109775000I0J-300000D01*
G01*
X125125000Y-123225000D02*
G75*
G02*
X124825000Y-123525000I-300000J0D01*
G01*
X168225000Y-120825000D02*
X168225000Y-107375000D01*
X168525000Y-107075000D02*
X181975000Y-107075000D01*
X181975000Y-121125000D02*
X168525000Y-121125000D01*
X182275000Y-107375000D02*
X182275000Y-120825000D01*
X168225000Y-107375000D02*
G75*
G02*
X168525000Y-107075000I300000J0D01*
G01*
X168525000Y-121125000D02*
G75*
G02*
X168225000Y-120825000I0J300000D01*
G01*
X181975000Y-107075000D02*
G75*
G02*
X182275000Y-107375000I0J-300000D01*
G01*
X182275000Y-120825000D02*
G75*
G02*
X181975000Y-121125000I-300000J0D01*
G01*
X149175000Y-62275000D02*
X149175000Y-48825000D01*
X149475000Y-48525000D02*
X162925000Y-48525000D01*
X162925000Y-62575000D02*
X149475000Y-62575000D01*
X163225000Y-48825000D02*
X163225000Y-62275000D01*
X149175000Y-48825000D02*
G75*
G02*
X149475000Y-48525000I300000J0D01*
G01*
X149475000Y-62575000D02*
G75*
G02*
X149175000Y-62275000I0J300000D01*
G01*
X162925000Y-48525000D02*
G75*
G02*
X163225000Y-48825000I0J-300000D01*
G01*
X163225000Y-62275000D02*
G75*
G02*
X162925000Y-62575000I-300000J0D01*
G01*
X149175000Y-100375000D02*
X149175000Y-86925000D01*
X149475000Y-86625000D02*
X162925000Y-86625000D01*
X162925000Y-100675000D02*
X149475000Y-100675000D01*
X163225000Y-86925000D02*
X163225000Y-100375000D01*
X149175000Y-86925000D02*
G75*
G02*
X149475000Y-86625000I300000J0D01*
G01*
X149475000Y-100675000D02*
G75*
G02*
X149175000Y-100375000I0J300000D01*
G01*
X162925000Y-86625000D02*
G75*
G02*
X163225000Y-86925000I0J-300000D01*
G01*
X163225000Y-100375000D02*
G75*
G02*
X162925000Y-100675000I-300000J0D01*
G01*
X168225000Y-82725000D02*
X168225000Y-69275000D01*
X168525000Y-68975000D02*
X181975000Y-68975000D01*
X181975000Y-83025000D02*
X168525000Y-83025000D01*
X182275000Y-69275000D02*
X182275000Y-82725000D01*
X168225000Y-69275000D02*
G75*
G02*
X168525000Y-68975000I300000J0D01*
G01*
X168525000Y-83025000D02*
G75*
G02*
X168225000Y-82725000I0J300000D01*
G01*
X181975000Y-68975000D02*
G75*
G02*
X182275000Y-69275000I0J-300000D01*
G01*
X182275000Y-82725000D02*
G75*
G02*
X181975000Y-83025000I-300000J0D01*
G01*
X206325000Y-89025000D02*
X206325000Y-75575000D01*
X206625000Y-75275000D02*
X220075000Y-75275000D01*
X220075000Y-89325000D02*
X206625000Y-89325000D01*
X220375000Y-75575000D02*
X220375000Y-89025000D01*
X206325000Y-75575000D02*
G75*
G02*
X206625000Y-75275000I300000J0D01*
G01*
X206625000Y-89325000D02*
G75*
G02*
X206325000Y-89025000I0J300000D01*
G01*
X220075000Y-75275000D02*
G75*
G02*
X220375000Y-75575000I0J-300000D01*
G01*
X220375000Y-89025000D02*
G75*
G02*
X220075000Y-89325000I-300000J0D01*
G01*
X111075000Y-85125000D02*
X111075000Y-71675000D01*
X111375000Y-71375000D02*
X124825000Y-71375000D01*
X124825000Y-85425000D02*
X111375000Y-85425000D01*
X125125000Y-71675000D02*
X125125000Y-85125000D01*
X111075000Y-71675000D02*
G75*
G02*
X111375000Y-71375000I300000J0D01*
G01*
X111375000Y-85425000D02*
G75*
G02*
X111075000Y-85125000I0J300000D01*
G01*
X124825000Y-71375000D02*
G75*
G02*
X125125000Y-71675000I0J-300000D01*
G01*
X125125000Y-85125000D02*
G75*
G02*
X124825000Y-85425000I-300000J0D01*
G01*
X206325000Y-108075000D02*
X206325000Y-94625000D01*
X206625000Y-94325000D02*
X220075000Y-94325000D01*
X220075000Y-108375000D02*
X206625000Y-108375000D01*
X220375000Y-94625000D02*
X220375000Y-108075000D01*
X206325000Y-94625000D02*
G75*
G02*
X206625000Y-94325000I300000J0D01*
G01*
X206625000Y-108375000D02*
G75*
G02*
X206325000Y-108075000I0J300000D01*
G01*
X220075000Y-94325000D02*
G75*
G02*
X220375000Y-94625000I0J-300000D01*
G01*
X220375000Y-108075000D02*
G75*
G02*
X220075000Y-108375000I-300000J0D01*
G01*
X149175000Y-81325000D02*
X149175000Y-67875000D01*
X149475000Y-67575000D02*
X162925000Y-67575000D01*
X162925000Y-81625000D02*
X149475000Y-81625000D01*
X163225000Y-67875000D02*
X163225000Y-81325000D01*
X149175000Y-67875000D02*
G75*
G02*
X149475000Y-67575000I300000J0D01*
G01*
X149475000Y-81625000D02*
G75*
G02*
X149175000Y-81325000I0J300000D01*
G01*
X162925000Y-67575000D02*
G75*
G02*
X163225000Y-67875000I0J-300000D01*
G01*
X163225000Y-81325000D02*
G75*
G02*
X162925000Y-81625000I-300000J0D01*
G01*
X130125000Y-101775000D02*
X130125000Y-88325000D01*
X130425000Y-88025000D02*
X143875000Y-88025000D01*
X143875000Y-102075000D02*
X130425000Y-102075000D01*
X144175000Y-88325000D02*
X144175000Y-101775000D01*
X130125000Y-88325000D02*
G75*
G02*
X130425000Y-88025000I300000J0D01*
G01*
X130425000Y-102075000D02*
G75*
G02*
X130125000Y-101775000I0J300000D01*
G01*
X143875000Y-88025000D02*
G75*
G02*
X144175000Y-88325000I0J-300000D01*
G01*
X144175000Y-101775000D02*
G75*
G02*
X143875000Y-102075000I-300000J0D01*
G01*
X187275000Y-106625000D02*
X187275000Y-93175000D01*
X187575000Y-92875000D02*
X201025000Y-92875000D01*
X201025000Y-106925000D02*
X187575000Y-106925000D01*
X201325000Y-93175000D02*
X201325000Y-106625000D01*
X187275000Y-93175000D02*
G75*
G02*
X187575000Y-92875000I300000J0D01*
G01*
X187575000Y-106925000D02*
G75*
G02*
X187275000Y-106625000I0J300000D01*
G01*
X201025000Y-92875000D02*
G75*
G02*
X201325000Y-93175000I0J-300000D01*
G01*
X201325000Y-106625000D02*
G75*
G02*
X201025000Y-106925000I-300000J0D01*
G01*
X206325000Y-69975000D02*
X206325000Y-56525000D01*
X206625000Y-56225000D02*
X220075000Y-56225000D01*
X220075000Y-70275000D02*
X206625000Y-70275000D01*
X220375000Y-56525000D02*
X220375000Y-69975000D01*
X206325000Y-56525000D02*
G75*
G02*
X206625000Y-56225000I300000J0D01*
G01*
X206625000Y-70275000D02*
G75*
G02*
X206325000Y-69975000I0J300000D01*
G01*
X220075000Y-56225000D02*
G75*
G02*
X220375000Y-56525000I0J-300000D01*
G01*
X220375000Y-69975000D02*
G75*
G02*
X220075000Y-70275000I-300000J0D01*
G01*
X158675000Y-139875000D02*
X158675000Y-126425000D01*
X158975000Y-126125000D02*
X172425000Y-126125000D01*
X172425000Y-140175000D02*
X158975000Y-140175000D01*
X172725000Y-126425000D02*
X172725000Y-139875000D01*
X158675000Y-126425000D02*
G75*
G02*
X158975000Y-126125000I300000J0D01*
G01*
X158975000Y-140175000D02*
G75*
G02*
X158675000Y-139875000I0J300000D01*
G01*
X172425000Y-126125000D02*
G75*
G02*
X172725000Y-126425000I0J-300000D01*
G01*
X172725000Y-139875000D02*
G75*
G02*
X172425000Y-140175000I-300000J0D01*
G01*
X187275000Y-125675000D02*
X187275000Y-112225000D01*
X187575000Y-111925000D02*
X201025000Y-111925000D01*
X201025000Y-125975000D02*
X187575000Y-125975000D01*
X201325000Y-112225000D02*
X201325000Y-125675000D01*
X187275000Y-112225000D02*
G75*
G02*
X187575000Y-111925000I300000J0D01*
G01*
X187575000Y-125975000D02*
G75*
G02*
X187275000Y-125675000I0J300000D01*
G01*
X201025000Y-111925000D02*
G75*
G02*
X201325000Y-112225000I0J-300000D01*
G01*
X201325000Y-125675000D02*
G75*
G02*
X201025000Y-125975000I-300000J0D01*
G01*
X206325000Y-127125000D02*
X206325000Y-113675000D01*
X206625000Y-113375000D02*
X220075000Y-113375000D01*
X220075000Y-127425000D02*
X206625000Y-127425000D01*
X220375000Y-113675000D02*
X220375000Y-127125000D01*
X206325000Y-113675000D02*
G75*
G02*
X206625000Y-113375000I300000J0D01*
G01*
X206625000Y-127425000D02*
G75*
G02*
X206325000Y-127125000I0J300000D01*
G01*
X220075000Y-113375000D02*
G75*
G02*
X220375000Y-113675000I0J-300000D01*
G01*
X220375000Y-127125000D02*
G75*
G02*
X220075000Y-127425000I-300000J0D01*
G01*
X111075000Y-104175000D02*
X111075000Y-90725000D01*
X111375000Y-90425000D02*
X124825000Y-90425000D01*
X124825000Y-104475000D02*
X111375000Y-104475000D01*
X125125000Y-90725000D02*
X125125000Y-104175000D01*
X111075000Y-90725000D02*
G75*
G02*
X111375000Y-90425000I300000J0D01*
G01*
X111375000Y-104475000D02*
G75*
G02*
X111075000Y-104175000I0J300000D01*
G01*
X124825000Y-90425000D02*
G75*
G02*
X125125000Y-90725000I0J-300000D01*
G01*
X125125000Y-104175000D02*
G75*
G02*
X124825000Y-104475000I-300000J0D01*
G01*
X92025000Y-113625000D02*
X92025000Y-100175000D01*
X92325000Y-99875000D02*
X105775000Y-99875000D01*
X105775000Y-113925000D02*
X92325000Y-113925000D01*
X106075000Y-100175000D02*
X106075000Y-113625000D01*
X92025000Y-100175000D02*
G75*
G02*
X92325000Y-99875000I300000J0D01*
G01*
X92325000Y-113925000D02*
G75*
G02*
X92025000Y-113625000I0J300000D01*
G01*
X105775000Y-99875000D02*
G75*
G02*
X106075000Y-100175000I0J-300000D01*
G01*
X106075000Y-113625000D02*
G75*
G02*
X105775000Y-113925000I-300000J0D01*
G01*
X168225000Y-63675000D02*
X168225000Y-50225000D01*
X168525000Y-49925000D02*
X181975000Y-49925000D01*
X181975000Y-63975000D02*
X168525000Y-63975000D01*
X182275000Y-50225000D02*
X182275000Y-63675000D01*
X168225000Y-50225000D02*
G75*
G02*
X168525000Y-49925000I300000J0D01*
G01*
X168525000Y-63975000D02*
G75*
G02*
X168225000Y-63675000I0J300000D01*
G01*
X181975000Y-49925000D02*
G75*
G02*
X182275000Y-50225000I0J-300000D01*
G01*
X182275000Y-63675000D02*
G75*
G02*
X181975000Y-63975000I-300000J0D01*
G01*
X130125000Y-120825000D02*
X130125000Y-107375000D01*
X130425000Y-107075000D02*
X143875000Y-107075000D01*
X143875000Y-121125000D02*
X130425000Y-121125000D01*
X144175000Y-107375000D02*
X144175000Y-120825000D01*
X130125000Y-107375000D02*
G75*
G02*
X130425000Y-107075000I300000J0D01*
G01*
X130425000Y-121125000D02*
G75*
G02*
X130125000Y-120825000I0J300000D01*
G01*
X143875000Y-107075000D02*
G75*
G02*
X144175000Y-107375000I0J-300000D01*
G01*
X144175000Y-120825000D02*
G75*
G02*
X143875000Y-121125000I-300000J0D01*
G01*
X187275000Y-87575000D02*
X187275000Y-74125000D01*
X187575000Y-73825000D02*
X201025000Y-73825000D01*
X201025000Y-87875000D02*
X187575000Y-87875000D01*
X201325000Y-74125000D02*
X201325000Y-87575000D01*
X187275000Y-74125000D02*
G75*
G02*
X187575000Y-73825000I300000J0D01*
G01*
X187575000Y-87875000D02*
G75*
G02*
X187275000Y-87575000I0J300000D01*
G01*
X201025000Y-73825000D02*
G75*
G02*
X201325000Y-74125000I0J-300000D01*
G01*
X201325000Y-87575000D02*
G75*
G02*
X201025000Y-87875000I-300000J0D01*
G01*
X130125000Y-82725000D02*
X130125000Y-69275000D01*
X130425000Y-68975000D02*
X143875000Y-68975000D01*
X143875000Y-83025000D02*
X130425000Y-83025000D01*
X144175000Y-69275000D02*
X144175000Y-82725000D01*
X130125000Y-69275000D02*
G75*
G02*
X130425000Y-68975000I300000J0D01*
G01*
X130425000Y-83025000D02*
G75*
G02*
X130125000Y-82725000I0J300000D01*
G01*
X143875000Y-68975000D02*
G75*
G02*
X144175000Y-69275000I0J-300000D01*
G01*
X144175000Y-82725000D02*
G75*
G02*
X143875000Y-83025000I-300000J0D01*
G01*
X93263479Y-133628672D02*
X104911521Y-126903672D01*
X99878672Y-145686521D02*
X93153672Y-134038479D01*
X105321328Y-127013479D02*
X112046328Y-138661521D01*
X111936521Y-139071328D02*
X100288479Y-145796328D01*
X93153672Y-134038479D02*
G75*
G02*
X93263479Y-133628672I259817J149997D01*
G01*
X100288479Y-145796328D02*
G75*
G02*
X99878672Y-145686521I-149997J259817D01*
G01*
X104911521Y-126903672D02*
G75*
G02*
X105321328Y-127013479I150000J-259807D01*
G01*
X112046328Y-138661521D02*
G75*
G02*
X111936521Y-139071328I-259807J-150000D01*
G01*
X149175000Y-119425000D02*
X149175000Y-105975000D01*
X149475000Y-105675000D02*
X162925000Y-105675000D01*
X162925000Y-119725000D02*
X149475000Y-119725000D01*
X163225000Y-105975000D02*
X163225000Y-119425000D01*
X149175000Y-105975000D02*
G75*
G02*
X149475000Y-105675000I300000J0D01*
G01*
X149475000Y-119725000D02*
G75*
G02*
X149175000Y-119425000I0J300000D01*
G01*
X162925000Y-105675000D02*
G75*
G02*
X163225000Y-105975000I0J-300000D01*
G01*
X163225000Y-119425000D02*
G75*
G02*
X162925000Y-119725000I-300000J0D01*
G01*
X187275000Y-68525000D02*
X187275000Y-55075000D01*
X187575000Y-54775000D02*
X201025000Y-54775000D01*
X201025000Y-68825000D02*
X187575000Y-68825000D01*
X201325000Y-55075000D02*
X201325000Y-68525000D01*
X187275000Y-55075000D02*
G75*
G02*
X187575000Y-54775000I300000J0D01*
G01*
X187575000Y-68825000D02*
G75*
G02*
X187275000Y-68525000I0J300000D01*
G01*
X201025000Y-54775000D02*
G75*
G02*
X201325000Y-55075000I0J-300000D01*
G01*
X201325000Y-68525000D02*
G75*
G02*
X201025000Y-68825000I-300000J0D01*
G01*
X139625000Y-139875000D02*
X139625000Y-126425000D01*
X139925000Y-126125000D02*
X153375000Y-126125000D01*
X153375000Y-140175000D02*
X139925000Y-140175000D01*
X153675000Y-126425000D02*
X153675000Y-139875000D01*
X139625000Y-126425000D02*
G75*
G02*
X139925000Y-126125000I300000J0D01*
G01*
X139925000Y-140175000D02*
G75*
G02*
X139625000Y-139875000I0J300000D01*
G01*
X153375000Y-126125000D02*
G75*
G02*
X153675000Y-126425000I0J-300000D01*
G01*
X153675000Y-139875000D02*
G75*
G02*
X153375000Y-140175000I-300000J0D01*
G01*
X168225000Y-101775000D02*
X168225000Y-88325000D01*
X168525000Y-88025000D02*
X181975000Y-88025000D01*
X181975000Y-102075000D02*
X168525000Y-102075000D01*
X182275000Y-88325000D02*
X182275000Y-101775000D01*
X168225000Y-88325000D02*
G75*
G02*
X168525000Y-88025000I300000J0D01*
G01*
X168525000Y-102075000D02*
G75*
G02*
X168225000Y-101775000I0J300000D01*
G01*
X181975000Y-88025000D02*
G75*
G02*
X182275000Y-88325000I0J-300000D01*
G01*
X182275000Y-101775000D02*
G75*
G02*
X181975000Y-102075000I-300000J0D01*
G01*
X130125000Y-63675000D02*
X130125000Y-50225000D01*
X130425000Y-49925000D02*
X143875000Y-49925000D01*
X143875000Y-63975000D02*
X130425000Y-63975000D01*
X144175000Y-50225000D02*
X144175000Y-63675000D01*
X130125000Y-50225000D02*
G75*
G02*
X130425000Y-49925000I300000J0D01*
G01*
X130425000Y-63975000D02*
G75*
G02*
X130125000Y-63675000I0J300000D01*
G01*
X143875000Y-49925000D02*
G75*
G02*
X144175000Y-50225000I0J-300000D01*
G01*
X144175000Y-63675000D02*
G75*
G02*
X143875000Y-63975000I-300000J0D01*
G01*
X120575000Y-142275000D02*
X120575000Y-128825000D01*
X120875000Y-128525000D02*
X134325000Y-128525000D01*
X134325000Y-142575000D02*
X120875000Y-142575000D01*
X134625000Y-128825000D02*
X134625000Y-142275000D01*
X120575000Y-128825000D02*
G75*
G02*
X120875000Y-128525000I300000J0D01*
G01*
X120875000Y-142575000D02*
G75*
G02*
X120575000Y-142275000I0J300000D01*
G01*
X134325000Y-128525000D02*
G75*
G02*
X134625000Y-128825000I0J-300000D01*
G01*
X134625000Y-142275000D02*
G75*
G02*
X134325000Y-142575000I-300000J0D01*
G01*
X111075000Y-66075000D02*
X111075000Y-52625000D01*
X111375000Y-52325000D02*
X124825000Y-52325000D01*
X124825000Y-66375000D02*
X111375000Y-66375000D01*
X125125000Y-52625000D02*
X125125000Y-66075000D01*
X111075000Y-52625000D02*
G75*
G02*
X111375000Y-52325000I300000J0D01*
G01*
X111375000Y-66375000D02*
G75*
G02*
X111075000Y-66075000I0J300000D01*
G01*
X124825000Y-52325000D02*
G75*
G02*
X125125000Y-52625000I0J-300000D01*
G01*
X125125000Y-66075000D02*
G75*
G02*
X124825000Y-66375000I-300000J0D01*
G01*
M02*
