G04 #@! TF.GenerationSoftware,KiCad,Pcbnew,9.0.1*
G04 #@! TF.CreationDate,2025-05-10T22:11:09+12:00*
G04 #@! TF.ProjectId,Plate,506c6174-652e-46b6-9963-61645f706362,v1.0.0*
G04 #@! TF.SameCoordinates,Original*
G04 #@! TF.FileFunction,Copper,L1,Top*
G04 #@! TF.FilePolarity,Positive*
%FSLAX46Y46*%
G04 Gerber Fmt 4.6, Leading zero omitted, Abs format (unit mm)*
G04 Created by KiCad (PCBNEW 9.0.1) date 2025-05-10 22:11:09*
%MOMM*%
%LPD*%
G01*
G04 APERTURE LIST*
G04 #@! TA.AperFunction,ComponentPad*
%ADD10C,4.400000*%
G04 #@! TD*
G04 APERTURE END LIST*
D10*
X203400000Y-109200000D03*
X127600000Y-105500000D03*
X203400000Y-71200000D03*
X127600000Y-67500000D03*
X102200000Y-122000000D03*
G04 #@! TA.AperFunction,NonConductor*
G36*
X136034422Y-46693271D02*
G01*
X136254332Y-46694803D01*
X183284147Y-47022537D01*
X183287816Y-47022617D01*
X185695723Y-47111792D01*
X185696601Y-47111829D01*
X189735939Y-47300195D01*
X189736947Y-47300247D01*
X193563530Y-47517147D01*
X193564760Y-47517223D01*
X197157317Y-47758993D01*
X197158402Y-47759072D01*
X200499627Y-48021739D01*
X200500962Y-48021851D01*
X203578941Y-48301313D01*
X203580392Y-48301454D01*
X206388447Y-48593584D01*
X206390099Y-48593767D01*
X208926737Y-48894538D01*
X208928485Y-48894760D01*
X211196653Y-49200276D01*
X211198824Y-49200588D01*
X213206394Y-49507306D01*
X213208757Y-49507692D01*
X214966765Y-49812325D01*
X214969497Y-49812831D01*
X216492107Y-50112467D01*
X216495216Y-50113122D01*
X217798480Y-50405157D01*
X217802120Y-50406030D01*
X218718042Y-50640664D01*
X218903643Y-50688210D01*
X218907966Y-50689400D01*
X219826029Y-50959729D01*
X219831092Y-50961337D01*
X220584259Y-51218078D01*
X220590223Y-51220280D01*
X220605912Y-51226528D01*
X221196840Y-51461864D01*
X221203856Y-51464910D01*
X221681545Y-51689800D01*
X221689843Y-51694090D01*
X222042932Y-51893649D01*
X222055365Y-51900676D01*
X222065122Y-51906795D01*
X222307192Y-52074500D01*
X222334345Y-52093311D01*
X222345550Y-52102049D01*
X222533548Y-52266506D01*
X222545884Y-52278911D01*
X222667412Y-52419407D01*
X222679922Y-52436616D01*
X222749977Y-52552418D01*
X222760791Y-52575155D01*
X222794412Y-52669045D01*
X222800911Y-52696685D01*
X222813183Y-52800167D01*
X222814060Y-52815005D01*
X222814060Y-128630637D01*
X222813656Y-128640724D01*
X222797814Y-128837978D01*
X222794548Y-128858081D01*
X222751306Y-129033298D01*
X222744812Y-129052686D01*
X222673740Y-129218741D01*
X222664197Y-129236822D01*
X222566482Y-129390334D01*
X222554140Y-129406635D01*
X222426841Y-129549083D01*
X222415920Y-129559896D01*
X222352451Y-129615501D01*
X222344445Y-129621958D01*
X222270363Y-129676862D01*
X222261835Y-129682657D01*
X222183848Y-129731111D01*
X222174833Y-129736211D01*
X222092721Y-129778306D01*
X222083300Y-129782655D01*
X221998761Y-129817538D01*
X221988981Y-129821108D01*
X221900924Y-129849188D01*
X221890881Y-129851939D01*
X221801636Y-129872461D01*
X221791411Y-129874372D01*
X221701039Y-129887425D01*
X221689436Y-129888556D01*
X221570518Y-129894612D01*
X221561378Y-129895078D01*
X221554972Y-129895241D01*
X179468920Y-129895241D01*
X179464407Y-129893565D01*
X179419265Y-129895241D01*
X179374077Y-129895241D01*
X179373554Y-129895345D01*
X179353666Y-129897675D01*
X179212206Y-129902927D01*
X179191590Y-129903692D01*
X179183639Y-129901308D01*
X179142101Y-129905529D01*
X179138037Y-129905680D01*
X179138035Y-129905681D01*
X179100307Y-129907082D01*
X179088629Y-129909859D01*
X179072225Y-129912630D01*
X179006716Y-129919288D01*
X178988778Y-129919827D01*
X178981479Y-129919525D01*
X178942238Y-129925657D01*
X178942239Y-129925658D01*
X178938883Y-129926182D01*
X178896030Y-129930538D01*
X178889901Y-129933837D01*
X178871571Y-129936702D01*
X178807571Y-129946704D01*
X178789705Y-129948205D01*
X178782361Y-129948297D01*
X178743535Y-129956527D01*
X178736870Y-129957753D01*
X178697657Y-129963882D01*
X178690757Y-129966412D01*
X178673524Y-129971369D01*
X178609396Y-129984963D01*
X178591649Y-129987423D01*
X178584286Y-129987913D01*
X178545999Y-129998216D01*
X178539391Y-129999805D01*
X178500557Y-130008037D01*
X178493762Y-130010952D01*
X178476840Y-130016824D01*
X178414918Y-130033486D01*
X178397325Y-130036900D01*
X178389990Y-130037788D01*
X178389986Y-130037789D01*
X178352267Y-130050155D01*
X178345775Y-130052091D01*
X178307474Y-130062397D01*
X178300846Y-130065674D01*
X178284264Y-130072450D01*
X178222407Y-130092731D01*
X178205018Y-130097090D01*
X178197755Y-130098369D01*
X178160773Y-130112745D01*
X178154383Y-130115033D01*
X178116684Y-130127394D01*
X178110257Y-130131016D01*
X178094057Y-130138681D01*
X178034339Y-130161895D01*
X178017216Y-130167184D01*
X178010052Y-130168849D01*
X177973889Y-130185200D01*
X177967636Y-130187827D01*
X177930648Y-130202206D01*
X177924438Y-130206162D01*
X177908671Y-130214690D01*
X177849451Y-130241467D01*
X177832626Y-130247674D01*
X177825584Y-130249715D01*
X177790341Y-130267995D01*
X177784244Y-130270952D01*
X177748073Y-130287307D01*
X177742105Y-130291577D01*
X177726819Y-130300942D01*
X177669760Y-130330538D01*
X177653277Y-130337647D01*
X177646403Y-130340046D01*
X177612181Y-130360198D01*
X177606266Y-130363471D01*
X177571003Y-130381762D01*
X177565309Y-130386318D01*
X177550535Y-130396500D01*
X177494515Y-130429489D01*
X177478432Y-130437475D01*
X177471717Y-130440231D01*
X177438601Y-130462205D01*
X177432876Y-130465787D01*
X177398654Y-130485940D01*
X177393241Y-130490770D01*
X177379023Y-130501740D01*
X177325223Y-130537439D01*
X177309570Y-130546286D01*
X177303069Y-130549370D01*
X177271175Y-130573085D01*
X177265661Y-130576960D01*
X177232533Y-130598942D01*
X177227425Y-130604018D01*
X177213801Y-130615746D01*
X177161671Y-130654507D01*
X177146506Y-130664183D01*
X177140210Y-130667593D01*
X177109602Y-130692999D01*
X177104314Y-130697155D01*
X177072411Y-130720877D01*
X177067599Y-130726199D01*
X177054622Y-130738637D01*
X177003227Y-130781299D01*
X176988209Y-130790232D01*
X176988746Y-130791058D01*
X176978340Y-130797823D01*
X176953453Y-130822090D01*
X176953454Y-130822091D01*
X176949841Y-130825614D01*
X176919224Y-130851030D01*
X176914400Y-130860175D01*
X176900183Y-130874040D01*
X176713140Y-131056439D01*
X176697131Y-131068107D01*
X176687999Y-131075537D01*
X176669026Y-131098459D01*
X176664741Y-131103635D01*
X176638637Y-131129093D01*
X176633221Y-131141716D01*
X176621648Y-131155699D01*
X176621646Y-131155703D01*
X176452341Y-131360249D01*
X176437704Y-131373516D01*
X176429381Y-131381908D01*
X176412944Y-131406728D01*
X176404962Y-131417490D01*
X176385982Y-131440422D01*
X176380367Y-131450822D01*
X176371918Y-131468682D01*
X176225972Y-131689076D01*
X176225971Y-131689078D01*
X176215948Y-131704212D01*
X176205439Y-131713060D01*
X176188659Y-131745418D01*
X176184946Y-131751026D01*
X176184944Y-131751031D01*
X176168515Y-131775842D01*
X176164048Y-131786752D01*
X176157535Y-131805443D01*
X176036425Y-132039013D01*
X176028073Y-132055119D01*
X176018556Y-132065047D01*
X176005315Y-132099009D01*
X176002217Y-132104986D01*
X175988533Y-132131377D01*
X175985267Y-132142650D01*
X175980766Y-132161985D01*
X175885543Y-132406258D01*
X175878953Y-132423161D01*
X175870546Y-132434047D01*
X175860997Y-132469226D01*
X175858554Y-132475494D01*
X175847757Y-132503191D01*
X175845711Y-132514737D01*
X175843294Y-132534451D01*
X175774676Y-132787268D01*
X175769922Y-132804786D01*
X175762730Y-132816485D01*
X175756970Y-132852502D01*
X175755211Y-132858987D01*
X175755210Y-132858988D01*
X175747416Y-132887705D01*
X175746602Y-132899528D01*
X175746298Y-132919256D01*
X175704796Y-133178834D01*
X175701926Y-133196789D01*
X175696041Y-133209123D01*
X175694120Y-133245611D01*
X175693065Y-133252213D01*
X175693065Y-133252216D01*
X175688350Y-133281702D01*
X175688812Y-133293903D01*
X175690565Y-133313156D01*
X175679302Y-133527140D01*
X175676014Y-133589619D01*
X175673408Y-133595913D01*
X175673408Y-133639144D01*
X175673234Y-133642451D01*
X175673234Y-133642453D01*
X175671135Y-133682336D01*
X175672108Y-133689058D01*
X175673408Y-133707109D01*
X175673408Y-143352560D01*
X175673004Y-143362647D01*
X175657162Y-143559901D01*
X175653896Y-143580004D01*
X175610654Y-143755221D01*
X175604160Y-143774609D01*
X175533088Y-143940664D01*
X175523545Y-143958745D01*
X175425830Y-144112257D01*
X175413488Y-144128558D01*
X175286189Y-144271006D01*
X175275268Y-144281819D01*
X175211799Y-144337424D01*
X175203793Y-144343881D01*
X175129711Y-144398785D01*
X175121183Y-144404580D01*
X175043196Y-144453034D01*
X175034182Y-144458133D01*
X174952066Y-144500231D01*
X174942662Y-144504572D01*
X174858110Y-144539460D01*
X174848337Y-144543028D01*
X174760270Y-144571112D01*
X174750226Y-144573863D01*
X174660985Y-144594384D01*
X174650760Y-144596295D01*
X174560388Y-144609348D01*
X174548785Y-144610479D01*
X174429722Y-144616542D01*
X174420726Y-144617001D01*
X174414320Y-144617164D01*
X115503500Y-144617164D01*
X115483273Y-144611770D01*
X115442678Y-144617164D01*
X115417906Y-144617164D01*
X115417904Y-144617164D01*
X115410479Y-144618641D01*
X115389841Y-144624184D01*
X115384488Y-144624895D01*
X115384485Y-144624896D01*
X115354598Y-144642198D01*
X115347385Y-144646373D01*
X115325837Y-144655300D01*
X115317407Y-144663728D01*
X115303122Y-144671999D01*
X115303117Y-144672004D01*
X112869677Y-146080838D01*
X108111657Y-148835481D01*
X108111656Y-148835481D01*
X104566786Y-150887774D01*
X101988698Y-152380351D01*
X101975792Y-152386409D01*
X101934476Y-152411699D01*
X101931830Y-152413275D01*
X101889885Y-152437560D01*
X101878407Y-152446020D01*
X101834413Y-152472951D01*
X101816171Y-152482173D01*
X101785192Y-152494795D01*
X101770991Y-152499618D01*
X101765882Y-152501020D01*
X101731061Y-152510573D01*
X101716620Y-152513639D01*
X101674646Y-152520004D01*
X101660042Y-152521355D01*
X101628553Y-152522427D01*
X101606761Y-152521278D01*
X101515316Y-152508449D01*
X101486938Y-152501020D01*
X101417659Y-152473932D01*
X101391197Y-152459744D01*
X101335932Y-152420988D01*
X101313161Y-152400465D01*
X101262723Y-152342411D01*
X101249209Y-152323613D01*
X97580424Y-146080839D01*
X93909630Y-139834646D01*
X93909630Y-139834645D01*
X90545336Y-134109992D01*
X90441879Y-133933950D01*
X90402981Y-133867762D01*
X92859897Y-133867762D01*
X92869160Y-133991450D01*
X92869161Y-133991458D01*
X92905714Y-134109992D01*
X92905715Y-134109995D01*
X92905954Y-134110408D01*
X92911817Y-134120564D01*
X92911819Y-134120577D01*
X92936721Y-134163708D01*
X92936726Y-134163716D01*
X92936726Y-134163718D01*
X92936728Y-134163720D01*
X92964663Y-134212117D01*
X92964700Y-134212169D01*
X99636464Y-145768006D01*
X99636467Y-145768012D01*
X99639649Y-145773524D01*
X99639650Y-145773525D01*
X99654635Y-145799478D01*
X99654636Y-145799482D01*
X99654637Y-145799482D01*
X99661735Y-145811776D01*
X99661736Y-145811777D01*
X99692643Y-145865311D01*
X99692768Y-145865480D01*
X99777139Y-145956408D01*
X99777140Y-145956409D01*
X99879630Y-146026287D01*
X99879631Y-146026287D01*
X99879632Y-146026288D01*
X99879635Y-146026289D01*
X99995099Y-146071608D01*
X100117757Y-146090102D01*
X100117760Y-146090101D01*
X100117762Y-146090102D01*
X100173983Y-146085891D01*
X100241456Y-146080839D01*
X100359993Y-146044285D01*
X100370564Y-146038182D01*
X100370577Y-146038181D01*
X100415839Y-146012047D01*
X100415842Y-146012047D01*
X100415842Y-146012046D01*
X100451963Y-145991198D01*
X100451963Y-145991196D01*
X100463379Y-145984608D01*
X100463431Y-145984570D01*
X112023522Y-139310350D01*
X112023525Y-139310350D01*
X112050567Y-139294735D01*
X112104923Y-139263354D01*
X112104923Y-139263353D01*
X112115307Y-139257359D01*
X112115473Y-139257236D01*
X112115473Y-139257235D01*
X112115478Y-139257233D01*
X112206409Y-139172860D01*
X112276287Y-139070370D01*
X112321608Y-138954901D01*
X112340102Y-138832243D01*
X112336695Y-138786751D01*
X112330839Y-138708549D01*
X112330839Y-138708544D01*
X112294285Y-138590007D01*
X112288182Y-138579435D01*
X112288181Y-138579423D01*
X112262062Y-138534184D01*
X112241198Y-138498037D01*
X112241196Y-138498035D01*
X112235511Y-138488186D01*
X112235472Y-138488130D01*
X109760857Y-134201971D01*
X106620651Y-128762974D01*
X120324500Y-128762974D01*
X120324500Y-128775172D01*
X120324500Y-142230830D01*
X120324500Y-142275000D01*
X120324500Y-142337026D01*
X120352105Y-142457969D01*
X120405929Y-142569737D01*
X120483275Y-142666725D01*
X120580263Y-142744071D01*
X120692031Y-142797895D01*
X120812974Y-142825500D01*
X120812977Y-142825500D01*
X134387023Y-142825500D01*
X134387026Y-142825500D01*
X134507969Y-142797895D01*
X134619737Y-142744071D01*
X134716725Y-142666725D01*
X134794071Y-142569737D01*
X134847895Y-142457969D01*
X134875500Y-142337026D01*
X134875500Y-142275000D01*
X134875500Y-142230830D01*
X134875500Y-128775172D01*
X134875500Y-128762974D01*
X134847895Y-128642031D01*
X134794071Y-128530263D01*
X134716725Y-128433275D01*
X134619737Y-128355929D01*
X134507969Y-128302105D01*
X134387026Y-128274500D01*
X134374828Y-128274500D01*
X120919170Y-128274500D01*
X120875000Y-128274500D01*
X120812974Y-128274500D01*
X120692031Y-128302105D01*
X120692026Y-128302107D01*
X120580265Y-128355928D01*
X120580263Y-128355929D01*
X120483275Y-128433275D01*
X120405929Y-128530263D01*
X120405928Y-128530264D01*
X120405928Y-128530265D01*
X120364581Y-128616125D01*
X120352105Y-128642031D01*
X120324500Y-128762974D01*
X106620651Y-128762974D01*
X105560350Y-126926479D01*
X105560350Y-126926475D01*
X105538264Y-126888223D01*
X105538263Y-126888223D01*
X105513353Y-126845077D01*
X105513352Y-126845076D01*
X105507363Y-126834702D01*
X105507271Y-126834573D01*
X105507231Y-126834519D01*
X105422860Y-126743591D01*
X105320367Y-126673711D01*
X105320364Y-126673710D01*
X105204904Y-126628393D01*
X105204898Y-126628391D01*
X105082243Y-126609898D01*
X105082237Y-126609897D01*
X104958549Y-126619160D01*
X104958542Y-126619161D01*
X104840008Y-126655714D01*
X104840006Y-126655715D01*
X104839556Y-126655974D01*
X104839234Y-126656160D01*
X104829432Y-126661817D01*
X104829423Y-126661819D01*
X104796950Y-126680566D01*
X104786061Y-126686852D01*
X104784192Y-126687932D01*
X104784183Y-126687937D01*
X104739484Y-126713737D01*
X104739422Y-126713780D01*
X93184118Y-133385237D01*
X93184119Y-133385238D01*
X93176479Y-133389649D01*
X93176475Y-133389650D01*
X93138223Y-133411736D01*
X93095077Y-133436647D01*
X93095044Y-133436687D01*
X93084820Y-133442593D01*
X93084821Y-133442593D01*
X93084527Y-133442762D01*
X93084524Y-133442764D01*
X92993591Y-133527139D01*
X92923711Y-133629632D01*
X92923710Y-133629635D01*
X92878393Y-133745095D01*
X92878391Y-133745101D01*
X92859898Y-133867756D01*
X92859897Y-133867762D01*
X90402981Y-133867762D01*
X88942083Y-131381910D01*
X87822634Y-129477066D01*
X87818964Y-129470362D01*
X87767335Y-129368871D01*
X87675995Y-129189316D01*
X87675413Y-129188156D01*
X87570651Y-128976681D01*
X87363262Y-128558038D01*
X87362476Y-128556423D01*
X87059114Y-127921250D01*
X87058353Y-127919628D01*
X86757852Y-127266732D01*
X86757123Y-127265117D01*
X86702854Y-127142704D01*
X86465222Y-126606689D01*
X86464547Y-126605136D01*
X86387667Y-126425000D01*
X86372042Y-126388389D01*
X86369387Y-126381632D01*
X86363723Y-126365900D01*
X86362670Y-126362974D01*
X139374500Y-126362974D01*
X139374500Y-126375172D01*
X139374500Y-139830830D01*
X139374500Y-139875000D01*
X139374500Y-139937026D01*
X139402105Y-140057969D01*
X139455929Y-140169737D01*
X139533275Y-140266725D01*
X139630263Y-140344071D01*
X139742031Y-140397895D01*
X139862974Y-140425500D01*
X139862977Y-140425500D01*
X153437023Y-140425500D01*
X153437026Y-140425500D01*
X153557969Y-140397895D01*
X153669737Y-140344071D01*
X153766725Y-140266725D01*
X153844071Y-140169737D01*
X153897895Y-140057969D01*
X153925500Y-139937026D01*
X153925500Y-139875000D01*
X153925500Y-139830830D01*
X153925500Y-126375172D01*
X153925500Y-126362974D01*
X158424500Y-126362974D01*
X158424500Y-126375172D01*
X158424500Y-139830830D01*
X158424500Y-139875000D01*
X158424500Y-139937026D01*
X158452105Y-140057969D01*
X158505929Y-140169737D01*
X158583275Y-140266725D01*
X158680263Y-140344071D01*
X158792031Y-140397895D01*
X158912974Y-140425500D01*
X158912977Y-140425500D01*
X172487023Y-140425500D01*
X172487026Y-140425500D01*
X172607969Y-140397895D01*
X172719737Y-140344071D01*
X172816725Y-140266725D01*
X172894071Y-140169737D01*
X172947895Y-140057969D01*
X172975500Y-139937026D01*
X172975500Y-139875000D01*
X172975500Y-139830830D01*
X172975500Y-126375172D01*
X172975500Y-126362974D01*
X172947895Y-126242031D01*
X172894071Y-126130263D01*
X172816725Y-126033275D01*
X172719737Y-125955929D01*
X172607969Y-125902105D01*
X172487026Y-125874500D01*
X172474828Y-125874500D01*
X159019170Y-125874500D01*
X158975000Y-125874500D01*
X158912974Y-125874500D01*
X158792031Y-125902105D01*
X158792026Y-125902107D01*
X158680265Y-125955928D01*
X158680263Y-125955929D01*
X158583275Y-126033275D01*
X158505929Y-126130263D01*
X158505928Y-126130264D01*
X158505928Y-126130265D01*
X158460066Y-126225500D01*
X158452105Y-126242031D01*
X158424500Y-126362974D01*
X153925500Y-126362974D01*
X153897895Y-126242031D01*
X153844071Y-126130263D01*
X153766725Y-126033275D01*
X153669737Y-125955929D01*
X153557969Y-125902105D01*
X153437026Y-125874500D01*
X153424828Y-125874500D01*
X139969170Y-125874500D01*
X139925000Y-125874500D01*
X139862974Y-125874500D01*
X139742031Y-125902105D01*
X139742026Y-125902107D01*
X139630265Y-125955928D01*
X139630263Y-125955929D01*
X139533275Y-126033275D01*
X139455929Y-126130263D01*
X139455928Y-126130264D01*
X139455928Y-126130265D01*
X139410066Y-126225500D01*
X139402105Y-126242031D01*
X139374500Y-126362974D01*
X86362670Y-126362974D01*
X85565319Y-124148109D01*
X84756550Y-121901527D01*
X84742457Y-121862381D01*
X99749500Y-121862381D01*
X99749500Y-122137618D01*
X99780317Y-122411124D01*
X99812202Y-122550819D01*
X99841562Y-122679454D01*
X99841564Y-122679460D01*
X99841563Y-122679460D01*
X99932459Y-122939225D01*
X99932464Y-122939239D01*
X99932466Y-122939243D01*
X100051886Y-123187221D01*
X100051890Y-123187227D01*
X100198319Y-123420268D01*
X100369927Y-123635458D01*
X100564541Y-123830072D01*
X100564545Y-123830075D01*
X100779732Y-124001681D01*
X101012779Y-124148114D01*
X101260757Y-124267534D01*
X101260772Y-124267539D01*
X101260774Y-124267540D01*
X101520539Y-124358436D01*
X101520542Y-124358436D01*
X101520546Y-124358438D01*
X101788879Y-124419683D01*
X101982816Y-124441534D01*
X102062381Y-124450500D01*
X102062383Y-124450500D01*
X102337619Y-124450500D01*
X102407079Y-124442673D01*
X102611121Y-124419683D01*
X102879454Y-124358438D01*
X103139243Y-124267534D01*
X103387221Y-124148114D01*
X103620268Y-124001681D01*
X103835455Y-123830075D01*
X104030075Y-123635455D01*
X104201681Y-123420268D01*
X104348114Y-123187221D01*
X104467534Y-122939243D01*
X104558438Y-122679454D01*
X104619683Y-122411121D01*
X104650500Y-122137617D01*
X104650500Y-121862383D01*
X104619683Y-121588879D01*
X104558438Y-121320546D01*
X104467534Y-121060757D01*
X104348114Y-120812779D01*
X104201681Y-120579732D01*
X104030075Y-120364545D01*
X104030072Y-120364541D01*
X103835458Y-120169927D01*
X103620268Y-119998319D01*
X103583952Y-119975500D01*
X103387221Y-119851886D01*
X103139243Y-119732466D01*
X103139239Y-119732464D01*
X103139225Y-119732459D01*
X102879460Y-119641563D01*
X102611124Y-119580317D01*
X102337619Y-119549500D01*
X102337617Y-119549500D01*
X102062383Y-119549500D01*
X102062381Y-119549500D01*
X101788875Y-119580317D01*
X101520539Y-119641563D01*
X101260774Y-119732459D01*
X101260754Y-119732467D01*
X101158040Y-119781931D01*
X101012779Y-119851886D01*
X101012774Y-119851888D01*
X101012772Y-119851890D01*
X100779731Y-119998319D01*
X100564541Y-120169927D01*
X100369927Y-120364541D01*
X100198319Y-120579731D01*
X100051890Y-120812772D01*
X100051886Y-120812779D01*
X100046001Y-120825000D01*
X99932467Y-121060754D01*
X99932459Y-121060774D01*
X99841563Y-121320539D01*
X99780317Y-121588875D01*
X99749500Y-121862381D01*
X84742457Y-121862381D01*
X84055493Y-119954147D01*
X84053138Y-119946930D01*
X83865031Y-119305576D01*
X83864602Y-119304079D01*
X83640114Y-118502132D01*
X83639771Y-118500879D01*
X83424809Y-117695210D01*
X83424434Y-117693769D01*
X83214280Y-116866186D01*
X83213937Y-116864800D01*
X83052330Y-116195048D01*
X83013447Y-116033903D01*
X83013110Y-116032466D01*
X82817800Y-115179113D01*
X82817546Y-115177973D01*
X82642190Y-114368633D01*
X82640845Y-114361410D01*
X82565138Y-113876884D01*
X81279290Y-105647465D01*
X81278472Y-105641177D01*
X81213044Y-105015210D01*
X81212916Y-105013921D01*
X81170820Y-104566724D01*
X81118735Y-104013419D01*
X81118647Y-104012434D01*
X81034936Y-103014242D01*
X81034837Y-103012976D01*
X81034127Y-103003339D01*
X80959538Y-101991350D01*
X80959471Y-101990378D01*
X80894666Y-100972297D01*
X80894596Y-100971099D01*
X80892147Y-100925500D01*
X80848516Y-100112974D01*
X91774500Y-100112974D01*
X91774500Y-100125172D01*
X91774500Y-113580830D01*
X91774500Y-113625000D01*
X91774500Y-113687026D01*
X91802105Y-113807969D01*
X91855929Y-113919737D01*
X91933275Y-114016725D01*
X92030263Y-114094071D01*
X92142031Y-114147895D01*
X92262974Y-114175500D01*
X92262977Y-114175500D01*
X105837023Y-114175500D01*
X105837026Y-114175500D01*
X105957969Y-114147895D01*
X106069737Y-114094071D01*
X106166725Y-114016725D01*
X106244071Y-113919737D01*
X106297895Y-113807969D01*
X106325500Y-113687026D01*
X106325500Y-113625000D01*
X106325500Y-113580830D01*
X106325500Y-109712974D01*
X110824500Y-109712974D01*
X110824500Y-109725172D01*
X110824500Y-123180830D01*
X110824500Y-123225000D01*
X110824500Y-123287026D01*
X110852105Y-123407969D01*
X110905929Y-123519737D01*
X110983275Y-123616725D01*
X111080263Y-123694071D01*
X111192031Y-123747895D01*
X111312974Y-123775500D01*
X111312977Y-123775500D01*
X124887023Y-123775500D01*
X124887026Y-123775500D01*
X125007969Y-123747895D01*
X125119737Y-123694071D01*
X125216725Y-123616725D01*
X125294071Y-123519737D01*
X125347895Y-123407969D01*
X125375500Y-123287026D01*
X125375500Y-123225000D01*
X125375500Y-123180830D01*
X125375500Y-109725172D01*
X125375500Y-109712974D01*
X125347895Y-109592031D01*
X125294071Y-109480263D01*
X125216725Y-109383275D01*
X125119737Y-109305929D01*
X125007969Y-109252105D01*
X124887026Y-109224500D01*
X124874828Y-109224500D01*
X111419170Y-109224500D01*
X111375000Y-109224500D01*
X111312974Y-109224500D01*
X111192031Y-109252105D01*
X111192026Y-109252107D01*
X111080265Y-109305928D01*
X111080263Y-109305929D01*
X110983275Y-109383275D01*
X110905929Y-109480263D01*
X110852105Y-109592031D01*
X110824500Y-109712974D01*
X106325500Y-109712974D01*
X106325500Y-100125172D01*
X106325500Y-100112974D01*
X106297895Y-99992031D01*
X106244071Y-99880263D01*
X106166725Y-99783275D01*
X106069737Y-99705929D01*
X105957969Y-99652105D01*
X105837026Y-99624500D01*
X105824828Y-99624500D01*
X92369170Y-99624500D01*
X92325000Y-99624500D01*
X92262974Y-99624500D01*
X92142031Y-99652105D01*
X92142026Y-99652107D01*
X92030265Y-99705928D01*
X92030263Y-99705929D01*
X91933275Y-99783275D01*
X91855929Y-99880263D01*
X91855928Y-99880264D01*
X91855928Y-99880265D01*
X91831734Y-99930506D01*
X91802105Y-99992031D01*
X91774500Y-100112974D01*
X80848516Y-100112974D01*
X80838716Y-99930468D01*
X80838658Y-99929268D01*
X80793910Y-98908429D01*
X80793910Y-98897429D01*
X80801474Y-98724715D01*
X80802280Y-98714978D01*
X80817400Y-98590988D01*
X80818702Y-98582644D01*
X80842080Y-98460017D01*
X80843939Y-98451788D01*
X80875496Y-98331123D01*
X80877929Y-98322963D01*
X80886460Y-98297521D01*
X80917074Y-98206219D01*
X80920059Y-98198228D01*
X80967099Y-98084262D01*
X80970625Y-98076481D01*
X81024836Y-97966923D01*
X81028881Y-97959405D01*
X81090493Y-97853660D01*
X81095061Y-97846402D01*
X81146828Y-97770028D01*
X81163379Y-97745609D01*
X81168396Y-97738723D01*
X81243418Y-97642800D01*
X81248898Y-97636263D01*
X81325836Y-97550596D01*
X81334870Y-97541514D01*
X81519085Y-97374282D01*
X81532473Y-97363692D01*
X81731973Y-97226791D01*
X81746634Y-97218126D01*
X81962947Y-97109313D01*
X81978563Y-97102735D01*
X82208700Y-97023578D01*
X82224936Y-97019184D01*
X82466459Y-96970870D01*
X82482943Y-96968692D01*
X82749168Y-96951320D01*
X82757370Y-96951054D01*
X106246202Y-96951151D01*
X106254324Y-96953901D01*
X106295754Y-96951151D01*
X106337284Y-96951152D01*
X106337287Y-96951150D01*
X106349461Y-96948730D01*
X106349772Y-96950297D01*
X106365909Y-96946496D01*
X106566575Y-96933181D01*
X106583460Y-96936477D01*
X106615862Y-96929910D01*
X106648850Y-96927722D01*
X106649251Y-96927523D01*
X106649557Y-96927373D01*
X106680356Y-96916841D01*
X106888004Y-96874764D01*
X106905254Y-96875774D01*
X106936410Y-96864955D01*
X106968739Y-96858404D01*
X106969491Y-96857897D01*
X106998535Y-96843381D01*
X107198485Y-96773950D01*
X107215726Y-96772640D01*
X107245142Y-96757749D01*
X107276292Y-96746933D01*
X107276980Y-96746320D01*
X107303810Y-96728051D01*
X107493445Y-96632059D01*
X107510343Y-96628455D01*
X107537512Y-96609753D01*
X107566944Y-96594855D01*
X107567537Y-96594164D01*
X107591681Y-96572466D01*
X107767873Y-96451185D01*
X107784137Y-96445352D01*
X107808563Y-96423177D01*
X107835732Y-96404476D01*
X107836223Y-96403718D01*
X107857251Y-96378977D01*
X108013390Y-96237231D01*
X108025129Y-96231630D01*
X108050008Y-96203989D01*
X108077546Y-96178990D01*
X108077547Y-96178987D01*
X108084931Y-96169015D01*
X108085025Y-96169084D01*
X108095484Y-96153464D01*
X108116595Y-96130010D01*
X108129602Y-96119613D01*
X108128603Y-96118448D01*
X108138024Y-96110367D01*
X108138024Y-96110366D01*
X108138027Y-96110365D01*
X108163579Y-96077812D01*
X108191270Y-96047048D01*
X108194178Y-96038829D01*
X108222567Y-96002662D01*
X108234850Y-95991409D01*
X108233777Y-95990317D01*
X108242627Y-95981623D01*
X108242631Y-95981621D01*
X108263543Y-95950921D01*
X108268537Y-95944097D01*
X108291470Y-95914884D01*
X108291471Y-95914879D01*
X108297080Y-95903815D01*
X108298137Y-95904350D01*
X108305462Y-95889388D01*
X108319612Y-95868617D01*
X108331111Y-95856534D01*
X108329984Y-95855532D01*
X108338225Y-95846261D01*
X108338228Y-95846259D01*
X108359140Y-95810592D01*
X108382419Y-95776422D01*
X108384204Y-95767846D01*
X108407632Y-95727891D01*
X108418288Y-95715058D01*
X108417099Y-95714137D01*
X108424690Y-95704330D01*
X108424698Y-95704324D01*
X108441239Y-95671145D01*
X108445289Y-95663668D01*
X108464044Y-95631683D01*
X108464044Y-95631679D01*
X108468113Y-95619955D01*
X108469221Y-95620339D01*
X108474462Y-95604507D01*
X108476317Y-95600784D01*
X108485629Y-95582106D01*
X108495412Y-95568570D01*
X108494159Y-95567730D01*
X108501072Y-95557423D01*
X108501076Y-95557420D01*
X108516952Y-95519282D01*
X108535381Y-95482320D01*
X108535994Y-95473542D01*
X108553877Y-95430584D01*
X108562710Y-95416419D01*
X108561411Y-95415671D01*
X108567608Y-95404915D01*
X108579472Y-95369864D01*
X108580847Y-95365802D01*
X108596720Y-95327675D01*
X108596735Y-95318863D01*
X108611369Y-95275629D01*
X108619224Y-95260881D01*
X108617879Y-95260224D01*
X108623324Y-95249080D01*
X108623329Y-95249075D01*
X108633872Y-95209152D01*
X108647107Y-95170054D01*
X108646522Y-95161252D01*
X108658486Y-95115950D01*
X108665311Y-95100706D01*
X108663926Y-95100143D01*
X108668600Y-95088652D01*
X108668604Y-95088648D01*
X108676405Y-95048100D01*
X108686950Y-95008175D01*
X108685768Y-94999441D01*
X108694455Y-94954294D01*
X108700225Y-94938625D01*
X108698801Y-94938156D01*
X108702685Y-94926371D01*
X108702687Y-94926369D01*
X108703848Y-94916898D01*
X108707196Y-94889617D01*
X108707719Y-94885353D01*
X108715522Y-94844805D01*
X108713751Y-94836187D01*
X108719795Y-94786916D01*
X108724581Y-94770241D01*
X108723548Y-94769988D01*
X108726501Y-94757933D01*
X108726500Y-94757933D01*
X108726502Y-94757931D01*
X108728042Y-94722848D01*
X108728855Y-94713074D01*
X108733135Y-94678204D01*
X108733133Y-94678200D01*
X108732214Y-94665827D01*
X108733274Y-94665748D01*
X108731309Y-94648511D01*
X108735386Y-94555739D01*
X108737565Y-94550480D01*
X108737565Y-94506170D01*
X108737685Y-94503440D01*
X108737686Y-94503401D01*
X108738048Y-94495155D01*
X108739511Y-94461868D01*
X108739510Y-94461864D01*
X108739026Y-94458709D01*
X108737565Y-94439580D01*
X108737565Y-90662974D01*
X110824500Y-90662974D01*
X110824500Y-90675172D01*
X110824500Y-104130830D01*
X110824500Y-104175000D01*
X110824500Y-104237026D01*
X110852105Y-104357969D01*
X110905929Y-104469737D01*
X110983275Y-104566725D01*
X111080263Y-104644071D01*
X111192031Y-104697895D01*
X111312974Y-104725500D01*
X111312977Y-104725500D01*
X124887023Y-104725500D01*
X124887026Y-104725500D01*
X125007969Y-104697895D01*
X125066525Y-104669696D01*
X125136573Y-104658162D01*
X125201742Y-104686330D01*
X125241336Y-104745261D01*
X125242785Y-104816243D01*
X125242273Y-104818075D01*
X125241565Y-104820532D01*
X125180317Y-105088875D01*
X125149500Y-105362381D01*
X125149500Y-105637618D01*
X125180317Y-105911124D01*
X125200070Y-105997667D01*
X125241562Y-106179454D01*
X125241564Y-106179460D01*
X125241563Y-106179460D01*
X125332459Y-106439225D01*
X125332464Y-106439239D01*
X125332466Y-106439243D01*
X125451886Y-106687221D01*
X125538144Y-106824500D01*
X125598319Y-106920268D01*
X125769927Y-107135458D01*
X125964541Y-107330072D01*
X126014515Y-107369925D01*
X126179732Y-107501681D01*
X126412779Y-107648114D01*
X126660757Y-107767534D01*
X126660772Y-107767539D01*
X126660774Y-107767540D01*
X126920539Y-107858436D01*
X126920542Y-107858436D01*
X126920546Y-107858438D01*
X127188879Y-107919683D01*
X127382816Y-107941534D01*
X127462381Y-107950500D01*
X127462383Y-107950500D01*
X127737619Y-107950500D01*
X127807792Y-107942593D01*
X128011121Y-107919683D01*
X128279454Y-107858438D01*
X128539243Y-107767534D01*
X128787221Y-107648114D01*
X129020268Y-107501681D01*
X129235455Y-107330075D01*
X129252556Y-107312974D01*
X129874500Y-107312974D01*
X129874500Y-107325172D01*
X129874500Y-120780830D01*
X129874500Y-120825000D01*
X129874500Y-120887026D01*
X129902105Y-121007969D01*
X129955929Y-121119737D01*
X130033275Y-121216725D01*
X130130263Y-121294071D01*
X130242031Y-121347895D01*
X130362974Y-121375500D01*
X130362977Y-121375500D01*
X143937023Y-121375500D01*
X143937026Y-121375500D01*
X144057969Y-121347895D01*
X144169737Y-121294071D01*
X144266725Y-121216725D01*
X144344071Y-121119737D01*
X144397895Y-121007969D01*
X144425500Y-120887026D01*
X144425500Y-120825000D01*
X144425500Y-120780830D01*
X144425500Y-107325172D01*
X144425500Y-107312974D01*
X144397895Y-107192031D01*
X144344071Y-107080263D01*
X144266725Y-106983275D01*
X144169737Y-106905929D01*
X144057969Y-106852105D01*
X143937026Y-106824500D01*
X143924828Y-106824500D01*
X130469170Y-106824500D01*
X130425000Y-106824500D01*
X130362974Y-106824500D01*
X130242031Y-106852105D01*
X130242026Y-106852107D01*
X130130265Y-106905928D01*
X130130263Y-106905929D01*
X130033275Y-106983275D01*
X129955929Y-107080263D01*
X129955928Y-107080264D01*
X129955928Y-107080265D01*
X129910066Y-107175500D01*
X129902105Y-107192031D01*
X129874500Y-107312974D01*
X129252556Y-107312974D01*
X129348728Y-107216803D01*
X129430072Y-107135458D01*
X129430075Y-107135455D01*
X129601681Y-106920268D01*
X129748114Y-106687221D01*
X129867534Y-106439243D01*
X129958438Y-106179454D01*
X130019260Y-105912974D01*
X148924500Y-105912974D01*
X148924500Y-105925172D01*
X148924500Y-119380830D01*
X148924500Y-119425000D01*
X148924500Y-119487026D01*
X148952105Y-119607969D01*
X149005929Y-119719737D01*
X149083275Y-119816725D01*
X149180263Y-119894071D01*
X149292031Y-119947895D01*
X149412974Y-119975500D01*
X149412977Y-119975500D01*
X162987023Y-119975500D01*
X162987026Y-119975500D01*
X163107969Y-119947895D01*
X163219737Y-119894071D01*
X163316725Y-119816725D01*
X163394071Y-119719737D01*
X163447895Y-119607969D01*
X163475500Y-119487026D01*
X163475500Y-119425000D01*
X163475500Y-119380830D01*
X163475500Y-107312974D01*
X167974500Y-107312974D01*
X167974500Y-107325172D01*
X167974500Y-120780830D01*
X167974500Y-120825000D01*
X167974500Y-120887026D01*
X168002105Y-121007969D01*
X168055929Y-121119737D01*
X168133275Y-121216725D01*
X168230263Y-121294071D01*
X168342031Y-121347895D01*
X168462974Y-121375500D01*
X168462977Y-121375500D01*
X182037023Y-121375500D01*
X182037026Y-121375500D01*
X182157969Y-121347895D01*
X182269737Y-121294071D01*
X182366725Y-121216725D01*
X182444071Y-121119737D01*
X182497895Y-121007969D01*
X182525500Y-120887026D01*
X182525500Y-120825000D01*
X182525500Y-120780830D01*
X182525500Y-112162974D01*
X187024500Y-112162974D01*
X187024500Y-112175172D01*
X187024500Y-125630830D01*
X187024500Y-125675000D01*
X187024500Y-125737026D01*
X187052105Y-125857969D01*
X187105929Y-125969737D01*
X187183275Y-126066725D01*
X187280263Y-126144071D01*
X187392031Y-126197895D01*
X187512974Y-126225500D01*
X187512977Y-126225500D01*
X201087023Y-126225500D01*
X201087026Y-126225500D01*
X201207969Y-126197895D01*
X201319737Y-126144071D01*
X201416725Y-126066725D01*
X201494071Y-125969737D01*
X201547895Y-125857969D01*
X201575500Y-125737026D01*
X201575500Y-125675000D01*
X201575500Y-125630830D01*
X201575500Y-113612974D01*
X206074500Y-113612974D01*
X206074500Y-113625172D01*
X206074500Y-127080830D01*
X206074500Y-127125000D01*
X206074500Y-127187026D01*
X206102105Y-127307969D01*
X206155929Y-127419737D01*
X206233275Y-127516725D01*
X206330263Y-127594071D01*
X206442031Y-127647895D01*
X206562974Y-127675500D01*
X206562977Y-127675500D01*
X220137023Y-127675500D01*
X220137026Y-127675500D01*
X220257969Y-127647895D01*
X220369737Y-127594071D01*
X220466725Y-127516725D01*
X220544071Y-127419737D01*
X220597895Y-127307969D01*
X220625500Y-127187026D01*
X220625500Y-127125000D01*
X220625500Y-127080830D01*
X220625500Y-113625172D01*
X220625500Y-113612974D01*
X220597895Y-113492031D01*
X220544071Y-113380263D01*
X220466725Y-113283275D01*
X220369737Y-113205929D01*
X220257969Y-113152105D01*
X220137026Y-113124500D01*
X220124828Y-113124500D01*
X206669170Y-113124500D01*
X206625000Y-113124500D01*
X206562974Y-113124500D01*
X206442031Y-113152105D01*
X206442026Y-113152107D01*
X206330265Y-113205928D01*
X206330263Y-113205929D01*
X206233275Y-113283275D01*
X206155929Y-113380263D01*
X206102105Y-113492031D01*
X206074500Y-113612974D01*
X201575500Y-113612974D01*
X201575500Y-112175172D01*
X201575500Y-112162974D01*
X201547895Y-112042031D01*
X201494071Y-111930263D01*
X201416725Y-111833275D01*
X201319737Y-111755929D01*
X201207969Y-111702105D01*
X201087026Y-111674500D01*
X201074828Y-111674500D01*
X187619170Y-111674500D01*
X187575000Y-111674500D01*
X187512974Y-111674500D01*
X187392031Y-111702105D01*
X187392026Y-111702107D01*
X187315745Y-111738842D01*
X187280263Y-111755929D01*
X187183275Y-111833275D01*
X187105929Y-111930263D01*
X187052105Y-112042031D01*
X187024500Y-112162974D01*
X182525500Y-112162974D01*
X182525500Y-109062381D01*
X200949500Y-109062381D01*
X200949500Y-109337618D01*
X200980317Y-109611124D01*
X201006348Y-109725172D01*
X201041562Y-109879454D01*
X201041564Y-109879460D01*
X201041563Y-109879460D01*
X201132459Y-110139225D01*
X201132464Y-110139239D01*
X201132466Y-110139243D01*
X201251886Y-110387221D01*
X201251890Y-110387227D01*
X201398319Y-110620268D01*
X201569927Y-110835458D01*
X201764541Y-111030072D01*
X201764545Y-111030075D01*
X201979732Y-111201681D01*
X202212779Y-111348114D01*
X202460757Y-111467534D01*
X202460772Y-111467539D01*
X202460774Y-111467540D01*
X202720539Y-111558436D01*
X202720542Y-111558436D01*
X202720546Y-111558438D01*
X202988879Y-111619683D01*
X203182816Y-111641534D01*
X203262381Y-111650500D01*
X203262383Y-111650500D01*
X203537619Y-111650500D01*
X203607079Y-111642673D01*
X203811121Y-111619683D01*
X204079454Y-111558438D01*
X204339243Y-111467534D01*
X204587221Y-111348114D01*
X204820268Y-111201681D01*
X205035455Y-111030075D01*
X205230075Y-110835455D01*
X205401681Y-110620268D01*
X205548114Y-110387221D01*
X205667534Y-110139243D01*
X205758438Y-109879454D01*
X205819683Y-109611121D01*
X205850500Y-109337617D01*
X205850500Y-109062383D01*
X205819683Y-108788879D01*
X205758438Y-108520546D01*
X205739605Y-108466725D01*
X205667540Y-108260774D01*
X205667539Y-108260772D01*
X205667534Y-108260757D01*
X205548114Y-108012779D01*
X205401681Y-107779732D01*
X205230075Y-107564545D01*
X205230072Y-107564541D01*
X205035458Y-107369927D01*
X204820268Y-107198319D01*
X204783952Y-107175500D01*
X204587221Y-107051886D01*
X204339243Y-106932466D01*
X204339239Y-106932464D01*
X204339225Y-106932459D01*
X204079460Y-106841563D01*
X203811124Y-106780317D01*
X203537619Y-106749500D01*
X203537617Y-106749500D01*
X203262383Y-106749500D01*
X203262381Y-106749500D01*
X202988875Y-106780317D01*
X202720539Y-106841563D01*
X202460774Y-106932459D01*
X202460754Y-106932467D01*
X202379413Y-106971639D01*
X202212779Y-107051886D01*
X202212774Y-107051888D01*
X202212772Y-107051890D01*
X201979731Y-107198319D01*
X201764541Y-107369927D01*
X201569927Y-107564541D01*
X201398319Y-107779731D01*
X201291018Y-107950500D01*
X201251886Y-108012779D01*
X201238728Y-108040102D01*
X201132467Y-108260754D01*
X201132459Y-108260774D01*
X201041563Y-108520539D01*
X200980317Y-108788875D01*
X200949500Y-109062381D01*
X182525500Y-109062381D01*
X182525500Y-107325172D01*
X182525500Y-107312974D01*
X182497895Y-107192031D01*
X182444071Y-107080263D01*
X182366725Y-106983275D01*
X182269737Y-106905929D01*
X182157969Y-106852105D01*
X182037026Y-106824500D01*
X182024828Y-106824500D01*
X168569170Y-106824500D01*
X168525000Y-106824500D01*
X168462974Y-106824500D01*
X168342031Y-106852105D01*
X168342026Y-106852107D01*
X168230265Y-106905928D01*
X168230263Y-106905929D01*
X168133275Y-106983275D01*
X168055929Y-107080263D01*
X168055928Y-107080264D01*
X168055928Y-107080265D01*
X168010066Y-107175500D01*
X168002105Y-107192031D01*
X167974500Y-107312974D01*
X163475500Y-107312974D01*
X163475500Y-105925172D01*
X163475500Y-105912974D01*
X163447895Y-105792031D01*
X163394071Y-105680263D01*
X163316725Y-105583275D01*
X163219737Y-105505929D01*
X163107969Y-105452105D01*
X162987026Y-105424500D01*
X162974828Y-105424500D01*
X149519170Y-105424500D01*
X149475000Y-105424500D01*
X149412974Y-105424500D01*
X149292031Y-105452105D01*
X149292026Y-105452107D01*
X149180265Y-105505928D01*
X149180263Y-105505929D01*
X149083275Y-105583275D01*
X149005929Y-105680263D01*
X148952105Y-105792031D01*
X148924500Y-105912974D01*
X130019260Y-105912974D01*
X130019683Y-105911121D01*
X130049390Y-105647465D01*
X130050500Y-105637618D01*
X130050500Y-105362381D01*
X130041534Y-105282816D01*
X130019683Y-105088879D01*
X129958438Y-104820546D01*
X129958433Y-104820532D01*
X129867540Y-104560774D01*
X129867539Y-104560772D01*
X129867534Y-104560757D01*
X129748114Y-104312779D01*
X129601681Y-104079732D01*
X129430075Y-103864545D01*
X129430072Y-103864541D01*
X129235458Y-103669927D01*
X129020268Y-103498319D01*
X128787227Y-103351890D01*
X128787228Y-103351890D01*
X128787221Y-103351886D01*
X128539243Y-103232466D01*
X128539239Y-103232464D01*
X128539225Y-103232459D01*
X128279460Y-103141563D01*
X128011124Y-103080317D01*
X127737619Y-103049500D01*
X127737617Y-103049500D01*
X127462383Y-103049500D01*
X127462381Y-103049500D01*
X127188875Y-103080317D01*
X126920539Y-103141563D01*
X126660774Y-103232459D01*
X126660754Y-103232467D01*
X126558040Y-103281931D01*
X126412779Y-103351886D01*
X126412774Y-103351888D01*
X126412772Y-103351890D01*
X126179731Y-103498319D01*
X125964541Y-103669927D01*
X125769927Y-103864541D01*
X125600011Y-104077610D01*
X125541900Y-104118398D01*
X125470962Y-104121293D01*
X125409720Y-104085378D01*
X125377618Y-104022054D01*
X125375500Y-103999050D01*
X125375500Y-90662976D01*
X125375500Y-90662974D01*
X125347895Y-90542031D01*
X125294071Y-90430263D01*
X125216725Y-90333275D01*
X125119737Y-90255929D01*
X125007969Y-90202105D01*
X124887026Y-90174500D01*
X124874828Y-90174500D01*
X111419170Y-90174500D01*
X111375000Y-90174500D01*
X111312974Y-90174500D01*
X111192031Y-90202105D01*
X111192026Y-90202107D01*
X111080265Y-90255928D01*
X111080263Y-90255929D01*
X110983275Y-90333275D01*
X110905929Y-90430263D01*
X110852105Y-90542031D01*
X110824500Y-90662974D01*
X108737565Y-90662974D01*
X108737565Y-88262974D01*
X129874500Y-88262974D01*
X129874500Y-88275172D01*
X129874500Y-101730830D01*
X129874500Y-101775000D01*
X129874500Y-101837026D01*
X129902105Y-101957969D01*
X129955929Y-102069737D01*
X130033275Y-102166725D01*
X130130263Y-102244071D01*
X130242031Y-102297895D01*
X130362974Y-102325500D01*
X130362977Y-102325500D01*
X143937023Y-102325500D01*
X143937026Y-102325500D01*
X144057969Y-102297895D01*
X144169737Y-102244071D01*
X144266725Y-102166725D01*
X144344071Y-102069737D01*
X144397895Y-101957969D01*
X144425500Y-101837026D01*
X144425500Y-101775000D01*
X144425500Y-101730830D01*
X144425500Y-88275172D01*
X144425500Y-88262974D01*
X144397895Y-88142031D01*
X144344071Y-88030263D01*
X144266725Y-87933275D01*
X144169737Y-87855929D01*
X144057969Y-87802105D01*
X143937026Y-87774500D01*
X143924828Y-87774500D01*
X130469170Y-87774500D01*
X130425000Y-87774500D01*
X130362974Y-87774500D01*
X130242031Y-87802105D01*
X130242026Y-87802107D01*
X130130265Y-87855928D01*
X130130263Y-87855929D01*
X130033275Y-87933275D01*
X129955929Y-88030263D01*
X129955928Y-88030264D01*
X129955928Y-88030265D01*
X129910066Y-88125500D01*
X129902105Y-88142031D01*
X129874500Y-88262974D01*
X108737565Y-88262974D01*
X108737565Y-86862974D01*
X148924500Y-86862974D01*
X148924500Y-86875172D01*
X148924500Y-100330830D01*
X148924500Y-100375000D01*
X148924500Y-100437026D01*
X148952105Y-100557969D01*
X149005929Y-100669737D01*
X149083275Y-100766725D01*
X149180263Y-100844071D01*
X149292031Y-100897895D01*
X149412974Y-100925500D01*
X149412977Y-100925500D01*
X162987023Y-100925500D01*
X162987026Y-100925500D01*
X163107969Y-100897895D01*
X163219737Y-100844071D01*
X163316725Y-100766725D01*
X163394071Y-100669737D01*
X163447895Y-100557969D01*
X163475500Y-100437026D01*
X163475500Y-100375000D01*
X163475500Y-100330830D01*
X163475500Y-88262974D01*
X167974500Y-88262974D01*
X167974500Y-88275172D01*
X167974500Y-101730830D01*
X167974500Y-101775000D01*
X167974500Y-101837026D01*
X168002105Y-101957969D01*
X168055929Y-102069737D01*
X168133275Y-102166725D01*
X168230263Y-102244071D01*
X168342031Y-102297895D01*
X168462974Y-102325500D01*
X168462977Y-102325500D01*
X182037023Y-102325500D01*
X182037026Y-102325500D01*
X182157969Y-102297895D01*
X182269737Y-102244071D01*
X182366725Y-102166725D01*
X182444071Y-102069737D01*
X182497895Y-101957969D01*
X182525500Y-101837026D01*
X182525500Y-101775000D01*
X182525500Y-101730830D01*
X182525500Y-93112974D01*
X187024500Y-93112974D01*
X187024500Y-93125172D01*
X187024500Y-106580830D01*
X187024500Y-106625000D01*
X187024500Y-106687026D01*
X187052105Y-106807969D01*
X187105929Y-106919737D01*
X187183275Y-107016725D01*
X187280263Y-107094071D01*
X187392031Y-107147895D01*
X187512974Y-107175500D01*
X187512977Y-107175500D01*
X201087023Y-107175500D01*
X201087026Y-107175500D01*
X201207969Y-107147895D01*
X201319737Y-107094071D01*
X201416725Y-107016725D01*
X201494071Y-106919737D01*
X201547895Y-106807969D01*
X201575500Y-106687026D01*
X201575500Y-106625000D01*
X201575500Y-106580830D01*
X201575500Y-94562974D01*
X206074500Y-94562974D01*
X206074500Y-94575172D01*
X206074500Y-108030830D01*
X206074500Y-108075000D01*
X206074500Y-108137026D01*
X206102105Y-108257969D01*
X206155929Y-108369737D01*
X206233275Y-108466725D01*
X206330263Y-108544071D01*
X206442031Y-108597895D01*
X206562974Y-108625500D01*
X206562977Y-108625500D01*
X220137023Y-108625500D01*
X220137026Y-108625500D01*
X220257969Y-108597895D01*
X220369737Y-108544071D01*
X220466725Y-108466725D01*
X220544071Y-108369737D01*
X220597895Y-108257969D01*
X220625500Y-108137026D01*
X220625500Y-108075000D01*
X220625500Y-108030830D01*
X220625500Y-94575172D01*
X220625500Y-94562974D01*
X220597895Y-94442031D01*
X220544071Y-94330263D01*
X220466725Y-94233275D01*
X220369737Y-94155929D01*
X220257969Y-94102105D01*
X220137026Y-94074500D01*
X220124828Y-94074500D01*
X206669170Y-94074500D01*
X206625000Y-94074500D01*
X206562974Y-94074500D01*
X206442031Y-94102105D01*
X206442026Y-94102107D01*
X206330265Y-94155928D01*
X206330263Y-94155929D01*
X206233275Y-94233275D01*
X206155929Y-94330263D01*
X206102105Y-94442031D01*
X206074500Y-94562974D01*
X201575500Y-94562974D01*
X201575500Y-93125172D01*
X201575500Y-93112974D01*
X201547895Y-92992031D01*
X201494071Y-92880263D01*
X201416725Y-92783275D01*
X201319737Y-92705929D01*
X201207969Y-92652105D01*
X201087026Y-92624500D01*
X201074828Y-92624500D01*
X187619170Y-92624500D01*
X187575000Y-92624500D01*
X187512974Y-92624500D01*
X187392031Y-92652105D01*
X187392026Y-92652107D01*
X187280265Y-92705928D01*
X187280263Y-92705929D01*
X187183275Y-92783275D01*
X187105929Y-92880263D01*
X187052105Y-92992031D01*
X187024500Y-93112974D01*
X182525500Y-93112974D01*
X182525500Y-88275172D01*
X182525500Y-88262974D01*
X182497895Y-88142031D01*
X182444071Y-88030263D01*
X182366725Y-87933275D01*
X182269737Y-87855929D01*
X182157969Y-87802105D01*
X182037026Y-87774500D01*
X182024828Y-87774500D01*
X168569170Y-87774500D01*
X168525000Y-87774500D01*
X168462974Y-87774500D01*
X168342031Y-87802105D01*
X168342026Y-87802107D01*
X168230265Y-87855928D01*
X168230263Y-87855929D01*
X168133275Y-87933275D01*
X168055929Y-88030263D01*
X168055928Y-88030264D01*
X168055928Y-88030265D01*
X168010066Y-88125500D01*
X168002105Y-88142031D01*
X167974500Y-88262974D01*
X163475500Y-88262974D01*
X163475500Y-86875172D01*
X163475500Y-86862974D01*
X163447895Y-86742031D01*
X163394071Y-86630263D01*
X163316725Y-86533275D01*
X163219737Y-86455929D01*
X163107969Y-86402105D01*
X162987026Y-86374500D01*
X162974828Y-86374500D01*
X149519170Y-86374500D01*
X149475000Y-86374500D01*
X149412974Y-86374500D01*
X149292031Y-86402105D01*
X149292026Y-86402107D01*
X149180265Y-86455928D01*
X149180263Y-86455929D01*
X149083275Y-86533275D01*
X149005929Y-86630263D01*
X148952105Y-86742031D01*
X148924500Y-86862974D01*
X108737565Y-86862974D01*
X108737565Y-71612974D01*
X110824500Y-71612974D01*
X110824500Y-71625172D01*
X110824500Y-85080830D01*
X110824500Y-85125000D01*
X110824500Y-85187026D01*
X110852105Y-85307969D01*
X110905929Y-85419737D01*
X110983275Y-85516725D01*
X111080263Y-85594071D01*
X111192031Y-85647895D01*
X111312974Y-85675500D01*
X111312977Y-85675500D01*
X124887023Y-85675500D01*
X124887026Y-85675500D01*
X125007969Y-85647895D01*
X125119737Y-85594071D01*
X125216725Y-85516725D01*
X125294071Y-85419737D01*
X125347895Y-85307969D01*
X125375500Y-85187026D01*
X125375500Y-85125000D01*
X125375500Y-85080830D01*
X125375500Y-71625172D01*
X125375500Y-71612974D01*
X125347895Y-71492031D01*
X125294071Y-71380263D01*
X125216725Y-71283275D01*
X125119737Y-71205929D01*
X125007969Y-71152105D01*
X124887026Y-71124500D01*
X124874828Y-71124500D01*
X111419170Y-71124500D01*
X111375000Y-71124500D01*
X111312974Y-71124500D01*
X111192031Y-71152105D01*
X111192026Y-71152107D01*
X111080265Y-71205928D01*
X111080263Y-71205929D01*
X110983275Y-71283275D01*
X110905929Y-71380263D01*
X110852105Y-71492031D01*
X110824500Y-71612974D01*
X108737565Y-71612974D01*
X108737565Y-52562974D01*
X110824500Y-52562974D01*
X110824500Y-52575172D01*
X110824500Y-66030830D01*
X110824500Y-66075000D01*
X110824500Y-66137026D01*
X110852105Y-66257969D01*
X110905929Y-66369737D01*
X110983275Y-66466725D01*
X111080263Y-66544071D01*
X111192031Y-66597895D01*
X111312974Y-66625500D01*
X111312977Y-66625500D01*
X124887023Y-66625500D01*
X124887026Y-66625500D01*
X125007969Y-66597895D01*
X125108534Y-66549465D01*
X125178586Y-66537931D01*
X125243755Y-66566100D01*
X125283349Y-66625031D01*
X125284797Y-66696013D01*
X125282132Y-66704602D01*
X125241562Y-66820544D01*
X125180317Y-67088875D01*
X125149500Y-67362381D01*
X125149500Y-67637618D01*
X125180317Y-67911124D01*
X125212202Y-68050819D01*
X125241562Y-68179454D01*
X125241564Y-68179460D01*
X125241563Y-68179460D01*
X125332459Y-68439225D01*
X125332464Y-68439239D01*
X125332466Y-68439243D01*
X125451886Y-68687221D01*
X125526475Y-68805929D01*
X125598319Y-68920268D01*
X125769927Y-69135458D01*
X125964541Y-69330072D01*
X125964545Y-69330075D01*
X126179732Y-69501681D01*
X126412779Y-69648114D01*
X126660757Y-69767534D01*
X126660772Y-69767539D01*
X126660774Y-69767540D01*
X126920539Y-69858436D01*
X126920542Y-69858436D01*
X126920546Y-69858438D01*
X127188879Y-69919683D01*
X127382816Y-69941534D01*
X127462381Y-69950500D01*
X127462383Y-69950500D01*
X127737619Y-69950500D01*
X127807079Y-69942673D01*
X128011121Y-69919683D01*
X128279454Y-69858438D01*
X128539243Y-69767534D01*
X128787221Y-69648114D01*
X129020268Y-69501681D01*
X129235455Y-69330075D01*
X129352556Y-69212974D01*
X129874500Y-69212974D01*
X129874500Y-69225172D01*
X129874500Y-82680830D01*
X129874500Y-82725000D01*
X129874500Y-82787026D01*
X129902105Y-82907969D01*
X129955929Y-83019737D01*
X130033275Y-83116725D01*
X130130263Y-83194071D01*
X130242031Y-83247895D01*
X130362974Y-83275500D01*
X130362977Y-83275500D01*
X143937023Y-83275500D01*
X143937026Y-83275500D01*
X144057969Y-83247895D01*
X144169737Y-83194071D01*
X144266725Y-83116725D01*
X144344071Y-83019737D01*
X144397895Y-82907969D01*
X144425500Y-82787026D01*
X144425500Y-82725000D01*
X144425500Y-82680830D01*
X144425500Y-69225172D01*
X144425500Y-69212974D01*
X144397895Y-69092031D01*
X144344071Y-68980263D01*
X144266725Y-68883275D01*
X144169737Y-68805929D01*
X144057969Y-68752105D01*
X143937026Y-68724500D01*
X143924828Y-68724500D01*
X130469170Y-68724500D01*
X130425000Y-68724500D01*
X130362974Y-68724500D01*
X130253444Y-68749500D01*
X130242031Y-68752105D01*
X130242026Y-68752107D01*
X130183447Y-68780317D01*
X130130263Y-68805929D01*
X130033275Y-68883275D01*
X129955929Y-68980263D01*
X129955928Y-68980264D01*
X129955928Y-68980265D01*
X129910066Y-69075500D01*
X129902105Y-69092031D01*
X129874500Y-69212974D01*
X129352556Y-69212974D01*
X129430075Y-69135455D01*
X129601681Y-68920268D01*
X129748114Y-68687221D01*
X129867534Y-68439243D01*
X129958438Y-68179454D01*
X130019683Y-67911121D01*
X130029367Y-67825172D01*
X130030742Y-67812974D01*
X148924500Y-67812974D01*
X148924500Y-67825172D01*
X148924500Y-81280830D01*
X148924500Y-81325000D01*
X148924500Y-81387026D01*
X148952105Y-81507969D01*
X149005929Y-81619737D01*
X149083275Y-81716725D01*
X149180263Y-81794071D01*
X149292031Y-81847895D01*
X149412974Y-81875500D01*
X149412977Y-81875500D01*
X162987023Y-81875500D01*
X162987026Y-81875500D01*
X163107969Y-81847895D01*
X163219737Y-81794071D01*
X163316725Y-81716725D01*
X163394071Y-81619737D01*
X163447895Y-81507969D01*
X163475500Y-81387026D01*
X163475500Y-81325000D01*
X163475500Y-81280830D01*
X163475500Y-69212974D01*
X167974500Y-69212974D01*
X167974500Y-69225172D01*
X167974500Y-82680830D01*
X167974500Y-82725000D01*
X167974500Y-82787026D01*
X168002105Y-82907969D01*
X168055929Y-83019737D01*
X168133275Y-83116725D01*
X168230263Y-83194071D01*
X168342031Y-83247895D01*
X168462974Y-83275500D01*
X168462977Y-83275500D01*
X182037023Y-83275500D01*
X182037026Y-83275500D01*
X182157969Y-83247895D01*
X182269737Y-83194071D01*
X182366725Y-83116725D01*
X182444071Y-83019737D01*
X182497895Y-82907969D01*
X182525500Y-82787026D01*
X182525500Y-82725000D01*
X182525500Y-82680830D01*
X182525500Y-74062974D01*
X187024500Y-74062974D01*
X187024500Y-74075172D01*
X187024500Y-87530830D01*
X187024500Y-87575000D01*
X187024500Y-87637026D01*
X187052105Y-87757969D01*
X187105929Y-87869737D01*
X187183275Y-87966725D01*
X187280263Y-88044071D01*
X187392031Y-88097895D01*
X187512974Y-88125500D01*
X187512977Y-88125500D01*
X201087023Y-88125500D01*
X201087026Y-88125500D01*
X201207969Y-88097895D01*
X201319737Y-88044071D01*
X201416725Y-87966725D01*
X201494071Y-87869737D01*
X201547895Y-87757969D01*
X201575500Y-87637026D01*
X201575500Y-87575000D01*
X201575500Y-87530830D01*
X201575500Y-75512974D01*
X206074500Y-75512974D01*
X206074500Y-75525172D01*
X206074500Y-88980830D01*
X206074500Y-89025000D01*
X206074500Y-89087026D01*
X206102105Y-89207969D01*
X206155929Y-89319737D01*
X206233275Y-89416725D01*
X206330263Y-89494071D01*
X206442031Y-89547895D01*
X206562974Y-89575500D01*
X206562977Y-89575500D01*
X220137023Y-89575500D01*
X220137026Y-89575500D01*
X220257969Y-89547895D01*
X220369737Y-89494071D01*
X220466725Y-89416725D01*
X220544071Y-89319737D01*
X220597895Y-89207969D01*
X220625500Y-89087026D01*
X220625500Y-89025000D01*
X220625500Y-88980830D01*
X220625500Y-75525172D01*
X220625500Y-75512974D01*
X220597895Y-75392031D01*
X220544071Y-75280263D01*
X220466725Y-75183275D01*
X220369737Y-75105929D01*
X220257969Y-75052105D01*
X220137026Y-75024500D01*
X220124828Y-75024500D01*
X206669170Y-75024500D01*
X206625000Y-75024500D01*
X206562974Y-75024500D01*
X206442031Y-75052105D01*
X206442026Y-75052107D01*
X206330265Y-75105928D01*
X206330263Y-75105929D01*
X206233275Y-75183275D01*
X206155929Y-75280263D01*
X206102105Y-75392031D01*
X206074500Y-75512974D01*
X201575500Y-75512974D01*
X201575500Y-74075172D01*
X201575500Y-74062974D01*
X201547895Y-73942031D01*
X201494071Y-73830263D01*
X201416725Y-73733275D01*
X201319737Y-73655929D01*
X201207969Y-73602105D01*
X201087026Y-73574500D01*
X201074828Y-73574500D01*
X187619170Y-73574500D01*
X187575000Y-73574500D01*
X187512974Y-73574500D01*
X187392031Y-73602105D01*
X187392026Y-73602107D01*
X187280265Y-73655928D01*
X187280263Y-73655929D01*
X187183275Y-73733275D01*
X187105929Y-73830263D01*
X187052105Y-73942031D01*
X187024500Y-74062974D01*
X182525500Y-74062974D01*
X182525500Y-71062381D01*
X200949500Y-71062381D01*
X200949500Y-71337618D01*
X200980317Y-71611124D01*
X200994897Y-71675000D01*
X201041562Y-71879454D01*
X201041564Y-71879460D01*
X201041563Y-71879460D01*
X201132459Y-72139225D01*
X201132464Y-72139239D01*
X201132466Y-72139243D01*
X201251886Y-72387221D01*
X201251890Y-72387227D01*
X201398319Y-72620268D01*
X201569927Y-72835458D01*
X201764541Y-73030072D01*
X201764545Y-73030075D01*
X201979732Y-73201681D01*
X202212779Y-73348114D01*
X202460757Y-73467534D01*
X202460772Y-73467539D01*
X202460774Y-73467540D01*
X202720539Y-73558436D01*
X202720542Y-73558436D01*
X202720546Y-73558438D01*
X202988879Y-73619683D01*
X203182816Y-73641534D01*
X203262381Y-73650500D01*
X203262383Y-73650500D01*
X203537619Y-73650500D01*
X203607079Y-73642673D01*
X203811121Y-73619683D01*
X204079454Y-73558438D01*
X204339243Y-73467534D01*
X204587221Y-73348114D01*
X204820268Y-73201681D01*
X205035455Y-73030075D01*
X205230075Y-72835455D01*
X205401681Y-72620268D01*
X205548114Y-72387221D01*
X205667534Y-72139243D01*
X205758438Y-71879454D01*
X205819683Y-71611121D01*
X205850500Y-71337617D01*
X205850500Y-71062383D01*
X205819683Y-70788879D01*
X205758438Y-70520546D01*
X205731678Y-70444071D01*
X205667540Y-70260774D01*
X205667539Y-70260772D01*
X205667534Y-70260757D01*
X205548114Y-70012779D01*
X205401681Y-69779732D01*
X205230075Y-69564545D01*
X205230072Y-69564541D01*
X205035458Y-69369927D01*
X204820268Y-69198319D01*
X204651111Y-69092031D01*
X204587221Y-69051886D01*
X204339243Y-68932466D01*
X204339239Y-68932464D01*
X204339225Y-68932459D01*
X204079460Y-68841563D01*
X203811124Y-68780317D01*
X203537619Y-68749500D01*
X203537617Y-68749500D01*
X203262383Y-68749500D01*
X203262381Y-68749500D01*
X202988875Y-68780317D01*
X202720539Y-68841563D01*
X202460774Y-68932459D01*
X202460754Y-68932467D01*
X202361506Y-68980263D01*
X202212779Y-69051886D01*
X202212774Y-69051888D01*
X202212772Y-69051890D01*
X201979731Y-69198319D01*
X201764541Y-69369927D01*
X201569927Y-69564541D01*
X201398319Y-69779731D01*
X201251890Y-70012772D01*
X201251886Y-70012779D01*
X201181967Y-70157968D01*
X201132467Y-70260754D01*
X201132459Y-70260774D01*
X201041563Y-70520539D01*
X200980317Y-70788875D01*
X200949500Y-71062381D01*
X182525500Y-71062381D01*
X182525500Y-69225172D01*
X182525500Y-69212974D01*
X182497895Y-69092031D01*
X182444071Y-68980263D01*
X182366725Y-68883275D01*
X182269737Y-68805929D01*
X182157969Y-68752105D01*
X182037026Y-68724500D01*
X182024828Y-68724500D01*
X168569170Y-68724500D01*
X168525000Y-68724500D01*
X168462974Y-68724500D01*
X168353444Y-68749500D01*
X168342031Y-68752105D01*
X168342026Y-68752107D01*
X168283447Y-68780317D01*
X168230263Y-68805929D01*
X168133275Y-68883275D01*
X168055929Y-68980263D01*
X168055928Y-68980264D01*
X168055928Y-68980265D01*
X168010066Y-69075500D01*
X168002105Y-69092031D01*
X167974500Y-69212974D01*
X163475500Y-69212974D01*
X163475500Y-67825172D01*
X163475500Y-67812974D01*
X163447895Y-67692031D01*
X163394071Y-67580263D01*
X163316725Y-67483275D01*
X163219737Y-67405929D01*
X163107969Y-67352105D01*
X162987026Y-67324500D01*
X162974828Y-67324500D01*
X149519170Y-67324500D01*
X149475000Y-67324500D01*
X149412974Y-67324500D01*
X149292031Y-67352105D01*
X149292026Y-67352107D01*
X149270692Y-67362381D01*
X149180263Y-67405929D01*
X149083275Y-67483275D01*
X149005929Y-67580263D01*
X149005928Y-67580264D01*
X149005928Y-67580265D01*
X148978309Y-67637618D01*
X148952105Y-67692031D01*
X148924500Y-67812974D01*
X130030742Y-67812974D01*
X130033129Y-67791790D01*
X130050500Y-67637618D01*
X130050500Y-67362381D01*
X130041534Y-67282816D01*
X130019683Y-67088879D01*
X129958438Y-66820546D01*
X129917867Y-66704602D01*
X129867540Y-66560774D01*
X129867539Y-66560772D01*
X129867534Y-66560757D01*
X129748114Y-66312779D01*
X129601681Y-66079732D01*
X129430075Y-65864545D01*
X129430072Y-65864541D01*
X129235458Y-65669927D01*
X129020268Y-65498319D01*
X128787227Y-65351890D01*
X128787228Y-65351890D01*
X128787221Y-65351886D01*
X128539243Y-65232466D01*
X128539239Y-65232464D01*
X128539225Y-65232459D01*
X128279460Y-65141563D01*
X128011124Y-65080317D01*
X127737619Y-65049500D01*
X127737617Y-65049500D01*
X127462383Y-65049500D01*
X127462381Y-65049500D01*
X127188875Y-65080317D01*
X126920539Y-65141563D01*
X126660774Y-65232459D01*
X126660754Y-65232467D01*
X126558040Y-65281931D01*
X126412779Y-65351886D01*
X126412774Y-65351888D01*
X126412772Y-65351890D01*
X126179731Y-65498319D01*
X125964541Y-65669927D01*
X125769927Y-65864541D01*
X125600011Y-66077610D01*
X125541900Y-66118398D01*
X125470962Y-66121293D01*
X125409720Y-66085378D01*
X125377618Y-66022054D01*
X125375500Y-65999050D01*
X125375500Y-52562976D01*
X125375500Y-52562974D01*
X125347895Y-52442031D01*
X125294071Y-52330263D01*
X125216725Y-52233275D01*
X125119737Y-52155929D01*
X125007969Y-52102105D01*
X124887026Y-52074500D01*
X124874828Y-52074500D01*
X111419170Y-52074500D01*
X111375000Y-52074500D01*
X111312974Y-52074500D01*
X111192276Y-52102049D01*
X111192031Y-52102105D01*
X111192026Y-52102107D01*
X111130293Y-52131836D01*
X111080263Y-52155929D01*
X110983275Y-52233275D01*
X110905929Y-52330263D01*
X110905928Y-52330264D01*
X110905928Y-52330265D01*
X110854712Y-52436618D01*
X110852105Y-52442031D01*
X110824500Y-52562974D01*
X108737565Y-52562974D01*
X108737565Y-50162974D01*
X129874500Y-50162974D01*
X129874500Y-50175172D01*
X129874500Y-63630830D01*
X129874500Y-63675000D01*
X129874500Y-63737026D01*
X129902105Y-63857969D01*
X129955929Y-63969737D01*
X130033275Y-64066725D01*
X130130263Y-64144071D01*
X130242031Y-64197895D01*
X130362974Y-64225500D01*
X130362977Y-64225500D01*
X143937023Y-64225500D01*
X143937026Y-64225500D01*
X144057969Y-64197895D01*
X144169737Y-64144071D01*
X144266725Y-64066725D01*
X144344071Y-63969737D01*
X144397895Y-63857969D01*
X144425500Y-63737026D01*
X144425500Y-63675000D01*
X144425500Y-63630830D01*
X144425500Y-50175172D01*
X144425500Y-50162974D01*
X144397895Y-50042031D01*
X144344071Y-49930263D01*
X144266725Y-49833275D01*
X144169737Y-49755929D01*
X144057969Y-49702105D01*
X143937026Y-49674500D01*
X143924828Y-49674500D01*
X130469170Y-49674500D01*
X130425000Y-49674500D01*
X130362974Y-49674500D01*
X130242031Y-49702105D01*
X130242026Y-49702107D01*
X130130265Y-49755928D01*
X130130263Y-49755929D01*
X130033275Y-49833275D01*
X129955929Y-49930263D01*
X129902105Y-50042031D01*
X129874500Y-50162974D01*
X108737565Y-50162974D01*
X108737565Y-48762974D01*
X148924500Y-48762974D01*
X148924500Y-48775172D01*
X148924500Y-62230830D01*
X148924500Y-62275000D01*
X148924500Y-62337026D01*
X148952105Y-62457969D01*
X149005929Y-62569737D01*
X149083275Y-62666725D01*
X149180263Y-62744071D01*
X149292031Y-62797895D01*
X149412974Y-62825500D01*
X149412977Y-62825500D01*
X162987023Y-62825500D01*
X162987026Y-62825500D01*
X163107969Y-62797895D01*
X163219737Y-62744071D01*
X163316725Y-62666725D01*
X163394071Y-62569737D01*
X163447895Y-62457969D01*
X163475500Y-62337026D01*
X163475500Y-62275000D01*
X163475500Y-62230830D01*
X163475500Y-50162974D01*
X167974500Y-50162974D01*
X167974500Y-50175172D01*
X167974500Y-63630830D01*
X167974500Y-63675000D01*
X167974500Y-63737026D01*
X168002105Y-63857969D01*
X168055929Y-63969737D01*
X168133275Y-64066725D01*
X168230263Y-64144071D01*
X168342031Y-64197895D01*
X168462974Y-64225500D01*
X168462977Y-64225500D01*
X182037023Y-64225500D01*
X182037026Y-64225500D01*
X182157969Y-64197895D01*
X182269737Y-64144071D01*
X182366725Y-64066725D01*
X182444071Y-63969737D01*
X182497895Y-63857969D01*
X182525500Y-63737026D01*
X182525500Y-63675000D01*
X182525500Y-63630830D01*
X182525500Y-55012974D01*
X187024500Y-55012974D01*
X187024500Y-55025172D01*
X187024500Y-68480830D01*
X187024500Y-68525000D01*
X187024500Y-68587026D01*
X187052105Y-68707969D01*
X187105929Y-68819737D01*
X187183275Y-68916725D01*
X187280263Y-68994071D01*
X187392031Y-69047895D01*
X187512974Y-69075500D01*
X187512977Y-69075500D01*
X201087023Y-69075500D01*
X201087026Y-69075500D01*
X201207969Y-69047895D01*
X201319737Y-68994071D01*
X201416725Y-68916725D01*
X201494071Y-68819737D01*
X201547895Y-68707969D01*
X201575500Y-68587026D01*
X201575500Y-68525000D01*
X201575500Y-68480830D01*
X201575500Y-56462974D01*
X206074500Y-56462974D01*
X206074500Y-56475172D01*
X206074500Y-69930830D01*
X206074500Y-69975000D01*
X206074500Y-70037026D01*
X206102105Y-70157969D01*
X206155929Y-70269737D01*
X206233275Y-70366725D01*
X206330263Y-70444071D01*
X206442031Y-70497895D01*
X206562974Y-70525500D01*
X206562977Y-70525500D01*
X220137023Y-70525500D01*
X220137026Y-70525500D01*
X220257969Y-70497895D01*
X220369737Y-70444071D01*
X220466725Y-70366725D01*
X220544071Y-70269737D01*
X220597895Y-70157969D01*
X220625500Y-70037026D01*
X220625500Y-69975000D01*
X220625500Y-69930830D01*
X220625500Y-56475172D01*
X220625500Y-56462974D01*
X220597895Y-56342031D01*
X220544071Y-56230263D01*
X220466725Y-56133275D01*
X220369737Y-56055929D01*
X220257969Y-56002105D01*
X220137026Y-55974500D01*
X220124828Y-55974500D01*
X206669170Y-55974500D01*
X206625000Y-55974500D01*
X206562974Y-55974500D01*
X206442031Y-56002105D01*
X206442026Y-56002107D01*
X206330265Y-56055928D01*
X206330263Y-56055929D01*
X206233275Y-56133275D01*
X206155929Y-56230263D01*
X206102105Y-56342031D01*
X206074500Y-56462974D01*
X201575500Y-56462974D01*
X201575500Y-55025172D01*
X201575500Y-55012974D01*
X201547895Y-54892031D01*
X201494071Y-54780263D01*
X201416725Y-54683275D01*
X201319737Y-54605929D01*
X201207969Y-54552105D01*
X201087026Y-54524500D01*
X201074828Y-54524500D01*
X187619170Y-54524500D01*
X187575000Y-54524500D01*
X187512974Y-54524500D01*
X187392031Y-54552105D01*
X187392026Y-54552107D01*
X187280265Y-54605928D01*
X187280263Y-54605929D01*
X187183275Y-54683275D01*
X187105929Y-54780263D01*
X187052105Y-54892031D01*
X187024500Y-55012974D01*
X182525500Y-55012974D01*
X182525500Y-50175172D01*
X182525500Y-50162974D01*
X182497895Y-50042031D01*
X182444071Y-49930263D01*
X182366725Y-49833275D01*
X182269737Y-49755929D01*
X182157969Y-49702105D01*
X182037026Y-49674500D01*
X182024828Y-49674500D01*
X168569170Y-49674500D01*
X168525000Y-49674500D01*
X168462974Y-49674500D01*
X168342031Y-49702105D01*
X168342026Y-49702107D01*
X168230265Y-49755928D01*
X168230263Y-49755929D01*
X168133275Y-49833275D01*
X168055929Y-49930263D01*
X168002105Y-50042031D01*
X167974500Y-50162974D01*
X163475500Y-50162974D01*
X163475500Y-48775172D01*
X163475500Y-48762974D01*
X163447895Y-48642031D01*
X163394071Y-48530263D01*
X163316725Y-48433275D01*
X163219737Y-48355929D01*
X163107969Y-48302105D01*
X162987026Y-48274500D01*
X162974828Y-48274500D01*
X149519170Y-48274500D01*
X149475000Y-48274500D01*
X149412974Y-48274500D01*
X149307326Y-48298614D01*
X149292031Y-48302105D01*
X149292026Y-48302107D01*
X149230457Y-48331757D01*
X149180263Y-48355929D01*
X149083275Y-48433275D01*
X149005929Y-48530263D01*
X149005928Y-48530264D01*
X149005928Y-48530265D01*
X148954401Y-48637264D01*
X148952105Y-48642031D01*
X148924500Y-48762974D01*
X108737565Y-48762974D01*
X108737565Y-48651041D01*
X108737686Y-48645510D01*
X108740227Y-48587680D01*
X108745311Y-48471961D01*
X108746128Y-48462152D01*
X108754769Y-48391726D01*
X108761088Y-48340214D01*
X108762420Y-48331757D01*
X108768125Y-48302107D01*
X108785667Y-48210940D01*
X108787562Y-48202623D01*
X108819194Y-48082848D01*
X108821658Y-48074657D01*
X108860987Y-47958470D01*
X108864009Y-47950454D01*
X108887367Y-47894345D01*
X108911511Y-47836347D01*
X108915050Y-47828600D01*
X108969880Y-47718627D01*
X108973924Y-47711161D01*
X109036443Y-47604536D01*
X109040978Y-47597369D01*
X109110355Y-47495529D01*
X109115359Y-47488691D01*
X109191586Y-47391579D01*
X109197039Y-47385095D01*
X109275331Y-47298113D01*
X109284280Y-47289124D01*
X109471117Y-47119511D01*
X109484360Y-47109021D01*
X109612985Y-47020483D01*
X109685959Y-46970251D01*
X109700480Y-46961630D01*
X109917629Y-46851709D01*
X109933175Y-46845111D01*
X110162234Y-46765573D01*
X110178537Y-46761112D01*
X110416646Y-46712861D01*
X110433303Y-46710630D01*
X110690811Y-46693543D01*
X110699153Y-46693268D01*
X136033544Y-46693268D01*
X136034422Y-46693271D01*
G37*
G04 #@! TD.AperFunction*
M02*
