%TF.GenerationSoftware,KiCad,Pcbnew,8.0.6*%
%TF.CreationDate,2025-01-10T15:37:57+13:00*%
%TF.ProjectId,Plate,506c6174-652e-46b6-9963-61645f706362,1*%
%TF.SameCoordinates,Original*%
%TF.FileFunction,Drillmap*%
%TF.FilePolarity,Positive*%
%FSLAX45Y45*%
G04 Gerber Fmt 4.5, Leading zero omitted, Abs format (unit mm)*
G04 Created by KiCad (PCBNEW 8.0.6) date 2025-01-10 15:37:57*
%MOMM*%
%LPD*%
G01*
G04 APERTURE LIST*
%ADD10C,0.100000*%
%ADD11C,0.050000*%
%ADD12C,0.200000*%
%ADD13C,0.240000*%
G04 APERTURE END LIST*
D10*
X8759743Y-12958827D02*
X8801225Y-13029412D01*
X8842815Y-13100182D01*
X8884507Y-13171124D01*
X8926293Y-13242226D01*
X8968165Y-13313476D01*
X9010117Y-13384860D01*
X9052141Y-13456368D01*
X9094230Y-13527986D01*
X9136376Y-13599703D01*
X9178574Y-13671506D01*
X9220815Y-13743382D01*
X9263092Y-13815320D01*
X9305397Y-13887307D01*
X9347725Y-13959331D01*
X9390067Y-14031380D01*
X9432416Y-14103441D01*
X9474765Y-14175502D01*
X9517107Y-14247550D01*
X9559434Y-14319574D01*
X9601740Y-14391561D01*
X9644016Y-14463499D01*
X9686257Y-14535375D01*
X9728454Y-14607177D01*
X9770601Y-14678893D01*
X9812689Y-14750511D01*
X9854713Y-14822019D01*
X9896664Y-14893403D01*
X9938536Y-14964652D01*
X9980322Y-15035753D01*
X10022013Y-15106694D01*
X10063603Y-15177463D01*
X10105084Y-15248048D01*
X17942391Y-13014574D02*
X22156456Y-13014574D01*
X8274234Y-9670055D02*
X10608743Y-9670075D01*
X8054293Y-9890289D02*
X8058504Y-9987095D01*
X8063627Y-10084350D01*
X8069685Y-10182001D01*
X8076704Y-10279999D01*
X8084706Y-10378293D01*
X8093716Y-10476832D01*
X8103757Y-10575565D01*
X8114853Y-10674442D01*
X8127028Y-10773412D01*
X8140306Y-10872424D01*
X8154711Y-10971428D01*
X8170267Y-11070373D01*
X8186997Y-11169208D01*
X8204926Y-11267882D01*
X8224077Y-11366346D01*
X8244474Y-11464548D01*
X8266141Y-11562438D01*
X8289103Y-11659964D01*
X8313382Y-11757077D01*
X8339002Y-11853725D01*
X8365988Y-11949858D01*
X8394364Y-12045425D01*
X8424153Y-12140376D01*
X8455379Y-12234659D01*
X8488066Y-12328225D01*
X8522238Y-12421022D01*
X8557919Y-12513000D01*
X8595132Y-12604108D01*
X8633902Y-12694295D01*
X8674252Y-12783511D01*
X8716207Y-12871705D01*
X8759789Y-12958827D01*
X10828707Y-9450065D02*
X10828707Y-4864277D01*
X17592391Y-14336766D02*
X17591617Y-14352114D01*
X17589346Y-14367016D01*
X17585653Y-14381397D01*
X17580613Y-14395182D01*
X17574300Y-14408295D01*
X17566791Y-14420662D01*
X17558160Y-14432208D01*
X17548482Y-14442858D01*
X17537833Y-14452535D01*
X17526287Y-14461166D01*
X17513920Y-14468676D01*
X17500806Y-14474988D01*
X17487021Y-14480028D01*
X17472640Y-14483722D01*
X17457739Y-14485993D01*
X17442391Y-14486766D01*
X8274209Y-9670075D02*
X8262750Y-9670357D01*
X8251458Y-9671194D01*
X8240345Y-9672573D01*
X8229425Y-9674482D01*
X8218710Y-9676907D01*
X8208214Y-9679836D01*
X8197948Y-9683255D01*
X8187927Y-9687152D01*
X8178163Y-9691513D01*
X8168669Y-9696326D01*
X8159458Y-9701578D01*
X8150543Y-9707255D01*
X8141936Y-9713345D01*
X8133652Y-9719836D01*
X8125702Y-9726713D01*
X8118100Y-9733964D01*
X8110858Y-9741576D01*
X8103990Y-9749537D01*
X8097508Y-9757832D01*
X8091426Y-9766450D01*
X8085756Y-9775377D01*
X8080511Y-9784601D01*
X8075704Y-9794108D01*
X8071348Y-9803885D01*
X8067457Y-9813920D01*
X8064042Y-9824200D01*
X8061117Y-9834711D01*
X8058695Y-9845441D01*
X8056788Y-9856377D01*
X8055411Y-9867505D01*
X8054575Y-9878813D01*
X8054293Y-9890289D01*
X22306456Y-5279276D02*
X22298889Y-5246574D01*
X22276432Y-5214304D01*
X22239449Y-5182506D01*
X22188303Y-5151220D01*
X22123360Y-5120485D01*
X22044984Y-5090341D01*
X21953538Y-5060828D01*
X21849388Y-5031985D01*
X21732897Y-5003853D01*
X21604431Y-4976471D01*
X21464352Y-4949879D01*
X21313026Y-4924116D01*
X21150816Y-4899223D01*
X20978088Y-4875239D01*
X20795205Y-4852204D01*
X20602532Y-4830157D01*
X20400433Y-4809138D01*
X20189272Y-4789188D01*
X19969413Y-4770345D01*
X19741221Y-4752649D01*
X19505061Y-4736141D01*
X19261296Y-4720860D01*
X19010291Y-4706846D01*
X18752410Y-4694138D01*
X18488017Y-4682776D01*
X18217477Y-4672801D01*
X17941154Y-4664251D01*
X17659412Y-4657166D01*
X17372616Y-4651587D01*
X17081130Y-4647552D01*
X16785318Y-4645102D01*
X16485544Y-4644277D01*
X10105084Y-15248048D02*
X10111990Y-15256619D01*
X10120020Y-15263726D01*
X10128970Y-15269361D01*
X10138635Y-15273516D01*
X10148807Y-15276183D01*
X10159283Y-15277353D01*
X10169856Y-15277018D01*
X10180320Y-15275169D01*
X10190470Y-15271798D01*
X10200101Y-15266897D01*
X10206132Y-15262776D01*
X11048667Y-4644277D02*
X11037339Y-4644563D01*
X11026161Y-4645412D01*
X11015147Y-4646809D01*
X11004309Y-4648742D01*
X10993663Y-4651197D01*
X10983221Y-4654159D01*
X10972998Y-4657615D01*
X10963007Y-4661552D01*
X10953262Y-4665954D01*
X10943777Y-4670810D01*
X10934566Y-4676104D01*
X10925642Y-4681823D01*
X10917019Y-4687954D01*
X10908711Y-4694482D01*
X10900731Y-4701394D01*
X10893094Y-4708676D01*
X10885814Y-4716314D01*
X10878903Y-4724295D01*
X10872376Y-4732605D01*
X10866246Y-4741229D01*
X10860528Y-4750155D01*
X10855235Y-4759368D01*
X10850380Y-4768855D01*
X10845978Y-4778601D01*
X10842043Y-4788594D01*
X10838587Y-4798819D01*
X10835625Y-4809262D01*
X10833171Y-4819911D01*
X10831239Y-4830750D01*
X10829841Y-4841767D01*
X10828992Y-4852947D01*
X10828707Y-4864277D01*
X22306456Y-5279276D02*
X22306456Y-12864574D01*
X17592391Y-13364574D02*
X17592846Y-13346549D01*
X17594196Y-13328763D01*
X17596420Y-13311236D01*
X17599495Y-13293992D01*
X17603400Y-13277051D01*
X17608113Y-13260436D01*
X17613611Y-13244169D01*
X17619873Y-13228272D01*
X17626878Y-13212766D01*
X17634602Y-13197673D01*
X17643025Y-13183016D01*
X17652124Y-13168816D01*
X17661877Y-13155096D01*
X17672263Y-13141876D01*
X17683259Y-13129179D01*
X17694844Y-13117028D01*
X17706996Y-13105443D01*
X17719693Y-13094446D01*
X17732913Y-13084060D01*
X17746633Y-13074307D01*
X17760833Y-13065208D01*
X17775490Y-13056785D01*
X17790583Y-13049061D01*
X17806089Y-13042057D01*
X17821986Y-13035794D01*
X17838253Y-13030296D01*
X17854868Y-13025583D01*
X17871808Y-13021678D01*
X17889053Y-13018603D01*
X17906579Y-13016379D01*
X17924366Y-13015029D01*
X17942391Y-13014574D01*
X17592391Y-13364574D02*
X17592391Y-14336766D01*
X11546773Y-14486766D02*
X17442391Y-14486766D01*
X10608746Y-9670065D02*
X10620074Y-9669779D01*
X10631252Y-9668930D01*
X10642266Y-9667533D01*
X10653104Y-9665600D01*
X10663750Y-9663145D01*
X10674192Y-9660183D01*
X10684415Y-9656727D01*
X10694406Y-9652790D01*
X10704151Y-9648388D01*
X10713636Y-9643532D01*
X10722847Y-9638238D01*
X10731771Y-9632519D01*
X10740394Y-9626388D01*
X10748702Y-9619860D01*
X10756682Y-9612948D01*
X10764319Y-9605666D01*
X10771599Y-9598028D01*
X10778510Y-9590047D01*
X10785037Y-9581737D01*
X10791167Y-9573113D01*
X10796885Y-9564187D01*
X10802178Y-9554974D01*
X10807033Y-9545487D01*
X10811435Y-9535741D01*
X10815370Y-9525748D01*
X10818826Y-9515523D01*
X10821788Y-9505080D01*
X10824242Y-9494431D01*
X10826174Y-9483592D01*
X10827572Y-9472575D01*
X10828421Y-9461395D01*
X10828707Y-9450065D01*
X10206132Y-15262776D02*
X10247466Y-15238846D01*
X10288908Y-15214853D01*
X10330452Y-15190802D01*
X10372088Y-15166696D01*
X10413812Y-15142540D01*
X10455614Y-15118339D01*
X10497489Y-15094096D01*
X10539428Y-15069815D01*
X10581425Y-15045501D01*
X10623472Y-15021158D01*
X10665563Y-14996790D01*
X10707689Y-14972401D01*
X10749845Y-14947995D01*
X10792022Y-14923577D01*
X10834213Y-14899150D01*
X10876412Y-14874719D01*
X10918610Y-14850289D01*
X10960801Y-14825862D01*
X11002978Y-14801444D01*
X11045134Y-14777038D01*
X11087260Y-14752649D01*
X11129350Y-14728281D01*
X11171398Y-14703938D01*
X11213394Y-14679624D01*
X11255333Y-14655344D01*
X11297207Y-14631101D01*
X11339010Y-14606899D01*
X11380733Y-14582744D01*
X11422369Y-14558639D01*
X11463912Y-14534588D01*
X11505354Y-14510595D01*
X11546687Y-14486665D01*
X16485544Y-4644277D02*
X11048667Y-4644277D01*
X22306456Y-12864574D02*
X22305682Y-12879922D01*
X22303411Y-12894824D01*
X22299718Y-12909204D01*
X22294678Y-12922989D01*
X22288365Y-12936103D01*
X22280856Y-12948470D01*
X22272225Y-12960016D01*
X22262547Y-12970665D01*
X22251898Y-12980343D01*
X22240352Y-12988974D01*
X22227985Y-12996483D01*
X22214871Y-13002796D01*
X22201086Y-13007836D01*
X22186706Y-13011529D01*
X22171804Y-13013800D01*
X22156456Y-13014574D01*
D11*
X11107500Y-12322500D02*
X11107500Y-10977500D01*
X11137500Y-10947500D02*
X12482500Y-10947500D01*
X12482500Y-12352500D02*
X11137500Y-12352500D01*
X12512500Y-10977500D02*
X12512500Y-12322500D01*
X11107500Y-10977500D02*
G75*
G02*
X11137500Y-10947500I30000J0D01*
G01*
X11137500Y-12352500D02*
G75*
G02*
X11107500Y-12322500I0J30000D01*
G01*
X12482500Y-10947500D02*
G75*
G02*
X12512500Y-10977500I0J-30000D01*
G01*
X12512500Y-12322500D02*
G75*
G02*
X12482500Y-12352500I-30000J0D01*
G01*
X16822500Y-12082500D02*
X16822500Y-10737500D01*
X16852500Y-10707500D02*
X18197500Y-10707500D01*
X18197500Y-12112500D02*
X16852500Y-12112500D01*
X18227500Y-10737500D02*
X18227500Y-12082500D01*
X16822500Y-10737500D02*
G75*
G02*
X16852500Y-10707500I30000J0D01*
G01*
X16852500Y-12112500D02*
G75*
G02*
X16822500Y-12082500I0J30000D01*
G01*
X18197500Y-10707500D02*
G75*
G02*
X18227500Y-10737500I0J-30000D01*
G01*
X18227500Y-12082500D02*
G75*
G02*
X18197500Y-12112500I-30000J0D01*
G01*
X14917500Y-6227500D02*
X14917500Y-4882500D01*
X14947500Y-4852500D02*
X16292500Y-4852500D01*
X16292500Y-6257500D02*
X14947500Y-6257500D01*
X16322500Y-4882500D02*
X16322500Y-6227500D01*
X14917500Y-4882500D02*
G75*
G02*
X14947500Y-4852500I30000J0D01*
G01*
X14947500Y-6257500D02*
G75*
G02*
X14917500Y-6227500I0J30000D01*
G01*
X16292500Y-4852500D02*
G75*
G02*
X16322500Y-4882500I0J-30000D01*
G01*
X16322500Y-6227500D02*
G75*
G02*
X16292500Y-6257500I-30000J0D01*
G01*
X14917500Y-10037500D02*
X14917500Y-8692500D01*
X14947500Y-8662500D02*
X16292500Y-8662500D01*
X16292500Y-10067500D02*
X14947500Y-10067500D01*
X16322500Y-8692500D02*
X16322500Y-10037500D01*
X14917500Y-8692500D02*
G75*
G02*
X14947500Y-8662500I30000J0D01*
G01*
X14947500Y-10067500D02*
G75*
G02*
X14917500Y-10037500I0J30000D01*
G01*
X16292500Y-8662500D02*
G75*
G02*
X16322500Y-8692500I0J-30000D01*
G01*
X16322500Y-10037500D02*
G75*
G02*
X16292500Y-10067500I-30000J0D01*
G01*
X16822500Y-8272500D02*
X16822500Y-6927500D01*
X16852500Y-6897500D02*
X18197500Y-6897500D01*
X18197500Y-8302500D02*
X16852500Y-8302500D01*
X18227500Y-6927500D02*
X18227500Y-8272500D01*
X16822500Y-6927500D02*
G75*
G02*
X16852500Y-6897500I30000J0D01*
G01*
X16852500Y-8302500D02*
G75*
G02*
X16822500Y-8272500I0J30000D01*
G01*
X18197500Y-6897500D02*
G75*
G02*
X18227500Y-6927500I0J-30000D01*
G01*
X18227500Y-8272500D02*
G75*
G02*
X18197500Y-8302500I-30000J0D01*
G01*
X20632500Y-8902500D02*
X20632500Y-7557500D01*
X20662500Y-7527500D02*
X22007500Y-7527500D01*
X22007500Y-8932500D02*
X20662500Y-8932500D01*
X22037500Y-7557500D02*
X22037500Y-8902500D01*
X20632500Y-7557500D02*
G75*
G02*
X20662500Y-7527500I30000J0D01*
G01*
X20662500Y-8932500D02*
G75*
G02*
X20632500Y-8902500I0J30000D01*
G01*
X22007500Y-7527500D02*
G75*
G02*
X22037500Y-7557500I0J-30000D01*
G01*
X22037500Y-8902500D02*
G75*
G02*
X22007500Y-8932500I-30000J0D01*
G01*
X11107500Y-8512500D02*
X11107500Y-7167500D01*
X11137500Y-7137500D02*
X12482500Y-7137500D01*
X12482500Y-8542500D02*
X11137500Y-8542500D01*
X12512500Y-7167500D02*
X12512500Y-8512500D01*
X11107500Y-7167500D02*
G75*
G02*
X11137500Y-7137500I30000J0D01*
G01*
X11137500Y-8542500D02*
G75*
G02*
X11107500Y-8512500I0J30000D01*
G01*
X12482500Y-7137500D02*
G75*
G02*
X12512500Y-7167500I0J-30000D01*
G01*
X12512500Y-8512500D02*
G75*
G02*
X12482500Y-8542500I-30000J0D01*
G01*
X20632500Y-10807500D02*
X20632500Y-9462500D01*
X20662500Y-9432500D02*
X22007500Y-9432500D01*
X22007500Y-10837500D02*
X20662500Y-10837500D01*
X22037500Y-9462500D02*
X22037500Y-10807500D01*
X20632500Y-9462500D02*
G75*
G02*
X20662500Y-9432500I30000J0D01*
G01*
X20662500Y-10837500D02*
G75*
G02*
X20632500Y-10807500I0J30000D01*
G01*
X22007500Y-9432500D02*
G75*
G02*
X22037500Y-9462500I0J-30000D01*
G01*
X22037500Y-10807500D02*
G75*
G02*
X22007500Y-10837500I-30000J0D01*
G01*
X14917500Y-8132500D02*
X14917500Y-6787500D01*
X14947500Y-6757500D02*
X16292500Y-6757500D01*
X16292500Y-8162500D02*
X14947500Y-8162500D01*
X16322500Y-6787500D02*
X16322500Y-8132500D01*
X14917500Y-6787500D02*
G75*
G02*
X14947500Y-6757500I30000J0D01*
G01*
X14947500Y-8162500D02*
G75*
G02*
X14917500Y-8132500I0J30000D01*
G01*
X16292500Y-6757500D02*
G75*
G02*
X16322500Y-6787500I0J-30000D01*
G01*
X16322500Y-8132500D02*
G75*
G02*
X16292500Y-8162500I-30000J0D01*
G01*
X13012500Y-10177500D02*
X13012500Y-8832500D01*
X13042500Y-8802500D02*
X14387500Y-8802500D01*
X14387500Y-10207500D02*
X13042500Y-10207500D01*
X14417500Y-8832500D02*
X14417500Y-10177500D01*
X13012500Y-8832500D02*
G75*
G02*
X13042500Y-8802500I30000J0D01*
G01*
X13042500Y-10207500D02*
G75*
G02*
X13012500Y-10177500I0J30000D01*
G01*
X14387500Y-8802500D02*
G75*
G02*
X14417500Y-8832500I0J-30000D01*
G01*
X14417500Y-10177500D02*
G75*
G02*
X14387500Y-10207500I-30000J0D01*
G01*
X18727500Y-10662500D02*
X18727500Y-9317500D01*
X18757500Y-9287500D02*
X20102500Y-9287500D01*
X20102500Y-10692500D02*
X18757500Y-10692500D01*
X20132500Y-9317500D02*
X20132500Y-10662500D01*
X18727500Y-9317500D02*
G75*
G02*
X18757500Y-9287500I30000J0D01*
G01*
X18757500Y-10692500D02*
G75*
G02*
X18727500Y-10662500I0J30000D01*
G01*
X20102500Y-9287500D02*
G75*
G02*
X20132500Y-9317500I0J-30000D01*
G01*
X20132500Y-10662500D02*
G75*
G02*
X20102500Y-10692500I-30000J0D01*
G01*
X20632500Y-6997500D02*
X20632500Y-5652500D01*
X20662500Y-5622500D02*
X22007500Y-5622500D01*
X22007500Y-7027500D02*
X20662500Y-7027500D01*
X22037500Y-5652500D02*
X22037500Y-6997500D01*
X20632500Y-5652500D02*
G75*
G02*
X20662500Y-5622500I30000J0D01*
G01*
X20662500Y-7027500D02*
G75*
G02*
X20632500Y-6997500I0J30000D01*
G01*
X22007500Y-5622500D02*
G75*
G02*
X22037500Y-5652500I0J-30000D01*
G01*
X22037500Y-6997500D02*
G75*
G02*
X22007500Y-7027500I-30000J0D01*
G01*
X15867500Y-13987500D02*
X15867500Y-12642500D01*
X15897500Y-12612500D02*
X17242500Y-12612500D01*
X17242500Y-14017500D02*
X15897500Y-14017500D01*
X17272500Y-12642500D02*
X17272500Y-13987500D01*
X15867500Y-12642500D02*
G75*
G02*
X15897500Y-12612500I30000J0D01*
G01*
X15897500Y-14017500D02*
G75*
G02*
X15867500Y-13987500I0J30000D01*
G01*
X17242500Y-12612500D02*
G75*
G02*
X17272500Y-12642500I0J-30000D01*
G01*
X17272500Y-13987500D02*
G75*
G02*
X17242500Y-14017500I-30000J0D01*
G01*
X18727500Y-12567500D02*
X18727500Y-11222500D01*
X18757500Y-11192500D02*
X20102500Y-11192500D01*
X20102500Y-12597500D02*
X18757500Y-12597500D01*
X20132500Y-11222500D02*
X20132500Y-12567500D01*
X18727500Y-11222500D02*
G75*
G02*
X18757500Y-11192500I30000J0D01*
G01*
X18757500Y-12597500D02*
G75*
G02*
X18727500Y-12567500I0J30000D01*
G01*
X20102500Y-11192500D02*
G75*
G02*
X20132500Y-11222500I0J-30000D01*
G01*
X20132500Y-12567500D02*
G75*
G02*
X20102500Y-12597500I-30000J0D01*
G01*
X20632500Y-12712500D02*
X20632500Y-11367500D01*
X20662500Y-11337500D02*
X22007500Y-11337500D01*
X22007500Y-12742500D02*
X20662500Y-12742500D01*
X22037500Y-11367500D02*
X22037500Y-12712500D01*
X20632500Y-11367500D02*
G75*
G02*
X20662500Y-11337500I30000J0D01*
G01*
X20662500Y-12742500D02*
G75*
G02*
X20632500Y-12712500I0J30000D01*
G01*
X22007500Y-11337500D02*
G75*
G02*
X22037500Y-11367500I0J-30000D01*
G01*
X22037500Y-12712500D02*
G75*
G02*
X22007500Y-12742500I-30000J0D01*
G01*
X11107500Y-10417500D02*
X11107500Y-9072500D01*
X11137500Y-9042500D02*
X12482500Y-9042500D01*
X12482500Y-10447500D02*
X11137500Y-10447500D01*
X12512500Y-9072500D02*
X12512500Y-10417500D01*
X11107500Y-9072500D02*
G75*
G02*
X11137500Y-9042500I30000J0D01*
G01*
X11137500Y-10447500D02*
G75*
G02*
X11107500Y-10417500I0J30000D01*
G01*
X12482500Y-9042500D02*
G75*
G02*
X12512500Y-9072500I0J-30000D01*
G01*
X12512500Y-10417500D02*
G75*
G02*
X12482500Y-10447500I-30000J0D01*
G01*
X9202500Y-11362500D02*
X9202500Y-10017500D01*
X9232500Y-9987500D02*
X10577500Y-9987500D01*
X10577500Y-11392500D02*
X9232500Y-11392500D01*
X10607500Y-10017500D02*
X10607500Y-11362500D01*
X9202500Y-10017500D02*
G75*
G02*
X9232500Y-9987500I30000J0D01*
G01*
X9232500Y-11392500D02*
G75*
G02*
X9202500Y-11362500I0J30000D01*
G01*
X10577500Y-9987500D02*
G75*
G02*
X10607500Y-10017500I0J-30000D01*
G01*
X10607500Y-11362500D02*
G75*
G02*
X10577500Y-11392500I-30000J0D01*
G01*
X16822500Y-6367500D02*
X16822500Y-5022500D01*
X16852500Y-4992500D02*
X18197500Y-4992500D01*
X18197500Y-6397500D02*
X16852500Y-6397500D01*
X18227500Y-5022500D02*
X18227500Y-6367500D01*
X16822500Y-5022500D02*
G75*
G02*
X16852500Y-4992500I30000J0D01*
G01*
X16852500Y-6397500D02*
G75*
G02*
X16822500Y-6367500I0J30000D01*
G01*
X18197500Y-4992500D02*
G75*
G02*
X18227500Y-5022500I0J-30000D01*
G01*
X18227500Y-6367500D02*
G75*
G02*
X18197500Y-6397500I-30000J0D01*
G01*
X13012500Y-12082500D02*
X13012500Y-10737500D01*
X13042500Y-10707500D02*
X14387500Y-10707500D01*
X14387500Y-12112500D02*
X13042500Y-12112500D01*
X14417500Y-10737500D02*
X14417500Y-12082500D01*
X13012500Y-10737500D02*
G75*
G02*
X13042500Y-10707500I30000J0D01*
G01*
X13042500Y-12112500D02*
G75*
G02*
X13012500Y-12082500I0J30000D01*
G01*
X14387500Y-10707500D02*
G75*
G02*
X14417500Y-10737500I0J-30000D01*
G01*
X14417500Y-12082500D02*
G75*
G02*
X14387500Y-12112500I-30000J0D01*
G01*
X18727500Y-8757500D02*
X18727500Y-7412500D01*
X18757500Y-7382500D02*
X20102500Y-7382500D01*
X20102500Y-8787500D02*
X18757500Y-8787500D01*
X20132500Y-7412500D02*
X20132500Y-8757500D01*
X18727500Y-7412500D02*
G75*
G02*
X18757500Y-7382500I30000J0D01*
G01*
X18757500Y-8787500D02*
G75*
G02*
X18727500Y-8757500I0J30000D01*
G01*
X20102500Y-7382500D02*
G75*
G02*
X20132500Y-7412500I0J-30000D01*
G01*
X20132500Y-8757500D02*
G75*
G02*
X20102500Y-8787500I-30000J0D01*
G01*
X13012500Y-8272500D02*
X13012500Y-6927500D01*
X13042500Y-6897500D02*
X14387500Y-6897500D01*
X14387500Y-8302500D02*
X13042500Y-8302500D01*
X14417500Y-6927500D02*
X14417500Y-8272500D01*
X13012500Y-6927500D02*
G75*
G02*
X13042500Y-6897500I30000J0D01*
G01*
X13042500Y-8302500D02*
G75*
G02*
X13012500Y-8272500I0J30000D01*
G01*
X14387500Y-6897500D02*
G75*
G02*
X14417500Y-6927500I0J-30000D01*
G01*
X14417500Y-8272500D02*
G75*
G02*
X14387500Y-8302500I-30000J0D01*
G01*
X9326348Y-13362867D02*
X10491152Y-12690367D01*
X9987867Y-14568652D02*
X9315367Y-13403848D01*
X10532133Y-12701348D02*
X11204633Y-13866152D01*
X11193652Y-13907133D02*
X10028848Y-14579633D01*
X9315367Y-13403848D02*
G75*
G02*
X9326348Y-13362867I25982J15000D01*
G01*
X10028848Y-14579633D02*
G75*
G02*
X9987867Y-14568652I-15000J25982D01*
G01*
X10491152Y-12690367D02*
G75*
G02*
X10532133Y-12701348I15000J-25981D01*
G01*
X11204633Y-13866152D02*
G75*
G02*
X11193652Y-13907133I-25981J-15000D01*
G01*
X14917500Y-11942500D02*
X14917500Y-10597500D01*
X14947500Y-10567500D02*
X16292500Y-10567500D01*
X16292500Y-11972500D02*
X14947500Y-11972500D01*
X16322500Y-10597500D02*
X16322500Y-11942500D01*
X14917500Y-10597500D02*
G75*
G02*
X14947500Y-10567500I30000J0D01*
G01*
X14947500Y-11972500D02*
G75*
G02*
X14917500Y-11942500I0J30000D01*
G01*
X16292500Y-10567500D02*
G75*
G02*
X16322500Y-10597500I0J-30000D01*
G01*
X16322500Y-11942500D02*
G75*
G02*
X16292500Y-11972500I-30000J0D01*
G01*
X18727500Y-6852500D02*
X18727500Y-5507500D01*
X18757500Y-5477500D02*
X20102500Y-5477500D01*
X20102500Y-6882500D02*
X18757500Y-6882500D01*
X20132500Y-5507500D02*
X20132500Y-6852500D01*
X18727500Y-5507500D02*
G75*
G02*
X18757500Y-5477500I30000J0D01*
G01*
X18757500Y-6882500D02*
G75*
G02*
X18727500Y-6852500I0J30000D01*
G01*
X20102500Y-5477500D02*
G75*
G02*
X20132500Y-5507500I0J-30000D01*
G01*
X20132500Y-6852500D02*
G75*
G02*
X20102500Y-6882500I-30000J0D01*
G01*
X13962500Y-13987500D02*
X13962500Y-12642500D01*
X13992500Y-12612500D02*
X15337500Y-12612500D01*
X15337500Y-14017500D02*
X13992500Y-14017500D01*
X15367500Y-12642500D02*
X15367500Y-13987500D01*
X13962500Y-12642500D02*
G75*
G02*
X13992500Y-12612500I30000J0D01*
G01*
X13992500Y-14017500D02*
G75*
G02*
X13962500Y-13987500I0J30000D01*
G01*
X15337500Y-12612500D02*
G75*
G02*
X15367500Y-12642500I0J-30000D01*
G01*
X15367500Y-13987500D02*
G75*
G02*
X15337500Y-14017500I-30000J0D01*
G01*
X16822500Y-10177500D02*
X16822500Y-8832500D01*
X16852500Y-8802500D02*
X18197500Y-8802500D01*
X18197500Y-10207500D02*
X16852500Y-10207500D01*
X18227500Y-8832500D02*
X18227500Y-10177500D01*
X16822500Y-8832500D02*
G75*
G02*
X16852500Y-8802500I30000J0D01*
G01*
X16852500Y-10207500D02*
G75*
G02*
X16822500Y-10177500I0J30000D01*
G01*
X18197500Y-8802500D02*
G75*
G02*
X18227500Y-8832500I0J-30000D01*
G01*
X18227500Y-10177500D02*
G75*
G02*
X18197500Y-10207500I-30000J0D01*
G01*
X13012500Y-6367500D02*
X13012500Y-5022500D01*
X13042500Y-4992500D02*
X14387500Y-4992500D01*
X14387500Y-6397500D02*
X13042500Y-6397500D01*
X14417500Y-5022500D02*
X14417500Y-6367500D01*
X13012500Y-5022500D02*
G75*
G02*
X13042500Y-4992500I30000J0D01*
G01*
X13042500Y-6397500D02*
G75*
G02*
X13012500Y-6367500I0J30000D01*
G01*
X14387500Y-4992500D02*
G75*
G02*
X14417500Y-5022500I0J-30000D01*
G01*
X14417500Y-6367500D02*
G75*
G02*
X14387500Y-6397500I-30000J0D01*
G01*
X12057500Y-14227500D02*
X12057500Y-12882500D01*
X12087500Y-12852500D02*
X13432500Y-12852500D01*
X13432500Y-14257500D02*
X12087500Y-14257500D01*
X13462500Y-12882500D02*
X13462500Y-14227500D01*
X12057500Y-12882500D02*
G75*
G02*
X12087500Y-12852500I30000J0D01*
G01*
X12087500Y-14257500D02*
G75*
G02*
X12057500Y-14227500I0J30000D01*
G01*
X13432500Y-12852500D02*
G75*
G02*
X13462500Y-12882500I0J-30000D01*
G01*
X13462500Y-14227500D02*
G75*
G02*
X13432500Y-14257500I-30000J0D01*
G01*
X11107500Y-6607500D02*
X11107500Y-5262500D01*
X11137500Y-5232500D02*
X12482500Y-5232500D01*
X12482500Y-6637500D02*
X11137500Y-6637500D01*
X12512500Y-5262500D02*
X12512500Y-6607500D01*
X11107500Y-5262500D02*
G75*
G02*
X11137500Y-5232500I30000J0D01*
G01*
X11137500Y-6637500D02*
G75*
G02*
X11107500Y-6607500I0J30000D01*
G01*
X12482500Y-5232500D02*
G75*
G02*
X12512500Y-5262500I0J-30000D01*
G01*
X12512500Y-6607500D02*
G75*
G02*
X12482500Y-6637500I-30000J0D01*
G01*
D12*
D13*
X10100000Y-12080000D02*
X10340000Y-12320000D01*
X10340000Y-12080000D02*
X10100000Y-12320000D01*
X12640000Y-6630000D02*
X12880000Y-6870000D01*
X12880000Y-6630000D02*
X12640000Y-6870000D01*
X12640000Y-10430000D02*
X12880000Y-10670000D01*
X12880000Y-10430000D02*
X12640000Y-10670000D01*
X20220000Y-7000000D02*
X20460000Y-7240000D01*
X20460000Y-7000000D02*
X20220000Y-7240000D01*
X20220000Y-10800000D02*
X20460000Y-11040000D01*
X20460000Y-10800000D02*
X20220000Y-11040000D01*
D12*
X8310069Y-15603068D02*
X8310069Y-15403068D01*
X8310069Y-15403068D02*
X8357688Y-15403068D01*
X8357688Y-15403068D02*
X8386260Y-15412592D01*
X8386260Y-15412592D02*
X8405308Y-15431640D01*
X8405308Y-15431640D02*
X8414831Y-15450687D01*
X8414831Y-15450687D02*
X8424355Y-15488783D01*
X8424355Y-15488783D02*
X8424355Y-15517354D01*
X8424355Y-15517354D02*
X8414831Y-15555449D01*
X8414831Y-15555449D02*
X8405308Y-15574497D01*
X8405308Y-15574497D02*
X8386260Y-15593545D01*
X8386260Y-15593545D02*
X8357688Y-15603068D01*
X8357688Y-15603068D02*
X8310069Y-15603068D01*
X8510070Y-15603068D02*
X8510070Y-15469735D01*
X8510070Y-15507830D02*
X8519593Y-15488783D01*
X8519593Y-15488783D02*
X8529117Y-15479259D01*
X8529117Y-15479259D02*
X8548165Y-15469735D01*
X8548165Y-15469735D02*
X8567212Y-15469735D01*
X8633879Y-15603068D02*
X8633879Y-15469735D01*
X8633879Y-15403068D02*
X8624355Y-15412592D01*
X8624355Y-15412592D02*
X8633879Y-15422116D01*
X8633879Y-15422116D02*
X8643403Y-15412592D01*
X8643403Y-15412592D02*
X8633879Y-15403068D01*
X8633879Y-15403068D02*
X8633879Y-15422116D01*
X8757689Y-15603068D02*
X8738641Y-15593545D01*
X8738641Y-15593545D02*
X8729117Y-15574497D01*
X8729117Y-15574497D02*
X8729117Y-15403068D01*
X8862450Y-15603068D02*
X8843403Y-15593545D01*
X8843403Y-15593545D02*
X8833879Y-15574497D01*
X8833879Y-15574497D02*
X8833879Y-15403068D01*
X9091022Y-15603068D02*
X9091022Y-15403068D01*
X9091022Y-15403068D02*
X9157689Y-15545926D01*
X9157689Y-15545926D02*
X9224355Y-15403068D01*
X9224355Y-15403068D02*
X9224355Y-15603068D01*
X9405308Y-15603068D02*
X9405308Y-15498307D01*
X9405308Y-15498307D02*
X9395784Y-15479259D01*
X9395784Y-15479259D02*
X9376736Y-15469735D01*
X9376736Y-15469735D02*
X9338641Y-15469735D01*
X9338641Y-15469735D02*
X9319593Y-15479259D01*
X9405308Y-15593545D02*
X9386260Y-15603068D01*
X9386260Y-15603068D02*
X9338641Y-15603068D01*
X9338641Y-15603068D02*
X9319593Y-15593545D01*
X9319593Y-15593545D02*
X9310070Y-15574497D01*
X9310070Y-15574497D02*
X9310070Y-15555449D01*
X9310070Y-15555449D02*
X9319593Y-15536402D01*
X9319593Y-15536402D02*
X9338641Y-15526878D01*
X9338641Y-15526878D02*
X9386260Y-15526878D01*
X9386260Y-15526878D02*
X9405308Y-15517354D01*
X9500546Y-15469735D02*
X9500546Y-15669735D01*
X9500546Y-15479259D02*
X9519593Y-15469735D01*
X9519593Y-15469735D02*
X9557689Y-15469735D01*
X9557689Y-15469735D02*
X9576736Y-15479259D01*
X9576736Y-15479259D02*
X9586260Y-15488783D01*
X9586260Y-15488783D02*
X9595784Y-15507830D01*
X9595784Y-15507830D02*
X9595784Y-15564973D01*
X9595784Y-15564973D02*
X9586260Y-15584021D01*
X9586260Y-15584021D02*
X9576736Y-15593545D01*
X9576736Y-15593545D02*
X9557689Y-15603068D01*
X9557689Y-15603068D02*
X9519593Y-15603068D01*
X9519593Y-15603068D02*
X9500546Y-15593545D01*
X9681498Y-15584021D02*
X9691022Y-15593545D01*
X9691022Y-15593545D02*
X9681498Y-15603068D01*
X9681498Y-15603068D02*
X9671974Y-15593545D01*
X9671974Y-15593545D02*
X9681498Y-15584021D01*
X9681498Y-15584021D02*
X9681498Y-15603068D01*
X9681498Y-15479259D02*
X9691022Y-15488783D01*
X9691022Y-15488783D02*
X9681498Y-15498307D01*
X9681498Y-15498307D02*
X9671974Y-15488783D01*
X9671974Y-15488783D02*
X9681498Y-15479259D01*
X9681498Y-15479259D02*
X9681498Y-15498307D01*
X7849293Y-15831585D02*
X8049293Y-16031585D01*
X8049293Y-15831585D02*
X7849293Y-16031585D01*
X8300546Y-15842116D02*
X8310069Y-15832592D01*
X8310069Y-15832592D02*
X8329117Y-15823068D01*
X8329117Y-15823068D02*
X8376736Y-15823068D01*
X8376736Y-15823068D02*
X8395784Y-15832592D01*
X8395784Y-15832592D02*
X8405308Y-15842116D01*
X8405308Y-15842116D02*
X8414831Y-15861164D01*
X8414831Y-15861164D02*
X8414831Y-15880211D01*
X8414831Y-15880211D02*
X8405308Y-15908783D01*
X8405308Y-15908783D02*
X8291022Y-16023068D01*
X8291022Y-16023068D02*
X8414831Y-16023068D01*
X8500546Y-16004021D02*
X8510070Y-16013545D01*
X8510070Y-16013545D02*
X8500546Y-16023068D01*
X8500546Y-16023068D02*
X8491022Y-16013545D01*
X8491022Y-16013545D02*
X8500546Y-16004021D01*
X8500546Y-16004021D02*
X8500546Y-16023068D01*
X8681498Y-15889735D02*
X8681498Y-16023068D01*
X8633879Y-15813545D02*
X8586260Y-15956402D01*
X8586260Y-15956402D02*
X8710070Y-15956402D01*
X8824355Y-15823068D02*
X8843403Y-15823068D01*
X8843403Y-15823068D02*
X8862451Y-15832592D01*
X8862451Y-15832592D02*
X8871974Y-15842116D01*
X8871974Y-15842116D02*
X8881498Y-15861164D01*
X8881498Y-15861164D02*
X8891022Y-15899259D01*
X8891022Y-15899259D02*
X8891022Y-15946878D01*
X8891022Y-15946878D02*
X8881498Y-15984973D01*
X8881498Y-15984973D02*
X8871974Y-16004021D01*
X8871974Y-16004021D02*
X8862451Y-16013545D01*
X8862451Y-16013545D02*
X8843403Y-16023068D01*
X8843403Y-16023068D02*
X8824355Y-16023068D01*
X8824355Y-16023068D02*
X8805308Y-16013545D01*
X8805308Y-16013545D02*
X8795784Y-16004021D01*
X8795784Y-16004021D02*
X8786260Y-15984973D01*
X8786260Y-15984973D02*
X8776736Y-15946878D01*
X8776736Y-15946878D02*
X8776736Y-15899259D01*
X8776736Y-15899259D02*
X8786260Y-15861164D01*
X8786260Y-15861164D02*
X8795784Y-15842116D01*
X8795784Y-15842116D02*
X8805308Y-15832592D01*
X8805308Y-15832592D02*
X8824355Y-15823068D01*
X9014831Y-15823068D02*
X9033879Y-15823068D01*
X9033879Y-15823068D02*
X9052927Y-15832592D01*
X9052927Y-15832592D02*
X9062451Y-15842116D01*
X9062451Y-15842116D02*
X9071974Y-15861164D01*
X9071974Y-15861164D02*
X9081498Y-15899259D01*
X9081498Y-15899259D02*
X9081498Y-15946878D01*
X9081498Y-15946878D02*
X9071974Y-15984973D01*
X9071974Y-15984973D02*
X9062451Y-16004021D01*
X9062451Y-16004021D02*
X9052927Y-16013545D01*
X9052927Y-16013545D02*
X9033879Y-16023068D01*
X9033879Y-16023068D02*
X9014831Y-16023068D01*
X9014831Y-16023068D02*
X8995784Y-16013545D01*
X8995784Y-16013545D02*
X8986260Y-16004021D01*
X8986260Y-16004021D02*
X8976736Y-15984973D01*
X8976736Y-15984973D02*
X8967212Y-15946878D01*
X8967212Y-15946878D02*
X8967212Y-15899259D01*
X8967212Y-15899259D02*
X8976736Y-15861164D01*
X8976736Y-15861164D02*
X8986260Y-15842116D01*
X8986260Y-15842116D02*
X8995784Y-15832592D01*
X8995784Y-15832592D02*
X9014831Y-15823068D01*
X9167212Y-16023068D02*
X9167212Y-15889735D01*
X9167212Y-15908783D02*
X9176736Y-15899259D01*
X9176736Y-15899259D02*
X9195784Y-15889735D01*
X9195784Y-15889735D02*
X9224355Y-15889735D01*
X9224355Y-15889735D02*
X9243403Y-15899259D01*
X9243403Y-15899259D02*
X9252927Y-15918307D01*
X9252927Y-15918307D02*
X9252927Y-16023068D01*
X9252927Y-15918307D02*
X9262451Y-15899259D01*
X9262451Y-15899259D02*
X9281498Y-15889735D01*
X9281498Y-15889735D02*
X9310070Y-15889735D01*
X9310070Y-15889735D02*
X9329117Y-15899259D01*
X9329117Y-15899259D02*
X9338641Y-15918307D01*
X9338641Y-15918307D02*
X9338641Y-16023068D01*
X9433879Y-16023068D02*
X9433879Y-15889735D01*
X9433879Y-15908783D02*
X9443403Y-15899259D01*
X9443403Y-15899259D02*
X9462451Y-15889735D01*
X9462451Y-15889735D02*
X9491022Y-15889735D01*
X9491022Y-15889735D02*
X9510070Y-15899259D01*
X9510070Y-15899259D02*
X9519593Y-15918307D01*
X9519593Y-15918307D02*
X9519593Y-16023068D01*
X9519593Y-15918307D02*
X9529117Y-15899259D01*
X9529117Y-15899259D02*
X9548165Y-15889735D01*
X9548165Y-15889735D02*
X9576736Y-15889735D01*
X9576736Y-15889735D02*
X9595784Y-15899259D01*
X9595784Y-15899259D02*
X9605308Y-15918307D01*
X9605308Y-15918307D02*
X9605308Y-16023068D01*
X9995784Y-15813545D02*
X9824355Y-16070687D01*
X10252927Y-15823068D02*
X10271975Y-15823068D01*
X10271975Y-15823068D02*
X10291022Y-15832592D01*
X10291022Y-15832592D02*
X10300546Y-15842116D01*
X10300546Y-15842116D02*
X10310070Y-15861164D01*
X10310070Y-15861164D02*
X10319594Y-15899259D01*
X10319594Y-15899259D02*
X10319594Y-15946878D01*
X10319594Y-15946878D02*
X10310070Y-15984973D01*
X10310070Y-15984973D02*
X10300546Y-16004021D01*
X10300546Y-16004021D02*
X10291022Y-16013545D01*
X10291022Y-16013545D02*
X10271975Y-16023068D01*
X10271975Y-16023068D02*
X10252927Y-16023068D01*
X10252927Y-16023068D02*
X10233879Y-16013545D01*
X10233879Y-16013545D02*
X10224355Y-16004021D01*
X10224355Y-16004021D02*
X10214832Y-15984973D01*
X10214832Y-15984973D02*
X10205308Y-15946878D01*
X10205308Y-15946878D02*
X10205308Y-15899259D01*
X10205308Y-15899259D02*
X10214832Y-15861164D01*
X10214832Y-15861164D02*
X10224355Y-15842116D01*
X10224355Y-15842116D02*
X10233879Y-15832592D01*
X10233879Y-15832592D02*
X10252927Y-15823068D01*
X10405308Y-16004021D02*
X10414832Y-16013545D01*
X10414832Y-16013545D02*
X10405308Y-16023068D01*
X10405308Y-16023068D02*
X10395784Y-16013545D01*
X10395784Y-16013545D02*
X10405308Y-16004021D01*
X10405308Y-16004021D02*
X10405308Y-16023068D01*
X10538641Y-15823068D02*
X10557689Y-15823068D01*
X10557689Y-15823068D02*
X10576736Y-15832592D01*
X10576736Y-15832592D02*
X10586260Y-15842116D01*
X10586260Y-15842116D02*
X10595784Y-15861164D01*
X10595784Y-15861164D02*
X10605308Y-15899259D01*
X10605308Y-15899259D02*
X10605308Y-15946878D01*
X10605308Y-15946878D02*
X10595784Y-15984973D01*
X10595784Y-15984973D02*
X10586260Y-16004021D01*
X10586260Y-16004021D02*
X10576736Y-16013545D01*
X10576736Y-16013545D02*
X10557689Y-16023068D01*
X10557689Y-16023068D02*
X10538641Y-16023068D01*
X10538641Y-16023068D02*
X10519594Y-16013545D01*
X10519594Y-16013545D02*
X10510070Y-16004021D01*
X10510070Y-16004021D02*
X10500546Y-15984973D01*
X10500546Y-15984973D02*
X10491022Y-15946878D01*
X10491022Y-15946878D02*
X10491022Y-15899259D01*
X10491022Y-15899259D02*
X10500546Y-15861164D01*
X10500546Y-15861164D02*
X10510070Y-15842116D01*
X10510070Y-15842116D02*
X10519594Y-15832592D01*
X10519594Y-15832592D02*
X10538641Y-15823068D01*
X10700546Y-16023068D02*
X10738641Y-16023068D01*
X10738641Y-16023068D02*
X10757689Y-16013545D01*
X10757689Y-16013545D02*
X10767213Y-16004021D01*
X10767213Y-16004021D02*
X10786260Y-15975449D01*
X10786260Y-15975449D02*
X10795784Y-15937354D01*
X10795784Y-15937354D02*
X10795784Y-15861164D01*
X10795784Y-15861164D02*
X10786260Y-15842116D01*
X10786260Y-15842116D02*
X10776736Y-15832592D01*
X10776736Y-15832592D02*
X10757689Y-15823068D01*
X10757689Y-15823068D02*
X10719594Y-15823068D01*
X10719594Y-15823068D02*
X10700546Y-15832592D01*
X10700546Y-15832592D02*
X10691022Y-15842116D01*
X10691022Y-15842116D02*
X10681498Y-15861164D01*
X10681498Y-15861164D02*
X10681498Y-15908783D01*
X10681498Y-15908783D02*
X10691022Y-15927830D01*
X10691022Y-15927830D02*
X10700546Y-15937354D01*
X10700546Y-15937354D02*
X10719594Y-15946878D01*
X10719594Y-15946878D02*
X10757689Y-15946878D01*
X10757689Y-15946878D02*
X10776736Y-15937354D01*
X10776736Y-15937354D02*
X10786260Y-15927830D01*
X10786260Y-15927830D02*
X10795784Y-15908783D01*
X10967213Y-15889735D02*
X10967213Y-16023068D01*
X10919594Y-15813545D02*
X10871975Y-15956402D01*
X10871975Y-15956402D02*
X10995784Y-15956402D01*
X11167213Y-15823068D02*
X11071975Y-15823068D01*
X11071975Y-15823068D02*
X11062451Y-15918307D01*
X11062451Y-15918307D02*
X11071975Y-15908783D01*
X11071975Y-15908783D02*
X11091022Y-15899259D01*
X11091022Y-15899259D02*
X11138641Y-15899259D01*
X11138641Y-15899259D02*
X11157689Y-15908783D01*
X11157689Y-15908783D02*
X11167213Y-15918307D01*
X11167213Y-15918307D02*
X11176736Y-15937354D01*
X11176736Y-15937354D02*
X11176736Y-15984973D01*
X11176736Y-15984973D02*
X11167213Y-16004021D01*
X11167213Y-16004021D02*
X11157689Y-16013545D01*
X11157689Y-16013545D02*
X11138641Y-16023068D01*
X11138641Y-16023068D02*
X11091022Y-16023068D01*
X11091022Y-16023068D02*
X11071975Y-16013545D01*
X11071975Y-16013545D02*
X11062451Y-16004021D01*
X11252927Y-15823068D02*
X11252927Y-15861164D01*
X11329117Y-15823068D02*
X11329117Y-15861164D01*
X11624356Y-16099259D02*
X11614832Y-16089735D01*
X11614832Y-16089735D02*
X11595784Y-16061164D01*
X11595784Y-16061164D02*
X11586260Y-16042116D01*
X11586260Y-16042116D02*
X11576736Y-16013545D01*
X11576736Y-16013545D02*
X11567213Y-15965926D01*
X11567213Y-15965926D02*
X11567213Y-15927830D01*
X11567213Y-15927830D02*
X11576736Y-15880211D01*
X11576736Y-15880211D02*
X11586260Y-15851640D01*
X11586260Y-15851640D02*
X11595784Y-15832592D01*
X11595784Y-15832592D02*
X11614832Y-15804021D01*
X11614832Y-15804021D02*
X11624356Y-15794497D01*
X11795784Y-15823068D02*
X11700546Y-15823068D01*
X11700546Y-15823068D02*
X11691022Y-15918307D01*
X11691022Y-15918307D02*
X11700546Y-15908783D01*
X11700546Y-15908783D02*
X11719594Y-15899259D01*
X11719594Y-15899259D02*
X11767213Y-15899259D01*
X11767213Y-15899259D02*
X11786260Y-15908783D01*
X11786260Y-15908783D02*
X11795784Y-15918307D01*
X11795784Y-15918307D02*
X11805308Y-15937354D01*
X11805308Y-15937354D02*
X11805308Y-15984973D01*
X11805308Y-15984973D02*
X11795784Y-16004021D01*
X11795784Y-16004021D02*
X11786260Y-16013545D01*
X11786260Y-16013545D02*
X11767213Y-16023068D01*
X11767213Y-16023068D02*
X11719594Y-16023068D01*
X11719594Y-16023068D02*
X11700546Y-16013545D01*
X11700546Y-16013545D02*
X11691022Y-16004021D01*
X12043403Y-16023068D02*
X12043403Y-15823068D01*
X12129117Y-16023068D02*
X12129117Y-15918307D01*
X12129117Y-15918307D02*
X12119594Y-15899259D01*
X12119594Y-15899259D02*
X12100546Y-15889735D01*
X12100546Y-15889735D02*
X12071975Y-15889735D01*
X12071975Y-15889735D02*
X12052927Y-15899259D01*
X12052927Y-15899259D02*
X12043403Y-15908783D01*
X12252927Y-16023068D02*
X12233879Y-16013545D01*
X12233879Y-16013545D02*
X12224356Y-16004021D01*
X12224356Y-16004021D02*
X12214832Y-15984973D01*
X12214832Y-15984973D02*
X12214832Y-15927830D01*
X12214832Y-15927830D02*
X12224356Y-15908783D01*
X12224356Y-15908783D02*
X12233879Y-15899259D01*
X12233879Y-15899259D02*
X12252927Y-15889735D01*
X12252927Y-15889735D02*
X12281498Y-15889735D01*
X12281498Y-15889735D02*
X12300546Y-15899259D01*
X12300546Y-15899259D02*
X12310070Y-15908783D01*
X12310070Y-15908783D02*
X12319594Y-15927830D01*
X12319594Y-15927830D02*
X12319594Y-15984973D01*
X12319594Y-15984973D02*
X12310070Y-16004021D01*
X12310070Y-16004021D02*
X12300546Y-16013545D01*
X12300546Y-16013545D02*
X12281498Y-16023068D01*
X12281498Y-16023068D02*
X12252927Y-16023068D01*
X12433879Y-16023068D02*
X12414832Y-16013545D01*
X12414832Y-16013545D02*
X12405308Y-15994497D01*
X12405308Y-15994497D02*
X12405308Y-15823068D01*
X12586260Y-16013545D02*
X12567213Y-16023068D01*
X12567213Y-16023068D02*
X12529117Y-16023068D01*
X12529117Y-16023068D02*
X12510070Y-16013545D01*
X12510070Y-16013545D02*
X12500546Y-15994497D01*
X12500546Y-15994497D02*
X12500546Y-15918307D01*
X12500546Y-15918307D02*
X12510070Y-15899259D01*
X12510070Y-15899259D02*
X12529117Y-15889735D01*
X12529117Y-15889735D02*
X12567213Y-15889735D01*
X12567213Y-15889735D02*
X12586260Y-15899259D01*
X12586260Y-15899259D02*
X12595784Y-15918307D01*
X12595784Y-15918307D02*
X12595784Y-15937354D01*
X12595784Y-15937354D02*
X12500546Y-15956402D01*
X12671975Y-16013545D02*
X12691022Y-16023068D01*
X12691022Y-16023068D02*
X12729117Y-16023068D01*
X12729117Y-16023068D02*
X12748165Y-16013545D01*
X12748165Y-16013545D02*
X12757689Y-15994497D01*
X12757689Y-15994497D02*
X12757689Y-15984973D01*
X12757689Y-15984973D02*
X12748165Y-15965926D01*
X12748165Y-15965926D02*
X12729117Y-15956402D01*
X12729117Y-15956402D02*
X12700546Y-15956402D01*
X12700546Y-15956402D02*
X12681498Y-15946878D01*
X12681498Y-15946878D02*
X12671975Y-15927830D01*
X12671975Y-15927830D02*
X12671975Y-15918307D01*
X12671975Y-15918307D02*
X12681498Y-15899259D01*
X12681498Y-15899259D02*
X12700546Y-15889735D01*
X12700546Y-15889735D02*
X12729117Y-15889735D01*
X12729117Y-15889735D02*
X12748165Y-15899259D01*
X12824356Y-16099259D02*
X12833879Y-16089735D01*
X12833879Y-16089735D02*
X12852927Y-16061164D01*
X12852927Y-16061164D02*
X12862451Y-16042116D01*
X12862451Y-16042116D02*
X12871975Y-16013545D01*
X12871975Y-16013545D02*
X12881498Y-15965926D01*
X12881498Y-15965926D02*
X12881498Y-15927830D01*
X12881498Y-15927830D02*
X12871975Y-15880211D01*
X12871975Y-15880211D02*
X12862451Y-15851640D01*
X12862451Y-15851640D02*
X12852927Y-15832592D01*
X12852927Y-15832592D02*
X12833879Y-15804021D01*
X12833879Y-15804021D02*
X12824356Y-15794497D01*
M02*
